<svg width="120" height="64" viewBox="0 0 120 64" fill="none" xmlns="http://www.w3.org/2000/svg">
<path d="M119.777 23.2874L120 21.4893L119.995 20.4322L119.751 18.7342L119.201 17.155L118.332 15.7071L117.053 14.2467L115.596 13.0459L113.9 11.9857L111.884 11.0676L109.411 10.2359L106.967 9.58642L104.564 9.0668L102.178 8.70758L99.7436 8.4993L94.1201 8.24048L85.7769 8.23918L76.4795 8.5472L76.2679 9.19023L76.7437 9.53224L85.217 9.28813L92.1215 9.23961L98.5139 9.47059L102.115 9.74291L105.641 10.3391L108.058 10.9158L110.301 11.582L112.415 12.4036L113.337 12.8606L114.979 13.8866L116.381 15.0438L116.972 15.6553L117.859 16.8485L118.224 17.5342L118.515 18.2506L118.891 19.8085L118.974 21.3157L118.762 23.031L118.542 23.8953L117.864 25.711L116.877 27.6027L116.276 28.5551L114.934 30.3361L114.113 31.2668L112.228 33.1322L111.176 34.0585L107.574 36.819L103.382 39.4626L98.5374 41.9919L91.3329 45.2132L85.4398 47.5117L74.9439 51.1412L66.5745 53.8337L58.1491 56.3364L50.1539 58.5271L50.1471 58.5289L44.4251 59.9349L37.315 61.3954L32.3368 62.1939L27.6247 62.7154L24.6176 62.909L21.7395 62.9816L17.7177 62.8581L15.2437 62.6168L12.9214 62.249L9.80577 61.4864L8.11256 60.8801L6.48777 60.1218L5.06341 59.2515L4.436 58.7778L3.86196 58.276L2.89075 57.2077L2.18329 56.0969L1.60682 54.7679L1.22022 53.3146L1.09848 52.5576L1.0285 50.1932L1.22296 48.3685L1.58971 46.4465L2.11207 44.4475L2.80679 42.3267L3.66706 40.1342L4.69016 37.9315L5.86659 35.7617L7.20078 33.5705L9.40915 30.4442L12.0825 27.357L15.1218 24.4182L18.5429 21.6455L22.365 19.0803L26.584 16.7087L31.1945 14.4916L34.509 13.0886L39.8282 11.1056L45.2369 9.33675L51.0604 7.68366L57.0707 6.20005L64.9574 4.51543L70.83 3.47096L78.1396 2.37781L84.7799 1.64752L90.6426 1.20207L95.6593 1.04258L100.853 1.08083L107.424 1.5325L110.415 1.87246L112.19 2.16534L112.638 1.84518V1.41829L112.228 1.12548L110.173 0.79754L106.895 0.44087L101.771 0.0808194L98.9293 0L94.4667 0.0205193L87.7841 0.356116L79.7954 1.127L70.7445 2.43786L62.88 3.87668L56.9548 5.17412L52.932 6.14577L46.9891 7.74978L41.1888 9.56719L35.7463 11.5055L30.6696 13.5988L26.0314 15.8292L21.7797 18.2178L17.9224 20.8067L15.5713 22.6561L12.3736 25.575L9.54532 28.6383L6.99629 32.0203L4.91243 35.3435L3.18329 38.6516L1.81372 41.9906L1.11025 44.1409L0.577599 46.1756L0.0809914 49.0839L0 51.9318L0.0787747 52.7796L0.383135 54.3471L0.611961 55.1015L1.21885 56.502L2.13899 57.9134L3.18394 59.0665L3.79491 59.5993L4.45904 60.0997L5.93314 61.0018L8.50922 62.1271L11.7039 63.0474L15.1765 63.6516L18.9896 63.9692L23.1736 64L27.6697 63.7524L32.4078 63.2279L37.4094 62.4257L42.7045 61.3703L48.337 60.0488L58.2935 57.3563L66.7279 54.8498L73.3155 52.7526L83.8429 49.1722L89.93 46.8943L95.5384 44.5182L100.767 42.0428L103.954 40.3331L106.839 38.57L110.679 35.8154L113.889 32.9877L115.647 31.0885L116.419 30.1152L117.211 29.0028L118.373 27.051L118.845 26.0776L119.543 24.2104L119.777 23.2874Z" fill="black"/>
<path d="M46.4589 38.986C46.4442 38.8833 46.3782 38.612 46.2609 38.172C46.1435 37.732 46.0922 37.358 46.1069 37.05C46.1215 36.4193 46.2902 35.73 46.6129 34.982C46.9502 34.234 47.2655 33.6473 47.5589 33.222C47.8669 32.7967 48.3215 32.1807 48.9229 31.374C49.7442 30.318 50.4189 29.79 50.9469 29.79C51.0789 29.79 51.1962 29.8413 51.2989 29.944C51.4309 30.12 51.4602 30.274 51.3869 30.406C51.3282 30.5233 51.3209 30.5893 51.3649 30.604C51.4969 30.648 51.6069 30.582 51.6949 30.406C51.7829 30.23 51.9075 30.1347 52.0689 30.12C52.4942 30.0907 52.8022 30.098 52.9929 30.142C54.1955 30.4647 54.7969 31.484 54.7969 33.2C54.7969 34.2267 54.3642 35.3927 53.4989 36.698C53.4402 36.786 53.3742 36.8667 53.3009 36.94C53.2422 36.9987 53.1835 37.05 53.1249 37.094C53.0662 37.138 52.9929 37.1747 52.9049 37.204C52.8315 37.2333 52.7729 37.2553 52.7289 37.27C52.6849 37.2847 52.6189 37.2993 52.5309 37.314C52.4575 37.314 52.4062 37.314 52.3769 37.314C52.3475 37.314 52.2962 37.314 52.2229 37.314C52.1495 37.314 52.1055 37.314 52.0909 37.314C52.0029 37.314 51.9442 37.3287 51.9149 37.358C51.8855 37.3727 51.8782 37.4093 51.8929 37.468C52.0689 37.996 52.0249 38.4287 51.7609 38.766C51.5115 39.0887 51.0349 39.3747 50.3309 39.624C50.1549 39.6973 49.9569 39.7853 49.7369 39.888C49.5169 39.9907 49.3629 40.064 49.2749 40.108C49.1869 40.152 49.0402 40.196 48.8349 40.24C48.6295 40.2693 48.4462 40.2547 48.2849 40.196C47.1702 40.0053 46.5615 39.602 46.4589 38.986ZM47.2069 37.578C47.2069 37.9153 47.2655 38.194 47.3829 38.414C47.7495 38.8687 48.0869 39.1253 48.3949 39.184C48.5122 39.1987 48.6442 39.184 48.7909 39.14C48.9522 39.0813 49.1355 39.008 49.3409 38.92C49.5609 38.832 49.7369 38.766 49.8689 38.722C50.3675 38.5607 50.8882 38.1427 51.4309 37.468C51.8855 36.9107 52.2155 36.4927 52.4209 36.214C52.6409 35.9207 52.8902 35.5027 53.1689 34.96C53.4622 34.4173 53.6455 33.904 53.7189 33.42C53.7775 33.0387 53.7189 32.562 53.5429 31.99C53.3815 31.4033 53.2055 31.0807 53.0149 31.022C52.8682 30.978 52.7289 31.022 52.5969 31.154C52.4795 31.2713 52.3695 31.4253 52.2669 31.616C52.1789 31.792 52.0542 31.968 51.8929 32.144C51.7315 32.32 51.5482 32.43 51.3429 32.474C51.3429 32.4447 51.3575 32.4153 51.3869 32.386C51.4309 32.3567 51.4455 32.3273 51.4309 32.298C51.4015 32.2687 51.3429 32.276 51.2549 32.32C51.1669 32.3493 51.1082 32.3567 51.0789 32.342C51.0202 32.2833 51.0642 32.2393 51.2109 32.21C51.4749 32.1367 51.6069 32.078 51.6069 32.034C51.5922 31.99 51.5335 31.968 51.4309 31.968C51.3282 31.968 51.2695 31.9533 51.2549 31.924C51.2255 31.8653 51.2329 31.8213 51.2769 31.792C51.3355 31.748 51.4089 31.726 51.4969 31.726C51.5849 31.7113 51.6655 31.6967 51.7389 31.682C51.8269 31.6527 51.8855 31.6233 51.9149 31.594C51.9442 31.5647 51.9369 31.5133 51.8929 31.44C51.8635 31.396 51.8049 31.3227 51.7169 31.22C51.6289 31.1027 51.5629 31.022 51.5189 30.978C51.4895 30.934 51.4309 30.8753 51.3429 30.802C51.2549 30.714 51.1815 30.6773 51.1229 30.692C51.0789 30.7067 51.0055 30.714 50.9029 30.714C50.7562 30.7727 50.6095 30.8607 50.4629 30.978C50.3162 31.0807 50.1695 31.2273 50.0229 31.418C49.8762 31.6087 49.7442 31.7847 49.6269 31.946C49.5242 32.0927 49.3922 32.3053 49.2309 32.584C49.0842 32.8627 48.9742 33.0607 48.9009 33.178C48.8422 33.2953 48.7395 33.5007 48.5929 33.794C48.4609 34.0873 48.3875 34.2487 48.3729 34.278C47.5955 35.642 47.2069 36.742 47.2069 37.578ZM50.2209 33.684C50.1475 33.5667 50.1402 33.4273 50.1989 33.266C50.2722 33.1047 50.3969 33.0387 50.5729 33.068C50.6169 33.0827 50.6755 33.1047 50.7489 33.134C50.8369 33.1633 50.8882 33.178 50.9029 33.178C50.9322 33.178 50.9762 33.1633 51.0349 33.134C51.0789 33.0753 51.0642 32.9947 50.9909 32.892C50.9175 32.7893 50.8222 32.738 50.7049 32.738C50.7049 32.5473 50.7709 32.4887 50.9029 32.562C51.0495 32.65 51.1229 32.848 51.1229 33.156C51.1229 33.2 51.0862 33.2733 51.0129 33.376C50.9542 33.4787 50.8882 33.5667 50.8149 33.64C50.7562 33.6987 50.7195 33.7133 50.7049 33.684C50.6169 33.552 50.4995 33.486 50.3529 33.486C50.2502 33.486 50.2502 33.5373 50.3529 33.64C50.3969 33.684 50.4409 33.7207 50.4849 33.75C50.5435 33.7793 50.5802 33.8013 50.5949 33.816C50.6242 33.8307 50.6389 33.8527 50.6389 33.882C50.6389 33.9113 50.6169 33.948 50.5729 33.992L50.3749 34.212C50.3602 34.212 50.3529 34.19 50.3529 34.146C50.3529 34.102 50.3382 34.036 50.3089 33.948C50.2942 33.86 50.2649 33.772 50.2209 33.684ZM50.2649 34.366C50.2355 34.542 50.1915 34.6447 50.1329 34.674C50.0742 34.6887 50.0375 34.6593 50.0229 34.586C50.0082 34.5127 50.0155 34.4247 50.0449 34.322C50.1475 34.2487 50.2209 34.2633 50.2649 34.366ZM56.1 44.728C55.7333 44.5813 55.6453 44.31 55.836 43.914C55.88 43.826 56.1587 43.6573 56.672 43.408C57.2 43.1733 57.8233 42.8873 58.542 42.55C59.2753 42.2273 59.8253 41.9487 60.192 41.714C60.9987 41.2153 61.5267 40.79 61.776 40.438C61.8493 40.35 61.93 40.2473 62.018 40.13C62.106 40.0127 62.172 39.9247 62.216 39.866C62.26 39.8073 62.2967 39.7487 62.326 39.69C62.37 39.6167 62.392 39.5433 62.392 39.47C62.392 39.3233 62.304 39.118 62.128 38.854C61.8933 38.5167 61.4387 38.084 60.764 37.556C60.104 37.028 59.6493 36.6173 59.4 36.324C59.18 36.0893 59.0113 35.884 58.894 35.708C58.7913 35.5173 58.7253 35.378 58.696 35.29C58.6667 35.202 58.6153 35.0187 58.542 34.74C58.8793 34.652 59.0993 34.5787 59.202 34.52C59.3047 34.4467 59.4 34.3293 59.488 34.168C59.532 34.0947 59.5613 34.124 59.576 34.256C59.5907 34.3 59.6127 34.3953 59.642 34.542C59.6713 34.8647 59.708 35.0553 59.752 35.114C59.8987 35.3487 60.0893 35.5833 60.324 35.818C60.5733 36.0527 60.7933 36.2433 60.984 36.39C61.1747 36.5367 61.4387 36.7273 61.776 36.962C62.1133 37.182 62.348 37.3433 62.48 37.446C63.14 37.9593 63.47 38.5753 63.47 39.294C63.47 40.0713 63.1547 40.7753 62.524 41.406C61.908 42.022 61.204 42.4327 60.412 42.638C60.2213 42.682 59.9573 42.8947 59.62 43.276C59.2827 43.672 58.9673 43.8847 58.674 43.914C58.5713 43.9287 58.4687 43.9873 58.366 44.09C58.2633 44.1927 58.1827 44.2587 58.124 44.288C58.0213 44.3467 57.882 44.376 57.706 44.376C57.5447 44.3907 57.4347 44.4053 57.376 44.42C57.288 44.4493 57.1413 44.5007 56.936 44.574C56.7307 44.662 56.5767 44.7133 56.474 44.728C56.386 44.7573 56.2613 44.7573 56.1 44.728ZM57.552 31.33C57.42 31.198 57.354 31.066 57.354 30.934C57.354 30.802 57.4053 30.6773 57.508 30.56C57.6253 30.4427 57.7647 30.3327 57.926 30.23C58.0873 30.1273 58.2707 30.032 58.476 29.944C58.696 29.8413 58.894 29.7607 59.07 29.702C59.246 29.6287 59.4147 29.5627 59.576 29.504C59.752 29.4453 59.862 29.4013 59.906 29.372C60.6687 29.0347 61.49 28.866 62.37 28.866C63.2793 28.866 63.734 29.152 63.734 29.724C63.734 29.9587 63.6607 30.2227 63.514 30.516C63.602 30.516 63.6387 30.56 63.624 30.648C63.5507 30.692 63.448 30.7213 63.316 30.736C63.1987 30.736 63.1107 30.7653 63.052 30.824C62.9933 30.868 62.9567 30.978 62.942 31.154C62.8247 31.1393 62.744 31.1467 62.7 31.176C62.6707 31.1907 62.612 31.264 62.524 31.396C62.392 31.5867 62.172 31.7993 61.864 32.034C61.556 32.2687 61.3433 32.452 61.226 32.584C60.9327 32.9067 60.632 33.134 60.324 33.266C60.016 33.398 59.7667 33.4567 59.576 33.442C59.4 33.4127 59.2533 33.4273 59.136 33.486C59.0187 33.5447 58.9673 33.6767 58.982 33.882C58.9967 34.0727 58.96 34.212 58.872 34.3C58.784 34.388 58.608 34.4907 58.344 34.608C58.344 34.4907 58.3293 34.41 58.3 34.366C58.2707 34.3073 58.2853 34.212 58.344 34.08C58.4173 33.948 58.4613 33.86 58.476 33.816C58.5053 33.7573 58.564 33.6693 58.652 33.552C58.7547 33.4347 58.8207 33.354 58.85 33.31C58.8793 33.266 58.938 33.1927 59.026 33.09C59.1287 32.9873 59.1873 32.9287 59.202 32.914C59.4367 32.65 59.862 32.254 60.478 31.726C61.094 31.198 61.6 30.736 61.996 30.34C61.8933 30.2373 61.7393 30.186 61.534 30.186C61.2407 30.186 60.698 30.318 59.906 30.582C59.1287 30.846 58.608 31.0513 58.344 31.198C58.3 31.2273 58.2193 31.286 58.102 31.374C57.9847 31.462 57.8893 31.528 57.816 31.572C57.7427 31.616 57.64 31.66 57.508 31.704C57.3907 31.7333 57.31 31.7113 57.266 31.638C57.222 31.6087 57.2293 31.5793 57.288 31.55C57.3613 31.506 57.4273 31.4693 57.486 31.44C57.5593 31.396 57.5813 31.3593 57.552 31.33ZM57.31 32.012C57.3833 32.012 57.486 31.99 57.618 31.946C57.75 31.902 57.8747 31.8947 57.992 31.924C57.992 31.968 57.9993 32.056 58.014 32.188C58.0433 32.3053 58.0507 32.3933 58.036 32.452C58.0213 32.5107 57.9773 32.54 57.904 32.54C57.8013 32.54 57.684 32.4887 57.552 32.386C57.4347 32.2687 57.354 32.144 57.31 32.012Z" fill="black"/>
</svg>
