<svg width="95" height="85" viewBox="0 0 95 85" fill="none" xmlns="http://www.w3.org/2000/svg">
<path fill-rule="evenodd" clip-rule="evenodd" d="M93.7204 51.3466L94.1538 46.8301L94.107 42.0254L93.633 37.5268L92.7659 33.2314L91.4581 29.0069L89.7394 24.918L87.653 21.0703L85.0778 17.3611L82.1261 14.0304L78.8604 10.9869L75.5101 8.34185L72.2344 6.20562L68.8441 4.60116L63.596 2.83116L57.5476 1.24354L53.444 0.639771L46.1593 0L41.7272 0.0278211L34.3773 0.499385L33.7689 0.947844L34.0257 1.7433L34.4544 1.8851L41.7519 1.41696L45.34 1.37313L47.8062 1.47467L53.3657 2.02365L56.0236 2.37562L58.8398 2.92568L63.4023 4.1924L66.5059 5.17602L69.8602 6.53756L71.4999 7.37739L73.0988 8.34902L76.3569 10.7178L79.6532 13.5413L81.2326 15.0791L83.2903 17.4003L79.7247 14.8798L75.8636 12.3439L72.9159 10.6387L67.9854 8.22007L64.2956 6.5754L60.4119 5.09802L58.2274 4.41375L56.242 3.91051L52.1852 3.14815L47.9821 2.65855L45.8517 2.53861L41.6505 2.59933L39.5891 2.80023L37.5451 3.12095L33.4695 4.08347L31.2396 4.78435L27.307 6.31666L23.5934 8.16376L21.8151 9.21839L20.0682 10.381L16.7174 12.9591L13.606 15.7959L10.8119 18.7769L8.32898 21.9274L7.0602 23.7693L5.01016 27.2021L3.29643 30.7157L1.9546 34.2375L1.41022 36.0448L0.587956 39.6912L0.114157 43.3562L0 47.1809L0.221893 50.7506L0.459555 52.5466L1.21086 56.0808L2.37593 59.5149L3.98898 62.7986L6.1521 66.1746L8.60619 69.2431L11.4737 72.0975L14.7616 74.6787L18.528 77.0649L22.6811 79.2087L27.1083 81.0371L31.9508 82.5669L36.9662 83.7453L42.2038 84.5833L47.4511 85L52.5643 84.929L57.7475 84.4156L62.8666 83.4652L65.3467 82.8204L67.9337 81.9971L70.2027 81.125L72.3876 80.1239L76.5762 77.7475L80.4429 74.937L82.224 73.3897L83.876 71.7692L85.3901 70.083L86.7741 68.2987L88.1735 66.2181L90.366 62.151L92.0837 57.8659L93.3036 53.5406L93.7204 51.3466ZM92.3027 37.8484L92.7708 42.281L92.8169 46.5901L92.6661 48.8267L92.39 51.0272L91.985 53.1655L90.7835 57.4242L89.0925 61.6429L88.0737 63.6762L86.9386 65.6374L85.7602 67.4004L84.4636 69.0723L82.9819 70.7238L81.363 72.3106L77.7559 75.2632L73.775 77.8278L69.5321 79.9233L67.3523 80.7616L62.7116 82.0936L60.2094 82.6167L55.0845 83.3397L49.9996 83.6339L47.4772 83.6106L42.2841 83.1992L37.0973 82.3694L32.1303 81.2024L27.7427 79.82L23.3683 78.0149L19.2688 75.898L15.5571 73.5465L12.3242 71.0085L10.8761 69.6478L8.2633 66.7302L6.18393 63.819L4.39397 60.6488L3.0394 57.3726L2.1092 53.9581L1.55643 50.4632L1.3394 46.9838L1.45035 43.6273L1.91461 40.0278L2.72421 36.4418L3.87114 32.9367L5.37514 29.4775L7.23686 26.0407L8.28239 24.3679L10.4773 21.3137L11.7292 19.7982L14.4873 16.8558L17.5574 14.0565L20.8634 11.5129L24.3249 9.33578L27.9844 7.51553L31.8117 6.02364L35.66 4.9223L39.674 4.18485L43.7514 3.90596L47.9309 4.04519L50.0131 4.24889L54.1145 4.87804L58.0432 5.7781L61.7276 7.01622L65.4957 8.58742L70.6442 11.0218L75.1064 13.5001L81.0546 17.4767L83.4532 19.2752L86.4564 21.9774L86.9814 22.6295L87.4866 23.507L88.4682 25.4318L90.162 29.4624L91.4502 33.6203L92.3027 37.8484Z" fill="black"/>
<path d="M34.5878 49.986C34.5731 49.8833 34.5071 49.612 34.3898 49.172C34.2724 48.732 34.2211 48.358 34.2358 48.05C34.2504 47.4193 34.4191 46.73 34.7418 45.982C35.0791 45.234 35.3944 44.6473 35.6878 44.222C35.9958 43.7967 36.4504 43.1807 37.0518 42.374C37.8731 41.318 38.5478 40.79 39.0758 40.79C39.2078 40.79 39.3251 40.8413 39.4278 40.944C39.5598 41.12 39.5891 41.274 39.5158 41.406C39.4571 41.5233 39.4498 41.5893 39.4938 41.604C39.6258 41.648 39.7358 41.582 39.8238 41.406C39.9118 41.23 40.0364 41.1347 40.1978 41.12C40.6231 41.0907 40.9311 41.098 41.1218 41.142C42.3244 41.4647 42.9258 42.484 42.9258 44.2C42.9258 45.2267 42.4931 46.3927 41.6278 47.698C41.5691 47.786 41.5031 47.8667 41.4298 47.94C41.3711 47.9987 41.3124 48.05 41.2538 48.094C41.1951 48.138 41.1218 48.1747 41.0338 48.204C40.9604 48.2333 40.9018 48.2553 40.8578 48.27C40.8138 48.2847 40.7478 48.2993 40.6598 48.314C40.5864 48.314 40.5351 48.314 40.5058 48.314C40.4764 48.314 40.4251 48.314 40.3518 48.314C40.2784 48.314 40.2344 48.314 40.2198 48.314C40.1318 48.314 40.0731 48.3287 40.0438 48.358C40.0144 48.3727 40.0071 48.4093 40.0218 48.468C40.1978 48.996 40.1538 49.4287 39.8898 49.766C39.6404 50.0887 39.1638 50.3747 38.4598 50.624C38.2838 50.6973 38.0858 50.7853 37.8658 50.888C37.6458 50.9907 37.4918 51.064 37.4038 51.108C37.3158 51.152 37.1691 51.196 36.9638 51.24C36.7584 51.2693 36.5751 51.2547 36.4138 51.196C35.2991 51.0053 34.6904 50.602 34.5878 49.986ZM35.3358 48.578C35.3358 48.9153 35.3944 49.194 35.5118 49.414C35.8784 49.8687 36.2158 50.1253 36.5238 50.184C36.6411 50.1987 36.7731 50.184 36.9198 50.14C37.0811 50.0813 37.2644 50.008 37.4698 49.92C37.6898 49.832 37.8658 49.766 37.9978 49.722C38.4964 49.5607 39.0171 49.1427 39.5598 48.468C40.0144 47.9107 40.3444 47.4927 40.5498 47.214C40.7698 46.9207 41.0191 46.5027 41.2978 45.96C41.5911 45.4173 41.7744 44.904 41.8478 44.42C41.9064 44.0387 41.8478 43.562 41.6718 42.99C41.5104 42.4033 41.3344 42.0807 41.1438 42.022C40.9971 41.978 40.8578 42.022 40.7258 42.154C40.6084 42.2713 40.4984 42.4253 40.3958 42.616C40.3078 42.792 40.1831 42.968 40.0218 43.144C39.8604 43.32 39.6771 43.43 39.4718 43.474C39.4718 43.4447 39.4864 43.4153 39.5158 43.386C39.5598 43.3567 39.5744 43.3273 39.5598 43.298C39.5304 43.2687 39.4718 43.276 39.3838 43.32C39.2958 43.3493 39.2371 43.3567 39.2078 43.342C39.1491 43.2833 39.1931 43.2393 39.3398 43.21C39.6038 43.1367 39.7358 43.078 39.7358 43.034C39.7211 42.99 39.6624 42.968 39.5598 42.968C39.4571 42.968 39.3984 42.9533 39.3838 42.924C39.3544 42.8653 39.3618 42.8213 39.4058 42.792C39.4644 42.748 39.5378 42.726 39.6258 42.726C39.7138 42.7113 39.7944 42.6967 39.8678 42.682C39.9558 42.6527 40.0144 42.6233 40.0438 42.594C40.0731 42.5647 40.0658 42.5133 40.0218 42.44C39.9924 42.396 39.9338 42.3227 39.8458 42.22C39.7578 42.1027 39.6918 42.022 39.6478 41.978C39.6184 41.934 39.5598 41.8753 39.4718 41.802C39.3838 41.714 39.3104 41.6773 39.2518 41.692C39.2078 41.7067 39.1344 41.714 39.0318 41.714C38.8851 41.7727 38.7384 41.8607 38.5918 41.978C38.4451 42.0807 38.2984 42.2273 38.1518 42.418C38.0051 42.6087 37.8731 42.7847 37.7558 42.946C37.6531 43.0927 37.5211 43.3053 37.3598 43.584C37.2131 43.8627 37.1031 44.0607 37.0298 44.178C36.9711 44.2953 36.8684 44.5007 36.7218 44.794C36.5898 45.0873 36.5164 45.2487 36.5018 45.278C35.7244 46.642 35.3358 47.742 35.3358 48.578ZM38.3498 44.684C38.2764 44.5667 38.2691 44.4273 38.3278 44.266C38.4011 44.1047 38.5258 44.0387 38.7018 44.068C38.7458 44.0827 38.8044 44.1047 38.8778 44.134C38.9658 44.1633 39.0171 44.178 39.0318 44.178C39.0611 44.178 39.1051 44.1633 39.1638 44.134C39.2078 44.0753 39.1931 43.9947 39.1198 43.892C39.0464 43.7893 38.9511 43.738 38.8338 43.738C38.8338 43.5473 38.8998 43.4887 39.0318 43.562C39.1784 43.65 39.2518 43.848 39.2518 44.156C39.2518 44.2 39.2151 44.2733 39.1418 44.376C39.0831 44.4787 39.0171 44.5667 38.9438 44.64C38.8851 44.6987 38.8484 44.7133 38.8338 44.684C38.7458 44.552 38.6284 44.486 38.4818 44.486C38.3791 44.486 38.3791 44.5373 38.4818 44.64C38.5258 44.684 38.5698 44.7207 38.6138 44.75C38.6724 44.7793 38.7091 44.8013 38.7238 44.816C38.7531 44.8307 38.7678 44.8527 38.7678 44.882C38.7678 44.9113 38.7458 44.948 38.7018 44.992L38.5038 45.212C38.4891 45.212 38.4818 45.19 38.4818 45.146C38.4818 45.102 38.4671 45.036 38.4378 44.948C38.4231 44.86 38.3938 44.772 38.3498 44.684ZM38.3938 45.366C38.3644 45.542 38.3204 45.6447 38.2618 45.674C38.2031 45.6887 38.1664 45.6593 38.1518 45.586C38.1371 45.5127 38.1444 45.4247 38.1738 45.322C38.2764 45.2487 38.3498 45.2633 38.3938 45.366ZM53.1829 51.086C53.2709 51.086 53.3589 51.1373 53.4469 51.24C53.5496 51.3427 53.5789 51.438 53.5349 51.526C53.5056 51.57 53.4763 51.592 53.4469 51.592L53.2489 51.504C53.1169 51.4453 53.0363 51.4527 53.0069 51.526C52.9923 51.5553 52.9923 51.5773 53.0069 51.592C53.0216 51.6067 53.0509 51.636 53.0949 51.68C53.1389 51.7093 53.1683 51.7387 53.1829 51.768C52.9189 51.856 52.2883 52.142 51.2909 52.626C50.2936 53.0953 49.4576 53.352 48.7829 53.396C48.2109 53.44 47.8149 53.462 47.5949 53.462C47.1403 53.462 46.8176 53.4107 46.6269 53.308C46.4803 53.2347 46.2969 53.1613 46.0769 53.088C45.8716 53.0147 45.7176 52.956 45.6149 52.912C45.5123 52.868 45.3876 52.7947 45.2409 52.692C45.1089 52.5747 44.9769 52.428 44.8449 52.252C44.6689 51.988 44.5809 51.7093 44.5809 51.416C44.5809 51.0933 44.6909 50.7193 44.9109 50.294C45.1309 49.8687 45.3069 49.568 45.4389 49.392C45.5856 49.2013 45.8276 48.9007 46.1649 48.49C46.2383 48.402 46.5903 48.0647 47.2209 47.478C47.8516 46.8913 48.2256 46.554 48.3429 46.466C48.5629 46.3047 48.9296 46.2093 49.4429 46.18L49.6629 46.136C49.6189 46.0333 49.5016 45.9307 49.3109 45.828C49.1203 45.7253 49.0616 45.5787 49.1349 45.388C49.1643 45.3147 49.2156 45.234 49.2889 45.146C49.3623 45.058 49.4429 44.9627 49.5309 44.86C49.6336 44.7427 49.7143 44.6473 49.7729 44.574C49.9929 44.31 50.0956 44.1047 50.0809 43.958C50.0809 43.8113 49.9196 43.738 49.5969 43.738C49.4356 43.738 49.1276 43.8113 48.6729 43.958C48.2329 44.1047 47.9396 44.178 47.7929 44.178C47.5289 44.178 47.4776 44.002 47.6389 43.65C47.6536 43.5913 47.7049 43.5473 47.7929 43.518C47.8956 43.474 48.0129 43.4373 48.1449 43.408C48.2769 43.3787 48.3649 43.3567 48.4089 43.342C48.5263 43.2833 48.5923 43.21 48.6069 43.122C48.6216 43.034 48.6656 42.9607 48.7389 42.902C48.9149 42.7407 49.3109 42.66 49.9269 42.66C50.2789 42.66 50.5576 42.7627 50.7629 42.968C51.1883 43.3493 51.2909 43.8187 51.0709 44.376C51.0563 44.4053 51.0123 44.5227 50.9389 44.728C50.8803 44.9333 50.8216 45.1093 50.7629 45.256C50.7043 45.388 50.6236 45.5273 50.5209 45.674C50.4183 45.8207 50.3156 45.9087 50.2129 45.938C50.1836 45.938 50.0589 46.07 49.8389 46.334C49.6336 46.598 49.3989 46.8987 49.1349 47.236C48.8709 47.5587 48.7243 47.742 48.6949 47.786C48.4896 48.0353 48.1669 48.3653 47.7269 48.776C47.3016 49.172 46.9863 49.4873 46.7809 49.722C46.7516 49.7513 46.6929 49.8173 46.6049 49.92C46.5316 50.008 46.4656 50.0813 46.4069 50.14C46.3629 50.184 46.2969 50.2573 46.2089 50.36C46.1356 50.4627 46.0769 50.5507 46.0329 50.624C45.9889 50.6973 45.9376 50.7853 45.8789 50.888C45.8203 50.976 45.7836 51.0567 45.7689 51.13C45.7543 51.2033 45.7396 51.284 45.7249 51.372C45.7249 51.4453 45.7396 51.526 45.7689 51.614C45.7983 51.6873 45.8423 51.7533 45.9009 51.812C46.2383 52.1493 46.8249 52.3033 47.6609 52.274C48.3943 52.2153 49.4503 52.0247 50.8289 51.702C50.9756 51.6727 51.3349 51.5627 51.9069 51.372C52.4789 51.1667 52.9043 51.0713 53.1829 51.086ZM47.3529 44.288C47.1916 44.3907 47.0743 44.376 47.0009 44.244C46.9569 44.1707 46.9936 44.0973 47.1109 44.024C47.1549 43.9947 47.2063 44.0167 47.2649 44.09C47.3236 44.1487 47.3529 44.2147 47.3529 44.288ZM47.0229 44.574C46.7736 44.706 46.6416 44.7207 46.6269 44.618C46.6123 44.574 46.6489 44.5227 46.7369 44.464C46.7663 44.4493 46.8176 44.4567 46.8909 44.486C46.9789 44.5153 47.0229 44.5447 47.0229 44.574ZM54.2169 50.778C54.4223 50.6313 54.5396 50.6093 54.5689 50.712C54.5983 50.7707 54.5689 50.8367 54.4809 50.91C54.2169 51.13 54.0043 51.24 53.8429 51.24C53.6963 51.24 53.7476 51.1373 53.9969 50.932C54.0556 50.888 54.1289 50.8367 54.2169 50.778Z" fill="black"/>
</svg>
