<svg width="99" height="85" viewBox="0 0 99 85" fill="none" xmlns="http://www.w3.org/2000/svg">
<path fill-rule="evenodd" clip-rule="evenodd" d="M98.9882 56.165L99 53.8103L98.8413 51.5663L98.5133 49.2915L98.017 47.0048L97.356 44.7283L96.5104 42.4061L95.4688 39.9973L94.2496 37.5394L92.8684 35.0696L91.3409 32.6254L89.6839 30.2465L87.8163 27.8386L85.9468 25.7017L83.9142 23.6554L81.6761 21.6436L79.2816 19.6914L77.1218 18.0805L77.1001 14.6353L76.759 12.3604L76.3425 10.8712L75.7995 9.37747L74.6916 7.24676L73.1012 5.21213L71.9058 4.02802L70.5207 2.96139L68.9158 2.06013L67.0907 1.31487L64.9048 0.65633L62.6684 0.222465L60.2325 0.00532933L57.5735 0L54.6961 0.189739L51.6521 0.594489L48.4951 1.23225L43.4718 2.61469L39.7985 3.87241L36.2671 5.32221L34.5222 6.14511L30.867 8.0766L23.3179 9.33113L13.6 11.2774L13.3977 11.8963L13.8972 12.2569L23.4112 10.37L23.4178 10.3687L28.4422 9.50376L27.4745 10.0889L24.008 12.4133L22.3322 13.6568L19.1496 16.284L16.0742 19.1592L13.1619 22.2312L10.4997 25.4309L9.1898 27.1935L8.0483 28.8584L5.94384 32.317L4.10918 35.8819L2.59852 39.4547L1.97724 41.2234L0.996714 44.7529L0.345433 48.3019L0.144477 50.0678L0 53.673L0.203689 56.9806L0.758294 60.2097L1.65205 63.3281L2.87457 66.2871L4.40824 69.0502L6.34211 71.7978L8.50803 74.2365L9.72894 75.3799L11.0437 76.4614L13.9571 78.4229L17.258 80.1725L20.9118 81.684L23.0239 82.3912L27.15 83.475L31.649 84.2643L36.511 84.7771L41.5952 85L46.7625 84.9208L52.1059 84.5089L52.1113 84.5082L54.8746 84.1811L60.4395 83.3157L65.8574 82.2208L73.4939 80.2665L78.6047 78.6845L80.9713 77.8162L83.2229 76.869L85.3298 75.8276L87.2599 74.6841L89.0449 73.4415L90.7286 72.1134L92.2969 70.698L93.7327 69.198L95.0185 67.6144L96.2351 65.8168L97.1713 64.07L97.9051 62.2453L98.443 60.3222L98.8034 58.2886L98.9882 56.165ZM40.1772 7.24985L33.6418 7.80422L36.7955 6.2229L40.2968 4.78543L43.678 3.6235L48.6188 2.26502L51.738 1.6339L56.1938 1.11633L60.214 1.05242L61.4235 1.1291L63.7079 1.45192L66.6058 2.2334L68.378 2.95701L69.1744 3.36536L69.9121 3.81832L71.2422 4.84268L72.9124 6.58307L74.1404 8.35563L74.8097 9.74545L75.3357 11.1886L75.8909 13.3582L76.0705 14.8381L76.125 16.3044L76.1062 17.3649L74.2223 16.0762L71.6568 14.4662L69.1308 13.0236L66.693 11.7748L64.2913 10.7402L61.7023 9.85464L59.2639 9.18903L56.8442 8.66448L52.1625 7.92514L47.8352 7.40373L45.8164 7.2215L43.8611 7.14931L40.1772 7.24985ZM97.8124 51.7828L97.9674 53.9768L97.9569 55.98L97.7759 58.0584L97.4239 60.0446L96.9005 61.9169L96.188 63.6885L95.2779 65.3868L94.2358 66.9378L93.0239 68.4298L91.6162 69.9004L90.0752 71.2913L88.4176 72.5988L86.6615 73.8212L84.7653 74.9446L82.691 75.97L80.4656 76.9062L78.1207 77.765L75.8441 78.5056L70.8254 79.9252L65.7377 81.1872L63.0773 81.7573L57.5768 82.7406L54.8056 83.1385L49.3534 83.7123L44.1664 83.9518L41.6048 83.9529L36.5507 83.7313L31.7231 83.2222L27.2639 82.4398L23.2123 81.3765L19.5552 80.0533L17.7953 79.2757L16.1244 78.4413L13.0553 76.6118L11.6764 75.6217L10.3933 74.5669L8.08812 72.2699L7.07157 71.0541L5.36094 68.6127L3.85421 65.8989L2.65395 62.9914L2.17557 61.4835L1.46123 58.356L1.08799 55.1467L1.06055 51.9839L1.1742 50.2761L1.65306 46.7867L2.45991 43.2776L2.98233 41.5466L4.30148 38.0353L5.09086 36.2656L6.90803 32.7336L8.99519 29.3052L11.2289 26.1753L13.8693 23.0007L16.7603 19.9511L18.2693 18.4982L21.3699 15.7669L24.6286 13.2609L26.3306 12.0828L29.8273 9.87969L31.2138 9.0834L32.4337 8.95396L32.4394 8.95343L40.2071 8.29626L43.8586 8.19662L45.7798 8.26755L52.0902 8.96737L56.746 9.70262L59.1372 10.2209L61.5062 10.8678L63.7877 11.6518L66.1555 12.6725L68.5668 13.9066L71.0728 15.3377L73.6201 16.9363L76.0556 18.603L75.879 20.2318L75.3221 23.0323L75.0154 24.264L74.2999 26.4271L74.1913 26.9055L74.4363 27.2398H75.0173L75.2159 26.9687L76.0277 24.5672L76.7967 21.1019L77.0283 19.3214L78.6441 20.5263L81.0199 22.4633L83.2375 24.4566L85.2479 26.4806L87.0963 28.5933L88.7953 30.7772L90.3965 33.0742L91.9103 35.4956L93.2791 37.943L94.4865 40.3771L95.5155 42.7603L96.3511 45.0509L97.0022 47.2945L97.4897 49.5448L97.8124 51.7828Z" fill="black"/>
<path d="M39.1132 50.986C39.0985 50.8833 39.0325 50.612 38.9152 50.172C38.7978 49.732 38.7465 49.358 38.7612 49.05C38.7758 48.4193 38.9445 47.73 39.2672 46.982C39.6045 46.234 39.9198 45.6473 40.2132 45.222C40.5212 44.7967 40.9758 44.1807 41.5772 43.374C42.3985 42.318 43.0732 41.79 43.6012 41.79C43.7332 41.79 43.8505 41.8413 43.9532 41.944C44.0852 42.12 44.1145 42.274 44.0412 42.406C43.9825 42.5233 43.9752 42.5893 44.0192 42.604C44.1512 42.648 44.2612 42.582 44.3492 42.406C44.4372 42.23 44.5618 42.1347 44.7232 42.12C45.1485 42.0907 45.4565 42.098 45.6472 42.142C46.8498 42.4647 47.4512 43.484 47.4512 45.2C47.4512 46.2267 47.0185 47.3927 46.1532 48.698C46.0945 48.786 46.0285 48.8667 45.9552 48.94C45.8965 48.9987 45.8378 49.05 45.7792 49.094C45.7205 49.138 45.6472 49.1747 45.5592 49.204C45.4858 49.2333 45.4272 49.2553 45.3832 49.27C45.3392 49.2847 45.2732 49.2993 45.1852 49.314C45.1118 49.314 45.0605 49.314 45.0312 49.314C45.0018 49.314 44.9505 49.314 44.8772 49.314C44.8038 49.314 44.7598 49.314 44.7452 49.314C44.6572 49.314 44.5985 49.3287 44.5692 49.358C44.5398 49.3727 44.5325 49.4093 44.5472 49.468C44.7232 49.996 44.6792 50.4287 44.4152 50.766C44.1658 51.0887 43.6892 51.3747 42.9852 51.624C42.8092 51.6973 42.6112 51.7853 42.3912 51.888C42.1712 51.9907 42.0172 52.064 41.9292 52.108C41.8412 52.152 41.6945 52.196 41.4892 52.24C41.2838 52.2693 41.1005 52.2547 40.9392 52.196C39.8245 52.0053 39.2158 51.602 39.1132 50.986ZM39.8612 49.578C39.8612 49.9153 39.9198 50.194 40.0372 50.414C40.4038 50.8687 40.7412 51.1253 41.0492 51.184C41.1665 51.1987 41.2985 51.184 41.4452 51.14C41.6065 51.0813 41.7898 51.008 41.9952 50.92C42.2152 50.832 42.3912 50.766 42.5232 50.722C43.0218 50.5607 43.5425 50.1427 44.0852 49.468C44.5398 48.9107 44.8698 48.4927 45.0752 48.214C45.2952 47.9207 45.5445 47.5027 45.8232 46.96C46.1165 46.4173 46.2998 45.904 46.3732 45.42C46.4318 45.0387 46.3732 44.562 46.1972 43.99C46.0358 43.4033 45.8598 43.0807 45.6692 43.022C45.5225 42.978 45.3832 43.022 45.2512 43.154C45.1338 43.2713 45.0238 43.4253 44.9212 43.616C44.8332 43.792 44.7085 43.968 44.5472 44.144C44.3858 44.32 44.2025 44.43 43.9972 44.474C43.9972 44.4447 44.0118 44.4153 44.0412 44.386C44.0852 44.3567 44.0998 44.3273 44.0852 44.298C44.0558 44.2687 43.9972 44.276 43.9092 44.32C43.8212 44.3493 43.7625 44.3567 43.7332 44.342C43.6745 44.2833 43.7185 44.2393 43.8652 44.21C44.1292 44.1367 44.2612 44.078 44.2612 44.034C44.2465 43.99 44.1878 43.968 44.0852 43.968C43.9825 43.968 43.9238 43.9533 43.9092 43.924C43.8798 43.8653 43.8872 43.8213 43.9312 43.792C43.9898 43.748 44.0632 43.726 44.1512 43.726C44.2392 43.7113 44.3198 43.6967 44.3932 43.682C44.4812 43.6527 44.5398 43.6233 44.5692 43.594C44.5985 43.5647 44.5912 43.5133 44.5472 43.44C44.5178 43.396 44.4592 43.3227 44.3712 43.22C44.2832 43.1027 44.2172 43.022 44.1732 42.978C44.1438 42.934 44.0852 42.8753 43.9972 42.802C43.9092 42.714 43.8358 42.6773 43.7772 42.692C43.7332 42.7067 43.6598 42.714 43.5572 42.714C43.4105 42.7727 43.2638 42.8607 43.1172 42.978C42.9705 43.0807 42.8238 43.2273 42.6772 43.418C42.5305 43.6087 42.3985 43.7847 42.2812 43.946C42.1785 44.0927 42.0465 44.3053 41.8852 44.584C41.7385 44.8627 41.6285 45.0607 41.5552 45.178C41.4965 45.2953 41.3938 45.5007 41.2472 45.794C41.1152 46.0873 41.0418 46.2487 41.0272 46.278C40.2498 47.642 39.8612 48.742 39.8612 49.578ZM42.8752 45.684C42.8018 45.5667 42.7945 45.4273 42.8532 45.266C42.9265 45.1047 43.0512 45.0387 43.2272 45.068C43.2712 45.0827 43.3298 45.1047 43.4032 45.134C43.4912 45.1633 43.5425 45.178 43.5572 45.178C43.5865 45.178 43.6305 45.1633 43.6892 45.134C43.7332 45.0753 43.7185 44.9947 43.6452 44.892C43.5718 44.7893 43.4765 44.738 43.3592 44.738C43.3592 44.5473 43.4252 44.4887 43.5572 44.562C43.7038 44.65 43.7772 44.848 43.7772 45.156C43.7772 45.2 43.7405 45.2733 43.6672 45.376C43.6085 45.4787 43.5425 45.5667 43.4692 45.64C43.4105 45.6987 43.3738 45.7133 43.3592 45.684C43.2712 45.552 43.1538 45.486 43.0072 45.486C42.9045 45.486 42.9045 45.5373 43.0072 45.64C43.0512 45.684 43.0952 45.7207 43.1392 45.75C43.1978 45.7793 43.2345 45.8013 43.2492 45.816C43.2785 45.8307 43.2932 45.8527 43.2932 45.882C43.2932 45.9113 43.2712 45.948 43.2272 45.992L43.0292 46.212C43.0145 46.212 43.0072 46.19 43.0072 46.146C43.0072 46.102 42.9925 46.036 42.9632 45.948C42.9485 45.86 42.9192 45.772 42.8752 45.684ZM42.9192 46.366C42.8898 46.542 42.8458 46.6447 42.7872 46.674C42.7285 46.6887 42.6918 46.6593 42.6772 46.586C42.6625 46.5127 42.6698 46.4247 42.6992 46.322C42.8018 46.2487 42.8752 46.2633 42.9192 46.366ZM49.2603 53.56C49.2603 53.208 49.3263 52.9147 49.4583 52.68C49.517 52.5773 49.6196 52.262 49.7663 51.734C49.913 51.206 49.9936 50.9273 50.0083 50.898C50.463 49.8567 50.7123 49.182 50.7563 48.874C50.7563 48.8153 50.7563 48.7347 50.7563 48.632C50.771 48.5147 50.7783 48.4267 50.7783 48.368C50.793 48.3093 50.8076 48.2433 50.8223 48.17C50.8516 48.082 50.881 48.0087 50.9103 47.95C50.9543 47.8767 51.0056 47.8107 51.0643 47.752C51.1523 47.664 51.299 47.3853 51.5043 46.916C51.7096 46.432 51.8123 46.058 51.8123 45.794C51.8123 45.3687 51.9956 44.9727 52.3623 44.606C52.421 44.5473 52.5016 44.3713 52.6043 44.078C52.7216 43.77 52.8023 43.594 52.8463 43.55C52.993 43.4033 53.103 43.1687 53.1763 42.846C53.2643 42.5087 53.345 42.274 53.4183 42.142C53.5796 41.8487 53.763 41.702 53.9683 41.702C54.1296 41.702 54.2543 41.746 54.3423 41.834C54.357 41.8487 54.4083 41.8853 54.4963 41.944C54.599 42.0027 54.6576 42.0467 54.6723 42.076C54.7016 42.0907 54.7383 42.1273 54.7823 42.186C54.8263 42.2447 54.863 42.3107 54.8923 42.384C54.9216 42.4573 54.9363 42.5307 54.9363 42.604C54.951 42.6627 54.951 42.714 54.9363 42.758C54.9363 42.802 54.9143 42.8607 54.8703 42.934C54.841 43.0073 54.819 43.0587 54.8043 43.088C54.7896 43.1027 54.753 43.154 54.6943 43.242C54.6356 43.3153 54.599 43.3593 54.5843 43.374C54.5696 43.3887 54.511 43.4547 54.4083 43.572C54.3056 43.6893 54.2396 43.77 54.2103 43.814C54.1956 43.8433 54.1443 43.946 54.0563 44.122C53.9683 44.2833 53.8803 44.4373 53.7923 44.584C53.719 44.716 53.653 44.804 53.5943 44.848C53.477 44.9213 53.3963 45.0973 53.3523 45.376C53.3083 45.6547 53.2423 45.8307 53.1543 45.904C53.0516 45.992 52.8976 46.322 52.6923 46.894C52.487 47.466 52.333 47.818 52.2303 47.95C51.9223 48.3313 51.6803 48.8887 51.5043 49.622C51.343 50.3553 51.1743 50.9273 50.9983 51.338C50.9983 51.4113 50.8076 52.042 50.4263 53.23C50.045 54.4033 49.7956 54.99 49.6783 54.99C49.3996 54.99 49.2603 54.5133 49.2603 53.56ZM53.0003 43.814C53.0003 43.946 53.037 44.0267 53.1103 44.056C53.1983 44.0707 53.2496 44.078 53.2643 44.078C53.2936 44.0633 53.3303 44.0193 53.3743 43.946C53.433 43.858 53.4843 43.792 53.5283 43.748C53.631 43.6453 53.6823 43.5207 53.6823 43.374C53.6823 43.242 53.6383 43.1247 53.5503 43.022C53.4916 43.0073 53.455 43.066 53.4403 43.198C53.4403 43.3007 53.367 43.4107 53.2203 43.528C53.0736 43.6453 53.0003 43.7407 53.0003 43.814Z" fill="black"/>
</svg>
