<svg width="37" height="37" viewBox="0 0 37 37" fill="none" xmlns="http://www.w3.org/2000/svg">
<path id="left" d="M18.6513 7.37214C18.8567 7.01246 18.7316 6.55434 18.372 6.34892C18.0123 6.14349 17.5542 6.26854 17.3487 6.62823L18.6513 7.37214ZM7 18.5002L6.59708 17.8676C6.38741 18.0012 6.25753 18.2299 6.25032 18.4784C6.2431 18.7269 6.35948 18.9628 6.56105 19.1083L7 18.5002ZM17.3635 30.3969C17.5826 30.7484 18.0452 30.8558 18.3967 30.6367C18.7482 30.4176 18.8556 29.955 18.6365 29.6035L17.3635 30.3969ZM17.3487 6.62823C15.3868 10.0635 12.7006 12.8764 10.4896 14.8377C9.38669 15.8161 8.40819 16.5771 7.70732 17.0922C7.35703 17.3497 7.07651 17.5454 6.88497 17.6759C6.78921 17.7411 6.71573 17.79 6.66694 17.8221C6.64254 17.8382 6.62432 17.85 6.61258 17.8576C6.60671 17.8614 6.60245 17.8642 6.59986 17.8658C6.59856 17.8667 6.59767 17.8672 6.59721 17.8675C6.59698 17.8677 6.59685 17.8678 6.59683 17.8678C6.59682 17.8678 6.59688 17.8677 6.59687 17.8677C6.59696 17.8677 6.59708 17.8676 7 18.5002C7.40293 19.1328 7.40309 19.1327 7.40329 19.1325C7.40339 19.1325 7.40361 19.1323 7.40381 19.1322C7.40421 19.1319 7.40472 19.1316 7.40534 19.1312C7.40656 19.1304 7.40821 19.1294 7.41028 19.1281C7.41441 19.1254 7.42021 19.1217 7.42764 19.1169C7.4425 19.1072 7.46389 19.0933 7.4915 19.0751C7.54672 19.0388 7.62685 18.9855 7.72945 18.9156C7.93463 18.7758 8.22986 18.5697 8.59568 18.3008C9.32703 17.7633 10.3422 16.9736 11.485 15.9598C13.7657 13.9367 16.5795 10.9997 18.6513 7.37214L17.3487 6.62823ZM7 18.5002C6.56105 19.1083 6.56098 19.1083 6.56093 19.1082C6.56095 19.1082 6.56093 19.1082 6.56097 19.1083C6.56105 19.1083 6.56123 19.1084 6.56152 19.1087C6.5621 19.1091 6.56309 19.1098 6.5645 19.1108C6.56733 19.1129 6.57181 19.1161 6.57791 19.1206C6.59011 19.1295 6.6088 19.1432 6.63367 19.1615C6.6834 19.1983 6.75784 19.2537 6.85459 19.3269C7.0481 19.4734 7.33071 19.691 7.68316 19.9728C8.38834 20.5365 9.37165 21.356 10.4795 22.3752C12.7016 24.4194 15.3971 27.2421 17.3635 30.3969L18.6365 29.6035C16.5691 26.2866 13.7646 23.3592 11.4951 21.2713C10.3572 20.2245 9.34689 19.3824 8.61984 18.8012C8.25618 18.5104 7.96304 18.2847 7.75983 18.1309C7.65822 18.0539 7.57906 17.995 7.52478 17.9549C7.49763 17.9349 7.47671 17.9195 7.46231 17.909C7.4551 17.9038 7.44953 17.8997 7.44563 17.8969C7.44368 17.8955 7.44214 17.8944 7.44103 17.8936C7.44047 17.8932 7.44002 17.8928 7.43967 17.8926C7.4395 17.8924 7.43932 17.8923 7.43923 17.8923C7.43908 17.8921 7.43895 17.8921 7 18.5002Z" fill="black"/>
<path id="right" d="M7 18.5001C24.4806 18.5001 30.7351 18.5001 31 18.5001" stroke="black" stroke-width="1.5" stroke-linecap="round"/>
</svg>
