<svg width="27" height="27" viewBox="0 0 27 27" fill="none" xmlns="http://www.w3.org/2000/svg">
<path d="M16.8061 21.2357L16.806 21.2357C14.5724 20.5002 11.7302 18.5523 9.40187 16.144C7.06119 13.7229 5.35599 10.957 5.21587 8.63358C5.16667 7.80777 5.52739 6.43052 6.10393 5.46433C6.39476 4.97693 6.68951 4.68203 6.93072 4.5734C7.03832 4.52494 7.12461 4.51784 7.20256 4.53442C7.2842 4.55178 7.40347 4.60537 7.55495 4.75609L10.4997 7.7008C10.7227 7.9238 10.7191 8.30094 10.4793 8.54071L9.01646 10.0036C8.73416 10.2859 8.67539 10.7229 8.8729 11.0697C9.83963 12.7674 10.7229 14.0351 11.8081 15.1229C12.8938 16.2112 14.1607 17.0983 15.8703 18.0603C16.2167 18.2553 16.6514 18.1956 16.9324 17.9145L18.3928 16.4542C18.6337 16.2132 19.0108 16.2119 19.229 16.4302L22.1742 19.3753C22.3534 19.5545 22.4189 19.6983 22.439 19.7989C22.4579 19.8937 22.4457 19.9946 22.3835 20.1141C22.2449 20.3808 21.8746 20.6985 21.258 20.9708C20.0421 21.5076 18.2343 21.7065 16.8061 21.2357Z" fill="white" stroke="black" stroke-width="1.06579" stroke-linecap="round" stroke-linejoin="round"/>
</svg>
