<svg width="37" height="37" viewBox="0 0 37 37" fill="none" xmlns="http://www.w3.org/2000/svg">
<path d="M7.62208 16.3487C7.2624 16.1433 6.80428 16.2684 6.59886 16.628C6.39343 16.9877 6.51848 17.4458 6.87816 17.6513L7.62208 16.3487ZM18.7501 28L18.1175 28.4029C18.2511 28.6126 18.4799 28.7425 18.7284 28.7497C18.9768 28.7569 19.2128 28.6405 19.3583 28.439L18.7501 28ZM30.6468 17.6365C30.9984 17.4174 31.1057 16.9548 30.8866 16.6033C30.6675 16.2518 30.2049 16.1444 29.8534 16.3635L30.6468 17.6365ZM6.87816 17.6513C10.3134 19.6132 13.1264 22.2994 15.0876 24.5104C16.066 25.6133 16.827 26.5918 17.3421 27.2927C17.5996 27.643 17.7953 27.9235 17.9258 28.115C17.991 28.2108 18.0399 28.2843 18.072 28.3331C18.0881 28.3575 18.1 28.3757 18.1076 28.3874C18.1114 28.3933 18.1141 28.3975 18.1158 28.4001C18.1166 28.4014 18.1172 28.4023 18.1175 28.4028C18.1176 28.403 18.1177 28.4032 18.1177 28.4032C18.1177 28.4032 18.1177 28.4031 18.1177 28.4031C18.1176 28.403 18.1175 28.4029 18.7501 28C19.3827 27.5971 19.3826 27.5969 19.3825 27.5967C19.3824 27.5966 19.3823 27.5964 19.3821 27.5962C19.3819 27.5958 19.3816 27.5953 19.3812 27.5947C19.3804 27.5934 19.3793 27.5918 19.378 27.5897C19.3753 27.5856 19.3716 27.5798 19.3668 27.5724C19.3572 27.5575 19.3433 27.5361 19.3251 27.5085C19.2887 27.4533 19.2354 27.3732 19.1655 27.2705C19.0257 27.0654 18.8197 26.7701 18.5508 26.4043C18.0132 25.673 17.2235 24.6578 16.2097 23.515C14.1867 21.2343 11.2496 18.4205 7.62208 16.3487L6.87816 17.6513ZM18.7501 28C19.3583 28.439 19.3582 28.439 19.3582 28.4391C19.3582 28.4391 19.3582 28.4391 19.3582 28.439C19.3582 28.439 19.3584 28.4388 19.3586 28.4385C19.359 28.4379 19.3597 28.4369 19.3608 28.4355C19.3628 28.4327 19.3661 28.4282 19.3705 28.4221C19.3794 28.4099 19.3931 28.3912 19.4115 28.3663C19.4482 28.3166 19.5036 28.2422 19.5768 28.1454C19.7233 27.9519 19.9409 27.6693 20.2227 27.3168C20.7865 26.6117 21.6059 25.6284 22.6252 24.5205C24.6694 22.2984 27.492 19.6029 30.6468 17.6365L29.8534 16.3635C26.5365 18.4309 23.6091 21.2354 21.5213 23.5049C20.4745 24.6428 19.6324 25.6531 19.0511 26.3802C18.7604 26.7438 18.5346 27.037 18.3808 27.2402C18.3039 27.3418 18.245 27.4209 18.2049 27.4752C18.1848 27.5024 18.1695 27.5233 18.159 27.5377C18.1537 27.5449 18.1497 27.5505 18.1468 27.5544C18.1454 27.5563 18.1443 27.5579 18.1435 27.559C18.1431 27.5595 18.1428 27.56 18.1425 27.5603C18.1424 27.5605 18.1423 27.5607 18.1422 27.5608C18.1421 27.5609 18.142 27.561 18.7501 28Z" fill="black"/>
<path d="M18.75 28C18.75 10.5194 18.75 4.26486 18.75 4" stroke="black" stroke-width="1.5" stroke-linecap="round"/>
<path d="M5 26V33.25H32.5V26" stroke="black" stroke-width="1.5" stroke-linecap="round" stroke-linejoin="round"/>
</svg>
