<svg width="90" height="18" viewBox="0 0 90 18" fill="none" xmlns="http://www.w3.org/2000/svg">
<path d="M1.84956 5.4344L1.82708 5.50384C1.70556 5.46002 1.59622 5.41348 1.48827 5.37307C1.43518 5.33949 1.37251 5.32483 1.31043 5.33149L0.713341 5.4435L1.35387 5.68893L1.37741 5.70163L1.3739 5.70947C1.41278 5.73094 1.45436 5.74695 1.49749 5.75708C1.63431 5.80926 1.75384 5.85123 1.86495 5.89385C1.87416 5.98731 1.9824 6.04431 2.07842 6.09321L2.09922 6.10449L2.1137 6.11133L2.10573 6.13242L3.2764 6.58908C3.43527 6.65481 3.56785 6.70637 3.69678 6.75303L3.71093 6.71474L3.9945 6.85506L4.02479 6.87297C4.14652 6.95734 4.2758 7.03007 4.4109 7.09016L4.54044 7.12368L4.92576 7.31268C5.00396 7.35755 5.07134 7.40047 5.14146 7.44483L4.60464 7.32297L6.4201 8.19504L6.44528 8.1448L6.45469 8.14952L6.48536 8.10219C6.51945 8.12885 6.56137 8.1591 6.62108 8.20226L6.68626 8.11638L6.72861 8.13852L6.73732 8.15443L6.77382 8.1748C6.75607 8.1851 6.73644 8.19172 6.71605 8.19425C6.69566 8.19678 6.67493 8.19519 6.6551 8.18957C6.68082 8.19913 6.7686 8.24369 6.85172 8.28685L6.6346 8.30717C6.13203 8.13205 5.84426 8.03932 5.67427 7.99248L5.68627 7.91993L5.12886 7.79254L5.14518 7.68511C4.89337 7.63192 4.64824 7.54997 4.41455 7.4408L4.40056 7.42772L4.34963 7.4113L3.41331 6.98006L3.50226 7.0624C3.38449 7.01652 3.25548 6.96792 3.13064 6.91803L3.1056 6.98099L3.00707 6.93641C2.89199 6.88118 2.80828 6.84228 2.716 6.8002L1.76177 6.37188C1.74413 6.36282 1.72498 6.35457 1.70468 6.34599L1.66115 6.44469C1.62913 6.42183 1.57914 6.39107 1.49488 6.33869L1.42675 6.29618C1.38286 6.27058 1.34046 6.24248 1.29973 6.21202C1.31823 6.22915 1.33207 6.25075 1.3399 6.27473L1.2502 6.20171L1.25967 6.17089L1.23986 6.165L1.16843 6.14498L1.03862 6.08601L0.959123 6.21522C0.936048 6.25226 0.927956 6.29687 0.936497 6.33996C0.945038 6.38305 0.969564 6.42137 1.00509 6.44714L1.91035 7.16918C1.92094 7.24022 1.9725 7.31838 2.08294 7.4382L2.16223 7.36922L2.17887 7.3818L2.21736 7.41292L2.25529 7.36461L2.32959 7.4362C2.30158 7.46467 2.2645 7.48236 2.22471 7.48614C2.18493 7.48993 2.14495 7.47958 2.11172 7.45693C2.15205 7.48608 2.41575 7.72198 2.59349 7.88279L2.9307 8.17993L3.29983 8.49798L3.31671 8.47893C3.38747 8.53871 3.45117 8.5856 3.5177 8.63587C3.6071 8.70121 3.68194 8.75776 3.76387 8.80945C3.75672 8.88476 3.77939 8.96011 3.82696 9.0192L3.83734 9.03815L3.85363 9.05189C4.14692 9.31691 4.19942 9.34334 4.27108 9.36913C4.35902 9.4307 4.44137 9.50005 4.51711 9.57631L4.53888 9.59291C4.58094 9.62403 4.63318 9.6378 4.68475 9.63131C4.74477 9.69479 4.80847 9.75465 4.87552 9.81058L4.90322 9.83091L5.04423 9.91035C5.1345 9.95945 5.24598 10.0206 5.37368 10.0935L5.30444 10.1826C5.40087 10.2697 5.44284 10.3108 5.46969 10.3384L5.43427 10.3825C5.75063 10.6486 6.07707 10.9172 6.39029 11.1723L6.9577 11.637L6.93948 11.5485L7.06671 11.6384C7.35522 11.843 7.48172 11.9333 7.5663 11.956L7.5828 12.0307L7.65036 12.0686C7.7081 12.101 7.94445 12.2691 8.15336 12.4227L8.13373 12.4492C8.32169 12.6021 8.51842 12.7438 8.72288 12.8734C8.98296 13.0376 9.23048 13.2212 9.46335 13.4227L9.47366 13.4308C9.54892 13.4882 9.65075 13.5762 9.74835 13.6636C10.0155 13.8987 10.0822 13.9547 10.1806 13.9492L10.4019 13.9364L10.8346 14.2423L10.8636 14.1634L10.8985 14.1916C10.8947 14.1959 10.8914 14.2007 10.8888 14.2058C10.8639 14.2443 10.854 14.2907 10.8609 14.3363C10.8679 14.3818 10.8912 14.4234 10.9265 14.4531C10.9667 14.5158 11.056 14.5792 11.2218 14.7022L11.2582 14.6528L11.2684 14.659L11.2734 14.6681C11.3067 14.7484 11.4092 14.8164 11.6089 14.9514L11.6496 14.9794L11.6776 14.9807C11.8061 15.0547 11.9298 15.1366 12.048 15.2262C12.0943 15.2644 12.1489 15.291 12.2074 15.3035L12.3296 15.3932C12.4506 15.4807 12.5871 15.5803 12.8401 15.7522L12.9719 15.5884C12.9988 15.5983 13.0355 15.6137 13.0764 15.6297C13.0732 15.6416 13.0682 15.6529 13.0617 15.6634C13.0458 15.6913 13.0219 15.7138 12.9931 15.7278C12.9642 15.7419 12.9318 15.7468 12.8999 15.7421C12.9789 15.7716 13.0557 15.8069 13.1295 15.8479C13.3062 15.9373 13.5668 16.0784 13.7924 16.216C13.8273 16.261 13.8668 16.3021 13.9102 16.3387L13.9364 16.3598C13.9515 16.3699 13.9673 16.379 13.9836 16.3872L15.12 17.1502L15.5138 17.4065L15.7994 17.8944L15.6911 17.5183L16.1192 17.7962L16.2714 17.8676L16.3529 17.7688C16.3763 17.7407 16.3901 17.7059 16.3924 17.6692C16.3946 17.6326 16.3851 17.596 16.3653 17.565L16.3624 17.5597L16.2912 17.444L16.4149 17.5202L16.0936 17.0419L16.1041 17.0362L16.0202 16.9166L15.9896 16.8733C15.9833 16.8092 15.9636 16.7472 15.9319 16.6911L15.9223 16.6628L15.8933 16.6384C15.8512 16.5886 15.8124 16.5361 15.7771 16.4813C15.7078 16.3833 15.6187 16.2596 15.5216 16.1286L15.097 15.5523C15.1061 15.5022 15.0959 15.4504 15.0684 15.4074C15.0558 15.385 15.0417 15.3634 15.0262 15.3428C14.9953 15.2987 14.9437 15.2294 14.8678 15.1281L14.8457 15.1038C14.8309 15.0892 14.7748 15.0224 14.7381 14.9784C14.6146 14.8293 14.5246 14.722 14.391 14.8236C14.1502 14.5102 13.9701 14.2916 13.8235 14.1235L13.8829 14.0822L13.8745 14.0671L14.0009 14.0216L13.6196 13.6136L13.5647 13.6594L13.4866 13.5613L12.7933 12.7686C12.6342 12.5936 12.4634 12.4152 12.2974 12.2421C12.186 12.1258 12.073 12.0103 11.9642 11.8916C11.8296 11.7544 11.6968 11.6222 11.5705 11.4983C11.4441 11.3744 11.313 11.2452 11.2007 11.1274L11.1945 11.116C10.8995 10.8569 10.7572 10.7466 10.6467 10.7942L10.6174 10.7709L10.6089 10.677L10.319 10.4092L10.5812 10.3376L10.108 10.2143L9.97324 10.0911L10.0075 10.1019C10.5842 10.2788 11.0512 10.43 11.4288 10.5603L12.7634 11.0119L12.6602 10.9463C12.8867 11.0036 13.0759 11.0606 13.2534 11.1141C13.5738 11.2058 13.8421 11.2845 14.1388 11.3418C14.1595 11.3638 14.1849 11.3809 14.213 11.3918L14.2507 11.4036L14.3428 11.4222L14.3367 11.4521C14.6311 11.5376 14.9314 11.6002 15.235 11.6392C15.3264 11.651 15.419 11.6417 15.506 11.6121C15.781 11.7015 16.063 11.7667 16.3489 11.8068L16.3412 11.8425L16.5075 11.8845C16.7335 11.941 17.1019 12.033 17.4494 12.1156C17.6567 12.1647 17.8957 12.2181 18.0726 12.2562C18.1732 12.278 18.2754 12.2906 18.3781 12.294C18.5228 12.3339 18.8173 12.3836 18.901 12.3959L19.4097 12.5037C19.7166 12.5691 19.9028 12.6081 20.3996 12.7085L20.407 12.672C20.5115 12.6848 20.6235 12.7111 20.764 12.7416C20.9045 12.772 21.0417 12.8034 21.2198 12.8349L21.36 12.8646C22.0153 13.0034 22.165 13.0239 22.3109 13.0445C22.4568 13.0652 22.5822 13.0822 23.2385 13.2264L23.9331 13.3782L23.7894 13.2598L23.9654 13.2945C24.3322 13.3676 24.7473 13.4507 25.1168 13.4878L25.1205 13.4661C25.3125 13.5049 25.5325 13.5648 25.749 13.6236C25.8821 13.66 26.0106 13.6951 26.1288 13.724L26.1238 13.7612C26.2599 13.7853 26.3674 13.8072 26.4502 13.823C26.533 13.8387 26.59 13.8449 26.6372 13.8457C26.7113 13.8577 26.787 13.8416 26.8495 13.8005C26.8802 13.8014 26.9309 13.8032 27.0111 13.8105C27.0712 13.8919 27.1961 13.9063 27.4449 13.9385C27.5648 13.9616 27.8165 13.9794 28.1628 14.0027L28.4622 14.024C28.6581 14.038 28.9168 14.058 29.1688 14.0836C29.232 14.0903 29.294 14.0968 29.3557 14.1025C29.5194 14.1182 29.6739 14.1332 29.8036 14.1528L29.8139 14.095L29.8758 14.0975C30.0867 14.1122 30.3528 14.1458 30.6355 14.1812C31.0359 14.232 31.4459 14.2824 31.7706 14.2948L31.8505 14.325L31.8775 14.326C31.9604 14.3335 32.0438 14.3324 32.1263 14.3227C32.2458 14.3253 32.3964 14.3296 32.5616 14.3357C33.0377 14.35 33.5736 14.367 33.8068 14.3546C34.0102 14.4047 34.2182 14.4329 34.4273 14.4386C34.5554 14.4463 34.7057 14.4537 34.8848 14.4601C34.9978 14.4652 35.1125 14.4645 35.2238 14.4647L35.3776 14.4642L35.4598 14.4646C35.8066 14.4639 36.223 14.4636 36.422 14.4797L36.418 14.5223L36.6042 14.5258C36.7622 14.5293 36.9197 14.5331 37.0767 14.5372L37.0208 14.5579L37.9508 14.566C38.6119 14.5727 38.9588 14.5562 39.22 14.5344L39.8118 14.5464C40.26 14.5543 40.5557 14.5599 40.8307 14.5473C41.152 14.5321 41.446 14.5061 41.9694 14.4591L42.088 14.4975L42.1266 14.4932C42.2297 14.482 42.5374 14.4811 42.9264 14.479C43.0454 14.4789 43.1739 14.4785 43.307 14.4776C43.4401 14.4766 43.5986 14.4756 43.7758 14.4663L44.2634 14.4428C44.5781 14.4262 44.857 14.4065 45.1094 14.3846L45.1111 14.3985C45.4173 14.3698 45.7767 14.3474 46.2428 14.3277C46.494 14.3144 46.7466 14.2983 46.9927 14.2828C47.1324 14.2743 47.2698 14.2651 47.4029 14.2553C48.2395 14.2013 48.7816 14.151 49.0481 14.0534C49.2451 14.0283 49.4422 13.9963 49.6343 13.966C49.7428 13.948 49.8515 13.9309 49.9603 13.9147L49.9481 13.8229L50.0311 13.8159C50.104 13.8833 50.2398 13.873 50.4238 13.858C50.5779 13.8456 50.7789 13.8243 50.9733 13.8035C51.0998 13.7905 51.2504 13.7751 51.3754 13.7628L51.3624 13.7926L51.6621 13.7556C51.7159 13.7488 51.7713 13.7431 51.8255 13.7371C51.918 13.7278 52.0146 13.7154 52.1084 13.7015L54.434 13.3793C54.6751 13.3459 54.9255 13.3133 55.1694 13.2724L56.8706 12.9945L57.1442 12.9491C57.334 12.9181 57.5234 12.8864 57.715 12.8515L59.5156 12.4916C59.5523 12.4953 59.5893 12.4931 59.6251 12.4848L60.0686 12.3899L60.0665 12.3753C60.1332 12.3565 60.1874 12.3396 60.2409 12.3232C60.4084 12.2729 60.5562 12.2275 60.9986 12.1252C61.0745 12.1074 61.1513 12.0943 61.2288 12.0859C61.2743 12.0947 61.321 12.093 61.3656 12.081C61.3897 12.0786 61.4136 12.0747 61.4373 12.0694C61.4764 12.0607 61.5398 12.0448 61.6348 12.0204L62.5939 11.8018L62.5837 11.7404L62.6232 11.7306C62.7117 11.7132 62.7978 11.6859 62.8801 11.6492C63.0348 11.6236 63.2461 11.5818 63.4918 11.5193C63.814 11.4415 64.2062 11.3401 64.7285 11.202L65.9196 10.8831L66.0326 10.8508C66.3018 10.7724 66.5145 10.7102 66.597 10.6917L66.6183 10.6859C67.1877 10.4787 67.7454 10.3144 68.4754 10.103L68.4609 10.0499C68.504 10.0342 68.5694 10.0112 68.6676 9.98012C68.7773 10.0185 68.9831 9.95424 69.495 9.79719C69.8092 9.70111 70.1635 9.59287 70.3855 9.55116C70.3974 9.54961 70.4107 9.54726 70.4282 9.54359L70.4247 9.5248C70.4758 9.49687 70.749 9.40446 70.9458 9.33812L71.054 9.30055C71.3069 9.21538 71.472 9.15358 71.5578 9.11253C71.5886 9.10011 71.6178 9.08412 71.6449 9.06488C71.7299 9.07017 71.8149 9.05722 71.8943 9.0269L71.9093 9.01868C72.5073 8.77814 73.1731 8.54577 73.8571 8.30931C74.0018 8.26168 74.1465 8.20709 74.2866 8.15305L74.9323 7.90705C75.3532 7.74569 75.7013 7.60837 76.0266 7.47564L76.0708 7.45835L76.1333 7.37292L76.6876 7.20948L76.886 7.14425L76.9033 7.1348C76.9872 7.09779 77.0678 7.05368 77.1442 7.00295C77.3029 6.90004 77.4769 6.8228 77.6598 6.77401L77.6495 6.73922C77.654 6.73676 77.6585 6.7343 77.663 6.73183C78.0035 6.59474 78.3575 6.45026 78.7437 6.28619L79.2891 6.05474L80.0714 5.68958C80.6922 5.39811 81.3364 5.09584 81.9703 4.78735C82.6385 4.4453 83.358 4.07917 84.0921 3.7168L84.36 3.58599C84.4155 3.5556 84.4703 3.52561 84.5258 3.49522C84.5581 3.47755 84.5904 3.45989 84.6227 3.44223L85.1487 3.17012C85.5117 2.98328 85.8666 2.80482 86.2029 2.64047L86.1872 2.61164C86.2472 2.57878 86.3103 2.54427 86.35 2.5225C86.4251 2.48142 86.5519 2.41201 86.7313 2.31384L86.7143 2.28278L86.8829 2.20041L87.4879 1.88013L87.5048 1.86297C87.7174 1.71077 87.9386 1.571 88.1672 1.44434C88.1823 1.43612 88.1965 1.42832 88.2108 1.42051L88.2469 1.48643L88.664 1.26309L88.6155 1.17441C88.6917 1.1321 88.7609 1.07827 88.8207 1.0148L88.8339 0.997762L89.1052 0.980282L89.3669 0.756266L89.1994 0.526842L89.419 0.249051L88.6088 0.750532L88.314 0.867604C88.2302 0.892763 88.1301 0.932731 87.9965 0.986169C87.9591 1.00168 87.9165 1.01815 87.8655 1.03914L87.9151 0.844542L87.5246 1.13803C87.2093 1.35117 86.8779 1.53918 86.5331 1.70034C86.1396 1.88308 85.7573 2.08927 85.3885 2.31785C85.3582 2.31819 85.3283 2.32389 85.3001 2.33469L85.2784 2.3466L85.2566 2.35851C84.9668 2.55841 84.6617 2.73496 84.3439 2.88655L84.3389 2.87745L84.0867 3.01546L83.3938 3.36411L81.7153 4.18419C81.5335 4.27087 81.3339 4.36047 81.1228 4.45429C80.971 4.5226 80.8093 4.59432 80.6402 4.67208L79.5524 5.16889L79.7279 5.14379C79.6228 5.19242 79.5155 5.24228 79.4067 5.29297L79.3446 5.32202C79.0597 5.45919 78.7718 5.57833 78.5022 5.68451C78.3435 5.75551 78.179 5.81261 78.0104 5.85516L77.9879 5.85862L77.9684 5.8693C77.8104 5.93706 77.7033 5.98383 77.662 6.05273C77.6475 6.06067 77.6302 6.06819 77.61 6.07529L77.4383 6.11803L77.2977 6.21761C77.2617 6.20372 77.2231 6.19846 77.1848 6.20228C77.1466 6.20609 77.1099 6.21887 77.0776 6.23957C76.966 6.27993 76.8309 6.33419 76.6635 6.40612L76.5949 6.43578C76.4697 6.49048 76.3396 6.54687 76.2158 6.5969L75.9883 6.69087C75.8378 6.75451 75.7077 6.80902 75.634 6.83654L75.592 6.85261L75.602 6.87078C74.9762 7.1246 74.3226 7.38473 73.6949 7.62781C72.7428 7.97348 71.9657 8.26087 71.2676 8.53947L71.2739 8.56166C71.113 8.62411 70.9745 8.67035 70.8654 8.70638C70.8264 8.71887 70.7908 8.73046 70.7591 8.74194C70.6019 8.79345 70.4856 8.82857 70.3596 8.86207L70.3118 8.87642C70.0809 8.94466 69.8197 9.02162 69.2551 9.21437C69.058 9.29268 68.7732 9.40321 68.4599 9.5008C68.3842 9.50472 68.3092 9.51638 68.236 9.53561C68.2086 9.54076 68.1741 9.54887 68.1432 9.55491L68.1336 9.52668C67.3374 9.78808 67.2982 9.80557 67.1671 9.86549C67.0967 9.89715 67.0006 9.94084 66.7219 10.05L66.5196 10.076L66.5008 10.0863C66.454 10.106 66.4152 10.1223 66.3786 10.1374C66.3103 10.1659 66.2522 10.1898 66.1758 10.2178C66.1184 10.2394 66.0495 10.2633 65.9553 10.2943C65.9152 10.3083 65.8727 10.3217 65.8193 10.3381C65.8041 10.336 65.7888 10.3348 65.7735 10.3346L65.756 10.2723C65.0792 10.4151 64.5815 10.5644 64.1816 10.6838C63.7816 10.8032 63.4629 10.8997 63.1529 10.9305L63.127 10.9329L63.1052 10.9448C63.0256 10.9775 62.9075 11.0274 62.881 11.1197C62.7834 11.1357 62.6845 11.1474 62.5696 11.1621C62.1861 11.2044 61.8055 11.2681 61.4293 11.3527L61.426 11.3466C61.2333 11.3812 61.0526 11.4288 60.8609 11.4796L60.7986 11.4959C60.6953 11.5229 60.5894 11.5503 60.4749 11.5745C60.3627 11.6019 60.2488 11.6224 60.134 11.636L60.1115 11.6395L60.092 11.6502C60.0404 11.6705 59.9875 11.6876 59.9337 11.7013L59.9272 11.6734C59.7298 11.7045 59.5343 11.7457 59.3413 11.797C59.2224 11.8256 59.0745 11.8602 59.0401 11.8633C59.0584 11.8622 59.0768 11.8653 59.0938 11.8723L59.0463 11.8816L59.0234 11.8399C58.7795 11.929 58.5269 11.9924 58.2695 12.0289L58.2303 12.0356C58.0852 12.0628 57.9343 12.0902 57.7765 12.1244C57.7705 12.1276 57.7624 12.1272 57.7544 12.1286L57.7907 12.0861L57.1924 12.2244L57.0981 12.2464L57.0877 12.2078C56.7784 12.2794 56.465 12.3328 56.1492 12.3678C55.8869 12.402 55.6163 12.4368 55.347 12.4955L55.3643 12.5787C55.2184 12.5986 55.0714 12.6102 54.924 12.6137C54.5085 12.6298 54.0948 12.6732 53.6854 12.7439C53.6525 12.7481 53.6236 12.7522 53.5958 12.7585L53.6003 12.7845C53.4145 12.8015 53.2646 12.8146 53.1781 12.8186L53.1586 12.8204C52.9782 12.8472 52.8585 12.8674 52.7858 12.8806C52.7171 12.887 52.6514 12.9115 52.5953 12.9514C52.4847 12.9686 52.3855 12.9923 52.278 13.0186C52.1926 13.0408 52.1055 13.0598 51.991 13.0841L51.9849 13.0569L51.8335 13.0708C51.4876 13.1035 51.2975 13.1287 51.1825 13.1503L51.4279 13.0229L50.3399 13.2075C50.032 13.2598 49.818 13.2912 49.6015 13.3161L49.5618 13.3201C49.3662 13.3424 49.1637 13.3646 48.8674 13.381L48.5784 13.3875C48.2597 13.3934 47.8257 13.4379 47.5089 13.4704C47.3996 13.481 47.3037 13.4911 47.2306 13.4966L47.2336 13.5216L46.4902 13.6231L46.485 13.5885L46.3925 13.5978C46.3643 13.6014 46.3356 13.6043 46.3081 13.6075L46.3021 13.5448L46.2734 13.5476L45.2106 13.6446C45.1702 13.6421 45.1095 13.638 45.0107 13.6359C44.9355 13.6337 44.821 13.6313 44.7948 13.6279C44.8319 13.6362 44.8654 13.6566 44.8899 13.686C44.9145 13.7154 44.9287 13.752 44.9303 13.7901L44.9295 13.8064C44.8761 13.8051 44.8295 13.802 44.7965 13.8004L44.7781 13.6135C44.4886 13.6192 44.1355 13.6548 43.7647 13.6903L43.6731 13.701C43.4981 13.72 43.3201 13.7297 43.1325 13.7398L43.1042 13.7415L43.3111 13.6135L42.7485 13.7047C42.5124 13.7117 42.4009 13.7166 42.3441 13.7714C42.3005 13.7755 42.2385 13.7799 42.147 13.7856C41.9005 13.7895 41.6627 13.7916 41.4244 13.793C40.9261 13.7968 40.4102 13.8004 39.7938 13.8254L39.2895 13.7665L39.2664 13.7653C39.0845 13.7664 38.9558 13.7718 38.9082 13.8629L38.7782 13.866L38.7629 13.8665C38.7591 13.8519 38.7536 13.8377 38.7466 13.8243C38.7375 13.8083 38.7267 13.7934 38.7144 13.7798L38.6635 13.7259L38.5902 13.7256C38.4792 13.7243 38.3584 13.7264 38.2381 13.7292L38.0465 13.7356C37.9973 13.7349 37.9478 13.7334 37.8915 13.7357L37.8923 13.8209L37.7981 13.8271C37.6663 13.8323 37.5452 13.8355 37.4302 13.8374C37.3957 13.7371 37.2701 13.7231 37.0531 13.699L36.9551 13.6876L36.9268 13.7268C36.7708 13.7501 36.2435 13.7382 35.8447 13.7279C35.5636 13.7222 35.2733 13.7156 35.058 13.7162C34.9152 13.7063 34.7719 13.7152 34.6317 13.7427L34.5337 13.7313L34.5356 13.7115C34.2945 13.6713 34.0493 13.6646 33.8069 13.6917C33.6876 13.7044 33.5678 13.7109 33.4477 13.7109L33.2822 13.6134L31.8808 13.5194L32.0475 13.4676L30.9041 13.4974C30.8867 13.4929 30.869 13.4897 30.8511 13.4879L30.8192 13.4847L30.7646 13.5009C30.645 13.5033 30.4346 13.5021 30.2561 13.5004L30.263 13.4631C30.0488 13.3961 29.8259 13.3626 29.602 13.3638C29.4703 13.3601 29.3055 13.3567 29.0522 13.3269L29.0582 13.295C28.7814 13.2247 28.5005 13.1728 28.2172 13.1396C28.0073 13.1126 27.7783 13.0774 27.5159 13.0309L27.4906 13.163L27.3764 13.1556C27.3372 13.1413 27.297 13.1304 27.2561 13.1229L27.266 13.0554L26.8668 12.9784L26.757 13.0059L26.5597 12.9839C26.3813 12.9596 26.2016 12.948 26.0218 12.9493C25.9627 12.9501 25.9071 12.95 25.8113 12.9443C25.3309 12.8703 25.2144 12.8178 25.1113 12.7719L25.0663 12.7521L25.0439 12.7486C24.781 12.7083 24.6543 12.689 24.5956 12.7635C24.3536 12.7206 24.1336 12.6893 23.9205 12.6581C23.8152 12.6439 23.7094 12.6289 23.6028 12.6123C23.3584 12.5757 23.0994 12.5391 22.8089 12.5001L22.9864 12.468L21.8947 12.3267C21.8009 12.3064 21.7042 12.3048 21.6101 12.3219C21.5989 12.328 21.5641 12.3322 21.2603 12.2868L21.2267 12.2825L21.2001 12.2892C20.9962 12.2576 20.7946 12.2119 20.5967 12.1525C20.2265 12.0477 19.8512 11.9627 19.4723 11.8981C19.4589 11.8808 19.4426 11.8661 19.4241 11.8545L19.3941 11.8354L17.6673 11.562L16.9865 11.3642C16.8745 11.327 16.7247 11.2849 16.5229 11.2299L16.5179 11.2493L16.4884 11.2399L16.4795 11.2664L16.3882 11.2494C16.3752 11.2394 16.361 11.231 16.3461 11.2242C16.2721 11.2 16.1954 11.185 16.1179 11.1797L16.0515 11.1706L15.8292 11.046L15.7497 11.063C15.4914 10.9955 15.2307 10.9166 14.9777 10.8393C14.8557 10.8017 14.733 10.7647 14.6098 10.7284L13.4795 10.5166L13.4925 10.4691L13.4855 10.467C13.378 10.4362 13.3231 10.418 13.2962 10.4081L13.3022 10.3762L12.6751 10.2338L12.1155 10.0899C12.0057 10.0243 11.8869 9.97541 11.7631 9.94496C11.6806 9.91721 11.5868 9.88672 11.491 9.85247L10.3087 9.42786L10.5232 9.57934C10.3369 9.51996 10.1465 9.47468 9.9536 9.44388L9.9416 9.44155C9.78628 9.41152 9.63274 9.37256 9.48173 9.32485L9.48543 9.3031C9.38769 9.27779 9.25236 9.23366 9.11592 9.19111L9.02845 9.04197L9.04559 9.16952C8.89776 9.1204 8.75251 9.06887 8.64765 9.02874L8.65512 9.00498L8.52127 8.96001L7.47836 8.13794L7.7532 8.53323L7.62488 8.44488L7.59244 8.42127L7.58794 8.42373C7.59959 8.37797 7.59291 8.3293 7.56933 8.28814L7.55979 8.27071L7.54154 8.23736L7.50925 8.21756L7.41901 8.1596C7.36228 8.12366 7.30514 8.08699 7.24541 8.0527L7.14357 7.99314C7.11693 7.95629 7.08377 7.9247 7.04574 7.89994L6.99042 7.86124L6.95876 7.86577C6.86058 7.81998 6.76474 7.76918 6.67163 7.7136C6.5164 7.62421 6.328 7.50273 6.14592 7.38567L6.03479 7.31451L6.02024 7.30574C5.86897 7.22895 5.66328 7.12578 5.55658 7.2748L5.45559 7.2168C5.46102 7.20951 5.46596 7.20188 5.47039 7.19393C5.48435 7.17161 5.4922 7.14594 5.49313 7.11949C5.49407 7.09305 5.48806 7.06675 5.47572 7.04327C5.4211 6.97193 5.3503 6.9147 5.26933 6.87644L5.25244 6.86697C5.2239 6.85403 5.19412 6.83883 5.16434 6.82361C5.13455 6.8084 5.08088 6.78161 5.04102 6.76403L4.6831 6.60726L4.73441 6.75449C4.70382 6.7226 4.6697 6.69434 4.63272 6.67028L4.61385 6.65896C4.43992 6.56009 4.25732 6.47764 4.06845 6.4127C4.01908 6.39736 3.96423 6.37911 3.84714 6.3309L3.82756 6.37711L3.73568 6.33576L3.11834 6.03826L2.88633 5.93869L2.93068 5.84151L2.35539 5.55846L2.33985 5.58173C2.04042 5.45699 1.98479 5.44803 1.92143 5.43739L2.13265 5.376L2.40055 5.29341L2.42077 5.37493L3.03934 5.22553L3.21228 5.18509C3.22844 5.18372 3.2444 5.1806 3.25986 5.17579L3.28041 5.22759L3.49728 5.16403C3.53095 5.17727 3.56718 5.18243 3.60304 5.17906C3.76982 5.17998 3.93634 5.16852 4.10124 5.14479L4.13281 5.13833C4.14933 5.12929 4.16801 5.126 4.18693 5.11958C4.22286 5.10682 4.26862 5.09063 4.33922 5.07169C4.36778 5.08065 4.39776 5.08396 4.42749 5.08149L4.42998 5.08604L4.44424 5.07823C4.47391 5.07431 4.50328 5.06845 4.53216 5.06066L4.5276 5.05233L4.56052 5.0412C4.72156 4.99148 4.83134 4.95503 4.8714 4.88386C4.91831 4.8769 4.9709 4.86783 5.0299 4.85623L5.05874 4.84834C5.11866 4.83147 5.17161 4.79595 5.20999 4.74685C5.23683 4.73709 5.27691 4.72301 5.33485 4.70411L5.22854 4.37618C5.17852 4.39173 5.12018 4.40988 5.06183 4.42802C4.97164 4.4557 4.87921 4.48463 4.81219 4.50653L4.79943 4.51352L4.77374 4.41132C4.73416 4.4192 4.68583 4.42891 4.63674 4.43902C4.54799 4.45508 4.39924 4.48627 4.33325 4.49579L4.27367 4.46534L4.09585 4.61094L4.01165 4.63533L3.1628 4.83981C3.12798 4.84037 3.09324 4.84294 3.05875 4.8475C3.02784 4.85161 2.98852 4.85641 2.93635 4.86624L2.69133 4.91756L2.69859 4.95399L2.55116 4.98937L2.52196 4.89501L1.679 5.14947L1.77932 5.48072L1.84956 5.4344ZM2.11255 6.02726L2.11143 6.00916L2.11864 5.98848L2.15218 6.00163C2.14018 6.01192 2.12685 6.02054 2.11255 6.02726ZM8.638 9.73829L8.63049 9.71388L8.6467 9.72569L8.638 9.73829ZM8.61892 9.70343C8.62388 9.71608 8.63044 9.72807 8.63842 9.73907L8.62062 9.76358L8.66728 9.79715L8.8253 9.90768L8.95129 10.0042L9.02429 10.0628L9.04835 10.0319C9.12092 10.0985 9.19333 10.1613 9.26616 10.2249L9.53194 10.4557L9.58415 10.503C9.66803 10.5761 9.74796 10.6537 9.82356 10.7355L10.1866 11.1386L10.1725 11.0202C10.1972 11.0422 10.2238 11.0641 10.254 11.0889L10.2635 11.0778L10.3538 11.1643C10.3873 11.2153 10.4316 11.2584 10.4833 11.2905L10.5354 11.3358C10.5593 11.3563 10.5863 11.3789 10.6174 11.4072L10.6236 11.4186L10.6846 11.4748L10.7098 11.4994L10.7724 11.4356C10.7888 11.4513 10.8048 11.4662 10.8211 11.4799C10.7728 11.595 10.8695 11.679 11.0223 11.8101C11.0978 11.8751 11.2031 11.9623 11.2656 12.0089C11.3117 12.0482 11.3709 12.0683 11.431 12.0651C11.4447 12.0901 11.4672 12.1153 11.4943 12.1487L11.449 12.1942C11.5511 12.2989 11.6518 12.4044 11.7524 12.5098L11.9212 12.6864C11.9877 12.7633 12.0605 12.8465 12.1421 12.9368C12.2237 13.0271 12.2944 13.1027 12.3666 13.1902C12.5294 13.3789 12.6757 13.5411 12.7915 13.66C12.8561 13.7389 12.9351 13.8208 13.0048 13.893C13.0509 13.9416 13.0942 13.9868 13.13 14.0273L13.1526 14.0524L13.1488 14.0545L13.4004 14.3502C13.5338 14.5067 13.6687 14.6624 13.7988 14.8217L13.8017 14.8269L13.8424 14.8816C13.966 15.0523 14.0982 15.2242 14.2262 15.3905C14.4135 15.6328 14.6064 15.8838 14.7872 16.1483L14.8435 16.2387L14.4074 15.9444C14.2193 15.8078 14.0243 15.6811 13.8232 15.5648C13.6502 15.4073 13.2844 15.1435 12.6795 14.7368L12.2911 14.4727C11.92 14.2206 11.5687 13.9815 11.3312 13.8041L11.2567 13.7464L11.2038 13.7655C10.778 13.4617 10.364 13.1721 9.80786 12.785L9.4567 12.5408L9.46678 12.5895C9.30585 12.4736 9.13289 12.3358 8.93656 12.1803C8.70915 11.9964 8.47309 11.8075 8.24102 11.6222C7.82145 11.2441 7.34567 10.8898 6.88571 10.5466C6.42873 10.2194 5.98931 9.86803 5.56934 9.49393L5.55305 9.4802C5.40629 9.37274 5.26574 9.25695 5.13208 9.13338L5.13659 9.13091L4.80364 8.82552C4.72726 8.7501 4.64996 8.67124 4.58091 8.59674C4.32692 8.33582 4.24283 8.24987 4.15042 8.26104C4.10333 8.22024 4.04252 8.19916 3.9807 8.20223L3.88615 8.13282C3.83748 8.07192 3.78368 8.01536 3.72535 7.96374C3.69185 7.93283 3.65608 7.90312 3.61509 7.86743L3.51099 7.78059L3.45187 7.73316L3.69997 7.79439L3.85507 7.87106L3.83308 7.94317C4.07938 8.02607 4.25142 8.08558 4.38726 8.13239L4.70857 8.2383C4.78565 8.26507 4.86073 8.28998 4.95945 8.32066L4.9542 8.32354L5.42435 8.49468C5.54005 8.53676 5.68273 8.58183 5.82074 8.62549C6.00425 8.67752 6.18428 8.74154 6.35967 8.81715L6.36948 8.8226C6.46951 8.86636 6.75685 8.99575 7.19822 9.15707C7.54739 9.27823 7.96025 9.41774 8.461 9.58597L8.61892 9.70343ZM7.3341 8.54985L7.33877 8.54234L7.33644 8.55055L7.3341 8.54985ZM12.3935 10.6657C12.3961 10.6587 12.3993 10.652 12.4031 10.6457L12.4265 10.6565L12.4162 10.7035L12.3935 10.6657ZM31.936 13.6025L31.9376 13.5858L32.0022 13.6057C31.9803 13.6049 31.9613 13.6024 31.936 13.6025ZM68.4226 9.87285C68.4278 9.86998 68.4331 9.8671 68.4383 9.86423C68.4437 9.87244 68.4484 9.88108 68.4524 9.89002C68.461 9.91871 68.4615 9.94916 68.4537 9.97795L68.4226 9.87285ZM70.3984 9.34121C70.4217 9.32847 70.4547 9.31928 70.4921 9.30569L70.5008 9.32161C70.5112 9.35703 70.51 9.39475 70.4975 9.42926C70.4849 9.46377 70.4617 9.49327 70.4312 9.51339L70.3984 9.34121ZM71.404 8.98297C71.4087 8.98083 71.4132 8.97837 71.4175 8.97557L71.4314 9.02411C71.4208 9.01144 71.4119 8.99748 71.4048 8.98256L71.404 8.98297ZM77.6023 6.56212C77.6173 6.55391 77.6352 6.54906 77.6503 6.54277C77.6544 6.54866 77.6579 6.55502 77.6606 6.56172C77.6695 6.58607 77.6726 6.61213 77.6698 6.63781C77.6669 6.6635 77.6581 6.68811 77.6441 6.70968L77.6023 6.56212ZM68.3706 9.68164C68.3439 9.68638 68.3135 9.69317 68.2827 9.69921C68.2779 9.67271 68.2795 9.64552 68.2871 9.6198C68.2947 9.59409 68.3082 9.57059 68.3265 9.55114L68.3706 9.68164ZM68.2366 9.68996L68.2401 9.70875C68.2233 9.71201 68.2077 9.7156 68.1922 9.71921L68.1451 9.58145C68.1671 9.59192 68.1868 9.60698 68.2027 9.62561C68.2186 9.64424 68.2304 9.66605 68.2374 9.68955L68.2366 9.68996ZM31.9307 13.5857L31.8295 13.579L31.6902 13.5686L31.7792 13.5405L31.9307 13.5857ZM16.196 11.2778L16.139 11.2735C16.1569 11.2501 16.1802 11.2316 16.207 11.2195L16.196 11.2778Z" fill="#231F20"/>
</svg>
