<svg width="30" height="28" viewBox="0 0 30 28" fill="none" xmlns="http://www.w3.org/2000/svg">
<path fill-rule="evenodd" clip-rule="evenodd" d="M29.8619 16.7198L30 15.2807L29.9851 13.7498L29.8341 12.3165L29.5578 10.9478L29.1411 9.60176L28.5934 8.29893L27.9287 7.07294L27.1081 5.89109L26.1676 4.82985L25.1271 3.8601L24.0596 3.01732L23.0159 2.33666L21.9356 1.82543L20.2634 1.26146L18.3363 0.7556L17.0287 0.563224L14.7076 0.359375L13.2954 0.36824L10.9535 0.518493L10.7597 0.661384L10.8415 0.914839L10.9781 0.960019L13.3033 0.810857L14.4466 0.796892L15.2324 0.829246L17.0038 1.00417L17.8507 1.11631L18.748 1.29158L20.2017 1.69519L21.1906 2.0086L22.2594 2.44242L22.7818 2.71002L23.2913 3.0196L24.3294 3.77436L25.3797 4.674L25.8829 5.164L26.5386 5.90358L25.4025 5.1005L24.1722 4.29248L23.233 3.74915L21.662 2.97851L20.4863 2.45448L19.2489 1.98374L18.5528 1.76572L17.9203 1.60537L16.6276 1.36246L15.2884 1.20646L14.6096 1.16825L13.271 1.18759L12.6142 1.2516L11.9629 1.3538L10.6643 1.66048L9.95379 1.8838L8.70078 2.37204L7.51752 2.96057L6.95088 3.29661L6.39427 3.66705L5.32662 4.48851L4.33525 5.39238L3.44496 6.34221L2.65384 7.34605L2.24957 7.93292L1.59638 9.02672L1.05033 10.1462L0.622788 11.2684L0.449334 11.8442L0.187339 13.0061L0.0363735 14.1738L0 15.3925L0.0707011 16.5299L0.146427 17.1022L0.385814 18.2282L0.757036 19.3224L1.271 20.3687L1.96023 21.4444L2.74217 22.4221L3.65584 23.3316L4.70346 24.1541L5.90353 24.9144L7.22681 25.5975L8.63745 26.18L10.1804 26.6675L11.7785 27.0429L13.4473 27.3099L15.1192 27.4427L16.7484 27.4201L18.3999 27.2565L20.031 26.9537L20.8212 26.7482L21.6455 26.4859L22.3685 26.208L23.0647 25.8891L24.3993 25.1319L25.6313 24.2364L26.1988 23.7433L26.7252 23.227L27.2076 22.6897L27.6486 22.1212L28.0945 21.4583L28.7931 20.1624L29.3404 18.797L29.7291 17.4189L29.8619 16.7198ZM29.4102 12.4189L29.5593 13.8313L29.574 15.2043L29.526 15.9169L29.438 16.6181L29.3089 17.2994L28.9261 18.6563L28.3873 20.0005L28.0627 20.6484L27.701 21.2732L27.3255 21.835L26.9124 22.3677L26.4403 22.8939L25.9245 23.3995L24.7752 24.3403L23.5067 25.1575L22.1549 25.8251L21.4603 26.0922L19.9816 26.5166L19.1844 26.6833L17.5514 26.9137L15.9312 27.0074L15.1275 27L13.4729 26.8689L11.8202 26.6045L10.2376 26.2327L8.8396 25.7922L7.44579 25.2171L6.13956 24.5426L4.95691 23.7933L3.92684 22.9846L3.46542 22.5511L2.63292 21.6215L1.97037 20.6939L1.40004 19.6837L0.968436 18.6399L0.67205 17.5519L0.49592 16.4383L0.426769 15.3297L0.462123 14.2602L0.610046 13.1133L0.868009 11.9707L1.23345 10.8539L1.71267 9.75173L2.30586 8.65665L2.639 8.12366L3.33835 7.15052L3.73724 6.66763L4.61604 5.73009L5.59429 4.83818L6.64764 4.02771L7.75058 3.33401L8.91661 2.75403L10.1361 2.27867L11.3623 1.92775L12.6412 1.69278L13.9404 1.60392L15.2721 1.64828L15.9356 1.71319L17.2424 1.91365L18.4941 2.20044L19.6681 2.59494L20.8687 3.09556L22.5092 3.87122L23.931 4.66088L25.8262 5.92794L26.5905 6.50098L27.5474 7.36198L27.7147 7.56977L27.8756 7.84935L28.1884 8.46265L28.7281 9.74691L29.1386 11.0717L29.4102 12.4189Z" fill="black"/>
</svg>
