<svg width="16" height="16" viewBox="0 0 16 16" fill="none" xmlns="http://www.w3.org/2000/svg">
<path fill-rule="evenodd" clip-rule="evenodd" d="M7.99999 13.3332C4.65735 13.3332 2.04431 11.4085 0.279389 8.88721C-0.094492 8.34976 -0.094492 7.63963 0.278531 7.12703C2.02301 4.60722 4.65296 2.6665 7.99999 2.6665C11.3426 2.6665 13.9557 4.59114 15.7206 7.11246C16.0928 7.64749 16.0945 8.35365 15.7176 8.87818C13.9731 11.3953 11.3446 13.3332 7.99999 13.3332ZM14.6252 8.1137C14.6788 8.03963 14.6788 7.94976 14.6272 7.87548C13.0874 5.67584 10.812 3.99984 7.99999 3.99984C5.18491 3.99984 2.89568 5.68913 1.36582 7.89862C1.32114 7.96004 1.32114 8.04991 1.37281 8.1242C2.91256 10.3238 5.18803 11.9998 7.99999 11.9998C10.8151 11.9998 13.1043 10.3105 14.6252 8.1137ZM7.99999 10.6665C6.52723 10.6665 5.33333 9.4726 5.33333 7.99984C5.33333 6.52708 6.52723 5.33317 7.99999 5.33317C9.47275 5.33317 10.6667 6.52708 10.6667 7.99984C10.6667 9.4726 9.47275 10.6665 7.99999 10.6665ZM7.99999 9.33317C8.73637 9.33317 9.33333 8.73622 9.33333 7.99984C9.33333 7.26346 8.73637 6.6665 7.99999 6.6665C7.26361 6.6665 6.66666 7.26346 6.66666 7.99984C6.66666 8.73622 7.26361 9.33317 7.99999 9.33317Z" fill="#68737D"/>
</svg>
