<svg width="101" height="121" viewBox="0 0 101 121" fill="none" xmlns="http://www.w3.org/2000/svg">
<path d="M99.4475 29.9474H100.197C100.197 29.7485 100.118 29.5577 99.9778 29.4171L99.4475 29.9474ZM70.8948 1.39478L71.4252 0.864445C71.2845 0.723793 71.0938 0.644775 70.8948 0.644775V1.39478ZM98.9475 118.934H2.05273V120.434H98.9475V118.934ZM2.30273 119.184V1.89478H0.802734V119.184H2.30273ZM98.6975 29.9474V119.184H100.197V29.9474H98.6975ZM2.05273 2.14478H70.8948V0.644775H2.05273V2.14478ZM99.9778 29.4171L71.4252 0.864445L70.3645 1.92511L98.9171 30.4777L99.9778 29.4171ZM70.1448 1.39478V29.4474H71.6448V1.39478H70.1448ZM71.3948 30.6974H99.4475V29.1974H71.3948V30.6974ZM2.05273 118.934C2.19081 118.934 2.30273 119.046 2.30273 119.184H0.802734C0.802734 119.875 1.36238 120.434 2.05273 120.434V118.934ZM98.9475 120.434C99.6378 120.434 100.197 119.875 100.197 119.184H98.6975C98.6975 119.046 98.8094 118.934 98.9475 118.934V120.434ZM70.1448 29.4474C70.1448 30.1378 70.7045 30.6974 71.3948 30.6974V29.1974C71.5329 29.1974 71.6448 29.3093 71.6448 29.4474H70.1448ZM2.30273 1.89478C2.30273 2.03285 2.19081 2.14478 2.05273 2.14478V0.644775C1.36238 0.644775 0.802734 1.20442 0.802734 1.89478H2.30273Z" fill="black"/>
</svg>
