<svg width="29" height="30" viewBox="0 0 29 30" fill="none" xmlns="http://www.w3.org/2000/svg">
<path fill-rule="evenodd" clip-rule="evenodd" d="M24.868 15.2457C24.868 14.4799 24.7993 13.7435 24.6716 13.0366H14.5V17.2143H20.3124C20.062 18.5643 19.3011 19.7081 18.1573 20.4739V23.1837H21.6476C23.6898 21.3035 24.868 18.5348 24.868 15.2457Z" fill="#4285F4"/>
<path fill-rule="evenodd" clip-rule="evenodd" d="M14.5 25.8002C17.416 25.8002 19.8607 24.8332 21.6476 23.1837L18.1573 20.4739C17.1902 21.1219 15.9531 21.5048 14.5 21.5048C11.6871 21.5048 9.30618 19.605 8.45691 17.0522H4.84872V19.8504C6.62582 23.3801 10.2782 25.8002 14.5 25.8002Z" fill="#34A853"/>
<path fill-rule="evenodd" clip-rule="evenodd" d="M8.45692 17.0521C8.24092 16.4041 8.11819 15.7119 8.11819 15.0001C8.11819 14.2883 8.24092 13.5961 8.45692 12.9481V10.1499H4.84874C4.11728 11.6079 3.70001 13.2574 3.70001 15.0001C3.70001 16.7428 4.11728 18.3923 4.84874 19.8503L8.45692 17.0521Z" fill="#FBBC05"/>
<path fill-rule="evenodd" clip-rule="evenodd" d="M14.5 8.49565C16.0856 8.49565 17.5093 9.04056 18.6285 10.1107L21.7262 7.0131C19.8558 5.27038 17.4111 4.2002 14.5 4.2002C10.2782 4.2002 6.62582 6.62038 4.84872 10.15L8.45691 12.9482C9.30618 10.3955 11.6871 8.49565 14.5 8.49565Z" fill="#EA4335"/>
</svg>
