<svg width="20" height="21" viewBox="0 0 20 21" fill="none" xmlns="http://www.w3.org/2000/svg">
<path d="M0.34 6.33437C0.34 3.3056 2.80436 0.84 5.83203 0.84H14.1656C17.1944 0.84 19.66 3.30436 19.66 6.33203V14.6656C19.66 17.6943 17.1953 20.16 14.1672 20.16H5.83437C2.80565 20.16 0.34 17.6953 0.34 14.6672V6.33437ZM17.14 4.5C17.14 3.87062 16.6294 3.36 16 3.36C15.3706 3.36 14.86 3.87062 14.86 4.5C14.86 5.12938 15.3706 5.64 16 5.64C16.6294 5.64 17.14 5.12938 17.14 4.5ZM15.54 10.5C15.54 7.44422 13.0558 4.96 10 4.96C6.94421 4.96 4.46 7.44464 4.46 10.5C4.46 13.5554 6.94421 16.04 10 16.04C13.0554 16.04 15.54 13.5558 15.54 10.5ZM6.74 10.5C6.74 8.69938 8.19938 7.24 10 7.24C11.8006 7.24 13.26 8.69938 13.26 10.5C13.26 12.3006 11.8006 13.76 10 13.76C8.19938 13.76 6.74 12.3006 6.74 10.5Z" fill="#2F2F2F" stroke="#2F2F2F" stroke-width="0.68"/>
</svg>
