<svg width="24" height="24" viewBox="0 0 24 24" fill="none" xmlns="http://www.w3.org/2000/svg">
<path d="M2.34 7.83437C2.34 4.8056 4.80436 2.34 7.83203 2.34H16.1656C19.1944 2.34 21.66 4.80436 21.66 7.83203V16.1656C21.66 19.1943 19.1953 21.66 16.1672 21.66H7.83437C4.80565 21.66 2.34 19.1953 2.34 16.1672V7.83437ZM19.14 6C19.14 5.37062 18.6294 4.86 18 4.86C17.3706 4.86 16.86 5.37062 16.86 6C16.86 6.62938 17.3706 7.14 18 7.14C18.6294 7.14 19.14 6.62938 19.14 6ZM17.54 12C17.54 8.94422 15.0558 6.46 12 6.46C8.94421 6.46 6.46 8.94464 6.46 12C6.46 15.0554 8.94421 17.54 12 17.54C15.0554 17.54 17.54 15.0558 17.54 12ZM8.74 12C8.74 10.1994 10.1994 8.74 12 8.74C13.8006 8.74 15.26 10.1994 15.26 12C15.26 13.8006 13.8006 15.26 12 15.26C10.1994 15.26 8.74 13.8006 8.74 12Z" fill="#2F2F2F" stroke="#2F2F2F" stroke-width="0.68"/>
</svg>
