<svg width="16" height="16" viewBox="0 0 16 16" fill="none" xmlns="http://www.w3.org/2000/svg">
<path fill-rule="evenodd" clip-rule="evenodd" d="M7.99997 8.99999C6.61925 8.99999 5.49997 7.88071 5.49997 6.49999C5.49997 5.11928 6.61925 3.99999 7.99997 3.99999C9.38068 3.99999 10.5 5.11928 10.5 6.49999C10.5 7.88071 9.38068 8.99999 7.99997 8.99999ZM7.99997 7.99999C8.82839 7.99999 9.49997 7.32842 9.49997 6.49999C9.49997 5.67157 8.82839 4.99999 7.99997 4.99999C7.17154 4.99999 6.49997 5.67157 6.49997 6.49999C6.49997 7.32842 7.17154 7.99999 7.99997 7.99999ZM3.43957 1.8091C4.66114 0.622139 6.30546 -0.0289198 8.01448 0.000204276C11.483 0.100926 14.2988 2.83692 14.5 6.32999C14.5 7.90007 14.0463 9.04662 13.0438 10.4226C12.9213 10.5907 12.7893 10.7651 12.628 10.9731C12.5265 11.104 12.0345 11.7315 12.1937 11.5282C11.6743 12.1917 11.0943 12.8612 10.3293 13.6967C10.25 13.7833 8.75466 15.3944 8.36288 15.8331C8.16506 16.0546 7.8189 16.0558 7.61947 15.8358C7.28328 15.4648 5.92457 14.0236 5.62538 13.6975C4.88736 12.8931 4.30625 12.2098 3.78966 11.5196C3.68971 11.386 3.3335 10.9152 3.25883 10.8156C3.05625 10.5453 2.9024 10.3337 2.76026 10.1272C1.89454 8.86942 1.49997 7.7908 1.5 6.32413C1.51996 4.62099 2.218 2.99606 3.43957 1.8091ZM13.5008 6.35886C13.3305 3.41347 10.9371 1.08703 7.98845 0.999871C6.55261 0.97623 5.16642 1.52549 4.13644 2.52629C3.10574 3.52779 2.51677 4.89882 2.49997 6.32999C2.49997 7.56877 2.82517 8.45774 3.584 9.56023C3.71722 9.75378 3.86377 9.95536 4.05895 10.2157C4.1318 10.3129 4.48833 10.7842 4.59027 10.9204C5.08395 11.58 5.64486 12.2396 6.36223 13.0215C6.58727 13.2668 7.44643 14.1796 7.98692 14.7599C8.57974 14.1128 9.53351 13.085 9.59176 13.0214C10.3409 12.2032 10.9055 11.5514 11.4063 10.9118C11.2494 11.1121 11.7382 10.4887 11.8378 10.3603C11.9935 10.1595 12.1197 9.99272 12.2355 9.83378C13.1232 8.61538 13.5 7.66325 13.5008 6.35886Z" fill="#A85528"/>
</svg>
