<svg width="16" height="16" viewBox="0 0 16 16" fill="none" xmlns="http://www.w3.org/2000/svg">
<path d="M11.9655 7.27584L11.9655 7.27582L11.9633 7.28383C11.8981 7.52746 11.8271 7.73725 11.7302 7.91708C11.067 9.12862 9.30632 11.9069 8.24244 13.5682C8.04825 13.8715 7.6099 13.8715 7.41571 13.5682C6.35183 11.9069 4.59119 9.12862 3.92792 7.91708C3.83215 7.73935 3.76613 7.53314 3.69261 7.27584C3.58507 6.89945 3.52734 6.50745 3.52734 6.0986C3.52734 3.72249 5.45296 1.79688 7.82907 1.79688C10.2052 1.79688 12.1308 3.72249 12.1308 6.0986C12.1308 6.50745 12.0731 6.89945 11.9655 7.27584ZM5.78173 7.72432L6.17315 7.4132L5.78127 7.72374C6.2593 8.32696 7.00079 8.71579 7.82907 8.71579C8.65447 8.71579 9.39723 8.32929 9.86805 7.72327C10.2271 7.27683 10.437 6.71133 10.437 6.0986C10.437 4.66079 9.2683 3.48603 7.82446 3.48603C6.38665 3.48603 5.21188 4.65476 5.21188 6.0986C5.21188 6.71617 5.42953 7.28123 5.78173 7.72432Z" stroke="black" stroke-linejoin="round"/>
</svg>
