<svg width="46" height="30" viewBox="0 0 46 30" fill="none" xmlns="http://www.w3.org/2000/svg">
<mask id="path-1-inside-1_1706_9854" fill="white">
<rect width="46" height="30" rx="0.5"/>
</mask>
<rect width="46" height="30" rx="0.5" fill="white" stroke="black" stroke-width="3" stroke-linecap="round" stroke-linejoin="round" mask="url(#path-1-inside-1_1706_9854)"/>
<path d="M22.9985 20.7454L22.9985 22.6197" stroke="black" stroke-width="1.5" stroke-linecap="round" stroke-linejoin="round"/>
<path d="M22.9985 7L22.9985 8.87437" stroke="black" stroke-width="1.5" stroke-linecap="round" stroke-linejoin="round"/>
<path fill-rule="evenodd" clip-rule="evenodd" d="M20.1501 11.8172C20.1501 11.5133 20.3403 11.138 20.856 10.8029C21.3645 10.4723 22.1117 10.2434 22.9754 10.2434C23.839 10.2434 24.5862 10.4723 25.0948 10.8029C25.6104 11.138 25.8006 11.5133 25.8006 11.8172C25.8006 12.2314 26.1364 12.5672 26.5506 12.5672C26.9649 12.5672 27.3006 12.2314 27.3006 11.8172C27.3006 10.8377 26.6905 10.0511 25.9122 9.54518C25.1267 9.03466 24.0863 8.74341 22.9754 8.74341C21.8644 8.74341 20.824 9.03466 20.0386 9.54518C19.2602 10.0511 18.6501 10.8377 18.6501 11.8172C18.6501 12.5875 18.851 13.4319 19.6236 14.0471C20.2801 14.5697 21.2426 14.8365 22.5433 14.8834C22.5783 14.8884 22.614 14.891 22.6503 14.891C24.0365 14.891 24.9009 15.2287 25.406 15.6525C25.8982 16.0654 26.1256 16.6227 26.1256 17.2524C26.1256 17.7516 25.8348 18.26 25.2029 18.6773C24.5712 19.0944 23.6636 19.3664 22.6503 19.3664C21.7236 19.3664 20.9123 19.0778 20.3485 18.6459C19.7854 18.2146 19.5 17.6715 19.5 17.1287C19.5 16.7145 19.1642 16.3787 18.75 16.3787C18.3358 16.3787 18 16.7145 18 17.1287C18 18.2359 18.5877 19.1867 19.4363 19.8367C20.2841 20.4861 21.4229 20.8664 22.6503 20.8664C23.9122 20.8664 25.1172 20.5314 26.0294 19.929C26.9414 19.3268 27.6256 18.4032 27.6256 17.2524C27.6256 16.232 27.2405 15.2335 26.3701 14.5033C25.5944 13.8525 24.4989 13.4689 23.1022 13.4016C23.061 13.3946 23.0186 13.391 22.9754 13.391C21.5721 13.391 20.8871 13.1357 20.5579 12.8736C20.2742 12.6477 20.1501 12.3302 20.1501 11.8172Z" fill="black"/>
</svg>
