<svg width="16" height="16" viewBox="0 0 16 16" fill="none" xmlns="http://www.w3.org/2000/svg">
<path fill-rule="evenodd" clip-rule="evenodd" d="M0 12.5957V15.3191C0 15.6952 0.304827 16 0.680851 16H3.40426C3.58483 16 3.75801 15.9283 3.88569 15.8006L13.4168 6.26946C13.4173 6.26893 13.4179 6.2684 13.4184 6.26788L15.5963 4.08995C16.1346 3.55172 16.1346 2.71211 15.5963 2.17388L13.8261 0.403672C13.2879 -0.134557 12.4483 -0.134557 11.9101 0.403672L9.73164 2.58209C9.73143 2.58229 9.73123 2.5825 9.73102 2.5827L0.199417 12.1143C0.0717323 12.242 0 12.4152 0 12.5957ZM10.2128 4.0267L1.3617 12.8778V14.6383H3.12224L11.9733 5.78723L10.2128 4.0267ZM12.9362 4.82437L14.6286 3.13191L12.8681 1.37138L11.1756 3.06383L12.9362 4.82437Z" fill="#68737D"/>
</svg>
