<svg width="37" height="37" viewBox="0 0 37 37" fill="none" xmlns="http://www.w3.org/2000/svg">
<circle cx="18.5" cy="18.5" r="13.75" stroke="black" stroke-width="1.5"/>
<circle cx="13.5" cy="15.5" r="1.5" fill="black"/>
<circle cx="23.5" cy="15.5" r="1.5" fill="black"/>
<path d="M13.6221 21.5811C13.3908 21.2375 12.9247 21.1465 12.5811 21.3779C12.2375 21.6092 12.1465 22.0753 12.3779 22.4189L13.6221 21.5811ZM24.6221 22.4189C24.8535 22.0753 24.7625 21.6092 24.4189 21.3779C24.0753 21.1465 23.6092 21.2375 23.3779 21.5811L24.6221 22.4189ZM18.5 24.25C16.5013 24.25 14.7176 23.2083 13.6221 21.5811L12.3779 22.4189C13.7272 24.423 15.9592 25.75 18.5 25.75V24.25ZM23.3779 21.5811C22.2824 23.2083 20.4987 24.25 18.5 24.25V25.75C21.0408 25.75 23.2728 24.423 24.6221 22.4189L23.3779 21.5811Z" fill="black"/>
</svg>
