<svg width="151" height="57" viewBox="0 0 151 57" fill="none" xmlns="http://www.w3.org/2000/svg">
<g clip-path="url(#clip0_2074_20639)">
<path d="M108.897 21.6814C108.648 21.7428 108.464 21.7895 108.353 21.82C108.285 21.8356 108.222 21.8564 108.166 21.8819L107.17 22.1208L108.226 22.046C108.281 22.0589 108.344 22.0603 108.401 22.0497C108.465 22.0418 108.526 22.0292 108.582 22.0122C109.087 21.8907 109.171 21.8681 109.168 21.7854H109.101L108.974 21.6606L108.897 21.6814Z" fill="#D96E34"/>
<path d="M94.8907 23.3453H94.8001L94.7902 23.5519H94.8808C94.9714 23.5519 95.0619 23.5542 95.158 23.5542H95.4243H95.4379C95.524 23.5542 95.61 23.5542 95.697 23.5542L96.1074 23.5514L96.5214 23.5417L96.8294 23.526L96.7968 23.3204L96.7062 23.3231C96.131 23.3402 95.5367 23.3476 94.8907 23.3453Z" fill="#D96E34"/>
<path d="M91.5151 23.1605C91.3085 23.1444 91.0938 23.124 90.8854 23.1042H90.87C90.7531 23.0931 90.6363 23.082 90.5257 23.0723C90.196 23.0362 89.859 22.9979 89.5292 22.9586L89.0327 22.8911L88.8706 22.869C88.7591 22.8542 88.654 22.8403 88.5435 22.8227C87.4375 22.6568 86.362 22.4421 85.3292 22.1809L85.2495 22.1601L85.2214 22.1874L84.9967 22.1273C84.714 22.052 84.6189 22.0266 84.5111 22.1037L84.4124 22.1791L84.541 22.2401L84.5836 22.2558C84.6397 22.271 84.695 22.2867 84.7503 22.302L84.7765 22.3094C84.8889 22.3408 85.0039 22.3731 85.1235 22.4018L85.6753 22.5404L85.7586 22.5598L85.9226 22.5963L86.7379 22.759L86.7515 22.741C87.0795 22.807 87.4074 22.8671 87.7291 22.9212L88.5897 23.0566L89.367 23.1615L90.3427 23.277L91.1391 23.3565L91.313 23.3773L91.4897 23.3944L92.0632 23.4216C92.1864 23.4276 92.3132 23.4336 92.4437 23.4364H92.5343L92.5605 23.2313L92.4699 23.2271C92.3549 23.2215 92.2398 23.2132 92.1148 23.204L91.5151 23.1605Z" fill="#D96E34"/>
<path d="M77.7544 18.5193C77.6638 18.4462 77.5949 18.3885 77.5451 18.3437L77.4427 18.2512C77.4278 18.2339 77.406 18.2183 77.3787 18.2054C77.3514 18.1925 77.3193 18.1827 77.2842 18.1764C77.2761 18.1681 77.2679 18.1602 77.2588 18.1524C77.2344 18.1288 77.2054 18.1029 77.1682 18.0729C77.1175 18.0267 77.0604 17.9772 76.9979 17.9148L76.9572 17.8737L76.9037 17.8876C76.7877 17.7725 76.6772 17.6565 76.573 17.5429L76.5359 17.5022L76.1663 17.584L76.1998 17.6256C76.2487 17.688 76.3058 17.7475 76.3619 17.8053L76.4453 17.8931C76.8821 18.3425 77.3886 18.7733 77.96 19.1814L78.0126 19.2189L78.0805 19.1944C78.1603 19.2535 78.2409 19.3108 78.3279 19.3663L78.3831 19.4014L78.7029 19.2757L78.6504 19.2392C78.5788 19.1902 78.4275 19.0719 78.2817 18.9573L78.0932 18.8099C78.0715 18.7933 78.0515 18.7776 78.0352 18.7637L78.0443 18.7609L77.9972 18.7221C77.9066 18.644 77.8223 18.5766 77.7517 18.5183L77.6738 18.5419L77.7544 18.5193Z" fill="#D96E34"/>
<path d="M78.8171 19.7669C79.2927 20.0617 79.6542 20.2586 79.8735 20.3718C80.2096 20.5455 80.2947 20.5793 80.3763 20.5825C80.4415 20.6148 80.5122 20.6504 80.6009 20.6911L81.2279 20.9744L81.3003 21.0016C81.3496 21.0258 81.4135 21.0408 81.4815 21.0441C81.5299 21.0437 81.5761 21.0339 81.6111 21.0169L81.7388 20.9587L81.6528 20.8875C81.6327 20.8708 81.6062 20.8563 81.5748 20.845C81.5431 20.8311 81.4888 20.808 81.4317 20.7803C81.3746 20.7526 81.3058 20.7216 81.255 20.699C81.2181 20.6808 81.1777 20.6646 81.1345 20.6504C80.9851 20.583 80.7613 20.4818 80.4641 20.327L80.4025 20.2946L80.3889 20.3011L80.321 20.2678L80.2558 20.2359L80.2358 20.2461C80.176 20.2156 80.1081 20.1791 80.0365 20.1366C79.9804 20.1042 79.9197 20.07 79.8481 20.0298C79.7493 19.9744 79.6406 19.9134 79.5283 19.8478L79.2239 19.6588L79.1423 19.6084L79.1342 19.6029C79.0572 19.5567 78.9784 19.5072 78.9041 19.4555L78.8407 19.4092L78.5082 19.5303L78.6649 19.6408C78.6876 19.6565 78.7111 19.6717 78.7356 19.687L78.7872 19.7198L78.7564 19.7332L78.8171 19.7669Z" fill="#D96E34"/>
<path d="M75.2386 10.9507L75.2685 10.9206L75.2767 10.9072C75.3063 10.8114 75.3365 10.7161 75.3673 10.6212L75.3745 10.6018C75.3899 10.5556 75.4062 10.5071 75.4216 10.4632C75.457 10.3708 75.4959 10.276 75.5367 10.1794C75.5593 10.1258 75.582 10.0722 75.6037 10.0186L75.6219 9.97243L75.2241 9.92944L75.0357 10.3689L74.9786 10.5376L74.8998 10.5297L74.7902 10.807L74.7413 10.9594C74.7068 11.0643 74.6652 11.1951 74.6208 11.3504L74.609 11.3966L74.5392 11.6909V11.6983C74.5392 11.7034 74.5392 11.7085 74.5347 11.7131H74.4713L74.4079 12.1854L74.3979 12.2746V12.3138C74.3559 12.3532 74.3349 12.3975 74.3372 12.4423C74.3164 12.5301 74.2946 12.6207 74.2765 12.7376L74.2484 13.0213C74.2403 13.1036 74.2321 13.1974 74.2357 13.312C74.2412 13.3531 74.2457 13.3924 74.2511 13.4418C74.2611 13.5287 74.2747 13.647 74.3055 13.8605C74.2806 13.8907 74.2718 13.9237 74.2801 13.9561C74.2801 13.9815 74.2892 14.0222 74.2974 14.08L74.3037 14.1262H74.3118C74.3118 14.1313 74.3118 14.1363 74.3118 14.1414L74.3454 14.2708C74.3689 14.3577 74.3907 14.4399 74.4052 14.4871C74.4068 14.5099 74.4181 14.5323 74.4383 14.5527C74.4585 14.5731 74.487 14.5911 74.522 14.6054C74.522 14.6682 74.5519 14.7879 74.6307 15.0707V15.0781C74.6806 15.1871 74.7032 15.238 74.7594 15.2666C74.7748 15.2957 74.7938 15.3368 74.8192 15.3946L74.8663 15.5L74.9297 15.6238L74.9723 15.6723L75.3501 15.622L75.3274 15.5757C75.2042 15.3364 75.0674 14.9829 74.9977 14.7837L75.1082 14.774L75.0937 14.7278C75.0511 14.5924 75.0131 14.3956 74.9795 14.2195L74.9687 14.1659C74.9533 14.0994 74.9478 14.0361 74.9433 13.9811C74.9433 13.9612 74.9433 13.9427 74.9379 13.927C74.9324 13.8605 74.9315 13.8346 74.9315 13.8258L74.937 13.8101L74.9297 13.7912C74.9215 13.7656 74.8955 13.7425 74.8563 13.726L74.8509 13.6895C74.8355 13.5938 74.8264 13.4926 74.8192 13.4035V13.3901C74.8147 13.3392 74.8101 13.2889 74.8047 13.238L74.7993 13.1918H74.7848C74.7848 13.1456 74.7848 13.1017 74.7802 13.0532L74.7748 12.7505C74.7748 12.6295 74.7848 12.5028 74.792 12.391C74.792 12.3397 74.7983 12.2884 74.8011 12.2395L74.8609 11.8827V11.8457H74.9107L74.9179 11.7995C74.9179 11.7815 74.9243 11.7663 74.9288 11.7478L74.9424 11.7016C74.9551 11.6669 74.9732 11.617 75.0004 11.5288L75.0584 11.3287L75.1798 10.9738L75.1417 10.9701L75.1508 10.941L75.2386 10.9507Z" fill="#D96E34"/>
<path d="M150.978 24.5109L150.921 23.7365L150.856 23.8797C150.836 23.7693 150.815 23.6487 150.79 23.5285L150.684 23.0941C150.659 22.9948 150.636 22.901 150.606 22.8206L150.601 22.803C150.51 22.5369 150.49 22.4713 150.372 22.4583V22.4551C150.357 22.4089 150.343 22.3599 150.329 22.3118L150.41 22.3067L150.425 22.2042L150.418 22.188C150.398 22.1469 150.365 22.0604 150.327 21.9509C150.248 21.7467 150.14 21.4662 150.01 21.1894C149.995 21.1529 149.979 21.1159 149.963 21.0799L149.996 21.0762L149.976 21.03C149.886 20.8147 149.785 20.6206 149.69 20.4334L149.623 20.3022L149.234 19.6409L148.787 18.9478L148.392 18.3512L148.239 18.1299C148.175 18.0407 148.092 17.9229 147.981 17.7602L147.679 17.3471C147.524 17.1285 147.309 16.8591 147.234 16.8046L146.41 16.2039L146.482 16.1822L146.015 15.6739L145.962 15.7358L145.565 15.3079C145.73 15.2589 145.661 15.1794 145.555 15.0611C145.517 14.9941 145.392 14.8675 145.033 14.5311L144.989 14.4905L144.932 14.5062C144.861 14.4355 144.832 14.4045 144.82 14.3911C144.819 14.3841 144.817 14.3771 144.813 14.3703C144.782 14.3228 144.741 14.2773 144.69 14.2345L144.656 14.2012C144.621 14.1665 144.576 14.1236 144.517 14.0704L144.216 13.8065L144.192 13.7899C144.143 13.7617 143.938 13.5866 143.771 13.4433C143.613 13.3089 143.435 13.1564 143.295 13.0464L143.143 12.9207L143.133 12.9124C143.118 12.9004 143.104 12.8889 143.094 12.8815L143.042 12.8352L143.025 12.8399C143.017 12.8365 143.009 12.8334 143 12.8306L142.625 12.5224L141.788 11.8704C141.703 11.8043 141.606 11.7318 141.508 11.6643C141.457 11.6282 141.404 11.5908 141.35 11.5511L141.299 11.5146L141.265 11.5261C141.174 11.4698 141.008 11.363 140.702 11.1602L140.297 10.9005C139.849 10.6126 139.341 10.2868 138.879 10.0049L138.89 9.99984L138.86 9.98691C138.793 9.93009 138.719 9.87517 138.639 9.8224V9.8224L138.587 9.78634C138.553 9.7637 138.526 9.74523 138.505 9.73183L138.483 9.71613L138.427 9.67822L138.418 9.68147C138.26 9.58351 138.102 9.48877 137.949 9.39774L137.935 9.38896L137.63 9.20413C137.579 9.17409 137.53 9.14405 137.476 9.11171C137.386 9.0581 137.295 9.00264 137.204 8.95135L136.279 8.43057C136.189 8.37928 136.09 8.32199 135.989 8.26931L135.212 7.85343L135.093 7.78964L135.074 7.77902C134.993 7.73558 134.91 7.69031 134.824 7.64734L133.61 7.03644L132.723 6.61641C132.669 6.59192 132.617 6.56649 132.563 6.54107C132.462 6.49255 132.357 6.44265 132.246 6.39459L131.742 6.1714C131.568 6.08914 131.199 5.91771 130.927 5.79572L130.785 5.73288L130.804 5.72041L130.093 5.43852C130.067 5.40799 130.027 5.38117 129.976 5.36043C129.931 5.33918 129.862 5.3073 129.761 5.26201L129.718 5.24721C129.679 5.23658 129.347 5.11736 128.349 4.73891C128.109 4.64973 127.845 4.55639 127.589 4.46628C127.443 4.41499 127.296 4.36277 127.15 4.31055L126.697 4.14974L125.952 3.90577C125.944 3.88845 125.928 3.87221 125.907 3.858C125.885 3.8438 125.859 3.83192 125.828 3.82305L125.247 3.62529C125.172 3.60033 125.089 3.57446 124.997 3.54627L124.834 3.49589C124.77 3.47879 124.49 3.39516 124.264 3.32723L124.253 3.324L123.903 3.21956C123.702 3.15995 123.569 3.12068 123.464 3.2094L123.456 3.21678L123.411 3.20338C123.366 3.1702 123.303 3.14438 123.23 3.12899L121.962 2.76809C121.871 2.74268 121.79 2.72189 121.701 2.69833L121.582 2.66782L120.335 2.34621L120.323 2.34343L120.357 2.30785L120.277 2.28707L120.005 2.21821L120.186 2.19325L118.607 1.83791L118.575 1.87211L117.451 1.63134L117.27 1.59208L117.25 1.58746C117.042 1.54125 116.828 1.49503 116.601 1.45668L115.206 1.19328C115.101 1.17479 114.995 1.1577 114.887 1.14014L114.867 1.13692L114.709 1.11104L113.441 0.904019C113.384 0.894777 113.326 0.886919 113.26 0.878139L113.169 0.866136L111.598 0.647567L110.56 0.528344C110.023 0.460416 109.494 0.41282 108.98 0.366611H108.956L108.544 0.329179L108.066 0.285271C107.967 0.277416 107.87 0.270948 107.764 0.264017L107.602 0.25339L106.732 0.194703L106.357 0.174825C106.266 0.169742 106.164 0.164218 106.066 0.16237L105.432 0.145719C105.317 0.142946 105.22 0.140641 105.152 0.139717C105.061 0.139717 104.938 0.136014 104.874 0.17945C104.682 0.173905 104.487 0.168819 104.286 0.164198H104.079V0.154969L103.911 0.128616L103.855 0.124013L103.392 0.117988C103.081 0.113368 102.773 0.109211 102.466 0.108286L102.892 0.00201416L101.762 0.110137L100.24 0.135565L100.402 0.154496L100.331 0.157745L100.1 0.167898C99.9107 0.175754 99.7467 0.182687 99.6118 0.192853L99.5212 0.199328V0.219658C99.2304 0.232596 98.9504 0.247391 98.6868 0.26264L98.6777 0.22936H98.5871L98.3153 0.247388C98.0689 0.264023 97.8143 0.280645 97.5661 0.302825L97.0606 0.344432C96.9546 0.353674 96.8477 0.363835 96.7417 0.374463H96.7317L96.5505 0.392017L96.4599 0.400343L96.4744 0.441453L96.3494 0.455329L96.0659 0.488136L95.7451 0.534345L95.7596 0.566701C95.5612 0.591192 95.3465 0.619374 95.092 0.653569L95.0476 0.573154L94.8401 0.599508C94.5049 0.64202 94.1579 0.685919 93.8182 0.738135L93.7357 0.750613L93.7584 0.796822C93.4603 0.843031 93.0273 0.90909 92.5344 0.995964C92.4828 1.00428 92.4321 1.01354 92.3786 1.02324L92.2944 1.03895L92.3261 1.08516L92.2183 1.10456L92.182 1.05835L92.0969 1.07408C92.0307 1.08655 91.9628 1.09902 91.8939 1.11104C91.778 1.13229 91.6575 1.15402 91.5397 1.17712L90.9871 1.2857L90.968 1.2908C90.9428 1.29653 90.92 1.30476 90.9011 1.31503C90.8822 1.3253 90.8674 1.33739 90.8577 1.35059C90.848 1.36379 90.8436 1.37786 90.8446 1.39195C90.8457 1.40603 90.8522 1.41986 90.8639 1.43265C90.8756 1.45013 90.8977 1.46534 90.927 1.47617C90.9564 1.48701 90.9916 1.49295 91.0278 1.49319C91.1494 1.48397 91.2674 1.46511 91.3775 1.43728L91.4029 1.47423L91.7988 1.40677L92.0162 1.37166C92.1295 1.35272 92.2074 1.33839 92.3016 1.32175L92.3832 1.30695C92.4674 1.2917 92.5698 1.27323 92.7147 1.24966C92.8796 1.22471 93.1469 1.18497 93.569 1.12536L93.6596 1.11334L93.6515 1.09763C94.0583 1.03155 94.8564 0.912801 95.6355 0.825003C95.9073 0.793119 96.1936 0.760767 96.5188 0.727034L96.5279 0.75244L96.6185 0.743212L96.8096 0.723334L97.0615 0.697454C97.1521 0.688212 97.2481 0.679892 97.3414 0.671574L97.3686 0.669273L97.5027 0.657269L97.9466 0.617987C98.0417 0.609669 98.1369 0.602739 98.2329 0.595807L98.3914 0.584255L98.482 0.577328L98.4766 0.556976L98.858 0.53342L99.4487 0.502915C99.7386 0.48628 100.039 0.476122 100.355 0.465031H100.377C100.484 0.461797 100.593 0.458089 100.697 0.45393L100.834 0.451629C101.257 0.443773 101.695 0.435456 102.193 0.440077L104.035 0.458105L103.895 0.440528H104.094H104.184V0.43315C104.259 0.43315 104.336 0.436391 104.415 0.439625L104.698 0.451629C104.76 0.463643 104.865 0.46735 105.169 0.473357L106.035 0.504765L106.14 0.53157V0.509391L106.406 0.525568L106.417 0.479359L106.531 0.486286L106.783 0.501065L106.936 0.509842C106.974 0.569914 107.118 0.579635 107.203 0.58518L107.462 0.601358L107.662 0.612436C107.753 0.617981 107.86 0.623533 107.963 0.630464L108.498 0.672048C108.656 0.684062 108.796 0.694223 108.898 0.701154C108.958 0.706162 109.018 0.709257 109.079 0.710405C109.129 0.711759 109.179 0.704425 109.22 0.689602L109.562 0.715956C109.585 0.720115 109.617 0.724265 109.669 0.730735L109.821 0.751064L109.806 0.787097L109.896 0.797273C110.077 0.818991 110.259 0.839791 110.448 0.860585C111.052 0.928975 111.677 0.999213 112.28 1.09163L112.823 1.17157L112.979 1.1942C113.114 1.21361 113.251 1.2335 113.394 1.25891L114.881 1.50659C114.939 1.51583 114.995 1.52692 115.055 1.53847L115.162 1.55835L116.691 1.84206C117.216 1.95619 117.876 2.09021 118.311 2.17847L118.387 2.1951L119.999 2.57078L121.21 2.88176H121.218C121.445 2.93999 121.681 3.00052 121.905 3.0666L123.209 3.44505L124.774 3.92702L126.337 4.44688L126.958 4.67052C127.155 4.7403 127.362 4.81654 127.592 4.90157L127.586 4.90712L127.655 4.93207C127.764 4.97181 127.868 5.0134 127.974 5.05637L128.858 5.40802C129.134 5.5143 129.381 5.61781 129.622 5.71993L129.844 5.81235L130.438 6.0665C130.558 6.11687 130.675 6.16957 130.8 6.22548C130.882 6.26245 130.963 6.29941 131.045 6.33545C131.216 6.41216 131.391 6.48841 131.567 6.5665L131.574 6.56973C131.814 6.67462 132.062 6.78276 132.299 6.89089L132.365 6.92137L132.373 6.91677L133.178 7.28967L134.265 7.83078C134.401 7.89732 134.537 7.9694 134.679 8.04565L135.27 8.36173L135.542 8.53454C135.752 8.64729 135.995 8.78732 136.267 8.9375L136.538 9.09138C136.571 9.1094 136.603 9.12788 136.635 9.14636C136.696 9.18056 136.757 9.21521 136.817 9.24941L137.904 9.90927L139.192 10.7267C139.336 10.8344 139.538 10.979 139.773 11.1472L139.782 11.1532C140.389 11.5876 141.22 12.1832 142.041 12.8352L142.896 13.5321L143.694 14.2252L144.39 14.8721C144.584 15.0491 144.753 15.2196 144.896 15.3698L144.967 15.4437L145.058 15.4835C146.012 16.4449 146.862 17.4322 147.605 18.4409L148.148 19.1802V19.1641C148.39 19.5388 148.608 19.914 148.795 20.2832C149.054 20.7837 149.283 21.3021 149.476 21.8257L149.492 21.8719C149.88 23.0701 150.083 24.0973 150.117 25.0141C150.163 26.0184 149.996 27.0222 149.618 28.008C149.544 28.2123 149.467 28.4082 149.384 28.606C149.33 28.7164 149.276 28.825 149.216 28.9442H149.21L149.187 28.9904C149.178 29.0066 149.169 29.026 149.159 29.0477V29.0528C149.142 29.0893 149.122 29.1314 149.1 29.1716L148.918 29.4719L148.878 29.5408L148.867 29.5584C148.828 29.6244 148.784 29.697 148.735 29.7709L148.726 29.7843C148.692 29.8333 148.658 29.8823 148.625 29.9317C148.551 30.038 148.476 30.1475 148.402 30.2497L148.087 30.6632C148.05 30.7136 148.009 30.7653 147.962 30.8217L147.867 30.9423C147.819 31.0033 147.782 31.0509 147.806 31.092C147.767 31.141 147.735 31.1845 147.715 31.215C147.655 31.2972 147.631 31.3296 147.659 31.3707L147.364 31.7427L147.314 31.7912C147.223 31.8781 147.116 31.9862 147.003 32.1082L146.877 32.2468L146.316 32.8286C146.231 32.9104 146.145 32.9908 146.061 33.0693C145.906 33.214 145.739 33.3646 145.573 33.4894L145.562 33.4991C145.405 33.6594 144.746 34.2444 144.056 34.7892L144.043 34.7994C143.699 35.0665 143.344 35.3424 143.051 35.5572L142.798 35.7481C142.707 35.8174 142.627 35.8761 142.576 35.9172C142.068 36.2665 141.544 36.6025 141.036 36.9301C140.862 37.0419 140.69 37.1515 140.526 37.2582L140.17 37.431L140.155 37.4393C139.688 37.7415 139.173 38.059 138.54 38.4375C138.395 38.5148 138.263 38.5846 138.144 38.6468L138.08 38.6186L138.02 38.6528C136.917 39.2771 136.368 39.5613 135.926 39.79L135.765 39.8741L135.461 40.0289L135.443 40.0382C135.292 40.1158 135.129 40.1994 134.934 40.2983L133.806 40.8403C133.008 41.2234 131.674 41.8643 131.134 42.0801C130.916 42.1726 130.627 42.2945 130.279 42.4433L130.263 42.4503C129.09 42.9502 127.126 43.7871 124.904 44.66C123.487 45.2145 121.915 45.8069 120.367 46.3651C118.926 46.8808 117.387 47.4048 115.916 47.8803L115.842 47.9043L115.862 47.9214C115.657 47.988 115.36 48.0818 115.028 48.1839C114.771 48.2652 114.495 48.3507 114.237 48.4307L114.216 48.4367C113.544 48.6442 113.251 48.7366 113.142 48.7846L113.03 48.8161L112.996 48.7865L112.92 48.8114C112.62 48.9075 112.327 48.9963 112.068 49.0748L111.027 49.3872L109.455 49.84C108.64 50.0678 107.889 50.28 107.091 50.5068C107.03 50.5083 106.97 50.5168 106.916 50.5318L106.721 50.5868L106.657 50.6048L106.643 50.5909L106.522 50.6233C106.16 50.7213 105.848 50.8058 105.561 50.8802L104.777 51.0891C104.606 51.1353 104.453 51.1769 104.316 51.2138L104.301 51.218C104.082 51.2776 103.904 51.3257 103.757 51.3663C103.304 51.4948 103.162 51.5512 103.058 51.5974C102.779 51.6635 102.522 51.7222 102.294 51.7744L102.043 51.8317C101.73 51.9042 101.449 51.9703 101.186 52.0331L100.834 52.1172C100.61 52.1704 100.393 52.2221 100.169 52.2766L100.154 52.26L100.071 52.2785L99.8364 52.3312C99.5438 52.3968 99.1008 52.4966 98.5763 52.6084L97.4891 52.8395L95.7832 53.1916L94.2277 53.4998L93.8155 53.5807L93.8019 53.5835C93.4205 53.6583 93.3099 53.6805 93.2529 53.6967C93.0291 53.7336 92.5752 53.8177 92.3234 53.8644L91.4174 54.0271C88.984 54.4402 88.6923 54.4831 86.4174 54.8191L86.0822 54.869L86.0931 54.8889C85.8548 54.9245 85.5776 54.9642 85.2089 55.0155C85.0078 55.0432 84.7894 55.0705 84.5566 55.0996L84.1172 55.155L83.7231 55.2054L83.6959 55.2091C83.4405 55.2419 83.1777 55.2756 82.8933 55.3103V55.3071L81.364 55.4822L80.4327 55.5792L79.4461 55.6878C79.206 55.7128 78.9569 55.7387 78.4704 55.7853L78.2349 55.808C78.0401 55.8269 77.819 55.8482 77.5536 55.8703L76.0261 55.9951L76.0316 56.0307C75.4427 56.088 74.2505 56.1638 73.7893 56.1929C72.5645 56.2645 70.9809 56.3463 69.4552 56.4165L69.3646 56.4207V56.4318L68.4505 56.4581L67.5998 56.4711C67.0237 56.4808 66.4366 56.4836 65.9102 56.4859H65.807V56.4646L64.5558 56.4808C64.2632 56.4808 64.0603 56.484 63.9217 56.4859C63.6852 56.4886 63.5593 56.4905 63.4859 56.5196H63.4714C63.3926 56.5233 63.2667 56.527 63.0882 56.5302L62.7412 56.5358H62.3082C62.2366 56.4951 62.0364 56.4942 60.9818 56.4896C60.7952 56.4849 60.4809 56.4822 60.0759 56.4785C59.3819 56.4715 58.4307 56.4627 57.3888 56.4383L57.1895 56.4346L55.4881 56.3805L54.8476 56.3542C54.0078 56.314 53.2169 56.2761 52.5528 56.2243H52.4622L52.4532 56.2516L51.5164 56.1943C51.3063 56.1795 51.0888 56.1624 50.8641 56.1448L49.575 56.0432L48.5467 55.9508L48.1517 55.9152C47.9461 55.8972 47.7341 55.8782 47.5293 55.8569L46.5554 55.7608C46.2374 55.7317 45.943 55.7021 45.6585 55.674L45.3958 55.6481C45.3674 55.6366 45.3347 55.6281 45.2998 55.6231L45.2771 55.6208C44.8359 55.5746 44.6348 55.5543 44.5288 55.5506C44.1664 55.515 43.6672 55.4554 43.188 55.3976L42.1914 55.2789L40.4312 55.0478L39.6502 54.9365C39.1067 54.8588 38.7053 54.8043 38.5513 54.784C38.381 54.7465 38.1183 54.6962 37.7468 54.6306L36.8345 54.4739L34.9565 54.1384L33.333 53.8311L31.7838 53.5155C31.6117 53.4818 31.4459 53.4448 31.2792 53.4079L31.1025 53.3681L30.4937 53.2323C30.0408 53.1334 29.7173 53.053 29.528 53.0012L29.5516 52.9874L28.1926 52.6639L26.542 52.2392L25.1024 51.8437L25.1078 51.8381L25.0336 51.8169C24.6549 51.7078 24.3088 51.6043 23.9962 51.5133L23.9754 51.5073C23.7281 51.4343 23.4989 51.3663 23.2887 51.3058L22.0521 50.9255L21.8455 50.8627C21.7495 50.8336 21.6571 50.8058 21.5692 50.7776L20.4186 50.4144L20.3779 50.4001L20.3914 50.3881L20.3217 50.3641C19.3206 50.0133 18.6194 49.7587 18.0468 49.5383C17.9327 49.4921 17.8213 49.4523 17.7125 49.4117L17.7044 49.4089C17.5332 49.3442 17.371 49.2832 17.2188 49.2241L16.494 48.9367C16.1778 48.8151 15.8762 48.6904 15.5555 48.5568L15.5419 48.5513C15.3942 48.4903 15.2429 48.4274 15.0844 48.3627C15.0409 48.3447 14.9938 48.3262 14.9503 48.3078L14.9412 48.3041C14.8588 48.2703 14.7736 48.2357 14.6894 48.1987L13.7082 47.7708C13.5723 47.7121 13.431 47.6507 13.2897 47.5837L13.0306 47.4279L13.0161 47.4201C12.9255 47.3785 12.7832 47.3115 12.583 47.2149L12.2705 47.0633L11.9081 46.8743C11.8175 46.8281 11.7269 46.7819 11.6363 46.7311C11.446 46.6317 11.2485 46.5292 11.0411 46.4169L10.0445 45.86L8.98276 45.2228L7.90739 44.5297C7.76969 44.4322 7.63017 44.3356 7.49065 44.2386L7.47344 44.2265C7.28318 44.0948 7.06847 43.9456 6.86735 43.8019L6.2205 43.3158L6.235 43.3111L6.15165 43.2511C6.02753 43.1587 5.91429 43.0662 5.78927 42.966L5.78202 42.9595L5.66153 42.8597L5.13969 42.4239L4.39228 41.7252C4.33974 41.6753 4.28901 41.6208 4.24371 41.5728L4.23737 41.5658C4.21291 41.5395 4.18845 41.5131 4.16398 41.4882L3.70376 41.0007C3.65212 40.9489 3.60682 40.8939 3.56334 40.8403C3.54159 40.8135 3.51985 40.7867 3.4981 40.7613L3.29426 40.5146C3.0098 40.1782 2.76428 39.8547 2.56497 39.5525C2.1828 38.9865 1.85894 38.4107 1.5947 37.8275C1.55755 37.7536 1.52675 37.6805 1.49595 37.608C1.47783 37.5618 1.4588 37.5188 1.43796 37.4735L1.37002 37.3183L1.31023 37.169C1.27127 37.0729 1.23412 36.9842 1.1997 36.9093C1.16527 36.8345 1.14081 36.7638 1.1091 36.7097C0.931055 36.1501 0.813706 35.586 0.757591 35.0198V34.9736H0.662467C0.662467 34.8849 0.656124 34.7943 0.655218 34.7047C0.721353 34.6723 0.724075 34.5924 0.733134 34.3299L0.762126 33.9002L0.803796 33.5134L0.869934 33.1077L0.928818 32.8401C0.953279 32.7145 0.989517 32.5925 1.01941 32.4848V32.4751C1.03029 32.439 1.04025 32.4039 1.05022 32.3702C1.05022 32.3605 1.05474 32.3512 1.05746 32.342L1.06653 32.3568L1.21872 31.9321C1.59115 30.8761 2.23383 29.8497 3.13029 28.8791C4.0176 27.9245 5.16235 27.0379 6.53125 26.2452C7.20685 25.8521 7.92106 25.4767 8.67111 25.1204C9.35239 24.797 10.1125 24.4652 10.9931 24.1071C11.7178 23.8104 12.516 23.5063 13.4237 23.1782C14.2156 22.8913 15.0545 22.5983 15.9106 22.3072L15.984 22.2823L15.9496 22.2541C16.0565 22.218 16.1634 22.1824 16.2703 22.1473L16.5176 22.0655L16.542 22.0859L16.6191 22.0628C17.1345 21.9043 17.9363 21.6298 18.3684 21.4801L18.9292 21.2832C18.9543 21.2845 18.9796 21.2831 19.0035 21.2791L19.0144 21.286L19.0832 21.262C19.1195 21.2518 19.1639 21.2379 19.2219 21.2199L20.6795 20.7555L20.6696 20.7477L21.5574 20.451C21.7975 20.3715 22.0367 20.2939 22.3075 20.207L23.5333 19.8373C24.3242 19.604 24.4021 19.5883 24.4483 19.5785C24.5469 19.5576 24.6415 19.5321 24.731 19.5023C24.7475 19.4985 24.7635 19.4942 24.779 19.4894L25.5309 19.2629L28.6873 18.3614L28.6574 18.3332L28.989 18.2408L29.0007 18.2376L29.2879 18.1567C29.3431 18.1427 29.3943 18.125 29.4401 18.104C29.9538 17.9705 30.6614 17.7806 31.5428 17.5458L31.8654 17.4589L34.5551 16.7658L34.903 16.6711C35.1377 16.6101 35.3814 16.5468 35.6278 16.4885L38.6954 15.7358L39.6013 15.526C40.5517 15.3051 41.5727 15.0685 41.9432 14.9867C42.9216 14.7594 43.901 14.5413 44.9881 14.2996L45.3858 14.2118C45.4764 14.1929 45.5616 14.1744 45.6495 14.1564L48.4924 13.569L48.4706 13.5413L48.8475 13.4614L49.3584 13.3616C49.4041 13.3632 49.45 13.361 49.4943 13.3551L49.5985 13.4683V13.3417C49.8558 13.3038 50.3613 13.2082 51.4729 12.9961C51.5889 12.9743 51.7076 12.9498 51.8281 12.9281H51.838C52.0509 12.887 52.272 12.8445 52.494 12.8043L53.5449 12.6194C54.2551 12.4942 54.7833 12.4041 55.1611 12.3422L55.3051 12.3191L55.3957 12.3052L55.3867 12.2914L55.576 12.2553C55.7862 12.2146 56.0634 12.1666 56.3569 12.1167L57.5075 11.9175C58.1707 11.8025 58.9099 11.6745 59.2814 11.6061L59.3584 11.5922C59.447 11.5804 59.531 11.5609 59.6066 11.5344L59.7624 11.5118L59.8114 11.5044C59.9019 11.5169 60.0469 11.4956 60.5506 11.4208L62.2284 11.1472L62.5202 11.101C62.7014 11.0719 62.8979 11.0395 63.0954 11.0109L63.9878 10.8787L64.7479 10.7674L64.7787 10.7628C65.7291 10.6241 66.712 10.4781 67.7222 10.3469L69.6799 10.0853C69.9816 10.0433 70.3032 10.0045 70.5859 9.9698L73.7087 9.58443L75.6918 9.35753L75.8477 9.39727L75.9718 9.31225L75.9836 9.29237L76.1031 9.27714L76.8506 9.20273C77.0852 9.17916 77.3271 9.15652 77.5708 9.13434L79.0529 9.00264C79.4516 8.96012 79.6943 8.92871 79.929 8.89821L79.9444 8.89591C80.035 8.88436 80.1256 8.8728 80.2162 8.86078C80.4336 8.83398 80.6411 8.81041 80.8875 8.78499C81.1792 8.75727 81.5497 8.72631 82.0535 8.6875L82.144 8.68057L82.1377 8.65977C87.9023 8.14222 93.5219 7.75684 98.8444 7.51424C99.1887 7.49576 99.5275 7.48282 99.9035 7.46803L100.969 7.42737L101.679 7.40057H101.707C102.172 7.38301 102.636 7.36499 103.098 7.34928L105.233 7.29244L105.739 7.27949H105.792C106.306 7.26563 106.839 7.25132 107.363 7.24624L109.496 7.2162L109.827 7.21158H109.864C110.091 7.20834 110.326 7.20464 110.558 7.20418L113.748 7.20003C114.009 7.20003 114.276 7.20003 114.534 7.20465L115.855 7.2199L115.951 7.22451V7.19818L116.418 7.20048L118.147 7.2111V7.19818L118.328 7.20233L118.745 7.21203L121.11 7.26611H121.121C121.566 7.2578 122.967 7.29522 124.17 7.32988L124.166 7.36961L125.101 7.40057C125.282 7.40704 125.463 7.41535 125.644 7.42367L125.948 7.43707L126.038 7.44077L126.048 7.38486C126.389 7.3941 126.582 7.39873 126.67 7.39919H126.761L126.777 7.19402L125.796 7.15982C125.746 7.14332 125.689 7.13261 125.63 7.12841C125.58 7.12379 125.438 7.11131 125.217 7.09791L124.297 7.0517L123.799 7.02627L124.222 6.97453L122.71 6.95003C121.532 6.93108 120.027 6.8992 118.481 6.86038L117.847 6.84513L115.885 6.8262H115.838C115.107 6.82204 114.352 6.81788 113.597 6.83035C113.54 6.81787 113.478 6.81203 113.416 6.81325H113.403C112.929 6.82573 112.413 6.83406 111.78 6.8396L110.506 6.84745C110.364 6.84745 110.204 6.84745 110.018 6.85253L109.606 6.85761V6.85206H109.516C106.55 6.89457 104.429 6.95327 102.338 7.01426L99.6045 7.10991C99.3753 7.11776 99.138 7.1261 98.8979 7.13811L96.5433 7.24438C95.9354 7.27211 95.3067 7.30075 94.6272 7.34281L94.5411 7.3479V7.36823C93.8807 7.40474 93.5446 7.42137 93.213 7.43755L92.751 7.46065C92.6259 7.46641 92.5027 7.47989 92.3841 7.50084C91.3685 7.56183 90.352 7.62976 89.4451 7.69723L88.2638 7.77949L86.1321 7.9463C85.6383 7.98465 85.2261 8.01515 84.8963 8.03872L84.4434 8.06875C84.312 8.07799 84.2132 8.08446 84.1245 8.08908C83.4106 8.1547 83.2276 8.17133 83.1487 8.20368L82.6351 8.24989L82.0643 8.28824L81.5208 8.35571L81.1402 8.38991C81.066 8.3571 80.9382 8.37051 80.6773 8.39731C79.736 8.48557 78.4124 8.62328 77.3715 8.73326C77.1667 8.75405 76.9692 8.77715 76.7763 8.79979L76.5606 8.82475L76.2689 8.85893L76.3323 8.76651C76.3722 8.70644 76.4112 8.64961 76.4528 8.59508L76.5144 8.52669H76.5081C76.5383 8.48942 76.5685 8.45245 76.5987 8.41579C76.7029 8.40932 76.7518 8.3594 76.8243 8.28454C76.846 8.26236 76.8696 8.23834 76.894 8.21385L76.9031 8.20415L76.9285 8.21015L76.9656 8.16812C77.3826 7.69059 77.8605 7.22751 78.3961 6.78184V6.78184L78.4867 6.70513C78.561 6.64413 78.6416 6.58313 78.7232 6.52029C78.7721 6.48332 78.821 6.44636 78.8663 6.41032L78.9569 6.34238C78.9995 6.31003 79.0411 6.27723 79.0837 6.24581L79.3628 6.04525L79.322 6.03047L79.3501 6.01199L79.5313 5.89231L80.1075 5.53509L80.6447 5.23428C80.7271 5.18807 80.8059 5.14603 80.873 5.10998L80.8793 5.10676C80.9699 5.06055 81.0343 5.02358 81.066 5.00279L81.1176 4.96858L81.0986 4.9598C81.518 4.72876 81.9556 4.50834 82.3995 4.29855L82.5409 4.23201C82.6541 4.18072 82.7646 4.13359 82.8715 4.08738L83.2339 3.93025C83.2828 3.90992 83.3327 3.88961 83.3843 3.86974L83.9759 3.63591L84.6101 3.40487C85.2116 3.17382 85.5378 3.05782 85.7135 2.99451C85.7878 2.96929 85.8594 2.94216 85.9282 2.9132L85.9599 2.90257L85.998 2.92797L86.0695 2.90302C86.5742 2.72558 87.0516 2.56802 87.5281 2.42107L87.6051 2.39749L87.5752 2.37161L87.6305 2.35498L87.6024 2.32958C87.7311 2.29538 87.8878 2.25424 88.1025 2.19925L88.1822 2.17892L88.1677 2.16367L88.2411 2.14197C88.3317 2.11609 88.4305 2.08606 88.5455 2.05602L88.8064 1.98624L88.0454 2.29215L90.1663 1.76997L90.7225 1.64337L90.5676 1.45853C90.5645 1.45017 90.56 1.44196 90.554 1.43403C90.5341 1.4063 90.4634 1.3444 90.2523 1.37536L90.2333 1.37904C89.7677 1.48116 89.2558 1.60363 88.6705 1.75381C88.5648 1.76486 88.4633 1.78451 88.3698 1.81203L88.3317 1.82405C88.3154 1.83006 88.2185 1.85871 88.1342 1.88366L87.9684 1.93263C87.8869 1.95665 87.7936 1.983 87.6912 2.01212C87.5191 2.0611 87.3234 2.11608 87.1141 2.18077C86.4799 2.36561 85.6564 2.62577 84.7912 2.92012C84.6101 2.98713 84.4606 3.04443 84.3455 3.08926C84.2549 3.12576 84.1761 3.16042 84.1036 3.196C83.9985 3.24914 83.9686 3.2995 84.013 3.34571C83.6833 3.47278 83.3589 3.60402 83.0464 3.73664L83.0418 3.73386C82.9078 3.65715 82.7701 3.71723 82.6523 3.76622C82.5798 3.79671 82.4711 3.84478 82.308 3.91502L81.9982 4.05872C81.894 4.10817 81.7907 4.15762 81.6956 4.20475L80.699 4.69595L81.3233 4.53144L81.2562 4.56655L81.1538 4.61831L81.0877 4.65204C80.989 4.64511 80.8884 4.69825 80.6556 4.81378C80.3412 4.98198 80.1183 5.11553 79.9562 5.21303L79.9281 5.23013L79.8375 5.28372C79.7415 5.34102 79.6699 5.38586 79.6128 5.42467L79.3863 5.57763C79.2541 5.67004 79.129 5.75275 78.7984 5.98796L78.7467 6.02492L78.7884 6.04064C78.7304 6.08085 78.6733 6.12058 78.6172 6.16032C77.9914 6.59946 77.4312 7.06192 76.9411 7.54382L76.8442 7.51794L76.8025 7.5586C76.7817 7.57847 76.76 7.59788 76.7373 7.61821C76.6965 7.6561 76.6531 7.69539 76.6159 7.73513L76.2707 8.09C76.2327 8.12928 76.1983 8.16949 76.1602 8.21293L76.1086 8.27254L75.5034 8.94997L75.132 8.99248L74.8729 9.02066L74.8774 9.03269L73.6326 9.17547C73.3862 9.20412 73.1361 9.23554 72.887 9.26789L72.4721 9.3201L70.1229 9.61398C69.9481 9.63524 69.7605 9.66021 69.5259 9.6921L67.7566 9.9333C66.568 10.0895 65.3866 10.2655 64.2369 10.4374C63.8576 10.4941 63.4814 10.5502 63.1081 10.6057C62.7648 10.6551 62.4287 10.7096 62.1043 10.7623L59.5677 11.1735C59.3076 11.2156 59.0395 11.2595 58.7813 11.3066L58.6988 11.3214L58.7061 11.333C57.3843 11.564 56.6378 11.6897 55.9774 11.8015L55.4256 11.894L53.9136 12.1638L52.1524 12.4845C51.9948 12.5145 51.8308 12.5469 51.6587 12.5806L51.6152 12.5894V12.5866L51.5309 12.6042C51.087 12.6966 50.5742 12.8001 50.0071 12.9129L48.6853 13.1735L48.5277 13.2049C48.4407 13.2139 48.3557 13.2274 48.274 13.2451L47.8654 13.3237L47.6571 13.3639L47.6435 13.3472L45.3333 13.8385C44.9709 13.9165 44.758 13.9674 44.5995 14.0048L44.4817 14.0325L44.2099 14.0981C43.9481 14.1619 43.5884 14.2497 42.5638 14.49L41.8843 14.6203L41.8716 14.6231C41.6497 14.6776 41.4757 14.721 41.3127 14.7617C40.8488 14.8772 40.481 14.9692 39.363 15.2326L39.3277 15.1933L38.4082 15.3994C38.2143 15.4456 38.0268 15.4918 37.8419 15.5343L36.2294 15.9276L34.9945 16.2339L33.9183 16.5186C33.1826 16.7131 32.6209 16.8615 32.0801 17.0001L31.2647 17.2112C30.9929 17.2819 30.7356 17.3462 30.4802 17.4081L30.4675 17.4113C30.0625 17.5329 29.9239 17.5731 29.9384 17.6308C29.6204 17.7154 29.3124 17.7939 28.9844 17.8776C28.0921 18.1059 26.9832 18.3891 24.9982 18.9672L24.9901 18.9603L24.9122 18.9829C24.3142 19.1567 23.7444 19.3313 23.141 19.5166L21.9044 19.8937C21.513 20.0166 21.1425 20.1312 20.7647 20.2458C20.608 20.3013 20.4268 20.3632 20.2112 20.4339L20.1967 20.4214L20.1197 20.4445C19.7065 20.5688 18.7888 20.8567 18.0894 21.0998C17.9508 21.146 17.727 21.2236 17.5458 21.2818L17.5223 21.2657L17.4498 21.2929C17.1499 21.4061 16.8002 21.53 16.35 21.6825L15.0209 22.1288C14.5236 22.2984 13.9619 22.4907 13.3658 22.7074L13.5524 22.5942L11.735 23.3044L11.5847 23.3649L11.5584 23.3483L11.4479 23.3945C10.5809 23.7439 9.76278 24.0742 8.96826 24.4231C8.15209 24.775 7.37765 25.1514 6.64902 25.5502L6.58832 25.5839L6.65445 25.6153C6.46873 25.7165 6.29207 25.8094 6.12537 25.8995L5.6724 26.1537L5.60989 26.1883L5.5963 26.1962C5.54466 26.2244 5.49302 26.253 5.44138 26.284L4.93223 26.594C4.86247 26.6366 4.79634 26.6823 4.72477 26.7327L4.71843 26.7373L4.61787 26.8057L4.52727 26.8685L4.5155 26.8773C4.43668 26.9304 4.34789 26.9905 4.25367 27.0589L3.83603 27.3731C3.71282 27.472 3.58327 27.5801 3.44284 27.6966L3.36221 27.7636L3.11307 27.9896C3.05962 28.0385 3.00436 28.0889 2.9482 28.1421C2.91286 28.1758 2.87753 28.2095 2.8431 28.2446L2.80324 28.2862L2.82589 28.2918L2.62658 28.4826C2.58128 28.5247 2.54142 28.5667 2.49884 28.6106C2.478 28.6337 2.45626 28.6568 2.43361 28.679C2.39556 28.7192 2.35751 28.7576 2.32127 28.7941L2.31583 28.8001C2.24426 28.8735 2.18175 28.9387 2.12921 28.9983C1.88732 29.3121 1.72968 29.5172 1.63275 29.6452C1.58383 29.709 1.55121 29.7529 1.53037 29.7811C1.49563 29.8153 1.48416 29.8545 1.49776 29.8925C1.47602 29.9234 1.45518 29.9539 1.43434 29.9849C1.34375 30.1041 1.28667 30.2159 1.22054 30.3351L1.18792 30.3929C1.03934 30.6623 0.900733 30.9673 0.741285 31.3397H0.69508L0.610827 31.544C0.570965 31.6396 0.533825 31.7288 0.502117 31.8115L0.396116 32.1216C0.350819 32.2574 0.32364 32.3665 0.305521 32.4543V32.4626C0.299179 32.4913 0.291934 32.5176 0.285592 32.5426C0.25932 32.641 0.251165 32.7103 0.244823 32.7611V32.7713C0.239388 32.824 0.237578 32.8591 0.235766 32.8928V32.9002C0.235766 32.9284 0.235765 32.9561 0.229424 32.9926L0.199526 33.2292H0.137015L0.129765 33.2754C0.0899033 33.5287 0.0663487 33.7985 0.0563832 34.122H0.00927734V34.3868L0.0174278 34.5873C0.0174278 34.719 0.0264865 34.8373 0.0391699 34.951C0.0391699 34.9972 0.0473248 35.0406 0.0518546 35.0859C0.0518546 35.1497 0.0618203 35.2116 0.0690679 35.2707L0.114366 35.6025C0.175065 35.9824 0.237574 36.3751 0.41333 36.9509L0.426921 36.9971L0.474027 36.9939C0.482181 37.0133 0.491246 37.035 0.502117 37.059C0.526578 37.1159 0.554657 37.1857 0.587271 37.2684C0.608108 37.3197 0.630758 37.376 0.656125 37.4366L0.572779 37.4472L0.58637 37.4897C0.743658 37.9297 0.945349 38.3653 1.19064 38.7947C1.41169 39.1948 1.67533 39.5705 1.84927 39.8191L1.93987 39.9416L1.96704 39.937C1.98698 39.9628 2.00781 39.9887 2.02865 40.0146V40.0192C2.0522 40.0488 2.07576 40.0783 2.09931 40.1116C2.12287 40.1449 2.14552 40.1698 2.16998 40.2013C2.21165 40.2549 2.25513 40.3103 2.30315 40.3644L2.95635 41.1083L2.97899 41.1319L2.94638 41.1407L3.25169 41.4494L3.19008 41.4651L3.45734 41.7373C3.47727 41.7567 3.49629 41.7765 3.51532 41.7964C3.57149 41.8537 3.62947 41.9133 3.69651 41.9697L4.44211 42.6481L5.23573 43.2987C5.25204 43.3144 5.28103 43.3412 5.32633 43.3786L5.82097 43.7769C5.86627 43.8134 5.95324 43.8832 6.01847 43.9368L6.00669 43.9405L6.05381 43.9789C6.17702 44.0787 6.31563 44.1753 6.4633 44.2783L7.14729 44.7515C7.285 44.8439 7.43177 44.9363 7.574 45.0241L7.58396 45.0306C7.65372 45.0745 7.72439 45.1184 7.79505 45.1637L8.19276 45.4132C8.22991 45.4372 8.26887 45.4594 8.30873 45.4848L9.40222 46.1207L10.3806 46.6549L10.4531 46.6951C10.4939 46.7177 10.5347 46.7413 10.5772 46.762L10.6932 46.8221L10.657 46.8415L10.7195 46.8739C11.3437 47.1973 11.4968 47.2741 11.601 47.2949L11.7033 47.3411L11.8954 47.4335L11.9054 47.4381L12.3701 47.6567C14.3569 48.6123 16.2503 49.445 19.0307 50.4015L19.4049 50.5443C19.5172 50.5877 19.6513 50.639 19.7881 50.6871L20.5645 50.9643C21.1688 51.1639 21.3191 51.2143 21.4143 51.1857L21.561 51.2319L21.6072 51.2462C21.7558 51.2924 21.9243 51.3437 22.1137 51.4028L22.5204 51.529C22.513 51.548 22.5151 51.5677 22.5265 51.5862C22.5379 51.6046 22.5583 51.6214 22.5857 51.6348L22.6201 51.6501L22.6301 51.6538C22.8656 51.7277 23.112 51.7989 23.3729 51.8746L23.3902 51.8797C23.5016 51.9121 23.6139 51.9444 23.7263 51.9777L23.9392 52.0396C24.2354 52.126 24.5425 52.2157 24.8324 52.2942L24.9113 52.3155L24.9547 52.2748L25.1622 52.3293C25.3099 52.3677 25.4621 52.4079 25.6206 52.4499C25.945 52.5368 26.2811 52.626 26.6425 52.7143L26.7331 52.7369C26.7223 52.797 26.8418 52.8293 27.0194 52.8806C27.1399 52.9144 27.3265 52.9661 27.5829 53.0363L27.6182 53.0474H27.6545C27.7306 53.0553 28.3004 53.1861 28.8522 53.3141C29.5706 53.4795 30.5535 53.7064 31.5428 53.9176L32.9579 54.2114C33.3982 54.2974 33.8222 54.3769 34.1629 54.4425L34.7363 54.5483C34.8677 54.5719 34.9882 54.5908 35.0942 54.6079L35.1567 54.6181C35.302 54.6441 35.451 54.6643 35.6024 54.6786L35.9965 54.753L35.9893 54.7632L36.5202 54.8634C36.6243 54.8824 36.7231 54.899 36.8173 54.9147L36.9079 54.9305C37.1344 54.9683 37.3373 55.0012 37.5285 55.0312C37.8809 55.0862 38.15 55.1236 38.4571 55.1657L38.4788 55.1684C38.7597 55.2035 39.0768 55.2438 39.5198 55.3048L40.1068 55.3875L40.0942 55.4032L40.4937 55.4924L40.9901 55.5621L41.0209 55.5122L41.415 55.5668C41.5002 55.5792 41.5826 55.5912 41.6642 55.6023L41.6515 55.6268L41.7421 55.6384C41.7928 55.6458 41.8445 55.6522 41.897 55.6592L43.9608 55.9018L45.0207 56.0127V56.0219L45.1113 56.0316C45.4665 56.0709 45.6821 56.0935 45.7663 56.1C46.7185 56.198 47.715 56.2904 48.8113 56.3823C48.8797 56.3971 48.9521 56.4066 49.026 56.4105L49.1945 56.4156C49.3757 56.4299 49.6302 56.4447 49.9192 56.4618L50.4628 56.4946L50.7581 56.5127L51.1613 56.5376L51.155 56.558L51.2456 56.5663C51.7891 56.618 52.1787 56.6467 52.522 56.6702C52.9044 56.6952 53.2051 56.7137 53.5911 56.7271H53.6336C54.0078 56.7423 54.4726 56.7608 55.1203 56.7913L55.5271 56.8075V56.8223L55.6177 56.8278C55.9438 56.8486 56.3098 56.8685 56.7347 56.8893L57.0409 56.9036L58.2794 56.9424C58.6608 56.9544 59.054 56.9664 59.4825 56.9724L60.4455 56.9923H60.4546C60.6938 56.9979 60.942 57.0029 61.1993 57.0052H61.2899V56.9309H61.722C61.8198 56.9397 61.9189 56.9442 62.0183 56.9443V56.9789L62.7784 56.9909L63.4578 56.9937L63.6834 56.9794V56.9433L63.9289 56.9406L63.7731 56.9868L64.6437 56.9655C66.0081 56.9318 66.2572 56.9193 66.7528 56.8953H66.77C66.9222 56.8874 67.0989 56.8791 67.3317 56.8685L68.514 56.8269C68.8165 56.8172 69.0711 56.8098 69.2913 56.8052C69.6056 56.7987 69.8104 56.7982 69.9907 56.7982H70.1719C70.5705 56.7784 70.8341 56.7645 70.999 56.7553C71.2155 56.7433 71.3378 56.7363 71.3858 56.6938L72.2157 56.6508L73.5873 56.5653C74.0203 56.5399 74.4507 56.5057 74.8729 56.4729L74.9182 56.4692C75.0604 56.4581 75.2026 56.4466 75.3458 56.436C75.8404 56.399 76.3369 56.3532 76.8632 56.3043L77.193 56.2737C77.6804 56.2312 78.1896 56.1776 78.7331 56.1203L78.802 56.1134L79.3138 56.0603L79.389 56.0529C79.4798 56.0675 79.5773 56.0675 79.6681 56.0529L81.2589 55.856L81.3803 55.8431L81.3867 55.8551L81.4718 55.8445H81.48L81.5851 55.8727L81.5633 55.8338C81.8012 55.8079 82.0357 55.7744 82.2654 55.7336L82.3089 55.7257C82.3633 55.7155 82.4403 55.7026 82.6369 55.6763L83.137 55.6107C83.2865 55.5922 83.4713 55.5686 83.6905 55.5381L83.7041 55.5358C83.8762 55.503 84.4452 55.4314 84.6318 55.4082C85.0802 55.3542 85.622 55.2821 86.2489 55.1989L86.3794 55.1814C86.9891 55.1037 87.6532 55.0053 88.2955 54.9101L88.5011 54.8796C88.8255 54.8334 89.1435 54.7798 89.4515 54.7285L89.572 54.7082C89.8356 54.6643 90.0847 54.6218 90.3139 54.582C90.3616 54.59 90.4128 54.5912 90.4616 54.5853L90.4825 54.582C91.0532 54.4818 91.5252 54.3972 91.9039 54.3274L91.9256 54.3233L92.4692 54.2253L93.6361 54.0016C93.9514 53.9411 94.2784 53.8783 94.687 53.7928L95.3755 53.6504L95.612 53.6015C95.8131 53.5599 96.0414 53.5132 96.2824 53.4596L97.4855 53.223C97.7473 53.1722 98.0091 53.1177 98.2628 53.065C98.376 53.041 98.4893 53.0188 98.6034 52.9943L98.6795 52.9786H98.6868L98.771 52.9615L99.3518 52.8427C99.5402 52.8039 99.7413 52.7595 99.975 52.7078L100.004 52.7013L100.286 52.6394L100.369 52.6214L100.361 52.6117L100.474 52.5872L100.462 52.5719L100.819 52.4883C100.853 52.4871 100.886 52.4834 100.918 52.4772C100.982 52.4647 101.094 52.4389 101.252 52.4L101.846 52.2485L102.562 52.1149L102.747 52.0567C103.363 51.9111 103.986 51.7596 104.593 51.6117L105.816 51.3044C106.098 51.2333 106.42 51.1524 106.735 51.0683L106.801 51.0498C107.482 50.8576 108.125 50.6764 108.781 50.4796L109.143 50.3714C109.364 50.3068 109.586 50.2411 109.81 50.1732L110.23 50.0452L110.269 50.0803L110.344 50.042L110.475 50.0041C110.649 49.9547 110.781 49.9172 110.882 49.8895L110.9 49.9057L110.978 49.8826C111.25 49.8026 111.521 49.7195 111.78 49.639L112.978 49.2694L114.054 48.9256L114.062 48.9228C114.334 48.8359 114.615 48.7463 114.89 48.6543C114.98 48.6409 115.123 48.5979 115.476 48.487L116.095 48.2916L116.904 48.0296L116.881 48.0092L116.967 47.9783C117.091 47.9321 117.263 47.8743 117.463 47.8059C117.662 47.7375 117.9 47.6562 118.156 47.5656C118.411 47.4751 118.689 47.3808 118.977 47.2801L118.996 47.2953L119.072 47.2708C119.605 47.098 120.031 46.9437 120.408 46.8087L120.434 46.7995C120.615 46.7339 120.797 46.6664 120.97 46.5994L121.463 46.4063C121.836 46.2593 122.148 46.1373 122.477 46.0116C122.59 45.9677 122.701 45.9252 122.812 45.8822L122.827 45.8919L122.898 45.8651C123.292 45.7149 123.886 45.4844 124.461 45.2612L125.392 44.9008L125.412 44.9132L126.715 44.3929C127.014 44.2737 127.318 44.1485 127.643 44.014L127.666 44.0047C127.816 43.9424 127.968 43.8795 128.124 43.8158C129.088 43.4151 130.095 42.984 131.038 42.5658C132.54 41.9045 133.613 41.3828 133.988 41.198L134.045 41.2262L134.109 41.1943C134.562 40.9633 135.024 40.7211 135.528 40.4513L135.619 40.4919L135.681 40.4586C135.983 40.2941 136.249 40.1541 136.485 40.0308L136.798 39.8653L137.769 39.3616L137.928 39.2776C138.54 38.9541 139.3 38.5539 140.465 37.8423L140.522 37.8076L140.463 37.7818L140.916 37.523C141.047 37.4472 141.161 37.382 141.274 37.3123L141.817 36.9823C141.889 36.9389 141.965 36.8899 142.05 36.8372L142.06 36.8308C142.113 36.797 142.17 36.7615 142.232 36.7226L142.394 36.6205L142.4 36.6168C142.497 36.5558 142.602 36.4897 142.713 36.4167C142.738 36.4015 142.764 36.3839 142.795 36.364L142.864 36.3285L142.79 36.2998C142.916 36.2014 143.096 36.0688 143.334 35.895L143.425 35.926L143.475 35.8881C144.019 35.4801 144.563 35.0443 145.129 34.5568C145.227 34.524 145.369 34.4311 145.816 34.085L145.862 34.0453H145.856L145.947 33.9649L145.962 33.9515C146.11 33.8207 146.333 33.6225 146.577 33.397L146.923 33.0707C147 32.9977 147.072 32.9247 147.143 32.8535L147.154 32.842L147.251 32.7436L147.355 32.6387C147.416 32.5772 147.48 32.513 147.536 32.4538L147.769 32.1964L147.744 32.1904C147.862 32.0587 147.973 31.934 148.062 31.8175L148.101 31.7686C148.203 31.6415 148.299 31.5213 148.386 31.4049L148.591 31.1091C148.714 31.1091 148.766 31.0546 148.889 30.9271L149.003 30.7709C149.168 30.5398 149.268 30.4012 149.322 30.3065C149.361 30.2448 149.394 30.1822 149.421 30.1189C149.44 30.072 149.464 30.0257 149.493 29.9802L149.815 29.4308C149.832 29.3943 149.862 29.3333 149.799 29.2922C149.817 29.2686 149.836 29.24 149.857 29.2067C149.909 29.1189 150.001 28.9553 150.139 28.6725L150.306 28.1065C150.322 28.033 150.341 27.9544 150.36 27.8713C150.374 27.8093 150.39 27.7451 150.405 27.6781L150.523 27.6869L150.651 27.2863L150.715 27.2895L150.748 27.1509C150.765 27.0871 150.784 27.0122 150.799 26.9351C150.978 26.1304 151.037 25.3201 150.978 24.5109V24.5109ZM75.6474 8.9227C75.6474 8.92639 75.6429 8.93009 75.6411 8.93332H75.6284L75.6474 8.9227Z" fill="#D96E34"/>
<path d="M129.031 7.30335L128.941 7.30012C128.607 7.28857 127.824 7.26084 127.538 7.24328L127.452 7.23773L127.384 7.4383L127.862 7.49328L129.011 7.50899L129.031 7.30335Z" fill="#D96E34"/>
</g>
<defs>
<clipPath id="clip0_2074_20639">
<rect width="151" height="57" fill="white"/>
</clipPath>
</defs>
</svg>
