<svg width="33" height="33" viewBox="0 0 33 33" fill="none" xmlns="http://www.w3.org/2000/svg">
<path d="M9.62285 0C4.31711 0 0 4.31966 0 9.62672V23.3759C0 28.6823 4.31966 33 9.62672 33H23.3759C28.6823 33 33 28.6803 33 23.3733V9.62285C33 4.31711 28.6803 0 23.3733 0H9.62285ZM26.4 5.28C27.1286 5.28 27.72 5.87136 27.72 6.6C27.72 7.32864 27.1286 7.92 26.4 7.92C25.6714 7.92 25.08 7.32864 25.08 6.6C25.08 5.87136 25.6714 5.28 26.4 5.28ZM16.5 7.92C21.2322 7.92 25.08 11.7678 25.08 16.5C25.08 21.2322 21.2315 25.08 16.5 25.08C11.7678 25.08 7.92 21.2315 7.92 16.5C7.92 11.7685 11.7678 7.92 16.5 7.92ZM16.5 10.56C13.2191 10.56 10.56 13.2191 10.56 16.5C10.56 19.7809 13.2191 22.44 16.5 22.44C19.7809 22.44 22.44 19.7809 22.44 16.5C22.44 13.2191 19.7809 10.56 16.5 10.56Z" fill="#D96E34"/>
</svg>
