<svg width="24" height="25" viewBox="0 0 24 25" fill="none" xmlns="http://www.w3.org/2000/svg">
<path d="M2.34 8.33437C2.34 5.3056 4.80436 2.84 7.83203 2.84H16.1656C19.1944 2.84 21.66 5.30436 21.66 8.33203V16.6656C21.66 19.6943 19.1953 22.16 16.1672 22.16H7.83437C4.80565 22.16 2.34 19.6953 2.34 16.6672V8.33437ZM19.14 6.5C19.14 5.87062 18.6294 5.36 18 5.36C17.3706 5.36 16.86 5.87062 16.86 6.5C16.86 7.12938 17.3706 7.64 18 7.64C18.6294 7.64 19.14 7.12938 19.14 6.5ZM17.54 12.5C17.54 9.44422 15.0558 6.96 12 6.96C8.94421 6.96 6.46 9.44464 6.46 12.5C6.46 15.5554 8.94421 18.04 12 18.04C15.0554 18.04 17.54 15.5558 17.54 12.5ZM8.74 12.5C8.74 10.6994 10.1994 9.24 12 9.24C13.8006 9.24 15.26 10.6994 15.26 12.5C15.26 14.3006 13.8006 15.76 12 15.76C10.1994 15.76 8.74 14.3006 8.74 12.5Z" fill="#2F2F2F" stroke="#2F2F2F" stroke-width="0.68"/>
</svg>
