<svg width="28" height="33" viewBox="0 0 28 33" fill="none" xmlns="http://www.w3.org/2000/svg">
<path d="M28 13.2403C27.7353 13.2648 27.4671 13.2811 27.1954 13.2811C24.1369 13.2811 21.4492 11.7082 19.8856 9.33061C19.8856 15.5677 19.8856 22.6642 19.8856 22.7832C19.8856 28.274 15.4336 32.7259 9.94278 32.7259C4.45192 32.7259 0 28.274 0 22.7832C0 17.2923 4.45192 12.8404 9.94278 12.8404C10.1503 12.8404 10.3532 12.859 10.5573 12.8719V17.7715C10.3532 17.7471 10.1527 17.7097 9.94278 17.7097C7.13963 17.7097 4.8682 19.9812 4.8682 22.7843C4.8682 25.5875 7.13963 27.8589 9.94278 27.8589C12.7459 27.8589 15.2214 25.6504 15.2214 22.8473C15.2214 22.7365 15.2704 0 15.2704 0H19.9532C20.394 4.18723 23.7743 7.49177 28 7.79494V13.2403Z" fill="#D96E34"/>
</svg>
