<svg width="24" height="24" viewBox="0 0 24 24" fill="none" xmlns="http://www.w3.org/2000/svg">
<path d="M20 10.1871C19.8487 10.2013 19.6955 10.2108 19.5402 10.2108C17.7925 10.2108 16.2567 9.29751 15.3632 7.91716C15.3632 11.5383 15.3632 15.6584 15.3632 15.7274C15.3632 18.9153 12.8192 21.5 9.68159 21.5C6.54396 21.5 4 18.9153 4 15.7274C4 12.5395 6.54396 9.95486 9.68159 9.95486C9.80019 9.95486 9.91613 9.96569 10.0327 9.97313V12.8178C9.91613 12.8036 9.80152 12.7819 9.68159 12.7819C8.07979 12.7819 6.78183 14.1007 6.78183 15.7281C6.78183 17.3556 8.07979 18.6743 9.68159 18.6743C11.2834 18.6743 12.698 17.3921 12.698 15.7647C12.698 15.7003 12.7259 2.5 12.7259 2.5H15.4018C15.6537 4.93102 17.5853 6.84957 20 7.02558V10.1871Z" fill="#2F2F2F"/>
</svg>
