<svg width="24" height="24" viewBox="0 0 24 24" fill="none" xmlns="http://www.w3.org/2000/svg">
<path d="M7.89267 16.0451C6.75273 16.0241 5.74292 15.469 5.10604 14.6214C5.41117 14.5951 5.70908 14.5418 5.99675 14.4636L5.94676 13.0044C4.68225 12.7521 3.66217 11.832 3.26879 10.6315C3.59232 10.7079 3.92774 10.7533 4.27139 10.7643L6.90141 10.8482L4.71083 9.39035C3.75515 8.75433 3.12951 7.67022 3.12951 6.44316C3.12951 6.18104 3.15791 5.92605 3.21175 5.68082C5.42518 7.91416 8.44653 9.35071 11.8047 9.51824L12.7975 9.56777L12.5726 8.59954C12.5128 8.34176 12.4806 8.0704 12.4806 7.79164C12.4806 5.83895 14.0709 4.24997 16.0387 4.24997C17.0633 4.24997 17.9875 4.68039 18.637 5.36993L18.9211 5.67154L19.3276 5.5916C19.4505 5.56744 19.5725 5.54091 19.6936 5.51207C19.6762 5.52287 19.6587 5.53354 19.6411 5.54405L20.114 6.93281C20.1351 6.93031 20.1561 6.92773 20.1771 6.92509C20.0899 6.99351 20.0013 7.06011 19.9113 7.12485L19.5822 7.36155L19.5999 7.76655C19.6075 7.93977 19.6113 8.11387 19.6113 8.28887C19.6113 13.6351 15.5311 19.75 8.10425 19.75C6.84624 19.75 5.63693 19.548 4.50516 19.1756C5.92911 18.8729 7.23446 18.2499 8.34058 17.3859L10.0075 16.0839L7.89267 16.0451Z" fill="#2F2F2F" stroke="#2F2F2F" stroke-width="1.49994"/>
</svg>
