<svg width="39" height="32" viewBox="0 0 39 32" fill="none" xmlns="http://www.w3.org/2000/svg">
<path d="M39 3.75136C37.5646 4.38883 36.0226 4.81781 34.4042 5.01131C36.0571 4.02135 37.3246 2.45391 37.9215 0.584978C36.3766 1.50144 34.6637 2.16742 32.8397 2.5274C31.3803 0.971963 29.3014 0 27.0005 0C22.5816 0 18.9998 3.58336 18.9998 8.00069C18.9998 8.62767 19.0718 9.23964 19.2068 9.82312C12.5575 9.49013 6.66274 6.30426 2.7149 1.46244C2.02792 2.6444 1.63344 4.01835 1.63344 5.48679C1.63344 8.26168 3.04488 10.7111 5.1913 12.145C3.88035 12.103 2.6459 11.743 1.56744 11.1446C1.56744 11.1791 1.56744 11.2106 1.56744 11.2451C1.56744 15.1224 4.32433 18.3563 7.98569 19.0898C7.31522 19.2728 6.60725 19.3703 5.87677 19.3703C5.36229 19.3703 4.85981 19.3193 4.37233 19.2278C5.39079 22.4061 8.34568 24.7205 11.8465 24.785C9.10915 26.9315 5.65928 28.2109 1.90943 28.2109C1.26445 28.2109 0.626976 28.1734 0 28.0984C3.54136 30.3678 7.7457 31.6923 12.265 31.6923C26.9825 31.6923 35.0282 19.5007 35.0282 8.92766C35.0282 8.58117 35.0207 8.23618 35.0057 7.8927C36.5701 6.76324 37.9275 5.35479 39 3.75136Z" fill="#D96E34"/>
</svg>
