<svg width="17" height="17" viewBox="0 0 17 17" fill="none" xmlns="http://www.w3.org/2000/svg">
<g clip-path="url(#clip0_10403_34141)">
<path d="M1 8.33333C1 10.2783 1.77262 12.1435 3.14788 13.5188C4.52315 14.894 6.38841 15.6667 8.33333 15.6667C10.2783 15.6667 12.1435 14.894 13.5188 13.5188C14.894 12.1435 15.6667 10.2783 15.6667 8.33333C15.6667 6.38841 14.894 4.52315 13.5188 3.14788C12.1435 1.77262 10.2783 1 8.33333 1C6.38841 1 4.52315 1.77262 3.14788 3.14788C1.77262 4.52315 1 6.38841 1 8.33333Z" stroke="#D96E34" stroke-linejoin="round"/>
<path d="M4.16602 8.33268H12.4993M8.33268 4.16602V12.4993" stroke="#D96E34" stroke-linejoin="round"/>
</g>
<defs>
<clipPath id="clip0_10403_34141">
<rect width="16.6667" height="16.6667" fill="white"/>
</clipPath>
</defs>
</svg>
