<svg width="16" height="16" viewBox="0 0 16 16" fill="none" xmlns="http://www.w3.org/2000/svg">
    <path fill-rule="evenodd" clip-rule="evenodd"
        d="M7.78512 2.70974C7.62958 2.79858 7.5755 2.99668 7.66433 3.15222C8.56025 4.72089 9.77703 5.99096 10.7632 6.8658C11.2574 7.30419 11.6964 7.64569 12.0127 7.87814C12.0614 7.9139 12.1071 7.9471 12.1498 7.97768C12.1042 8.01339 12.0549 8.05237 12.0022 8.0945C11.6878 8.34586 11.2509 8.71 10.7589 9.16268C9.77747 10.0655 8.56473 11.3314 7.67072 12.7658C7.57598 12.9178 7.6224 13.1178 7.77441 13.2126C7.92642 13.3073 8.12645 13.2609 8.2212 13.1089C9.07153 11.7446 10.2372 10.524 11.198 9.64004C11.6771 9.1993 12.1024 8.84493 12.4073 8.60114C12.5597 8.47929 12.6819 8.38518 12.7656 8.32185C12.8074 8.29018 12.8396 8.26622 12.8611 8.25034L12.8852 8.23262L12.891 8.2284L12.8923 8.22747C12.9795 8.16455 13.03 8.06236 13.0269 7.95493C13.0238 7.84751 12.9677 7.74862 12.877 7.69086L12.8758 7.69003L12.8703 7.68648L12.8467 7.67112C12.8256 7.65724 12.7939 7.6361 12.7525 7.60789C12.6696 7.55147 12.5483 7.46682 12.3969 7.35548C12.0938 7.13272 11.6706 6.80364 11.1937 6.38056C10.2376 5.53245 9.07601 4.31604 8.22759 2.83053C8.13876 2.67499 7.94065 2.62091 7.78512 2.70974Z"
        fill="#C66232" />
    <path fill-rule="evenodd" clip-rule="evenodd"
        d="M2 7.96397C2 8.14309 2.1452 8.2883 2.32432 8.2883L12.7027 8.2883C12.8818 8.2883 13.027 8.14309 13.027 7.96397C13.027 7.78485 12.8818 7.63965 12.7027 7.63965L2.32432 7.63965C2.1452 7.63965 2 7.78485 2 7.96397Z"
        fill="#C66232" />
</svg>