<svg width="24" height="24" viewBox="0 0 24 24" fill="none" xmlns="http://www.w3.org/2000/svg">
    <path fill-rule="evenodd" clip-rule="evenodd"
        d="M11.6774 4.06413C11.4441 4.19738 11.363 4.49453 11.4963 4.72784C12.8401 7.08085 14.6653 8.98595 16.1446 10.2982C16.8859 10.9558 17.5444 11.468 18.0188 11.8167C18.0918 11.8704 18.1604 11.9202 18.2244 11.966C18.1561 12.0196 18.0822 12.0781 18.0031 12.1413C17.5315 12.5183 16.8762 13.0645 16.1381 13.7435C14.666 15.0978 12.8469 16.9967 11.5058 19.1482C11.3637 19.3762 11.4334 19.6762 11.6614 19.8183C11.8894 19.9605 12.1894 19.8908 12.3316 19.6628C13.607 17.6164 15.3555 15.7855 16.7968 14.4596C17.5155 13.7985 18.1533 13.2669 18.6107 12.9012C18.8393 12.7184 19.0226 12.5773 19.1482 12.4823C19.2109 12.4348 19.2592 12.3988 19.2915 12.375L19.3276 12.3484L19.3363 12.3421L19.3383 12.3407C19.469 12.2463 19.5448 12.0931 19.5401 11.9319C19.5354 11.7708 19.4512 11.6224 19.3153 11.5358L19.3134 11.5346L19.3051 11.5292L19.2699 11.5062C19.2382 11.4854 19.1906 11.4537 19.1285 11.4113C19.0042 11.3267 18.8222 11.1997 18.595 11.0327C18.1404 10.6986 17.5057 10.205 16.7903 9.57034C15.3562 8.29819 13.6138 6.47357 12.3411 4.2453C12.2079 4.01199 11.9107 3.93088 11.6774 4.06413Z"
        fill="#2F2F2F" />
    <path fill-rule="evenodd" clip-rule="evenodd"
        d="M3 11.9474C3 12.2161 3.21781 12.4339 3.48649 12.4339L19.0541 12.4339C19.3227 12.4339 19.5405 12.2161 19.5405 11.9474C19.5405 11.6787 19.3227 11.4609 19.0541 11.4609L3.48649 11.4609C3.21781 11.4609 3 11.6787 3 11.9474Z"
        fill="#2F2F2F" />
</svg>