<svg width="32" height="32" viewBox="0 0 32 32" fill="none" xmlns="http://www.w3.org/2000/svg">
<path fill-rule="evenodd" clip-rule="evenodd" d="M14.8631 8.06413C15.0964 8.19738 15.1775 8.49453 15.0443 8.72784C13.7004 11.0808 11.8752 12.986 10.3959 14.2982C9.6546 14.9558 8.99612 15.468 8.52173 15.8167C8.44874 15.8704 8.38009 15.9202 8.31613 15.966C8.38443 16.0196 8.45835 16.0781 8.5374 16.1413C9.009 16.5183 9.66436 17.0645 10.4024 17.7435C11.8746 19.0978 13.6937 20.9967 15.0347 23.1482C15.1768 23.3762 15.1072 23.6762 14.8792 23.8183C14.6511 23.9605 14.3511 23.8908 14.209 23.6628C12.9335 21.6164 11.185 19.7855 9.7437 18.4596C9.02506 17.7985 8.38723 17.2669 7.92982 16.9012C7.70121 16.7184 7.51789 16.5773 7.39237 16.4823C7.32962 16.4348 7.28133 16.3988 7.24907 16.375L7.2129 16.3484L7.20421 16.3421L7.20227 16.3407C7.07157 16.2463 6.99573 16.0931 7.00041 15.9319C7.00509 15.7708 7.08928 15.6224 7.2252 15.5358L7.22714 15.5346L7.23539 15.5292L7.27065 15.5062C7.3023 15.4854 7.34996 15.4537 7.41208 15.4113C7.53632 15.3267 7.71828 15.1997 7.9455 15.0327C8.40012 14.6986 9.03482 14.205 9.75024 13.5703C11.1843 12.2982 12.9268 10.4736 14.1994 8.2453C14.3326 8.01199 14.6298 7.93088 14.8631 8.06413Z" fill="#2F2F2F"/>
<path fill-rule="evenodd" clip-rule="evenodd" d="M23.5405 15.9455C23.5405 16.2142 23.3227 16.432 23.054 16.432L7.48647 16.432C7.21779 16.432 6.99999 16.2142 6.99999 15.9455C6.99999 15.6768 7.21779 15.459 7.48647 15.459L23.054 15.459C23.3227 15.459 23.5405 15.6768 23.5405 15.9455Z" fill="#2F2F2F"/>
<rect x="0.5" y="0.5" width="31" height="31.0001" stroke="#2F2F2F"/>
</svg>
