<svg width="65" height="14" viewBox="0 0 65 14" fill="none" xmlns="http://www.w3.org/2000/svg">
<g clip-path="url(#clip0_1614_15738)">
<path fill-rule="evenodd" clip-rule="evenodd" d="M63.1351 3.61311H46.9329C46.2723 3.61311 45.7367 4.13838 45.7367 4.78632V12.0842C45.7367 12.7322 46.2723 13.2575 46.9329 13.2575H63.1351C63.7956 13.2575 64.3312 12.7322 64.3312 12.0842V4.78632C64.3312 4.13838 63.7956 3.61311 63.1351 3.61311ZM46.9329 2.95703C45.9028 2.95703 45.0679 3.77603 45.0679 4.78632V12.0842C45.0679 13.0945 45.9028 13.9136 46.9329 13.9136H63.1351C64.1651 13.9136 65 13.0945 65 12.0842V4.78632C65 3.77603 64.1651 2.95703 63.1351 2.95703H46.9329Z" fill="black"/>
<path fill-rule="evenodd" clip-rule="evenodd" d="M50.277 5.58008H47.8545V11.2801H48.7197V8.95353H50.1748C50.8007 8.95353 51.2772 8.79718 51.5974 8.49903C51.9183 8.20021 52.0704 7.77003 52.0704 7.24741C52.0704 6.81118 51.9228 6.42867 51.6741 6.14255C51.365 5.78025 50.8846 5.58008 50.277 5.58008ZM55.577 5.58008H54.6729L52.5464 11.2801H53.4384L54.044 9.58944H56.1742L56.7719 11.2801H57.7116L55.577 5.58008ZM58.8642 5.58008H57.8909L59.9917 8.87501V11.2801H60.8569V8.89066L62.9819 5.58008H62.0398L60.4404 8.15771L58.8642 5.58008ZM48.7197 8.2323V6.34007H50.159C50.505 6.34007 50.7668 6.42443 50.9414 6.57821C51.1145 6.73071 51.2131 6.96139 51.2131 7.27843C51.2131 7.58124 51.1235 7.81606 50.95 7.97593C50.7755 8.13654 50.5046 8.2323 50.1197 8.2323H48.7197ZM55.1074 6.59752C55.1141 6.57685 55.1207 6.55688 55.1269 6.53777C55.1331 6.5575 55.1395 6.57812 55.1461 6.59947C55.1953 6.75662 55.2586 6.95342 55.3142 7.10989L55.3142 7.11017L55.9234 8.86823H54.3042L54.9356 7.11044L54.9359 7.10961C54.9912 6.95001 55.0563 6.7537 55.1074 6.59752Z" fill="black"/>
<path d="M4.80383 4.38525C2.87416 4.38525 1.78053 5.47199 1.38285 6.19648V0.0957031H0V13.5961H1.19757V11.8776C1.50938 12.421 2.58945 13.9539 4.70893 13.9539C7.26674 13.9539 9.05634 11.988 9.05634 9.16958C9.05634 6.43946 7.23059 4.38525 4.80383 4.38525ZM4.61855 12.7788C3.02781 12.7788 1.37833 11.427 1.37833 9.16514C1.37833 6.90331 3.02329 5.55151 4.61855 5.55151C6.09178 5.55151 7.67347 6.68243 7.67347 9.16514C7.67799 11.6523 6.09178 12.7788 4.61855 12.7788Z" fill="black"/>
<path d="M19.5318 4.38477C16.8837 4.38477 15.0308 6.35063 15.0308 9.16909C15.0308 11.9875 16.8927 13.9534 19.5635 13.9534C21.8185 13.9534 23.3776 12.7695 23.7301 10.786L23.7391 10.7286H22.4737L22.4692 10.7727C22.2975 11.9743 21.1271 12.7827 19.559 12.7827C17.2452 12.7827 16.3549 11.0466 16.2871 9.39883H23.8928V8.81126C23.9018 6.6687 22.7539 4.38477 19.5318 4.38477ZM16.3549 8.31206C16.5176 7.43737 17.1412 5.55544 19.5363 5.55544C22.049 5.55544 22.519 7.5964 22.6048 8.31206H16.3549Z" fill="black"/>
<path d="M29.4151 4.38477C26.767 4.38477 24.9141 6.35063 24.9141 9.16909C24.9141 11.9875 26.776 13.9534 29.4468 13.9534C31.7018 13.9534 33.2609 12.7695 33.6134 10.786L33.6225 10.7286H32.357L32.3526 10.7727C32.1808 11.9743 31.0104 12.7827 29.4423 12.7827C27.1285 12.7827 26.2382 11.0466 26.1704 9.39883H33.7761V8.81126C33.7806 6.6687 32.6372 4.38477 29.4151 4.38477ZM26.2336 8.31206C26.3964 7.43737 27.02 5.55544 29.4151 5.55544C31.9278 5.55544 32.3978 7.5964 32.4836 8.31206H26.2336Z" fill="black"/>
<path d="M40.9254 11.8242C40.4102 11.8242 40.0352 12.1953 40.0352 12.7078C40.0352 13.2202 40.4057 13.5913 40.9118 13.5913C41.4361 13.5913 41.8021 13.2291 41.8021 12.7078C41.8021 12.1865 41.4405 11.8242 40.9254 11.8242Z" fill="black"/>
<path d="M12.8793 4.80902C12.2647 5.25962 12.0162 5.6793 11.7315 6.22708V5.51583L11.7269 4.61463H10.4481L10.4209 13.5957H11.7947L11.7857 10.7066L11.7811 8.48009C11.7811 8.11343 11.7676 7.7335 11.876 7.36683C11.9755 7.00459 12.1743 6.66884 12.4409 6.39937C12.9877 5.856 13.9006 5.6793 14.6418 5.73672V4.42026C14.1085 4.32307 13.4758 4.37609 12.8793 4.80902Z" fill="black"/>
<path d="M38.1502 1.9602C38.3445 1.65538 38.6654 1.41241 39.036 1.29755C39.3162 1.2092 39.6325 1.17386 39.9941 1.1827L39.9896 0.0164307C39.4427 -0.0277459 38.9456 0.0164307 38.5118 0.157796C38.0147 0.316831 37.5537 0.62165 37.2193 1.02366C36.9075 1.39916 36.686 1.87184 36.5686 2.4373C36.4511 2.96301 36.442 3.51522 36.4466 4.03208V4.77424H34.4355V5.82565H36.4466V13.5963H37.7932V5.82565H39.985V4.77424H37.7977L37.7932 4.04975V4.0365C37.7887 3.69192 37.7932 3.39594 37.8384 2.9851C37.87 2.65819 37.9379 2.27827 38.1502 1.9602Z" fill="black"/>
</g>
<defs>
<clipPath id="clip0_1614_15738">
<rect width="65" height="14" fill="white"/>
</clipPath>
</defs>
</svg>
