<svg width="61" height="19" viewBox="0 0 61 19" fill="none" xmlns="http://www.w3.org/2000/svg">
    <path
        d="M6.848 18.884C5.984 18.884 5.2 18.7 4.496 18.332C3.792 17.948 3.232 17.396 2.816 16.676H2.744V18.5H0.536V0.644H2.768V5.204C2.768 5.7 2.76 6.164 2.744 6.596C2.728 7.028 2.712 7.38 2.696 7.652H2.768C3.184 6.964 3.744 6.404 4.448 5.972C5.152 5.524 5.976 5.3 6.92 5.3C7.736 5.3 8.48 5.46 9.152 5.78C9.824 6.084 10.4 6.532 10.88 7.124C11.376 7.7 11.752 8.412 12.008 9.26C12.28 10.092 12.416 11.036 12.416 12.092C12.416 13.132 12.288 14.076 12.032 14.924C11.776 15.756 11.408 16.468 10.928 17.06C10.448 17.636 9.864 18.084 9.176 18.404C8.488 18.724 7.712 18.884 6.848 18.884ZM6.608 17.036C7.2 17.036 7.712 16.916 8.144 16.676C8.592 16.42 8.96 16.076 9.248 15.644C9.552 15.196 9.776 14.676 9.92 14.084C10.064 13.476 10.136 12.82 10.136 12.116C10.136 11.412 10.064 10.756 9.92 10.148C9.776 9.54 9.56 9.02 9.272 8.588C8.984 8.14 8.616 7.796 8.168 7.556C7.736 7.3 7.224 7.172 6.632 7.172C5.944 7.172 5.352 7.3 4.856 7.556C4.36 7.812 3.944 8.164 3.608 8.612C3.288 9.06 3.048 9.588 2.888 10.196C2.728 10.788 2.648 11.428 2.648 12.116C2.648 12.82 2.728 13.476 2.888 14.084C3.064 14.676 3.312 15.196 3.632 15.644C3.968 16.076 4.384 16.42 4.88 16.676C5.376 16.916 5.952 17.036 6.608 17.036ZM16.994 7.94H17.066C17.466 7.188 17.986 6.588 18.626 6.14C19.266 5.676 20.018 5.444 20.882 5.444C21.058 5.444 21.202 5.46 21.314 5.492C21.442 5.508 21.57 5.54 21.698 5.588V7.7H21.626C21.466 7.652 21.322 7.62 21.194 7.604C21.066 7.588 20.906 7.58 20.714 7.58C20.218 7.58 19.746 7.676 19.298 7.868C18.85 8.044 18.458 8.3 18.122 8.636C17.786 8.972 17.514 9.38 17.306 9.86C17.114 10.34 17.018 10.884 17.018 11.492V18.5H14.786V5.612H16.994V7.94ZM29.003 18.86C28.011 18.86 27.123 18.684 26.339 18.332C25.571 17.98 24.915 17.5 24.371 16.892C23.827 16.268 23.411 15.548 23.123 14.732C22.851 13.9 22.715 13.012 22.715 12.068C22.715 11.14 22.859 10.268 23.147 9.452C23.451 8.62 23.867 7.9 24.395 7.292C24.939 6.668 25.587 6.18 26.339 5.828C27.107 5.476 27.955 5.3 28.883 5.3C29.843 5.3 30.691 5.476 31.427 5.828C32.163 6.18 32.787 6.668 33.299 7.292C33.827 7.932 34.219 8.7 34.475 9.596C34.747 10.492 34.883 11.492 34.883 12.596H24.995C25.043 13.22 25.163 13.804 25.355 14.348C25.547 14.892 25.811 15.364 26.147 15.764C26.483 16.164 26.891 16.476 27.371 16.7C27.851 16.924 28.403 17.036 29.027 17.036C29.923 17.036 30.659 16.844 31.235 16.46C31.827 16.06 32.227 15.516 32.435 14.828H34.619C34.331 16.028 33.691 17.004 32.699 17.756C31.723 18.492 30.491 18.86 29.003 18.86ZM28.883 7.028C28.307 7.028 27.795 7.132 27.347 7.34C26.899 7.532 26.515 7.804 26.195 8.156C25.875 8.508 25.619 8.924 25.427 9.404C25.235 9.884 25.107 10.412 25.043 10.988H32.507C32.443 9.74 32.099 8.772 31.475 8.084C30.867 7.38 30.003 7.028 28.883 7.028ZM42.8546 18.86C41.8626 18.86 40.9746 18.684 40.1906 18.332C39.4226 17.98 38.7666 17.5 38.2226 16.892C37.6786 16.268 37.2626 15.548 36.9746 14.732C36.7026 13.9 36.5666 13.012 36.5666 12.068C36.5666 11.14 36.7106 10.268 36.9986 9.452C37.3026 8.62 37.7186 7.9 38.2466 7.292C38.7906 6.668 39.4386 6.18 40.1906 5.828C40.9586 5.476 41.8066 5.3 42.7346 5.3C43.6946 5.3 44.5426 5.476 45.2786 5.828C46.0146 6.18 46.6386 6.668 47.1506 7.292C47.6786 7.932 48.0706 8.7 48.3266 9.596C48.5986 10.492 48.7346 11.492 48.7346 12.596H38.8466C38.8946 13.22 39.0146 13.804 39.2066 14.348C39.3986 14.892 39.6626 15.364 39.9986 15.764C40.3346 16.164 40.7426 16.476 41.2226 16.7C41.7026 16.924 42.2546 17.036 42.8786 17.036C43.7746 17.036 44.5106 16.844 45.0866 16.46C45.6786 16.06 46.0786 15.516 46.2866 14.828H48.4706C48.1826 16.028 47.5426 17.004 46.5506 17.756C45.5746 18.492 44.3426 18.86 42.8546 18.86ZM42.7346 7.028C42.1586 7.028 41.6466 7.132 41.1986 7.34C40.7506 7.532 40.3666 7.804 40.0466 8.156C39.7266 8.508 39.4706 8.924 39.2786 9.404C39.0866 9.884 38.9586 10.412 38.8946 10.988H46.3586C46.2946 9.74 45.9506 8.772 45.3266 8.084C44.7186 7.38 43.8546 7.028 42.7346 7.028ZM50.0878 5.612H52.0798V3.836C52.0798 2.652 52.3838 1.796 52.9918 1.268C53.3118 0.995999 53.7038 0.803999 54.1678 0.691999C54.6478 0.579999 55.1998 0.524 55.8238 0.524C55.9998 0.524 56.1838 0.532 56.3758 0.547999C56.5678 0.547999 56.7678 0.555999 56.9758 0.571999V2.42C56.4478 2.388 56.0078 2.388 55.6558 2.42C55.3198 2.436 55.0478 2.508 54.8398 2.636C54.6478 2.748 54.5118 2.908 54.4318 3.116C54.3518 3.324 54.3118 3.596 54.3118 3.932V5.612H56.9518V7.364H54.3118V18.5H52.0798V7.364H50.0878V5.612ZM58.0694 15.86H60.6614V18.5H58.0694V15.86Z"
        fill="black" />
</svg>