<svg width="40" height="48" viewBox="0 0 40 48" fill="none" xmlns="http://www.w3.org/2000/svg">
    <path d="M0.5 47.2612V0.5H20H26.3901L32.5157 5.45874L32.5212 5.46325L39.5 11.279V23.8806V47.2612H0.5Z" fill="white"
        stroke="#2F2F2F" />
    <g clip-path="url(#clip0_7764_1505)">
        <path
            d="M15 24.0001L21.5 30.5001C21.8978 30.8979 22.4374 31.1214 23 31.1214C23.5626 31.1214 24.1022 30.8979 24.5 30.5001C24.8978 30.1022 25.1213 29.5627 25.1213 29.0001C25.1213 28.4374 24.8978 27.8979 24.5 27.5001L18 21.0001C17.2043 20.2044 16.1252 19.7574 15 19.7574C13.8748 19.7574 12.7956 20.2044 12 21.0001C11.2043 21.7957 10.7574 22.8748 10.7574 24.0001C10.7574 25.1253 11.2043 26.2044 12 27.0001L18.5 33.5001C19.6935 34.6935 21.3122 35.364 23 35.364C24.6878 35.364 26.3065 34.6935 27.5 33.5001C28.6935 32.3066 29.364 30.6879 29.364 29.0001C29.364 27.3122 28.6935 25.6935 27.5 24.5001L21 18.0001"
            stroke="#2F2F2F" stroke-width="1.5" stroke-linecap="round" stroke-linejoin="round" />
    </g>
    <defs>
        <clipPath id="clip0_7764_1505">
            <rect width="24" height="24" fill="white" transform="matrix(0 -1 1 0 8 39)" />
        </clipPath>
    </defs>
</svg>