<svg width="40" height="41" viewBox="0 0 40 41" fill="none" xmlns="http://www.w3.org/2000/svg">
    <g id="Frame 1073714084">
        <rect x="1.25" y="1.75" width="37.5" height="37.5" rx="18.75" stroke="#E84D1C" stroke-width="2.5" />
        <g id="Shape">
            <mask id="path-2-inside-1_14222_15226" fill="white">
                <path
                    d="M10.1477 10.8595L10.2441 10.7441C10.5334 10.4548 10.9824 10.4227 11.3072 10.6477L11.4226 10.7441L20 19.3217L28.5774 10.7441C28.8667 10.4548 29.3157 10.4227 29.6405 10.6477L29.7559 10.7441C30.0452 11.0334 30.0773 11.4824 29.8523 11.8072L29.7559 11.9226L21.1783 20.5L29.7559 29.0774C30.0452 29.3667 30.0773 29.8157 29.8523 30.1405L29.7559 30.2559C29.4666 30.5452 29.0176 30.5773 28.6928 30.3523L28.5774 30.2559L20 21.6783L11.4226 30.2559C11.1333 30.5452 10.6843 30.5773 10.3595 30.3523L10.2441 30.2559C9.9548 29.9666 9.92266 29.5176 10.1477 29.1928L10.2441 29.0774L18.8217 20.5L10.2441 11.9226C9.9548 11.6333 9.92266 11.1843 10.1477 10.8595L10.2441 10.7441L10.1477 10.8595Z" />
            </mask>
            <path
                d="M10.1477 10.8595L10.2441 10.7441C10.5334 10.4548 10.9824 10.4227 11.3072 10.6477L11.4226 10.7441L20 19.3217L28.5774 10.7441C28.8667 10.4548 29.3157 10.4227 29.6405 10.6477L29.7559 10.7441C30.0452 11.0334 30.0773 11.4824 29.8523 11.8072L29.7559 11.9226L21.1783 20.5L29.7559 29.0774C30.0452 29.3667 30.0773 29.8157 29.8523 30.1405L29.7559 30.2559C29.4666 30.5452 29.0176 30.5773 28.6928 30.3523L28.5774 30.2559L20 21.6783L11.4226 30.2559C11.1333 30.5452 10.6843 30.5773 10.3595 30.3523L10.2441 30.2559C9.9548 29.9666 9.92266 29.5176 10.1477 29.1928L10.2441 29.0774L18.8217 20.5L10.2441 11.9226C9.9548 11.6333 9.92266 11.1843 10.1477 10.8595L10.2441 10.7441L10.1477 10.8595Z"
                fill="#E84D1C" />
            <path
                d="M10.9151 11.5007L11.0115 11.3852L9.47667 10.1029L9.38024 10.2183L10.9151 11.5007ZM11.3072 10.6477L12.5895 9.11284L12.5203 9.05499L12.4461 9.00361L11.3072 10.6477ZM11.4226 10.7441L12.8368 9.32988L12.7736 9.26662L12.7049 9.20926L11.4226 10.7441ZM20 19.3217L18.5858 20.7359L20 22.1501L21.4142 20.7359L20 19.3217ZM28.5774 10.7441L27.1632 9.32986L27.1632 9.32988L28.5774 10.7441ZM29.6405 10.6477L30.9228 9.11283L30.8536 9.05499L30.7794 9.00361L29.6405 10.6477ZM29.7559 10.7441L31.1701 9.32986L31.1069 9.26661L31.0382 9.20926L29.7559 10.7441ZM29.8523 11.8072L31.3872 13.0895L31.445 13.0202L31.4964 12.9461L29.8523 11.8072ZM29.7559 11.9226L31.1701 13.3368L31.2334 13.2736L31.2908 13.2049L29.7559 11.9226ZM21.1783 20.5L19.7641 19.0858L18.3499 20.5L19.7641 21.9142L21.1783 20.5ZM29.7559 29.0774L31.1701 27.6632L31.1701 27.6632L29.7559 29.0774ZM29.8523 30.1405L31.3872 31.4228L31.445 31.3536L31.4964 31.2794L29.8523 30.1405ZM29.7559 30.2559L31.1701 31.6701L31.2334 31.6069L31.2908 31.5382L29.7559 30.2559ZM28.6928 30.3523L27.4105 31.8872L27.4798 31.945L27.5539 31.9964L28.6928 30.3523ZM28.5774 30.2559L27.1632 31.6701L27.2264 31.7334L27.2951 31.7908L28.5774 30.2559ZM20 21.6783L21.4142 20.2641L20 18.8499L18.5858 20.2641L20 21.6783ZM11.4226 30.2559L12.8368 31.6701L12.8368 31.6701L11.4226 30.2559ZM10.3595 30.3523L9.07719 31.8872L9.14642 31.945L9.22057 31.9964L10.3595 30.3523ZM10.2441 30.2559L8.82986 31.6701L8.89312 31.7334L8.96177 31.7908L10.2441 30.2559ZM10.1477 29.1928L8.61283 27.9105L8.55499 27.9797L8.50361 28.0539L10.1477 29.1928ZM10.2441 29.0774L8.82988 27.6632L8.76662 27.7264L8.70926 27.7951L10.2441 29.0774ZM18.8217 20.5L20.2359 21.9142L21.6501 20.5L20.2359 19.0858L18.8217 20.5ZM10.2441 11.9226L8.82986 13.3368L8.82988 13.3368L10.2441 11.9226ZM11.6583 12.1583C11.2518 12.5648 10.624 12.6074 10.1683 12.2917L12.4461 9.00361C11.3408 8.2379 9.81491 8.34482 8.82986 9.32986L11.6583 12.1583ZM10.0249 12.1825L10.1403 12.2789L12.7049 9.20926L12.5895 9.11284L10.0249 12.1825ZM10.0084 12.1583L18.5858 20.7359L21.4142 17.9075L12.8368 9.32988L10.0084 12.1583ZM21.4142 20.7359L29.9916 12.1583L27.1632 9.32988L18.5858 17.9075L21.4142 20.7359ZM29.9916 12.1583C29.5851 12.5648 28.9573 12.6074 28.5016 12.2917L30.7794 9.00361C29.6741 8.2379 28.1482 8.34482 27.1632 9.32986L29.9916 12.1583ZM28.3582 12.1825L28.4736 12.2789L31.0382 9.20926L30.9228 9.11283L28.3582 12.1825ZM28.3417 12.1583C27.9352 11.7518 27.8926 11.124 28.2083 10.6683L31.4964 12.9461C32.2621 11.8408 32.1552 10.3149 31.1701 9.32986L28.3417 12.1583ZM28.3175 10.5249L28.2211 10.6403L31.2908 13.2049L31.3872 13.0895L28.3175 10.5249ZM28.3417 10.5084L19.7641 19.0858L22.5925 21.9142L31.1701 13.3368L28.3417 10.5084ZM19.7641 21.9142L28.3417 30.4916L31.1701 27.6632L22.5925 19.0858L19.7641 21.9142ZM28.3417 30.4916C27.9352 30.0851 27.8926 29.4573 28.2083 29.0016L31.4964 31.2794C32.2621 30.1741 32.1552 28.6482 31.1701 27.6632L28.3417 30.4916ZM28.3175 28.8582L28.2211 28.9736L31.2908 31.5382L31.3872 31.4228L28.3175 28.8582ZM28.3417 28.8417C28.7482 28.4352 29.376 28.3926 29.8317 28.7083L27.5539 31.9964C28.6592 32.7621 30.1851 32.6552 31.1701 31.6701L28.3417 28.8417ZM29.9751 28.8175L29.8597 28.7211L27.2951 31.7908L27.4105 31.8872L29.9751 28.8175ZM29.9916 28.8417L21.4142 20.2641L18.5858 23.0925L27.1632 31.6701L29.9916 28.8417ZM18.5858 20.2641L10.0084 28.8417L12.8368 31.6701L21.4142 23.0925L18.5858 20.2641ZM10.0084 28.8417C10.4149 28.4352 11.0427 28.3926 11.4984 28.7083L9.22057 31.9964C10.3259 32.7621 11.8518 32.6552 12.8368 31.6701L10.0084 28.8417ZM11.6418 28.8175L11.5264 28.7211L8.96177 31.7908L9.07719 31.8872L11.6418 28.8175ZM11.6583 28.8417C12.0648 29.2482 12.1074 29.876 11.7917 30.3317L8.50361 28.0539C7.7379 29.1592 7.84482 30.6851 8.82986 31.6701L11.6583 28.8417ZM11.6825 30.4751L11.7789 30.3597L8.70926 27.7951L8.61283 27.9105L11.6825 30.4751ZM11.6583 30.4916L20.2359 21.9142L17.4075 19.0858L8.82988 27.6632L11.6583 30.4916ZM20.2359 19.0858L11.6583 10.5084L8.82988 13.3368L17.4075 21.9142L20.2359 19.0858ZM11.6583 10.5084C12.0648 10.9149 12.1074 11.5427 11.7917 11.9984L8.50361 9.72057C7.7379 10.8259 7.84482 12.3518 8.82986 13.3368L11.6583 10.5084Z"
                fill="#E84D1C" mask="url(#path-2-inside-1_14222_15226)" />
        </g>
    </g>
</svg>