<svg width="12" height="10" viewBox="0 0 12 10" fill="none" xmlns="http://www.w3.org/2000/svg">
<mask id="path-1-inside-1_14622_1957" fill="white">
<path fill-rule="evenodd" clip-rule="evenodd" d="M0.5 0C0.223858 0 0 0.223858 0 0.5V1.33345V1.58332V9.50004C0 9.77618 0.223858 10 0.5 10H11.5C11.7761 10 12 9.77618 12 9.50004V1.33345C12 1.05731 11.7761 0.833451 11.5 0.833451H4.8V0.5C4.8 0.223858 4.57614 0 4.3 0H0.5Z"/>
</mask>
<path d="M4.8 0.833451H4C4 1.27528 4.35817 1.63345 4.8 1.63345V0.833451ZM0.8 0.5C0.8 0.665685 0.665685 0.8 0.5 0.8V-0.8C-0.21797 -0.8 -0.8 -0.21797 -0.8 0.5H0.8ZM0.8 1.33345V0.5H-0.8V1.33345H0.8ZM0.8 1.58332V1.33345H-0.8V1.58332H0.8ZM0.8 9.50004V1.58332H-0.8V9.50004H0.8ZM0.5 9.20004C0.665685 9.20004 0.8 9.33435 0.8 9.50004H-0.8C-0.8 10.218 -0.21797 10.8 0.5 10.8V9.20004ZM11.5 9.20004H0.5V10.8H11.5V9.20004ZM11.2 9.50004C11.2 9.33435 11.3343 9.20004 11.5 9.20004V10.8C12.218 10.8 12.8 10.218 12.8 9.50004H11.2ZM11.2 1.33345V9.50004H12.8V1.33345H11.2ZM11.5 1.63345C11.3343 1.63345 11.2 1.49914 11.2 1.33345H12.8C12.8 0.615481 12.218 0.0334514 11.5 0.0334514V1.63345ZM4.8 1.63345H11.5V0.0334514H4.8V1.63345ZM4 0.5V0.833451H5.6V0.5H4ZM4.3 0.8C4.13431 0.8 4 0.665685 4 0.5H5.6C5.6 -0.21797 5.01797 -0.8 4.3 -0.8V0.8ZM0.5 0.8H4.3V-0.8H0.5V0.8Z" fill="#2F2F2F" mask="url(#path-1-inside-1_14622_1957)"/>
<line y1="2.5167" x2="12" y2="2.5167" stroke="#2F2F2F" stroke-width="0.8"/>
</svg>
