<svg width="25" height="20" viewBox="0 0 25 20" fill="none" xmlns="http://www.w3.org/2000/svg">
    <mask id="path-1-inside-1_8701_11668" fill="white">
        <path fill-rule="evenodd" clip-rule="evenodd"
            d="M1 0.5C0.723858 0.5 0.5 0.723857 0.5 1V2.58343V3.95833V19.0001C0.5 19.2762 0.723857 19.5001 1 19.5001H24C24.2761 19.5001 24.5 19.2762 24.5 19.0001V2.58343C24.5 2.30729 24.2761 2.08343 24 2.08343H10.1V1C10.1 0.723858 9.87614 0.5 9.6 0.5H1Z" />
    </mask>
    <path
        d="M10.1 2.08343H8.6C8.6 2.91186 9.27157 3.58343 10.1 3.58343V2.08343ZM2 1C2 1.55229 1.55228 2 1 2V-1C-0.104568 -1 -1 -0.104571 -1 1H2ZM2 2.58343V1H-1V2.58343H2ZM2 3.95833V2.58343H-1V3.95833H2ZM2 19.0001V3.95833H-1V19.0001H2ZM1 18.0001C1.55229 18.0001 2 18.4478 2 19.0001H-1C-1 20.1047 -0.104572 21.0001 1 21.0001V18.0001ZM24 18.0001H1V21.0001H24V18.0001ZM23 19.0001C23 18.4478 23.4477 18.0001 24 18.0001V21.0001C25.1046 21.0001 26 20.1047 26 19.0001H23ZM23 2.58343V19.0001H26V2.58343H23ZM24 3.58343C23.4477 3.58343 23 3.13572 23 2.58343H26C26 1.47886 25.1046 0.58343 24 0.58343V3.58343ZM10.1 3.58343H24V0.58343H10.1V3.58343ZM8.6 1V2.08343H11.6V1H8.6ZM9.6 2C9.04772 2 8.6 1.55229 8.6 1H11.6C11.6 -0.10457 10.7046 -1 9.6 -1V2ZM1 2H9.6V-1H1V2Z"
        fill="#2F2F2F" mask="url(#path-1-inside-1_8701_11668)" />
    <line x1="0.5" y1="5.29175" x2="24.5" y2="5.29175" stroke="#2F2F2F" stroke-width="1.5" />
</svg>