<svg width="16" height="16" viewBox="0 0 16 16" fill="none" xmlns="http://www.w3.org/2000/svg">
<path d="M6.24269 12.3333L5.62135 12.9546C5.05874 13.5172 4.29567 13.8333 3.50002 13.8333C2.70436 13.8333 1.9413 13.5172 1.37868 12.9546C0.816072 12.392 0.5 11.6289 0.5 10.8333C0.5 10.0376 0.816072 9.27455 1.37868 8.71194L4.56069 5.52927C5.09417 4.99459 5.8097 4.68081 6.56441 4.6506C7.31911 4.62039 8.05744 4.87597 8.63195 5.3663C9.20647 5.85664 9.57488 6.54564 9.66362 7.29571C9.75237 8.04579 9.55491 8.80174 9.11068 9.41261" stroke="#8D8D8D" stroke-linecap="round" stroke-linejoin="round"/>
<path d="M9.8788 3.71072L10.3788 3.21072C10.9414 2.6481 11.7045 2.33203 12.5001 2.33203C13.2958 2.33203 14.0588 2.6481 14.6215 3.21072C15.1841 3.77333 15.5001 4.5364 15.5001 5.33205C15.5001 6.1277 15.1841 6.89077 14.6215 7.45338L11.4395 10.6354C10.9059 11.1698 10.1903 11.4834 9.4357 11.5134C8.68107 11.5434 7.94288 11.2878 7.36851 10.7974C6.79413 10.307 6.42584 9.61804 6.33717 8.86804C6.24849 8.11804 6.44595 7.36218 6.89013 6.75138" stroke="#8D8D8D" stroke-linecap="round" stroke-linejoin="round"/>
</svg>
