<svg width="20" height="19" viewBox="0 0 20 19" fill="none" xmlns="http://www.w3.org/2000/svg">
<path d="M2.84 6.37578C2.84 4.15111 4.65025 2.34 6.87402 2.34H13.1242C15.3489 2.34 17.16 4.15025 17.16 6.37402V12.6242C17.16 14.8488 15.3495 16.66 13.1254 16.66H6.87578C4.65115 16.66 2.84 14.8495 2.84 12.6254V6.37578ZM15.44 5C15.44 4.48102 15.019 4.06 14.5 4.06C13.981 4.06 13.56 4.48102 13.56 5C13.56 5.51898 13.981 5.94 14.5 5.94C15.019 5.94 15.44 5.51898 15.44 5ZM14.24 9.5C14.24 7.16122 12.3388 5.26 10 5.26C7.66121 5.26 5.76 7.16154 5.76 9.5C5.76 11.8385 7.66121 13.74 10 13.74C12.3385 13.74 14.24 11.8388 14.24 9.5ZM7.64 9.5C7.64 8.19648 8.69648 7.14 10 7.14C11.3035 7.14 12.36 8.19648 12.36 9.5C12.36 10.8035 11.3035 11.86 10 11.86C8.69648 11.86 7.64 10.8035 7.64 9.5Z" fill="#DA6C37" stroke="#DA6C37" stroke-width="0.68"/>
</svg>
