<svg width="24" height="25" viewBox="0 0 24 25" fill="none" xmlns="http://www.w3.org/2000/svg">
<path fill-rule="evenodd" clip-rule="evenodd" d="M5.98485 6.22736C5.9141 6.48656 6.06686 6.75403 6.32606 6.82478C8.94015 7.53835 11.5778 7.59488 13.5518 7.47674C14.541 7.41754 15.3688 7.31414 15.9508 7.22525C16.0403 7.21157 16.1241 7.19823 16.2017 7.18545C16.1913 7.27162 16.1804 7.36523 16.1692 7.46581C16.1023 8.06589 16.0252 8.91554 15.9834 9.91757C15.9001 11.9162 15.9564 14.5451 16.5295 17.0147C16.5903 17.2764 16.8517 17.4394 17.1134 17.3786C17.3751 17.3179 17.5381 17.0565 17.4773 16.7948C16.9322 14.4458 16.8739 11.9148 16.9555 9.95809C16.9962 8.98245 17.0713 8.15558 17.1362 7.57356C17.1686 7.28266 17.1984 7.05322 17.22 6.89729C17.2308 6.81933 17.2395 6.75977 17.2455 6.72012L17.2523 6.67575L17.2539 6.66513L17.2543 6.66277C17.28 6.50361 17.2252 6.3416 17.108 6.23096C16.9907 6.12034 16.8263 6.07497 16.6689 6.10982L16.6667 6.11031L16.6571 6.11238L16.6159 6.12103C16.5788 6.12868 16.5226 6.13996 16.4488 6.15396C16.3011 6.18197 16.0826 6.22085 15.8039 6.26343C15.2461 6.34862 14.4483 6.44837 13.4937 6.5055C11.5801 6.62003 9.05779 6.56189 6.58227 5.88615C6.32308 5.8154 6.0556 5.96816 5.98485 6.22736Z" fill="#2F2F2F"/>
<path fill-rule="evenodd" clip-rule="evenodd" d="M5.42224 17.9358C5.61223 18.1258 5.92026 18.1258 6.11024 17.9358L17.1182 6.92786C17.3082 6.73788 17.3082 6.42985 17.1182 6.23987C16.9282 6.04988 16.6202 6.04988 16.4302 6.23987L5.42225 17.2478C5.23226 17.4378 5.23226 17.7458 5.42224 17.9358Z" fill="#2F2F2F"/>
</svg>
