<svg width="24" height="24" viewBox="0 0 24 24" fill="none" xmlns="http://www.w3.org/2000/svg">
    <path
        d="M19.0788 21.474H4.9209C4.64476 21.474 4.4209 21.2501 4.4209 20.974V3.6582C4.4209 3.38206 4.64476 3.1582 4.9209 3.1582H15.1577L19.5788 7.57926V20.974C19.5788 21.2501 19.3549 21.474 19.0788 21.474Z"
        fill="white" />
    <path
        d="M19.5788 7.57926V20.974C19.5788 21.2501 19.3549 21.474 19.0788 21.474H4.9209C4.64476 21.474 4.4209 21.2501 4.4209 20.974V3.6582C4.4209 3.38206 4.64476 3.1582 4.9209 3.1582H15.1577M19.5788 7.57926L15.1577 3.1582M19.5788 7.57926H15.6577C15.3816 7.57926 15.1577 7.3554 15.1577 7.07926V3.1582"
        stroke="#DA6C37" stroke-width="1.3" />
    <path d="M7.42383 10.7812H16.5752" stroke="#DA6C37" stroke-linecap="round" stroke-linejoin="round" />
    <path d="M7.42383 13.9883H16.5752" stroke="#DA6C37" stroke-linecap="round" stroke-linejoin="round" />
    <path d="M7.42383 17.1973H16.5752" stroke="#DA6C37" stroke-linecap="round" stroke-linejoin="round" />
</svg>