<svg width="24" height="24" viewBox="0 0 24 24" fill="none" xmlns="http://www.w3.org/2000/svg">
<path d="M22 16V7H3V16H22Z" fill="#2F2F2F"/>
<path d="M21.25 16C21.25 16.9637 20.4941 18.0161 18.8682 18.8718C17.2769 19.7094 15.0267 20.25 12.5 20.25C9.97335 20.25 7.7231 19.7094 6.1318 18.8718C4.50586 18.0161 3.75 16.9637 3.75 16C3.75 15.0363 4.50586 13.9839 6.1318 13.1282C7.7231 12.2906 9.97335 11.75 12.5 11.75C15.0267 11.75 17.2769 12.2906 18.8682 13.1282C20.4941 13.9839 21.25 15.0363 21.25 16Z" fill="white" stroke="#2F2F2F" stroke-width="1.5" stroke-linecap="round" stroke-linejoin="round"/>
<path d="M21.25 11C21.25 11.9637 20.4941 13.0161 18.8682 13.8718C17.2769 14.7094 15.0267 15.25 12.5 15.25C9.97335 15.25 7.7231 14.7094 6.1318 13.8718C4.50586 13.0161 3.75 11.9637 3.75 11C3.75 10.0363 4.50586 8.98391 6.1318 8.12815C7.7231 7.29063 9.97335 6.75 12.5 6.75C15.0267 6.75 17.2769 7.29063 18.8682 8.12815C20.4941 8.98391 21.25 10.0363 21.25 11Z" fill="white" stroke="#2F2F2F" stroke-width="1.5" stroke-linecap="round" stroke-linejoin="round"/>
<path d="M21.25 7C21.25 7.96372 20.4941 9.01609 18.8682 9.87185C17.2769 10.7094 15.0267 11.25 12.5 11.25C9.97335 11.25 7.7231 10.7094 6.1318 9.87185C4.50586 9.01609 3.75 7.96372 3.75 7C3.75 6.03628 4.50586 4.98391 6.1318 4.12815C7.7231 3.29063 9.97335 2.75 12.5 2.75C15.0267 2.75 17.2769 3.29063 18.8682 4.12815C20.4941 4.98391 21.25 6.03628 21.25 7Z" fill="white" stroke="#2F2F2F" stroke-width="1.5" stroke-linecap="round" stroke-linejoin="round"/>
</svg>
