<svg width="104" height="87" viewBox="0 0 104 87" fill="none" xmlns="http://www.w3.org/2000/svg">
    <path
        d="M2.11781 79.9297C2.07836 79.8154 2.07672 79.7125 2.11288 79.621C2.13315 79.5161 2.1747 79.4021 2.23753 79.2788C2.30036 79.1555 2.34319 79.0561 2.36602 78.9805C2.32274 78.8223 2.34712 78.6803 2.43917 78.5545C2.54455 78.4127 2.60738 78.2895 2.62765 78.1846C2.67624 77.562 2.97276 76.6601 3.51721 75.4788C4.06038 74.2829 4.37507 73.5045 4.46128 73.1436C4.47333 73.1131 4.48219 73.0461 4.48785 72.9426C4.50813 72.8377 4.52365 72.7628 4.53443 72.7176C4.55854 72.6566 4.58073 72.5737 4.601 72.4689C4.63461 72.3482 4.66411 72.2646 4.68949 72.2182C4.72949 72.1706 4.77552 72.1076 4.82757 72.0295C4.87834 71.9367 4.93359 71.8951 4.99331 71.9046C5.05303 71.914 5.12673 71.915 5.21439 71.9073C5.29822 71.8558 5.28772 71.8199 5.18289 71.7996C5.06344 71.7806 4.98719 71.7505 4.95414 71.7092C4.91852 71.6387 4.89944 71.5889 4.89688 71.5596C4.90766 71.5145 4.92382 71.4469 4.94537 71.3566C4.98026 71.2505 5.00373 71.1822 5.01578 71.1517C5.08355 70.7483 5.15395 70.5434 5.22701 70.537C5.25623 70.5344 5.29723 70.5824 5.35001 70.6808C5.39512 70.6916 5.43165 70.6884 5.45959 70.6712C5.50087 70.6382 5.54214 70.6051 5.58342 70.572C5.62342 70.5244 5.65739 70.492 5.68533 70.4748C5.80222 70.4646 5.88066 70.4356 5.92066 70.388C5.97399 70.3244 6.03654 70.2821 6.10832 70.2611C6.14393 70.3316 6.13571 70.4059 6.08366 70.4841C6.04622 70.561 6.02814 70.6068 6.02942 70.6214C6.03325 70.6652 6.04028 70.7456 6.05051 70.8624C6.07407 70.9634 6.0811 71.0438 6.0716 71.1035C6.04438 71.2973 5.98411 71.4498 5.89079 71.561C5.81901 71.582 5.78951 71.6656 5.8023 71.8117C5.82969 71.9565 5.84466 72.0435 5.84722 72.0728C5.82895 72.3688 5.74466 72.7516 5.59435 73.2212C5.45865 73.6895 5.38194 73.9906 5.36422 74.1247C5.48111 74.1144 5.60274 74.0744 5.72913 74.0044C5.77168 73.986 5.85268 73.9862 5.97212 74.0052C6.09157 74.0242 6.1732 74.0318 6.21704 74.028C6.23165 74.0267 6.35456 74.0012 6.58578 73.9515C6.81572 73.8873 6.99452 73.8275 7.12218 73.7721C7.24856 73.7022 7.32984 73.6214 7.366 73.5299C7.43011 73.4213 7.54599 73.3154 7.71365 73.2124C7.77082 73.1927 7.8499 73.1711 7.9509 73.1475C8.05062 73.1093 8.12842 73.0731 8.18431 73.0388C8.50629 72.8486 8.84728 72.5391 9.20726 72.1101C9.58057 71.6652 9.85352 71.2511 10.0261 70.868C10.1359 70.6081 10.1325 70.2329 10.016 69.7426C9.92176 69.3386 9.77894 68.9683 9.58754 68.6317C9.39487 68.2805 9.13133 67.8766 8.79693 67.42C8.47586 66.9475 8.22949 66.5715 8.05782 66.2921C8.02348 66.2362 7.98376 66.2029 7.93865 66.1921C7.90815 66.1801 7.85637 66.1772 7.78332 66.1836C7.71026 66.19 7.65912 66.1945 7.6299 66.197C7.5689 66.1729 7.50726 66.1415 7.44498 66.1028C7.38143 66.0495 7.33568 66.0314 7.30773 66.0486C7.29312 66.0498 7.22737 66.0556 7.11049 66.0658C6.81316 66.0329 6.64988 66.0178 6.62066 66.0203C6.47455 66.0331 6.31164 66.1063 6.13192 66.2398L5.67277 66.5449C5.63022 66.5634 5.581 66.5898 5.52511 66.6241C5.46795 66.6438 5.4327 66.6616 5.41937 66.6775C5.40603 66.6934 5.38667 66.7246 5.36129 66.7709C5.33462 66.8027 5.34576 66.8459 5.39471 66.9005C5.45132 67.0428 5.17189 67.2145 4.55641 67.4155C4.54179 67.4168 4.51321 67.4267 4.47066 67.4451C4.37094 67.4833 4.2925 67.5123 4.23533 67.532C4.17817 67.5517 4.13022 67.5927 4.0915 67.655C4.05278 67.7173 4.04393 67.7843 4.06493 67.8561C4.08465 67.9132 4.0999 67.9193 4.11068 67.8741C4.12145 67.829 4.13415 67.8058 4.14876 67.8046C4.24793 67.9284 4.32171 68.0986 4.37011 68.3152C4.34728 68.3908 4.31458 68.4378 4.27203 68.4563C4.24409 68.4735 4.21487 68.476 4.18437 68.464C4.15386 68.4519 4.13003 68.4319 4.11286 68.404L4.06711 68.3859L4.09177 68.1629C4.04794 68.1667 3.99333 68.2157 3.92795 68.3097C3.90128 68.3415 3.89051 68.3866 3.89562 68.4451C3.83717 68.4502 3.7927 68.4467 3.7622 68.4346C3.74504 68.4067 3.73581 68.3854 3.73453 68.3708C3.73198 68.3416 3.72878 68.3051 3.72495 68.2612C3.73572 68.2161 3.73983 68.179 3.73728 68.1497C3.79572 68.1446 3.83161 68.1341 3.84494 68.1182C3.85699 68.0877 3.85444 68.0585 3.83727 68.0306C3.81883 67.988 3.82294 67.9508 3.8496 67.9191L4.15424 67.3624C4.51568 67.2866 4.7164 67.2249 4.75639 67.1772C4.76973 67.1613 4.79831 67.1515 4.84214 67.1476C4.89675 67.0987 4.93008 67.059 4.94214 67.0285C4.85064 66.9923 4.78708 66.939 4.75147 66.8685C4.73046 66.7967 4.73804 66.7151 4.77421 66.6236C4.82498 66.5308 4.87575 66.438 4.92653 66.3452C4.99191 66.2512 5.0573 66.1571 5.12268 66.063C5.18807 65.969 5.22679 65.9067 5.23884 65.8762C5.54604 65.3488 6.12208 65.0334 6.96695 64.93C6.97845 65.0615 7.00612 65.1253 7.04995 65.1215C7.06456 65.1202 7.11379 65.0938 7.19762 65.0423C7.29606 64.9895 7.38244 64.9673 7.45678 64.9755C7.66388 64.9868 7.9225 65.082 8.23261 65.2609C8.41944 65.3771 8.60947 65.5298 8.8027 65.719C8.99465 65.8936 9.14751 66.0422 9.26129 66.1647C9.37507 66.2873 9.51844 66.4956 9.69139 66.7896C9.87896 67.0824 9.99118 67.2713 10.0281 67.3564C10.0783 67.4257 10.1997 67.6359 10.3924 67.9871L10.6834 68.5358C10.9058 68.7225 11.0394 69.0715 11.0841 69.5829C11.1212 70.0066 11.1502 70.2543 11.1712 70.3261C11.2145 70.4843 11.1901 70.6263 11.0981 70.7521C11.006 70.8779 10.9572 70.9926 10.9515 71.0962C10.951 71.2582 10.9212 71.4227 10.8622 71.5898C10.8019 71.7423 10.7391 71.8656 10.6737 71.9597C10.623 72.0525 10.5322 72.1929 10.4014 72.381C10.2694 72.5545 10.1767 72.673 10.1234 72.7366C10.0326 72.8771 9.84209 73.0557 9.55188 73.2725C9.275 73.4733 9.10515 73.6354 9.04232 73.7587C8.94388 73.8115 8.79813 73.9126 8.60509 74.062C8.41204 74.2114 8.24438 74.3144 8.1021 74.371C8.00366 74.4238 7.87125 74.509 7.70487 74.6266C7.55182 74.7283 7.44735 74.7963 7.39146 74.8307C7.34252 74.7761 7.30946 74.7348 7.29229 74.7068C7.28846 74.663 7.29987 74.6252 7.32654 74.5934C7.35321 74.5617 7.38845 74.5438 7.43229 74.54C7.47484 74.5216 7.5247 74.5025 7.58187 74.4828C7.65236 74.4471 7.70158 74.4208 7.72953 74.4036C7.74286 74.3877 7.7708 74.3705 7.81336 74.3521C7.85591 74.3336 7.89116 74.3158 7.9191 74.2987C7.94705 74.2815 7.97499 74.2643 8.00293 74.2472C8.04421 74.2141 8.07152 74.1896 8.08485 74.1737C8.11279 74.1566 8.14073 74.1394 8.16868 74.1222C8.19534 74.0905 8.21534 74.0666 8.22867 74.0507C8.24073 74.0202 8.24612 73.9977 8.24484 73.9831C8.25689 73.9526 8.25498 73.9307 8.23909 73.9173C8.23653 73.8881 8.22667 73.8595 8.2095 73.8316C7.49685 74.1 7.0462 74.2499 6.85754 74.2811C6.68221 74.2965 6.49582 74.4379 6.29839 74.7055C6.28506 74.7214 6.09959 74.7891 5.74199 74.9087C5.59844 74.9507 5.57433 75.0117 5.66966 75.0917C5.75733 75.0841 5.81294 75.1307 5.8365 75.2317C5.77934 75.2514 5.62848 75.2941 5.38393 75.3597C5.13938 75.4252 4.95199 75.4711 4.82178 75.4972C4.75511 75.5766 4.72023 75.6827 4.71712 75.8155C4.71402 75.9483 4.69438 76.0604 4.65822 76.1519C4.45768 76.5523 4.24006 77.0939 4.00537 77.777C3.7694 78.4454 3.56986 78.9414 3.40676 79.2648C3.38266 79.3258 3.30047 79.4803 3.1602 79.7281C3.03454 79.9746 2.94094 80.1669 2.87939 80.3048C2.74917 80.3309 2.63293 80.3484 2.53065 80.3574C2.44171 80.3504 2.36546 80.3203 2.3019 80.2669C2.23706 80.199 2.1757 80.0866 2.11781 79.9297ZM3.9304 69.3475C3.81351 69.3577 3.69471 69.346 3.57399 69.3124C3.46788 69.2775 3.46149 69.2045 3.55481 69.0932C3.66604 69.1866 3.74101 69.2021 3.77973 69.1398C3.59162 69.009 3.54258 68.7851 3.63262 68.4681C3.6644 68.4947 3.74193 68.5395 3.86521 68.6023C3.98849 68.6651 4.06793 68.7318 4.10354 68.8023C4.1881 68.9274 4.20975 69.0065 4.16847 69.0395C4.1418 69.0713 4.09131 69.0831 4.01697 69.0749C3.94136 69.052 3.90611 69.0699 3.91123 69.1283C3.94045 69.1257 3.98556 69.1365 4.04656 69.1606C4.04912 69.1898 4.03706 69.2203 4.0104 69.2521C3.98373 69.2839 3.97104 69.3071 3.97232 69.3217L4.17723 69.3921C4.15568 69.4823 4.11029 69.5526 4.04107 69.6028C4.03852 69.5736 4.01341 69.539 3.96574 69.499C3.9314 69.4431 3.91962 69.3926 3.9304 69.3475ZM5.33249 69.9757C5.2861 69.9503 5.29112 69.8394 5.34756 69.6431C5.324 69.5421 5.3408 69.4817 5.39797 69.462C5.45385 69.4277 5.5018 69.3867 5.54179 69.339C5.85757 69.4144 5.97518 69.5808 5.89464 69.8381C5.83364 69.814 5.78406 69.7521 5.74589 69.6524C5.72488 69.5806 5.68105 69.5844 5.61439 69.6639C5.58772 69.6957 5.58361 69.7328 5.60206 69.7754C5.63384 69.8021 5.6437 69.8306 5.63164 69.8611C5.57704 69.9101 5.53256 69.9066 5.49823 69.8507C5.47851 69.7936 5.42326 69.8352 5.33249 69.9757ZM6.01183 75.2164C5.98699 75.1008 6.04571 75.0147 6.18799 74.958C6.34487 74.9002 6.52559 74.8623 6.73014 74.8444C6.93341 74.8119 7.06236 74.7711 7.11696 74.7222C7.16719 74.7914 7.20152 74.8473 7.21997 74.8898C7.08847 74.9014 6.8652 74.9577 6.55015 75.0589C6.2351 75.16 6.05566 75.2125 6.01183 75.2164ZM3.69808 69.7211C3.60403 69.6557 3.58302 69.584 3.63508 69.5058C3.73607 69.4822 3.80182 69.4765 3.83232 69.4885C3.86282 69.5006 3.87396 69.5438 3.86574 69.6181C3.83652 69.6207 3.80127 69.6385 3.76 69.6715C3.73333 69.7033 3.71269 69.7199 3.69808 69.7211ZM5.63383 70.391C5.468 70.3466 5.46416 70.3028 5.62233 70.2595C5.80533 70.3318 5.80916 70.3756 5.63383 70.391ZM3.92108 69.7458C3.90391 69.7178 3.90264 69.7032 3.91725 69.702C3.94519 69.6848 3.97441 69.6822 4.00491 69.6943C4.03541 69.7063 4.06527 69.7111 4.09449 69.7085C4.09449 69.7085 4.10244 69.7152 4.11833 69.7285C4.11961 69.7431 4.12819 69.7571 4.14408 69.7704C4.02719 69.7807 3.95286 69.7725 3.92108 69.7458ZM11.2025 79.2895C11.0721 78.977 10.9983 78.8068 10.9812 78.7788C10.9773 78.735 11.0058 78.5558 11.0666 78.2413C11.151 78.0278 11.2623 77.7016 11.4006 77.2625C11.5535 76.8222 11.6895 76.4422 11.8088 76.1226C11.9414 75.7871 12.0845 75.4875 12.2381 75.2238C12.3517 75.0077 12.4215 74.7955 12.4474 74.5871C12.4867 74.3628 12.4872 74.2008 12.4491 74.1011C12.4255 74.0001 12.4251 73.9118 12.448 73.8362C12.46 73.8057 12.4682 73.7314 12.4726 73.6132C12.4903 73.4791 12.5259 73.3803 12.5792 73.3168C12.6579 73.2068 12.7557 73.1467 12.8726 73.1365C12.9749 73.1276 13.0877 73.1545 13.2109 73.2173C13.2719 73.2414 13.3183 73.2668 13.3501 73.2935C13.3819 73.3202 13.399 73.3481 13.4016 73.3773C13.4188 73.4053 13.4286 73.4339 13.4312 73.4631C13.4325 73.4777 13.4277 73.5075 13.4169 73.5527C13.4208 73.5965 13.4246 73.6403 13.4284 73.6842C13.4323 73.728 13.4621 73.7327 13.518 73.6984C13.5606 73.68 13.5892 73.6701 13.6038 73.6688C13.6197 73.6821 13.6229 73.7187 13.6134 73.7784C13.6185 73.8368 13.603 73.9118 13.5668 74.0033C13.544 74.0789 13.5119 74.1333 13.4706 74.1663C13.444 74.1981 13.4472 74.2346 13.4802 74.2759C13.5279 74.3159 13.5457 74.3511 13.5336 74.3816C13.5216 74.4121 13.4949 74.4439 13.4536 74.477C13.4257 74.4941 13.3984 74.5186 13.3717 74.5504C13.3438 74.5676 13.3165 74.592 13.2898 74.6238C13.2632 74.6556 13.2432 74.6794 13.2298 74.6953C13.2311 74.7099 13.2403 74.7312 13.2575 74.7591C13.2734 74.7725 13.2953 74.7706 13.3232 74.7534C13.3512 74.7362 13.3725 74.727 13.3871 74.7257C13.415 74.7086 13.4303 74.7146 13.4328 74.7438C13.4469 74.9045 13.433 75.0824 13.3912 75.2775C13.3493 75.4725 13.297 75.6317 13.2342 75.755C13.1847 75.8624 13.1038 76.0314 12.9915 76.262C12.8938 76.4914 12.8262 76.6446 12.7887 76.7215C12.6415 77.0582 12.5508 77.368 12.5167 77.6507C12.5046 77.6812 12.3908 77.9783 12.1751 78.5419C12.1389 78.6334 12.112 78.7462 12.0942 78.8802C12.0765 79.0143 12.0642 79.1258 12.0573 79.2147C12.0503 79.3037 12.0148 79.4025 11.9507 79.5111C11.8999 79.6039 11.8186 79.6846 11.7069 79.7533C11.623 79.8048 11.5242 79.7693 11.4104 79.6467C11.3113 79.5229 11.242 79.4038 11.2025 79.2895ZM15.7708 66.6332C15.6952 66.6103 15.6549 66.5697 15.6497 66.5113C15.6446 66.4528 15.6535 66.3858 15.6763 66.3102C15.6979 66.22 15.7074 66.1602 15.7048 66.131C15.5863 65.4494 15.6842 64.9697 15.9985 64.6919C16.1223 64.5928 16.25 64.5374 16.3815 64.5259C16.4692 64.5183 16.5892 64.5446 16.7417 64.6048C16.8345 64.6556 16.9724 64.7172 17.1554 64.7895C17.3371 64.8472 17.4585 64.8881 17.5195 64.9122C17.611 64.9484 17.6752 65.009 17.7121 65.0941C17.749 65.1792 17.7833 65.2351 17.8151 65.2618C17.9848 65.35 18.0268 65.4935 17.9411 65.6924C17.9037 65.7693 17.863 65.8097 17.8192 65.8135C17.79 65.8161 17.7204 65.778 17.6104 65.6993C17.5005 65.6206 17.4169 65.5911 17.3598 65.6108C17.3305 65.6134 17.3105 65.6372 17.2998 65.6823C17.3023 65.7115 17.2811 65.7207 17.2359 65.71C17.2054 65.6979 17.1724 65.6566 17.1368 65.5861C17.1012 65.5156 17.0608 65.475 17.0157 65.4642C16.9865 65.4668 16.9512 65.4846 16.9099 65.5176C16.882 65.5348 16.8528 65.5374 16.8223 65.5253C16.7905 65.4986 16.7654 65.464 16.7469 65.4215C16.7272 65.3643 16.7313 65.3272 16.7593 65.31C16.7885 65.3074 16.8183 65.3122 16.8488 65.3242C16.8781 65.3217 16.9006 65.3271 16.9165 65.3404C16.9324 65.3537 16.947 65.3525 16.9603 65.3366C16.987 65.3048 16.9892 65.2457 16.9669 65.1593C16.9593 65.0716 16.9329 65.0224 16.8878 65.0117C16.8414 64.9863 16.7995 65.012 16.762 65.0889C16.7246 65.1658 16.6912 65.2055 16.662 65.2081C16.6328 65.2106 16.6029 65.2059 16.5724 65.1938C16.5553 65.1659 16.5381 65.1379 16.5209 65.11C16.5038 65.0821 16.4866 65.0541 16.4694 65.0262C16.4523 64.9982 16.4291 64.9855 16.3998 64.9881C16.3852 64.9894 16.3652 65.0132 16.3398 65.0596C16.2199 65.2026 16.1897 65.2788 16.2494 65.2883C16.2787 65.2858 16.3298 65.2813 16.4029 65.2749C16.4759 65.2685 16.5204 65.272 16.5363 65.2853C16.6462 65.364 16.6831 65.4492 16.6469 65.5407C16.6241 65.6163 16.5708 65.6798 16.487 65.7313L16.144 65.8497C16.0176 65.9196 15.9376 66.015 15.904 66.1357C15.8837 66.2405 15.8536 66.3168 15.8136 66.3644C15.8002 66.3803 15.8047 66.4314 15.827 66.5178C15.8639 66.6029 15.8604 66.6474 15.8166 66.6513C15.802 66.6525 15.7867 66.6465 15.7708 66.6332ZM16.1694 67.1504C16.1097 67.1409 16.0627 67.1082 16.0283 67.0523C16.0073 66.9805 16.0321 66.9269 16.1026 66.8912C16.2277 66.8067 16.296 66.8301 16.3075 66.9616C16.2593 67.0836 16.2133 67.1466 16.1694 67.1504ZM16.3228 67.137C16.3362 67.1211 16.3489 67.0979 16.3609 67.0674C16.3876 67.0356 16.4076 67.0118 16.4209 66.9959C16.5009 66.9006 16.5473 66.9259 16.5601 67.0721C16.5665 67.1451 16.4874 67.1667 16.3228 67.137ZM15.8831 77.9525C15.8614 77.7041 15.8622 77.4611 15.8856 77.2235C15.9718 75.6848 16.4568 74.413 17.3406 73.4081C17.5832 73.1514 17.9089 72.8358 18.3178 72.4614C18.7267 72.087 19.0116 71.8927 19.1723 71.8787C19.1869 71.8774 19.2472 71.8942 19.3534 71.9291C19.4728 71.9481 19.5379 71.935 19.5487 71.8899C19.7138 71.7577 20.0009 71.6737 20.41 71.6379C20.8483 71.5995 21.0752 71.668 21.0905 71.8434C21.0905 71.8434 21.0679 71.838 21.0228 71.8272C20.7547 71.7918 20.6232 71.8033 20.6283 71.8617C20.615 71.8776 20.6163 71.8922 20.6322 71.9055C20.6652 71.9468 20.6392 71.9859 20.5541 72.0228C20.4239 72.0489 20.3057 72.0445 20.1996 72.0096C20.0922 71.9601 19.9614 71.979 19.807 72.0661C19.6673 72.1519 19.6264 72.2733 19.6843 72.4301C19.692 72.5178 19.6983 72.5909 19.7035 72.6493C19.7219 72.6919 19.6899 72.7462 19.6073 72.8123C19.5394 72.8771 19.4848 72.9261 19.4435 72.9592C19.4009 72.9776 19.3231 73.0138 19.2101 73.0679C19.1103 73.1061 19.0399 73.1417 18.9986 73.1747C18.7871 73.2816 18.628 73.3986 18.5213 73.5257C18.4147 73.6528 18.2966 73.8177 18.1671 74.0204C18.051 74.2073 17.9262 74.3801 17.7929 74.539C17.6557 74.6541 17.5405 74.7672 17.4472 74.8784C17.3672 74.9738 17.2964 75.0904 17.2348 75.2283C17.1879 75.3649 17.1537 75.4783 17.1321 75.5685C17.1106 75.6588 17.0801 75.816 17.0409 76.0403C17.0003 76.2499 16.9712 76.4218 16.9535 76.5559C16.7918 77.2325 16.7225 77.7023 16.7455 77.9653C16.7992 78.579 17.1621 78.8564 17.8342 78.7976C18.5794 78.7324 19.1183 78.5822 19.4511 78.347C19.6175 78.2294 20.0973 77.9077 20.8904 77.3819C21.6983 76.8548 22.3431 76.4009 22.8251 76.0201C23.3058 75.6247 23.7122 75.221 24.0442 74.8092C24.0601 74.8225 24.1097 74.8845 24.193 74.995C24.2909 75.1042 24.3729 75.2001 24.439 75.2826C24.5184 75.3493 24.5648 75.3747 24.5782 75.3588C24.6969 75.2012 24.7159 75.0817 24.6351 75.0004C24.5544 74.9192 24.4597 74.8465 24.3511 74.7824C24.2557 74.7024 24.2287 74.6458 24.27 74.6128C24.583 74.3204 25.0049 73.8418 25.5356 73.177C26.0797 72.4963 26.5003 72.0031 26.7975 71.6974C27.8597 70.5444 28.508 69.8767 28.7423 69.6943C28.7703 69.6771 28.8001 69.6819 28.8319 69.7085C28.8783 69.7339 28.9088 69.746 28.9234 69.7447C29.0244 69.7211 29.0962 69.7001 29.1387 69.6817C29.18 69.6486 29.2054 69.6022 29.2149 69.5425C29.239 69.4815 29.2625 69.4132 29.2853 69.3376C29.3081 69.262 29.3649 69.154 29.4557 69.0135C29.5598 68.8572 29.6852 68.6916 29.8318 68.5168C29.8718 68.4692 29.9255 68.4939 29.9929 68.5911C30.059 68.6736 30.1417 68.7768 30.2408 68.9007C30.3533 69.0086 30.4607 69.0581 30.563 69.0491C30.6653 69.0402 30.7498 68.996 30.8164 68.9165C30.9485 68.743 30.9516 68.6103 30.8257 68.5182C30.6986 68.4116 30.5575 68.3135 30.4025 68.224C30.262 68.1332 30.2258 68.0554 30.2937 67.9906C30.5281 67.8081 30.828 67.4506 31.1937 66.9181C31.5727 66.3696 31.9012 66.0022 32.1794 65.816C32.3032 65.7168 32.5131 65.507 32.8089 65.1867C33.1048 64.8664 33.2422 64.6703 33.2212 64.5985C33.2028 64.556 33.1631 64.5226 33.1021 64.4985C33.0544 64.4585 33.0293 64.4239 33.0267 64.3947C33.0375 64.3496 33.0975 64.2781 33.2067 64.1802C33.3331 64.1103 33.4677 63.966 33.6105 63.7474C33.7521 63.5141 33.8295 63.3896 33.8428 63.3737C34.1526 62.8755 34.4682 62.6123 34.7896 62.5842C35.3896 63.047 35.5425 63.3648 35.2485 63.5378C34.8986 63.7451 34.5849 64.0302 34.3075 64.3931C34.0434 64.7401 33.7536 65.2145 33.4382 65.8162C33.1215 66.4034 32.9378 66.7434 32.887 66.8362C32.6357 67.3293 32.4462 67.6035 32.3185 67.6588C32.1229 67.779 31.9404 67.9643 31.7709 68.2147C31.616 68.4638 31.4589 68.772 31.2997 69.1393C31.1391 69.4919 31.0201 69.7306 30.9427 69.8551C30.8265 70.0419 30.6263 70.3613 30.3419 70.8131C30.0563 71.2503 29.8113 71.6472 29.6069 72.0037C29.4025 72.3602 29.2407 72.6983 29.1214 73.0179C29.0599 73.1558 28.9663 73.348 28.8406 73.5946C28.7283 73.8252 28.6541 73.9863 28.6179 74.0778C28.6204 74.107 28.5614 74.1048 28.4406 74.0712C28.3345 74.0363 28.2211 74.0021 28.1004 73.9685C27.9943 73.9336 27.9358 73.9387 27.9251 73.9838C27.8876 74.0607 27.9588 74.2017 28.1387 74.4068C28.3174 74.5973 28.3946 74.7231 28.3705 74.7841C28.0182 75.3007 27.8447 75.7576 27.85 76.1546C27.8766 76.1229 28.0469 76.0491 28.3606 75.9333C28.4603 75.8951 28.6302 75.733 28.8702 75.447C29.1102 75.161 29.3324 75.0091 29.537 74.9912C29.5753 75.4295 29.6895 75.6404 29.8794 75.6237C29.9379 75.6186 29.9791 75.5856 30.0033 75.5246C30.0407 75.4477 30.0324 75.3527 29.9783 75.2397C29.9389 75.1253 29.8489 75.0228 29.7085 74.932C29.6462 74.8933 29.6678 74.8031 29.7731 74.6613C29.8772 74.505 29.9712 74.4011 30.055 74.3496C30.1655 74.2663 30.4659 73.9971 30.9561 73.542C31.4609 73.0856 31.942 72.7785 32.3993 72.6207C32.4844 72.5838 32.6314 72.4973 32.8403 72.3613C33.0493 72.2252 33.2255 72.1362 33.3691 72.0942C34.0443 71.9026 34.499 72.1352 34.7331 72.7919C34.7751 72.9355 34.7447 73.0927 34.6419 73.2637C34.5536 73.4334 34.4511 73.5233 34.3342 73.5335C34.1881 73.5463 34.0737 73.4165 33.9909 73.144C33.3042 73.204 32.237 73.879 30.7892 75.1687C30.4514 75.3455 30.3199 75.5263 30.395 75.7111C30.4319 75.7962 30.4933 75.9087 30.5791 76.0484C30.6795 76.1868 30.7482 76.2986 30.7851 76.3837C30.7559 76.3863 30.6882 76.3701 30.5821 76.3352C30.4906 76.299 30.4229 76.2829 30.3791 76.2867C30.3207 76.2918 30.3032 76.3449 30.3268 76.4459C30.3478 76.5177 30.3755 76.5815 30.4098 76.6374C30.4428 76.6786 30.468 76.7133 30.4851 76.7412C30.501 76.7545 30.5315 76.7666 30.5766 76.7774C30.6363 76.7869 30.6662 76.7916 30.6662 76.7916C30.6808 76.7903 30.7246 76.7865 30.7977 76.7801L30.8854 76.7724C31.0461 76.7584 31.1481 76.8304 31.1914 76.9886C31.3199 77.4485 31.6792 78.0207 32.2691 78.7052C32.859 79.3897 33.3709 79.7719 33.8049 79.8517C33.8354 79.8638 33.9395 79.8767 34.1174 79.8906C34.2966 79.9191 34.4319 79.9514 34.5234 79.9876C34.5629 80.1019 34.5271 80.2817 34.416 80.527C34.3253 80.6675 34.1849 80.746 33.995 80.7626C33.7466 80.7843 33.4461 80.7149 33.0934 80.5544C32.742 80.4085 32.4637 80.2561 32.2584 80.0974C31.49 79.561 30.7818 78.5335 30.1336 77.0149C30.0368 76.5817 29.9535 76.3019 29.8835 76.1755C29.8625 76.1037 29.8228 76.0704 29.7644 76.0755C29.7205 76.0793 29.6646 76.1137 29.5967 76.1785C29.5434 76.242 29.484 76.3209 29.4186 76.4149C29.3532 76.509 29.3139 76.5639 29.3005 76.5798C28.6555 77.2841 27.975 77.6675 27.259 77.7301C26.9522 77.757 26.7783 77.5366 26.7374 77.0691C26.7004 76.6454 26.7633 76.1025 26.9262 75.4404C27.1025 74.7625 27.2528 74.2929 27.3772 74.0318C27.4774 73.8316 27.6564 73.5215 27.9141 73.1014C28.1851 72.6655 28.3949 72.2864 28.5434 71.9643C28.6919 71.6421 28.7899 71.3317 28.8374 71.0331C28.7351 71.042 28.536 71.2067 28.2401 71.527C27.943 71.8327 27.6417 72.1756 27.3364 72.5557C27.0297 72.9212 26.8211 73.1455 26.7106 73.2288C26.2725 73.6058 25.9973 73.9096 25.8849 74.1402L25.8315 74.0345C25.7621 73.7461 25.6836 73.6058 25.5959 73.6134C25.5229 73.6198 25.4356 73.7158 25.334 73.9013C25.3353 73.916 25.3801 74.0077 25.4685 74.1767C25.5556 74.331 25.5925 74.4161 25.5792 74.432C25.2232 75.2434 24.3962 76.1403 23.0982 77.1225C21.799 78.09 20.5421 78.8699 19.3278 79.462C18.8051 79.7138 18.3757 79.8545 18.0397 79.8839C17.7474 79.9094 17.4183 79.8499 17.0523 79.7052C16.3496 79.4134 15.9598 78.8291 15.8831 77.9525ZM21.5315 73.3507C21.44 73.3145 21.3069 73.2231 21.1321 73.0764C20.972 72.9285 20.896 72.8173 20.9042 72.743C20.9086 72.6249 20.9374 72.534 20.9908 72.4704C21.0587 72.4056 21.0383 72.3411 20.9297 72.277L20.9716 72.2513C20.9995 72.2341 21.0348 72.2163 21.0773 72.1979C21.1332 72.1635 21.1831 72.1444 21.2269 72.1406C21.4315 72.1227 21.5523 72.3256 21.5894 72.7493C21.5908 73.1025 21.5715 73.303 21.5315 73.3507ZM44.3614 76.1897C44.2527 76.1256 44.1856 75.9474 44.16 75.6552C44.1332 75.3484 44.1366 75.1346 44.1702 75.0139C44.3146 74.3093 44.4351 73.835 44.5315 73.591L45.0674 72.3957C45.5428 71.6033 45.9339 71.1936 46.2408 71.1668C46.2966 71.1325 46.3487 71.0543 46.3969 70.9323C46.4438 70.7957 46.5245 70.7077 46.6388 70.6682C46.6401 70.6828 46.676 70.6723 46.7465 70.6367C46.817 70.6011 46.8875 70.5655 46.958 70.5299C47.0272 70.4796 47.0691 70.4539 47.0837 70.4526C47.2075 70.3534 47.5135 70.4003 48.0015 70.5932C48.6432 70.8609 48.8292 71.2201 48.5595 71.6706C48.4459 71.8867 48.3789 72.0471 48.3587 72.152C48.341 72.286 48.2975 72.3781 48.2283 72.4284C48.1578 72.464 48.0949 72.418 48.0395 72.2903C48.1564 72.2801 48.2209 72.2597 48.2329 72.2292C48.2583 72.1828 48.2592 72.1091 48.2357 72.0081C48.2293 71.9351 48.208 71.9443 48.1718 72.0358C48.1223 72.1432 48.0744 72.1842 48.028 72.1588C47.9352 72.108 47.8599 72.0042 47.802 71.8473C47.7428 71.6758 47.7047 71.5761 47.6875 71.5482C47.6042 71.4377 47.4435 71.4517 47.2053 71.5903C46.9697 71.7582 46.8307 71.8513 46.7881 71.8698C46.6228 71.6634 46.4995 71.6006 46.4183 71.6813C46.3903 71.6984 46.4784 71.7791 46.6824 71.9232C46.7764 71.9886 46.8022 72.0305 46.7596 72.0489C46.503 72.145 46.31 72.2944 46.1805 72.4971C46.0656 72.6986 45.9618 72.9432 45.8692 73.231C45.7754 73.5042 45.6697 73.727 45.5523 73.8992C45.4348 74.0714 45.3461 74.4031 45.286 74.8942C45.2175 75.121 45.1995 75.3361 45.232 75.5394C45.2632 75.728 45.4052 75.7524 45.658 75.6125C45.7006 75.5941 45.765 75.5737 45.8514 75.5514C45.9365 75.5145 45.9997 75.4795 46.041 75.4465C46.5148 75.14 47.0437 74.6226 47.6277 73.8943C47.7077 73.799 47.8118 73.6426 47.9401 73.4253C48.0829 73.2067 48.201 73.0418 48.2943 72.9305C48.3343 72.8829 48.4089 72.8101 48.5181 72.7122C48.6407 72.5984 48.7207 72.5031 48.7581 72.4262C48.8101 72.348 48.8457 72.2492 48.8647 72.1298C48.9408 71.9906 49.0888 71.8304 49.3085 71.6493C49.5282 71.4681 49.672 71.3451 49.74 71.2802C49.9825 71.0235 50.1829 70.8734 50.341 70.8302C50.442 70.8066 50.5354 70.8647 50.6213 71.0044C50.7204 71.1282 50.791 71.2619 50.833 71.4055C50.8566 71.5065 50.8649 71.6014 50.858 71.6904C50.8497 71.7647 50.8215 71.8629 50.7733 71.9849C50.7384 72.091 50.7162 72.1739 50.7067 72.2336C50.6623 72.3995 50.545 72.741 50.3547 73.2582C50.1777 73.7595 50.082 74.1801 50.0676 74.52C50.0606 74.609 50.1335 74.8529 50.2862 75.2518C50.4547 75.664 50.6845 75.85 50.9754 75.8098C51.0193 75.806 51.1203 75.7824 51.2784 75.7391C51.4512 75.6946 51.5741 75.6691 51.6472 75.6627C51.7933 75.6499 51.8489 75.6966 51.814 75.8027C51.802 75.8332 51.7654 75.8364 51.7044 75.8123C51.6421 75.7736 51.6043 75.7621 51.591 75.778C51.5364 75.827 51.5275 75.894 51.5644 75.9791C51.6159 76.0629 51.6064 76.1227 51.5359 76.1583L51.1825 76.41C50.8377 76.6758 50.5525 76.7817 50.327 76.7278C49.7259 76.589 49.3302 76.1893 49.14 75.5287C49.1043 75.4582 49.0757 75.2988 49.0539 75.0504C49.0468 74.8007 49.0401 74.6394 49.0337 74.5663C49.026 74.4786 49.0276 74.4123 49.0383 74.3671C49.0637 74.3208 49.1177 74.2645 49.2002 74.1984C49.2961 74.1164 49.3507 74.0674 49.3641 74.0516C49.392 74.0344 49.426 74.002 49.466 73.9543C49.5206 73.9054 49.5612 73.865 49.5879 73.8332C49.6292 73.8002 49.6698 73.7598 49.7098 73.7121C49.7498 73.6645 49.7758 73.6254 49.7879 73.5949C49.8133 73.5485 49.8313 73.5027 49.8421 73.4576C49.8675 73.4112 49.8716 73.3741 49.8544 73.3461C49.836 73.3036 49.8102 73.2617 49.7772 73.2204L49.6342 73.1004C49.6196 73.1017 49.6075 73.1322 49.598 73.1919C49.6019 73.2357 49.6016 73.3167 49.5972 73.4349C49.5915 73.5384 49.5706 73.636 49.5345 73.7275C49.5224 73.758 49.4852 73.7539 49.423 73.7151C49.3753 73.6751 49.3057 73.6371 49.2142 73.6009C49.1373 73.5635 49.0503 73.5784 48.9531 73.6458C48.9265 73.6776 48.8852 73.7107 48.8293 73.745C48.7868 73.7634 48.7588 73.7806 48.7455 73.7965C48.7468 73.8111 48.7493 73.8403 48.7531 73.8842C48.7767 73.9852 48.5786 74.2454 48.1589 74.6649C47.7526 75.0685 47.4589 75.3298 47.2779 75.4487C47.1941 75.5002 47.1137 75.5072 47.0368 75.4698C46.9599 75.4323 46.8935 75.4308 46.8376 75.4651C46.7964 75.4982 46.7557 75.5385 46.7157 75.5862C46.6745 75.6193 46.6399 75.6444 46.6119 75.6615C46.5973 75.6628 46.5608 75.666 46.5023 75.6711C46.1624 75.6567 45.997 75.7006 46.0059 75.8029C46.0098 75.8467 46.0361 75.896 46.0851 75.9506C46.1169 75.9772 46.1455 75.9674 46.1708 75.921C46.1962 75.8746 46.2149 75.8361 46.227 75.8056C46.2524 75.7593 46.2822 75.764 46.3166 75.8199C46.3681 75.9037 46.3811 75.9688 46.3558 76.0152L46.3777 76.0133C46.3923 76.012 46.4142 76.0101 46.4434 76.0076C46.4726 76.005 46.5085 75.9945 46.5511 75.976C46.6083 75.9563 46.6521 75.9525 46.6826 75.9645C46.7264 75.9607 46.7569 75.9728 46.7741 76.0007C46.8586 76.1258 46.603 76.3175 46.0073 76.5757C45.9501 76.5954 45.8863 76.6231 45.8158 76.6587C45.7878 76.6759 45.7666 76.6851 45.752 76.6864C45.6243 76.7417 45.4947 76.7752 45.3632 76.7867C45.1879 76.802 45.0326 76.7935 44.8972 76.7612C44.7924 76.7409 44.6891 76.6542 44.5874 76.5012C44.4844 76.3335 44.409 76.2297 44.3614 76.1897ZM48.5808 72.4196C48.4925 72.2507 48.5222 72.0861 48.6702 71.9259C48.7165 71.9513 48.7496 71.9926 48.7693 72.0498C48.7427 72.0816 48.7119 72.1505 48.677 72.2566L48.6047 72.4396L48.5808 72.4196ZM47.3466 75.7298C47.3461 75.8918 47.3096 75.895 47.2371 75.7394C47.2199 75.7114 47.21 75.6828 47.2075 75.6536C47.2875 75.5583 47.3281 75.5179 47.3294 75.5325C47.344 75.5312 47.3498 75.597 47.3466 75.7298ZM61.6937 75.0929C61.6873 75.0199 61.6352 74.9287 61.5373 74.8195C61.4394 74.7103 61.3898 74.6484 61.3885 74.6338C61.3425 74.1078 61.5441 73.3835 61.9934 72.4608C62.0309 72.3839 62.1238 72.1844 62.2723 71.8622C62.4208 71.54 62.5331 71.3094 62.6093 71.1702C62.6854 71.031 62.7876 70.8528 62.9158 70.6354C63.0574 70.4022 63.2047 70.2347 63.3577 70.133C63.5095 70.0167 63.6645 69.9369 63.8226 69.8936C63.8519 69.891 63.8211 69.96 63.7303 70.1004C63.5767 70.3641 63.5158 70.5093 63.5476 70.536C63.6258 70.5881 63.6988 70.5817 63.7667 70.5168C63.848 70.4361 63.9134 70.342 63.9629 70.2347C64.0111 70.1127 64.0425 70.051 64.0571 70.0497C64.0635 70.1228 64.109 70.2219 64.1936 70.347C64.2769 70.4575 64.3217 70.5493 64.3281 70.6223C64.3478 70.6795 64.3123 70.7783 64.2215 70.9187C64.1948 70.9505 64.0843 71.0338 63.89 71.1686C63.7103 71.3021 63.5805 71.4165 63.5005 71.5118C63.4205 71.6072 63.3862 71.7206 63.3977 71.8521C63.3921 71.9556 63.329 72.1599 63.2084 72.4649L63.0295 72.9443C62.9921 73.0212 62.9299 73.1518 62.8429 73.3361C62.7693 73.5045 62.7072 73.635 62.6564 73.7278C62.6202 73.8193 62.5946 73.9467 62.5794 74.11C62.563 74.2587 62.6011 74.3584 62.6939 74.4091C62.7428 74.4638 62.8159 74.4574 62.9131 74.39C63.0102 74.3226 63.1194 74.2247 63.2407 74.0963C63.362 73.9679 63.4439 73.8945 63.4865 73.876C63.529 73.8576 63.6281 73.8121 63.7837 73.7396C63.9393 73.6671 64.0584 73.5978 64.1409 73.5317C64.3619 73.3651 64.5175 73.2926 64.6078 73.3142C64.6224 73.3129 64.6608 73.3316 64.7231 73.3703C64.7854 73.4091 64.8311 73.4271 64.8603 73.4246C64.9042 73.4207 64.9607 73.3937 65.0299 73.3435C65.0966 73.264 65.0479 73.1284 64.8839 72.9367C64.8337 72.8675 64.8032 72.8554 64.7924 72.9005C64.7855 72.9895 64.776 73.0492 64.7639 73.0797C64.7106 73.1432 64.6766 73.1756 64.662 73.1769C64.6036 73.182 64.5521 73.0982 64.5075 72.9254C64.4775 72.7514 64.4905 72.6472 64.5464 72.6129C64.589 72.5944 64.6509 72.5448 64.7321 72.4641C64.8134 72.3834 64.8753 72.3338 64.9179 72.3153C64.9458 72.2982 64.963 72.3261 64.9694 72.3992C64.9714 72.5904 64.9803 72.6927 64.9962 72.706C65.0916 72.786 65.1668 72.7205 65.222 72.5096C65.2556 72.3889 65.2778 72.3059 65.2885 72.2608C65.3596 72.0632 65.4843 71.8904 65.6628 71.7422C65.9771 71.4645 66.1637 71.242 66.2227 71.0749C66.2576 70.9688 66.3516 70.8649 66.5046 70.7631C66.6577 70.6614 66.7615 70.5861 66.8161 70.5371C66.8695 70.4736 66.8605 70.3713 66.7893 70.2303C66.7562 70.189 66.7165 70.1557 66.6701 70.1303C66.6383 70.1036 66.6066 70.077 66.5748 70.0503C66.543 70.0237 66.5172 69.9817 66.4975 69.9246C66.4962 69.91 66.4699 69.8607 66.4184 69.7769C66.3815 69.6918 66.3684 69.6267 66.3792 69.5816C66.3912 69.5511 66.4776 69.5288 66.6383 69.5147C66.7991 69.5007 66.8861 69.4857 66.8994 69.4698C66.9248 69.4234 66.9264 69.357 66.9041 69.2707C66.8964 69.183 66.87 69.1338 66.8249 69.123C66.7957 69.1255 66.7452 69.1373 66.6734 69.1583C66.6004 69.1647 66.5413 69.1625 66.4962 69.1518C66.451 69.141 66.4113 69.1076 66.377 69.0518C66.2753 68.8987 66.0929 68.8337 65.8299 68.8567C65.7715 68.8618 65.7216 68.8809 65.6803 68.9139C65.6524 68.9311 65.6483 68.9683 65.668 69.0254C65.6413 69.0572 65.6048 69.0604 65.5584 69.035C65.5108 68.995 65.4485 68.9563 65.3716 68.9189C65.2934 68.8668 65.2251 68.8434 65.1667 68.8485C65.1082 68.8536 65.0523 68.8879 64.999 68.9515C64.9298 69.0017 65.0172 69.075 65.2612 69.1715C65.3673 69.2063 65.4143 69.239 65.4023 69.2695L65.1938 69.6632C65.1843 69.7229 65.1649 69.7541 65.1357 69.7566C65.0919 69.7605 65.0283 69.7071 64.945 69.5966C64.8764 69.4849 64.8268 69.4229 64.7963 69.4109C64.7061 69.3893 64.6092 69.3757 64.5056 69.3701C64.4167 69.3631 64.3871 69.2774 64.4169 69.1128C64.4276 69.0677 64.439 69.0299 64.4511 68.9994C64.479 68.9822 64.5695 68.9228 64.7226 68.8211C64.8744 68.7047 64.9788 68.6367 65.036 68.617C65.0919 68.5826 65.1764 68.5384 65.2894 68.4844C65.4158 68.4144 65.5295 68.3677 65.6305 68.3441C65.7302 68.306 65.8379 68.2745 65.9535 68.2496C66.2724 68.1923 66.4915 68.1731 66.611 68.1921C67.1046 68.2814 67.3526 68.7603 67.355 69.6287L67.973 68.868C68.1089 68.7383 68.2429 68.5867 68.3749 68.4132C68.507 68.2397 68.6057 68.1059 68.6711 68.0119C68.7365 67.9178 68.846 67.7389 68.9996 67.4752C69.1665 67.1956 69.27 67.0319 69.31 66.9843C69.402 66.8584 69.5382 66.6478 69.7184 66.3523C69.912 66.0409 70.0615 65.8143 70.1669 65.6726C70.2215 65.6236 70.2834 65.5741 70.3526 65.5238C70.4219 65.4736 70.4892 65.4015 70.5545 65.3074C70.6466 65.1816 70.7555 64.9954 70.8811 64.7488C71.0055 64.4877 71.1137 64.2942 71.2057 64.1683C72.0716 62.9589 72.6635 61.8986 72.9813 60.9875C73.0574 60.8483 73.1171 60.6885 73.1602 60.5081C73.202 60.313 73.2416 60.177 73.2791 60.1001C73.3311 60.022 73.4083 59.9784 73.5106 59.9695C73.5252 59.9682 73.5284 60.0047 73.5202 60.079C73.5253 60.1375 73.5424 60.1654 73.5717 60.1629C73.9261 60.176 74.1167 60.1667 74.1434 60.1349C74.1847 60.1019 74.1523 60.0679 74.0461 60.033C73.9388 59.9835 73.8301 59.9194 73.7201 59.8407C73.6089 59.7474 73.5787 59.6543 73.6295 59.5615C73.6561 59.5298 73.7551 59.315 73.9264 58.9172C74.0978 58.5194 74.2387 58.2789 74.3492 58.1956C74.4876 58.0952 74.5616 58.0151 74.5711 57.9554C74.5831 57.9249 74.5866 57.8804 74.5815 57.822C74.5789 57.7927 74.6243 57.7225 74.7176 57.6113C74.7856 57.5465 74.8993 57.4997 75.0587 57.471C75.2169 57.4277 75.3245 57.3962 75.3817 57.3765C75.5506 57.2881 75.7212 57.3026 75.8934 57.4201C76.0803 57.5362 76.1569 57.6547 76.1233 57.7754C76.1017 57.8656 75.9954 58.081 75.8044 58.4217C75.767 58.4985 75.6835 58.6383 75.554 58.8411C75.4378 59.0279 75.3623 59.1744 75.3274 59.2805C75.2882 59.5048 75.2263 59.7237 75.142 59.9372C75.0563 60.136 74.9747 60.2978 74.8973 60.4223C74.8345 60.5456 74.7063 60.7629 74.5127 61.0743C74.3191 61.3857 74.1582 61.6501 74.03 61.8674C73.9164 62.0835 73.7599 62.399 73.5607 62.8139C73.376 63.2276 73.2389 63.5119 73.1495 63.667C73.0853 63.7757 72.993 63.9825 72.8725 64.2875C72.7665 64.5912 72.6508 64.8664 72.5251 65.1129C72.3994 65.3595 72.2674 65.533 72.129 65.6334C72.101 65.6506 72.0883 65.6738 72.0909 65.703C72.0934 65.7322 72.0966 65.7688 72.1005 65.8126C72.1189 65.8552 72.1294 65.891 72.132 65.9203C72.1181 66.0981 72.0842 66.2999 72.0303 66.5254C71.9752 66.7364 71.9108 66.926 71.8372 67.0944C71.7769 67.2469 71.6919 67.4531 71.5821 67.713C71.4857 67.957 71.4127 68.1327 71.3632 68.2401C70.98 69.2453 70.8409 70.347 70.9457 71.5451C70.9534 71.6327 70.9522 71.7874 70.9421 72.0091C70.9308 72.2162 70.9395 72.3995 70.9681 72.559C70.9955 72.7038 71.0588 72.8381 71.158 72.9619C71.2069 73.0166 71.3096 73.0959 71.4659 73.2C71.6368 73.3028 71.756 73.4028 71.8234 73.5C71.9041 73.5813 71.9197 73.6756 71.8702 73.783C71.822 73.905 71.7176 73.973 71.5568 73.9871C71.4253 73.9986 71.298 73.9729 71.1747 73.9101C70.9268 73.7698 70.7213 73.6921 70.558 73.677C70.3566 73.5621 70.1439 73.2347 69.92 72.6948C69.8188 72.3798 69.7561 72.0835 69.7318 71.8058C69.6807 71.2214 69.7894 70.277 70.0581 68.9726C70.0568 68.958 70.0723 68.883 70.1047 68.7477C70.1503 68.5965 70.1833 68.4685 70.2036 68.3636C70.2226 68.2442 70.2409 68.1174 70.2586 67.9834C70.2751 67.8347 70.2728 67.7245 70.2518 67.6527C70.2441 67.5651 70.2184 67.5231 70.1745 67.527C70.1251 67.6344 69.9638 67.8104 69.6907 68.0552C69.431 68.284 69.3162 68.4854 69.3461 68.6595C69.3499 68.7033 69.2471 68.8743 69.0376 69.1723C68.8269 69.4558 68.6148 69.7246 68.4015 69.9788L68.1053 70.3802C68.0654 70.4278 67.9755 70.4946 67.8358 70.5804C67.6961 70.6663 67.6008 70.7556 67.55 70.8484C67.3698 71.1439 67.1774 71.3006 66.9728 71.3185C66.9277 71.3077 66.9105 71.2797 66.9213 71.2346C66.9454 71.1736 66.9695 71.1126 66.9936 71.0516C67.0165 70.976 67.0206 70.9388 67.006 70.9401C66.9767 70.9427 66.8888 71.0313 66.7421 71.2061C66.7009 71.2392 66.7139 71.3043 66.7813 71.4015C66.8633 71.4973 66.9056 71.5599 66.9082 71.5891C66.9025 71.6927 66.8511 71.7781 66.7539 71.8455C66.6701 71.897 66.5872 71.8748 66.5052 71.779C66.3571 71.6005 66.249 71.5437 66.1811 71.6086C66.1265 71.6575 66.1561 71.7433 66.2698 71.8658C66.3029 71.9071 66.3353 71.941 66.3671 71.9677C66.4135 71.9931 66.4446 72.0125 66.4605 72.0258C66.4764 72.0391 66.485 72.0531 66.4863 72.0677C66.4875 72.0823 66.4815 72.0976 66.4682 72.1135C66.4549 72.1293 66.4282 72.1611 66.3882 72.2088C66.3336 72.2577 66.2431 72.3172 66.1167 72.3871C66.0049 72.4558 65.9297 72.5213 65.891 72.5836C65.821 72.4572 65.7343 72.3911 65.6307 72.3855C65.5164 72.4249 65.5412 72.5405 65.7052 72.7323C65.7383 72.7736 65.7329 72.7961 65.6891 72.8C65.5709 72.7956 65.4912 72.8099 65.4499 72.843C65.4366 72.8589 65.4086 72.876 65.3661 72.8945C65.3222 72.8983 65.2943 72.9155 65.2822 72.946C65.2689 72.9619 65.2708 72.9838 65.288 73.0117C65.485 73.2448 65.3763 73.6003 64.9617 74.0782C64.5458 74.5416 64.2296 74.7974 64.013 74.8458C63.8828 74.872 63.6367 75.0039 63.2747 75.2417C62.9286 75.4928 62.644 75.606 62.421 75.5814C62.3175 75.5757 62.1723 75.5148 61.9854 75.3987C61.7999 75.2971 61.7026 75.1952 61.6937 75.0929ZM65.8058 71.8622C65.7804 71.9086 65.7807 71.9969 65.8069 72.1271C65.8476 72.2561 65.8851 72.3485 65.9195 72.4044C65.9328 72.3885 65.982 72.3621 66.0671 72.3252C66.1668 72.2871 66.23 72.2521 66.2567 72.2203C66.298 72.1872 66.31 72.1567 66.2929 72.1288C66.0932 71.8665 65.9309 71.7777 65.8058 71.8622ZM66.3849 71.4141C66.3462 71.4763 66.3745 71.5475 66.4698 71.6275C66.5785 71.6916 66.6687 71.7131 66.7405 71.6921C66.7239 71.5022 66.6546 71.3831 66.5326 71.3349C66.4728 71.3254 66.4236 71.3518 66.3849 71.4141ZM79.387 70.7624C79.4226 70.8329 79.5163 70.8099 79.6681 70.6936C79.8198 70.5773 79.9551 70.4403 80.0738 70.2827C80.1912 70.1105 80.2261 70.0044 80.1784 69.9644C80.1295 69.9097 80.0364 69.94 79.8993 70.055C79.7608 70.1555 79.6323 70.2845 79.5135 70.4421C79.4082 70.5838 79.366 70.6906 79.387 70.7624ZM84.0036 70.2701C83.977 70.3019 83.9754 70.3683 83.999 70.4693C84.0372 70.569 84.0715 70.6249 84.102 70.637C84.1471 70.6477 84.1744 70.6233 84.1839 70.5635C84.1978 70.3856 84.159 70.2786 84.0675 70.2425C84.0383 70.245 84.017 70.2542 84.0036 70.2701ZM87.1163 67.4802C87.1525 67.3887 87.162 67.329 87.1448 67.3011C87.0444 67.1626 86.9599 67.2068 86.8914 67.4336C86.8806 67.4788 86.8705 67.5312 86.861 67.5909C86.9633 67.5819 87.0484 67.5451 87.1163 67.4802ZM87.5481 67.6191C87.5614 67.6032 87.5881 67.5715 87.6281 67.5238C87.6814 67.4602 87.7074 67.4211 87.7062 67.4065C87.7049 67.3919 87.7017 67.3554 87.6966 67.297C87.6622 67.2411 87.6012 67.217 87.5136 67.2246C87.4843 67.2272 87.4472 67.2231 87.4021 67.2123C87.3557 67.1869 87.3271 67.1968 87.3163 67.2419C87.2763 67.2896 87.3021 67.3315 87.3936 67.3676C87.3466 67.5042 87.3629 67.6059 87.4423 67.6725C87.4728 67.6846 87.5081 67.6668 87.5481 67.6191ZM91.513 69.0169L91.6656 69.2465L91.8779 68.8966C91.9261 68.7746 91.9184 68.687 91.8549 68.6336C91.8059 68.579 91.723 68.5568 91.6061 68.567C91.4162 68.5837 91.3203 68.6657 91.3185 68.8131C91.3064 68.8436 91.3315 68.8782 91.3938 68.9169C91.4561 68.9556 91.4958 68.9889 91.513 69.0169ZM93.1847 67.6781C93.038 67.8529 92.9317 68.0683 92.8658 68.3243C92.8145 68.5791 92.893 68.7195 93.1014 68.7454C93.7004 68.693 94.2657 68.4227 94.7972 67.9345C95.3274 67.4317 95.7263 66.8595 95.9941 66.2177C96.1508 65.8212 96.1983 65.5226 96.1365 65.3218C96.113 65.2208 96.0387 65.2126 95.9135 65.2972C95.4398 65.6036 94.9536 65.8523 94.455 66.0431C94.2543 66.1049 94.0977 66.0818 93.9852 65.9738C93.8727 65.8659 93.7685 65.8529 93.6726 65.9349C93.5393 66.0938 93.4758 66.2098 93.4822 66.2828C93.4886 66.3559 93.5414 66.4543 93.6405 66.5782C93.7543 66.7007 93.8211 66.7906 93.8408 66.8477C93.7462 66.9444 93.6268 67.0947 93.4827 67.2987C93.3374 67.4881 93.238 67.6145 93.1847 67.6781ZM95.9809 64.8054C95.9397 64.8385 95.9594 64.8957 96.0401 64.9769C96.1196 65.0436 96.1891 65.0817 96.2489 65.0912C96.2463 65.062 96.2691 64.9863 96.3174 64.8643C96.3789 64.7265 96.4164 64.6496 96.4297 64.6337C96.3236 64.5988 96.174 64.656 95.9809 64.8054ZM77.3491 67.9152L77.1518 67.9324C77.0698 67.8365 77.058 67.786 77.1165 67.7809C77.2067 67.8025 77.2842 67.8472 77.3491 67.9152ZM78.08 67.9395C77.9485 67.951 77.8046 67.9047 77.6482 67.8006C77.5065 67.6953 77.509 67.5552 77.6556 67.3804C77.709 67.3168 77.7893 67.3098 77.8967 67.3593C78.0174 67.3929 78.1109 67.451 78.177 67.5335C78.2602 67.644 78.3117 67.7279 78.3315 67.785C78.3499 67.8276 78.3385 67.8654 78.2972 67.8985C78.2693 67.9156 78.1969 67.9293 78.08 67.9395ZM83.756 70.4685C83.7973 70.4354 83.8061 70.3684 83.7826 70.2674C83.7736 70.1651 83.8336 70.0936 83.9626 70.0529C84.0889 69.9829 84.1976 70.047 84.2886 70.2452C84.3941 70.4421 84.4075 70.5955 84.3288 70.7054C84.2888 70.7531 84.1923 70.8278 84.0393 70.9295C83.8995 71.0154 83.8103 71.0894 83.7716 71.1517C83.6688 71.3227 83.362 71.5188 82.8514 71.7401C82.3407 71.9615 81.9692 72.0897 81.7367 72.1248C81.6198 72.135 81.4337 72.1954 81.1783 72.3061C80.9363 72.4009 80.7496 72.454 80.6181 72.4656C80.3989 72.4847 80.2106 72.435 80.0529 72.3162C80.0173 72.2457 79.9217 72.2467 79.7661 72.3193C79.6092 72.3771 79.5162 72.4074 79.487 72.4099C79.3993 72.4176 79.3157 72.3881 79.2363 72.3214C79.1276 72.2573 79.0151 72.1494 78.8988 71.9976C78.7824 71.8458 78.682 71.7074 78.5974 71.5823C78.5275 71.4559 78.4852 71.3934 78.4706 71.3946C78.3524 71.3903 78.1162 71.5508 77.7619 71.8762C77.4209 72.1858 77.2431 72.3412 77.2285 72.3425C76.4994 72.7596 75.9084 72.988 75.4555 73.0276C75.2509 73.0455 74.9993 73.0307 74.7007 72.9833C74.1009 72.8591 73.8761 72.3929 74.0263 71.5847C74.037 71.5396 74.0341 71.4221 74.0175 71.2321C73.9996 71.0276 74.0214 70.8564 74.083 70.7185C74.1325 70.6111 74.2432 70.4468 74.4153 70.2256C74.6019 70.0032 74.7153 69.8681 74.7553 69.8205C75.0168 69.4442 75.3374 69.0702 75.7171 68.6984C76.0955 68.3119 76.4163 68.1072 76.6793 68.0842C76.8838 68.0663 77.0255 68.1717 77.1044 68.4003C77.2703 68.4447 77.3164 68.5511 77.2428 68.7195C77.1825 68.872 77.0879 68.9686 76.959 69.0093C76.8592 69.0475 76.77 69.1215 76.6913 69.2315C76.6126 69.3414 76.5459 69.4209 76.4913 69.4698C76.4234 69.5347 76.3195 69.61 76.1798 69.6958C76.0388 69.7671 75.9337 69.8278 75.8645 69.878C75.8086 69.9123 75.7613 69.9607 75.7226 70.0229C75.6985 70.0839 75.6683 70.1602 75.6322 70.2517C75.596 70.3432 75.5652 70.4121 75.5399 70.4585C75.5145 70.5049 75.4253 70.579 75.2722 70.6807C75.1338 70.7811 75.0684 70.8752 75.076 70.9629C75.0786 70.9921 75.0155 71.1964 74.8867 71.5757C74.7834 71.9086 74.873 72.0922 75.1558 72.1263C75.3946 72.1643 75.7275 72.0984 76.1543 71.9286C76.5957 71.7574 76.8758 71.5931 76.9945 71.4354C77.0986 71.2791 77.2237 71.1946 77.3699 71.1818C77.516 71.169 77.6297 71.1222 77.7109 71.0415C77.8068 70.9595 77.9268 70.8165 78.0709 70.6125C78.2283 70.3926 78.3696 70.2404 78.4947 70.1558C78.5773 70.0897 78.6725 70.0004 78.7805 69.8879C78.8871 69.7608 78.989 69.6635 79.0862 69.5961C79.1834 69.5288 79.3044 69.4814 79.4492 69.454C79.5794 69.4279 79.8849 69.2171 80.3656 68.8217C80.845 68.4117 81.187 68.1977 81.3915 68.1798C81.4938 68.1709 81.5774 68.2004 81.6422 68.2683C81.8526 68.4855 81.7698 68.8019 81.394 69.2176C81.3127 69.2983 81.1609 69.4146 80.9387 69.5666C80.7164 69.7185 80.5586 69.8501 80.4653 69.9613C80.4119 70.0249 80.3012 70.1892 80.133 70.4542C79.9781 70.7033 79.834 70.9073 79.7007 71.0662C79.5668 71.3871 79.8518 71.5315 80.5557 71.4993C81.4761 71.4188 82.0469 71.2952 82.2679 71.1287C82.2812 71.1128 82.3291 71.0718 82.4117 71.0057C82.493 70.925 82.5482 70.8833 82.5774 70.8808C82.6067 70.8782 82.673 70.8798 82.7766 70.8854C82.8071 70.8975 82.8141 70.9778 82.7977 71.1265C82.7756 71.3787 82.8011 71.5016 82.8741 71.4952C82.9033 71.4927 82.9253 71.4908 82.9399 71.4895C83.0821 71.4329 83.1164 71.3195 83.0426 71.1492C82.9822 70.9631 82.9592 70.8694 82.9738 70.8682C83.0456 70.8472 83.1101 70.8268 83.1673 70.8071C83.1819 70.8058 83.1952 70.7899 83.2073 70.7594C83.2473 70.7117 83.3079 70.6475 83.3892 70.5668C83.4692 70.4715 83.5403 70.4432 83.6026 70.4819C83.6649 70.5206 83.716 70.5161 83.756 70.4685ZM79.3643 67.4738C79.1407 67.6112 78.9244 67.5786 78.7153 67.376C78.5697 67.2268 78.5767 67.1379 78.7361 67.1092C78.7933 67.0895 78.8822 67.0964 79.0029 67.13C79.3136 67.147 79.474 67.2139 79.4843 67.3308C79.4881 67.3747 79.4481 67.4223 79.3643 67.4738ZM79.4826 67.8168C79.5252 67.7984 79.5645 67.7434 79.6007 67.6519C79.6369 67.5604 79.6835 67.5048 79.7407 67.4851C79.883 67.4285 79.9059 67.5221 79.8094 67.7661C79.7853 67.8271 79.7612 67.8881 79.7371 67.9491C79.7053 67.9225 79.6523 67.905 79.578 67.8968C79.5182 67.8873 79.4865 67.8607 79.4826 67.8168ZM79.6429 68.1341C79.7121 68.0838 79.8071 68.0755 79.9278 68.1091C80.1095 68.1669 80.1795 68.2932 80.1376 68.4883C80.1091 68.6675 80.005 68.8238 79.8253 68.9573C79.7974 68.9745 79.743 68.9424 79.6623 68.8611C79.5962 68.7786 79.5361 68.6808 79.4821 68.5677C79.4267 68.4401 79.4111 68.3457 79.4352 68.2847L79.461 68.3267C79.5138 68.4251 79.5541 68.4657 79.5821 68.4486C79.6951 68.3945 79.7199 68.3408 79.6563 68.2875C79.5915 68.2195 79.587 68.1684 79.6429 68.1341ZM84.6294 69.597C84.6465 69.625 84.6284 69.6707 84.5751 69.7343C84.5218 69.7978 84.4532 69.8554 84.3694 69.9069C84.2989 69.9425 84.2477 69.947 84.216 69.9203C84.1842 69.8936 84.195 69.8485 84.2483 69.785C84.315 69.7055 84.3835 69.648 84.454 69.6124C84.5245 69.5768 84.583 69.5716 84.6294 69.597ZM85.277 65.3886C85.2847 65.4762 85.2619 65.5518 85.2085 65.6154C85.1552 65.679 85.0993 65.7133 85.0409 65.7184C84.9386 65.7274 84.8824 65.6734 84.8721 65.5565C84.8568 65.3812 84.9918 65.3252 85.277 65.3886ZM88.2368 67.1614C88.1066 67.1875 88.0449 67.1561 88.0519 67.0671C88.0588 66.9782 88.1109 66.9 88.208 66.8326C88.3478 66.7468 88.4468 66.7013 88.5053 66.6962C88.6222 66.686 88.6552 66.7272 88.6045 66.82C88.5657 66.8823 88.4972 66.9398 88.3987 66.9926C88.3854 67.0085 88.3574 67.0257 88.3149 67.0441C88.2418 67.0505 88.2158 67.0896 88.2368 67.1614ZM89.5187 65.6579C89.4387 65.7532 89.3682 65.7889 89.3072 65.7648C89.2767 65.7527 89.2862 65.693 89.3357 65.5856C89.3477 65.5551 89.409 65.4982 89.5195 65.4149C89.6446 65.3304 89.7291 65.2862 89.7729 65.2823C89.8605 65.2747 89.7758 65.3999 89.5187 65.6579ZM102.224 72.8058C102.257 72.847 102.304 72.8797 102.365 72.9038C102.427 72.9426 102.452 72.9699 102.438 72.9858C102.44 73.0004 102.444 73.0515 102.452 73.1392C102.43 73.2294 102.413 73.2825 102.4 73.2983C102.386 73.3142 102.35 73.3174 102.29 73.3079C102.245 73.2972 102.193 73.2943 102.135 73.2994C102.062 73.3058 101.927 73.3618 101.73 73.4674C101.549 73.5863 101.399 73.6362 101.279 73.6172C101.233 73.5918 101.258 73.5454 101.355 73.478C99.5125 73.7865 98.4888 73.9497 98.2842 73.9676C96.8378 74.0941 95.4562 73.869 94.1396 73.2922C94.0786 73.2681 94.0071 73.2081 93.9251 73.1122C93.8444 73.031 93.7716 72.9564 93.7068 72.8884C93.6432 72.8351 93.5968 72.8097 93.5676 72.8122C93.2754 72.8378 92.8906 72.5623 92.4132 71.9857C91.9358 71.4091 91.6605 70.9547 91.5872 70.6225C91.5534 70.4046 91.4704 70.2131 91.3382 70.048C91.2206 69.8817 91.0544 69.749 90.8396 69.65C90.6394 69.5497 90.4485 69.4707 90.2668 69.413C90.0997 69.354 89.8808 69.2922 89.6101 69.2275C89.3394 69.1629 89.1358 69.1071 88.9992 69.0601C88.9236 69.0373 88.7625 68.9631 88.5159 68.8374C88.284 68.7105 88.0467 68.6061 87.8039 68.5243C87.5758 68.4412 87.3814 68.4066 87.2207 68.4207C87.0308 68.4373 86.9063 68.5292 86.8473 68.6963C86.2515 70.1324 85.9933 71.3033 86.0725 72.2092C86.1454 73.042 86.4448 73.4354 86.9708 73.3894C87.0731 73.3804 87.2306 73.3299 87.4434 73.2376C87.4549 73.3691 87.4619 73.4495 87.4645 73.4787C87.4829 73.5213 87.4988 73.5346 87.5121 73.5187C87.5401 73.5015 87.5594 73.4704 87.5702 73.4253C87.5956 73.3789 87.6283 73.3319 87.6683 73.2842C87.7083 73.2365 87.7502 73.2108 87.794 73.207C87.803 73.3092 87.7633 73.4452 87.6751 73.6149C87.5869 73.7845 87.499 73.8732 87.4113 73.8809C87.3529 73.886 87.3125 73.8453 87.2902 73.759C87.3112 73.8307 87.2938 73.8838 87.2379 73.9181C87.182 73.9525 87.1029 73.9741 87.0007 73.9831C86.7815 74.0022 86.5957 73.9817 86.4432 73.9214C86.4337 73.9811 86.3997 74.0135 86.3412 74.0187C86.1951 74.0314 86.0109 73.9445 85.7884 73.7578C85.4071 73.4379 85.1785 73.0972 85.1027 72.7357C84.997 72.2002 85.0058 71.5443 85.1293 70.7679C85.1711 70.5729 85.1796 70.4175 85.1548 70.3019C85.13 70.1863 85.0931 70.1012 85.0441 70.0466C84.9952 69.992 84.9488 69.9666 84.905 69.9704C84.8173 69.9781 84.7932 70.0391 84.8326 70.1534C84.8352 70.1827 84.8317 70.2271 84.8222 70.2868C84.8261 70.3307 84.8146 70.3685 84.788 70.4003C84.7613 70.432 84.74 70.4413 84.7241 70.4279C84.5373 70.3118 84.494 70.1536 84.5943 69.9534C84.6946 69.7533 84.8311 69.6309 85.0039 69.5864L85.2449 69.5653C85.3167 69.5443 85.3586 69.5185 85.3707 69.488C85.3827 69.4575 85.3643 69.415 85.3153 69.3603C85.2797 69.2898 85.2606 69.24 85.2581 69.2108C85.2186 69.0964 85.2856 68.936 85.4589 68.7294C85.6322 68.5229 85.7795 68.3554 85.9008 68.227C86.0208 68.084 86.0074 67.9306 85.8605 67.7668C85.4989 67.5039 85.2053 67.3456 84.9798 67.2917C84.7396 67.2391 84.5019 67.0464 84.2667 66.7137C84.1491 66.5473 84.101 66.419 84.1226 66.3288C84.1587 66.2373 84.2724 66.1905 84.4637 66.1885C84.5672 66.1942 84.6914 66.1833 84.8362 66.1559C84.9944 66.1126 85.118 66.0945 85.2069 66.1014C85.3105 66.1071 85.4172 66.1492 85.5271 66.228C85.8875 66.4762 86.1957 66.6332 86.4517 66.6992C86.4968 66.71 86.6435 66.5352 86.8917 66.1748C87.1545 65.8132 87.4094 65.4449 87.6563 65.07C87.9166 64.6792 88.0848 64.4141 88.161 64.275C88.2866 64.0284 88.6383 63.5044 89.216 62.703C89.7937 61.9017 90.1777 61.4116 90.3682 61.233C90.4774 61.1351 90.5752 61.0751 90.6616 61.0528C90.7614 61.0146 90.8776 60.9971 91.0104 61.0002C91.1432 61.0033 91.2461 61.0016 91.3191 60.9952C91.3776 60.9901 91.4986 60.9427 91.6821 60.8531C91.879 60.7475 92.0067 60.6922 92.0651 60.6871C92.182 60.6768 92.1509 60.8268 91.972 61.1369C91.9453 61.1687 91.9227 61.1633 91.9043 61.1207C91.87 61.0648 91.8448 61.0302 91.829 61.0169C91.6149 61.0945 91.419 61.2957 91.2413 61.6204C91.0782 61.9439 91.0031 62.1786 91.0158 62.3247C91.0102 62.4283 90.9315 62.5382 90.7797 62.6546C90.6266 62.7563 90.54 62.8596 90.5197 62.9644C90.4887 63.1144 90.3414 63.2818 90.0778 63.4668C89.8727 63.6467 89.6578 63.9673 89.4332 64.4287C89.2073 64.8754 89.027 65.1709 88.8924 65.3152C88.2607 66.0035 87.9242 66.5335 87.8831 66.9052C87.8503 67.2025 88.109 67.467 88.6592 67.6986C88.8263 67.7576 89.0751 67.8241 89.4055 67.8983C89.7359 67.9725 89.9309 68.0143 89.9906 68.0238C90.0358 68.0346 90.2188 68.1069 90.5396 68.2408C90.8739 68.3587 91.114 68.4113 91.2601 68.3986C91.4793 68.3794 91.6145 68.2424 91.6659 67.9876C91.7482 67.5829 92.0228 67.1025 92.4894 66.5464C92.8722 66.0418 93.3101 65.7458 93.803 65.6585C93.7533 65.4273 93.7698 65.2786 93.8523 65.2125C93.9336 65.1318 94.046 65.0704 94.1896 65.0284C94.3331 64.9864 94.4363 64.9038 94.4991 64.7805C94.5353 64.689 94.6264 64.6369 94.7725 64.6241C94.932 64.5954 95.0323 64.5645 95.0736 64.5315C95.2959 64.3795 95.5166 64.294 95.7358 64.2748C96.101 64.2428 96.4146 64.3774 96.6765 64.6783C96.9371 64.9647 97.0641 65.3217 97.0573 65.7492C97.0606 65.9551 96.961 66.3318 96.7587 66.8796C96.5696 67.4114 96.3767 67.7301 96.1798 67.8356L95.3998 68.7652C94.6359 69.2884 94.0386 69.613 93.6079 69.739C93.5507 69.7588 93.4717 69.7804 93.3707 69.804C93.2684 69.8129 93.1814 69.8279 93.1096 69.8489C93.0365 69.8553 92.9581 69.8842 92.8743 69.9357C92.8038 69.9713 92.7485 70.013 92.7085 70.0607C92.8161 70.4488 93.0644 70.8466 93.4534 71.2543C93.8557 71.646 94.265 71.9488 94.6812 72.1627C94.9596 72.315 95.2798 72.4416 95.642 72.5424C96.0041 72.6432 96.2901 72.7139 96.4997 72.7545C96.7094 72.795 97.0744 72.8441 97.5947 72.9016C98.1163 72.9737 98.4216 73.0133 98.5105 73.0202C98.7202 73.0608 99.0283 73.0485 99.4349 72.9835C99.8414 72.9185 100.142 72.8996 100.335 72.9268C100.53 72.9687 100.737 72.9727 100.955 72.9389C101.056 72.9153 101.161 72.9356 101.269 72.9997C101.393 73.0625 101.484 73.0987 101.544 73.1082C101.537 73.0352 101.547 72.9827 101.574 72.951C101.603 72.9484 101.642 72.9671 101.689 73.0071C101.753 73.0605 101.793 73.0938 101.809 73.1071C101.839 73.1192 101.874 73.1014 101.914 73.0537C101.937 72.9781 101.983 72.9079 102.051 72.843C102.134 72.7915 102.192 72.7791 102.224 72.8058ZM91.6479 62.7332C91.5374 62.8165 91.4796 62.8289 91.4744 62.7705C91.4522 62.6841 91.4883 62.5926 91.5829 62.496C91.6242 62.4629 91.6712 62.4956 91.724 62.594C91.7596 62.6645 91.7342 62.7109 91.6479 62.7332ZM92.4467 61.5149C92.359 61.5226 92.3161 61.4528 92.318 61.3054C92.3185 61.1434 92.3528 61.03 92.4207 60.9651C92.4684 61.0051 92.4992 61.1055 92.5133 61.2662C92.5407 61.411 92.5185 61.4939 92.4467 61.5149ZM92.1125 60.2191C92.0992 60.235 92.036 60.27 91.9229 60.3241C91.8245 60.3769 91.6975 60.4395 91.5419 60.512C91.3996 60.5686 91.2919 60.6001 91.2189 60.6065C91.1166 60.6155 91.0762 60.5748 91.0978 60.4846C91.1098 60.4541 91.1451 60.4363 91.2035 60.4312C91.2766 60.4248 91.3118 60.407 91.3093 60.3778C91.2844 60.2621 91.466 59.9813 91.8539 59.5351C92.2405 59.0743 92.5031 58.7937 92.6415 58.6932C92.6587 58.7212 92.6619 58.7577 92.6511 58.8028C92.6549 58.8466 92.6654 58.8825 92.6826 58.9105C92.6985 58.9238 92.7363 58.9352 92.796 58.9447C92.8092 58.5902 92.9546 58.4008 93.2322 58.3765C93.3783 58.3638 93.493 58.4126 93.5763 58.5231C93.6583 58.619 93.6631 58.7584 93.5908 58.9414C93.5533 59.0183 93.5178 59.1171 93.4842 59.2379C93.4493 59.344 93.4217 59.4494 93.4015 59.5543C93.3799 59.6445 93.3584 59.7347 93.3368 59.8249C93.3153 59.9152 93.2924 59.9908 93.2683 60.0518C93.2429 60.0982 93.2223 60.1147 93.2064 60.1014C93.0552 60.0557 93.0284 59.9182 93.1261 59.6888C93.2226 59.4448 93.2244 59.2974 93.1316 59.2466C93.0998 59.22 93.0773 59.2146 93.064 59.2305C93.0652 59.2451 93.0672 59.267 93.0697 59.2962C93.0723 59.3254 93.0748 59.3547 93.0774 59.3839C93.0945 59.4118 93.0898 59.4417 93.0631 59.4735C93.0352 59.4906 92.992 59.5018 92.9335 59.5069C92.8605 59.5133 92.8106 59.5324 92.784 59.5641C92.7706 59.58 92.7665 59.6172 92.7716 59.6756C92.7768 59.7341 92.7733 59.7785 92.7612 59.809C92.7581 59.9418 92.6857 59.9555 92.544 59.8501C92.4645 59.7835 92.4181 59.7581 92.4048 59.774C92.3369 59.8388 92.2921 59.9163 92.2706 60.0066C92.249 60.0968 92.1963 60.1676 92.1125 60.2191ZM92.9226 60.3912C92.9379 60.5665 92.9164 60.6568 92.8579 60.6619C92.7556 60.6708 92.7143 60.5346 92.7338 60.2531C92.8507 60.2429 92.9136 60.2889 92.9226 60.3912ZM87.5349 73.2738C87.5164 73.2312 87.5139 73.202 87.5272 73.1861C87.5405 73.1702 87.5698 73.1677 87.6149 73.1785C87.6333 73.221 87.6359 73.2502 87.6225 73.2661C87.6092 73.282 87.58 73.2846 87.5349 73.2738ZM87.8817 73.1993C87.9358 73.3123 87.9263 73.3721 87.8532 73.3784C87.8481 73.32 87.8576 73.2603 87.8817 73.1993ZM87.817 73.4699L88.0181 73.4965L87.9743 73.5004C87.9927 73.5429 87.9873 73.5655 87.9581 73.568C87.9289 73.5706 87.8819 73.5379 87.817 73.4699ZM87.9589 73.325C88.0053 73.3504 88.0384 73.3917 88.0581 73.4489C88.0302 73.466 88.0076 73.4606 87.9905 73.4327C87.9746 73.4194 87.9641 73.3835 87.9589 73.325ZM101.467 72.7395C101.486 72.782 101.488 72.8112 101.475 72.8271C101.462 72.843 101.432 72.8456 101.387 72.8348C101.369 72.7922 101.366 72.763 101.38 72.7471C101.393 72.7312 101.422 72.7287 101.467 72.7395ZM101.917 72.8326C101.892 72.879 101.862 72.8743 101.828 72.8184C101.796 72.7917 101.787 72.7704 101.8 72.7545C101.84 72.7069 101.876 72.6964 101.908 72.723C101.941 72.7643 101.944 72.8008 101.917 72.8326ZM102.659 73.2315C102.657 73.2169 102.648 73.1883 102.629 73.1458C102.588 73.0168 102.619 72.9479 102.721 72.9389C102.853 72.9274 102.901 72.9747 102.866 73.0808C102.844 73.1564 102.774 73.2067 102.659 73.2315ZM103.012 72.9797C103.038 72.9334 103.079 72.9076 103.138 72.9025C103.248 72.9812 103.246 73.0403 103.131 73.0797C103.06 73.1007 103.014 73.0827 102.994 73.0255C102.993 73.0109 102.999 72.9956 103.012 72.9797ZM103.294 72.668C103.415 72.5396 103.491 72.4814 103.522 72.4935C103.552 72.5055 103.495 72.6063 103.349 72.7956C103.323 72.8274 103.3 72.8147 103.28 72.7576C103.276 72.7137 103.281 72.6839 103.294 72.668Z"
        fill="#D96E34" />
    <g clip-path="url(#clip0_3255_7038)">
        <path
            d="M36.7877 28.1171C36.7837 28.197 36.76 28.2744 36.7189 28.342C36.6292 28.5318 36.4692 28.8282 36.1651 28.7216C36.2235 28.7418 36.2863 28.7428 36.3453 28.7247C36.4042 28.7065 36.4564 28.67 36.4948 28.62L36.3348 28.5118L36.2323 28.5268L36.1955 28.4185L35.9587 28.252C36.0295 28.0829 36.1305 27.9292 36.2563 27.7992L36.49 27.2996L36.6677 27.8108C36.7097 27.8482 36.7425 27.8956 36.7634 27.9488C36.7843 28.0021 36.7926 28.0598 36.7877 28.1171Z"
            fill="#D96E34" />
        <path d="M39.7726 22.3639L39.6638 22.5088L39.1437 22.1241L39.6318 21.2683L40.1855 21.6013L39.7726 22.3639Z"
            fill="#D96E34" />
        <path
            d="M45.5479 10.382L45.4134 10.6552L44.642 12.0488L44.5124 11.9722L44.3811 12.2137L44.0994 12.0855L44.0482 12.2969L44.3683 12.4535L44.2835 12.6549L44.2643 12.6966L44.3251 12.7299C43.845 13.7057 43.7489 13.8638 43.6113 13.8955L43.4048 14.3018L43.392 14.3018C43.296 14.4683 43.1632 14.6348 42.9343 14.5149C42.9046 14.501 42.877 14.4824 42.8527 14.4599C42.7695 14.3833 42.7054 14.2435 42.8143 13.9921C42.8558 13.8895 42.9096 13.7926 42.9743 13.7039L43.8098 11.9539C43.837 11.8657 43.9042 11.7125 43.9938 11.506C44.037 11.4061 44.0754 11.3195 44.0882 11.2829C44.0758 11.3215 44.0715 11.3623 44.0754 11.4028L44.1234 11.3028L44.0754 11.2762C44.1744 11.0602 44.2928 10.8545 44.4291 10.6618L44.4772 10.5619L44.4611 10.6251C44.5 10.5824 44.5511 10.5538 44.6068 10.5435L44.6932 10.4054L44.7844 10.462L44.9941 10.074L45.5479 10.382ZM43.0736 14.2218C43.1089 14.2383 43.1469 14.2478 43.1856 14.2501L43.0687 14.2101L43.0687 14.1952L42.9407 14.1153C42.9746 14.1622 43.0199 14.199 43.0719 14.2218L43.0736 14.2218Z"
            fill="#D96E34" />
        <path
            d="M42.7056 16.018L42.7969 16.351L42.4976 17.062L42.1999 17.5881L42.1439 17.5532C42.0238 17.7996 41.8862 18.0694 41.739 18.3558C41.4957 18.832 41.2444 19.3232 41.0604 19.7395L40.9932 19.9527L40.6586 20.4072L40.1209 20.0526C40.321 19.648 40.5466 19.2033 40.7723 18.7604C41.2124 17.8929 41.6685 16.9954 41.9214 16.4292L42.0222 16.4675C42.2159 16.0512 42.2767 15.983 42.4832 16.0013L42.7056 16.018Z"
            fill="#D96E34" />
        <path
            d="M49.9057 1.31357L49.9185 1.36349L49.9345 1.36349C49.9568 1.4459 49.9687 1.53099 49.9697 1.61659C50.0049 1.898 50.0322 2.14111 50.0578 2.3759C50.2274 2.43584 50.2818 2.66066 50.3314 2.86381L50.341 2.90706L50.341 2.93706L50.3826 2.93706L50.7203 5.34311C50.7748 5.67614 50.8116 5.94429 50.8404 6.20405L50.7652 6.21568L50.8948 6.80513L50.914 6.8701C51.017 7.13532 51.0952 7.41017 51.1477 7.69095L51.1477 7.95072L51.3285 8.75832C51.3781 8.92483 51.4262 9.07137 51.479 9.22289L51.479 8.1539L52.3016 11.9537L52.1992 11.982L52.1992 12.0003L52.0999 12.0386C52.1351 12.1152 52.1736 12.2051 52.2248 12.3366L52.0423 12.4249L52.0631 12.5148L52.0935 12.5331L52.116 12.6097C52.1678 12.5501 52.1953 12.4719 52.1928 12.3916C52.1928 12.4432 52.2424 12.6281 52.2872 12.8029L52.4184 12.4049C52.3112 11.3825 52.2584 10.7981 52.2488 10.4584L52.1111 10.4501L52.1111 9.33778L51.9095 9.32615C51.9178 8.82668 51.8717 8.3278 51.7719 7.83917L51.7542 7.80917L51.7542 7.70599L51.3621 5.75443L51.4742 5.95591C51.4422 5.71447 51.407 5.45635 51.3749 5.1866L51.4982 5.16668L51.4534 4.95683C51.4021 4.71706 51.3669 4.54053 51.3301 4.35071L50.9508 2.3659L50.9284 2.24768L51.1237 2.20776C51.0949 2.13782 51.0597 2.02956 50.9988 1.84807L50.9508 1.70156C50.8836 1.50008 50.8596 1.4434 50.8516 1.42675C50.8745 1.4688 50.9076 1.50389 50.9476 1.52838L50.8532 1.32853L50.794 1.32853L50.794 1.28861L50.794 1.14372L50.738 0.877289L51.0068 0.780697C51.0834 0.752769 51.1673 0.756206 51.2416 0.790211C51.3159 0.824215 51.375 0.886265 51.4069 0.963878L52.348 2.98698C52.4712 3.03527 52.5913 3.16517 52.7625 3.42326L52.6025 3.54481L52.6185 3.58148L52.6569 3.66807L52.5545 3.71962L52.6521 3.88613C52.7152 3.84614 52.7631 3.78468 52.7876 3.71214C52.8121 3.6396 52.8117 3.56051 52.7865 3.48823C52.8233 3.57648 53.1402 4.17426 53.3515 4.57056L53.75 5.33319L54.1741 6.16576L54.1325 6.18901C54.2061 6.34553 54.2686 6.49039 54.3326 6.63692C54.4142 6.8334 54.4798 7.00324 54.5438 7.17475C54.613 7.18322 54.6798 7.20582 54.7405 7.24125C54.8012 7.27669 54.8546 7.32429 54.8975 7.38126L54.9247 7.41126L54.9455 7.44785C55.3024 8.1139 55.3297 8.22214 55.3457 8.37033C55.4203 8.56214 55.5114 8.74661 55.6177 8.9215L55.6386 8.96979C55.6774 9.06209 55.6808 9.16634 55.6481 9.26119C55.7374 9.40184 55.8191 9.5475 55.893 9.69747L55.9186 9.75902L56.0018 10.0621C56.0531 10.2519 56.1171 10.4883 56.1955 10.7614L56.386 10.6665C56.5044 10.8863 56.562 10.9813 56.6004 11.0445L56.6932 10.9962C57.0453 11.7056 57.3926 12.4316 57.7271 13.1326L58.3337 14.4031L58.1737 14.3265L58.2825 14.6045C58.5338 15.2356 58.6442 15.5137 58.6458 15.6786L58.7754 15.7418L58.8155 15.885C58.8507 16.0066 59.0571 16.5261 59.2476 16.984L59.3052 16.959C59.5032 17.3788 59.6775 17.8102 59.8269 18.2511C60.0163 18.8116 60.2458 19.3566 60.5135 19.8813L60.5247 19.903C60.5951 20.0695 60.7152 20.2976 60.832 20.5191C61.1521 21.1235 61.2193 21.2733 61.1681 21.4565L61.0529 21.8694L61.4274 22.8153L61.2673 22.8386L61.3041 22.9168L61.333 22.9035C61.4135 22.8731 61.5019 22.8746 61.5815 22.9074C61.6611 22.9402 61.7264 23.0022 61.7651 23.0817C61.8611 23.1833 61.9427 23.3814 62.0852 23.7477L61.9796 23.796L61.9796 23.816L61.9891 23.8377C62.1156 23.9292 62.2004 24.154 62.3636 24.5903L62.3973 24.6785L62.3877 24.7319C62.4678 25.0057 62.5651 25.2738 62.679 25.5344C62.7274 25.6381 62.7521 25.7521 62.751 25.8674L62.8614 26.1372C62.9718 26.402 63.0951 26.7016 63.2999 27.2528L62.9478 27.4343C62.9478 27.4893 62.9686 27.5642 62.9862 27.6541C63.0091 27.6529 63.0317 27.6484 63.0535 27.6408C63.1108 27.622 63.1614 27.5858 63.1987 27.5369C63.2361 27.4879 63.2585 27.4284 63.2631 27.366C63.2819 27.5285 63.3141 27.6889 63.3591 27.8456C63.4472 28.2169 63.5944 28.7697 63.7496 29.2543C63.8167 29.3388 63.8752 29.4303 63.9241 29.5274L63.9497 29.5857C63.9625 29.6223 63.9721 29.6556 63.9801 29.6856L64.8892 32.1549L65.1885 33.0075L65.9551 33.7501L65.3149 33.3854L65.635 34.3113L65.7006 34.6276L65.4877 34.7425C65.428 34.7749 65.36 34.7869 65.2933 34.7767C65.2266 34.7666 65.1647 34.7348 65.1164 34.6859L64.9372 34.5044L65.0236 34.7692L64.2906 33.9633L64.2746 33.9782L64.0921 33.7684L64.0265 33.6935C63.9128 33.655 63.8081 33.592 63.7192 33.5087L63.6728 33.477L63.6408 33.4121C63.5666 33.313 63.4875 33.218 63.4039 33.1274C63.2551 32.9609 63.0679 32.7361 62.8662 32.493L61.9988 31.4506C61.9042 31.4459 61.8147 31.405 61.7475 31.3357C61.7127 31.3019 61.6796 31.2663 61.6482 31.2291C61.581 31.1508 61.4786 31.026 61.3282 30.8395L61.2946 30.7878C61.2737 30.7529 61.1761 30.6213 61.1121 30.5314C60.8928 30.235 60.736 30.0203 60.9761 29.8105C60.5087 29.2227 60.1854 28.7914 59.9438 28.445L59.8429 28.5399L59.8221 28.515L59.6861 28.7347L59.1067 27.844L59.2124 27.759L59.0667 27.5709L57.9192 25.9274C57.6695 25.5544 57.4167 25.1564 57.1718 24.7718C57.0117 24.512 56.8437 24.2523 56.6756 23.9942C56.4836 23.6828 56.2995 23.3748 56.1267 23.085C55.9538 22.7953 55.7714 22.4873 55.6097 22.2308L55.5969 22.2075C55.2496 21.5415 55.1168 21.2267 55.2416 21.0419L55.2112 20.977L55.0512 20.9237L54.6879 20.2577L54.4478 20.7239L54.4222 19.7764L54.2621 19.4701L54.2621 19.5383C54.3454 20.7039 54.4222 21.6497 54.4942 22.4256L54.7535 25.1364L54.6767 24.9133C54.6911 25.3596 54.7103 25.7459 54.7279 26.1022C54.7599 26.7466 54.7871 27.2811 54.7711 27.8705C54.8022 27.9211 54.8229 27.9778 54.8319 28.0371L54.8319 28.1154L54.8319 28.2968L54.8879 28.2968C54.9207 28.8897 54.9089 29.4843 54.8527 30.0752C54.8367 30.2522 54.782 30.4231 54.6927 30.5747C54.7401 31.1326 54.7401 31.6936 54.6927 32.2515L54.7599 32.2515L54.7599 32.5845C54.7599 33.0391 54.7807 33.7717 54.7855 34.4644C54.7855 34.8774 54.7855 35.3453 54.7855 35.7017C54.7838 35.9013 54.764 36.1003 54.7263 36.2961C54.7391 36.5858 54.7071 37.1636 54.6927 37.3268L54.6751 38.3342C54.6655 38.9437 54.6607 39.3116 54.6303 40.299L54.5598 40.299C54.5406 40.4988 54.539 40.7253 54.5374 41.0017C54.5358 41.2782 54.5374 41.5529 54.5166 41.9042L54.5166 42.1823C54.4942 43.4794 54.4702 43.7725 54.4462 44.0556C54.4222 44.3386 54.4014 44.5851 54.3854 45.8872L54.3694 47.2659L54.2093 46.9446L54.1981 47.2925C54.1789 48.0169 54.1549 48.8361 54.0685 49.5521L54.0269 49.5521C54.0173 49.9317 54.0269 50.3747 54.0509 50.8076L54.0509 50.8643L52.7993 50.5312C52.857 49.6587 52.8121 49.4222 52.7737 49.2157L52.7561 49.1208L52.7561 49.0776C52.7929 48.5631 52.8089 48.3166 52.9706 48.235C52.9914 47.7605 53.0266 47.3308 53.0618 46.9146C53.0778 46.7097 53.0954 46.505 53.1098 46.2952C53.145 45.819 53.1867 45.3127 53.2363 44.7449L53.1018 45.078L53.3019 42.9532C53.3048 42.7673 53.3417 42.5836 53.4107 42.4121C53.4219 42.3887 53.4491 42.3305 53.4939 41.736L53.4939 41.6711L53.518 41.6228C53.5443 41.2237 53.5443 40.8231 53.518 40.4239C53.4839 39.6794 53.4865 38.9336 53.5259 38.1893C53.5011 38.1562 53.4817 38.119 53.4683 38.0794L53.4459 38.0162L53.6716 34.6343L53.598 33.2639C53.5804 33.0391 53.5644 32.7344 53.5484 32.3281L53.5852 32.3281L53.5852 32.2698L53.6348 32.2698L53.6428 32.09C53.6306 32.0611 53.6215 32.031 53.6156 32.0001C53.6016 31.8497 53.6064 31.698 53.63 31.5489L53.6412 31.4206L53.5067 30.9477L53.5708 30.8029C53.558 30.2867 53.5227 29.7605 53.4875 29.2509L53.4411 28.5083L53.5275 26.2804L53.4363 26.2804L53.4363 26.2654C53.4251 26.049 53.4155 25.9324 53.4075 25.8824L53.3483 25.8824L53.3483 24.6369L53.3211 23.518C53.2478 23.2828 53.209 23.0375 53.2059 22.7903C53.1898 22.6238 53.1738 22.4322 53.1514 22.2374L52.8746 19.8214L53.0602 20.2909C53.0341 19.914 53.0341 19.5356 53.0602 19.1587L53.0602 19.1337C53.0709 18.8272 53.0645 18.5203 53.041 18.2145L52.9994 18.2145C52.9994 18.0197 52.9754 17.7483 52.9514 17.4686L52.7129 17.2388L52.9386 17.3237C52.9098 17.024 52.8778 16.7276 52.849 16.5128L52.8025 16.5128L52.7769 16.2414L51.7222 13.9252L52.324 14.6096C52.2888 14.5163 52.2536 14.4214 52.2168 14.3314L52.188 14.2599L52.188 14.2466C52.1 14.25 52.0142 14.2171 51.9495 14.155C51.9495 14.1467 51.9319 14.1383 51.9239 14.1283L51.8743 14.0751L51.8519 14.0068L51.7862 13.812C51.743 13.6888 51.7014 13.5655 51.663 13.439L51.599 13.2208C51.5435 13.1553 51.5001 13.0796 51.471 12.9977L51.4229 12.8762L51.4454 12.8179C51.4293 12.7296 51.3813 12.5248 51.2853 12.2117C51.1893 11.8987 51.0468 11.4741 50.9108 11.0811L50.8276 10.8397L50.818 10.8081C50.7428 10.4901 50.6403 10.0587 50.9556 9.91886L50.8916 9.70243C50.8692 9.71408 50.85 9.7191 50.8436 9.72243C50.7975 9.73915 50.7479 9.743 50.6999 9.73365C50.6519 9.7243 50.6071 9.70203 50.5699 9.66909C50.4629 9.53634 50.3882 9.37873 50.3522 9.20956L50.3522 9.17289L50.309 8.98809C50.2882 8.89983 50.2674 8.81328 50.253 8.73003L50.1186 7.98739L50.3634 8.14553C50.3182 8.07485 50.2811 7.99886 50.253 7.91909L50.2402 7.87746C50.1329 7.50705 50.06 7.12679 50.0225 6.74188C50.0225 6.64364 50.0049 6.53037 49.9665 6.28893L50.0578 6.27226L50.0209 6.08079L49.7393 4.79032L49.6561 4.30908L49.4656 4.34737L49.1919 3.13853L49.2415 3.12024C49.1407 2.50248 49.1471 2.39256 49.1535 2.26768L48.9535 2.64233L48.691 3.1152L48.8302 3.18683L48.3021 4.29412L48.1596 4.60048C48.15 4.62969 48.1382 4.65813 48.1244 4.68544L48.2092 4.74707L48.0028 5.13001C48.0126 5.19921 48.0071 5.26979 47.9868 5.33644C47.9209 5.65362 47.831 5.96492 47.7179 6.2673L47.6923 6.32227L47.6363 6.41715C47.5979 6.48042 47.5514 6.557 47.4858 6.68521C47.4899 6.74149 47.4834 6.79805 47.4666 6.85172L47.4666 6.86172L47.4522 6.89002C47.4314 6.94663 47.4074 6.9999 47.3866 7.0432L47.369 7.0349L47.337 7.0932C47.177 7.37793 47.0665 7.57111 46.9209 7.61607C46.8889 7.70266 46.8488 7.79752 46.804 7.90576L46.7784 7.95576C46.7232 8.06241 46.6369 8.14806 46.532 8.20049C46.5016 8.24711 46.4599 8.31705 46.4023 8.41863L45.8518 8.08561L46.0118 7.78925C46.0998 7.63106 46.1911 7.46781 46.2631 7.34459L46.2775 7.31963L46.103 7.22971L46.2087 6.98165C46.2807 6.81514 46.3943 6.55204 46.4391 6.43048L46.4103 6.30389L46.7464 6.02916L46.828 5.87932L47.5531 4.35738C47.5689 4.29196 47.5881 4.22754 47.6107 4.16428C47.6299 4.10599 47.6571 4.03438 47.6955 3.93947L47.8907 3.49823L47.9548 3.52652L48.078 3.26342L47.918 3.16854L48.731 1.67985L49.2895 2.00458L49.1903 2.18938L49.3247 2.17605L49.2287 1.48171C49.191 1.3673 49.191 1.24317 49.2287 1.12876L49.6816 0.0447271L49.9057 1.31357ZM53.7324 31.717L53.838 31.727L53.854 31.6171C53.8062 31.6395 53.7645 31.6738 53.7324 31.717ZM54.2798 24.2872L54.2894 24.3355L54.379 24.3355L54.3198 24.2772C54.3061 24.2787 54.2926 24.2821 54.2798 24.2872ZM54.1789 16.7942L54.2045 16.7825C54.1924 16.7722 54.179 16.7638 54.1645 16.7576L54.1789 16.7942ZM52.5833 13.822L52.5897 13.822L52.5833 13.822ZM53.758 13.822C53.8316 14.5313 53.9181 15.3705 54.0077 16.3896L54.1501 16.7226C54.1706 16.7376 54.1899 16.7543 54.2077 16.7725L54.2605 16.7509L54.3006 16.8525L54.4414 17.2021C54.4798 17.2954 54.5214 17.387 54.563 17.4786L54.6351 17.6451L54.5694 17.6783C54.6591 17.8449 54.7439 18.0114 54.8271 18.1779L55.136 18.7773L55.2 18.8956C55.2965 19.085 55.4034 19.2685 55.5201 19.4451L56.0979 20.2993L55.8898 20.2227L55.981 20.4058L55.957 20.4208L56.0755 20.6273C56.1546 20.7121 56.2152 20.8138 56.2531 20.9253L56.3139 21.0453C56.3395 21.0969 56.37 21.1585 56.4084 21.2284L56.4212 21.2517L56.498 21.3899L56.5316 21.4482L56.3924 21.5364L56.4532 21.648C56.6804 21.6064 56.7925 21.8229 56.9669 22.1659C57.0533 22.3324 57.167 22.5722 57.2246 22.7104C57.2772 22.8126 57.2887 22.9324 57.2566 23.0434C57.295 23.0834 57.3334 23.1333 57.383 23.1966L57.4855 23.1316C57.6316 23.3681 57.78 23.6034 57.9304 23.8377L58.1801 24.2306C58.2921 24.3871 58.4121 24.5636 58.5402 24.7518C58.6682 24.9399 58.7786 25.1081 58.9067 25.2829C59.1803 25.6692 59.414 26.0139 59.5821 26.282C59.6957 26.4369 59.8125 26.615 59.915 26.7815C59.9838 26.8898 60.0478 26.9897 60.107 27.0763L60.1422 27.1296L60.5727 27.7274C60.8016 28.0454 61.0289 28.3634 61.261 28.6781L61.2737 28.6781L61.357 28.7764C61.6146 29.0827 61.8707 29.4058 62.1188 29.7172C62.4805 30.1718 62.855 30.6397 63.2583 31.0926L63.3992 31.2375L63.0486 30.29C62.8791 29.8772 62.7306 29.4553 62.6037 29.0261C62.3909 28.6332 62.0644 27.8306 61.581 26.5168L61.261 25.6709C60.9585 24.8633 60.6736 24.1007 60.4479 23.5762L60.3775 23.4097L60.4335 23.3181C60.0622 22.3873 59.7101 21.4865 59.2396 20.2677L58.9435 19.5017L59.0283 19.54C58.8811 19.1936 58.7082 18.8057 58.5066 18.3744C58.2681 17.8665 58.0264 17.342 57.788 16.8225C57.279 15.8717 56.8277 14.8244 56.4036 13.812C56.0005 12.8087 55.5459 11.8287 55.0416 10.8763L55.024 10.8413C54.8911 10.5184 54.7393 10.2042 54.5694 9.90057L54.5614 9.90057L54.1469 9.1446C54.0429 8.96976 53.9309 8.78991 53.8268 8.62506C53.4603 8.03561 53.3467 7.84079 53.3963 7.67095C53.3423 7.56446 53.3297 7.44055 53.3611 7.32467C53.3291 7.24974 53.3003 7.18143 53.2763 7.11816C53.1852 7.00136 53.1048 6.87593 53.0362 6.74351C52.9935 6.66469 52.9503 6.58144 52.9066 6.49374L52.7929 6.26064L52.7321 6.12909L52.7449 6.62862L52.8217 6.96165L52.9626 6.95002C53.009 7.44956 53.0458 7.8009 53.0762 8.08064L53.1354 8.73336L53.1802 9.24119L53.1802 9.23289L53.2939 10.1937C53.3227 10.4301 53.3451 10.7181 53.3659 10.9979C53.3841 11.3666 53.4253 11.7337 53.4891 12.0969L53.4891 12.1186C53.55 12.33 53.654 12.9211 53.758 13.822ZM50.1282 2.88543L50.1394 2.95373C50.1627 2.9361 50.1833 2.91469 50.2002 2.89039L50.1698 2.88039L50.1282 2.88543ZM49.8673 1.3069L49.8689 1.3069L49.8673 1.3069Z"
            fill="#D96E34" />
    </g>
    <defs>
        <clipPath id="clip0_3255_7038">
            <rect width="50.8378" height="30.0405" fill="white"
                transform="matrix(1.19249e-08 -1 -1 -1.19249e-08 66 50.8379)" />
        </clipPath>
    </defs>
</svg>