<svg width="182" height="39" viewBox="0 0 182 39" fill="none" xmlns="http://www.w3.org/2000/svg">
    <path
        d="M62.0563 25.6724C62.0168 25.5581 62.0152 25.4551 62.0514 25.3636C62.0716 25.2588 62.1132 25.1447 62.176 25.0215C62.2388 24.8982 62.2817 24.7987 62.3045 24.7231C62.2612 24.565 62.2856 24.423 62.3776 24.2971C62.483 24.1554 62.5459 24.0321 62.5661 23.9273C62.6147 23.3047 62.9112 22.4028 63.4557 21.2215C63.9989 20.0256 64.3135 19.2472 64.3998 18.8863C64.4118 18.8558 64.4207 18.7888 64.4263 18.6852C64.4466 18.5804 64.4621 18.5054 64.4729 18.4603C64.497 18.3993 64.5192 18.3164 64.5395 18.2116C64.5731 18.0908 64.6026 18.0073 64.628 17.9609C64.668 17.9132 64.714 17.8503 64.766 17.7721C64.8168 17.6794 64.8721 17.6377 64.9318 17.6472C64.9915 17.6567 65.0652 17.6576 65.1529 17.65C65.2367 17.5985 65.2262 17.5626 65.1214 17.5423C65.0019 17.5233 64.9257 17.4932 64.8926 17.4519C64.857 17.3814 64.8379 17.3315 64.8354 17.3023C64.8461 17.2572 64.8623 17.1895 64.8839 17.0993C64.9187 16.9932 64.9422 16.9249 64.9543 16.8944C65.022 16.491 65.0924 16.286 65.1655 16.2797C65.1947 16.2771 65.2357 16.325 65.2885 16.4235C65.3336 16.4343 65.3701 16.4311 65.3981 16.4139C65.4393 16.3808 65.4806 16.3478 65.5219 16.3147C65.5619 16.2671 65.5959 16.2346 65.6238 16.2175C65.7407 16.2072 65.8191 16.1783 65.8591 16.1306C65.9125 16.0671 65.975 16.0248 66.0468 16.0038C66.0824 16.0743 66.0742 16.1486 66.0221 16.2268C65.9847 16.3037 65.9666 16.3494 65.9679 16.364C65.9717 16.4079 65.9788 16.4882 65.989 16.6051C66.0125 16.7061 66.0196 16.7865 66.0101 16.8462C65.9829 17.04 65.9226 17.1925 65.8293 17.3037C65.7575 17.3247 65.728 17.4083 65.7408 17.5544C65.7682 17.6992 65.7831 17.7862 65.7857 17.8154C65.7674 18.1115 65.6831 18.4943 65.5328 18.9639C65.3971 19.4321 65.3204 19.7333 65.3027 19.8673C65.4196 19.8571 65.5412 19.817 65.6676 19.7471C65.7102 19.7286 65.7912 19.7289 65.9106 19.7479C66.03 19.7669 66.1117 19.7745 66.1555 19.7707C66.1701 19.7694 66.293 19.7439 66.5243 19.6942C66.7542 19.6299 66.933 19.5701 67.0607 19.5148C67.187 19.4448 67.2683 19.3641 67.3045 19.2726C67.3686 19.164 67.4845 19.0581 67.6521 18.9551C67.7093 18.9354 67.7884 18.9137 67.8894 18.8902C67.9891 18.852 68.0669 18.8158 68.1228 18.7814C68.4448 18.5913 68.7858 18.2817 69.1457 17.8527C69.519 17.4078 69.792 16.9938 69.9646 16.6106C70.0744 16.3508 70.071 15.9756 69.9545 15.4852C69.8602 15.0813 69.7174 14.711 69.526 14.3744C69.3333 14.0231 69.0698 13.6192 68.7354 13.1627C68.4143 12.6902 68.168 12.3142 67.9963 12.0348C67.962 11.9789 67.9222 11.9456 67.8771 11.9348C67.8466 11.9227 67.7948 11.9199 67.7218 11.9263C67.6487 11.9327 67.5976 11.9372 67.5684 11.9397C67.5074 11.9156 67.4457 11.8842 67.3835 11.8455C67.3199 11.7921 67.2742 11.7741 67.2462 11.7912C67.2316 11.7925 67.1659 11.7983 67.049 11.8085C66.7516 11.7756 66.5884 11.7604 66.5591 11.763C66.413 11.7758 66.2501 11.8489 66.0704 11.9824L65.6113 12.2876C65.5687 12.3061 65.5195 12.3324 65.4636 12.3668C65.4064 12.3865 65.3712 12.4043 65.3578 12.4202C65.3445 12.4361 65.3252 12.4672 65.2998 12.5136C65.2731 12.5454 65.2842 12.5886 65.3332 12.6432C65.3898 12.7855 65.1104 12.9572 64.4949 13.1582C64.4803 13.1595 64.4517 13.1694 64.4091 13.1878C64.3094 13.226 64.231 13.2549 64.1738 13.2747C64.1166 13.2944 64.0687 13.3354 64.03 13.3977C63.9913 13.4599 63.9824 13.527 64.0034 13.5987C64.0231 13.6559 64.0384 13.6619 64.0492 13.6168C64.0599 13.5717 64.0726 13.5485 64.0872 13.5472C64.1864 13.6711 64.2602 13.8413 64.3086 14.0579C64.2858 14.1335 64.2531 14.1805 64.2105 14.199C64.1826 14.2161 64.1533 14.2187 64.1228 14.2066C64.0923 14.1946 64.0685 14.1746 64.0513 14.1466L64.0056 14.1286L64.0302 13.9056C63.9864 13.9094 63.9318 13.9583 63.8664 14.0524C63.8398 14.0842 63.829 14.1293 63.8341 14.1877C63.7757 14.1928 63.7312 14.1894 63.7007 14.1773C63.6835 14.1494 63.6743 14.1281 63.673 14.1135C63.6705 14.0843 63.6673 14.0477 63.6634 14.0039C63.6742 13.9588 63.6783 13.9216 63.6758 13.8924C63.7342 13.8873 63.7701 13.8768 63.7834 13.8609C63.7955 13.8304 63.7929 13.8012 63.7757 13.7732C63.7573 13.7307 63.7614 13.6935 63.7881 13.6617L64.0927 13.1051C64.4542 13.0293 64.6549 12.9676 64.6949 12.9199C64.7082 12.904 64.7368 12.8941 64.7806 12.8903C64.8352 12.8414 64.8686 12.8016 64.8806 12.7711C64.7891 12.735 64.7256 12.6816 64.6899 12.6111C64.6689 12.5394 64.6765 12.4577 64.7127 12.3662C64.7635 12.2734 64.8142 12.1807 64.865 12.0879C64.9304 11.9938 64.9958 11.8998 65.0612 11.8057C65.1265 11.7117 65.1653 11.6494 65.1773 11.6189C65.4845 11.0914 66.0606 10.776 66.9054 10.6727C66.9169 10.8042 66.9446 10.868 66.9884 10.8642C67.003 10.8629 67.0523 10.8365 67.1361 10.785C67.2345 10.7322 67.3209 10.7099 67.3953 10.7182C67.6024 10.7295 67.861 10.8246 68.1711 11.0036C68.3579 11.1198 68.548 11.2725 68.7412 11.4617C68.9331 11.6363 69.086 11.7849 69.1998 11.9074C69.3136 12.03 69.4569 12.2383 69.6299 12.5323C69.8174 12.8251 69.9297 13.014 69.9666 13.0991C70.0168 13.1683 70.1382 13.3785 70.3309 13.7298L70.6218 14.2785C70.8443 14.4651 70.9779 14.8142 71.0226 15.3255C71.0597 15.7493 71.0887 15.997 71.1097 16.0688C71.153 16.2269 71.1286 16.3689 71.0366 16.4948C70.9445 16.6206 70.8957 16.7353 70.89 16.8389C70.8895 17.0009 70.8597 17.1654 70.8007 17.3325C70.7404 17.485 70.6776 17.6083 70.6122 17.7024C70.5614 17.7951 70.4707 17.9356 70.3399 18.1237C70.2078 18.2972 70.1152 18.4157 70.0618 18.4793C69.9711 18.6197 69.7806 18.7983 69.4904 19.0151C69.2135 19.216 69.0436 19.3781 68.9808 19.5014C68.8824 19.5542 68.7366 19.6553 68.5436 19.8047C68.3505 19.954 68.1829 20.057 68.0406 20.1137C67.9421 20.1664 67.8097 20.2516 67.6433 20.3693C67.4903 20.471 67.3858 20.539 67.3299 20.5734C67.281 20.5187 67.2479 20.4775 67.2308 20.4495C67.2269 20.4057 67.2384 20.3679 67.265 20.3361C67.2917 20.3043 67.3269 20.2865 67.3708 20.2827C67.4133 20.2642 67.4632 20.2452 67.5203 20.2254C67.5908 20.1898 67.6401 20.1634 67.668 20.1463C67.6813 20.1304 67.7093 20.1132 67.7518 20.0948C67.7944 20.0763 67.8296 20.0585 67.8576 20.0413C67.8855 20.0242 67.9135 20.007 67.9414 19.9898C67.9827 19.9568 68.01 19.9323 68.0233 19.9164C68.0513 19.8993 68.0792 19.8821 68.1072 19.8649C68.1338 19.8331 68.1538 19.8093 68.1672 19.7934C68.1792 19.7629 68.1846 19.7404 68.1833 19.7257C68.1954 19.6952 68.1935 19.6733 68.1776 19.66C68.175 19.6308 68.1651 19.6022 68.148 19.5743C67.4353 19.8427 66.9847 19.9926 66.796 20.0238C66.6207 20.0391 66.4343 20.1806 66.2369 20.4481C66.2235 20.464 66.0381 20.5318 65.6805 20.6514C65.5369 20.6934 65.5128 20.7544 65.6081 20.8344C65.6958 20.8267 65.7514 20.8734 65.775 20.9744C65.7178 20.9941 65.567 21.0368 65.3224 21.1023C65.0779 21.1679 64.8905 21.2137 64.7603 21.2398C64.6936 21.3193 64.6587 21.4254 64.6556 21.5582C64.6525 21.691 64.6329 21.8031 64.5967 21.8946C64.3962 22.2949 64.1785 22.8366 63.9438 23.5197C63.7079 24.1881 63.5083 24.6841 63.3452 25.0075C63.3211 25.0685 63.2389 25.2229 63.0987 25.4708C62.973 25.7173 62.8794 25.9095 62.8179 26.0474C62.6876 26.0735 62.5714 26.0911 62.4691 26.1C62.3802 26.0931 62.3039 26.063 62.2404 26.0096C62.1755 25.9417 62.1142 25.8293 62.0563 25.6724ZM63.8689 15.0901C63.752 15.1004 63.6332 15.0887 63.5125 15.0551C63.4064 15.0202 63.4 14.9471 63.4933 14.8359C63.6045 14.9292 63.6795 14.9448 63.7182 14.8825C63.5301 14.7517 63.4811 14.5278 63.5711 14.2107C63.6029 14.2374 63.6804 14.2822 63.8037 14.345C63.927 14.4078 64.0064 14.4745 64.042 14.545C64.1266 14.6701 64.1482 14.7492 64.1069 14.7822C64.0803 14.814 64.0298 14.8258 63.9554 14.8176C63.8798 14.7947 63.8446 14.8125 63.8497 14.871C63.8789 14.8684 63.924 14.8792 63.985 14.9033C63.9876 14.9325 63.9755 14.963 63.9489 14.9948C63.9222 15.0266 63.9095 15.0498 63.9108 15.0644L64.1157 15.1348C64.0942 15.225 64.0488 15.2952 63.9796 15.3455C63.977 15.3162 63.9519 15.2816 63.9042 15.2416C63.8699 15.1857 63.8581 15.1352 63.8689 15.0901ZM65.271 15.7183C65.2246 15.6929 65.2296 15.5821 65.286 15.3857C65.2625 15.2848 65.2793 15.2244 65.3364 15.2047C65.3923 15.1703 65.4403 15.1293 65.4803 15.0817C65.796 15.1571 65.9137 15.3235 65.8331 15.5808C65.7721 15.5567 65.7225 15.4948 65.6844 15.3951C65.6634 15.3233 65.6195 15.3271 65.5529 15.4066C65.5262 15.4383 65.5221 15.4755 65.5405 15.5181C65.5723 15.5447 65.5822 15.5733 65.5701 15.6038C65.5155 15.6528 65.471 15.6493 65.4367 15.5934C65.417 15.5362 65.3617 15.5779 65.271 15.7183ZM65.9503 20.9591C65.9255 20.8435 65.9842 20.7573 66.1265 20.7007C66.2833 20.6428 66.4641 20.6049 66.6686 20.587C66.8719 20.5545 67.0008 20.5138 67.0554 20.4649C67.1057 20.5341 67.14 20.59 67.1584 20.6325C67.0269 20.644 66.8037 20.7004 66.4886 20.8015C66.1736 20.9027 65.9941 20.9552 65.9503 20.9591ZM63.6366 15.4638C63.5425 15.3984 63.5215 15.3266 63.5736 15.2485C63.6746 15.2249 63.7403 15.2192 63.7708 15.2312C63.8013 15.2433 63.8124 15.2865 63.8042 15.3608C63.775 15.3634 63.7398 15.3812 63.6985 15.4142C63.6718 15.446 63.6512 15.4625 63.6366 15.4638ZM65.5723 16.1336C65.4065 16.0893 65.4026 16.0454 65.5608 16.0021C65.7438 16.0745 65.7476 16.1183 65.5723 16.1336ZM63.8596 15.4885C63.8424 15.4605 63.8411 15.4459 63.8557 15.4446C63.8837 15.4275 63.9129 15.4249 63.9434 15.437C63.9739 15.449 64.0037 15.4538 64.033 15.4512C64.033 15.4512 64.0409 15.4579 64.0568 15.4712C64.0581 15.4858 64.0667 15.4998 64.0826 15.5131C63.9657 15.5233 63.8913 15.5151 63.8596 15.4885ZM71.141 25.0322C71.0106 24.7197 70.9368 24.5495 70.9196 24.5215C70.9158 24.4777 70.9443 24.2985 71.0051 23.984C71.0895 23.7705 71.2008 23.4442 71.3391 23.0052C71.492 22.5649 71.628 22.1849 71.7473 21.8653C71.8799 21.5298 72.023 21.2302 72.1766 20.9664C72.2902 20.7504 72.36 20.5382 72.3859 20.3298C72.4252 20.1055 72.4257 19.9435 72.3875 19.8438C72.364 19.7428 72.3636 19.6545 72.3864 19.5789C72.3985 19.5484 72.4067 19.474 72.4111 19.3559C72.4288 19.2218 72.4643 19.123 72.5177 19.0594C72.5964 18.9495 72.6942 18.8894 72.8111 18.8792C72.9134 18.8702 73.0261 18.8972 73.1494 18.96C73.2104 18.9841 73.2568 19.0095 73.2886 19.0362C73.3204 19.0628 73.3375 19.0908 73.3401 19.12C73.3572 19.1479 73.3671 19.1765 73.3697 19.2057C73.3709 19.2204 73.3662 19.2502 73.3554 19.2953C73.3593 19.3392 73.3631 19.383 73.3669 19.4268C73.3708 19.4707 73.4006 19.4754 73.4565 19.4411C73.4991 19.4226 73.5276 19.4128 73.5423 19.4115C73.5581 19.4248 73.5613 19.4613 73.5518 19.5211C73.557 19.5795 73.5414 19.6545 73.5053 19.746C73.4824 19.8216 73.4504 19.8759 73.4091 19.909C73.3824 19.9408 73.3856 19.9773 73.4187 20.0186C73.4664 20.0586 73.4842 20.0938 73.4721 20.1243C73.4601 20.1548 73.4334 20.1866 73.3921 20.2197C73.3642 20.2368 73.3369 20.2613 73.3102 20.2931C73.2823 20.3102 73.255 20.3347 73.2283 20.3665C73.2016 20.3983 73.1816 20.4221 73.1683 20.438C73.1696 20.4526 73.1788 20.4739 73.196 20.5018C73.2119 20.5152 73.2338 20.5132 73.2617 20.4961C73.2897 20.4789 73.3109 20.4697 73.3255 20.4684C73.3535 20.4512 73.3687 20.4573 73.3713 20.4865C73.3854 20.6472 73.3715 20.8251 73.3296 21.0201C73.2878 21.2152 73.2355 21.3744 73.1727 21.4976C73.1232 21.605 73.0423 21.7741 72.9299 22.0047C72.8322 22.2341 72.7647 22.3873 72.7272 22.4641C72.58 22.8009 72.4893 23.1107 72.4552 23.3934C72.4431 23.4239 72.3292 23.7209 72.1135 24.2846C72.0774 24.3761 72.0504 24.4888 72.0327 24.6229C72.015 24.7569 72.0027 24.8684 71.9957 24.9574C71.9888 25.0463 71.9533 25.1451 71.8892 25.2538C71.8384 25.3466 71.7571 25.4273 71.6453 25.496C71.5615 25.5475 71.4627 25.5119 71.3489 25.3894C71.2497 25.2656 71.1804 25.1465 71.141 25.0322ZM75.7093 12.3758C75.6337 12.353 75.5933 12.3124 75.5882 12.2539C75.5831 12.1955 75.592 12.1285 75.6148 12.0529C75.6363 11.9626 75.6458 11.9029 75.6433 11.8737C75.5248 11.1921 75.6227 10.7124 75.937 10.4346C76.0608 10.3354 76.1885 10.2801 76.32 10.2686C76.4076 10.2609 76.5277 10.2872 76.6802 10.3475C76.773 10.3983 76.9109 10.4598 77.0939 10.5322C77.2756 10.5899 77.397 10.6308 77.458 10.6549C77.5495 10.6911 77.6137 10.7517 77.6506 10.8368C77.6874 10.9219 77.7218 10.9778 77.7536 11.0045C77.9232 11.0927 77.9652 11.2362 77.8796 11.4351C77.8421 11.512 77.8015 11.5524 77.7577 11.5562C77.7284 11.5588 77.6589 11.5207 77.5489 11.442C77.439 11.3632 77.3554 11.3337 77.2982 11.3535C77.269 11.356 77.249 11.3799 77.2382 11.425C77.2408 11.4542 77.2195 11.4634 77.1744 11.4526C77.1439 11.4406 77.1109 11.3993 77.0752 11.3288C77.0396 11.2583 76.9993 11.2177 76.9542 11.2069C76.9249 11.2095 76.8897 11.2273 76.8484 11.2603C76.8205 11.2775 76.7913 11.28 76.7608 11.268C76.729 11.2413 76.7039 11.2067 76.6854 11.1642C76.6657 11.107 76.6698 11.0698 76.6977 11.0527C76.727 11.0501 76.7568 11.0549 76.7873 11.0669C76.8165 11.0644 76.8391 11.0697 76.855 11.0831C76.8709 11.0964 76.8855 11.0951 76.8988 11.0792C76.9255 11.0475 76.9277 10.9884 76.9054 10.902C76.8977 10.8143 76.8713 10.7651 76.8262 10.7543C76.7798 10.7289 76.7379 10.7547 76.7005 10.8316C76.663 10.9085 76.6297 10.9482 76.6005 10.9508C76.5713 10.9533 76.5414 10.9486 76.5109 10.9365C76.4937 10.9086 76.4766 10.8806 76.4594 10.8527C76.4422 10.8247 76.4251 10.7968 76.4079 10.7688C76.3907 10.7409 76.3675 10.7282 76.3383 10.7308C76.3237 10.732 76.3037 10.7559 76.2783 10.8023C76.1583 10.9453 76.1282 11.0215 76.1879 11.031C76.2171 11.0285 76.2683 11.024 76.3413 11.0176C76.4144 11.0112 76.4589 11.0147 76.4747 11.028C76.5847 11.1067 76.6216 11.1918 76.5854 11.2833C76.5626 11.3589 76.5093 11.4225 76.4254 11.474L76.0824 11.5923C75.9561 11.6623 75.8761 11.7576 75.8425 11.8783C75.8222 11.9832 75.792 12.0594 75.752 12.1071C75.7387 12.123 75.7432 12.1741 75.7655 12.2605C75.8024 12.3456 75.7989 12.3901 75.7551 12.3939C75.7404 12.3952 75.7252 12.3892 75.7093 12.3758ZM76.1079 12.8931C76.0482 12.8836 76.0012 12.8509 75.9668 12.795C75.9458 12.7232 75.9706 12.6695 76.0411 12.6339C76.1662 12.5494 76.2345 12.5728 76.246 12.7043C76.1978 12.8263 76.1517 12.8892 76.1079 12.8931ZM76.2613 12.8797C76.2746 12.8638 76.2873 12.8406 76.2994 12.8101C76.3261 12.7783 76.3461 12.7545 76.3594 12.7386C76.4394 12.6432 76.4858 12.6686 76.4986 12.8147C76.505 12.8878 76.4259 12.9094 76.2613 12.8797ZM75.8216 23.6951C75.7999 23.4467 75.8007 23.2038 75.8241 22.9661C75.9103 21.4274 76.3953 20.1557 77.2791 19.1508C77.5216 18.894 77.8474 18.5784 78.2563 18.204C78.6652 17.8296 78.95 17.6354 79.1108 17.6214C79.1254 17.6201 79.1857 17.6369 79.2918 17.6718C79.4113 17.6908 79.4764 17.6777 79.4872 17.6326C79.6523 17.5004 79.9394 17.4164 80.3485 17.3806C80.7868 17.3422 81.0136 17.4107 81.029 17.586C81.029 17.586 81.0064 17.5806 80.9613 17.5699C80.6932 17.5344 80.5617 17.5459 80.5668 17.6044C80.5535 17.6203 80.5548 17.6349 80.5706 17.6482C80.6037 17.6895 80.5777 17.7286 80.4926 17.7655C80.3624 17.7916 80.2442 17.7872 80.1381 17.7523C80.0307 17.7028 79.8998 17.7216 79.7455 17.8087C79.6058 17.8946 79.5649 18.0159 79.6228 18.1728C79.6304 18.2605 79.6368 18.3335 79.6419 18.392C79.6604 18.4345 79.6283 18.4889 79.5458 18.555C79.4778 18.6198 79.4232 18.6688 79.382 18.7018C79.3394 18.7203 79.2616 18.7565 79.1485 18.8106C79.0488 18.8488 78.9783 18.8844 78.9371 18.9174C78.7256 19.0243 78.5665 19.1412 78.4598 19.2684C78.3532 19.3955 78.2351 19.5604 78.1056 19.7631C77.9894 19.9499 77.8647 20.1228 77.7314 20.2817C77.5942 20.3968 77.479 20.5099 77.3856 20.6211C77.3056 20.7165 77.2349 20.8331 77.1733 20.971C77.1264 21.1076 77.0921 21.221 77.0706 21.3112C77.049 21.4014 77.0186 21.5587 76.9793 21.783C76.9388 21.9926 76.9097 22.1645 76.892 22.2985C76.7303 22.9752 76.661 23.445 76.684 23.708C76.7377 24.3217 77.1006 24.5991 77.7727 24.5403C78.5178 24.4751 79.0568 24.3249 79.3896 24.0897C79.5559 23.9721 80.0357 23.6503 80.8289 23.1245C81.6367 22.5975 82.2816 22.1435 82.7636 21.7627C83.2443 21.3673 83.6507 20.9637 83.9827 20.5519C83.9986 20.5652 84.0482 20.6271 84.1315 20.7376C84.2294 20.8468 84.3114 20.9427 84.3775 21.0253C84.4569 21.0919 84.5033 21.1173 84.5166 21.1014C84.6353 20.9438 84.6543 20.8244 84.5736 20.7431C84.4929 20.6618 84.3982 20.5891 84.2895 20.525C84.1942 20.445 84.1672 20.3885 84.2084 20.3555C84.5215 20.0631 84.9434 19.5845 85.4741 18.9197C86.0182 18.239 86.4388 17.7458 86.736 17.4401C87.7982 16.2871 88.4465 15.6194 88.6808 15.437C88.7087 15.4198 88.7386 15.4245 88.7704 15.4512C88.8168 15.4766 88.8473 15.4886 88.8619 15.4874C88.9629 15.4638 89.0346 15.4428 89.0772 15.4244C89.1185 15.3913 89.1439 15.3449 89.1534 15.2852C89.1775 15.2242 89.2009 15.1559 89.2238 15.0803C89.2466 15.0047 89.3034 14.8966 89.3942 14.7562C89.4983 14.5999 89.6237 14.4343 89.7703 14.2595C89.8103 14.2118 89.864 14.2366 89.9314 14.3338C89.9975 14.4163 90.0802 14.5195 90.1793 14.6433C90.2918 14.7513 90.3992 14.8008 90.5015 14.7918C90.6038 14.7829 90.6882 14.7387 90.7549 14.6592C90.8869 14.4857 90.8901 14.3529 90.7642 14.2609C90.6371 14.1542 90.496 14.0562 90.341 13.9667C90.2005 13.8759 90.1643 13.7981 90.2322 13.7333C90.4665 13.5508 90.7665 13.1933 91.1322 12.6607C91.5111 12.1123 91.8397 11.7449 92.1178 11.5586C92.2417 11.4595 92.4515 11.2497 92.7474 10.9294C93.0433 10.609 93.1807 10.413 93.1597 10.3412C93.1413 10.2986 93.1015 10.2653 93.0405 10.2412C92.9929 10.2012 92.9678 10.1666 92.9652 10.1374C92.976 10.0923 93.036 10.0208 93.1452 9.92287C93.2716 9.85293 93.4062 9.70865 93.549 9.49003C93.6905 9.25681 93.768 9.13225 93.7813 9.11636C94.0911 8.61814 94.4067 8.35496 94.7281 8.32684C95.3281 8.78964 95.481 9.10752 95.187 9.28048C94.837 9.48776 94.5234 9.77285 94.2459 10.1357C93.9818 10.4828 93.6921 10.9571 93.3767 11.5589C93.06 12.1461 92.8762 12.4861 92.8255 12.5788C92.5741 13.072 92.3847 13.3462 92.257 13.4015C92.0614 13.5217 91.8788 13.707 91.7094 13.9574C91.5545 14.2065 91.3974 14.5147 91.2381 14.882C91.0776 15.2346 90.9586 15.4732 90.8812 15.5978C90.765 15.7846 90.5648 16.104 90.2804 16.5558C89.9947 16.993 89.7497 17.3899 89.5454 17.7464C89.341 18.1029 89.1792 18.441 89.0599 18.7606C88.9984 18.8984 88.9047 19.0907 88.7791 19.3372C88.6668 19.5679 88.5925 19.729 88.5564 19.8205C88.5589 19.8497 88.4998 19.8475 88.3791 19.8139C88.273 19.779 88.1596 19.7448 88.0389 19.7112C87.9328 19.6763 87.8743 19.6814 87.8635 19.7265C87.8261 19.8034 87.8973 19.9444 88.0772 20.1495C88.2558 20.34 88.3331 20.4657 88.309 20.5267C87.9567 21.0434 87.7832 21.5003 87.7884 21.8973C87.8151 21.8655 87.9853 21.7918 88.2991 21.676C88.3988 21.6378 88.5687 21.4757 88.8087 21.1897C89.0486 20.9037 89.2709 20.7517 89.4755 20.7339C89.5138 21.1722 89.628 21.383 89.8179 21.3664C89.8763 21.3613 89.9176 21.3282 89.9417 21.2672C89.9792 21.1904 89.9709 21.0954 89.9168 20.9823C89.8774 20.868 89.7874 20.7655 89.647 20.6747C89.5847 20.636 89.6062 20.5457 89.7116 20.404C89.8157 20.2477 89.9097 20.1438 89.9935 20.0923C90.104 20.009 90.4044 19.7398 90.8946 19.2847C91.3994 18.8283 91.8804 18.5212 92.3378 18.3634C92.4229 18.3265 92.5699 18.24 92.7788 18.1039C92.9878 17.9679 93.164 17.8788 93.3076 17.8368C93.9828 17.6453 94.4374 17.8779 94.6716 18.5346C94.7136 18.6782 94.6832 18.8354 94.5803 19.0064C94.4921 19.176 94.3896 19.266 94.2727 19.2762C94.1266 19.289 94.0122 19.1591 93.9294 18.8866C93.2427 18.9467 92.1755 19.6216 90.7277 20.9114C90.3898 21.0882 90.2584 21.269 90.3335 21.4538C90.3704 21.5389 90.4317 21.6513 90.5176 21.791C90.618 21.9295 90.6867 22.0413 90.7236 22.1264C90.6944 22.1289 90.6267 22.1128 90.5206 22.0779C90.4291 22.0417 90.3614 22.0256 90.3176 22.0294C90.2591 22.0345 90.2417 22.0876 90.2653 22.1886C90.2863 22.2603 90.3139 22.3242 90.3483 22.38C90.3813 22.4213 90.4064 22.4559 90.4236 22.4839C90.4395 22.4972 90.47 22.5093 90.5151 22.52C90.5748 22.5295 90.6047 22.5343 90.6047 22.5343C90.6193 22.533 90.6631 22.5292 90.7362 22.5228L90.8238 22.5151C90.9846 22.501 91.0866 22.5731 91.1298 22.7313C91.2584 23.1911 91.6177 23.7633 92.2076 24.4479C92.7975 25.1324 93.3094 25.5146 93.7433 25.5944C93.7738 25.6064 93.878 25.6194 94.0559 25.6333C94.2351 25.6618 94.3704 25.6941 94.4619 25.7303C94.5014 25.8446 94.4656 26.0244 94.3545 26.2697C94.2637 26.4101 94.1234 26.4887 93.9334 26.5053C93.6851 26.527 93.3845 26.4576 93.0319 26.2971C92.6805 26.1511 92.4021 25.9988 92.1969 25.8401C91.4285 25.3037 90.7203 24.2762 90.0721 22.7576C89.9753 22.3243 89.892 22.0445 89.822 21.9182C89.801 21.8464 89.7613 21.813 89.7028 21.8182C89.659 21.822 89.6031 21.8563 89.5352 21.9212C89.4818 21.9847 89.4225 22.0635 89.3571 22.1576C89.2917 22.2516 89.2524 22.3066 89.239 22.3225C88.594 23.0267 87.9134 23.4102 87.1975 23.4728C86.8907 23.4997 86.7168 23.2793 86.6759 22.8118C86.6388 22.388 86.7018 21.8452 86.8647 21.1831C87.0409 20.5052 87.1913 20.0356 87.3156 19.7744C87.4159 19.5743 87.5949 19.2642 87.8526 18.8441C88.1236 18.4082 88.3334 18.0291 88.4819 17.7069C88.6304 17.3848 88.7283 17.0744 88.7758 16.7758C88.6736 16.7847 88.4745 16.9494 88.1786 17.2697C87.8815 17.5754 87.5802 17.9183 87.2748 18.2984C86.9682 18.6638 86.7596 18.8882 86.6491 18.9715C86.211 19.3484 85.9357 19.6522 85.8234 19.8829L85.77 19.7772C85.7006 19.4888 85.6221 19.3484 85.5344 19.3561C85.4613 19.3625 85.374 19.4585 85.2725 19.644C85.2738 19.6586 85.3186 19.7504 85.407 19.9193C85.4941 20.0737 85.531 20.1588 85.5177 20.1747C85.1617 20.9861 84.3347 21.8829 83.0367 22.8651C81.7374 23.8327 80.4806 24.6126 79.2663 25.2047C78.7436 25.4565 78.3142 25.5971 77.9781 25.6265C77.6859 25.6521 77.3568 25.5926 76.9908 25.4479C76.288 25.156 75.8983 24.5718 75.8216 23.6951ZM81.47 19.0933C81.3785 19.0572 81.2454 18.9658 81.0706 18.8191C80.9104 18.6712 80.8345 18.56 80.8427 18.4857C80.8471 18.3675 80.8759 18.2767 80.9292 18.2131C80.9972 18.1483 80.9768 18.0838 80.8682 18.0197L80.9101 17.9939C80.938 17.9768 80.9733 17.959 81.0158 17.9405C81.0717 17.9062 81.1216 17.8871 81.1654 17.8833C81.37 17.8654 81.4908 18.0683 81.5278 18.492C81.5293 18.8452 81.51 19.0457 81.47 19.0933ZM104.3 21.9324C104.191 21.8683 104.124 21.6901 104.099 21.3979C104.072 21.0911 104.075 20.8773 104.109 20.7566C104.253 20.052 104.374 19.5777 104.47 19.3337L105.006 18.1384C105.481 17.346 105.872 16.9363 106.179 16.9095C106.235 16.8751 106.287 16.797 106.335 16.675C106.382 16.5384 106.463 16.4503 106.577 16.4109C106.579 16.4255 106.614 16.415 106.685 16.3794C106.755 16.3438 106.826 16.3081 106.896 16.2725C106.966 16.2223 107.008 16.1966 107.022 16.1953C107.146 16.0961 107.452 16.143 107.94 16.3358C108.582 16.6036 108.768 16.9627 108.498 17.4133C108.384 17.6294 108.317 17.7898 108.297 17.8946C108.279 18.0287 108.236 18.1208 108.167 18.171C108.096 18.2067 108.033 18.1606 107.978 18.033C108.095 18.0227 108.159 18.0024 108.171 17.9719C108.197 17.9255 108.198 17.8518 108.174 17.7508C108.168 17.6777 108.146 17.687 108.11 17.7785C108.061 17.8859 108.013 17.9269 107.966 17.9015C107.874 17.8507 107.798 17.7469 107.74 17.59C107.681 17.4185 107.643 17.3188 107.626 17.2908C107.543 17.1803 107.382 17.1944 107.144 17.333C106.908 17.5009 106.769 17.594 106.727 17.6124C106.561 17.4061 106.438 17.3432 106.357 17.424C106.329 17.4411 106.417 17.5218 106.621 17.6659C106.715 17.7312 106.741 17.7732 106.698 17.7916C106.441 17.8877 106.248 18.0371 106.119 18.2398C106.004 18.4412 105.9 18.6859 105.808 18.9737C105.714 19.2469 105.608 19.4696 105.491 19.6419C105.373 19.8141 105.285 20.1458 105.224 20.6369C105.156 20.8637 105.138 21.0788 105.17 21.282C105.202 21.4707 105.344 21.4951 105.596 21.3552C105.639 21.3367 105.704 21.3164 105.79 21.2941C105.875 21.2572 105.938 21.2222 105.979 21.1892C106.453 20.8827 106.982 20.3653 107.566 19.637C107.646 19.5416 107.75 19.3853 107.879 19.168C108.021 18.9493 108.139 18.7844 108.233 18.6732C108.273 18.6255 108.347 18.5528 108.457 18.4549C108.579 18.3411 108.659 18.2458 108.697 18.1689C108.749 18.0907 108.784 17.9919 108.803 17.8724C108.879 17.7333 109.027 17.5731 109.247 17.3919C109.467 17.2108 109.61 17.0878 109.678 17.0229C109.921 16.7661 110.121 16.6161 110.279 16.5728C110.38 16.5493 110.474 16.6073 110.56 16.7471C110.659 16.8709 110.729 17.0046 110.772 17.1481C110.795 17.2491 110.803 17.3441 110.796 17.433C110.788 17.5074 110.76 17.6055 110.712 17.7275C110.677 17.8337 110.655 17.9166 110.645 17.9763C110.601 18.1421 110.483 18.4837 110.293 19.0009C110.116 19.5022 110.02 19.9228 110.006 20.2627C109.999 20.3516 110.072 20.5956 110.225 20.9944C110.393 21.4066 110.623 21.5927 110.914 21.5525C110.958 21.5486 111.059 21.5251 111.217 21.4818C111.39 21.4372 111.513 21.4118 111.586 21.4054C111.732 21.3926 111.787 21.4393 111.752 21.5454C111.74 21.5759 111.704 21.5791 111.643 21.555C111.581 21.5162 111.543 21.5048 111.529 21.5207C111.475 21.5697 111.466 21.6367 111.503 21.7218C111.554 21.8056 111.545 21.8653 111.474 21.901L111.121 22.1527C110.776 22.4184 110.491 22.5244 110.265 22.4705C109.664 22.3317 109.269 21.932 109.078 21.2714C109.043 21.2009 109.014 21.0414 108.992 20.7931C108.985 20.5434 108.979 20.382 108.972 20.309C108.964 20.2213 108.966 20.1549 108.977 20.1098C109.002 20.0634 109.056 20.0072 109.139 19.9411C109.235 19.8591 109.289 19.8101 109.303 19.7942C109.33 19.7771 109.364 19.7446 109.404 19.697C109.459 19.648 109.5 19.6077 109.526 19.5759C109.568 19.5428 109.608 19.5025 109.648 19.4548C109.688 19.4071 109.714 19.3681 109.726 19.3376C109.752 19.2912 109.77 19.2454 109.781 19.2003C109.806 19.1539 109.81 19.1168 109.793 19.0888C109.774 19.0463 109.749 19.0043 109.716 18.9631L109.573 18.8431C109.558 18.8443 109.546 18.8748 109.537 18.9346C109.54 18.9784 109.54 19.0594 109.536 19.1776C109.53 19.2811 109.509 19.3786 109.473 19.4701C109.461 19.5006 109.424 19.4965 109.361 19.4578C109.314 19.4178 109.244 19.3797 109.153 19.3436C109.076 19.3061 108.989 19.3211 108.892 19.3885C108.865 19.4203 108.824 19.4533 108.768 19.4877C108.725 19.5061 108.697 19.5233 108.684 19.5392C108.685 19.5538 108.688 19.583 108.692 19.6268C108.715 19.7278 108.517 19.9881 108.097 20.4076C107.691 20.8112 107.397 21.0725 107.216 21.1914C107.133 21.2429 107.052 21.2499 106.975 21.2125C106.898 21.175 106.832 21.1735 106.776 21.2078C106.735 21.2409 106.694 21.2812 106.654 21.3289C106.613 21.3619 106.578 21.3871 106.55 21.4042C106.536 21.4055 106.499 21.4087 106.441 21.4138C106.101 21.3994 105.935 21.4433 105.944 21.5456C105.948 21.5894 105.975 21.6386 106.024 21.6932C106.055 21.7199 106.084 21.71 106.109 21.6637C106.135 21.6173 106.153 21.5788 106.165 21.5483C106.191 21.5019 106.221 21.5067 106.255 21.5626C106.307 21.6464 106.32 21.7115 106.294 21.7579L106.316 21.756C106.331 21.7547 106.353 21.7528 106.382 21.7502C106.411 21.7477 106.447 21.7372 106.49 21.7187C106.547 21.699 106.591 21.6952 106.621 21.7072C106.665 21.7034 106.695 21.7154 106.713 21.7434C106.797 21.8685 106.542 22.0602 105.946 22.3184C105.889 22.3381 105.825 22.3658 105.754 22.4014C105.726 22.4186 105.705 22.4278 105.69 22.4291C105.563 22.4844 105.433 22.5178 105.302 22.5293C105.126 22.5447 104.971 22.5362 104.836 22.5039C104.731 22.4836 104.628 22.3969 104.526 22.2439C104.423 22.0762 104.348 21.9724 104.3 21.9324ZM108.519 18.1623C108.431 17.9933 108.461 17.8288 108.609 17.6686C108.655 17.694 108.688 17.7353 108.708 17.7924C108.681 17.8242 108.65 17.8932 108.615 17.9993L108.543 18.1823L108.519 18.1623ZM107.285 21.4724C107.285 21.6344 107.248 21.6376 107.176 21.482C107.158 21.4541 107.149 21.4255 107.146 21.3963C107.226 21.301 107.267 21.2606 107.268 21.2752C107.282 21.2739 107.288 21.3397 107.285 21.4724ZM121.632 20.8356C121.626 20.7625 121.574 20.6714 121.476 20.5622C121.378 20.453 121.328 20.3911 121.327 20.3764C121.281 19.8505 121.483 19.1261 121.932 18.2035C121.969 18.1266 122.062 17.927 122.211 17.6049C122.359 17.2827 122.472 17.052 122.548 16.9129C122.624 16.7737 122.726 16.5955 122.854 16.3781C122.996 16.1449 123.143 15.9774 123.296 15.8757C123.448 15.7594 123.603 15.6795 123.761 15.6363C123.79 15.6337 123.76 15.7026 123.669 15.8431C123.515 16.1068 123.454 16.252 123.486 16.2787C123.564 16.3307 123.637 16.3243 123.705 16.2595C123.786 16.1788 123.852 16.0847 123.901 15.9773C123.95 15.8553 123.981 15.7937 123.996 15.7924C124.002 15.8655 124.047 15.9646 124.132 16.0897C124.215 16.2002 124.26 16.2919 124.267 16.365C124.286 16.4221 124.251 16.521 124.16 16.6614C124.133 16.6932 124.023 16.7765 123.828 16.9112C123.649 17.0447 123.519 17.1592 123.439 17.2545C123.359 17.3498 123.325 17.4633 123.336 17.5947C123.331 17.6983 123.267 17.9026 123.147 18.2076L122.968 18.687C122.931 18.7639 122.868 18.8945 122.781 19.0787C122.708 19.2471 122.646 19.3777 122.595 19.4705C122.559 19.562 122.533 19.6894 122.518 19.8527C122.501 20.0013 122.54 20.101 122.632 20.1518C122.681 20.2064 122.754 20.2 122.852 20.1326C122.949 20.0653 123.058 19.9674 123.179 19.839C123.3 19.7106 123.382 19.6372 123.425 19.6187C123.467 19.6003 123.567 19.5548 123.722 19.4823C123.878 19.4098 123.997 19.3405 124.079 19.2744C124.3 19.1078 124.456 19.0353 124.546 19.0569C124.561 19.0556 124.599 19.0743 124.662 19.113C124.724 19.1517 124.77 19.1698 124.799 19.1673C124.843 19.1634 124.899 19.1364 124.968 19.0862C125.035 19.0067 124.986 18.8711 124.822 18.6793C124.772 18.6101 124.742 18.5981 124.731 18.6432C124.724 18.7321 124.714 18.7918 124.702 18.8223C124.649 18.8859 124.615 18.9183 124.6 18.9196C124.542 18.9247 124.491 18.8409 124.446 18.6681C124.416 18.4941 124.429 18.3899 124.485 18.3555C124.527 18.3371 124.589 18.2875 124.671 18.2068C124.752 18.1261 124.814 18.0765 124.856 18.058C124.884 18.0409 124.901 18.0688 124.908 18.1419C124.91 18.3331 124.919 18.4353 124.935 18.4487C125.03 18.5287 125.105 18.4632 125.16 18.2523C125.194 18.1315 125.216 18.0486 125.227 18.0035C125.298 17.8059 125.423 17.633 125.601 17.4849C125.916 17.2071 126.102 16.9847 126.161 16.8176C126.196 16.7115 126.29 16.6075 126.443 16.5058C126.596 16.4041 126.7 16.3288 126.755 16.2798C126.808 16.2163 126.799 16.114 126.728 15.973C126.695 15.9317 126.655 15.8984 126.609 15.873C126.577 15.8463 126.545 15.8197 126.513 15.793C126.481 15.7663 126.456 15.7244 126.436 15.6672C126.435 15.6526 126.408 15.6034 126.357 15.5196C126.32 15.4345 126.307 15.3694 126.318 15.3243C126.33 15.2938 126.416 15.2715 126.577 15.2574C126.738 15.2434 126.825 15.2284 126.838 15.2125C126.863 15.1661 126.865 15.0997 126.843 15.0133C126.835 14.9257 126.808 14.8764 126.763 14.8657C126.734 14.8682 126.684 14.88 126.612 14.901C126.539 14.9074 126.48 14.9052 126.435 14.8944C126.39 14.8837 126.35 14.8503 126.315 14.7944C126.214 14.6414 126.031 14.5764 125.768 14.5994C125.71 14.6045 125.66 14.6236 125.619 14.6566C125.591 14.6738 125.587 14.711 125.606 14.7681C125.58 14.7999 125.543 14.8031 125.497 14.7777C125.449 14.7377 125.387 14.699 125.31 14.6616C125.232 14.6095 125.164 14.586 125.105 14.5911C125.047 14.5963 124.991 14.6306 124.937 14.6941C124.868 14.7444 124.956 14.8177 125.2 14.9141C125.306 14.949 125.353 14.9817 125.341 15.0122L125.132 15.4059C125.123 15.4656 125.103 15.4967 125.074 15.4993C125.03 15.5031 124.967 15.4498 124.884 15.3393C124.815 15.2275 124.765 15.1656 124.735 15.1536C124.645 15.132 124.548 15.1184 124.444 15.1127C124.355 15.1058 124.326 15.0201 124.355 14.8555C124.366 14.8104 124.378 14.7726 124.39 14.7421C124.418 14.7249 124.508 14.6655 124.661 14.5637C124.813 14.4474 124.917 14.3794 124.974 14.3597C125.03 14.3253 125.115 14.2811 125.228 14.2271C125.354 14.1571 125.468 14.1104 125.569 14.0868C125.669 14.0486 125.776 14.0171 125.892 13.9923C126.211 13.9349 126.43 13.9158 126.549 13.9348C127.043 14.0241 127.291 14.503 127.293 15.3714L127.912 14.6106C128.047 14.481 128.181 14.3294 128.313 14.1559C128.445 13.9824 128.544 13.8486 128.61 13.7545C128.675 13.6605 128.784 13.4816 128.938 13.2179C129.105 12.9382 129.208 12.7746 129.248 12.7269C129.34 12.6011 129.477 12.3904 129.657 12.0949C129.851 11.7835 130 11.557 130.105 11.4153C130.16 11.3663 130.222 11.3167 130.291 11.2665C130.36 11.2163 130.428 11.1441 130.493 11.0501C130.585 10.9243 130.694 10.7381 130.82 10.4915C130.944 10.2303 131.052 10.0368 131.144 9.91099C132.01 8.70159 132.602 7.64131 132.92 6.73014C132.996 6.59098 133.056 6.43117 133.099 6.25073C133.14 6.05567 133.18 5.9197 133.218 5.84281C133.27 5.76464 133.347 5.72109 133.449 5.71214C133.464 5.71086 133.467 5.74739 133.459 5.82172C133.464 5.88016 133.481 5.90811 133.51 5.90555C133.865 5.9187 134.055 5.90939 134.082 5.87761C134.123 5.84456 134.091 5.81059 133.985 5.7757C133.877 5.72621 133.769 5.6621 133.659 5.58338C133.547 5.49005 133.517 5.397 133.568 5.30422C133.595 5.27245 133.694 5.05767 133.865 4.65989C134.036 4.26211 134.177 4.02158 134.288 3.9383C134.426 3.83785 134.5 3.75777 134.51 3.69805C134.522 3.66755 134.525 3.62307 134.52 3.56463C134.517 3.53541 134.563 3.46519 134.656 3.35396C134.724 3.28913 134.838 3.24237 134.997 3.2137C135.155 3.17042 135.263 3.13892 135.32 3.11919C135.489 3.0308 135.66 3.04532 135.832 3.16276C136.019 3.27891 136.095 3.39735 136.062 3.51808C136.04 3.6083 135.934 3.82372 135.743 4.16433C135.705 4.24122 135.622 4.38102 135.492 4.58375C135.376 4.77058 135.301 4.91706 135.266 5.02317C135.227 5.24744 135.165 5.46633 135.08 5.67983C134.995 5.87872 134.913 6.04044 134.836 6.165C134.773 6.28828 134.645 6.50561 134.451 6.817C134.258 7.1284 134.097 7.39276 133.968 7.61009C133.855 7.82615 133.698 8.14165 133.499 8.5566C133.314 8.97026 133.177 9.25463 133.088 9.40968C133.024 9.51835 132.931 9.72518 132.811 10.0302C132.705 10.3339 132.589 10.609 132.464 10.8556C132.338 11.1022 132.206 11.2757 132.067 11.3761C132.039 11.3933 132.027 11.4165 132.029 11.4457C132.032 11.4749 132.035 11.5114 132.039 11.5553C132.057 11.5978 132.068 11.6337 132.07 11.6629C132.057 11.8408 132.023 12.0425 131.969 12.2681C131.914 12.479 131.849 12.6687 131.776 12.8371C131.715 12.9896 131.63 13.1958 131.521 13.4557C131.424 13.6997 131.351 13.8754 131.302 13.9828C130.919 14.988 130.779 16.0896 130.884 17.2877C130.892 17.3754 130.891 17.5301 130.881 17.7518C130.869 17.9589 130.878 18.1422 130.907 18.3016C130.934 18.4465 130.997 18.5808 131.096 18.7046C131.145 18.7592 131.248 18.8386 131.404 18.9427C131.575 19.0455 131.694 19.1455 131.762 19.2427C131.843 19.3239 131.858 19.4183 131.809 19.5257C131.761 19.6477 131.656 19.7157 131.495 19.7298C131.364 19.7413 131.236 19.7156 131.113 19.6528C130.865 19.5125 130.66 19.4348 130.496 19.4196C130.295 19.3048 130.082 18.9774 129.858 18.4375C129.757 18.1225 129.695 17.8261 129.67 17.5485C129.619 16.9641 129.728 16.0197 129.997 14.7153C129.995 14.7007 130.011 14.6257 130.043 14.4904C130.089 14.3392 130.122 14.2111 130.142 14.1063C130.161 13.9869 130.179 13.8601 130.197 13.7261C130.214 13.5774 130.211 13.4672 130.19 13.3954C130.183 13.3077 130.157 13.2658 130.113 13.2697C130.064 13.377 129.902 13.5531 129.629 13.7978C129.37 14.0267 129.255 14.2281 129.285 14.4022C129.288 14.446 129.186 14.6169 128.976 14.915C128.765 15.1984 128.553 15.4673 128.34 15.7215L128.044 16.1229C128.004 16.1705 127.914 16.2373 127.774 16.3231C127.635 16.4089 127.539 16.4983 127.489 16.591C127.308 16.8865 127.116 17.0432 126.911 17.0611C126.866 17.0504 126.849 17.0224 126.86 16.9773C126.884 16.9163 126.908 16.8553 126.932 16.7943C126.955 16.7187 126.959 16.6815 126.944 16.6828C126.915 16.6854 126.827 16.774 126.681 16.9488C126.639 16.9819 126.652 17.047 126.72 17.1441C126.802 17.24 126.844 17.3026 126.847 17.3318C126.841 17.4353 126.79 17.5208 126.692 17.5882C126.609 17.6397 126.526 17.6175 126.444 17.5216C126.296 17.3432 126.188 17.2864 126.12 17.3512C126.065 17.4002 126.095 17.4859 126.208 17.6085C126.241 17.6498 126.274 17.6837 126.306 17.7104C126.352 17.7358 126.383 17.7551 126.399 17.7685C126.415 17.7818 126.423 17.7958 126.425 17.8104C126.426 17.825 126.42 17.8402 126.407 17.8561C126.393 17.872 126.367 17.9038 126.327 17.9515C126.272 18.0004 126.182 18.0599 126.055 18.1298C125.943 18.1985 125.868 18.264 125.829 18.3262C125.759 18.1998 125.673 18.1338 125.569 18.1282C125.455 18.1676 125.48 18.2832 125.644 18.475C125.677 18.5163 125.671 18.5388 125.628 18.5427C125.509 18.5383 125.43 18.5526 125.388 18.5857C125.375 18.6016 125.347 18.6187 125.305 18.6372C125.261 18.641 125.233 18.6582 125.221 18.6887C125.207 18.7046 125.209 18.7265 125.226 18.7544C125.424 18.9875 125.315 19.343 124.9 19.8209C124.484 20.2843 124.168 20.5401 123.951 20.5885C123.821 20.6146 123.575 20.7466 123.213 20.9844C122.867 21.2355 122.583 21.3487 122.36 21.3241C122.256 21.3184 122.111 21.2575 121.924 21.1413C121.738 21.0398 121.641 20.9379 121.632 20.8356ZM125.744 17.6049C125.719 17.6513 125.719 17.7396 125.745 17.8698C125.786 17.9988 125.824 18.0912 125.858 18.1471C125.871 18.1312 125.92 18.1048 126.006 18.0679C126.105 18.0297 126.169 17.9948 126.195 17.963C126.236 17.9299 126.248 17.8994 126.231 17.8715C126.032 17.6092 125.869 17.5204 125.744 17.6049ZM126.323 17.1567C126.285 17.219 126.313 17.2901 126.408 17.3701C126.517 17.4342 126.607 17.4558 126.679 17.4348C126.662 17.2449 126.593 17.1258 126.471 17.0776C126.411 17.0681 126.362 17.0945 126.323 17.1567ZM139.325 16.505C139.361 16.5755 139.455 16.5526 139.607 16.4363C139.758 16.32 139.894 16.183 140.012 16.0254C140.13 15.8531 140.165 15.747 140.117 15.707C140.068 15.6524 139.975 15.6826 139.838 15.7977C139.699 15.8982 139.571 16.0272 139.452 16.1848C139.347 16.3265 139.304 16.4333 139.325 16.505ZM143.942 16.0128C143.915 16.0446 143.914 16.111 143.937 16.212C143.976 16.3117 144.01 16.3676 144.04 16.3796C144.086 16.3904 144.113 16.3659 144.122 16.3062C144.136 16.1283 144.097 16.0213 144.006 15.9851C143.977 15.9877 143.955 15.9969 143.942 16.0128ZM147.055 13.2229C147.091 13.1314 147.1 13.0717 147.083 13.0437C146.983 12.9053 146.898 12.9495 146.83 13.1763C146.819 13.2214 146.809 13.2739 146.799 13.3336C146.902 13.3246 146.987 13.2877 147.055 13.2229ZM147.487 13.3618C147.5 13.3459 147.527 13.3141 147.567 13.2665C147.62 13.2029 147.646 13.1638 147.645 13.1492C147.643 13.1346 147.64 13.0981 147.635 13.0396C147.601 12.9837 147.54 12.9596 147.452 12.9673C147.423 12.9699 147.386 12.9658 147.341 12.955C147.294 12.9296 147.266 12.9395 147.255 12.9846C147.215 13.0322 147.241 13.0741 147.332 13.1103C147.285 13.2469 147.301 13.3486 147.381 13.4152C147.411 13.4273 147.447 13.4095 147.487 13.3618ZM151.451 14.7596L151.604 14.9891L151.816 14.6393C151.865 14.5173 151.857 14.4296 151.793 14.3763C151.744 14.3217 151.662 14.2995 151.545 14.3097C151.355 14.3263 151.259 14.4083 151.257 14.5557C151.245 14.5862 151.27 14.6208 151.332 14.6596C151.395 14.6983 151.434 14.7316 151.451 14.7596ZM153.123 13.4208C152.976 13.5955 152.87 13.811 152.804 14.067C152.753 14.3218 152.831 14.4621 153.04 14.4881C153.639 14.4357 154.204 14.1654 154.736 13.6772C155.266 13.1744 155.665 12.6021 155.933 11.9603C156.089 11.5638 156.137 11.2652 156.075 11.0645C156.051 10.9635 155.977 10.9553 155.852 11.0399C155.378 11.3463 154.892 11.595 154.393 11.7858C154.193 11.8476 154.036 11.8244 153.924 11.7165C153.811 11.6086 153.707 11.5956 153.611 11.6776C153.478 11.8365 153.414 11.9525 153.421 12.0255C153.427 12.0986 153.48 12.197 153.579 12.3208C153.693 12.4434 153.76 12.5333 153.779 12.5904C153.685 12.687 153.565 12.8373 153.421 13.0413C153.276 13.2307 153.176 13.3572 153.123 13.4208ZM155.919 10.5481C155.878 10.5812 155.898 10.6383 155.979 10.7196C156.058 10.7863 156.128 10.8244 156.187 10.8339C156.185 10.8046 156.208 10.729 156.256 10.607C156.317 10.4691 156.355 10.3922 156.368 10.3764C156.262 10.3415 156.112 10.3987 155.919 10.5481ZM137.288 13.6578L137.09 13.6751C137.008 13.5792 136.997 13.5287 137.055 13.5236C137.145 13.5451 137.223 13.5899 137.288 13.6578ZM138.018 13.6822C137.887 13.6937 137.743 13.6474 137.587 13.5433C137.445 13.4379 137.447 13.2979 137.594 13.1231C137.647 13.0595 137.728 13.0525 137.835 13.102C137.956 13.1356 138.049 13.1937 138.115 13.2762C138.199 13.3867 138.25 13.4705 138.27 13.5277C138.288 13.5703 138.277 13.6081 138.236 13.6411C138.208 13.6583 138.135 13.672 138.018 13.6822ZM143.694 16.2111C143.736 16.1781 143.745 16.1111 143.721 16.0101C143.712 15.9078 143.772 15.8363 143.901 15.7956C144.027 15.7256 144.136 15.7897 144.227 15.9879C144.333 16.1848 144.346 16.3382 144.267 16.4481C144.227 16.4958 144.131 16.5705 143.978 16.6722C143.838 16.758 143.749 16.8321 143.71 16.8944C143.607 17.0653 143.301 17.2615 142.79 17.4828C142.279 17.7042 141.908 17.8324 141.675 17.8674C141.558 17.8777 141.372 17.9381 141.117 18.0488C140.875 18.1436 140.688 18.1967 140.557 18.2082C140.337 18.2274 140.149 18.1776 139.991 18.0589C139.956 17.9884 139.86 17.9894 139.705 18.0619C139.548 18.1198 139.455 18.15 139.425 18.1526C139.338 18.1603 139.254 18.1308 139.175 18.0641C139.066 18 138.954 17.8921 138.837 17.7403C138.721 17.5885 138.62 17.4501 138.536 17.325C138.466 17.1986 138.424 17.136 138.409 17.1373C138.291 17.1329 138.055 17.2935 137.7 17.6189C137.359 17.9285 137.182 18.0839 137.167 18.0852C136.438 18.5023 135.847 18.7307 135.394 18.7703C135.189 18.7882 134.938 18.7734 134.639 18.7259C134.039 18.6017 133.815 18.1356 133.965 17.3274C133.976 17.2823 133.973 17.1648 133.956 16.9748C133.938 16.7703 133.96 16.599 134.021 16.4612C134.071 16.3538 134.182 16.1895 134.354 15.9683C134.54 15.7459 134.654 15.6108 134.694 15.5631C134.955 15.1869 135.276 14.8129 135.656 14.441C136.034 14.0546 136.355 13.8499 136.618 13.8268C136.822 13.809 136.964 13.9143 137.043 14.143C137.209 14.1874 137.255 14.2938 137.181 14.4622C137.121 14.6147 137.026 14.7113 136.897 14.752C136.798 14.7902 136.708 14.8642 136.63 14.9742C136.551 15.0841 136.484 15.1636 136.43 15.2125C136.362 15.2773 136.258 15.3527 136.118 15.4385C135.977 15.5097 135.872 15.5705 135.803 15.6207C135.747 15.655 135.7 15.7033 135.661 15.7656C135.637 15.8266 135.607 15.9029 135.571 15.9944C135.534 16.0859 135.504 16.1548 135.478 16.2012C135.453 16.2476 135.364 16.3216 135.211 16.4234C135.072 16.5238 135.007 16.6179 135.015 16.7055C135.017 16.7348 134.954 16.939 134.825 17.3184C134.722 17.6513 134.812 17.8349 135.094 17.869C135.333 17.907 135.666 17.8411 136.093 17.6712C136.534 17.5001 136.814 17.3357 136.933 17.1781C137.037 17.0218 137.162 16.9372 137.308 16.9244C137.454 16.9117 137.568 16.8649 137.649 16.7842C137.745 16.7022 137.865 16.5592 138.009 16.3552C138.167 16.1353 138.308 15.9831 138.433 15.8985C138.516 15.8324 138.611 15.7431 138.719 15.6306C138.826 15.5035 138.928 15.4062 139.025 15.3388C139.122 15.2714 139.243 15.224 139.388 15.1966C139.518 15.1705 139.823 14.9598 140.304 14.5644C140.783 14.1544 141.125 13.9404 141.33 13.9225C141.432 13.9136 141.516 13.9431 141.581 14.011C141.791 14.2282 141.708 14.5446 141.332 14.9602C141.251 15.041 141.099 15.1573 140.877 15.3093C140.655 15.4612 140.497 15.5928 140.404 15.704C140.35 15.7676 140.24 15.9319 140.071 16.1969C139.917 16.446 139.772 16.65 139.639 16.8089C139.505 17.1298 139.79 17.2741 140.494 17.242C141.415 17.1615 141.985 17.0379 142.206 16.8714C142.22 16.8555 142.268 16.8145 142.35 16.7484C142.431 16.6676 142.487 16.626 142.516 16.6234C142.545 16.6209 142.612 16.6224 142.715 16.6281C142.746 16.6401 142.753 16.7205 142.736 16.8692C142.714 17.1214 142.74 17.2443 142.813 17.2379C142.842 17.2354 142.864 17.2334 142.878 17.2322C143.021 17.1755 143.055 17.0621 142.981 16.8919C142.921 16.7058 142.898 16.6121 142.912 16.6108C142.984 16.5898 143.049 16.5695 143.106 16.5497C143.12 16.5485 143.134 16.5326 143.146 16.5021C143.186 16.4544 143.246 16.3902 143.328 16.3095C143.408 16.2142 143.479 16.1858 143.541 16.2246C143.603 16.2633 143.654 16.2588 143.694 16.2111ZM139.303 13.2165C139.079 13.3539 138.863 13.3212 138.654 13.1187C138.508 12.9695 138.515 12.8805 138.675 12.8519C138.732 12.8321 138.821 12.8391 138.941 12.8727C139.252 12.8897 139.413 12.9566 139.423 13.0735C139.427 13.1173 139.387 13.165 139.303 13.2165ZM139.421 13.5595C139.464 13.5411 139.503 13.4861 139.539 13.3946C139.575 13.3031 139.622 13.2475 139.679 13.2277C139.821 13.1711 139.844 13.2648 139.748 13.5088C139.724 13.5698 139.7 13.6308 139.676 13.6918C139.644 13.6652 139.591 13.6477 139.516 13.6395C139.457 13.63 139.425 13.6033 139.421 13.5595ZM139.581 13.8767C139.651 13.8265 139.746 13.8182 139.866 13.8518C140.048 13.9095 140.118 14.0359 140.076 14.231C140.048 14.4101 139.944 14.5665 139.764 14.7C139.736 14.7171 139.682 14.6851 139.601 14.6038C139.535 14.5213 139.475 14.4235 139.421 14.3104C139.365 14.1827 139.35 14.0884 139.374 14.0274L139.399 14.0693C139.452 14.1678 139.493 14.2084 139.521 14.1912C139.634 14.1372 139.658 14.0835 139.595 14.0302C139.53 13.9622 139.525 13.9111 139.581 13.8767ZM144.568 15.3397C144.585 15.3677 144.567 15.4134 144.514 15.477C144.46 15.5405 144.392 15.598 144.308 15.6495C144.237 15.6852 144.186 15.6896 144.154 15.663C144.123 15.6363 144.133 15.5912 144.187 15.5276C144.253 15.4482 144.322 15.3907 144.393 15.355C144.463 15.3194 144.521 15.3143 144.568 15.3397ZM145.216 11.1312C145.223 11.2189 145.2 11.2945 145.147 11.3581C145.094 11.4216 145.038 11.456 144.979 11.4611C144.877 11.47 144.821 11.4161 144.811 11.2992C144.795 11.1238 144.93 11.0679 145.216 11.1312ZM148.175 12.904C148.045 12.9301 147.983 12.8987 147.99 12.8098C147.997 12.7208 148.049 12.6427 148.147 12.5753C148.286 12.4894 148.385 12.444 148.444 12.4389C148.561 12.4286 148.594 12.4699 148.543 12.5627C148.504 12.625 148.436 12.6825 148.337 12.7353C148.324 12.7512 148.296 12.7683 148.253 12.7868C148.18 12.7932 148.154 12.8323 148.175 12.904ZM149.457 11.4006C149.377 11.4959 149.307 11.5315 149.246 11.5074C149.215 11.4954 149.225 11.4357 149.274 11.3283C149.286 11.2978 149.347 11.2409 149.458 11.1576C149.583 11.073 149.668 11.0288 149.711 11.025C149.799 11.0173 149.714 11.1425 149.457 11.4006ZM162.162 18.5484C162.196 18.5897 162.243 18.6224 162.304 18.6465C162.366 18.6852 162.39 18.7125 162.377 18.7284C162.378 18.743 162.383 18.7942 162.39 18.8819C162.369 18.9721 162.351 19.0251 162.338 19.041C162.325 19.0569 162.288 19.0601 162.228 19.0506C162.183 19.0398 162.132 19.037 162.073 19.0421C162 19.0485 161.865 19.1045 161.668 19.21C161.487 19.3289 161.337 19.3789 161.218 19.3599C161.171 19.3345 161.197 19.2881 161.294 19.2207C159.451 19.5292 158.427 19.6923 158.223 19.7102C156.776 19.8368 155.395 19.6117 154.078 19.0349C154.017 19.0108 153.946 18.9508 153.864 18.8549C153.783 18.7736 153.71 18.699 153.645 18.6311C153.582 18.5778 153.535 18.5524 153.506 18.5549C153.214 18.5805 152.829 18.305 152.352 17.7284C151.874 17.1518 151.599 16.6974 151.526 16.3652C151.492 16.1473 151.409 15.9558 151.277 15.7907C151.159 15.6243 150.993 15.4916 150.778 15.3927C150.578 15.2924 150.387 15.2134 150.205 15.1557C150.038 15.0967 149.819 15.0349 149.549 14.9702C149.278 14.9055 149.074 14.8497 148.938 14.8028C148.862 14.78 148.701 14.7057 148.454 14.5801C148.222 14.4531 147.985 14.3488 147.742 14.2669C147.514 14.1838 147.32 14.1493 147.159 14.1634C146.969 14.18 146.845 14.2719 146.786 14.439C146.19 15.875 145.932 17.046 146.011 17.9519C146.084 18.7847 146.383 19.1781 146.909 19.1321C147.012 19.1231 147.169 19.0725 147.382 18.9803C147.393 19.1118 147.4 19.1922 147.403 19.2214C147.421 19.2639 147.437 19.2773 147.451 19.2614C147.479 19.2442 147.498 19.2131 147.509 19.168C147.534 19.1216 147.567 19.0745 147.607 19.0269C147.647 18.9792 147.689 18.9535 147.733 18.9496C147.741 19.0519 147.702 19.1879 147.614 19.3575C147.525 19.5272 147.437 19.6159 147.35 19.6235C147.291 19.6287 147.251 19.588 147.229 19.5016C147.25 19.5734 147.232 19.6265 147.176 19.6608C147.12 19.6951 147.041 19.7168 146.939 19.7257C146.72 19.7449 146.534 19.7244 146.382 19.6641C146.372 19.7238 146.338 19.7562 146.28 19.7613C146.134 19.7741 145.949 19.6872 145.727 19.5005C145.346 19.1805 145.117 18.8398 145.041 18.4784C144.935 17.9429 144.944 17.287 145.068 16.5106C145.11 16.3155 145.118 16.1602 145.093 16.0446C145.068 15.929 145.032 15.8439 144.983 15.7893C144.934 15.7347 144.887 15.7093 144.843 15.7131C144.756 15.7208 144.732 15.7818 144.771 15.8961C144.774 15.9253 144.77 15.9698 144.761 16.0295C144.765 16.0734 144.753 16.1112 144.726 16.1429C144.7 16.1747 144.679 16.1839 144.663 16.1706C144.476 16.0545 144.433 15.8963 144.533 15.6961C144.633 15.496 144.77 15.3736 144.942 15.329L145.183 15.3079C145.255 15.2869 145.297 15.2612 145.309 15.2307C145.321 15.2002 145.303 15.1576 145.254 15.103C145.218 15.0325 145.199 14.9827 145.197 14.9534C145.157 14.8391 145.224 14.6787 145.397 14.4721C145.571 14.2655 145.718 14.0981 145.839 13.9697C145.959 13.8267 145.946 13.6733 145.799 13.5094C145.437 13.2466 145.144 13.0883 144.918 13.0344C144.678 12.9818 144.44 12.7891 144.205 12.4563C144.088 12.29 144.04 12.1617 144.061 12.0714C144.097 11.9799 144.211 11.9332 144.402 11.9312C144.506 11.9368 144.63 11.926 144.775 11.8986C144.933 11.8553 145.056 11.8371 145.145 11.8441C145.249 11.8497 145.356 11.8919 145.466 11.9706C145.826 12.2188 146.134 12.3759 146.39 12.4419C146.435 12.4526 146.582 12.2778 146.83 11.9175C147.093 11.5559 147.348 11.1876 147.595 10.8127C147.855 10.4218 148.023 10.1568 148.099 10.0177C148.225 9.7711 148.577 9.24712 149.154 8.44572C149.732 7.64433 150.116 7.15432 150.307 6.97571C150.416 6.87781 150.514 6.81773 150.6 6.79545C150.7 6.75728 150.816 6.73975 150.949 6.74285C151.082 6.74596 151.185 6.74432 151.258 6.73792C151.316 6.73281 151.437 6.68542 151.621 6.59575C151.817 6.49019 151.945 6.43485 152.004 6.42974C152.12 6.41951 152.089 6.56945 151.91 6.87956C151.884 6.91134 151.861 6.90596 151.843 6.8634C151.808 6.80751 151.783 6.7729 151.767 6.75957C151.553 6.83719 151.358 7.03836 151.18 7.36308C151.017 7.68653 150.942 7.92131 150.954 8.06742C150.949 8.17097 150.87 8.28092 150.718 8.39725C150.565 8.49898 150.478 8.60226 150.458 8.70709C150.427 8.85703 150.28 9.02451 150.016 9.20952C149.811 9.38941 149.596 9.71002 149.372 10.1714C149.146 10.6181 148.965 10.9136 148.831 11.0579C148.199 11.7462 147.863 12.2762 147.822 12.6479C147.789 12.9452 148.047 13.2097 148.598 13.4413C148.765 13.5003 149.014 13.5668 149.344 13.641C149.674 13.7151 149.869 13.757 149.929 13.7665C149.974 13.7772 150.157 13.8496 150.478 13.9834C150.812 14.1014 151.053 14.154 151.199 14.1412C151.418 14.1221 151.553 13.9851 151.604 13.7303C151.687 13.3256 151.961 12.8452 152.428 12.2891C152.811 11.7844 153.249 11.4885 153.741 11.4012C153.692 11.17 153.708 11.0213 153.791 10.9552C153.872 10.8745 153.984 10.8131 154.128 10.7711C154.272 10.7291 154.375 10.6465 154.438 10.5232C154.474 10.4317 154.565 10.3795 154.711 10.3667C154.87 10.3381 154.971 10.3072 155.012 10.2742C155.234 10.1222 155.455 10.0366 155.674 10.0175C156.04 9.98551 156.353 10.12 156.615 10.421C156.876 10.7074 157.003 11.0644 156.996 11.4919C156.999 11.6977 156.9 12.0745 156.697 12.6222C156.508 13.1541 156.315 13.4728 156.118 13.5783L155.338 14.5078C154.574 15.0311 153.977 15.3557 153.546 15.4817C153.489 15.5014 153.41 15.5231 153.309 15.5466C153.207 15.5556 153.12 15.5706 153.048 15.5916C152.975 15.598 152.897 15.6269 152.813 15.6784C152.742 15.714 152.687 15.7557 152.647 15.8033C152.755 16.1914 153.003 16.5893 153.392 16.997C153.794 17.3887 154.203 17.6915 154.62 17.9054C154.898 18.0577 155.218 18.1843 155.58 18.2851C155.943 18.3859 156.229 18.4566 156.438 18.4972C156.648 18.5377 157.013 18.5867 157.533 18.6443C158.055 18.7164 158.36 18.756 158.449 18.7629C158.659 18.8035 158.967 18.7912 159.373 18.7262C159.78 18.6612 160.08 18.6423 160.274 18.6695C160.469 18.7113 160.675 18.7154 160.893 18.6816C160.994 18.658 161.099 18.6783 161.208 18.7424C161.331 18.8052 161.423 18.8414 161.482 18.8509C161.476 18.7778 161.486 18.7254 161.513 18.6936C161.542 18.6911 161.58 18.7098 161.628 18.7498C161.692 18.8031 161.731 18.8365 161.747 18.8498C161.778 18.8618 161.813 18.844 161.853 18.7964C161.876 18.7208 161.921 18.6505 161.989 18.5857C162.073 18.5342 162.131 18.5218 162.162 18.5484ZM151.586 8.47589C151.476 8.55917 151.418 8.57159 151.413 8.51314C151.391 8.42676 151.427 8.33526 151.521 8.23864C151.563 8.20559 151.61 8.23828 151.662 8.33672C151.698 8.40722 151.673 8.45361 151.586 8.47589ZM152.385 7.25763C152.298 7.2653 152.255 7.19544 152.256 7.04805C152.257 6.88605 152.291 6.77264 152.359 6.7078C152.407 6.7478 152.438 6.84816 152.452 7.00888C152.479 7.15371 152.457 7.23662 152.385 7.25763ZM152.051 5.96182C152.038 5.97771 151.974 6.01269 151.861 6.06675C151.763 6.11953 151.636 6.18217 151.48 6.25467C151.338 6.31129 151.23 6.34279 151.157 6.34918C151.055 6.35813 151.015 6.31749 151.036 6.22727C151.048 6.19677 151.084 6.17897 151.142 6.17385C151.215 6.16746 151.25 6.14966 151.248 6.12043C151.223 6.00482 151.404 5.72393 151.792 5.27776C152.179 4.81697 152.442 4.53636 152.58 4.43591C152.597 4.46385 152.6 4.50038 152.59 4.54549C152.593 4.58932 152.604 4.62521 152.621 4.65315C152.637 4.66649 152.675 4.6779 152.735 4.6874C152.748 4.3329 152.893 4.14351 153.171 4.11923C153.317 4.10644 153.431 4.1553 153.515 4.2658C153.597 4.36168 153.602 4.50112 153.529 4.68412C153.492 4.76101 153.456 4.85982 153.423 4.98054C153.388 5.08665 153.36 5.19212 153.34 5.29695C153.318 5.38717 153.297 5.4774 153.275 5.56762C153.254 5.65784 153.231 5.73345 153.207 5.79445C153.181 5.84084 153.161 5.85737 153.145 5.84404C152.994 5.79837 152.967 5.66085 153.065 5.43146C153.161 5.18746 153.163 5.04007 153.07 4.9893C153.038 4.96264 153.016 4.95725 153.002 4.97314C153.004 4.98775 153.006 5.00966 153.008 5.03889C153.011 5.06811 153.013 5.09733 153.016 5.12655C153.033 5.15449 153.028 5.18435 153.002 5.21613C152.974 5.2333 152.93 5.24444 152.872 5.24955C152.799 5.25595 152.749 5.27503 152.722 5.30681C152.709 5.3227 152.705 5.35986 152.71 5.41831C152.715 5.47675 152.712 5.52122 152.7 5.55172C152.697 5.6845 152.624 5.6982 152.482 5.59281C152.403 5.52615 152.357 5.50076 152.343 5.51665C152.275 5.58149 152.231 5.65902 152.209 5.74924C152.188 5.83946 152.135 5.91032 152.051 5.96182ZM152.861 6.13388C152.876 6.30921 152.855 6.39943 152.796 6.40454C152.694 6.41349 152.653 6.27724 152.672 5.9958C152.789 5.98557 152.852 6.0316 152.861 6.13388ZM147.473 19.0165C147.455 18.9739 147.452 18.9447 147.466 18.9288C147.479 18.9129 147.508 18.9104 147.553 18.9211C147.572 18.9637 147.574 18.9929 147.561 19.0088C147.548 19.0247 147.518 19.0272 147.473 19.0165ZM147.82 18.942C147.874 19.055 147.865 19.1147 147.792 19.1211C147.787 19.0627 147.796 19.003 147.82 18.942ZM147.756 19.2126L147.957 19.2392L147.913 19.243C147.931 19.2856 147.926 19.3081 147.897 19.3107C147.867 19.3133 147.82 19.2806 147.756 19.2126ZM147.897 19.0677C147.944 19.0931 147.977 19.1344 147.997 19.1915C147.969 19.2087 147.946 19.2033 147.929 19.1754C147.913 19.162 147.903 19.1261 147.897 19.0677ZM161.406 18.4821C161.424 18.5247 161.427 18.5539 161.413 18.5698C161.4 18.5857 161.371 18.5883 161.326 18.5775C161.307 18.5349 161.305 18.5057 161.318 18.4898C161.331 18.4739 161.361 18.4714 161.406 18.4821ZM161.856 18.5753C161.83 18.6217 161.8 18.6169 161.766 18.561C161.734 18.5344 161.725 18.5131 161.738 18.4972C161.778 18.4495 161.814 18.439 161.846 18.4657C161.879 18.507 161.882 18.5435 161.856 18.5753ZM162.597 18.9742C162.596 18.9596 162.586 18.931 162.568 18.8884C162.527 18.7595 162.558 18.6905 162.66 18.6816C162.791 18.6701 162.84 18.7174 162.805 18.8235C162.782 18.8991 162.713 18.9493 162.597 18.9742ZM162.951 18.7224C162.976 18.676 163.018 18.6503 163.076 18.6452C163.186 18.7239 163.184 18.783 163.07 18.8224C162.998 18.8434 162.952 18.8253 162.933 18.7682C162.931 18.7536 162.937 18.7383 162.951 18.7224ZM163.233 18.4107C163.354 18.2823 163.43 18.2241 163.46 18.2362C163.491 18.2482 163.433 18.3489 163.288 18.5383C163.261 18.5701 163.238 18.5574 163.218 18.5002C163.214 18.4564 163.219 18.4265 163.233 18.4107Z"
        fill="#D96E34" />
    <g clip-path="url(#clip0_3420_1558)">
        <path
            d="M28.1171 37.2128C28.197 37.2168 28.2744 37.2405 28.342 37.2816C28.5318 37.3712 28.8282 37.5313 28.7216 37.8354C28.7418 37.777 28.7428 37.7141 28.7247 37.6552C28.7065 37.5963 28.67 37.5441 28.62 37.5057L28.5118 37.6657L28.5268 37.7681L28.4185 37.8049L28.252 38.0418C28.0829 37.971 27.9292 37.87 27.7992 37.7441L27.2996 37.5105L27.8108 37.3328C27.8482 37.2908 27.8956 37.258 27.9488 37.2371C28.0021 37.2162 28.0598 37.2079 28.1171 37.2128Z"
            fill="#D96E34" />
        <path d="M22.3642 34.2279L22.509 34.3367L22.1244 34.8568L21.2685 34.3687L21.6015 33.8149L22.3642 34.2279Z"
            fill="#D96E34" />
        <path
            d="M10.382 28.4521L10.6552 28.5866L12.0488 29.358L11.9722 29.4876L12.2137 29.6189L12.0855 29.9006L12.2969 29.9518L12.4535 29.6317L12.6549 29.7165L12.6966 29.7357L12.7299 29.6749C13.7057 30.155 13.8638 30.2511 13.8955 30.3887L14.3018 30.5952L14.3018 30.608C14.4683 30.704 14.6348 30.8368 14.5149 31.0657C14.501 31.0954 14.4824 31.123 14.4599 31.1473C14.3833 31.2305 14.2435 31.2946 13.9921 31.1857C13.8895 31.1442 13.7926 31.0904 13.7039 31.0257L11.9539 30.1902C11.8657 30.163 11.7125 30.0958 11.506 30.0062C11.4061 29.963 11.3195 29.9246 11.2829 29.9118C11.3215 29.9242 11.3623 29.9285 11.4028 29.9246L11.3028 29.8766L11.2762 29.9246C11.0602 29.8256 10.8545 29.7072 10.6618 29.5709L10.5619 29.5228L10.6251 29.5389C10.5824 29.5 10.5538 29.4489 10.5435 29.3932L10.4054 29.3068L10.462 29.2156L10.074 29.0059L10.382 28.4521ZM14.2218 30.9264C14.2383 30.8911 14.2478 30.8531 14.2501 30.8144L14.2101 30.9313L14.1952 30.9313L14.1153 31.0593C14.1622 31.0254 14.199 30.9801 14.2218 30.9281L14.2218 30.9264Z"
            fill="#D96E34" />
        <path
            d="M16.0185 31.2939L16.3515 31.2026L17.0625 31.5019L17.5886 31.7996L17.5537 31.8556C17.8001 31.9757 18.0699 32.1133 18.3563 32.2606C18.8325 32.5038 19.3237 32.7551 19.74 32.9391L19.9531 33.0064L20.4077 33.3409L20.0531 33.8786C19.6484 33.6786 19.2038 33.4529 18.7609 33.2272C17.8934 32.7871 16.9959 32.331 16.4297 32.0781L16.468 31.9773C16.0517 31.7836 15.9835 31.7228 16.0018 31.5163L16.0185 31.2939Z"
            fill="#D96E34" />
        <path
            d="M1.31381 24.0943L1.36373 24.0815L1.36373 24.0655C1.44614 24.0432 1.53123 24.0313 1.61684 24.0303C1.89824 23.995 2.14136 23.9678 2.37614 23.9422C2.43608 23.7726 2.66091 23.7182 2.86405 23.6686L2.90731 23.659L2.9373 23.659L2.9373 23.6173L5.34336 23.2797C5.67638 23.2252 5.94453 23.1884 6.20429 23.1596L6.21592 23.2348L6.80538 23.1052L6.87034 23.086C7.13557 22.983 7.41041 22.9048 7.6912 22.8523L7.95096 22.8523L8.75856 22.6715C8.92507 22.6219 9.07161 22.5738 9.22314 22.521L8.15414 22.521L11.9539 21.6984L11.9822 21.8008L12.0005 21.8008L12.0388 21.9001C12.1154 21.8649 12.2053 21.8264 12.3369 21.7752L12.4252 21.9577L12.5151 21.9369L12.5334 21.9065L12.61 21.884C12.5504 21.8322 12.4722 21.8047 12.3918 21.8072C12.4434 21.8072 12.6283 21.7576 12.8031 21.7128L12.4052 21.5816C11.3828 21.6888 10.7983 21.7416 10.4586 21.7512L10.4504 21.8889L9.33802 21.8889L9.3264 22.0905C8.82692 22.0822 8.32805 22.1283 7.83941 22.2281L7.80941 22.2457L7.70624 22.2457L5.75468 22.6379L5.95615 22.5258C5.71471 22.5578 5.4566 22.593 5.18685 22.6251L5.16693 22.5018L4.95708 22.5466C4.7173 22.5978 4.54077 22.6331 4.35095 22.6699L2.36614 23.0492L2.24792 23.0716L2.208 22.8763C2.13807 22.9051 2.02981 22.9403 1.84831 23.0012L1.7018 23.0492C1.50032 23.1164 1.44364 23.1404 1.42699 23.1484C1.46904 23.1255 1.50413 23.0924 1.52862 23.0524L1.32877 23.1468L1.32877 23.206L1.28885 23.206L1.14397 23.206L0.877532 23.262L0.78094 22.9932C0.753012 22.9166 0.756449 22.8327 0.790454 22.7584C0.824458 22.6841 0.886508 22.625 0.964122 22.5931L2.98723 21.652C3.03551 21.5288 3.16542 21.4087 3.42351 21.2375L3.54506 21.3975L3.58172 21.3815L3.66831 21.3431L3.71986 21.4455L3.88637 21.3479C3.84638 21.2848 3.78492 21.2369 3.71238 21.2124C3.63984 21.1879 3.56076 21.1883 3.48847 21.2135C3.57672 21.1767 4.1745 20.8598 4.5708 20.6485L5.33344 20.25L6.166 19.8259L6.18925 19.8675C6.34577 19.7939 6.49063 19.7314 6.63716 19.6674C6.83364 19.5858 7.00348 19.5202 7.17499 19.4562C7.18346 19.387 7.20606 19.3202 7.2415 19.2595C7.27693 19.1988 7.32454 19.1454 7.3815 19.1025L7.41151 19.0753L7.44809 19.0545C8.11414 18.6975 8.22238 18.6703 8.37058 18.6543C8.56238 18.5797 8.74685 18.4886 8.92174 18.3822L8.97003 18.3614C9.06233 18.3226 9.16659 18.3192 9.26143 18.3518C9.40209 18.2626 9.54775 18.1809 9.69771 18.107L9.75926 18.0814L10.0624 17.9982C10.2522 17.9469 10.4886 17.8829 10.7617 17.8045L10.6668 17.614C10.8866 17.4956 10.9815 17.438 11.0448 17.3996L10.9965 17.3067C11.7058 16.9546 12.4318 16.6074 13.1328 16.2729L14.4033 15.6663L14.3267 15.8263L14.6048 15.7175C15.2359 15.4662 15.514 15.3558 15.6788 15.3542L15.7421 15.2246L15.8852 15.1845C16.0068 15.1493 16.5263 14.9429 16.9842 14.7524L16.9593 14.6948C17.379 14.4968 17.8104 14.3225 18.2514 14.1731C18.8119 13.9837 19.3568 13.7542 19.8815 13.4865L19.9032 13.4753C20.0698 13.4049 20.2978 13.2848 20.5193 13.168C21.1237 12.8479 21.2736 12.7807 21.4567 12.8319L21.8697 12.9471L22.8155 12.5726L22.8388 12.7327L22.9171 12.6958L22.9037 12.667C22.8734 12.5865 22.8748 12.4981 22.9076 12.4185C22.9404 12.3389 23.0024 12.2736 23.0819 12.2349C23.1835 12.1389 23.3817 12.0573 23.748 11.9148L23.7963 12.0204L23.8163 12.0204L23.8379 12.0109C23.9295 11.8844 24.1543 11.7996 24.5905 11.6363L24.6788 11.6027L24.7321 11.6123C25.006 11.5322 25.274 11.4349 25.5347 11.321C25.6384 11.2726 25.7524 11.2479 25.8677 11.249L26.1375 11.1386C26.4022 11.0282 26.7019 10.9049 27.253 10.7001L27.4346 11.0522C27.4895 11.0522 27.5644 11.0314 27.6544 11.0138C27.6531 10.9909 27.6487 10.9683 27.641 10.9465C27.6222 10.8892 27.5861 10.8386 27.5371 10.8012C27.4881 10.7639 27.4286 10.7415 27.3663 10.7369C27.5287 10.7181 27.6891 10.6859 27.8458 10.6409C28.2171 10.5528 28.77 10.4056 29.2545 10.2504C29.339 10.1833 29.4306 10.1248 29.5276 10.0759L29.5859 10.0503C29.6225 10.0375 29.6559 10.0279 29.6858 10.0199L32.1551 9.11083L33.0077 8.81154L33.7503 8.04492L33.3857 8.6851L34.3115 8.36501L34.6279 8.29939L34.7427 8.51226C34.7752 8.572 34.7871 8.64004 34.777 8.70671C34.7668 8.77338 34.7351 8.83527 34.6862 8.88356L34.5047 9.06281L34.7694 8.9764L33.9635 9.7094L33.9785 9.7254L33.7686 9.90785L33.6938 9.97348C33.6552 10.0872 33.5923 10.1919 33.5089 10.2808L33.4772 10.3272L33.4124 10.3592C33.3133 10.4334 33.2183 10.5125 33.1276 10.5961C32.9611 10.7449 32.7363 10.9321 32.4932 11.1338L31.4508 12.0012C31.4462 12.0958 31.4052 12.1853 31.3359 12.2525C31.3022 12.2873 31.2666 12.3204 31.2293 12.3517C31.1511 12.419 31.0262 12.5214 30.8397 12.6718L30.7881 12.7054C30.7531 12.7262 30.6216 12.8239 30.5316 12.8879C30.2353 13.1072 30.0205 13.264 29.8107 13.0239C29.2229 13.4913 28.7916 13.8146 28.4453 14.0562L28.5402 14.1571L28.5152 14.1779L28.735 14.3139L27.8442 14.8933L27.7592 14.7876L27.5711 14.9333L25.9276 16.0808C25.5546 16.3305 25.1567 16.5833 24.772 16.8282C24.5123 16.9883 24.2525 17.1563 23.9944 17.3244C23.683 17.5164 23.375 17.7005 23.0853 17.8733C22.7955 18.0462 22.4875 18.2286 22.2311 18.3903L22.2077 18.4031C21.5417 18.7504 21.227 18.8832 21.0422 18.7584L20.9772 18.7888L20.9239 18.9488L20.2579 19.3121L20.7241 19.5522L19.7767 19.5778L19.4703 19.7378L19.5385 19.7378C20.7041 19.6546 21.6499 19.5778 22.4259 19.5058L25.1367 19.2465L24.9136 19.3233C25.3598 19.3089 25.7462 19.2897 26.1025 19.2721C26.7469 19.2401 27.2813 19.2129 27.8708 19.2289C27.9213 19.1978 27.978 19.1771 28.0373 19.1681L28.1156 19.1681L28.2971 19.1681L28.2971 19.1121C28.8899 19.0793 29.4845 19.0911 30.0754 19.1473C30.2525 19.1633 30.4234 19.218 30.575 19.3073C31.1328 19.2599 31.6939 19.2599 32.2517 19.3073L32.2517 19.2401L32.5848 19.2401C33.0393 19.2401 33.772 19.2193 34.4647 19.2145C34.8776 19.2145 35.3456 19.2145 35.7019 19.2145C35.9015 19.2162 36.1005 19.236 36.2963 19.2737C36.586 19.2609 37.1638 19.2929 37.327 19.3073L38.3345 19.3249C38.9439 19.3345 39.3119 19.3393 40.2993 19.3697L40.2993 19.4402C40.4991 19.4594 40.7256 19.461 41.002 19.4626C41.2784 19.4642 41.5531 19.4626 41.9045 19.4834L42.1825 19.4834C43.4797 19.5058 43.7727 19.5298 44.0558 19.5538C44.3389 19.5778 44.5853 19.5986 45.8874 19.6146L47.2661 19.6306L46.9448 19.7907L47.2928 19.8019C48.0171 19.8211 48.8363 19.8451 49.5523 19.9315L49.5523 19.9731C49.932 19.9827 50.3749 19.9731 50.8078 19.9491L50.8645 19.9491L50.5315 21.2007C49.659 21.143 49.4224 21.1879 49.216 21.2263L49.1211 21.2439L49.0778 21.2439C48.5633 21.2071 48.3169 21.1911 48.2353 21.0294C47.7607 21.0086 47.3311 20.9734 46.9148 20.9382C46.71 20.9222 46.5052 20.9046 46.2954 20.8902C45.8192 20.855 45.313 20.8133 44.7452 20.7637L45.0782 20.8982L42.9535 20.6981C42.7675 20.6952 42.5839 20.6583 42.4123 20.5893C42.389 20.5781 42.3307 20.5509 41.7363 20.5061L41.6714 20.5061L41.6231 20.482C41.2239 20.4557 40.8233 20.4557 40.4242 20.482C39.6796 20.5161 38.9338 20.5135 38.1896 20.4741C38.1564 20.4989 38.1193 20.5183 38.0797 20.5317L38.0164 20.5541L34.6345 20.3284L33.2641 20.402C33.0393 20.4196 32.7346 20.4356 32.3283 20.4516L32.3283 20.4148L32.27 20.4148L32.27 20.3652L32.0903 20.3572C32.0614 20.3694 32.0312 20.3785 32.0003 20.3844C31.8499 20.3984 31.6982 20.3936 31.5491 20.37L31.4209 20.3588L30.9479 20.4933L30.8031 20.4292C30.2869 20.442 29.7607 20.4773 29.2512 20.5125L28.5085 20.5589L26.2806 20.4725L26.2806 20.5637L26.2657 20.5637C26.0492 20.5749 25.9326 20.5845 25.8826 20.5925L25.8826 20.6517L24.6371 20.6517L23.5182 20.6789C23.2831 20.7522 23.0377 20.791 22.7905 20.7941C22.624 20.8102 22.4325 20.8261 22.2377 20.8486L19.8216 21.1254L20.2912 20.9398C19.9142 20.9659 19.5358 20.9659 19.1589 20.9398L19.1339 20.9398C18.8274 20.9291 18.5205 20.9355 18.2148 20.959L18.2148 21.0006C18.02 21.0006 17.7486 21.0246 17.4688 21.0486L17.2391 21.2871L17.3239 21.0614C17.0242 21.0902 16.7278 21.1222 16.513 21.151L16.513 21.1975L16.2416 21.2231L13.9254 22.2778L14.6098 21.676C14.5166 21.7112 14.4216 21.7464 14.3317 21.7832L14.2601 21.812L14.2468 21.812C14.2503 21.9 14.2174 21.9858 14.1552 22.0505C14.1469 22.0505 14.1386 22.0681 14.1286 22.0761L14.0753 22.1257L14.007 22.1481L13.8122 22.2137C13.689 22.257 13.5657 22.2986 13.4392 22.337L13.2211 22.401C13.1555 22.4565 13.0799 22.4999 12.998 22.529L12.8764 22.5771L12.8181 22.5546C12.7299 22.5706 12.525 22.6187 12.212 22.7147C11.8989 22.8107 11.4743 22.9532 11.0814 23.0892L10.84 23.1724L10.8083 23.182C10.4903 23.2572 10.059 23.3597 9.9191 23.0444L9.70267 23.1084C9.71433 23.1308 9.71934 23.15 9.72267 23.1564C9.73939 23.2025 9.74324 23.2521 9.73389 23.3001C9.72455 23.3481 9.70228 23.3929 9.66934 23.4301C9.53659 23.5371 9.37898 23.6118 9.2098 23.6477L9.17314 23.6477L8.98833 23.691C8.90008 23.7118 8.81352 23.7326 8.73027 23.747L7.98763 23.8814L8.14577 23.6366C8.07509 23.6818 7.9991 23.7189 7.91933 23.747L7.87771 23.7598C7.50729 23.8671 7.12704 23.94 6.74212 23.9775C6.64388 23.9775 6.53062 23.9951 6.28918 24.0335L6.27251 23.9422L6.08103 23.9791L4.79056 24.2607L4.30932 24.3439L4.34762 24.5344L3.13878 24.8081L3.12049 24.7585C2.50273 24.8593 2.39281 24.8529 2.26792 24.8465L2.64258 25.0465L3.11544 25.309L3.18707 25.1698L4.29436 25.6979L4.60072 25.8404C4.62993 25.85 4.65837 25.8617 4.68568 25.8756L4.74731 25.7908L5.13026 25.9972C5.19945 25.9874 5.27003 25.9929 5.33669 26.0132C5.65386 26.0791 5.96516 26.169 6.26755 26.2821L6.32251 26.3077L6.41739 26.3637C6.48067 26.4021 6.55724 26.4485 6.68545 26.5142C6.74173 26.5101 6.7983 26.5166 6.85197 26.5334L6.86197 26.5334L6.89026 26.5478C6.94687 26.5686 7.00014 26.5926 7.04344 26.6134L7.03515 26.631L7.09344 26.663C7.37818 26.823 7.57135 26.9335 7.61631 27.0791C7.7029 27.1111 7.79777 27.1511 7.906 27.196L7.956 27.2216C8.06265 27.2768 8.14831 27.3631 8.20073 27.468C8.24735 27.4984 8.3173 27.5401 8.41887 27.5977L8.08585 28.1482L7.78949 27.9882C7.6313 27.9002 7.46805 27.8089 7.34484 27.7369L7.31988 27.7225L7.22995 27.897L6.98189 27.7913C6.81538 27.7193 6.55228 27.6057 6.43073 27.5609L6.30413 27.5897L6.02941 27.2536L5.87956 27.172L4.35762 26.4469C4.2922 26.4311 4.22778 26.4119 4.16452 26.3893C4.10624 26.3701 4.03462 26.3429 3.93971 26.3045L3.49847 26.1092L3.52676 26.0452L3.26366 25.922L3.16878 26.082L1.68009 25.269L2.00482 24.7105L2.18963 24.8097L2.17629 24.6752L1.48195 24.7713C1.36754 24.8089 1.24341 24.8089 1.12901 24.7713L0.04497 24.3183L1.31381 24.0943ZM31.7172 20.2676L31.7272 20.162L31.6173 20.146C31.6397 20.1938 31.6741 20.2355 31.7172 20.2676ZM24.2874 19.7202L24.3357 19.7106L24.3357 19.621L24.2774 19.6802C24.279 19.6939 24.2823 19.7074 24.2874 19.7202ZM16.7944 19.8211L16.7828 19.7955C16.7725 19.8076 16.7641 19.821 16.7578 19.8355L16.7944 19.8211ZM13.8222 21.4167L13.8222 21.4103L13.8222 21.4167ZM13.8222 20.242C14.5316 20.1684 15.3708 20.0819 16.3898 19.9923L16.7228 19.8499C16.7378 19.8294 16.7545 19.8101 16.7728 19.7923L16.7511 19.7395L16.8527 19.6994L17.2024 19.5586C17.2956 19.5202 17.3872 19.4786 17.4788 19.437L17.6453 19.3649L17.6786 19.4306C17.8451 19.3409 18.0116 19.2561 18.1781 19.1729L18.7776 18.864L18.8958 18.8C19.0852 18.7035 19.2687 18.5966 19.4453 18.4799L20.2995 17.9021L20.2229 18.1102L20.406 18.019L20.4211 18.043L20.6275 17.9245C20.7124 17.8454 20.8141 17.7848 20.9256 17.7469L21.0455 17.6861C21.0971 17.6604 21.1587 17.63 21.2287 17.5916L21.2519 17.5788L21.3901 17.502L21.4484 17.4684L21.5367 17.6076L21.6483 17.5468C21.6067 17.3196 21.8231 17.2075 22.1661 17.0331C22.3326 16.9467 22.5724 16.833 22.7106 16.7754C22.8128 16.7228 22.9326 16.7113 23.0436 16.7434C23.0836 16.705 23.1335 16.6666 23.1968 16.617L23.1319 16.5145C23.3683 16.3684 23.6037 16.22 23.8379 16.0696L24.2309 15.8199C24.3874 15.7079 24.5639 15.5879 24.752 15.4598C24.9402 15.3318 25.1083 15.2214 25.2832 15.0933C25.6695 14.8197 26.0142 14.586 26.2823 14.4179C26.4371 14.3043 26.6153 14.1875 26.7818 14.085C26.89 14.0162 26.9899 13.9522 27.0765 13.893L27.1299 13.8578L27.7276 13.4272C28.0456 13.1984 28.3637 12.9711 28.6784 12.739L28.6784 12.7262L28.7766 12.643C29.083 12.3853 29.4061 12.1293 29.7175 11.8812C30.172 11.5195 30.6399 11.145 31.0928 10.7417L31.2377 10.6008L30.2903 10.9514C29.8774 11.1209 29.4555 11.2694 29.0264 11.3963C28.6334 11.6091 27.8308 11.9356 26.5171 12.419L25.6712 12.739C24.8636 13.0415 24.1009 13.3264 23.5764 13.5521L23.4099 13.6225L23.3184 13.5665C22.3876 13.9378 21.4868 14.2899 20.2679 14.7604L19.5019 15.0565L19.5402 14.9717C19.1939 15.1189 18.8059 15.2918 18.3746 15.4934C17.8668 15.7319 17.3423 15.9736 16.8228 16.212C15.872 16.721 14.8246 17.1723 13.8122 17.5964C12.809 17.9995 11.829 18.4541 10.8766 18.9584L10.8416 18.976C10.5186 19.1089 10.2044 19.2607 9.90081 19.4306L9.90081 19.4386L9.14484 19.8531C8.97 19.9571 8.79015 20.0691 8.6253 20.1732C8.03585 20.5397 7.84104 20.6533 7.67119 20.6037C7.56471 20.6577 7.44079 20.6703 7.32492 20.6389C7.24998 20.6709 7.18168 20.6997 7.1184 20.7237C7.0016 20.8148 6.87617 20.8952 6.74375 20.9638C6.66493 21.0065 6.58168 21.0497 6.49398 21.0934L6.26088 21.2071L6.12933 21.2679L6.62887 21.2551L6.96189 21.1783L6.95026 21.0374C7.4498 20.991 7.80115 20.9542 8.08089 20.9238L8.7336 20.8646L9.24143 20.8198L9.23314 20.8198L10.1939 20.7061C10.4304 20.6773 10.7184 20.6549 10.9981 20.6341C11.3668 20.6159 11.7339 20.5747 12.0971 20.5109L12.1188 20.5109C12.3303 20.45 12.9214 20.346 13.8222 20.242ZM2.88568 23.8718L2.95397 23.8606C2.93635 23.8373 2.91493 23.8167 2.89064 23.7998L2.88064 23.8302L2.88568 23.8718ZM1.30715 24.1327L1.30715 24.1311L1.30715 24.1327Z"
            fill="#D96E34" />
    </g>
    <defs>
        <clipPath id="clip0_3420_1558">
            <rect width="50.8378" height="30.0405" fill="white"
                transform="matrix(-1 -8.74228e-08 -8.74228e-08 1 50.8379 8)" />
        </clipPath>
    </defs>
</svg>