<svg width="16" height="16" viewBox="0 0 16 16" fill="none" xmlns="http://www.w3.org/2000/svg">
<g clip-path="url(#clip0_2025_19239)">
<rect width="16" height="16" fill="#6772E5"/>
<path fill-rule="evenodd" clip-rule="evenodd" d="M7.33075 6.11093C7.33075 5.70844 7.67278 5.52762 8.22483 5.52762C9.13964 5.54685 10.0373 5.7725 10.8471 6.18676V3.80102C10.014 3.48344 9.12566 3.325 8.23083 3.33438C6.09463 3.33438 4.6665 4.41933 4.6665 6.25092C4.6665 9.0858 8.67487 8.62499 8.67487 9.84994C8.67487 10.3224 8.24883 10.4741 7.66678 10.4741C6.64139 10.4191 5.64312 10.1336 4.75051 9.63995V12.084C5.66005 12.4661 6.63995 12.6645 7.63077 12.6673C9.82097 12.6673 11.3331 11.6174 11.3331 9.75077C11.3511 6.71174 7.33075 7.26005 7.33075 6.11093Z" fill="white"/>
</g>
<defs>
<clipPath id="clip0_2025_19239">
<rect width="16" height="16" fill="white"/>
</clipPath>
</defs>
</svg>
