<svg width="40" height="18" viewBox="0 0 40 18" fill="none" xmlns="http://www.w3.org/2000/svg">
<rect x="0.75" y="0.75" width="38.5" height="16.5" rx="8.25" fill="#F1EAFB"/>
<path d="M8.72059 12.64C7.76059 12.64 7.02059 12.4033 6.50059 11.93C5.98725 11.4567 5.71059 10.84 5.67059 10.08H6.55059C6.67059 11.3067 7.40725 11.92 8.76059 11.92C9.27392 11.92 9.68392 11.8067 9.99059 11.58C10.3039 11.3467 10.4606 11.0133 10.4606 10.58C10.4606 10.3867 10.4239 10.2167 10.3506 10.07C10.2773 9.92333 10.1873 9.80333 10.0806 9.71C9.98059 9.61667 9.82725 9.53 9.62059 9.45C9.41392 9.37 9.22059 9.30667 9.04059 9.26C8.86725 9.21333 8.62725 9.15667 8.32059 9.09C7.95392 9.01 7.65059 8.93 7.41059 8.85C7.17059 8.76333 6.93059 8.64667 6.69059 8.5C6.45059 8.35333 6.27059 8.16667 6.15059 7.94C6.03725 7.70667 5.98059 7.42667 5.98059 7.1C5.98059 6.51333 6.20059 6.05333 6.64059 5.72C7.08725 5.38 7.67725 5.21 8.41059 5.21C10.0173 5.21 10.9206 5.95333 11.1206 7.44H10.2706C10.2039 6.93333 10.0139 6.55333 9.70059 6.3C9.38725 6.04 8.96392 5.91 8.43059 5.91C7.93725 5.91 7.54392 6.01 7.25059 6.21C6.96392 6.41 6.82059 6.69333 6.82059 7.06C6.82059 7.22 6.85059 7.36333 6.91059 7.49C6.97725 7.61 7.06059 7.71333 7.16059 7.8C7.26725 7.88 7.40392 7.95333 7.57059 8.02C7.74392 8.08667 7.91392 8.14333 8.08059 8.19C8.24725 8.23 8.45059 8.27333 8.69059 8.32C9.02392 8.38667 9.29725 8.45 9.51059 8.51C9.72392 8.56333 9.96059 8.64667 10.2206 8.76C10.4806 8.87333 10.6806 9.00333 10.8206 9.15C10.9673 9.29667 11.0906 9.49 11.1906 9.73C11.2973 9.96333 11.3506 10.2367 11.3506 10.55C11.3506 11.2033 11.1073 11.7167 10.6206 12.09C10.1406 12.4567 9.50725 12.64 8.72059 12.64ZM18.2504 11.6C17.617 12.3 16.7704 12.65 15.7104 12.65C14.6504 12.65 13.8004 12.3 13.1604 11.6C12.527 10.9 12.2104 10.0067 12.2104 8.92C12.2104 7.83333 12.527 6.94 13.1604 6.24C13.8004 5.54 14.6504 5.19 15.7104 5.19C16.7704 5.19 17.617 5.54 18.2504 6.24C18.8904 6.94 19.2104 7.83333 19.2104 8.92C19.2104 10.0067 18.8904 10.9 18.2504 11.6ZM13.8104 11.04C14.2637 11.5867 14.897 11.86 15.7104 11.86C16.5237 11.86 17.157 11.5867 17.6104 11.04C18.0637 10.4933 18.2904 9.78667 18.2904 8.92C18.2904 8.05333 18.0637 7.34667 17.6104 6.8C17.157 6.24667 16.5237 5.97 15.7104 5.97C14.897 5.97 14.2637 6.24667 13.8104 6.8C13.357 7.34667 13.1304 8.05333 13.1304 8.92C13.1304 9.78667 13.357 10.4933 13.8104 11.04ZM26.1531 11.6C25.5198 12.3 24.6731 12.65 23.6131 12.65C22.5531 12.65 21.7031 12.3 21.0631 11.6C20.4298 10.9 20.1131 10.0067 20.1131 8.92C20.1131 7.83333 20.4298 6.94 21.0631 6.24C21.7031 5.54 22.5531 5.19 23.6131 5.19C24.6731 5.19 25.5198 5.54 26.1531 6.24C26.7931 6.94 27.1131 7.83333 27.1131 8.92C27.1131 10.0067 26.7931 10.9 26.1531 11.6ZM21.7131 11.04C22.1664 11.5867 22.7998 11.86 23.6131 11.86C24.4264 11.86 25.0598 11.5867 25.5131 11.04C25.9664 10.4933 26.1931 9.78667 26.1931 8.92C26.1931 8.05333 25.9664 7.34667 25.5131 6.8C25.0598 6.24667 24.4264 5.97 23.6131 5.97C22.7998 5.97 22.1664 6.24667 21.7131 6.8C21.2598 7.34667 21.0331 8.05333 21.0331 8.92C21.0331 9.78667 21.2598 10.4933 21.7131 11.04ZM28.2858 12.5V5.35H29.2358L32.4958 10.32L33.0158 11.24H33.0358V5.35H33.8758V12.5H32.9558L29.6758 7.52L29.1458 6.63H29.1258V12.5H28.2858Z" fill="#2F2F2F"/>
<rect x="0.75" y="0.75" width="38.5" height="16.5" rx="8.25" stroke="#2F2F2F" stroke-width="0.5"/>
</svg>
