<svg width="21" height="20" viewBox="0 0 21 20" fill="none" xmlns="http://www.w3.org/2000/svg">
<mask id="path-1-inside-1_1146_1912" fill="white">
<path d="M20.5 10C20.5 11.9778 19.9135 13.9112 18.8147 15.5557C17.7159 17.2002 16.1541 18.4819 14.3268 19.2388C12.4996 19.9957 10.4889 20.1937 8.5491 19.8079C6.60929 19.422 4.82746 18.4696 3.42893 17.0711C2.03041 15.6725 1.078 13.8907 0.692147 11.9509C0.306295 10.0111 0.504328 8.00043 1.2612 6.17317C2.01808 4.3459 3.29981 2.78412 4.9443 1.6853C6.58879 0.58649 8.52219 -2.35852e-08 10.5 0V2C8.91775 2 7.37103 2.46919 6.05544 3.34824C4.73984 4.22729 3.71446 5.47672 3.10896 6.93853C2.50346 8.40034 2.34504 10.0089 2.65372 11.5607C2.9624 13.1126 3.72433 14.538 4.84315 15.6569C5.96197 16.7757 7.38743 17.5376 8.93928 17.8463C10.4911 18.155 12.0997 17.9965 13.5615 17.391C15.0233 16.7855 16.2727 15.7602 17.1518 14.4446C18.0308 13.129 18.5 11.5823 18.5 10H20.5Z"/>
</mask>
<path d="M20.5 10C20.5 11.9778 19.9135 13.9112 18.8147 15.5557C17.7159 17.2002 16.1541 18.4819 14.3268 19.2388C12.4996 19.9957 10.4889 20.1937 8.5491 19.8079C6.60929 19.422 4.82746 18.4696 3.42893 17.0711C2.03041 15.6725 1.078 13.8907 0.692147 11.9509C0.306295 10.0111 0.504328 8.00043 1.2612 6.17317C2.01808 4.3459 3.29981 2.78412 4.9443 1.6853C6.58879 0.58649 8.52219 -2.35852e-08 10.5 0V2C8.91775 2 7.37103 2.46919 6.05544 3.34824C4.73984 4.22729 3.71446 5.47672 3.10896 6.93853C2.50346 8.40034 2.34504 10.0089 2.65372 11.5607C2.9624 13.1126 3.72433 14.538 4.84315 15.6569C5.96197 16.7757 7.38743 17.5376 8.93928 17.8463C10.4911 18.155 12.0997 17.9965 13.5615 17.391C15.0233 16.7855 16.2727 15.7602 17.1518 14.4446C18.0308 13.129 18.5 11.5823 18.5 10H20.5Z" stroke="#2F2F2F" mask="url(#path-1-inside-1_1146_1912)"/>
</svg>
