<svg width="20" height="20" viewBox="0 0 20 20" fill="none" xmlns="http://www.w3.org/2000/svg">
    <path
        d="M9.52447 1.46352C9.67415 1.00287 10.3259 1.00287 10.4755 1.46353L12.3574 7.25532C12.4243 7.46133 12.6163 7.60081 12.8329 7.60081H18.9228C19.4071 7.60081 19.6085 8.22062 19.2167 8.50532L14.2899 12.0848C14.1146 12.2122 14.0413 12.4379 14.1082 12.6439L15.9901 18.4357C16.1398 18.8963 15.6125 19.2794 15.2207 18.9947L10.2939 15.4152C10.1186 15.2878 9.88135 15.2878 9.70611 15.4152L4.77931 18.9947C4.38745 19.2794 3.86021 18.8963 4.00989 18.4357L5.89176 12.6439C5.9587 12.4379 5.88537 12.2122 5.71012 12.0848L0.783326 8.50532C0.39147 8.22062 0.592859 7.60081 1.07722 7.60081H7.16708C7.38369 7.60081 7.57567 7.46133 7.6426 7.25532L9.52447 1.46352Z"
        fill="#E1895F" stroke="#E1895F" />
</svg>