<svg width="40" height="40" viewBox="0 0 40 40" fill="none" xmlns="http://www.w3.org/2000/svg">
    <g clip-path="url(#clip0_1809_24632)">
        <rect width="40" height="40" fill="#6772E5" />
        <path fill-rule="evenodd" clip-rule="evenodd"
            d="M18.3275 15.2763C18.3275 14.2701 19.1826 13.8181 20.5627 13.8181C22.8497 13.8661 25.0939 14.4303 27.1183 15.4659V9.50159C25.0355 8.70762 22.8148 8.31152 20.5777 8.33497C15.2372 8.33497 11.6669 11.0474 11.6669 15.6263C11.6669 22.7135 21.6878 21.5615 21.6878 24.6239C21.6878 25.8051 20.6227 26.1842 19.1676 26.1842C16.6041 26.0468 14.1084 25.333 11.8769 24.0989V30.209C14.1507 31.1642 16.6005 31.6603 19.0775 31.6673C24.553 31.6673 28.3334 29.0424 28.3334 24.376C28.3784 16.7784 18.3275 18.1491 18.3275 15.2763Z"
            fill="white" />
    </g>
    <rect x="0.5" y="0.5" width="39" height="39" stroke="#2F2F2F" />
    <defs>
        <clipPath id="clip0_1809_24632">
            <rect width="40" height="40" fill="white" />
        </clipPath>
    </defs>
</svg>