<svg width="25" height="16" viewBox="0 0 25 16" fill="none" xmlns="http://www.w3.org/2000/svg">
    <rect x="1.1397" y="0.895559" width="23.0526" height="14.2105" fill="white" stroke="black" stroke-width="0.947368"
        stroke-linecap="round" stroke-linejoin="round" />
    <path d="M12.7617 11L12.7617 11.9474" stroke="black" stroke-width="0.947368" stroke-linecap="round"
        stroke-linejoin="round" />
    <path d="M12.7617 4.05273L12.7617 5.0001" stroke="black" stroke-width="0.947368" stroke-linecap="round"
        stroke-linejoin="round" />
    <path fill-rule="evenodd" clip-rule="evenodd"
        d="M11.4161 6.48804C11.4161 6.37704 11.4858 6.21333 11.7299 6.0547C11.9694 5.89899 12.3286 5.78721 12.7495 5.78721C13.1704 5.78721 13.5296 5.89899 13.7692 6.0547C14.0132 6.21333 14.0829 6.37704 14.0829 6.48804C14.0829 6.74965 14.295 6.96172 14.5566 6.96172C14.8182 6.96172 15.0303 6.74965 15.0303 6.48804C15.0303 5.95037 14.6954 5.52683 14.2854 5.26037C13.871 4.99098 13.3266 4.83984 12.7495 4.83984C12.1724 4.83984 11.6281 4.99098 11.2136 5.26037C10.8036 5.52683 10.4688 5.95037 10.4688 6.48804C10.4688 6.89361 10.5752 7.35365 10.9965 7.68911C11.3499 7.97052 11.8582 8.10761 12.5227 8.13217C12.5431 8.13486 12.564 8.13625 12.5852 8.13625C13.2714 8.13625 13.6841 8.30347 13.9172 8.499C14.1421 8.68771 14.2471 8.94153 14.2471 9.23516C14.2471 9.44639 14.1249 9.67718 13.8232 9.87642C13.5216 10.0756 13.0816 10.209 12.5852 10.209C12.1357 10.209 11.7463 10.069 11.4793 9.8644C11.2127 9.66018 11.0875 9.4114 11.0875 9.17265C11.0875 8.91104 10.8754 8.69896 10.6138 8.69896C10.3522 8.69896 10.1401 8.91104 10.1401 9.17265C10.1401 9.76788 10.4563 10.2742 10.9032 10.6165C11.3496 10.9584 11.9458 11.1564 12.5852 11.1564C13.2386 11.1564 13.8665 10.9831 14.3452 10.667C14.8238 10.3509 15.1945 9.85793 15.1945 9.23516C15.1945 8.6948 14.9898 8.16232 14.5261 7.77323C14.115 7.42838 13.5416 7.23017 12.8239 7.19467C12.7997 7.19085 12.7748 7.18886 12.7495 7.18886C12.0477 7.18886 11.7279 7.06045 11.5866 6.94797C11.474 6.85834 11.4161 6.73113 11.4161 6.48804Z"
        fill="black" />
</svg>