<svg width="37" height="37" viewBox="0 0 37 37" fill="none" xmlns="http://www.w3.org/2000/svg">
<path d="M7.37208 18.3487C7.0124 18.1433 6.55428 18.2684 6.34886 18.628C6.14343 18.9877 6.26848 19.4458 6.62816 19.6513L7.37208 18.3487ZM18.5001 30L17.8675 30.4029C18.0011 30.6126 18.2299 30.7425 18.4784 30.7497C18.7268 30.7569 18.9628 30.6405 19.1083 30.439L18.5001 30ZM30.3968 19.6365C30.7484 19.4174 30.8557 18.9548 30.6366 18.6033C30.4175 18.2518 29.9549 18.1444 29.6034 18.3635L30.3968 19.6365ZM6.62816 19.6513C10.0634 21.6132 12.8764 24.2994 14.8376 26.5104C15.816 27.6133 16.577 28.5918 17.0921 29.2927C17.3496 29.643 17.5453 29.9235 17.6758 30.115C17.741 30.2108 17.7899 30.2843 17.822 30.3331C17.8381 30.3575 17.85 30.3757 17.8576 30.3874C17.8614 30.3933 17.8641 30.3975 17.8658 30.4001C17.8666 30.4014 17.8672 30.4023 17.8675 30.4028C17.8676 30.403 17.8677 30.4032 17.8677 30.4032C17.8677 30.4032 17.8677 30.4031 17.8677 30.4031C17.8676 30.403 17.8675 30.4029 18.5001 30C19.1327 29.5971 19.1326 29.5969 19.1325 29.5967C19.1324 29.5966 19.1323 29.5964 19.1321 29.5962C19.1319 29.5958 19.1316 29.5953 19.1312 29.5947C19.1304 29.5934 19.1293 29.5918 19.128 29.5897C19.1253 29.5856 19.1216 29.5798 19.1168 29.5724C19.1072 29.5575 19.0933 29.5361 19.0751 29.5085C19.0387 29.4533 18.9854 29.3732 18.9155 29.2705C18.7757 29.0654 18.5697 28.7701 18.3008 28.4043C17.7632 27.673 16.9735 26.6578 15.9597 25.515C13.9367 23.2343 10.9996 20.4205 7.37208 18.3487L6.62816 19.6513ZM18.5001 30C19.1083 30.439 19.1082 30.439 19.1082 30.4391C19.1082 30.4391 19.1082 30.4391 19.1082 30.439C19.1082 30.439 19.1084 30.4388 19.1086 30.4385C19.109 30.4379 19.1097 30.4369 19.1108 30.4355C19.1128 30.4327 19.1161 30.4282 19.1205 30.4221C19.1294 30.4099 19.1431 30.3912 19.1615 30.3663C19.1982 30.3166 19.2536 30.2422 19.3268 30.1454C19.4733 29.9519 19.6909 29.6693 19.9727 29.3168C20.5365 28.6117 21.3559 27.6284 22.3752 26.5205C24.4194 24.2984 27.242 21.6029 30.3968 19.6365L29.6034 18.3635C26.2865 20.4309 23.3591 23.2354 21.2713 25.5049C20.2245 26.6428 19.3824 27.6531 18.8011 28.3802C18.5104 28.7438 18.2846 29.037 18.1308 29.2402C18.0539 29.3418 17.995 29.4209 17.9549 29.4752C17.9348 29.5024 17.9195 29.5233 17.909 29.5377C17.9037 29.5449 17.8997 29.5505 17.8968 29.5544C17.8954 29.5563 17.8943 29.5579 17.8935 29.559C17.8931 29.5595 17.8928 29.56 17.8925 29.5603C17.8924 29.5605 17.8923 29.5607 17.8922 29.5608C17.8921 29.5609 17.892 29.561 18.5001 30Z" fill="#D96E34"/>
<path d="M18.5 30C18.5 12.5194 18.5 6.26486 18.5 6" stroke="#D96E34" stroke-width="1.5" stroke-linecap="round"/>
</svg>
