<svg width="50" height="85" viewBox="0 0 50 85" fill="none" xmlns="http://www.w3.org/2000/svg">
<g clip-path="url(#clip0_7492_19904)">
<path d="M48.6224 37.9319C48.6291 37.7991 48.6685 37.6704 48.7368 37.558C48.8859 37.2423 49.1521 36.7493 49.6578 36.9266C49.5607 36.8931 49.4562 36.8914 49.3581 36.9216C49.2601 36.9518 49.1733 37.0125 49.1095 37.0956L49.3756 37.2756L49.546 37.2507L49.6072 37.4306L50.0011 37.7076C49.8833 37.9889 49.7153 38.2444 49.5061 38.4607L49.1174 39.2915L48.822 38.4414C48.7521 38.3791 48.6976 38.3004 48.6628 38.2118C48.6281 38.1232 48.6142 38.0272 48.6224 37.9319Z" fill="#D96E34"/>
<path d="M43.6584 47.4997L43.8394 47.2588L44.7044 47.8985L43.8926 49.3218L42.9717 48.768L43.6584 47.4997Z" fill="#D96E34"/>
<path d="M34.0537 67.4264L34.2773 66.9722L35.5602 64.6544L35.7758 64.7818L35.9941 64.3802L36.4625 64.5935L36.5477 64.2418L36.0154 63.9815L36.1564 63.6464L36.1884 63.5772L36.0872 63.5217C36.8857 61.899 37.0454 61.6359 37.2743 61.5833L37.6177 60.9076L37.639 60.9076C37.7987 60.6307 38.0196 60.3538 38.4002 60.5532C38.4497 60.5763 38.4954 60.6071 38.536 60.6446C38.6744 60.772 38.7808 61.0045 38.5998 61.4226C38.5307 61.5933 38.4413 61.7544 38.3337 61.9018L36.9443 64.8122C36.899 64.959 36.7872 65.2138 36.6382 65.5571C36.5663 65.7233 36.5024 65.8672 36.4812 65.9282C36.5018 65.864 36.509 65.7961 36.5024 65.7289L36.4226 65.895L36.5024 65.9393C36.3379 66.2985 36.1409 66.6406 35.9142 66.9611L35.8344 67.1273L35.861 67.0221C35.7963 67.0931 35.7114 67.1407 35.6188 67.1578L35.475 67.3876L35.3233 67.2934L34.9746 67.9387L34.0537 67.4264ZM38.1686 61.0405C38.1098 61.0132 38.0467 60.9973 37.9823 60.9935L38.1766 61.06L38.1766 61.0849L38.3896 61.2178C38.3331 61.1397 38.2578 61.0785 38.1713 61.0405L38.1686 61.0405Z" fill="#D96E34"/>
<path d="M38.7806 58.0525L38.6289 57.4987L39.1267 56.3162L39.6217 55.4413L39.7149 55.4994C39.9145 55.0896 40.1434 54.6409 40.3883 54.1646C40.7929 53.3726 41.2108 52.5558 41.5168 51.8635L41.6286 51.5089L42.1849 50.7529L43.0792 51.3427C42.7465 52.0157 42.3712 52.7551 41.9959 53.4917C41.264 54.9345 40.5054 56.4271 40.0849 57.3686L39.9172 57.3049C39.5951 57.9972 39.494 58.1107 39.1506 58.0803L38.7806 58.0525Z" fill="#D96E34"/>
<path d="M26.8064 82.5078L26.7851 82.4248L26.7585 82.4248C26.7214 82.2877 26.7017 82.1462 26.7 82.0038C26.6414 81.5358 26.5961 81.1315 26.5536 80.7411C26.2714 80.6414 26.1809 80.2675 26.0984 79.9296L26.0825 79.8577L26.0825 79.8078L26.0133 79.8078L25.4517 75.8064C25.3612 75.2525 25.2999 74.8066 25.252 74.3746L25.3771 74.3552L25.1615 73.3749L25.1296 73.2669C24.9583 72.8258 24.8282 72.3687 24.741 71.9018L24.741 71.4697L24.4402 70.1266C24.3577 69.8497 24.2778 69.606 24.19 69.354L24.19 71.1318L22.8219 64.8125L22.9922 64.7655L22.9922 64.7351L23.1573 64.6714C23.0987 64.544 23.0349 64.3944 22.9497 64.1757L23.2531 64.0288L23.2185 63.8793L23.1679 63.8489L23.1307 63.7215C23.0444 63.8206 22.9986 63.9507 23.0029 64.0843C23.0029 63.9984 22.9204 63.691 22.8459 63.4002L22.6276 64.0621C22.8059 65.7624 22.8938 66.7344 22.9097 67.2993L23.1386 67.3131L23.1386 69.163L23.474 69.1823C23.4601 70.013 23.5369 70.8426 23.7029 71.6553L23.7322 71.7052L23.7322 71.8767L24.3843 75.1223L24.198 74.7873C24.2512 75.1888 24.3098 75.6181 24.363 76.0667L24.1581 76.0998L24.2326 76.4488C24.3178 76.8475 24.3763 77.1411 24.4375 77.4568L25.0684 80.7577L25.1056 80.9543L24.7809 81.0207C24.8288 81.137 24.8873 81.317 24.9885 81.6189L25.0684 81.8625C25.1801 82.1976 25.2201 82.2919 25.2334 82.3196C25.1953 82.2496 25.1403 82.1913 25.0737 82.1505L25.2307 82.4829L25.3292 82.4829L25.3292 82.5493L25.3292 82.7902L25.4223 83.2333L24.9752 83.394C24.8478 83.4404 24.7083 83.4347 24.5847 83.3782C24.4612 83.3216 24.3629 83.2184 24.3098 83.0893L22.7447 79.7248C22.5398 79.6445 22.3402 79.4284 22.0554 78.9992L22.3215 78.7971L22.2949 78.7361L22.231 78.5921L22.4014 78.5063L22.239 78.2294C22.134 78.2959 22.0544 78.3982 22.0136 78.5188C21.9729 78.6394 21.9735 78.771 22.0154 78.8912C21.9542 78.7444 21.4272 77.7503 21.0759 77.0912L20.4131 75.8229L19.7078 74.4383L19.777 74.3996C19.6545 74.1393 19.5507 73.8984 19.4443 73.6547C19.3085 73.3279 19.1994 73.0455 19.0929 72.7602C18.978 72.7461 18.8668 72.7086 18.7659 72.6496C18.6649 72.5907 18.5761 72.5115 18.5047 72.4168L18.4594 72.3669L18.4248 72.306C17.8313 71.1984 17.786 71.0184 17.7594 70.7719C17.6352 70.4529 17.4838 70.1461 17.3069 69.8553L17.2723 69.7749C17.2077 69.6215 17.202 69.4481 17.2564 69.2903C17.108 69.0564 16.972 68.8142 16.8491 68.5648L16.8065 68.4624L16.6682 67.9583C16.583 67.6426 16.4765 67.2495 16.3461 66.7953L16.0293 66.9531C15.8324 66.5876 15.7365 66.4298 15.6727 66.3245L15.5183 66.4048C14.9327 65.2252 14.3552 64.0178 13.7989 62.8519L12.7901 60.739L13.0563 60.8664L12.8753 60.404C12.4574 59.3545 12.2737 58.8919 12.2711 58.6178L12.0555 58.5126L11.9889 58.2745C11.9304 58.0723 11.587 57.2083 11.2703 56.4468L11.1745 56.4883C10.8451 55.7902 10.5554 55.0728 10.3068 54.3394C9.9919 53.4073 9.6102 52.501 9.1649 51.6284L9.14628 51.5923C9.02917 51.3153 8.82953 50.936 8.63523 50.5677C8.1029 49.5625 7.99111 49.3133 8.07629 49.0087L8.26792 48.3219L7.6451 46.749L7.91126 46.7102L7.85005 46.5801L7.80213 46.6023C7.66823 46.6528 7.52121 46.6504 7.38881 46.5958C7.25641 46.5412 7.14781 46.4381 7.08349 46.3059C6.92379 46.137 6.78804 45.8074 6.55116 45.1982L6.7268 45.1179L6.7268 45.0846L6.71085 45.0487C6.50058 44.8963 6.35952 44.5225 6.08803 43.797L6.03211 43.6503L6.0481 43.5616C5.91487 43.1061 5.75303 42.6603 5.56366 42.2268C5.48303 42.0544 5.44204 41.8648 5.44389 41.673L5.26022 41.2244C5.07657 40.7841 4.87162 40.2857 4.53093 39.3691L5.11651 39.0671C5.11651 38.9757 5.08192 38.8512 5.05264 38.7016C5.01457 38.7037 4.97695 38.7111 4.94084 38.7238C4.8455 38.755 4.76134 38.8152 4.6992 38.8966C4.63705 38.9781 4.59979 39.077 4.59217 39.1807C4.56085 38.9106 4.5074 38.6438 4.43245 38.3832C4.28606 37.7657 4.0412 36.8463 3.78302 36.0405C3.6715 35.8999 3.57428 35.7477 3.4929 35.5863L3.45031 35.4893C3.42902 35.4284 3.41303 35.373 3.39972 35.3231L1.88791 31.2165L1.39018 29.7987L0.115233 28.5636L1.1799 29.17L0.647566 27.6303L0.538429 27.1042L0.892452 26.9132C0.991805 26.8592 1.10496 26.8393 1.21583 26.8562C1.32671 26.8731 1.42964 26.9259 1.50994 27.0073L1.80805 27.3091L1.66434 26.8688L2.88337 28.2091L2.90998 28.1842L3.21342 28.5332L3.32255 28.6577C3.51173 28.7218 3.68583 28.8264 3.83357 28.965L3.91077 29.0178L3.96399 29.1257C4.08741 29.2905 4.21892 29.4485 4.35795 29.5992C4.60548 29.8761 4.91689 30.25 5.25226 30.6543L6.69486 32.3879C6.85208 32.3956 7.00099 32.4637 7.11276 32.579C7.17064 32.6351 7.22571 32.6943 7.27779 32.7562C7.38958 32.8864 7.55992 33.094 7.81012 33.4042L7.866 33.49C7.90061 33.5482 8.06297 33.767 8.16944 33.9165C8.53409 34.4094 8.79492 34.7665 8.39567 35.1155C9.17288 36.093 9.71056 36.8103 10.1125 37.3863L10.2802 37.2285L10.3148 37.27L10.541 36.9045L11.5045 38.3859L11.3288 38.5272L11.5711 38.8401L13.4795 41.5733C13.8947 42.1936 14.3152 42.8555 14.7225 43.4952C14.9886 43.9272 15.2681 44.3591 15.5476 44.7884C15.867 45.3062 16.1731 45.8185 16.4605 46.3003C16.748 46.7822 17.0514 47.2945 17.3202 47.7209L17.3415 47.7597C17.9191 48.8674 18.1401 49.3908 17.9324 49.6982L17.983 49.8062L18.2492 49.8948L18.8534 51.0025L19.2526 50.2271L19.2952 51.8028L19.5614 52.3123L19.5614 52.1988C19.423 50.2604 19.2952 48.6874 19.1754 47.3969L18.7442 42.8887L18.872 43.2598C18.848 42.5176 18.8161 41.8751 18.7868 41.2825C18.7336 40.2108 18.6883 39.322 18.715 38.3417C18.6633 38.2576 18.6289 38.1633 18.6138 38.0648L18.6138 37.9346L18.6138 37.6328L18.5207 37.6328C18.4662 36.6468 18.4858 35.6579 18.5792 34.6752C18.6059 34.3808 18.6969 34.0966 18.8454 33.8444C18.7666 32.9167 18.7666 31.9836 18.8454 31.0559L18.7336 31.0559L18.7336 30.502C18.7336 29.746 18.699 28.5276 18.691 27.3756C18.691 26.6888 18.691 25.9106 18.691 25.318C18.6939 24.986 18.7268 24.655 18.7895 24.3295C18.7682 23.8476 18.8214 22.8867 18.8454 22.6153L18.8747 20.9399C18.8906 19.9263 18.8986 19.3144 18.9492 17.6723L19.0663 17.6723C19.0982 17.34 19.1009 16.9633 19.1036 16.5036C19.1062 16.0439 19.1036 15.587 19.1382 15.0027L19.1382 14.5403C19.1754 12.3831 19.2154 11.8957 19.2553 11.4249C19.2952 10.9541 19.3298 10.5443 19.3564 8.37877L19.383 6.08593L19.6492 6.6203L19.6678 6.04158C19.6998 4.83697 19.7397 3.47457 19.8834 2.2838L19.9526 2.2838C19.9686 1.65242 19.9526 0.915803 19.9127 0.195809L19.9127 0.101563L21.9941 0.655406C21.8983 2.10647 21.9728 2.49981 22.0367 2.84319L22.066 3.00099L22.066 3.07292C22.0048 3.92861 21.9782 4.33847 21.7093 4.47416C21.6747 5.26338 21.6162 5.97789 21.5576 6.67019C21.531 7.01081 21.5017 7.35134 21.4778 7.70026C21.4192 8.49226 21.35 9.33412 21.2675 10.2784L21.4911 9.72457L21.1584 13.2582C21.1536 13.5674 21.0921 13.8728 20.9774 14.1582C20.9587 14.1969 20.9135 14.2939 20.839 15.2825L20.839 15.3904L20.799 15.4707C20.7551 16.1345 20.7551 16.8007 20.799 17.4646C20.8557 18.7028 20.8513 19.9431 20.7857 21.1808C20.827 21.236 20.8593 21.2977 20.8816 21.3636L20.9188 21.4688L20.5435 27.0931L20.6659 29.3722C20.6952 29.746 20.7219 30.2528 20.7485 30.9285L20.6873 30.9285L20.6873 31.0255L20.6047 31.0255L20.5914 31.3244C20.6117 31.3724 20.6268 31.4226 20.6367 31.474C20.66 31.7241 20.6519 31.9764 20.6127 32.2244L20.5941 32.4377L20.8177 33.2242L20.7112 33.465C20.7325 34.3235 20.7911 35.1986 20.8496 36.046L20.9268 37.2811L20.7831 40.9862L20.9348 40.9862L20.9348 41.0111C20.9534 41.3711 20.9694 41.565 20.9827 41.6481L21.0812 41.6481L21.0812 43.7195L21.1264 45.5803C21.2483 45.9714 21.3129 46.3794 21.3181 46.7905C21.3447 47.0674 21.3713 47.386 21.4086 47.71L21.869 51.728L21.5603 50.9472C21.6038 51.574 21.6038 52.2033 21.5603 52.8302L21.5603 52.8717C21.5425 53.3814 21.5532 53.8918 21.5922 54.4003L21.6614 54.4003C21.6614 54.7243 21.7013 55.1757 21.7413 55.6409L22.1379 56.023L21.7626 55.8818C21.8105 56.3803 21.8637 56.8733 21.9116 57.2305L21.9888 57.2305L22.0314 57.6818L23.7854 61.5338L22.7847 60.3956C22.8432 60.5507 22.9017 60.7086 22.963 60.8582L23.0109 60.9772L23.0109 60.9993C23.1572 60.9935 23.2998 61.0482 23.4075 61.1516C23.4075 61.1654 23.4368 61.1793 23.4501 61.1959L23.5326 61.2845L23.5698 61.3981L23.679 61.7221C23.7508 61.927 23.82 62.132 23.8839 62.3424L23.9904 62.7052C24.0827 62.8142 24.1548 62.94 24.2033 63.0762L24.2832 63.2784L24.2459 63.3753C24.2725 63.5221 24.3524 63.8628 24.5121 64.3834C24.6718 64.904 24.9087 65.6101 25.1349 66.2637L25.2733 66.6651L25.2893 66.7177C25.4144 67.2467 25.5847 67.964 25.0604 68.1966L25.1668 68.5565C25.2041 68.5371 25.2361 68.5288 25.2467 68.5233C25.3234 68.4955 25.4058 68.4891 25.4856 68.5046C25.5654 68.5202 25.64 68.5572 25.7018 68.612C25.8798 68.8327 26.004 69.0949 26.0638 69.3762L26.0638 69.4372L26.1357 69.7445C26.1703 69.8913 26.2049 70.0352 26.2288 70.1737L26.4524 71.4088L26.0452 71.1458C26.1205 71.2633 26.1822 71.3897 26.2288 71.5223L26.2502 71.5916C26.4286 72.2076 26.5499 72.84 26.6121 73.4801C26.6121 73.6435 26.6414 73.8319 26.7053 74.2334L26.5536 74.2611L26.6148 74.5796L27.0833 76.7257L27.2216 77.526L27.5384 77.4624L27.9935 79.4727L27.911 79.5032C28.0787 80.5305 28.068 80.7133 28.0574 80.921L28.3901 80.298L28.8266 79.5115L28.5951 79.3924L29.4734 77.5509L29.7103 77.0414C29.7263 76.9928 29.7459 76.9456 29.7689 76.9001L29.6278 76.7976L29.9712 76.1608C29.9548 76.0457 29.9639 75.9283 29.9978 75.8175C30.1073 75.29 30.2568 74.7723 30.4449 74.2694L30.4875 74.178L30.5807 74.0202C30.6445 73.9149 30.7217 73.7876 30.8309 73.5744C30.8241 73.4808 30.8349 73.3867 30.8628 73.2974L30.8628 73.2808L30.8868 73.2338C30.9214 73.1396 30.9613 73.051 30.9959 72.979L31.0252 72.9928L31.0784 72.8959C31.3446 72.4223 31.5282 72.1011 31.7704 72.0263C31.8237 71.8823 31.8902 71.7245 31.9647 71.5445L32.0073 71.4614C32.0992 71.284 32.2426 71.1415 32.4172 71.0544C32.4678 70.9768 32.537 70.8605 32.6328 70.6916L33.5484 71.2454L33.2823 71.7383C33.1359 72.0014 32.9842 72.2729 32.8644 72.4778L32.8404 72.5193L33.1306 72.6688L32.9549 73.0814C32.8351 73.3583 32.6461 73.7958 32.5716 73.998L32.6195 74.2085L32.0606 74.6654L31.9248 74.9146L30.7191 77.4457C30.6927 77.5545 30.6607 77.6617 30.6233 77.7669C30.5913 77.8638 30.5461 77.9829 30.4822 78.1407L30.1575 78.8745L30.051 78.8275L29.846 79.265L30.1122 79.4228L28.7601 81.8986L27.8312 81.3586L27.9962 81.0512L27.7726 81.0734L27.9323 82.2282C27.995 82.4184 27.995 82.6249 27.9323 82.8151L27.1791 84.618L26.8064 82.5078ZM20.4424 31.9448L20.2667 31.9282L20.2401 32.111C20.3196 32.0737 20.3891 32.0166 20.4424 31.9448ZM19.5321 44.301L19.5161 44.2207L19.3671 44.2207L19.4655 44.3177C19.4883 44.3151 19.5107 44.3095 19.5321 44.301ZM19.6998 56.7625L19.6572 56.7818C19.6773 56.799 19.6997 56.813 19.7237 56.8233L19.6998 56.7625ZM22.3535 61.7054L22.3428 61.7054L22.3535 61.7054ZM20.3998 61.7054C20.2773 60.5257 20.1336 59.1301 19.9846 57.4353L19.7477 56.8815C19.7136 56.8566 19.6816 56.8288 19.6519 56.7985L19.564 56.8344L19.4975 56.6655L19.2633 56.084C19.1994 55.9289 19.1302 55.7766 19.061 55.6243L18.9412 55.3473L19.0503 55.292C18.9013 55.0151 18.7602 54.7382 18.6218 54.4613L18.1081 53.4643L18.0016 53.2677C17.8412 52.9527 17.6634 52.6475 17.4693 52.3538L16.5084 50.9332L16.8545 51.0606L16.7028 50.7561L16.7427 50.7311L16.5457 50.3878C16.414 50.2466 16.3133 50.0775 16.2503 49.8921L16.1491 49.6926C16.1065 49.6068 16.056 49.5043 15.9921 49.388L15.9708 49.3493L15.843 49.1194L15.7871 49.0225L16.0187 48.8758L15.9175 48.6901C15.5396 48.7594 15.3533 48.3994 15.0632 47.8289C14.9194 47.552 14.7305 47.1533 14.6346 46.9234C14.5471 46.7534 14.5279 46.5542 14.5814 46.3696C14.5175 46.3031 14.4536 46.2201 14.3711 46.1148L14.2008 46.2229C13.9577 45.8296 13.711 45.4382 13.4608 45.0487L13.0456 44.3952C12.8593 44.1349 12.6597 43.8413 12.4467 43.5284C12.2338 43.2155 12.0502 42.9358 11.8372 42.6451C11.3821 42.0026 10.9935 41.4294 10.714 40.9835C10.525 40.726 10.3307 40.4297 10.1604 40.1528C10.0459 39.9728 9.93945 39.8066 9.84097 39.6626L9.78242 39.5739L9.06642 38.5798C8.6858 38.0509 8.30783 37.522 7.92189 36.9986L7.90061 36.9986L7.7622 36.8353C7.33367 36.3257 6.9078 35.7884 6.49524 35.2706C5.8937 34.5146 5.27087 33.7365 4.60013 32.9832L4.36591 32.7423L4.94883 34.318C5.23084 35.0045 5.47783 35.7062 5.68878 36.4199C6.04278 37.0734 6.58573 38.4081 7.38956 40.593L7.92189 41.9998C8.42494 43.3429 8.89874 44.6112 9.27404 45.4835L9.39113 45.7604L9.29798 45.9127C9.91549 47.4607 10.501 48.9588 11.2836 50.9858L11.776 52.2597L11.6349 52.196C11.8798 52.772 12.1673 53.4172 12.5026 54.1344C12.8992 54.9791 13.3011 55.8513 13.6977 56.7153C14.5441 58.2965 15.2947 60.0384 16.0001 61.7221C16.6704 63.3905 17.4265 65.0204 18.2652 66.6043L18.2944 66.6624C18.5153 67.1996 18.7678 67.7221 19.0503 68.227L19.0637 68.227L19.753 69.4842C19.926 69.775 20.1123 70.0741 20.2853 70.3483C20.8949 71.3286 21.0838 71.6526 21.0013 71.935C21.0911 72.1121 21.1121 72.3182 21.0599 72.5109C21.1131 72.6355 21.161 72.7491 21.2009 72.8543C21.3525 73.0486 21.4861 73.2572 21.6002 73.4774C21.6712 73.6085 21.7431 73.747 21.8158 73.8928L22.0048 74.2805L22.1059 74.4992L22.0846 73.6685L21.9569 73.1146L21.7227 73.134C21.6455 72.3032 21.5842 71.7189 21.5337 71.2537L21.4352 70.1682L21.3607 69.3236L21.3607 69.3374L21.1717 67.7396C21.1238 67.3463 21.0865 66.8674 21.0519 66.4021C21.0216 65.7889 20.9531 65.1784 20.847 64.5744L20.847 64.5383C20.7458 64.1866 20.5728 63.2036 20.3998 61.7054ZM26.4365 79.8937L26.4178 79.7801C26.379 79.8094 26.3449 79.845 26.3167 79.8854L26.3672 79.902L26.4365 79.8937ZM26.8703 82.5189L26.8676 82.5189L26.8703 82.5189Z" fill="#D96E34"/>
</g>
<defs>
<clipPath id="clip0_7492_19904">
<rect width="84.5468" height="49.9595" fill="white" transform="matrix(-4.37114e-08 1 1 4.37114e-08 0.0410156 0.145508)"/>
</clipPath>
</defs>
</svg>
