<svg width="25" height="30" viewBox="0 0 25 30" fill="none" xmlns="http://www.w3.org/2000/svg">
<path fill-rule="evenodd" clip-rule="evenodd" d="M12.2709 0.000588417L12.2499 0L12.2289 0.000589788C11.2916 0.0268942 10.5712 0.246355 10.0236 0.804374C9.531 1.30631 9.2609 2.0155 8.99799 2.72164C8.92705 2.91068 8.87016 3.01214 8.79305 3.09454C8.7165 3.17633 8.57351 3.28782 8.26116 3.4044C6.43773 4.08245 5.23078 5.12821 4.45975 6.3998C3.69903 7.65441 3.39536 9.07492 3.2754 10.4572C3.18049 11.5508 3.19879 12.6725 3.21548 13.6962L3.21549 13.6962C3.21974 13.9568 3.22388 14.2109 3.22603 14.4567C3.23705 15.7156 3.19438 16.7273 2.94016 17.4714L2.93984 17.4723C2.82758 17.8024 2.57733 18.2074 2.20962 18.7356C2.12337 18.8595 2.03095 18.9898 1.93491 19.1252L1.93481 19.1253C1.64625 19.5321 1.32502 19.9849 1.04004 20.4493L1.03966 20.45C0.284194 21.6838 -0.396796 23.2712 0.273215 25.0188L0.457822 25.5003H0.973511H7.00668C7.07246 26.8542 7.67524 27.8791 8.64149 28.5487C9.6274 29.232 10.9231 29.5003 12.2507 29.5003C13.5782 29.5003 14.8739 29.232 15.8598 28.5487C16.8261 27.8791 17.4289 26.8542 17.4947 25.5003H23.5304H24.0479L24.2316 25.0164C24.8958 23.2663 24.2161 21.6806 23.4603 20.4461L23.4593 20.4445C23.1769 19.9857 22.8591 19.5369 22.5728 19.1325L22.5727 19.1324L22.5724 19.132C22.4745 18.9936 22.3802 18.8604 22.2922 18.7338C21.9259 18.2063 21.6744 17.7991 21.5596 17.467C21.3055 16.7208 21.2629 15.7081 21.2739 14.4499C21.276 14.2041 21.2802 13.9498 21.2844 13.6893V13.6893C21.3011 12.666 21.3194 11.5452 21.2245 10.4532C21.1045 9.07097 20.8009 7.65049 20.0402 6.39592C19.2691 5.12425 18.062 4.07844 16.2384 3.4004L16.238 3.40025C15.9243 3.2838 15.7808 3.17162 15.7045 3.0899C15.6278 3.00769 15.5718 2.9069 15.503 2.72056L15.5027 2.71988C15.2415 2.01507 14.9725 1.30575 14.4789 0.803535C13.931 0.245997 13.2096 0.0268673 12.2709 0.000588417ZM15.9922 25.5003H12.25H8.50912C8.56906 26.365 8.94363 26.9331 9.49589 27.3158C10.1387 27.7613 11.0929 28.0003 12.2507 28.0003C13.4084 28.0003 14.3627 27.7613 15.0055 27.3158C15.5577 26.9331 15.9323 26.365 15.9922 25.5003ZM11.0942 1.85503C11.2665 1.67947 11.5415 1.52339 12.25 1.50063C12.9611 1.52341 13.237 1.67981 13.4091 1.8549C13.6372 2.08702 13.8102 2.46949 14.0962 3.24113C14.1939 3.50535 14.3341 3.82002 14.608 4.11346C14.8826 4.40756 15.2445 4.63143 15.7157 4.80636C17.2464 5.37552 18.1746 6.21219 18.7575 7.17364C19.3508 8.15216 19.6201 9.31542 19.7301 10.583L19.7301 10.5831C19.8177 11.5902 19.8013 12.6102 19.785 13.6254V13.6254L19.785 13.6262C19.7806 13.8968 19.7763 14.1672 19.7739 14.4368C19.7631 15.6705 19.7919 16.9304 20.1401 17.952L20.141 17.9544C20.3317 18.5078 20.7005 19.0716 21.0602 19.5895C21.1641 19.739 21.2685 19.8865 21.3726 20.0335L21.3726 20.0336C21.6509 20.4267 21.9267 20.8163 22.1816 21.2303C22.7716 22.1941 23.1193 23.0951 22.9624 24.0003H12.25H1.53975C1.38107 23.0984 1.72812 22.1982 2.31875 21.2335C2.57517 20.8156 2.85345 20.4233 3.13432 20.0273C3.23641 19.8833 3.33885 19.7389 3.4407 19.5926C3.80055 19.0757 4.17081 18.5113 4.3599 17.9555L4.35993 17.9554C4.70809 16.9357 4.73676 15.6767 4.72597 14.4436C4.72362 14.1739 4.71927 13.9035 4.71493 13.6327L4.71492 13.6324C4.69863 12.6168 4.68224 11.5956 4.76978 10.5869C4.87979 9.3193 5.14907 8.15604 5.74239 7.17752C6.32536 6.21607 7.25346 5.37941 8.78424 4.81024L8.78501 4.80996C9.25345 4.6352 9.61391 4.41262 9.88823 4.11951C10.1619 3.82705 10.3033 3.51292 10.4027 3.24776L10.4033 3.24607C10.6914 2.47224 10.8654 2.08815 11.0942 1.85503Z" fill="black"/>
</svg>
