<svg width="117" height="23" viewBox="0 0 117 23" fill="none" xmlns="http://www.w3.org/2000/svg">
<path d="M1.572 16.958C1.27867 16.9873 1.08067 16.892 0.978 16.672C0.860667 16.452 0.838667 16.2027 0.912 15.924C0.897333 15.836 0.897333 15.77 0.912 15.726C0.912 15.682 0.934 15.616 0.978 15.528C1.00733 15.4547 1.02933 15.396 1.044 15.352C1.16133 14.7067 1.23467 14.3547 1.264 14.296C1.33733 14.1053 1.46933 13.812 1.66 13.416C1.86533 13.02 1.98267 12.7047 2.012 12.47C2.02667 12.382 2.07067 12.3527 2.144 12.382C2.21733 12.3967 2.254 12.3893 2.254 12.36C2.254 12.052 2.32733 11.766 2.474 11.502C2.62067 11.2673 2.782 10.9007 2.958 10.402C3.14867 9.88867 3.32467 9.522 3.486 9.302C3.63267 9.02333 3.72067 8.82533 3.75 8.708C3.82333 8.42933 4.02867 8.01133 4.366 7.454C4.718 6.882 4.93067 6.47133 5.004 6.222C5.01867 6.16333 5.03333 6.09 5.048 6.002C5.07733 5.89933 5.09933 5.81867 5.114 5.76C5.12867 5.70133 5.15067 5.64267 5.18 5.584C5.224 5.51067 5.27533 5.452 5.334 5.408C5.36333 5.364 5.36333 5.276 5.334 5.144C5.31933 4.99733 5.31933 4.89467 5.334 4.836C5.34867 4.76267 5.45867 4.53533 5.664 4.154C5.884 3.77267 6.02333 3.538 6.082 3.45C6.17 3.318 6.214 3.12 6.214 2.856C6.22867 2.768 6.27267 2.68733 6.346 2.614C6.41933 2.54067 6.456 2.482 6.456 2.438C6.39733 2.33533 6.368 2.26933 6.368 2.24C6.368 2.21067 6.39 2.152 6.434 2.064C6.49267 1.976 6.52933 1.90267 6.544 1.844C6.61733 1.82933 6.73467 1.77067 6.896 1.668C7.05733 1.56533 7.18933 1.514 7.292 1.514C7.35067 1.514 7.424 1.536 7.512 1.58C7.556 1.712 7.512 1.756 7.38 1.712C7.35067 1.74133 7.32867 1.77067 7.314 1.8C7.314 1.82933 7.314 1.85867 7.314 1.888C7.32867 1.90267 7.336 1.932 7.336 1.976C7.35067 2.00533 7.358 2.03467 7.358 2.064C7.358 2.31333 7.39467 2.51133 7.468 2.658C7.38 2.84867 7.314 3.12733 7.27 3.494C7.24067 3.846 7.21133 4.07333 7.182 4.176C7.03533 4.67467 6.84467 5.79667 6.61 7.542C6.566 7.82067 6.59533 8.53933 6.698 9.698C6.71267 9.85933 6.72733 9.95467 6.742 9.984C6.77133 10.0133 6.874 10.0427 7.05 10.072C7.138 10.0867 7.32133 10.0793 7.6 10.05C7.70267 10.0353 7.81267 9.99133 7.93 9.918C8.062 9.83 8.106 9.764 8.062 9.72C7.95933 9.61733 7.974 9.544 8.106 9.5C8.16467 9.47067 8.20867 9.44867 8.238 9.434C8.42867 9.346 8.546 9.24333 8.59 9.126C8.678 8.906 9.02267 8.576 9.624 8.136C10.2253 7.696 10.592 7.388 10.724 7.212C10.8267 7.08 11.0027 6.91133 11.252 6.706C11.5013 6.486 11.6847 6.27333 11.802 6.068L12.044 5.716C12.088 5.65733 12.1613 5.61333 12.264 5.584C12.3667 5.55467 12.44 5.518 12.484 5.474C12.5573 5.41533 12.726 5.24667 12.99 4.968C13.254 4.67467 13.5033 4.42533 13.738 4.22C13.9727 4 14.1487 3.88267 14.266 3.868C14.3247 3.85333 14.5007 3.72133 14.794 3.472C15.102 3.22267 15.4173 2.95867 15.74 2.68C16.0627 2.40133 16.2387 2.24733 16.268 2.218C16.62 1.91 16.9793 1.756 17.346 1.756C17.61 1.756 17.7493 1.888 17.764 2.152C17.7787 2.34267 17.7567 2.526 17.698 2.702C17.654 2.86333 17.5733 3.04667 17.456 3.252C17.3533 3.45733 17.28 3.626 17.236 3.758C17.2947 4.12467 17.2287 4.41067 17.038 4.616C16.9207 4.71867 16.8327 4.89467 16.774 5.144C16.73 5.39333 16.6933 5.54733 16.664 5.606C16.576 5.85533 16.422 6.178 16.202 6.574C15.9967 6.95533 15.8647 7.22667 15.806 7.388C15.7913 7.44667 15.7693 7.54933 15.74 7.696C15.7107 7.84267 15.674 7.96733 15.63 8.07C15.586 8.158 15.52 8.23867 15.432 8.312C15.3587 8.37067 15.3147 8.47333 15.3 8.62C15.2853 8.752 15.2633 8.84733 15.234 8.906C14.882 9.85933 14.6547 10.4167 14.552 10.578C14.5227 10.6073 14.4713 10.71 14.398 10.886C14.3247 11.0473 14.288 11.1427 14.288 11.172C14.3027 11.2893 14.1927 11.6193 13.958 12.162C13.6207 13.0567 13.5473 13.658 13.738 13.966C13.7527 14.0247 13.7967 14.0833 13.87 14.142C13.9433 14.186 13.9873 14.2227 14.002 14.252C14.0167 14.2667 13.9873 14.3253 13.914 14.428C13.8113 14.5307 13.6573 14.5893 13.452 14.604C13.4227 14.604 13.3713 14.6113 13.298 14.626C13.2247 14.6407 13.1733 14.648 13.144 14.648C13.1147 14.648 13.0707 14.6407 13.012 14.626C12.968 14.5967 12.9313 14.56 12.902 14.516C12.682 14.1787 12.572 13.7973 12.572 13.372C12.572 13.328 12.572 13.2547 12.572 13.152C12.572 13.0347 12.5793 12.9393 12.594 12.866C12.6087 12.7927 12.638 12.7267 12.682 12.668C12.7553 12.624 12.7773 12.5433 12.748 12.426C12.7187 12.294 12.7187 12.1987 12.748 12.14C13.1293 11.1133 13.4007 10.5413 13.562 10.424C13.5473 10.2333 13.6207 9.99867 13.782 9.72C13.9433 9.44133 14.0313 9.25067 14.046 9.148C14.0753 8.91333 14.1633 8.67867 14.31 8.444C14.5153 8.10667 14.838 7.37333 15.278 6.244C15.718 5.1 15.96 4.47667 16.004 4.374C16.0187 4.34467 16.0627 4.24933 16.136 4.088C16.224 3.92667 16.2827 3.802 16.312 3.714C16.1653 3.714 16.0113 3.76533 15.85 3.868C15.7033 3.956 15.5273 4.09533 15.322 4.286C15.1167 4.47667 14.9993 4.58667 14.97 4.616C13.9727 5.496 13.3933 6.002 13.232 6.134C13.1733 6.178 13.0707 6.28067 12.924 6.442C12.7773 6.60333 12.6527 6.71333 12.55 6.772C12.418 6.772 12.3813 6.84533 12.44 6.992C12.4253 7.02133 12.3667 7.06533 12.264 7.124C12.1613 7.168 12.088 7.212 12.044 7.256C12.0293 7.27067 12.0147 7.3 12 7.344C11.9853 7.388 11.9633 7.42467 11.934 7.454C11.9193 7.48333 11.8973 7.498 11.868 7.498C11.7653 7.48333 11.692 7.498 11.648 7.542C11.648 7.55667 11.67 7.57133 11.714 7.586L11.736 7.63L11.34 8.004C10.6507 8.63467 10.2693 9.00133 10.196 9.104C10.152 9.17733 10.086 9.214 9.998 9.214C9.92467 9.214 9.866 9.22867 9.822 9.258C9.76333 9.302 9.734 9.36067 9.734 9.434C9.734 9.50733 9.67533 9.58067 9.558 9.654C9.39667 9.742 9.14733 9.94 8.81 10.248C8.48733 10.556 8.20867 10.732 7.974 10.776C7.87133 10.8053 7.81267 10.8567 7.798 10.93C7.78333 10.9887 7.732 11.04 7.644 11.084C7.45333 11.1867 7.248 11.2307 7.028 11.216C6.896 11.2013 6.72 11.1647 6.5 11.106C6.28 11.0473 6.11867 11.0107 6.016 10.996C5.82533 10.8493 5.664 10.5707 5.532 10.16C5.488 10.028 5.49533 9.742 5.554 9.302C5.56867 9.15533 5.554 8.93533 5.51 8.642C5.48067 8.334 5.466 8.114 5.466 7.982C5.40733 7.982 5.36333 8.01133 5.334 8.07C5.30467 8.114 5.28267 8.18 5.268 8.268C5.25333 8.356 5.246 8.40733 5.246 8.422C5.202 8.53933 5.12867 8.664 5.026 8.796C4.92333 8.91333 4.85 9.00867 4.806 9.082C4.806 9.258 4.718 9.49267 4.542 9.786C4.366 10.0793 4.27067 10.248 4.256 10.292C4.212 10.4093 4.07267 10.776 3.838 11.392C3.618 12.008 3.42 12.5213 3.244 12.932C3.068 13.328 2.88467 13.6433 2.694 13.878C2.63533 13.9513 2.54733 14.2447 2.43 14.758C2.40067 14.846 2.364 14.9267 2.32 15C2.29067 15.0733 2.232 15.154 2.144 15.242C2.07067 15.33 2.01933 15.396 1.99 15.44C1.946 15.4987 1.93867 15.594 1.968 15.726C2.012 15.858 2.07067 15.9313 2.144 15.946C2.39333 16.034 2.43733 16.1733 2.276 16.364C2.232 16.408 2.166 16.4887 2.078 16.606C2.00467 16.7233 1.93133 16.804 1.858 16.848C1.78467 16.9067 1.68933 16.9433 1.572 16.958ZM8.062 2.416C7.85667 2.35733 7.73933 2.218 7.71 1.998C7.68067 1.866 7.73933 1.8 7.886 1.8C7.93 1.8 7.98867 1.81467 8.062 1.844C8.194 2.02 8.194 2.21067 8.062 2.416ZM18.71 15.572C18.226 15.22 17.984 14.6553 17.984 13.878C17.984 13.4673 18.05 12.9613 18.182 12.36C18.4313 11.4653 18.754 10.864 19.15 10.556C19.194 10.512 19.238 10.4753 19.282 10.446C19.3407 10.4167 19.3773 10.3947 19.392 10.38C19.4213 10.3653 19.4507 10.3433 19.48 10.314C19.5093 10.2847 19.5387 10.2407 19.568 10.182C19.612 10.1087 19.6633 10.072 19.722 10.072C19.7513 10.072 19.81 10.1013 19.898 10.16C20.0007 10.204 20.0813 10.204 20.14 10.16C20.2133 10.0867 20.1913 9.984 20.074 9.852C19.9713 9.72 19.9493 9.60267 20.008 9.5C20.0667 9.42667 20.1253 9.37533 20.184 9.346C20.2573 9.31667 20.3307 9.29467 20.404 9.28C20.4773 9.26533 20.5433 9.24333 20.602 9.214C20.6607 9.18467 20.7707 9.11133 20.932 8.994C21.0933 8.87667 21.2327 8.78867 21.35 8.73C21.4673 8.67133 21.5773 8.642 21.68 8.642C21.7533 8.642 21.8413 8.67867 21.944 8.752C22.0173 8.81067 22.0613 8.86933 22.076 8.928C22.1053 8.972 22.164 9.016 22.252 9.06C22.4133 9.11867 22.5013 9.302 22.516 9.61C22.5453 9.918 22.516 10.138 22.428 10.27C22.4133 10.2847 22.3913 10.3067 22.362 10.336C22.3327 10.3507 22.3107 10.3653 22.296 10.38C22.296 10.3947 22.296 10.4167 22.296 10.446C22.3253 10.534 22.3033 10.6073 22.23 10.666C22.1713 10.7247 22.1127 10.7247 22.054 10.666C22.01 10.6367 21.9513 10.6073 21.878 10.578C21.8047 10.5487 21.746 10.512 21.702 10.468C21.6727 10.424 21.658 10.3433 21.658 10.226C21.658 10.2113 21.6507 10.1747 21.636 10.116C21.636 10.0573 21.636 10.0133 21.636 9.984C21.636 9.94 21.6287 9.896 21.614 9.852C21.5993 9.79333 21.5773 9.764 21.548 9.764C21.5187 9.74933 21.482 9.74933 21.438 9.764C21.35 9.808 21.24 9.896 21.108 10.028C20.976 10.1453 20.8587 10.2407 20.756 10.314C20.668 10.3873 20.5947 10.3947 20.536 10.336L20.36 10.138C20.272 10.182 20.2133 10.2187 20.184 10.248C20.1547 10.2773 20.1473 10.3067 20.162 10.336C20.1913 10.3653 20.2207 10.3947 20.25 10.424C20.294 10.4387 20.3307 10.468 20.36 10.512C20.404 10.5413 20.426 10.578 20.426 10.622C20.426 10.7687 20.3527 10.9007 20.206 11.018C20.1767 11.0473 20.0887 11.128 19.942 11.26C19.7953 11.392 19.7 11.524 19.656 11.656C19.612 11.8467 19.4873 12.1327 19.282 12.514C19.0913 12.8953 18.974 13.2033 18.93 13.438C18.8713 13.8193 18.9227 14.1347 19.084 14.384C19.26 14.6333 19.546 14.758 19.942 14.758C20.6167 14.758 21.2327 14.5527 21.79 14.142C21.8633 14.0833 22.054 13.9367 22.362 13.702C22.6847 13.4673 22.9193 13.2767 23.066 13.13C23.154 13.0273 23.2713 12.9247 23.418 12.822C23.5647 12.7047 23.6453 12.6973 23.66 12.8C23.66 12.8293 23.6307 12.866 23.572 12.91C23.5427 12.9247 23.5427 12.9393 23.572 12.954C23.6453 12.9833 23.7187 12.9833 23.792 12.954C23.88 12.9247 23.968 12.8587 24.056 12.756C24.144 12.6387 24.2173 12.5433 24.276 12.47C24.3347 12.3967 24.408 12.294 24.496 12.162C24.584 12.0153 24.628 11.9347 24.628 11.92C24.7893 11.6853 24.8993 11.5093 24.958 11.392C25.0167 11.2747 25.0533 11.1133 25.068 10.908C25.0827 10.7027 25.0167 10.512 24.87 10.336C24.7527 10.2187 24.7453 10.1233 24.848 10.05C24.9507 9.962 24.9727 9.874 24.914 9.786C24.87 9.72733 24.8333 9.698 24.804 9.698C24.7893 9.698 24.7233 9.74933 24.606 9.852C24.5033 9.95467 24.386 9.984 24.254 9.94C24.1953 9.92533 24.1587 9.90333 24.144 9.874C24.144 9.83 24.1513 9.79333 24.166 9.764C24.1953 9.72 24.1953 9.66867 24.166 9.61C24.1367 9.566 24.078 9.55133 23.99 9.566C23.9167 9.58067 23.8653 9.61 23.836 9.654C23.8213 9.68333 23.8213 9.71267 23.836 9.742C23.8653 9.77133 23.8653 9.786 23.836 9.786C23.7773 9.80067 23.726 9.764 23.682 9.676C23.6527 9.588 23.6233 9.55867 23.594 9.588C23.5207 9.676 23.4767 9.786 23.462 9.918C23.462 10.05 23.3887 10.1893 23.242 10.336C23.066 10.5267 22.934 10.5853 22.846 10.512C22.8167 10.4827 22.8167 10.4607 22.846 10.446C22.89 10.4313 22.912 10.4093 22.912 10.38C22.8387 10.1453 22.802 9.99133 22.802 9.918C22.8167 9.84467 22.8607 9.75667 22.934 9.654C23.066 9.50733 23.198 9.412 23.33 9.368C23.4033 9.33867 23.462 9.36067 23.506 9.434C23.5647 9.49267 23.616 9.5 23.66 9.456C23.6893 9.42667 23.6967 9.39733 23.682 9.368C23.6673 9.33867 23.6527 9.31667 23.638 9.302C23.6233 9.28733 23.6307 9.27267 23.66 9.258C23.6747 9.258 23.704 9.28 23.748 9.324C23.792 9.368 23.8287 9.38267 23.858 9.368C23.9167 9.33867 23.968 9.27267 24.012 9.17C24.0707 9.06733 24.1293 9.00133 24.188 8.972C24.3053 8.94267 24.5107 8.96467 24.804 9.038C25.0973 9.11133 25.2953 9.18467 25.398 9.258C25.5153 9.33133 25.6033 9.44867 25.662 9.61C25.7207 9.77133 25.7793 9.88133 25.838 9.94C25.9847 10.1893 26.0213 10.4167 25.948 10.622C25.6253 11.6193 25.3393 12.2867 25.09 12.624C25.0313 12.6973 24.9433 12.7047 24.826 12.646C24.7233 12.5873 24.672 12.5947 24.672 12.668C24.6573 12.7413 24.6867 12.8 24.76 12.844C24.8333 12.8733 24.8187 12.9173 24.716 12.976C24.6573 13.02 24.584 13.0787 24.496 13.152C24.4227 13.2253 24.3567 13.284 24.298 13.328C24.2833 13.3427 24.1953 13.46 24.034 13.68C23.8873 13.8853 23.792 14.01 23.748 14.054C23.6747 14.1127 23.5133 14.208 23.264 14.34C23.0293 14.472 22.8973 14.5673 22.868 14.626C22.7653 14.802 22.5087 14.9927 22.098 15.198C21.6873 15.4033 21.3793 15.528 21.174 15.572C20.426 15.6893 19.9347 15.7333 19.7 15.704C19.1133 15.66 18.7833 15.616 18.71 15.572ZM28.0055 10.798C27.9322 10.6807 27.8808 10.5267 27.8515 10.336C27.8368 10.1453 27.8588 10.0133 27.9175 9.94C27.9615 9.896 28.0715 9.786 28.2475 9.61C28.4235 9.434 28.5555 9.302 28.6435 9.214C28.7462 9.126 28.8782 9.02333 29.0395 8.906C29.2008 8.774 29.3622 8.67133 29.5235 8.598C29.6848 8.52467 29.8535 8.47333 30.0295 8.444L30.6455 8.4L31.0635 8.796C31.1368 8.86933 31.3495 8.906 31.7015 8.906C31.8775 8.906 31.9362 8.994 31.8775 9.17C31.8628 9.19933 31.8335 9.258 31.7895 9.346C31.7602 9.41933 31.7455 9.478 31.7455 9.522C31.7455 9.566 31.7748 9.61733 31.8335 9.676C31.8775 9.72 31.9362 9.77133 32.0095 9.83C32.1415 9.94733 32.2002 10.028 32.1855 10.072C32.1562 10.1453 32.1342 10.226 32.1195 10.314C32.1195 10.49 32.0975 10.578 32.0535 10.578C32.0388 10.578 32.0095 10.5633 31.9655 10.534C31.9215 10.49 31.8628 10.4387 31.7895 10.38C31.7162 10.3213 31.6355 10.2773 31.5475 10.248C31.4595 10.2187 31.2688 10.1307 30.9755 9.984C30.6968 9.83733 30.4255 9.70533 30.1615 9.588C29.9122 9.47067 29.7655 9.412 29.7215 9.412C29.5455 9.44133 29.4355 9.49267 29.3915 9.566C29.3622 9.62467 29.3548 9.764 29.3695 9.984C29.3988 10.2333 29.4355 10.424 29.4795 10.556C29.5382 10.6733 29.5968 10.7467 29.6555 10.776C29.7142 10.8053 29.8242 10.842 29.9855 10.886C30.1468 10.93 30.2935 10.9813 30.4255 11.04C30.8362 11.1867 31.1955 11.4507 31.5035 11.832C31.5328 11.8613 31.5988 11.9273 31.7015 12.03C31.9655 12.338 32.0975 12.3967 32.0975 12.206C32.0975 12.1913 32.0975 12.1767 32.0975 12.162C31.9362 12.0447 31.8628 11.9713 31.8775 11.942C31.9068 11.9127 31.9948 11.876 32.1415 11.832C32.1855 11.8173 32.2148 11.81 32.2295 11.81C32.4055 11.7953 32.9482 11.3333 33.8575 10.424C34.0628 10.204 34.6642 9.698 35.6615 8.906C36.6735 8.114 37.3922 7.46133 37.8175 6.948C37.8908 6.86 37.9348 6.816 37.9495 6.816C37.9788 6.816 38.0228 6.87467 38.0815 6.992C38.1548 7.09467 38.2282 7.146 38.3015 7.146C38.3895 7.146 38.4702 7.11667 38.5435 7.058C38.6168 6.97 38.6168 6.86733 38.5435 6.75C38.4702 6.63267 38.3895 6.552 38.3015 6.508C38.3162 6.508 38.3602 6.47133 38.4335 6.398C38.5068 6.32467 38.5802 6.244 38.6535 6.156C38.7415 6.05333 38.7928 5.99467 38.8075 5.98C39.9075 5.012 40.8168 4.022 41.5355 3.01C41.6088 2.922 41.8068 2.724 42.1295 2.416C42.4668 2.108 42.6942 1.822 42.8115 1.558C42.8848 1.39667 43.0022 1.25733 43.1635 1.14C43.3248 1.008 43.4935 0.941999 43.6695 0.941999C43.8162 0.941999 43.9482 1.00067 44.0655 1.118C44.2855 1.41133 44.3808 1.63867 44.3515 1.8C43.8529 2.68 43.5742 3.142 43.5155 3.186C43.3248 3.43533 42.9362 3.97067 42.3495 4.792C41.7775 5.61333 41.2788 6.27333 40.8535 6.772C40.7948 6.84533 40.6775 6.992 40.5015 7.212C40.3402 7.432 40.1788 7.64467 40.0175 7.85C39.8562 8.05533 39.7388 8.224 39.6655 8.356C39.5775 8.47333 39.4455 8.87667 39.2695 9.566C39.5628 9.58067 39.9588 9.52933 40.4575 9.412C40.9562 9.29467 41.3082 9.22867 41.5135 9.214C41.6895 9.18467 41.9169 9.126 42.1955 9.038C42.4888 8.95 42.7602 8.87667 43.0095 8.818C43.2735 8.75933 43.5302 8.73 43.7795 8.73C43.9702 8.71533 44.1168 8.73733 44.2195 8.796C44.3368 8.85467 44.3735 8.94267 44.3295 9.06C44.3149 9.104 44.2929 9.08933 44.2635 9.016C44.2342 8.94267 44.1975 8.92067 44.1535 8.95C44.0802 8.994 43.9848 9.02333 43.8675 9.038C43.7502 9.038 43.6548 9.04533 43.5815 9.06C43.5228 9.06 43.4862 9.08933 43.4715 9.148C43.4568 9.22133 43.4642 9.28 43.4935 9.324C43.5228 9.35333 43.5595 9.368 43.6035 9.368C43.6475 9.368 43.6842 9.37533 43.7135 9.39C43.7428 9.40467 43.7575 9.434 43.7575 9.478C43.7282 9.62467 43.6915 9.71267 43.6475 9.742C43.6035 9.75667 43.5008 9.74933 43.3395 9.72C43.1782 9.69067 43.0242 9.68333 42.8775 9.698C42.8335 9.698 42.8262 9.66133 42.8555 9.588C42.8848 9.5 42.8848 9.412 42.8555 9.324C42.8262 9.236 42.7528 9.192 42.6355 9.192C42.5182 9.192 42.3935 9.22133 42.2615 9.28C42.1295 9.35333 42.0855 9.41933 42.1295 9.478C42.1735 9.53667 42.2395 9.61 42.3275 9.698C42.4155 9.77133 42.4448 9.83 42.4155 9.874C42.2542 10.0207 41.8142 10.16 41.0955 10.292C40.3915 10.424 39.9882 10.5047 39.8855 10.534C39.6802 10.578 39.3502 10.754 38.8955 11.062C38.4555 11.3553 38.2208 11.612 38.1915 11.832C38.1768 12.2427 38.0448 12.9687 37.7955 14.01C37.7955 14.0833 37.7075 14.2007 37.5315 14.362C37.3702 14.5233 37.2968 14.6407 37.3115 14.714L37.3995 15.022C37.4728 15.2273 37.4875 15.374 37.4435 15.462C37.3995 15.5647 37.2748 15.5647 37.0695 15.462C37.0695 15.4473 37.0768 15.44 37.0915 15.44C37.1208 15.44 37.1502 15.4327 37.1795 15.418C37.2088 15.418 37.2382 15.4107 37.2675 15.396C37.3115 15.3227 37.2822 15.2787 37.1795 15.264C37.1208 15.2493 37.0768 15.2567 37.0475 15.286C36.9888 15.11 36.9595 14.6333 36.9595 13.856C36.9595 12.6093 37.0328 11.8173 37.1795 11.48C37.2528 11.3773 36.8715 11.2307 36.0355 11.04C35.2728 10.864 34.8842 10.8347 34.8695 10.952C34.7668 11.0987 34.5688 11.2673 34.2755 11.458C33.9968 11.6487 33.8135 11.7953 33.7255 11.898C33.6082 11.8247 33.4395 11.8907 33.2195 12.096C33.0142 12.3013 32.8528 12.404 32.7355 12.404C32.6475 12.404 32.5742 12.382 32.5155 12.338C32.4422 12.3087 32.3908 12.3013 32.3615 12.316C32.3322 12.316 32.2808 12.3453 32.2075 12.404C32.1488 12.448 32.1048 12.4773 32.0755 12.492C32.1635 12.624 32.2002 12.712 32.1855 12.756C32.1855 12.7853 32.1268 12.8513 32.0095 12.954C31.9068 13.042 31.8408 13.1153 31.8115 13.174C31.6648 13.5553 31.3202 13.8707 30.7775 14.12C30.2495 14.3693 29.6995 14.516 29.1275 14.56C29.1275 14.5307 29.0322 14.4207 28.8415 14.23C28.6655 14.0247 28.6068 13.856 28.6655 13.724C28.6802 13.68 28.9735 13.526 29.5455 13.262C30.1175 12.998 30.4548 12.8513 30.5575 12.822C30.6308 12.7633 30.6748 12.712 30.6895 12.668C30.7042 12.6093 30.6675 12.536 30.5795 12.448C30.4915 12.3453 30.4035 12.2647 30.3155 12.206C30.2422 12.1473 30.1468 12.0813 30.0295 12.008C29.9122 11.92 29.8388 11.8613 29.8095 11.832C29.6335 11.656 29.3328 11.4947 28.9075 11.348C28.4822 11.2013 28.1815 11.018 28.0055 10.798ZM36.5195 9.412C36.4902 9.42667 36.4462 9.44867 36.3875 9.478C36.3435 9.50733 36.2995 9.52933 36.2555 9.544C36.2262 9.55867 36.1968 9.588 36.1675 9.632C36.1528 9.676 36.1455 9.72733 36.1455 9.786C36.1602 9.99133 36.3582 10.094 36.7395 10.094C36.9302 10.094 37.1208 10.072 37.3115 10.028C37.5022 9.96933 37.6122 9.918 37.6415 9.874C37.7295 9.58067 38.0668 9.00133 38.6535 8.136C38.9762 7.57867 39.0349 7.278 38.8295 7.234C38.4775 7.234 38.0668 7.54933 37.5975 8.18C37.1428 8.796 36.7835 9.20667 36.5195 9.412ZM30.6455 9.192C30.5722 9.33867 30.5942 9.47067 30.7115 9.588C30.8435 9.70533 31.0048 9.764 31.1955 9.764C31.3862 9.764 31.5402 9.70533 31.6575 9.588C31.8188 9.47067 31.7162 9.346 31.3495 9.214C31.1588 9.15533 30.9902 9.126 30.8435 9.126C30.7262 9.126 30.6602 9.148 30.6455 9.192ZM48.0852 22.326C48.0265 22.0913 48.0045 21.842 48.0192 21.578C48.0338 21.3727 48.0485 21.0793 48.0632 20.698C48.0632 20.3313 48.0632 20.082 48.0632 19.95C48.0632 19.8767 48.1072 19.774 48.1952 19.642C48.2832 19.51 48.3345 19.4147 48.3492 19.356C48.3638 19.2827 48.3932 19.2387 48.4372 19.224C48.4812 19.224 48.5178 19.2167 48.5472 19.202C48.5618 19.202 48.5618 19.1727 48.5472 19.114C48.4738 18.85 48.4738 18.6667 48.5472 18.564C48.6938 18.4467 48.7525 18.344 48.7232 18.256C48.7085 18.168 48.7305 18.1093 48.7892 18.08C48.8478 18.0653 48.8772 18.0213 48.8772 17.948C48.8772 17.9187 48.8698 17.8747 48.8552 17.816C48.8405 17.7573 48.8405 17.706 48.8552 17.662C48.8552 17.618 48.8772 17.5813 48.9212 17.552C48.9798 17.5227 49.0238 17.464 49.0532 17.376C49.0678 17.288 49.0825 17.2293 49.0972 17.2C49.1265 17.1267 49.1632 17.0827 49.2072 17.068C49.2512 17.0533 49.2878 17.0387 49.3172 17.024C49.4638 16.9507 49.5372 16.8627 49.5372 16.76C49.5372 16.6133 49.6765 16.3127 49.9552 15.858C50.2338 15.4033 50.3878 15.1393 50.4172 15.066C50.4905 14.8313 50.5858 14.604 50.7032 14.384C50.8352 14.164 50.9452 13.9953 51.0332 13.878C51.1212 13.746 51.2605 13.5553 51.4512 13.306C51.6418 13.0567 51.7812 12.8733 51.8692 12.756C52.1332 12.3893 52.2505 12.0667 52.2212 11.788C52.1772 11.3333 52.2358 11.0693 52.3972 10.996C52.4998 10.952 52.5438 10.864 52.5292 10.732C52.5145 10.6733 52.5145 10.6293 52.5292 10.6C52.5438 10.5707 52.5585 10.5633 52.5732 10.578C52.6025 10.578 52.6245 10.578 52.6392 10.578C52.6538 10.5633 52.6538 10.534 52.6392 10.49C52.6098 10.4167 52.5365 10.358 52.4192 10.314C52.3018 10.2553 52.1992 10.204 52.1112 10.16C52.0378 10.116 52.0232 10.05 52.0672 9.962C52.0965 9.88867 52.2798 9.852 52.6172 9.852C52.7052 9.852 52.7638 9.84467 52.7932 9.83C52.8372 9.80067 52.8445 9.75667 52.8152 9.698C52.8005 9.66867 52.7565 9.64667 52.6832 9.632C52.6245 9.61733 52.5732 9.61 52.5292 9.61C52.4998 9.59533 52.4925 9.566 52.5072 9.522C52.5218 9.478 52.5732 9.42667 52.6612 9.368C52.7492 9.29467 52.8152 9.28 52.8592 9.324L53.1232 9.566C53.1525 9.61 53.1452 9.654 53.1012 9.698C53.0718 9.72733 53.0352 9.75667 52.9912 9.786C52.9472 9.80067 52.9325 9.81533 52.9472 9.83C52.9765 9.85933 53.0278 9.88867 53.1012 9.918C53.1745 9.94733 53.2185 9.97667 53.2332 10.006C53.2478 10.0207 53.2332 10.0867 53.1892 10.204C53.0865 10.4387 53.0352 10.5633 53.0352 10.578C53.0352 10.7393 53.0498 10.8347 53.0792 10.864C53.1378 10.908 53.1378 10.952 53.0792 10.996C53.0205 11.04 53.0058 11.0767 53.0352 11.106C53.0792 11.1647 53.1452 11.194 53.2332 11.194C53.6585 11.194 54.4358 10.6293 55.5652 9.5C55.9612 9.07467 56.4598 8.91333 57.0612 9.016C57.4425 9.07467 57.8312 9.302 58.2272 9.698C58.6232 10.0793 58.8212 10.446 58.8212 10.798C58.8212 10.8713 58.8285 11.0033 58.8432 11.194C58.8725 11.3847 58.8798 11.5533 58.8652 11.7C58.8652 11.832 58.8432 11.942 58.7992 12.03C58.7552 12.118 58.6745 12.206 58.5572 12.294C58.4545 12.3673 58.3812 12.426 58.3372 12.47C58.2932 12.514 58.2638 12.5727 58.2492 12.646C58.2345 12.7193 58.2198 12.778 58.2052 12.822C58.2052 12.866 58.1978 12.888 58.1832 12.888C58.1685 12.888 58.1392 12.8587 58.0952 12.8C58.0805 12.7707 58.0878 12.7047 58.1172 12.602C58.1465 12.4993 58.1392 12.448 58.0952 12.448C58.0512 12.4333 57.9778 12.47 57.8752 12.558C57.7725 12.646 57.6992 12.69 57.6552 12.69C57.5965 12.69 57.5598 12.668 57.5452 12.624C57.4865 12.536 57.4352 12.492 57.3912 12.492C57.3472 12.492 57.2958 12.5067 57.2372 12.536C57.1785 12.5653 57.1272 12.58 57.0832 12.58C57.0245 12.5653 56.9732 12.514 56.9292 12.426C56.8852 12.338 56.8778 12.272 56.9072 12.228C56.9365 12.1547 57.1198 12.0447 57.4572 11.898C57.7945 11.7367 57.9778 11.5607 58.0072 11.37C57.9778 11.0327 57.9192 10.754 57.8312 10.534L57.6332 10.138L57.5232 9.94L57.3252 9.962C57.2665 9.97667 57.0025 10.006 56.5332 10.05C55.9025 10.138 55.4625 10.3287 55.2132 10.622C55.2278 10.6367 55.1692 10.7027 55.0372 10.82C54.9198 10.9373 54.7658 11.084 54.5752 11.26C54.3992 11.4213 54.2378 11.5533 54.0912 11.656C54.0618 11.6853 53.9592 11.7733 53.7832 11.92C53.6072 12.052 53.4752 12.1547 53.3872 12.228C53.4165 12.2573 53.4018 12.338 53.3432 12.47C53.2992 12.5873 53.2478 12.734 53.1892 12.91C53.1305 13.0713 53.1085 13.196 53.1232 13.284C52.7272 15.2347 52.3092 16.7233 51.8692 17.75C51.7958 17.926 51.6492 18.2707 51.4292 18.784C51.2238 19.2973 51.0332 19.73 50.8572 20.082C50.6812 20.4487 50.5052 20.7273 50.3292 20.918C50.2265 21.0353 50.1312 21.16 50.0432 21.292C49.9552 21.424 49.8672 21.5707 49.7792 21.732C49.6912 21.908 49.6105 22.0473 49.5372 22.15C49.3172 22.4727 49.1118 22.6267 48.9212 22.612C48.9358 22.656 48.9285 22.6853 48.8992 22.7C48.8552 22.7293 48.8038 22.744 48.7452 22.744C48.5545 22.744 48.4298 22.7 48.3712 22.612C48.3418 22.5827 48.2978 22.5533 48.2392 22.524C48.1658 22.5093 48.1145 22.4433 48.0852 22.326ZM49.2732 19.18C49.0532 19.0333 48.8772 19.0113 48.7452 19.114C48.5985 19.2167 48.6718 19.378 48.9652 19.598C48.9798 19.6127 49.0092 19.6347 49.0532 19.664C49.1118 19.6787 49.1045 19.7153 49.0312 19.774C48.9725 19.818 48.8918 19.8913 48.7892 19.994C48.7452 20.038 48.7745 20.0967 48.8772 20.17C48.9652 20.258 48.9872 20.3607 48.9432 20.478C48.8698 20.6687 48.8772 20.7787 48.9652 20.808C49.0092 20.8227 49.0458 20.8153 49.0752 20.786C49.0898 20.7713 49.1045 20.7347 49.1192 20.676C49.1338 20.6173 49.1485 20.5733 49.1632 20.544C49.1925 20.5 49.3172 20.2727 49.5372 19.862C49.7572 19.466 49.9112 19.1433 49.9992 18.894C50.0285 18.7913 50.0725 18.7033 50.1312 18.63C50.1752 18.5567 50.2338 18.476 50.3072 18.388C50.3805 18.3147 50.4392 18.2487 50.4832 18.19C50.5565 18.102 50.6005 17.948 50.6152 17.728C50.6445 17.5227 50.6592 17.4053 50.6592 17.376C50.7325 17.1267 50.8792 16.7747 51.0992 16.32C51.3192 15.88 51.4658 15.55 51.5392 15.33C51.6418 14.9927 51.7298 14.626 51.8032 14.23C51.8472 13.966 51.8325 13.8413 51.7592 13.856C51.7445 13.8707 51.7298 13.8853 51.7152 13.9C51.6418 14.076 51.5245 14.274 51.3632 14.494C51.3338 14.538 51.2898 14.56 51.2312 14.56C51.1872 14.5453 51.1358 14.5527 51.0772 14.582C51.0038 14.626 51.0698 14.6993 51.2752 14.802C51.4365 14.89 51.4658 14.956 51.3632 15C51.1725 15.1173 51.0478 15.154 50.9892 15.11C50.7838 14.9487 50.6665 14.868 50.6372 14.868C50.6225 14.868 50.6078 14.8973 50.5932 14.956C50.5932 15 50.5785 15.0953 50.5492 15.242C50.5345 15.4033 50.5052 15.5647 50.4612 15.726C50.4612 15.7407 50.4758 15.7627 50.5052 15.792C50.5345 15.8213 50.5565 15.8433 50.5712 15.858C50.5858 15.8873 50.5785 15.9167 50.5492 15.946C50.5198 15.9607 50.4318 15.9533 50.2852 15.924C50.1532 15.9093 50.0798 15.924 50.0652 15.968C49.9918 16.0853 50.0285 16.1807 50.1752 16.254C50.3072 16.342 50.3585 16.408 50.3292 16.452C50.3145 16.4813 50.3072 16.54 50.3072 16.628C50.2925 16.716 50.2705 16.76 50.2412 16.76C50.1385 16.7013 50.0432 16.672 49.9552 16.672C49.8232 16.672 49.7278 16.7307 49.6692 16.848C49.5958 16.98 49.5812 17.1487 49.6252 17.354C49.6398 17.4127 49.6398 17.486 49.6252 17.574C49.6105 17.662 49.5885 17.7427 49.5592 17.816C49.5152 17.8893 49.4638 17.9187 49.4052 17.904C49.3758 17.904 49.3538 17.8893 49.3392 17.86C49.3245 17.8307 49.3025 17.816 49.2732 17.816C49.0825 17.816 48.9798 17.8967 48.9652 18.058C48.9358 18.2193 49.0092 18.344 49.1852 18.432C49.3612 18.52 49.3465 18.5787 49.1412 18.608C49.0825 18.6227 49.1338 18.6813 49.2952 18.784C49.3538 18.8133 49.3905 18.8353 49.4052 18.85C49.4638 18.894 49.4858 18.9453 49.4712 19.004C49.4565 19.0627 49.4272 19.1067 49.3832 19.136C49.3392 19.18 49.3025 19.1947 49.2732 19.18ZM54.4872 13.702C54.1645 13.6873 53.8712 13.57 53.6072 13.35C53.4898 13.262 53.4605 13.1887 53.5192 13.13C53.7832 12.822 53.9518 12.58 54.0252 12.404C54.1132 12.404 54.1718 12.4113 54.2012 12.426C54.2305 12.426 54.2672 12.448 54.3112 12.492C54.3552 12.5213 54.3918 12.5507 54.4212 12.58C54.5385 12.6533 54.8025 12.6533 55.2132 12.58C55.6238 12.492 55.8952 12.4553 56.0272 12.47C56.4085 12.5433 56.7458 12.6533 57.0392 12.8C57.1272 12.844 57.1638 12.9027 57.1492 12.976C57.1345 13.0347 57.1272 13.0787 57.1272 13.108C57.0098 13.0787 56.8925 13.0787 56.7752 13.108C56.8925 13.3133 56.8412 13.4233 56.6212 13.438C56.5772 13.438 56.4818 13.482 56.3352 13.57C56.2032 13.658 56.0932 13.6947 56.0052 13.68C55.8585 13.6507 55.5945 13.6507 55.2132 13.68C54.8465 13.6947 54.6045 13.702 54.4872 13.702ZM61.5335 14.23C61.4455 14.23 61.3648 14.2153 61.2915 14.186C61.2328 14.1567 61.1815 14.1127 61.1375 14.054C61.0935 13.9953 61.0495 13.9367 61.0055 13.878C60.9762 13.8193 60.9468 13.7387 60.9175 13.636C60.9028 13.5333 60.8882 13.4527 60.8735 13.394C60.8735 13.3207 60.8662 13.2253 60.8515 13.108C60.8515 12.976 60.8515 12.8807 60.8515 12.822C60.8515 12.7633 60.8515 12.6753 60.8515 12.558C60.8515 12.426 60.8515 12.3453 60.8515 12.316C60.8515 12.1693 60.9028 11.964 61.0055 11.7C61.1228 11.436 61.2402 11.2453 61.3575 11.128C61.3868 11.0987 61.4162 11.0767 61.4455 11.062C61.4895 11.0473 61.5115 11.0253 61.5115 10.996C61.5262 10.952 61.5335 10.8787 61.5335 10.776C61.5335 10.5853 61.5995 10.4827 61.7315 10.468C61.8342 10.468 61.8855 10.512 61.8855 10.6V11.128C61.8855 11.26 61.9148 11.326 61.9735 11.326C62.0468 11.326 62.1348 11.2307 62.2375 11.04C62.3402 10.8347 62.3915 10.6367 62.3915 10.446C62.3915 10.094 62.4502 9.918 62.5675 9.918C62.6262 9.85933 62.6628 9.80067 62.6775 9.742C62.6922 9.66867 62.7142 9.61733 62.7435 9.588C62.8168 9.51467 62.8975 9.478 62.9855 9.478C63.0442 9.478 63.1248 9.5 63.2275 9.544C63.3302 9.57333 63.4035 9.588 63.4475 9.588C64.2248 9.38267 64.7968 9.61 65.1635 10.27C65.3835 10.5193 65.4935 10.688 65.4935 10.776C65.4935 10.8933 65.4495 11.1133 65.3615 11.436C65.2882 11.744 65.2222 11.9273 65.1635 11.986C65.1195 12.0153 65.0608 12.0667 64.9875 12.14C64.9142 12.2133 64.8482 12.272 64.7895 12.316C64.7455 12.36 64.6868 12.4187 64.6135 12.492C64.5402 12.5507 64.4742 12.602 64.4155 12.646C64.3568 12.6753 64.2908 12.7047 64.2175 12.734C64.1588 12.7487 64.1002 12.756 64.0415 12.756C63.9975 12.7413 63.9608 12.7193 63.9315 12.69C63.9168 12.646 63.9095 12.6167 63.9095 12.602C63.9095 12.5727 63.9388 12.5287 63.9975 12.47C64.0562 12.3967 64.1002 12.3453 64.1295 12.316C64.1735 12.272 64.2322 12.2133 64.3055 12.14C64.3788 12.0667 64.4302 12.0153 64.4595 11.986C64.5475 11.9127 64.5768 11.7733 64.5475 11.568C64.5182 11.3627 64.5475 11.216 64.6355 11.128C64.6942 11.04 64.7088 10.9887 64.6795 10.974C64.6648 10.9593 64.6062 10.9373 64.5035 10.908C64.4155 10.864 64.3495 10.82 64.3055 10.776C64.2468 10.6733 64.1735 10.6073 64.0855 10.578C64.0122 10.5487 63.9168 10.5413 63.7995 10.556L63.6015 10.6C63.4402 10.6 63.3302 10.6147 63.2715 10.644C63.2128 10.6733 63.1542 10.7467 63.0955 10.864C63.0515 10.9667 62.9928 11.0547 62.9195 11.128C62.8755 11.172 62.7728 11.2233 62.6115 11.282C62.4648 11.326 62.3328 11.392 62.2155 11.48C62.1128 11.568 62.0615 11.6853 62.0615 11.832C62.0615 12.0373 62.0028 12.1987 61.8855 12.316C61.7095 12.5067 61.6802 12.7413 61.7975 13.02C61.9295 13.284 62.1275 13.46 62.3915 13.548C62.4795 13.548 62.5968 13.5627 62.7435 13.592C62.8902 13.6067 63.0075 13.614 63.0955 13.614C63.1982 13.614 63.3155 13.592 63.4475 13.548C63.5502 13.4893 63.7262 13.4673 63.9755 13.482C64.2395 13.4967 64.4008 13.46 64.4595 13.372C64.5182 13.3133 64.5768 13.24 64.6355 13.152C64.7088 13.064 64.7822 12.9833 64.8555 12.91C64.9435 12.8367 65.0462 12.7633 65.1635 12.69L65.4715 12.536C65.6915 12.4333 65.8748 12.3087 66.0215 12.162C66.1095 12.074 66.2635 11.8833 66.4835 11.59C66.7035 11.282 66.8868 11.0767 67.0335 10.974C67.0628 10.9447 67.1288 10.9007 67.2315 10.842C67.3342 10.7687 67.4002 10.7247 67.4295 10.71C67.4588 10.6807 67.5028 10.6367 67.5615 10.578C67.6348 10.5047 67.6568 10.4533 67.6275 10.424C67.5982 10.3947 67.5762 10.3433 67.5615 10.27C67.5028 10.2113 67.4075 10.182 67.2755 10.182C67.1582 10.182 66.9675 10.2187 66.7035 10.292C66.4395 10.3507 66.2635 10.38 66.1755 10.38C66.0728 10.38 66.0215 10.3433 66.0215 10.27C66.0215 10.1527 66.0288 10.0427 66.0435 9.94C66.0582 9.83733 66.0875 9.73467 66.1315 9.632C66.1755 9.52933 66.2122 9.456 66.2415 9.412C66.2708 9.35333 66.3295 9.27267 66.4175 9.17C66.5055 9.06733 66.5642 9.00133 66.5935 8.972C66.6228 8.94267 66.6962 8.86933 66.8135 8.752C66.9455 8.63467 67.0188 8.56867 67.0335 8.554C67.1362 8.45133 67.2168 8.38533 67.2755 8.356C67.3342 8.32667 67.4075 8.32667 67.4955 8.356C67.5835 8.37067 67.6568 8.378 67.7155 8.378C67.8182 8.378 67.9135 8.39267 68.0015 8.422C68.0895 8.45133 68.1775 8.50267 68.2655 8.576C68.3682 8.64933 68.4488 8.71533 68.5075 8.774C68.5662 8.83267 68.6468 8.92067 68.7495 9.038C68.8522 9.14067 68.9182 9.20667 68.9475 9.236C69.0208 9.30933 69.1382 9.346 69.2995 9.346C69.3875 9.346 69.5415 9.33133 69.7615 9.302C69.9962 9.258 70.1722 9.236 70.2895 9.236C70.3922 9.236 70.7515 9.126 71.3675 8.906C71.9982 8.67133 72.4455 8.554 72.7095 8.554C72.8708 8.554 73.1348 8.52467 73.5015 8.466C73.8828 8.40733 74.1982 8.378 74.4475 8.378C74.6968 8.378 74.8582 8.43667 74.9315 8.554C75.0048 8.686 75.1588 8.74467 75.3935 8.73C75.6428 8.71533 75.7748 8.71533 75.7895 8.73C75.9215 8.84733 75.9729 9.05267 75.9435 9.346C75.9142 9.63933 75.8115 9.83 75.6355 9.918C75.5035 9.918 75.3642 10.0353 75.2175 10.27C75.0855 10.49 74.9462 10.754 74.7995 11.062C74.6529 11.3553 74.5355 11.546 74.4475 11.634L74.3375 11.744C74.2642 11.8027 74.1835 11.8687 74.0955 11.942C74.0075 12.0153 73.9195 12.096 73.8315 12.184C73.7582 12.2573 73.6922 12.3307 73.6335 12.404C73.5895 12.4627 73.5748 12.4993 73.5895 12.514C73.7215 12.646 73.8388 12.712 73.9415 12.712C74.0148 12.712 74.1175 12.646 74.2495 12.514C74.2935 12.47 74.3522 12.3967 74.4255 12.294C74.4988 12.1913 74.5722 12.1033 74.6455 12.03C74.7335 11.942 74.8288 11.876 74.9315 11.832C75.0635 11.7 75.2102 11.5167 75.3715 11.282C75.5475 11.0473 75.6868 10.8787 75.7895 10.776C75.8629 10.6587 75.9802 10.6 76.1415 10.6C76.3175 10.6 76.4349 10.5487 76.4935 10.446C76.5815 10.226 76.8308 9.97667 77.2415 9.698C77.6522 9.40467 78.0115 9.258 78.3195 9.258C78.4955 9.258 78.6348 9.30933 78.7375 9.412C78.7962 9.47067 78.8622 9.60267 78.9355 9.808C79.0235 9.99867 79.0969 10.1747 79.1555 10.336L79.2435 10.6C79.3608 10.644 79.4195 10.82 79.4195 11.128C79.4195 12.096 79.2435 13.0127 78.8915 13.878L78.3855 14.384C78.2682 14.4867 78.1435 14.5527 78.0115 14.582C77.8942 14.6113 77.7329 14.6187 77.5275 14.604C77.3222 14.5747 77.2048 14.56 77.1755 14.56C76.2662 14.7947 75.5768 14.912 75.1075 14.912C75.0048 14.912 74.8362 14.736 74.6015 14.384C74.4402 14.1347 74.2788 14.01 74.1175 14.01C74.0588 14.01 73.9928 14.032 73.9195 14.076C73.8608 14.1053 73.7948 14.164 73.7215 14.252C73.6482 14.3253 73.5822 14.3987 73.5235 14.472C73.4648 14.5453 73.3842 14.648 73.2815 14.78C73.1935 14.912 73.1202 15.0147 73.0615 15.088C73.0028 15.1613 72.8708 15.2567 72.6655 15.374C72.4748 15.506 72.3795 15.638 72.3795 15.77C72.3795 16.0193 72.2035 16.254 71.8515 16.474C71.6168 16.6207 71.3822 16.8847 71.1475 17.266C70.9275 17.662 70.7662 17.9113 70.6635 18.014C70.5315 18.1607 70.3482 18.52 70.1135 19.092C69.8935 19.664 69.6148 20.0453 69.2775 20.236C69.1895 20.28 69.1455 20.3973 69.1455 20.588C69.1455 20.7787 69.1308 20.8887 69.1015 20.918C68.9255 21.094 68.8082 21.2187 68.7495 21.292C68.6908 21.38 68.6322 21.5047 68.5735 21.666C68.5295 21.842 68.4782 21.996 68.4195 22.128L67.8915 22.656C67.8035 22.744 67.6495 22.788 67.4295 22.788C67.1655 22.788 67.0335 22.678 67.0335 22.458C67.0335 22.282 67.0628 22.062 67.1215 21.798C67.1802 21.5487 67.2095 21.3727 67.2095 21.27C67.2535 21.1673 67.3342 20.9913 67.4515 20.742C67.5835 20.4927 67.6862 20.2507 67.7595 20.016C67.8475 19.796 67.8915 19.5833 67.8915 19.378C67.8915 19.2753 67.8988 19.2167 67.9135 19.202C67.9282 19.1873 67.9648 19.1727 68.0235 19.158C68.0968 19.158 68.1702 19.1213 68.2435 19.048C68.3315 18.96 68.4928 18.5787 68.7275 17.904C68.9768 17.2293 69.1602 16.8627 69.2775 16.804C69.4095 16.7307 69.5195 16.5547 69.6075 16.276C69.7102 15.9973 69.7762 15.8287 69.8055 15.77C69.8202 15.7553 69.8642 15.7113 69.9375 15.638C70.0108 15.5793 70.0695 15.528 70.1135 15.484C70.1575 15.44 70.1942 15.3813 70.2235 15.308C70.2675 15.2347 70.2895 15.1613 70.2895 15.088C70.2895 14.8973 70.4435 14.626 70.7515 14.274C71.0742 13.9073 71.3968 13.5187 71.7195 13.108C72.0422 12.6827 72.2035 12.3087 72.2035 11.986C72.2035 11.7953 72.2548 11.5607 72.3575 11.282C72.4748 11.0033 72.5335 10.776 72.5335 10.6C72.5335 10.072 72.6728 9.808 72.9515 9.808C73.0249 9.808 73.1202 9.84467 73.2375 9.918C73.4428 10.138 73.4575 10.3727 73.2815 10.622C73.1202 10.8567 72.9442 11.15 72.7535 11.502C72.5775 11.854 72.5628 12.1253 72.7095 12.316C72.7828 12.404 72.8488 12.448 72.9075 12.448C72.9955 12.448 73.0688 12.36 73.1275 12.184C73.2008 11.9933 73.2375 11.81 73.2375 11.634C73.2375 11.062 73.4648 10.5487 73.9195 10.094C73.9488 10.0647 74.0002 10.028 74.0735 9.984C74.1468 9.92533 74.1982 9.88867 74.2275 9.874C74.2715 9.84467 74.3008 9.80067 74.3155 9.742C74.3448 9.68333 74.3228 9.632 74.2495 9.588C74.1175 9.456 73.9488 9.39 73.7435 9.39C73.4942 9.39 73.1055 9.50733 72.5775 9.742C72.0495 9.97667 71.6975 10.094 71.5215 10.094C71.5068 10.094 71.4555 10.094 71.3675 10.094C71.2795 10.0793 71.2062 10.072 71.1475 10.072C71.1035 10.072 71.0448 10.0867 70.9715 10.116C70.9128 10.1453 70.8615 10.1967 70.8175 10.27C70.7735 10.3433 70.7148 10.402 70.6415 10.446C70.5682 10.4753 70.5022 10.49 70.4435 10.49C70.3995 10.49 70.3408 10.4827 70.2675 10.468C70.1942 10.4533 70.1502 10.446 70.1355 10.446C69.3728 10.446 68.6248 10.842 67.8915 11.634C67.6862 11.8393 67.3782 12.1253 66.9675 12.492C66.5568 12.844 66.2928 13.0713 66.1755 13.174C66.1315 13.2913 66.0508 13.35 65.9335 13.35C65.8162 13.35 65.7208 13.416 65.6475 13.548C65.5742 13.68 65.3468 13.856 64.9655 14.076C64.5842 14.2813 64.2982 14.384 64.1075 14.384C63.9022 14.384 63.6822 14.5013 63.4475 14.736C63.3888 14.7947 63.3082 14.824 63.2055 14.824C63.0588 14.824 62.7875 14.7287 62.3915 14.538C61.9955 14.3327 61.7095 14.23 61.5335 14.23ZM76.1635 11.986C75.6648 11.986 75.1442 12.1913 74.6015 12.602C74.0735 13.0127 73.9562 13.3793 74.2495 13.702C74.4255 13.878 74.8215 13.966 75.4375 13.966C76.0682 13.966 76.6548 13.8707 77.1975 13.68C77.7548 13.4747 78.0335 13.196 78.0335 12.844C78.0335 12.6827 78.0922 12.5067 78.2095 12.316C78.2829 12.1987 78.2535 12.0227 78.1215 11.788C77.9895 11.5387 77.9602 11.3773 78.0335 11.304C78.3562 10.9813 78.4295 10.7613 78.2535 10.644C78.2095 10.6147 78.1362 10.6 78.0335 10.6C77.8575 10.6147 77.6962 10.7393 77.5495 10.974C77.4029 11.194 77.2782 11.304 77.1755 11.304C77.0728 11.304 76.9922 11.3187 76.9335 11.348C76.8895 11.3627 76.8382 11.4067 76.7795 11.48C76.7208 11.5533 76.6768 11.6047 76.6475 11.634C76.4715 11.8687 76.3102 11.986 76.1635 11.986ZM67.3855 9.236C67.0922 9.38267 66.9455 9.49267 66.9455 9.566C66.9308 9.61 66.9602 9.66867 67.0335 9.742C67.0922 9.80067 67.1508 9.83 67.2095 9.83C67.2828 9.83 67.3415 9.82267 67.3855 9.808C67.4295 9.77867 67.4662 9.77133 67.4955 9.786C67.5395 9.80067 67.5615 9.84467 67.5615 9.918C67.5615 10.0207 67.5835 10.072 67.6275 10.072C67.7595 10.072 67.8842 9.90333 68.0015 9.566C68.1335 9.214 68.0968 8.98667 67.8915 8.884C67.8182 8.85467 67.7595 8.85467 67.7155 8.884C67.6715 8.91333 67.6128 8.972 67.5395 9.06C67.4662 9.148 67.4148 9.20667 67.3855 9.236ZM72.2035 14.054C71.9982 13.966 71.8222 14.054 71.6755 14.318C71.5435 14.582 71.5435 14.78 71.6755 14.912C71.7488 14.9853 71.8515 14.956 71.9835 14.824C72.1155 14.692 72.2035 14.5453 72.2475 14.384C72.3062 14.2227 72.2915 14.1127 72.2035 14.054ZM72.5555 12.69C72.3502 12.778 72.2402 12.8367 72.2255 12.866C72.2255 12.8953 72.2768 12.9467 72.3795 13.02C72.5408 13.1227 72.6362 13.0713 72.6655 12.866C72.6655 12.7487 72.6288 12.69 72.5555 12.69ZM81.5998 13.306C81.5851 13.2473 81.5851 13.1813 81.5998 13.108C81.6144 13.0347 81.6364 12.954 81.6658 12.866C81.7098 12.7633 81.7391 12.69 81.7538 12.646C81.7831 12.5433 81.8418 12.3967 81.9298 12.206C82.0178 12.0007 82.1204 11.7733 82.2378 11.524C82.3551 11.2747 82.4358 11.0987 82.4798 10.996C82.6264 10.6293 82.7218 10.4093 82.7658 10.336C82.7804 10.3067 82.8171 10.2553 82.8758 10.182C82.9491 10.1087 82.9931 10.0427 83.0078 9.984C83.0371 9.92533 83.0444 9.85933 83.0298 9.786C83.0004 9.59533 83.0591 9.42667 83.2058 9.28C83.2791 9.192 83.4331 9.14067 83.6678 9.126C83.9024 9.09667 84.0418 9.016 84.0858 8.884C84.1738 9.00133 84.2031 9.236 84.1738 9.588C84.1444 9.92533 84.0784 10.16 83.9758 10.292C83.8291 10.4827 83.6824 10.798 83.5358 11.238C83.3891 11.6633 83.2498 11.9493 83.1178 12.096C83.0444 12.1693 82.9931 12.3013 82.9638 12.492C82.9491 12.668 82.8978 12.778 82.8098 12.822C82.7658 12.8367 82.7291 12.8587 82.6998 12.888C82.6851 12.9173 82.6778 12.954 82.6778 12.998C82.6778 13.0273 82.6778 13.0567 82.6778 13.086C82.6778 13.1153 82.6851 13.1593 82.6998 13.218C82.7291 13.262 82.7438 13.2913 82.7438 13.306C82.7584 13.394 82.8244 13.438 82.9418 13.438C83.0738 13.438 83.2938 13.35 83.6018 13.174C83.9244 12.998 84.0931 12.91 84.1078 12.91C84.3424 12.822 84.5111 12.7413 84.6138 12.668C84.7604 12.5653 85.0024 12.404 85.3398 12.184C85.6771 11.964 85.9851 11.7513 86.2638 11.546C86.5571 11.326 86.8064 11.106 87.0118 10.886C87.2611 10.622 87.6204 10.3433 88.0898 10.05C88.5738 9.742 88.9478 9.588 89.2118 9.588C89.5051 9.588 89.6591 9.74933 89.6738 10.072C89.8791 10.4093 89.7104 11.0767 89.1678 12.074C89.1238 12.1767 89.0578 12.3453 88.9698 12.58C88.8964 12.8 88.8231 12.998 88.7498 13.174C88.6618 13.4087 88.5444 13.614 88.3978 13.79C88.2511 13.9513 88.1484 14.076 88.0898 14.164C88.0458 14.252 88.0458 14.3693 88.0898 14.516C88.1191 14.5747 88.1411 14.5747 88.1558 14.516C88.1704 14.4867 88.1924 14.472 88.2218 14.472C88.3391 14.472 88.3538 14.5747 88.2658 14.78C88.1778 14.9707 88.1778 15.066 88.2658 15.066C88.5004 15.066 88.6178 15.132 88.6178 15.264L88.6618 15.242L88.7278 15.132C88.7718 15.2053 88.7938 15.2493 88.7938 15.264C88.7938 15.2787 88.7644 15.3227 88.7058 15.396C88.6471 15.484 88.6031 15.55 88.5738 15.594C88.5444 15.6527 88.5151 15.6893 88.4858 15.704C88.4711 15.7187 88.4418 15.7187 88.3978 15.704C88.3538 15.704 88.3171 15.7113 88.2878 15.726C88.0091 15.7993 87.7818 15.7847 87.6058 15.682C87.5178 15.6233 87.4444 15.5207 87.3858 15.374C87.3271 15.242 87.3638 15.1393 87.4958 15.066C87.5691 15.0513 87.6278 14.956 87.6718 14.78C87.7158 14.5893 87.7158 14.472 87.6718 14.428C87.6424 14.3987 87.5984 14.3987 87.5398 14.428C87.4811 14.4573 87.4444 14.472 87.4298 14.472C87.3564 14.428 87.3271 14.3987 87.3418 14.384C87.3564 14.3547 87.3931 14.3253 87.4518 14.296C87.5104 14.2667 87.5398 14.2447 87.5398 14.23C87.5398 14.1127 87.4811 14.0393 87.3638 14.01C87.2611 13.966 87.2318 13.878 87.2758 13.746C87.2904 13.6727 87.3491 13.592 87.4518 13.504C87.5544 13.4013 87.6131 13.3207 87.6278 13.262C87.6718 13.1593 87.7451 13.02 87.8478 12.844C87.9504 12.668 88.0238 12.4993 88.0678 12.338C88.1118 12.3233 88.1484 12.3527 88.1778 12.426C88.2071 12.4847 88.2364 12.5507 88.2658 12.624C88.2951 12.6827 88.3244 12.712 88.3538 12.712C88.3831 12.712 88.4344 12.668 88.5078 12.58C88.5518 12.4627 88.5591 12.3893 88.5298 12.36C88.5151 12.316 88.4564 12.2573 88.3538 12.184C88.2658 12.1107 88.2071 12.052 88.1778 12.008C88.2511 11.9493 88.3171 11.8173 88.3758 11.612C88.3904 11.5827 88.4271 11.502 88.4858 11.37C88.5591 11.238 88.6031 11.1427 88.6178 11.084C88.6324 11.0253 88.6251 10.952 88.5958 10.864C88.5371 10.9227 88.4711 10.974 88.3978 11.018C88.3244 11.062 88.2364 11.106 88.1338 11.15C88.0311 11.1793 87.9504 11.2087 87.8918 11.238C87.8184 11.2527 87.7598 11.282 87.7158 11.326C87.6718 11.37 87.6204 11.4287 87.5617 11.502C87.5178 11.5753 87.4811 11.6267 87.4518 11.656C87.1878 11.9053 86.8064 12.1693 86.3078 12.448C86.2198 12.492 86.0364 12.6167 85.7578 12.822C85.4938 13.0273 85.3398 13.152 85.2958 13.196C85.2078 13.3133 84.9218 13.526 84.4378 13.834C83.9684 14.142 83.6018 14.362 83.3378 14.494C83.1911 14.582 82.9344 14.626 82.5678 14.626C82.3331 14.6113 82.1278 14.5453 81.9518 14.428C81.7904 14.296 81.7098 14.1053 81.7098 13.856C81.6951 13.768 81.6731 13.6727 81.6438 13.57C81.6144 13.4527 81.5998 13.3647 81.5998 13.306ZM83.6018 8.466C83.5871 8.45133 83.5798 8.42933 83.5798 8.4C83.5944 8.37067 83.6018 8.34867 83.6018 8.334C83.6164 8.31933 83.6311 8.30467 83.6458 8.29C83.6751 8.26067 83.6971 8.23867 83.7118 8.224C83.7851 8.136 83.8511 8.092 83.9098 8.092C84.0271 8.092 84.1224 8.21667 84.1958 8.466C84.2544 8.598 84.2324 8.70067 84.1298 8.774C84.1298 8.71533 84.0491 8.65667 83.8878 8.598C83.7264 8.53933 83.6311 8.49533 83.6018 8.466ZM93.8596 14.56C93.2143 14.56 92.6423 14.3547 92.1436 13.944C91.6596 13.5187 91.4176 12.9907 91.4176 12.36C91.4176 11.9933 91.5056 11.59 91.6816 11.15C91.8869 10.6513 92.0996 10.1893 92.3196 9.764C92.5543 9.33867 92.8329 8.89133 93.1556 8.422C93.4929 7.95267 93.7569 7.59333 93.9476 7.344C94.1383 7.09467 94.4756 6.684 94.9596 6.112C95.4436 5.52533 95.7736 5.122 95.9496 4.902C96.6536 4.05133 97.3503 3.33267 98.0396 2.746C98.7436 2.15933 99.5503 1.65333 100.46 1.228C100.504 1.19867 100.716 1.05933 101.098 0.809999C101.494 0.560665 101.794 0.435999 102 0.435999C102.117 0.435999 102.33 0.501999 102.638 0.633999C102.96 0.751332 103.144 0.831999 103.188 0.876C103.246 0.934666 103.283 1.052 103.298 1.228C103.327 1.404 103.327 1.514 103.298 1.558C103.195 1.67533 103.107 1.734 103.034 1.734C102.99 1.734 102.872 1.624 102.682 1.404C102.579 1.30133 102.469 1.25 102.352 1.25C102.22 1.25 102.036 1.33067 101.802 1.492C101.567 1.65333 101.398 1.74133 101.296 1.756C101.149 1.77067 100.951 1.78533 100.702 1.8C100.452 1.8 100.262 1.80733 100.13 1.822C100.012 1.822 99.8803 1.866 99.7336 1.954C99.6016 2.042 99.4989 2.174 99.4256 2.35C99.3376 2.55533 99.3596 2.658 99.4916 2.658C99.5649 2.658 99.6969 2.62133 99.8876 2.548C100.02 2.504 100.086 2.48933 100.086 2.504C100.086 2.504 100.078 2.51867 100.064 2.548C99.9756 2.65067 99.7996 2.80467 99.5356 3.01C99.2716 3.20067 99.0809 3.37667 98.9636 3.538C98.7876 3.72867 98.4356 4.05133 97.9076 4.506C97.3796 4.946 96.9983 5.30533 96.7636 5.584C96.5876 5.78933 96.2796 6.14867 95.8396 6.662C95.4143 7.17533 95.0549 7.61533 94.7616 7.982C94.4683 8.34867 94.1969 8.73 93.9476 9.126C93.9476 9.14067 93.8523 9.28733 93.6616 9.566C93.4856 9.83 93.3463 10.0573 93.2436 10.248C93.1409 10.424 93.0089 10.6587 92.8476 10.952C92.7009 11.2307 92.5836 11.502 92.4956 11.766C92.4223 12.0153 92.3856 12.2427 92.3856 12.448C92.3856 12.7707 92.4956 13.0127 92.7156 13.174C93.1116 13.482 93.6469 13.592 94.3216 13.504C94.8936 13.416 95.6343 13.196 96.5436 12.844C97.4676 12.492 98.1056 12.1107 98.4576 11.7C98.4869 11.656 98.5383 11.6193 98.6116 11.59C98.6849 11.546 98.7509 11.5093 98.8096 11.48C98.8683 11.4507 98.9269 11.4213 98.9856 11.392C99.0443 11.348 99.0736 11.3113 99.0736 11.282C99.0736 11.238 99.0589 11.1867 99.0296 11.128C98.9856 11.0693 98.8683 11.1573 98.6776 11.392C98.5749 11.524 98.5163 11.5533 98.5016 11.48C98.4576 11.304 98.6996 10.9887 99.2276 10.534C99.7703 10.0647 100.166 9.79333 100.416 9.72C100.577 9.66133 100.709 9.632 100.812 9.632C101.032 9.632 100.944 9.88133 100.548 10.38C100.181 10.8347 100.012 11.106 100.042 11.194C100.071 11.2673 100.225 11.2747 100.504 11.216C100.797 11.1427 101.039 11.0547 101.23 10.952C101.611 10.7467 101.985 10.5047 102.352 10.226C102.733 9.93267 102.894 9.71267 102.836 9.566C102.733 9.566 102.55 9.588 102.286 9.632C102.022 9.676 101.816 9.698 101.67 9.698C101.347 9.698 101.12 9.59533 100.988 9.39C101.178 8.994 101.67 8.70067 102.462 8.51C103.239 8.34867 103.738 8.51 103.958 8.994C103.987 9.05267 103.987 9.14067 103.958 9.258C103.943 9.36067 103.936 9.46333 103.936 9.566C103.95 9.66867 103.987 9.72 104.046 9.72C104.119 9.632 104.2 9.588 104.288 9.588C104.42 9.588 104.537 9.66867 104.64 9.83C104.742 9.99133 104.764 10.138 104.706 10.27C104.676 10.3433 104.618 10.468 104.53 10.644C104.442 10.82 104.383 10.9593 104.354 11.062C104.31 11.282 104.163 11.5607 103.914 11.898C103.679 12.2353 103.562 12.4407 103.562 12.514C103.562 12.6753 103.811 12.7193 104.31 12.646C104.632 12.602 105.248 12.4187 106.158 12.096C107.067 11.7587 107.771 11.59 108.27 11.59C108.812 11.59 109.553 11.7807 110.492 12.162C111.43 12.5287 112.083 12.888 112.45 13.24C112.479 13.2693 112.545 13.3353 112.648 13.438C112.765 13.5407 112.853 13.6213 112.912 13.68C112.97 13.724 113.044 13.7827 113.132 13.856C113.234 13.9147 113.337 13.9513 113.44 13.966L113.352 12.008C113.352 11.568 113.388 11.194 113.462 10.886C113.506 10.666 113.616 10.4387 113.792 10.204C113.982 9.96933 114.1 9.808 114.144 9.72C114.188 9.632 114.298 9.53667 114.474 9.434C114.65 9.33133 114.811 9.28 114.958 9.28C115.075 9.28 115.156 9.33133 115.2 9.434C114.98 9.478 114.811 9.77867 114.694 10.336C114.576 10.8787 114.518 11.348 114.518 11.744L114.54 12.866C114.54 13.79 114.422 14.384 114.188 14.648C114.158 14.6773 114.114 14.7433 114.056 14.846C113.997 14.934 113.938 14.9927 113.88 15.022C113.821 15.066 113.748 15.088 113.66 15.088C113.264 15.088 112.398 14.582 111.064 13.57C110.917 13.4527 110.778 13.3573 110.646 13.284C110.528 13.196 110.426 13.1227 110.338 13.064C110.25 12.9907 110.154 12.932 110.052 12.888C109.949 12.844 109.868 12.8147 109.81 12.8C109.751 12.7707 109.656 12.7413 109.524 12.712C109.406 12.6827 109.318 12.6607 109.26 12.646C109.216 12.6313 109.098 12.6093 108.908 12.58C108.732 12.5507 108.6 12.5287 108.512 12.514C108.042 12.426 107.199 12.6093 105.982 13.064C104.764 13.504 103.811 13.6727 103.122 13.57C102.77 13.5113 102.594 13.3353 102.594 13.042C102.594 12.8367 102.704 12.492 102.924 12.008C103.158 11.524 103.276 11.2013 103.276 11.04C103.158 11.128 102.843 11.3627 102.33 11.744C101.831 12.1253 101.391 12.4187 101.01 12.624C100.628 12.8147 100.196 12.954 99.7116 13.042C99.6236 13.0567 99.2496 13.064 98.5896 13.064C98.2523 13.064 97.9663 13.108 97.7316 13.196C97.6583 13.2253 97.3063 13.394 96.6756 13.702C96.0596 13.9953 95.5316 14.2153 95.0916 14.362C94.6663 14.494 94.2556 14.56 93.8596 14.56ZM115.31 9.632L115.486 9.28C115.53 9.28 115.618 9.302 115.75 9.346C115.896 9.37533 115.97 9.40467 115.97 9.434C115.984 9.55133 115.948 9.64667 115.86 9.72C115.772 9.77867 115.676 9.808 115.574 9.808C115.442 9.808 115.354 9.74933 115.31 9.632ZM99.6456 10.908C99.7629 10.8053 99.7996 10.7247 99.7556 10.666C99.7116 10.6073 99.6603 10.578 99.6016 10.578C99.4403 10.578 99.3229 10.7247 99.2496 11.018C99.2203 11.1207 99.2276 11.1793 99.2716 11.194C99.2863 11.194 99.3009 11.1867 99.3156 11.172C99.4329 11.0987 99.5429 11.0107 99.6456 10.908ZM115.882 9.038C115.911 9.038 115.992 9.03067 116.124 9.016C116.314 8.98667 116.402 8.97933 116.388 8.994C116.505 9.18467 116.483 9.28 116.322 9.28C116.116 9.25067 115.97 9.17 115.882 9.038ZM102.044 0.897999C102.044 0.839333 101.985 0.809999 101.868 0.809999C101.794 0.809999 101.728 0.831999 101.67 0.876C101.626 0.905333 101.626 0.941999 101.67 0.985999C101.714 1.03 101.765 1.06667 101.824 1.096C101.897 1.11067 101.956 1.10333 102 1.074C102.044 1.04467 102.058 0.985999 102.044 0.897999ZM103.122 1.954L103.21 1.888C103.254 1.85867 103.29 1.85133 103.32 1.866C103.364 1.866 103.393 1.91 103.408 1.998C103.393 2.086 103.364 2.14467 103.32 2.174C103.276 2.18867 103.232 2.174 103.188 2.13C103.158 2.086 103.136 2.02733 103.122 1.954Z" fill="black"/>
</svg>
