<svg width="140" height="34" viewBox="0 0 140 34" fill="none" xmlns="http://www.w3.org/2000/svg">
<path d="M1.91424 17.54C1.67958 17.4373 1.46691 17.0927 1.27624 16.506C1.29091 16.4033 1.32024 16.3447 1.36424 16.33C1.42291 16.3153 1.47424 16.3153 1.51824 16.33C1.57691 16.3593 1.62824 16.3593 1.67224 16.33C1.73091 16.462 1.85558 16.5573 2.04624 16.616C2.14891 16.6893 2.35424 16.7113 2.66224 16.682C2.97024 16.6527 3.17558 16.6307 3.27824 16.616C3.39558 16.6013 3.60824 16.5573 3.91624 16.484C4.22424 16.4107 4.42224 16.3667 4.51024 16.352C4.97958 16.2493 5.30958 16.088 5.50024 15.868C5.61758 15.7507 5.78624 15.6407 6.00624 15.538C6.24091 15.4207 6.38758 15.34 6.44624 15.296C6.98891 14.944 7.28224 14.6653 7.32624 14.46C7.35558 14.372 7.39958 14.2547 7.45824 14.108C7.51691 13.9467 7.56091 13.8 7.59024 13.668C7.61958 13.536 7.63424 13.4113 7.63424 13.294C7.61958 13.1327 7.45824 12.832 7.15024 12.392C7.07691 12.26 7.02558 12.172 6.99624 12.128C6.96691 12.084 6.93758 12.0473 6.90824 12.018C6.87891 11.974 6.84958 11.952 6.82024 11.952C6.80558 11.9373 6.76891 11.908 6.71024 11.864C6.65158 11.82 6.57824 11.7613 6.49024 11.688C6.09424 11.3947 5.77891 11.204 5.54424 11.116C5.33891 11.028 5.09691 10.9033 4.81824 10.742C4.70091 10.654 4.57624 10.5147 4.44424 10.324C4.31224 10.1187 4.31958 9.972 4.46624 9.884C4.48091 9.81067 4.49558 9.752 4.51024 9.708C4.53958 9.664 4.55424 9.63467 4.55424 9.62C4.56891 9.60533 4.61291 9.58333 4.68624 9.554C4.75958 9.51 4.81091 9.48067 4.84024 9.466C4.89891 9.422 4.98691 9.356 5.10424 9.268C5.22158 9.16533 5.32424 9.08467 5.41224 9.026C5.51491 8.95267 5.61758 8.90133 5.72024 8.872C5.79358 8.84267 5.83758 8.828 5.85224 8.828C5.86691 8.81333 5.86691 8.79133 5.85224 8.762C5.85224 8.718 5.85224 8.674 5.85224 8.63C5.85224 8.586 5.87424 8.55667 5.91824 8.542C5.96224 8.51267 6.00624 8.498 6.05024 8.498C6.09424 8.48333 6.13091 8.46867 6.16024 8.454C6.20424 8.42467 6.21891 8.388 6.20424 8.344C6.08691 8.344 6.02824 8.31467 6.02824 8.256C6.27758 8.10933 6.53424 7.816 6.79824 7.376C7.07691 6.92133 7.28224 6.628 7.41424 6.496C7.89824 6.012 8.24291 5.594 8.44824 5.242C8.53624 5.11 8.55091 5.022 8.49224 4.978C8.44824 4.934 8.42624 4.90467 8.42624 4.89C8.44091 4.86067 8.46291 4.824 8.49224 4.78C8.53624 4.72133 8.55824 4.67733 8.55824 4.648C8.63158 4.34 8.65358 3.92933 8.62424 3.416C8.59491 3.04933 8.52158 2.734 8.40424 2.47C8.28691 2.25 8.01558 2.03733 7.59024 1.832C7.17958 1.62667 6.80558 1.524 6.46824 1.524C6.27758 1.524 6.12358 1.568 6.00624 1.656C5.87424 1.77333 5.61024 1.876 5.21424 1.964C4.81824 2.03733 4.53958 2.17667 4.37824 2.382C4.36358 2.35267 4.37091 2.32333 4.40024 2.294C4.44424 2.25 4.46624 2.22067 4.46624 2.206C4.39291 2.17667 4.34158 2.162 4.31224 2.162C4.29758 2.14733 4.25358 2.15467 4.18024 2.184C4.10691 2.21333 4.05558 2.23533 4.02624 2.25C4.01158 2.074 4.02624 1.97133 4.07024 1.942C4.08491 1.91267 4.11424 1.89067 4.15824 1.876C4.24624 1.80267 4.34158 1.71467 4.44424 1.612C4.54691 1.49467 4.62758 1.40667 4.68624 1.348C4.74491 1.28933 4.81824 1.22333 4.90624 1.15C5.00891 1.07667 5.11891 1.01067 5.23624 0.952C5.86691 0.673333 6.42424 0.534 6.90824 0.534C7.14291 0.534 7.26024 0.6 7.26024 0.732C7.75891 0.702666 8.17691 0.783333 8.51424 0.973999C8.80758 1.15 9.04224 1.414 9.21824 1.766C9.57024 2.30867 9.75358 2.844 9.76824 3.372C9.76824 3.51867 9.74624 3.73867 9.70224 4.032C9.67291 4.32533 9.65824 4.54533 9.65824 4.692C9.64358 4.72133 9.61424 4.75067 9.57024 4.78C9.52624 4.79467 9.49691 4.80933 9.48224 4.824C9.48224 5.484 9.23291 6.06333 8.73424 6.562C8.33824 6.98733 8.00091 7.464 7.72224 7.992C7.53158 8.432 7.22358 8.82067 6.79824 9.158C6.76891 9.18733 6.61491 9.34867 6.33624 9.642C6.05758 9.92067 5.87424 10.0893 5.78624 10.148C5.91824 10.2507 6.18958 10.4267 6.60024 10.676C7.02558 10.9107 7.37024 11.1527 7.63424 11.402C7.91291 11.6513 8.11824 11.93 8.25024 12.238C8.27958 12.326 8.34558 12.4433 8.44824 12.59C8.55091 12.7367 8.62424 12.8907 8.66824 13.052C8.72691 13.1987 8.74891 13.3967 8.73424 13.646C8.73424 13.6753 8.70491 13.734 8.64624 13.822C8.60224 13.8953 8.56558 13.954 8.53624 13.998C8.52158 14.042 8.52891 14.0787 8.55824 14.108C8.60224 14.1667 8.62424 14.2107 8.62424 14.24C8.63891 14.2693 8.63158 14.3427 8.60224 14.46L8.53624 14.614C8.49224 14.746 8.39691 14.9 8.25024 15.076C8.10358 15.252 8.00091 15.3987 7.94224 15.516C7.83958 15.7067 7.49491 16.0073 6.90824 16.418C5.80824 17.0927 5.05291 17.4813 4.64224 17.584C4.59824 17.5987 4.51024 17.628 4.37824 17.672C4.26091 17.716 4.15091 17.7453 4.04824 17.76C3.96024 17.7747 3.87958 17.7747 3.80624 17.76C3.80624 17.6427 4.05558 17.4887 4.55424 17.298C5.05291 17.1073 5.33158 16.9313 5.39024 16.77C5.14091 16.77 4.78891 16.902 4.33424 17.166C4.27558 17.1953 4.15091 17.254 3.96024 17.342C3.78424 17.4447 3.65958 17.5107 3.58624 17.54C3.51291 17.5693 3.38091 17.6207 3.19024 17.694C2.99958 17.7673 2.86758 17.7967 2.79424 17.782C2.72091 17.7673 2.58891 17.76 2.39824 17.76C2.13424 17.6427 1.97291 17.5693 1.91424 17.54ZM0.462242 15.494C0.432909 15.362 0.425576 15.2373 0.440242 15.12C0.469576 15.0027 0.528242 14.8413 0.616242 14.636C0.704242 14.4307 0.755576 14.3133 0.770242 14.284C0.770242 14.0053 0.799576 13.8293 0.858242 13.756C0.990242 13.58 1.12958 13.316 1.27624 12.964C1.42291 12.612 1.54024 12.3553 1.62824 12.194L1.84824 12.062C1.87758 11.8127 1.92891 11.644 2.00224 11.556C2.14891 11.3507 2.28824 11.0647 2.42024 10.698C2.56691 10.3313 2.68424 10.0673 2.77224 9.906C2.80158 9.862 2.86758 9.78133 2.97024 9.664C3.07291 9.54667 3.16091 9.43667 3.23424 9.334C3.32224 9.21667 3.35891 9.12867 3.34424 9.07C3.30024 8.87933 3.33691 8.74 3.45424 8.652C3.58624 8.54933 3.75491 8.476 3.96024 8.432C4.16558 8.37333 4.29758 8.31467 4.35624 8.256C4.60558 8.05067 4.73024 8.10933 4.73024 8.432C4.58358 8.59333 4.49558 8.828 4.46624 9.136H4.33424C4.39291 9.532 4.26091 9.96467 3.93824 10.434C3.85024 10.522 3.71824 10.742 3.54224 11.094C3.38091 11.446 3.27824 11.6587 3.23424 11.732C2.82358 12.392 2.50824 12.9933 2.28824 13.536C2.15624 13.492 2.11224 13.536 2.15624 13.668C2.08291 13.7267 1.97291 13.9467 1.82624 14.328C1.63558 14.7533 1.50358 15.142 1.43024 15.494C1.35691 15.802 1.20291 15.956 0.968242 15.956C0.704242 15.956 0.535576 15.802 0.462242 15.494ZM4.68624 8.014C4.58358 8.04333 4.46624 8.014 4.33424 7.926C4.20224 7.838 4.11424 7.73533 4.07024 7.618C4.17291 7.574 4.27558 7.55933 4.37824 7.574C4.53958 7.64733 4.64224 7.794 4.68624 8.014ZM3.52024 2.778C3.52024 2.74867 3.53491 2.67533 3.56424 2.558C3.59358 2.49933 3.63024 2.47733 3.67424 2.492C3.71824 2.50667 3.74758 2.54333 3.76224 2.602C3.73291 2.778 3.65224 2.83667 3.52024 2.778ZM11.8696 15.494C11.7523 15.5527 11.6349 15.582 11.5176 15.582C11.2976 15.582 11.1363 15.494 11.0336 15.318C10.9456 15.142 10.9676 14.9147 11.0996 14.636C11.1876 14.46 11.3489 14.218 11.5836 13.91C11.8183 13.602 11.9796 13.3673 12.0676 13.206C12.1703 13.03 12.3169 12.8833 12.5076 12.766C12.7129 12.6487 12.8449 12.5533 12.9036 12.48C12.9476 12.436 12.9769 12.348 12.9916 12.216C13.0063 12.084 12.9916 12.018 12.9476 12.018C12.9329 12.018 12.9109 12.0253 12.8816 12.04C12.8083 12.0693 12.7423 12.0473 12.6836 11.974C12.5809 11.8127 12.6543 11.6 12.9036 11.336C13.1676 11.072 13.4023 10.9913 13.6076 11.094C13.8276 11.226 13.9156 11.402 13.8716 11.622C13.8129 11.886 13.8496 12.018 13.9816 12.018C14.0989 12.018 14.2676 11.9373 14.4876 11.776C14.5463 11.732 14.7736 11.6587 15.1696 11.556C15.5803 11.4387 15.8296 11.3873 15.9176 11.402C15.9909 11.4313 16.0936 11.49 16.2256 11.578C16.3723 11.6513 16.4749 11.6953 16.5336 11.71C16.7536 11.7687 17.0836 11.8787 17.5236 12.04C17.9783 12.2013 18.3743 12.326 18.7116 12.414C19.0489 12.502 19.3496 12.546 19.6136 12.546C19.7896 12.546 19.9509 12.524 20.0976 12.48C20.2149 12.436 20.3323 12.3553 20.4496 12.238C20.5669 12.1207 20.6843 11.9813 20.8016 11.82C20.9336 11.6587 21.0363 11.5413 21.1096 11.468C21.4763 11.1013 22.0263 10.918 22.7596 10.918C23.1116 10.918 23.3683 10.9693 23.5296 11.072C23.7056 11.1747 23.8229 11.3873 23.8816 11.71C23.8963 11.8127 23.8816 11.9153 23.8376 12.018C23.7936 12.1207 23.7203 12.216 23.6176 12.304C23.5149 12.392 23.4049 12.48 23.2876 12.568C23.1849 12.6413 23.0456 12.722 22.8696 12.81C22.7083 12.898 22.5763 12.9713 22.4736 13.03C22.3709 13.074 22.2316 13.1327 22.0556 13.206C21.8796 13.2793 21.7696 13.3307 21.7256 13.36C21.6816 13.3747 21.5643 13.4113 21.3736 13.47C21.1976 13.514 21.0363 13.5727 20.8896 13.646C20.7576 13.7047 20.6696 13.778 20.6256 13.866C20.5229 14.0567 20.6549 14.3353 21.0216 14.702C21.3883 15.0687 21.7109 15.3327 21.9896 15.494C22.1949 15.5967 22.3856 15.6847 22.5616 15.758C22.7523 15.8313 22.9503 15.8973 23.1556 15.956C23.3756 16.0147 23.5516 16.0587 23.6836 16.088C23.8303 16.1173 24.0356 16.154 24.2996 16.198C24.5783 16.2567 24.7763 16.3007 24.8936 16.33C24.9669 16.3447 25.3703 16.3447 26.1036 16.33C26.8369 16.33 27.2256 16.3227 27.2696 16.308C27.2843 16.2933 27.3429 16.308 27.4456 16.352C27.5629 16.396 27.6363 16.4033 27.6656 16.374C27.6656 16.33 27.6363 16.2933 27.5776 16.264C27.6656 16.2347 27.7683 16.22 27.8856 16.22C27.9589 16.22 27.9149 16.2787 27.7536 16.396C27.6069 16.528 27.5336 16.6307 27.5336 16.704C27.5336 16.792 27.4383 16.8507 27.2476 16.88C27.0716 16.924 26.8296 16.946 26.5216 16.946C26.2283 16.9607 26.0523 16.968 25.9936 16.968L25.5976 17.056C25.3483 17.1293 25.1429 17.1587 24.9816 17.144L24.1016 17.034C23.5296 16.9607 23.0529 16.8873 22.6716 16.814C22.3049 16.7407 21.8869 16.6013 21.4176 16.396C20.9483 16.2053 20.5596 15.956 20.2516 15.648C20.0756 15.472 19.8996 15.1567 19.7236 14.702C19.5623 14.2327 19.4963 13.866 19.5256 13.602C19.4083 13.5433 19.3276 13.514 19.2836 13.514C18.9316 13.514 18.5429 13.4553 18.1176 13.338C17.7069 13.206 17.2596 13.0373 16.7756 12.832C16.2916 12.6267 15.9469 12.4947 15.7416 12.436C15.4336 12.348 14.7883 12.6047 13.8056 13.206C13.6149 13.3233 13.4463 13.4407 13.2996 13.558C13.1529 13.6753 13.0063 13.822 12.8596 13.998C12.7276 14.174 12.6249 14.306 12.5516 14.394C12.4929 14.482 12.3756 14.6653 12.1996 14.944C12.0383 15.2227 11.9283 15.406 11.8696 15.494ZM21.4836 12.084C21.1609 12.3333 21.0876 12.458 21.2636 12.458C21.3663 12.458 21.5056 12.4287 21.6816 12.37C21.9163 12.326 22.0116 12.2233 21.9676 12.062C21.9529 11.974 21.8943 11.93 21.7916 11.93C21.6889 11.93 21.5863 11.9813 21.4836 12.084ZM27.9956 16.77C27.9076 16.7553 27.8856 16.7113 27.9296 16.638H28.0396C28.0396 16.6233 28.0323 16.594 28.0176 16.55C28.0029 16.506 28.0103 16.484 28.0396 16.484C28.0543 16.484 28.0836 16.4473 28.1276 16.374C28.1863 16.3153 28.2449 16.2933 28.3036 16.308C28.5383 16.4107 28.5676 16.5353 28.3916 16.682C28.2743 16.77 28.1423 16.7993 27.9956 16.77ZM26.1151 13.844C26.1151 13.4627 26.2471 13.1033 26.5111 12.766C28.2564 10.6687 29.7011 9.62 30.8451 9.62C31.0504 9.62 31.2558 9.664 31.4611 9.752C31.7691 9.91333 31.9231 10.1627 31.9231 10.5C31.9231 10.7787 31.8204 11.0573 31.6151 11.336C31.4391 11.5707 30.9624 11.9813 30.1851 12.568C29.4224 13.1547 28.8944 13.4847 28.6011 13.558C28.5131 13.5873 28.3078 13.646 27.9851 13.734C27.6624 13.8073 27.4131 13.8733 27.2371 13.932C27.6038 14.856 28.5424 15.2887 30.0531 15.23C30.6104 15.2007 31.3071 14.9733 32.1431 14.548C32.9938 14.108 33.5951 13.844 33.9471 13.756C34.1964 13.668 34.3211 13.4993 34.3211 13.25C34.3211 13.0007 34.3504 12.8247 34.4091 12.722C34.4971 12.59 34.5998 12.524 34.7171 12.524C34.8198 12.524 34.9884 12.5973 35.2231 12.744C35.2964 12.8027 35.3918 12.832 35.5091 12.832C35.9051 12.832 36.3891 12.502 36.9611 11.842C37.5478 11.182 38.0978 10.456 38.6111 9.664C39.1391 8.872 39.4398 8.43933 39.5131 8.366C39.6891 8.19 40.2758 7.43467 41.2731 6.1C42.2851 4.75067 43.0844 3.91467 43.6711 3.592L44.5291 3.218C45.2478 2.954 45.8124 2.822 46.2231 2.822C46.6631 2.822 46.8831 2.976 46.8831 3.284C46.8831 3.46 46.8171 3.68 46.6851 3.944C45.7171 5.85067 44.0744 7.574 41.7571 9.114C41.4784 9.34867 41.0898 9.65667 40.5911 10.038C40.0924 10.4193 39.7404 10.7053 39.5351 10.896C39.3444 11.072 39.0951 11.3287 38.7871 11.666C38.4791 11.9887 38.2151 12.348 37.9951 12.744C37.7751 13.1253 37.5478 13.5947 37.3131 14.152C38.3398 14.1227 39.0878 13.998 39.5571 13.778C39.6451 13.7487 39.9238 13.6827 40.3931 13.58C40.8624 13.4627 41.2878 13.3453 41.6691 13.228C42.0504 13.096 42.2924 12.9567 42.3951 12.81C42.4244 12.766 42.4684 12.7733 42.5271 12.832C42.5858 12.8907 42.6444 12.964 42.7031 13.052C42.7764 13.1253 42.8351 13.162 42.8791 13.162C42.9231 13.162 42.9524 13.14 42.9671 13.096C42.9671 12.9787 42.9304 12.8467 42.8571 12.7C42.9158 12.6707 43.0038 12.6707 43.1211 12.7C43.2384 12.7293 43.3338 12.7807 43.4071 12.854C43.4951 12.9273 43.5171 12.9933 43.4731 13.052C42.8718 13.7707 41.3464 14.504 38.8971 15.252C38.7211 15.3107 38.5158 15.34 38.2811 15.34C38.1931 15.34 37.8924 15.318 37.3791 15.274C36.8804 15.23 36.6018 15.2373 36.5431 15.296C36.3964 15.3547 36.2278 15.5527 36.0371 15.89C35.8464 16.2273 35.6484 16.616 35.4431 17.056C35.2524 17.5107 35.1351 17.782 35.0911 17.87C34.6364 18.6033 34.0498 19.8353 33.3311 21.566C32.6271 23.3113 32.1284 24.47 31.8351 25.042C31.8058 25.1007 31.7618 25.1593 31.7031 25.218C31.6444 25.2767 31.6004 25.328 31.5711 25.372C31.5564 25.4307 31.5491 25.5113 31.5491 25.614C31.5491 25.746 31.5271 25.8707 31.4831 25.988C31.4538 26.12 31.3804 26.252 31.2631 26.384C31.1604 26.516 31.0798 26.6113 31.0211 26.67C30.9771 26.7287 30.8671 26.8387 30.6911 27C30.5151 27.1613 30.4124 27.2493 30.3831 27.264C30.2658 27.3813 30.1558 27.44 30.0531 27.44C29.9504 27.44 29.8624 27.3813 29.7891 27.264C29.7158 27.1027 29.6864 26.9927 29.7011 26.934C29.7304 26.8753 29.8111 26.7873 29.9431 26.67C30.0751 26.5527 30.1558 26.4647 30.1851 26.406C30.4051 26.0393 30.6324 25.4307 30.8671 24.58C31.1164 23.7293 31.2484 23.2747 31.2631 23.216C31.8058 21.676 32.7444 19.6153 34.0791 17.034C34.1231 16.9313 34.2331 16.7553 34.4091 16.506C34.5851 16.2567 34.7318 16.0367 34.8491 15.846C34.9664 15.6407 35.0618 15.3987 35.1351 15.12C35.2231 14.8413 35.2011 14.636 35.0691 14.504C34.9811 14.3867 34.6511 14.4453 34.0791 14.68C33.5218 14.9147 32.9278 15.1933 32.2971 15.516C31.6811 15.824 31.3071 15.9853 31.1751 16C30.8671 16.0293 30.5004 16.0807 30.0751 16.154C29.6498 16.2273 29.3564 16.264 29.1951 16.264C28.7258 16.264 28.0218 15.9927 27.0831 15.45C26.7898 15.2887 26.5551 15.0613 26.3791 14.768C26.2031 14.4747 26.1151 14.1667 26.1151 13.844ZM40.9211 9.202C41.2291 9.04067 41.5591 8.718 41.9111 8.234C42.2631 7.75 42.6444 7.27333 43.0551 6.804C43.4658 6.32 43.9058 5.99 44.3751 5.814C44.9618 5.594 45.2844 4.978 45.3431 3.966C45.2111 3.966 45.0204 4.02467 44.7711 4.142C44.5218 4.24467 44.3164 4.296 44.1551 4.296C43.7298 4.26667 43.4804 4.33267 43.4071 4.494C43.3778 4.55267 43.4071 4.626 43.4951 4.714C43.5098 4.72867 43.6931 4.72867 44.0451 4.714C44.1918 4.714 44.2284 4.758 44.1551 4.846C44.1258 4.86067 44.1038 4.87533 44.0891 4.89C43.5318 5.418 43.0771 5.86533 42.7251 6.232C42.3878 6.584 42.0211 7.05333 41.6251 7.64C41.2438 8.212 41.0091 8.73267 40.9211 9.202ZM28.1611 12.524C28.2931 12.656 28.7478 12.4433 29.5251 11.886C30.3171 11.3287 30.7131 10.94 30.7131 10.72C29.5251 11.072 28.6744 11.6733 28.1611 12.524ZM53.3384 16.264C53.221 16.1173 53.1844 15.978 53.2284 15.846C53.2577 15.758 53.287 15.7067 53.3164 15.692C53.3604 15.6627 53.4264 15.6553 53.5144 15.67C53.6024 15.67 53.6684 15.6627 53.7124 15.648C54.0937 15.5893 54.695 15.3913 55.5164 15.054L55.7144 14.988C55.8464 14.9587 55.9564 14.922 56.0444 14.878C56.1324 14.834 56.1764 14.79 56.1764 14.746C56.1764 14.614 56.0957 14.4453 55.9344 14.24C55.773 14.0347 55.5677 13.7853 55.3184 13.492C55.069 13.184 54.8784 12.8907 54.7464 12.612C54.6877 12.4947 54.5777 12.3187 54.4164 12.084C54.2697 11.8347 54.145 11.6147 54.0424 11.424C53.9544 11.2187 53.8957 11.0133 53.8664 10.808C53.793 10.3387 53.859 10.016 54.0644 9.84C54.123 9.84 54.1377 9.75933 54.1084 9.598C54.0937 9.43667 54.0937 9.334 54.1084 9.29C54.1524 9.14333 54.4017 8.982 54.8564 8.806C55.311 8.61533 55.619 8.53467 55.7804 8.564C56.4257 8.71067 56.873 8.87933 57.1224 9.07C57.3717 9.246 57.5624 9.61267 57.6944 10.17C57.797 10.7127 57.7824 10.9547 57.6504 10.896C57.6357 10.896 57.621 10.8887 57.6064 10.874C57.5917 10.8593 57.5844 10.8227 57.5844 10.764C57.5844 10.6907 57.5697 10.6393 57.5404 10.61C57.511 10.5807 57.4744 10.566 57.4304 10.566C57.3864 10.566 57.3497 10.544 57.3204 10.5C57.2617 10.3533 57.159 10.1333 57.0124 9.84C57.0124 9.82533 56.9904 9.82533 56.9464 9.84C56.9024 9.85467 56.8657 9.84 56.8364 9.796C56.8804 9.708 56.8364 9.62 56.7044 9.532C56.6604 9.50267 56.6164 9.51 56.5724 9.554C56.5284 9.598 56.499 9.62 56.4844 9.62C56.4404 9.63467 56.3817 9.61267 56.3084 9.554C56.235 9.48067 56.1764 9.45867 56.1324 9.488C56.0884 9.532 56.081 9.576 56.1104 9.62C56.1397 9.64933 56.2057 9.69333 56.3084 9.752C56.3964 9.81067 56.4257 9.84733 56.3964 9.862C56.3964 9.89133 56.3524 9.89133 56.2644 9.862C56.0004 9.78867 55.773 9.752 55.5824 9.752C55.0984 9.752 54.8344 10.038 54.7904 10.61C54.7904 10.698 54.8344 10.8813 54.9224 11.16C55.0104 11.424 55.0764 11.578 55.1204 11.622C55.223 11.71 55.3404 11.864 55.4724 12.084C55.6044 12.304 55.6777 12.4213 55.6924 12.436C55.8537 12.6853 56.0297 12.9053 56.2204 13.096C56.7337 13.6093 57.0564 14.1227 57.1884 14.636C57.1884 14.768 57.1957 14.856 57.2104 14.9C57.2397 14.944 57.225 15.0173 57.1664 15.12C57.1224 15.2227 57.093 15.2887 57.0784 15.318C57.0637 15.3327 57.0197 15.3987 56.9464 15.516C56.873 15.6187 56.8217 15.6847 56.7924 15.714C56.6164 15.9193 56.4477 16.0367 56.2864 16.066C56.2424 16.066 56.1544 16.0513 56.0224 16.022C55.905 16.0073 55.8244 16.022 55.7804 16.066C55.3404 16.2713 55.0104 16.3887 54.7904 16.418C54.761 16.374 54.7464 16.3447 54.7464 16.33C54.761 16.3153 54.783 16.286 54.8124 16.242C54.8564 16.198 54.8857 16.154 54.9004 16.11C54.9004 16.0513 54.8637 16 54.7904 15.956C54.7904 16.1467 54.6437 16.3153 54.3504 16.462C53.8077 16.5353 53.4704 16.4693 53.3384 16.264ZM54.1304 9.95C54.057 10.0233 54.0424 10.104 54.0864 10.192C54.145 10.2653 54.211 10.302 54.2844 10.302C54.3577 10.302 54.3944 10.2433 54.3944 10.126C54.3944 9.862 54.3064 9.80333 54.1304 9.95ZM59.4855 14.306C59.4708 14.2473 59.4708 14.1813 59.4855 14.108C59.5002 14.0347 59.5222 13.954 59.5515 13.866C59.5955 13.7633 59.6248 13.69 59.6395 13.646C59.6688 13.5433 59.7275 13.3967 59.8155 13.206C59.9035 13.0007 60.0062 12.7733 60.1235 12.524C60.2408 12.2747 60.3215 12.0987 60.3655 11.996C60.5122 11.6293 60.6075 11.4093 60.6515 11.336C60.6662 11.3067 60.7028 11.2553 60.7615 11.182C60.8348 11.1087 60.8788 11.0427 60.8935 10.984C60.9228 10.9253 60.9302 10.8593 60.9155 10.786C60.8862 10.5953 60.9448 10.4267 61.0915 10.28C61.1648 10.192 61.3188 10.1407 61.5535 10.126C61.7882 10.0967 61.9275 10.016 61.9715 9.884C62.0595 10.0013 62.0888 10.236 62.0595 10.588C62.0302 10.9253 61.9642 11.16 61.8615 11.292C61.7148 11.4827 61.5682 11.798 61.4215 12.238C61.2748 12.6633 61.1355 12.9493 61.0035 13.096C60.9302 13.1693 60.8788 13.3013 60.8495 13.492C60.8348 13.668 60.7835 13.778 60.6955 13.822C60.6515 13.8367 60.6148 13.8587 60.5855 13.888C60.5708 13.9173 60.5635 13.954 60.5635 13.998C60.5635 14.0273 60.5635 14.0567 60.5635 14.086C60.5635 14.1153 60.5708 14.1593 60.5855 14.218C60.6148 14.262 60.6295 14.2913 60.6295 14.306C60.6442 14.394 60.7102 14.438 60.8275 14.438C60.9595 14.438 61.1795 14.35 61.4875 14.174C61.8102 13.998 61.9788 13.91 61.9935 13.91C62.2282 13.822 62.3968 13.7413 62.4995 13.668C62.6462 13.5653 62.8882 13.404 63.2255 13.184C63.5628 12.964 63.8708 12.7513 64.1495 12.546C64.4428 12.326 64.6922 12.106 64.8975 11.886C65.1468 11.622 65.5062 11.3433 65.9755 11.05C66.4595 10.742 66.8335 10.588 67.0975 10.588C67.3908 10.588 67.5448 10.7493 67.5595 11.072C67.7648 11.4093 67.5962 12.0767 67.0535 13.074C67.0095 13.1767 66.9435 13.3453 66.8555 13.58C66.7822 13.8 66.7088 13.998 66.6355 14.174C66.5475 14.4087 66.4302 14.614 66.2835 14.79C66.1368 14.9513 66.0342 15.076 65.9755 15.164C65.9315 15.252 65.9315 15.3693 65.9755 15.516C66.0048 15.5747 66.0268 15.5747 66.0415 15.516C66.0562 15.4867 66.0782 15.472 66.1075 15.472C66.2248 15.472 66.2395 15.5747 66.1515 15.78C66.0635 15.9707 66.0635 16.066 66.1515 16.066C66.3862 16.066 66.5035 16.132 66.5035 16.264L66.5475 16.242L66.6135 16.132C66.6575 16.2053 66.6795 16.2493 66.6795 16.264C66.6795 16.2787 66.6502 16.3227 66.5915 16.396C66.5328 16.484 66.4888 16.55 66.4595 16.594C66.4302 16.6527 66.4008 16.6893 66.3715 16.704C66.3568 16.7187 66.3275 16.7187 66.2835 16.704C66.2395 16.704 66.2028 16.7113 66.1735 16.726C65.8948 16.7993 65.6675 16.7847 65.4915 16.682C65.4035 16.6233 65.3302 16.5207 65.2715 16.374C65.2128 16.242 65.2495 16.1393 65.3815 16.066C65.4548 16.0513 65.5135 15.956 65.5575 15.78C65.6015 15.5893 65.6015 15.472 65.5575 15.428C65.5282 15.3987 65.4842 15.3987 65.4255 15.428C65.3668 15.4573 65.3302 15.472 65.3155 15.472C65.2422 15.428 65.2128 15.3987 65.2275 15.384C65.2422 15.3547 65.2788 15.3253 65.3375 15.296C65.3962 15.2667 65.4255 15.2447 65.4255 15.23C65.4255 15.1127 65.3668 15.0393 65.2495 15.01C65.1468 14.966 65.1175 14.878 65.1615 14.746C65.1762 14.6727 65.2348 14.592 65.3375 14.504C65.4402 14.4013 65.4988 14.3207 65.5135 14.262C65.5575 14.1593 65.6308 14.02 65.7335 13.844C65.8362 13.668 65.9095 13.4993 65.9535 13.338C65.9975 13.3233 66.0342 13.3527 66.0635 13.426C66.0928 13.4847 66.1222 13.5507 66.1515 13.624C66.1808 13.6827 66.2102 13.712 66.2395 13.712C66.2688 13.712 66.3202 13.668 66.3935 13.58C66.4375 13.4627 66.4448 13.3893 66.4155 13.36C66.4008 13.316 66.3422 13.2573 66.2395 13.184C66.1515 13.1107 66.0928 13.052 66.0635 13.008C66.1368 12.9493 66.2028 12.8173 66.2615 12.612C66.2762 12.5827 66.3128 12.502 66.3715 12.37C66.4448 12.238 66.4888 12.1427 66.5035 12.084C66.5182 12.0253 66.5108 11.952 66.4815 11.864C66.4228 11.9227 66.3568 11.974 66.2835 12.018C66.2102 12.062 66.1222 12.106 66.0195 12.15C65.9168 12.1793 65.8362 12.2087 65.7775 12.238C65.7042 12.2527 65.6455 12.282 65.6015 12.326C65.5575 12.37 65.5062 12.4287 65.4475 12.502C65.4035 12.5753 65.3668 12.6267 65.3375 12.656C65.0735 12.9053 64.6922 13.1693 64.1935 13.448C64.1055 13.492 63.9222 13.6167 63.6435 13.822C63.3795 14.0273 63.2255 14.152 63.1815 14.196C63.0935 14.3133 62.8075 14.526 62.3235 14.834C61.8542 15.142 61.4875 15.362 61.2235 15.494C61.0768 15.582 60.8202 15.626 60.4535 15.626C60.2188 15.6113 60.0135 15.5453 59.8375 15.428C59.6762 15.296 59.5955 15.1053 59.5955 14.856C59.5808 14.768 59.5588 14.6727 59.5295 14.57C59.5002 14.4527 59.4855 14.3647 59.4855 14.306ZM61.4875 9.466C61.4728 9.45133 61.4655 9.42933 61.4655 9.4C61.4802 9.37067 61.4875 9.34867 61.4875 9.334C61.5022 9.31933 61.5168 9.30467 61.5315 9.29C61.5608 9.26067 61.5828 9.23867 61.5975 9.224C61.6708 9.136 61.7368 9.092 61.7955 9.092C61.9128 9.092 62.0082 9.21667 62.0815 9.466C62.1402 9.598 62.1182 9.70067 62.0155 9.774C62.0155 9.71533 61.9348 9.65667 61.7735 9.598C61.6122 9.53933 61.5168 9.49533 61.4875 9.466ZM65.8933 25.438C65.8933 25.394 65.9007 25.3573 65.9153 25.328C65.93 25.2987 65.9667 25.262 66.0253 25.218C66.0693 25.1887 66.0987 25.1667 66.1133 25.152C66.2747 24.9907 66.3993 24.7413 66.4873 24.404C66.5753 24.0667 66.6193 23.8907 66.6193 23.876C66.634 23.8467 66.6707 23.766 66.7293 23.634C66.788 23.502 66.8393 23.392 66.8833 23.304C66.9273 23.2307 66.986 23.1427 67.0593 23.04C67.118 22.9373 67.184 22.8567 67.2573 22.798C67.316 22.754 67.382 22.732 67.4553 22.732C67.5727 22.732 67.6313 22.8127 67.6313 22.974L67.4333 23.37C66.9347 24.2793 66.6853 24.9833 66.6853 25.482C66.6853 25.7753 66.8393 25.922 67.1473 25.922C67.5287 25.922 67.778 25.8267 67.8953 25.636C67.91 25.636 68.0347 25.5333 68.2693 25.328C68.4893 25.1373 68.746 24.888 69.0393 24.58C69.3473 24.272 69.5747 23.9933 69.7213 23.744C69.868 23.524 70.1027 23.1133 70.4253 22.512C70.748 21.9107 70.9753 21.5147 71.1073 21.324C71.166 21.236 71.2247 21.0747 71.2833 20.84C71.3567 20.6053 71.43 20.444 71.5033 20.356C71.606 20.224 71.6573 20.1507 71.6573 20.136C71.6573 19.8573 71.606 19.7033 71.5033 19.674C71.386 19.63 71.2613 19.6373 71.1293 19.696C71.012 19.7547 70.9167 19.828 70.8433 19.916C70.77 20.004 70.6747 20.1213 70.5573 20.268C70.4547 20.4147 70.374 20.5173 70.3153 20.576C70.2713 20.6347 70.1613 20.7373 69.9853 20.884C69.8093 21.0453 69.6407 21.192 69.4793 21.324C69.3327 21.456 69.2593 21.5147 69.2593 21.5C69.2153 21.5 68.9953 21.6173 68.5993 21.852C68.2033 22.0867 67.954 22.204 67.8513 22.204C67.7927 22.204 67.7633 22.1747 67.7633 22.116C67.7633 22.028 67.8587 21.9107 68.0493 21.764C68.24 21.632 68.3427 21.544 68.3573 21.5C68.416 21.3973 68.504 21.2873 68.6213 21.17C68.724 21.0673 68.8487 20.95 68.9953 20.818C69.1567 20.7007 69.274 20.6053 69.3473 20.532C69.978 19.9307 70.5647 19.498 71.1073 19.234C71.3713 19.058 71.5547 18.9187 71.6573 18.816C71.76 18.728 71.8553 18.618 71.9433 18.486C72.046 18.3687 72.1487 18.2587 72.2513 18.156C72.3247 18.156 72.354 18.0533 72.3393 17.848C72.3393 17.6427 72.354 17.364 72.3833 17.012C72.4273 16.66 72.53 16.352 72.6913 16.088C72.7353 16.0293 72.816 15.8387 72.9333 15.516C73.0653 15.1933 73.1387 15.0247 73.1533 15.01C73.168 14.9953 73.19 14.812 73.2193 14.46C73.2487 14.108 73.3073 13.7267 73.3953 13.316C73.4833 12.8907 73.608 12.5973 73.7693 12.436C73.828 12.3773 73.9747 12.128 74.2093 11.688C74.4587 11.2333 74.5833 10.9693 74.5833 10.896C74.5833 10.8373 74.5613 10.786 74.5173 10.742C74.2827 10.7567 74.1213 10.9473 74.0333 11.314C73.96 11.666 73.872 11.8933 73.7693 11.996C73.696 12.0693 73.5933 12.1207 73.4613 12.15C73.344 12.1793 73.2413 12.2307 73.1533 12.304C73.1387 12.3187 73.036 12.4067 72.8453 12.568C72.6693 12.7293 72.53 12.8467 72.4273 12.92C72.3393 12.9787 72.1927 13.052 71.9873 13.14C71.782 13.2133 71.5767 13.25 71.3713 13.25C70.594 13.25 70.2053 13.0667 70.2053 12.7C70.2053 12.4067 70.3153 12.0913 70.5353 11.754C70.6087 11.6953 70.7627 11.4973 70.9973 11.16C71.1293 10.9547 71.3053 10.7567 71.5253 10.566C71.76 10.3607 72.0753 10.104 72.4713 9.796C72.882 9.47333 73.1607 9.25333 73.3073 9.136C73.8207 8.696 74.4733 8.476 75.2653 8.476C75.6613 8.476 76.006 8.62267 76.2993 8.916C76.6073 9.20933 76.7613 9.554 76.7613 9.95C76.7613 11.0353 76.622 11.6953 76.3433 11.93C76.3433 11.49 76.4093 11.094 76.5413 10.742C76.5853 10.6393 76.5853 10.5293 76.5413 10.412C76.4973 10.28 76.424 10.148 76.3213 10.016C76.2333 9.86933 76.182 9.75933 76.1673 9.686C76.094 9.43667 75.9913 9.312 75.8593 9.312C75.83 9.312 75.742 9.422 75.5953 9.642C75.4633 9.84733 75.3313 10.0967 75.1993 10.39C75.0673 10.6833 75.0013 10.9253 75.0013 11.116C75.0013 11.3067 74.9647 11.5853 74.8913 11.952C74.8327 12.304 74.8033 12.6047 74.8033 12.854C74.554 13.646 74.4293 14.1373 74.4293 14.328C74.4293 14.5627 74.334 14.9807 74.1433 15.582C73.9673 16.1833 73.8793 16.616 73.8793 16.88C73.8793 17.1587 73.916 17.32 73.9893 17.364C74.0627 17.408 74.114 17.4227 74.1433 17.408C74.1873 17.3933 74.2167 17.3493 74.2313 17.276C74.2607 17.2173 74.2753 17.1513 74.2753 17.078C74.29 17.0047 74.3047 16.9313 74.3193 16.858C74.3487 16.7993 74.3853 16.7627 74.4293 16.748C74.7373 16.6307 75.412 16.2493 76.4533 15.604C76.512 15.5747 76.6293 15.538 76.8053 15.494C76.996 15.45 77.1427 15.362 77.2453 15.23C77.436 14.9953 77.854 14.746 78.4993 14.482C79.1447 14.2033 79.526 14.0053 79.6433 13.888C79.6727 13.8587 79.7533 13.8 79.8853 13.712C80.032 13.624 80.1787 13.536 80.3253 13.448C80.4867 13.3453 80.582 13.2867 80.6113 13.272C80.7727 13.1693 80.8607 12.9567 80.8753 12.634C80.9047 12.3113 80.9707 12.0767 81.0733 11.93C81.1027 11.9007 81.1613 11.7687 81.2493 11.534C81.352 11.2993 81.4107 11.1747 81.4253 11.16C81.5427 10.9253 81.7407 10.7347 82.0193 10.588C82.298 10.4267 82.6133 10.346 82.9653 10.346C82.6427 10.654 82.4593 10.8593 82.4153 10.962C82.3713 11.05 82.2833 11.1747 82.1513 11.336C82.034 11.4973 81.9607 11.622 81.9313 11.71C81.902 11.7833 81.9093 11.908 81.9533 12.084C81.968 12.128 82.0633 12.15 82.2393 12.15C82.5327 12.15 82.7967 12.062 83.0313 11.886C83.1633 11.798 83.3467 11.6807 83.5813 11.534C83.816 11.3727 83.9993 11.248 84.1313 11.16C84.278 11.0573 84.476 10.9547 84.7253 10.852C84.9747 10.7493 85.158 10.6613 85.2753 10.588C85.3047 10.5733 85.356 10.544 85.4293 10.5C85.5173 10.4413 85.5833 10.3973 85.6273 10.368C85.686 10.3387 85.7593 10.2947 85.8473 10.236C85.9353 10.1773 85.994 10.1333 86.0233 10.104C86.0673 10.06 86.1187 10.0087 86.1773 9.95C86.236 9.89133 86.2507 9.84733 86.2213 9.818C86.2067 9.78867 86.192 9.74467 86.1773 9.686C86.06 9.62733 85.928 9.61267 85.7813 9.642C85.6493 9.67133 85.4513 9.72267 85.1873 9.796C84.9233 9.86933 84.718 9.906 84.5713 9.906C84.3073 9.906 84.0873 9.83267 83.9113 9.686C83.7353 9.53933 83.5667 9.466 83.4053 9.466C83.2587 9.466 83.068 9.51 82.8333 9.598C82.5987 9.67133 82.4447 9.708 82.3713 9.708C82.254 9.708 82.166 9.664 82.1073 9.576C81.9753 9.41467 82.1 9.28267 82.4813 9.18C82.5987 9.15067 82.804 9.114 83.0973 9.07C83.684 8.982 84.0287 8.88667 84.1313 8.784C84.322 8.59333 84.6007 8.498 84.9673 8.498C85.334 8.498 85.6127 8.59333 85.8033 8.784C85.9353 8.916 86.126 8.982 86.3753 8.982C86.522 8.982 86.7347 8.96 87.0133 8.916C87.3067 8.85733 87.5047 8.828 87.6073 8.828C87.9593 9.15067 88.1353 9.356 88.1353 9.444C88.1353 9.56133 88.0693 9.69333 87.9373 9.84C87.82 9.98667 87.6587 10.1407 87.4533 10.302C87.2627 10.4487 87.1453 10.544 87.1013 10.588C87.0427 10.6467 86.9547 10.7787 86.8373 10.984C86.7347 11.1893 86.6393 11.3287 86.5513 11.402C86.3167 11.622 86.0967 11.8713 85.8913 12.15C85.686 12.4287 85.466 12.7513 85.2313 13.118C84.9967 13.4847 84.7913 13.7853 84.6153 14.02C84.498 14.1667 84.388 14.4527 84.2853 14.878C84.1827 15.3033 84.0653 15.582 83.9333 15.714C83.904 15.7433 83.8307 15.978 83.7133 16.418C83.6107 16.858 83.5593 17.122 83.5593 17.21C83.5593 17.694 83.596 17.936 83.6693 17.936C83.7133 17.936 83.7573 17.8627 83.8013 17.716C83.8453 17.584 83.8893 17.5033 83.9333 17.474C84.036 17.4153 84.256 17.2907 84.5933 17.1C84.9307 16.924 85.1873 16.7847 85.3633 16.682C86.1847 16.198 86.6247 15.912 86.6833 15.824C86.7273 15.78 86.764 15.7653 86.7933 15.78C86.8373 15.78 86.8887 15.7947 86.9473 15.824L87.0133 15.89C87.028 15.89 87.1747 15.7727 87.4533 15.538C87.732 15.2887 87.952 15.164 88.1133 15.164C88.1573 15.164 88.2893 15.1053 88.5093 14.988C88.744 14.8707 89.03 14.724 89.3673 14.548C89.7047 14.372 89.9907 14.2327 90.2253 14.13C90.2693 14.1153 90.3867 14.0787 90.5773 14.02C90.768 13.9613 90.922 13.9027 91.0393 13.844C91.1713 13.7707 91.2813 13.6827 91.3693 13.58C91.4573 13.4773 91.604 13.4773 91.8093 13.58C91.8093 13.5947 91.78 13.646 91.7213 13.734C91.6627 13.822 91.582 13.932 91.4793 14.064C91.3913 14.1813 91.3107 14.2693 91.2373 14.328C91.2227 14.372 91.1567 14.372 91.0393 14.328L90.8633 14.284C90.4087 14.284 90.0053 14.46 89.6533 14.812C89.5653 14.9 89.4187 15.0173 89.2133 15.164C89.0227 15.296 88.8833 15.3987 88.7953 15.472C88.5313 15.6773 88.3627 15.78 88.2893 15.78C88.172 15.78 88.0327 15.868 87.8713 16.044C87.7247 16.22 87.622 16.308 87.5633 16.308C87.5487 16.308 87.5267 16.3007 87.4973 16.286C87.468 16.2713 87.446 16.264 87.4313 16.264C87.226 16.484 87.0133 16.66 86.7933 16.792C86.5733 16.9387 86.302 17.0853 85.9793 17.232C85.6567 17.3933 85.422 17.5107 85.2753 17.584C85.026 17.716 84.7033 17.936 84.3073 18.244C83.9113 18.552 83.6107 18.7647 83.4053 18.882C83.2733 18.9553 83.156 19.0947 83.0533 19.3C82.9653 19.52 82.8993 19.7033 82.8553 19.85C82.8113 20.0113 82.7893 20.114 82.7893 20.158C82.7893 20.4513 82.7013 20.8767 82.5253 21.434C82.3493 22.006 82.2613 22.4533 82.2613 22.776C82.2613 23.0107 82.122 23.568 81.8433 24.448C81.5647 25.3427 81.3813 25.834 81.2933 25.922C81.1173 26.098 80.714 27 80.0833 28.628C79.4673 30.2707 78.9687 31.2167 78.5873 31.466C78.3673 31.6127 78.1253 31.906 77.8613 32.346C77.612 32.786 77.3407 33.1673 77.0473 33.49C76.7687 33.8127 76.4313 33.974 76.0353 33.974C75.7567 33.974 75.5733 33.93 75.4853 33.842C75.412 33.754 75.3313 33.6 75.2433 33.38C75.17 33.1747 75.0527 32.9913 74.8913 32.83C74.8033 32.742 74.7593 32.632 74.7593 32.5C74.7593 32.3533 74.774 32.0673 74.8033 31.642C74.8473 31.2167 74.8693 30.8793 74.8693 30.63C74.8693 30.5567 74.9207 30.4467 75.0233 30.3C75.126 30.168 75.1773 30.036 75.1773 29.904C75.1773 29.6253 75.236 29.3173 75.3533 28.98C75.4853 28.6573 75.5513 28.386 75.5513 28.166C75.5513 27.7993 75.6247 27.4107 75.7713 27C75.918 26.5893 76.05 26.2813 76.1673 26.076C76.2847 25.8707 76.5047 25.4967 76.8273 24.954C76.974 24.7193 77.1573 24.3527 77.3773 23.854C77.5973 23.37 77.7733 23.0107 77.9053 22.776C77.964 22.644 78.096 22.4827 78.3013 22.292C78.5213 22.1013 78.6607 21.9547 78.7193 21.852C79.4967 20.664 80.3033 19.8573 81.1393 19.432C81.3153 19.344 81.4913 19.102 81.6673 18.706C81.858 18.31 81.99 18.0827 82.0633 18.024C82.122 17.98 82.1953 17.7013 82.2833 17.188C82.3713 16.6893 82.4373 16.418 82.4813 16.374C82.672 16.1833 82.7453 15.8827 82.7013 15.472C82.6573 15.0613 82.7087 14.7827 82.8553 14.636C83.046 14.4453 83.1413 14.1593 83.1413 13.778C83.1413 13.646 83.068 13.5067 82.9213 13.36C82.804 13.36 82.3713 13.5213 81.6233 13.844L80.5233 14.328C80.318 14.46 80.0173 14.6287 79.6213 14.834C79.2253 15.0393 78.866 15.2447 78.5433 15.45C78.2353 15.6407 77.9493 15.8533 77.6853 16.088C77.656 16.1173 77.502 16.1467 77.2233 16.176C76.9593 16.22 76.8053 16.286 76.7613 16.374C76.688 16.506 76.336 16.7407 75.7053 17.078L74.7593 17.584C74.246 18.024 73.916 18.244 73.7693 18.244C73.564 18.244 73.41 18.376 73.3073 18.64C73.2193 18.904 73.1387 19.2267 73.0653 19.608C73.0067 20.004 72.9407 20.268 72.8673 20.4C72.838 20.4587 72.772 20.5613 72.6693 20.708C72.5813 20.8547 72.5007 20.994 72.4273 21.126C72.3687 21.258 72.3393 21.3607 72.3393 21.434C72.3393 22.006 71.848 22.908 70.8653 24.14C69.8827 25.372 69.1493 26.1347 68.6653 26.428C68.548 26.5013 68.3867 26.6407 68.1813 26.846C67.932 27.0953 67.5433 27.22 67.0153 27.22C66.9127 27.22 66.7807 27.1613 66.6193 27.044C66.458 26.9413 66.2967 26.7433 66.1353 26.45C65.974 26.1567 65.8933 25.8193 65.8933 25.438ZM75.6833 31.642C75.6833 31.686 75.676 31.752 75.6613 31.84C75.6613 31.9427 75.6613 32.016 75.6613 32.06C75.6613 32.1187 75.6687 32.1773 75.6833 32.236C75.7127 32.3093 75.7493 32.3607 75.7933 32.39C75.9253 32.4927 76.1307 32.3827 76.4093 32.06C76.7027 31.7373 76.9007 31.466 77.0033 31.246C77.0913 31.07 77.194 30.9013 77.3113 30.74C77.4433 30.5933 77.59 30.4393 77.7513 30.278C77.9127 30.1313 78.03 30.0067 78.1033 29.904C79.0127 28.804 79.526 27.8287 79.6433 26.978C79.746 26.978 79.9953 26.252 80.3913 24.8C80.7873 23.348 80.9853 22.512 80.9853 22.292C80.9853 22.2333 81.0293 22.0573 81.1173 21.764C81.2053 21.4853 81.2493 21.28 81.2493 21.148C81.2493 21.0013 81.22 20.884 81.1613 20.796C81.1027 20.708 81.022 20.686 80.9193 20.73C80.7873 20.818 80.6187 21.016 80.4133 21.324C80.1933 21.6467 79.8267 22.0647 79.3133 22.578C78.8147 23.0913 78.5433 23.3847 78.4993 23.458C78.2793 23.7953 78.03 24.2867 77.7513 24.932C77.4873 25.592 77.282 26.0467 77.1353 26.296C77.0767 26.384 76.974 26.604 76.8273 26.956C76.6953 27.308 76.5707 27.5647 76.4533 27.726C76.336 27.8727 76.2333 28.1073 76.1453 28.43C76.0573 28.7673 75.962 29.0093 75.8593 29.156C75.8153 29.2147 75.7933 29.2807 75.7933 29.354C75.808 29.4273 75.83 29.5227 75.8593 29.64C75.9033 29.772 75.9253 29.86 75.9253 29.904C75.9253 30.0213 75.8813 30.278 75.7933 30.674C75.72 31.07 75.6833 31.3927 75.6833 31.642ZM71.2613 12.304C71.232 12.304 71.188 12.2967 71.1293 12.282C71.0707 12.2673 71.0193 12.26 70.9753 12.26C70.946 12.26 70.9313 12.2747 70.9313 12.304C70.9313 12.348 70.99 12.3993 71.1073 12.458C71.2393 12.502 71.364 12.524 71.4813 12.524C71.5253 12.524 71.5987 12.4727 71.7013 12.37C71.7453 12.326 71.914 12.2453 72.2073 12.128C72.5007 11.996 72.662 11.9153 72.6913 11.886C72.882 11.6953 73.058 11.556 73.2193 11.468C73.3807 11.38 73.5053 11.27 73.5933 11.138C73.696 10.9913 73.8793 10.654 74.1433 10.126C74.1727 10.082 74.2313 9.98667 74.3193 9.84C74.422 9.67867 74.51 9.532 74.5833 9.4C74.6567 9.268 74.6933 9.16533 74.6933 9.092C74.6933 9.004 74.6347 8.95267 74.5173 8.938C74.4 8.90867 74.3193 8.93067 74.2753 9.004C74.2607 9.01867 74.2533 9.04067 74.2533 9.07C74.2533 9.09933 74.246 9.12133 74.2313 9.136C74.2167 9.136 74.1653 9.136 74.0773 9.136C73.916 9.136 73.74 9.29 73.5493 9.598C73.3587 9.906 73.256 10.06 73.2413 10.06C72.3907 10.6613 71.9653 11.226 71.9653 11.754C71.9653 11.8273 71.87 11.9373 71.6793 12.084C71.4887 12.2307 71.3493 12.304 71.2613 12.304ZM85.5173 11.71C85.444 11.6367 85.136 11.7687 84.5933 12.106C84.0507 12.4287 83.7793 12.6853 83.7793 12.876C83.7793 12.92 83.794 12.9567 83.8233 12.986C83.882 12.9567 83.9407 12.9127 83.9993 12.854C84.0727 12.7953 84.146 12.7293 84.2193 12.656C84.2927 12.5827 84.344 12.5387 84.3733 12.524C84.432 12.4653 84.5713 12.3847 84.7913 12.282C85.026 12.1647 85.2167 12.0547 85.3633 11.952C85.5247 11.8493 85.576 11.7687 85.5173 11.71ZM82.9653 14.856C82.9507 15.0907 83.0387 15.208 83.2293 15.208C83.332 15.208 83.4127 15.1713 83.4713 15.098C83.5447 15.01 83.552 14.9147 83.4933 14.812C83.4053 14.636 83.31 14.548 83.2073 14.548C83.0753 14.548 82.9947 14.6507 82.9653 14.856ZM92.3153 13.69C92.242 13.69 92.1833 13.6753 92.1393 13.646C92.0953 13.6167 92.0807 13.5727 92.0953 13.514C92.1687 13.294 92.3813 13.184 92.7333 13.184C92.8653 13.184 92.9387 13.1913 92.9533 13.206C92.9533 13.294 92.8727 13.3967 92.7113 13.514C92.5647 13.6313 92.4327 13.69 92.3153 13.69ZM81.4473 19.982C81.3887 19.9967 81.33 20.0187 81.2713 20.048C81.2127 20.092 81.154 20.136 81.0953 20.18C81.0367 20.2387 80.9927 20.29 80.9633 20.334C80.9487 20.378 80.956 20.4147 80.9853 20.444C81.0293 20.488 81.1467 20.51 81.3373 20.51C81.396 20.51 81.4693 20.466 81.5573 20.378C81.66 20.3047 81.7113 20.2387 81.7113 20.18C81.7113 20.136 81.682 20.0847 81.6233 20.026C81.5793 19.9673 81.5207 19.9527 81.4473 19.982ZM67.3233 26.098L66.8613 26.274C66.8613 26.3327 66.876 26.384 66.9053 26.428C66.9347 26.4867 66.964 26.5307 66.9933 26.56C67.0227 26.5893 67.0447 26.604 67.0593 26.604C67.162 26.7507 67.2573 26.6847 67.3453 26.406C67.4187 26.186 67.4113 26.0833 67.3233 26.098ZM72.1853 19.19C72.1413 19.19 72.1047 19.2487 72.0753 19.366C72.046 19.4833 72.0387 19.6007 72.0533 19.718C72.068 19.8353 72.0973 19.894 72.1413 19.894C72.1707 19.894 72.2073 19.8427 72.2513 19.74C72.31 19.6373 72.3393 19.564 72.3393 19.52C72.3393 19.3 72.288 19.19 72.1853 19.19ZM94.1413 12.942C94.024 12.942 93.9653 12.81 93.9653 12.546C94.244 12.546 94.3833 12.59 94.3833 12.678C94.3833 12.7073 94.376 12.7367 94.3613 12.766C94.3027 12.8833 94.2293 12.942 94.1413 12.942ZM82.0193 9.972C81.858 9.972 81.7773 9.928 81.7773 9.84C81.7773 9.73733 81.8067 9.67133 81.8653 9.642C81.9387 9.61267 81.99 9.62 82.0193 9.664L82.2833 9.972H82.0193ZM90.9381 13.514C90.9381 13.0007 91.1141 12.5533 91.4661 12.172C91.8034 11.8053 92.5588 11.1673 93.7321 10.258C94.5681 9.642 95.4114 9.334 96.2621 9.334C96.9221 9.334 97.4281 9.59067 97.7801 10.104C97.9121 10.2947 97.9488 10.5513 97.8901 10.874C97.8461 11.182 97.7141 11.3947 97.4941 11.512C97.4061 11.556 97.0174 11.82 96.3281 12.304C95.6534 12.788 95.1181 13.074 94.7221 13.162C94.3848 13.2207 93.9594 13.2207 93.4461 13.162C92.9328 13.1033 92.5514 13.096 92.3021 13.14C92.1554 13.184 92.0894 13.3453 92.1041 13.624C92.1188 13.888 92.1701 14.0713 92.2581 14.174C92.6248 14.5993 93.3434 14.8707 94.4141 14.988C94.8248 15.032 95.8514 14.8853 97.4941 14.548C99.1368 14.196 99.9068 13.8733 99.8041 13.58C99.7748 13.4773 99.5914 13.3307 99.2541 13.14C98.9314 12.9493 98.7334 12.81 98.6601 12.722C98.5134 12.502 98.4768 12.2893 98.5501 12.084C98.6234 11.8787 98.7554 11.688 98.9461 11.512C99.1368 11.3213 99.3494 11.1527 99.5841 11.006C99.8188 10.8447 100.024 10.7127 100.2 10.61C100.259 10.5807 100.303 10.5587 100.332 10.544C101.124 10.0453 102.136 9.796 103.368 9.796C103.735 9.796 104.021 9.81067 104.226 9.84C104.446 9.86933 104.673 9.96467 104.908 10.126C105.143 10.2727 105.319 10.5 105.436 10.808C105.407 10.8227 105.363 10.83 105.304 10.83C105.245 10.8153 105.216 10.83 105.216 10.874C105.216 10.8887 105.223 10.94 105.238 11.028C105.253 11.1013 105.253 11.1527 105.238 11.182C105.179 11.2993 105.143 11.358 105.128 11.358V11.292C105.128 11.2333 105.121 11.1673 105.106 11.094C105.091 11.0207 105.062 10.9473 105.018 10.874C104.974 10.8007 104.893 10.7347 104.776 10.676C104.673 10.6173 104.541 10.5807 104.38 10.566C103.984 10.5367 103.654 10.5807 103.39 10.698C103.361 10.7127 103.302 10.654 103.214 10.522C103.141 10.39 103.031 10.28 102.884 10.192C102.752 10.0893 102.598 10.082 102.422 10.17C102.349 10.214 102.327 10.3607 102.356 10.61C102.385 10.8593 102.371 10.984 102.312 10.984C102.253 11.0133 102.055 11.094 101.718 11.226C101.395 11.3433 101.139 11.446 100.948 11.534C100.757 11.622 100.552 11.7467 100.332 11.908C100.127 12.0693 99.9874 12.238 99.9141 12.414C100.002 12.414 100.229 12.4947 100.596 12.656C100.963 12.8027 101.241 12.876 101.432 12.876C101.549 12.876 101.659 12.8467 101.762 12.788C101.835 12.744 101.997 12.634 102.246 12.458C102.495 12.282 102.701 12.1573 102.862 12.084C103.038 11.996 103.229 11.9373 103.434 11.908C103.434 12.1133 103.375 12.2893 103.258 12.436C103.155 12.568 102.987 12.7147 102.752 12.876C102.517 13.0227 102.363 13.1327 102.29 13.206C102.627 13.2353 103.104 13.404 103.72 13.712C104.351 14.0053 104.666 14.3133 104.666 14.636C104.681 14.8413 104.49 15.0247 104.094 15.186C103.698 15.3327 103.302 15.428 102.906 15.472C102.525 15.516 102.202 15.538 101.938 15.538C101.791 15.538 101.542 15.56 101.19 15.604C100.853 15.6333 100.596 15.648 100.42 15.648C100.112 15.648 99.8554 15.6113 99.6501 15.538C99.1661 15.3767 99.1514 15.142 99.6061 14.834C100.046 14.5407 100.515 14.394 101.014 14.394C101.454 14.394 101.623 14.5627 101.52 14.9C102.576 14.9 102.869 14.6947 102.4 14.284C102.297 14.196 102.092 14.1007 101.784 13.998C101.491 13.8953 101.234 13.844 101.014 13.844C100.838 13.844 100.721 13.8733 100.662 13.932C100.251 14.284 99.2248 14.746 97.5821 15.318C95.9541 15.8753 94.7954 16.1027 94.1061 16L92.5221 15.538C92.0381 15.45 91.6494 15.208 91.3561 14.812C91.0774 14.416 90.9381 13.9833 90.9381 13.514ZM94.2601 11.182C94.1428 11.2113 93.9594 11.336 93.7101 11.556C93.4754 11.776 93.3654 11.9447 93.3801 12.062C93.3948 12.1207 93.4681 12.15 93.6001 12.15C94.0694 12.15 94.6854 11.9593 95.4481 11.578C96.2108 11.182 96.6068 10.808 96.6361 10.456C96.3428 10.3827 96.0201 10.4487 95.6681 10.654C95.6094 10.6833 95.5508 10.676 95.4921 10.632C95.4481 10.588 95.3968 10.5293 95.3381 10.456C95.2794 10.368 95.2354 10.3093 95.2061 10.28C94.9861 10.0747 94.8394 9.972 94.7661 9.972C94.6781 10.0013 94.6561 10.0967 94.7001 10.258C94.7441 10.4047 94.7368 10.588 94.6781 10.808C94.6341 11.0133 94.4948 11.138 94.2601 11.182ZM104.116 11.93C104.087 11.9447 104.021 11.9447 103.918 11.93C103.83 11.9007 103.786 11.8787 103.786 11.864C103.859 11.732 104.087 11.5707 104.468 11.38C104.629 11.292 104.71 11.2847 104.71 11.358C104.71 11.3727 104.703 11.3947 104.688 11.424C104.527 11.7027 104.336 11.8713 104.116 11.93ZM107.734 16.44C107.573 16.44 107.441 16.3227 107.338 16.088C107.235 15.8533 107.323 15.3473 107.602 14.57C107.881 13.7927 108.123 13.228 108.328 12.876C109.076 11.5707 109.45 10.9033 109.45 10.874C109.083 10.874 108.614 10.8007 108.042 10.654C107.47 10.4927 107.213 10.2507 107.272 9.928L107.36 9.51C107.419 9.202 107.683 9.048 108.152 9.048C108.357 9.048 108.555 9.12867 108.746 9.29C108.819 9.36333 108.812 9.444 108.724 9.532C108.636 9.60533 108.599 9.65667 108.614 9.686C108.746 9.84733 108.944 9.928 109.208 9.928C109.487 9.928 109.795 9.84733 110.132 9.686C110.484 9.52467 110.719 9.36333 110.836 9.202C110.895 9.12867 111.085 8.84267 111.408 8.344C111.745 7.83067 111.987 7.464 112.134 7.244C112.295 7.024 112.523 6.716 112.816 6.32C113.109 5.924 113.373 5.594 113.608 5.33C113.857 5.05133 114.107 4.80933 114.356 4.604C114.62 4.384 114.899 3.988 115.192 3.416C115.485 2.82933 115.735 2.45533 115.94 2.294C115.969 2.382 116.094 2.46267 116.314 2.536C116.549 2.59467 116.637 2.70467 116.578 2.866C116.563 2.89533 116.505 3.07867 116.402 3.416C116.299 3.75333 116.16 4.076 115.984 4.384C115.823 4.692 115.603 4.956 115.324 5.176C114.635 5.68933 113.777 6.81867 112.75 8.564C112.281 9.268 111.98 9.67867 111.848 9.796C112.479 9.796 113.087 9.87667 113.674 10.038C114.261 10.1993 114.796 10.4927 115.28 10.918C115.779 11.3433 116.072 11.864 116.16 12.48C116.219 12.9493 116.16 13.6167 115.984 14.482C115.808 15.3473 115.588 15.9413 115.324 16.264C115.295 16.2933 115.243 16.33 115.17 16.374C115.111 16.4327 115.06 16.484 115.016 16.528C114.972 16.572 114.95 16.6307 114.95 16.704C114.51 16.6307 114.29 16.3813 114.29 15.956C114.29 15.7213 114.393 15.34 114.598 14.812C114.818 14.2693 114.928 13.91 114.928 13.734C114.928 13.602 114.935 13.448 114.95 13.272C114.965 13.0813 114.972 12.9493 114.972 12.876C114.972 12.2893 114.627 11.8127 113.938 11.446C113.249 11.0647 112.581 10.874 111.936 10.874C111.291 10.874 110.829 11.0427 110.55 11.38C110.286 11.6733 109.985 12.1353 109.648 12.766C109.311 13.3967 109.127 13.734 109.098 13.778C109.098 13.7927 108.995 13.954 108.79 14.262C108.585 14.5553 108.431 14.8047 108.328 15.01C108.225 15.2007 108.167 15.362 108.152 15.494C108.152 15.6113 108.181 15.692 108.24 15.736C108.299 15.78 108.35 15.802 108.394 15.802C108.438 15.802 108.438 15.8533 108.394 15.956C108.203 16.2787 107.983 16.44 107.734 16.44ZM120.934 3.988C120.934 3.79733 121.103 3.65067 121.44 3.548C121.777 3.43067 122.041 3.40133 122.232 3.46C122.423 3.51867 122.577 3.702 122.694 4.01C122.826 4.318 122.775 4.54533 122.54 4.692C122.335 4.79467 122.012 4.76533 121.572 4.604C121.147 4.428 120.934 4.22267 120.934 3.988ZM116.93 1.766C116.886 1.97133 116.805 2.074 116.688 2.074C116.483 2.074 116.365 1.898 116.336 1.546C116.351 1.546 116.387 1.53133 116.446 1.502C116.505 1.47267 116.549 1.458 116.578 1.458C116.681 1.458 116.769 1.48733 116.842 1.546C116.915 1.60467 116.945 1.678 116.93 1.766ZM119.957 14.262C119.517 13.9393 119.297 13.536 119.297 13.052C119.297 12.392 119.62 11.6733 120.265 10.896C120.911 10.104 121.541 9.62 122.157 9.444C122.201 9.42933 122.451 9.32667 122.905 9.136C123.375 8.93067 123.727 8.828 123.961 8.828C124.284 8.828 124.497 8.97467 124.599 9.268C124.13 9.67867 123.719 9.884 123.367 9.884C123.294 9.884 123.213 9.87667 123.125 9.862C123.037 9.84733 122.964 9.84 122.905 9.84C122.861 9.82533 122.803 9.83267 122.729 9.862C122.656 9.87667 122.583 9.906 122.509 9.95C122.465 10.0087 122.458 10.06 122.487 10.104C122.531 10.1333 122.59 10.192 122.663 10.28C122.751 10.3533 122.803 10.4193 122.817 10.478C122.744 10.5073 122.663 10.566 122.575 10.654C122.502 10.7273 122.436 10.7713 122.377 10.786C122.099 10.918 121.71 11.2407 121.211 11.754C120.727 12.2527 120.485 12.656 120.485 12.964C120.485 13.2867 120.764 13.448 121.321 13.448C121.527 13.3893 121.688 13.338 121.805 13.294C121.937 13.25 122.062 13.1987 122.179 13.14C122.297 13.0667 122.377 13.0153 122.421 12.986C122.48 12.9567 122.583 12.8833 122.729 12.766C122.876 12.634 122.993 12.5387 123.081 12.48C123.257 12.3333 123.382 12.0913 123.455 11.754C123.529 11.402 123.587 11.182 123.631 11.094C123.998 10.3753 124.548 10.0453 125.281 10.104C125.428 10.1187 125.531 10.1773 125.589 10.28C125.663 10.368 125.699 10.4707 125.699 10.588C125.699 10.6907 125.721 10.786 125.765 10.874C125.809 10.9473 125.883 10.984 125.985 10.984C126.176 10.984 126.506 10.8813 126.975 10.676C127.459 10.4707 127.782 10.3753 127.943 10.39C128.369 10.4487 128.97 10.4193 129.747 10.302C130.539 10.17 131.097 10.104 131.419 10.104C132.475 10.104 133.077 10.346 133.223 10.83C133.282 11.0793 133.297 11.27 133.267 11.402C133.253 11.534 133.216 11.6733 133.157 11.82C133.113 11.9667 133.091 12.0547 133.091 12.084C134.69 11.3067 136.208 10.9327 137.645 10.962C138.423 10.9767 138.951 11.1527 139.229 11.49C139.508 11.8127 139.647 12.3553 139.647 13.118C139.647 13.4847 139.603 13.756 139.515 13.932C139.486 13.976 139.457 14.086 139.427 14.262C139.398 14.438 139.354 14.548 139.295 14.592C139.119 14.6947 139.017 14.8267 138.987 14.988C138.958 15.0907 139.009 15.274 139.141 15.538C139.273 15.802 139.376 16.0073 139.449 16.154C139.537 16.3153 139.537 16.4327 139.449 16.506C139.303 16.55 139.039 16.374 138.657 15.978C138.276 15.5673 138.1 15.3033 138.129 15.186L138.085 14.592C138.1 14.5187 138.151 14.372 138.239 14.152C138.342 13.932 138.43 13.7047 138.503 13.47C138.577 13.2353 138.613 13.0227 138.613 12.832C138.613 12.216 138.181 11.908 137.315 11.908C136.978 11.908 136.597 11.9667 136.171 12.084C135.761 12.2013 135.328 12.348 134.873 12.524C134.419 12.7 134.096 12.81 133.905 12.854C133.715 12.9127 133.465 13.0227 133.157 13.184C132.864 13.3453 132.673 13.492 132.585 13.624C132.409 13.9027 132.27 14.108 132.167 14.24C132.065 14.3573 131.999 14.438 131.969 14.482C131.955 14.5113 131.881 14.5187 131.749 14.504C131.617 14.4893 131.544 14.482 131.529 14.482C131.119 14.4967 131.009 14.1813 131.199 13.536C131.273 13.3307 131.441 12.898 131.705 12.238C131.72 12.194 131.771 12.106 131.859 11.974C131.947 11.842 132.013 11.732 132.057 11.644C132.116 11.556 132.131 11.4607 132.101 11.358C132.087 11.2407 132.013 11.1527 131.881 11.094C131.749 11.0647 131.573 11.0573 131.353 11.072C131.148 11.0867 130.811 11.1087 130.341 11.138C129.872 11.1527 129.505 11.16 129.241 11.16C128.772 11.16 128.479 11.1233 128.361 11.05C128.288 11.0353 128.229 11.0353 128.185 11.05C128.141 11.0647 128.112 11.0793 128.097 11.094C128.097 11.094 128.083 11.116 128.053 11.16C128.024 11.1893 127.995 11.2187 127.965 11.248C127.951 11.2627 127.643 11.38 127.041 11.6C126.455 11.8053 125.824 12.0547 125.149 12.348C124.475 12.6413 124.042 12.898 123.851 13.118C122.986 14.1593 122.106 14.68 121.211 14.68C120.801 14.68 120.383 14.5407 119.957 14.262ZM123.785 13.052C123.741 12.876 123.639 12.788 123.477 12.788C123.316 12.788 123.162 12.8687 123.015 13.03C122.883 13.1913 122.869 13.3233 122.971 13.426C123.045 13.4847 123.125 13.514 123.213 13.514C123.316 13.514 123.426 13.4407 123.543 13.294C123.675 13.1473 123.756 13.0667 123.785 13.052ZM125.281 11.6C125.252 11.644 125.281 11.7027 125.369 11.776C125.472 11.8493 125.553 11.886 125.611 11.886L126.117 11.71C125.839 11.5927 125.626 11.534 125.479 11.534C125.391 11.534 125.325 11.556 125.281 11.6Z" fill="#D96E34"/>
</svg>
