<svg width="80px" height="27px" viewBox="0 0 573 194" fill="none" xmlns="http://www.w3.org/2000/svg">
<path d="M65.8483 60.9693C39.3975 60.9693 24.4066 76.078 18.9554 86.1505V1.33276H0V189.025H16.4156V165.134C20.6899 172.688 35.4949 194 64.5474 194C99.6087 194 124.139 166.669 124.139 127.485C124.139 89.5285 99.1132 60.9693 65.8483 60.9693ZM63.3085 177.663C41.5036 177.663 18.8934 158.869 18.8934 127.423C18.8934 95.9773 41.4417 77.1835 63.3085 77.1835C83.5028 77.1835 105.184 92.9065 105.184 127.423C105.246 162.001 83.5028 177.663 63.3085 177.663Z" fill="black"/>
<path d="M267.73 60.967C231.429 60.967 206.032 88.2979 206.032 127.482C206.032 166.667 231.553 193.998 268.163 193.998C299.074 193.998 320.445 177.538 325.277 149.961L325.401 149.163H308.056L307.994 149.777C305.64 166.483 289.596 177.722 268.101 177.722C236.385 177.722 224.182 153.585 223.253 130.676H327.507V122.508C327.631 92.72 311.897 60.967 267.73 60.967ZM224.182 115.567C226.412 103.407 234.96 77.2427 267.792 77.2427C302.233 77.2427 308.676 105.618 309.853 115.567H224.182Z" fill="black"/>
<path d="M403.206 60.967C366.906 60.967 341.508 88.2979 341.508 127.482C341.508 166.667 367.029 193.998 403.639 193.998C434.55 193.998 455.922 177.538 460.753 149.961L460.877 149.163H443.532L443.47 149.777C441.117 166.483 425.073 177.722 403.577 177.722C371.861 177.722 359.658 153.585 358.729 130.676H462.983V122.508C463.045 92.72 447.373 60.967 403.206 60.967ZM359.596 115.567C361.826 103.407 370.375 77.2427 403.206 77.2427C437.648 77.2427 444.09 105.618 445.267 115.567H359.596Z" fill="black"/>
<path d="M560.983 164.39C553.921 164.39 548.779 169.549 548.779 176.674C548.779 183.798 553.859 188.957 560.797 188.957C567.982 188.957 573 183.921 573 176.674C573 169.427 568.044 164.39 560.983 164.39Z" fill="black"/>
<path d="M176.546 66.864C168.121 73.1286 164.714 78.9632 160.811 86.579V76.6908L160.749 64.1616H143.219L142.847 189.024H161.679L161.555 148.857L161.493 117.902C161.493 112.804 161.307 107.522 162.794 102.425C164.156 97.3885 166.882 92.7208 170.537 88.9743C178.032 81.4199 190.545 78.9632 200.704 79.7617V61.4592C193.395 60.108 184.722 60.845 176.546 66.864Z" fill="black"/>
<path d="M522.945 27.2522C525.609 23.0144 530.007 19.6364 535.087 18.0395C538.927 16.8112 543.263 16.3199 548.219 16.4427L548.157 0.228432C540.662 -0.385744 533.848 0.228432 527.901 2.1938C521.087 4.40483 514.768 8.64265 510.184 14.2317C505.91 19.4522 502.875 26.0238 501.264 33.8853C499.654 41.194 499.53 48.8712 499.592 56.0571V66.3752H472.026V80.9926H499.592V189.026H518.052V80.9926H548.095V66.3752H518.114L518.052 56.3027V56.1185C517.99 51.3279 518.052 47.2129 518.671 41.5011C519.105 36.9562 520.034 31.6743 522.945 27.2522Z" fill="black"/>
</svg>
