<svg width="150" height="24" viewBox="0 0 150 24" fill="none" xmlns="http://www.w3.org/2000/svg">
<path d="M0.022 4.932C0.022 4.624 0.234667 4.47733 0.66 4.492C0.748 4.59467 0.924 4.69 1.188 4.778C1.46667 4.85133 1.73067 4.888 1.98 4.888C2.31733 4.888 2.51533 4.80733 2.574 4.646C2.618 4.52867 2.464 4.28667 2.112 3.92C1.76 3.53867 1.56933 3.28933 1.54 3.172C1.64267 3.084 1.72333 2.96667 1.782 2.82C1.84067 2.65867 1.88467 2.52667 1.914 2.424C1.958 2.30667 2.01667 2.248 2.09 2.248C2.20733 2.248 2.45667 2.46067 2.838 2.886C3.234 3.29667 3.49067 3.59 3.608 3.766C3.72533 3.942 3.828 4.03 3.916 4.03C3.98933 4.03 4.114 3.91267 4.29 3.678C4.43667 3.502 4.62 3.22333 4.84 2.842C5.06 2.446 5.22133 2.182 5.324 2.05C5.42667 1.90333 5.64667 1.72733 5.984 1.522C5.99867 1.50733 6.02067 1.522 6.05 1.566C6.07933 1.59533 6.10867 1.63933 6.138 1.698C6.16733 1.75667 6.19667 1.81533 6.226 1.874C6.25533 1.93267 6.292 1.984 6.336 2.028C6.38 2.072 6.424 2.094 6.468 2.094C6.57067 2.094 6.65867 1.984 6.732 1.764C6.776 1.632 6.67333 1.522 6.424 1.434C6.18933 1.33133 6.072 1.258 6.072 1.214C6.08667 1.02333 6.182 0.876666 6.358 0.773999C6.534 0.656666 6.72467 0.642 6.93 0.729999C7.282 0.905999 7.282 1.28733 6.93 1.874C6.85667 1.97667 6.68067 2.204 6.402 2.556C6.138 2.908 5.90333 3.238 5.698 3.546C5.49267 3.854 5.36067 4.096 5.302 4.272C5.698 4.24267 6.35067 4.08867 7.26 3.81C7.72933 3.69267 8.04467 3.67067 8.206 3.744C8.426 3.81733 8.46267 3.90533 8.316 4.008C8.16933 4.11067 8.118 4.19133 8.162 4.25C8.25 4.35267 8.15467 4.46267 7.876 4.58C7.612 4.69733 7.28933 4.80733 6.908 4.91C6.54133 5.01267 6.336 5.07867 6.292 5.108C6.23333 5.152 6.07933 5.196 5.83 5.24C5.58067 5.284 5.39 5.34267 5.258 5.416C5.14067 5.48933 5.13333 5.592 5.236 5.724C5.632 6.32533 5.86667 6.72133 5.94 6.912C6.05733 7.19067 6.01333 7.33 5.808 7.33C5.632 7.33 5.39 7.25667 5.082 7.11C4.78867 6.94867 4.598 6.824 4.51 6.736C4.45133 6.66267 4.378 6.56733 4.29 6.45C4.21667 6.318 4.15067 6.22267 4.092 6.164C4.048 6.10533 3.99667 6.076 3.938 6.076C3.86467 6.076 3.762 6.164 3.63 6.34C3.60067 6.39867 3.454 6.55267 3.19 6.802C2.94067 7.05133 2.80867 7.264 2.794 7.44C2.77933 7.71867 2.684 7.95333 2.508 8.144C2.34667 8.33467 2.19267 8.43 2.046 8.43C1.88467 8.43 1.81867 8.342 1.848 8.166C1.87733 7.79933 1.97267 7.44733 2.134 7.11C2.14867 7.066 2.20733 6.94867 2.31 6.758C2.42733 6.55267 2.51533 6.384 2.574 6.252C2.63267 6.12 2.66933 5.988 2.684 5.856C2.39067 5.9 2.112 5.922 1.848 5.922C1.48133 5.922 1.08533 5.84133 0.66 5.68C0.234667 5.504 0.022 5.25467 0.022 4.932ZM9.79017 12.478C9.49684 12.1113 9.39417 11.6493 9.48217 11.092C9.55551 11.048 9.65084 11.026 9.76817 11.026C9.88551 11.026 10.0688 11.0627 10.3182 11.136C10.5675 11.1947 10.7362 11.224 10.8242 11.224C10.9855 11.224 11.0662 11.1507 11.0662 11.004C11.0662 10.8573 11.1102 10.7767 11.1982 10.762C11.2422 10.762 11.2788 10.784 11.3082 10.828C11.3522 10.8867 11.3742 10.938 11.3742 10.982C11.3888 11.026 11.3815 11.07 11.3522 11.114C11.3375 11.1433 11.3082 11.1727 11.2642 11.202C11.2202 11.2313 11.1615 11.268 11.0882 11.312C11.0295 11.3413 10.9708 11.3707 10.9122 11.4C10.8535 11.4147 10.7802 11.444 10.6922 11.488C10.6042 11.5173 10.5382 11.5393 10.4942 11.554C10.5382 11.8033 10.7362 12.0307 11.0882 12.236C11.4548 12.4413 11.7922 12.5733 12.1002 12.632C12.1735 12.6467 12.2322 12.6613 12.2762 12.676C12.3348 12.676 12.3862 12.676 12.4302 12.676C12.4888 12.6613 12.5328 12.654 12.5622 12.654C12.5915 12.654 12.6208 12.6467 12.6502 12.632C12.6942 12.6027 12.7235 12.5807 12.7382 12.566C12.7675 12.5513 12.7968 12.522 12.8262 12.478C12.8555 12.4193 12.8775 12.3827 12.8922 12.368C12.9068 12.3387 12.9362 12.2873 12.9802 12.214C13.0242 12.1407 13.0535 12.0893 13.0682 12.06C13.1268 11.972 13.3468 11.5833 13.7282 10.894C14.1095 10.2047 14.4468 9.728 14.7402 9.464C15.0775 9.18533 15.4075 8.76 15.7302 8.188C15.9208 7.89467 16.3388 7.42533 16.9842 6.78L17.1822 6.56C17.3142 6.41333 17.3875 6.33267 17.4022 6.318C17.4315 6.30333 17.4975 6.23733 17.6002 6.12C17.7175 5.988 17.7982 5.90733 17.8422 5.878C17.8862 5.84867 17.9595 5.79 18.0622 5.702C18.1648 5.59933 18.2455 5.53333 18.3042 5.504C18.3775 5.47467 18.4655 5.43067 18.5682 5.372C18.6708 5.29867 18.7662 5.24733 18.8542 5.218C18.9568 5.18867 19.0595 5.15933 19.1622 5.13C19.5875 5.07133 19.8002 5.22533 19.8002 5.592C19.8002 5.87067 19.6755 6.098 19.4262 6.274C19.4115 6.15667 19.3528 6.098 19.2502 6.098C19.1622 6.08333 19.0595 6.098 18.9422 6.142C18.8395 6.17133 18.7295 6.14933 18.6122 6.076C18.5828 6.06133 18.5682 6.02467 18.5682 5.966C18.5682 5.922 18.5608 5.90733 18.5462 5.922L18.5242 6.692C18.4802 6.72133 18.3848 6.78733 18.2382 6.89C18.0915 6.99267 17.9742 7.07333 17.8862 7.132C17.8128 7.19067 17.7102 7.27867 17.5782 7.396C17.4608 7.51333 17.4022 7.60133 17.4022 7.66C17.4022 7.71867 17.4168 7.792 17.4462 7.88L18.1062 7.286C18.1502 7.31533 18.0988 7.418 17.9522 7.594C17.8202 7.77 17.6735 7.93867 17.5122 8.1C17.3508 8.26133 17.2555 8.342 17.2262 8.342C16.9475 8.342 16.7348 8.452 16.5882 8.672C16.4708 8.848 16.2215 9.156 15.8402 9.596C15.4588 10.036 15.2095 10.3953 15.0922 10.674C14.9308 11.0113 14.6522 11.51 14.2562 12.17C14.1975 12.2433 14.1388 12.3167 14.0802 12.39C14.0215 12.4633 13.9775 12.5147 13.9482 12.544C13.9335 12.5733 13.9115 12.6247 13.8822 12.698C13.8675 12.7713 13.8602 12.874 13.8602 13.006C14.3148 13.094 14.9015 13.1233 15.6202 13.094C16.3095 13.0647 16.8888 12.9767 17.3582 12.83C17.6222 12.7713 17.8788 12.742 18.1282 12.742C18.3922 12.7273 18.5682 12.7127 18.6562 12.698C18.7588 12.6687 18.8908 12.5807 19.0522 12.434C19.2135 12.2873 19.4115 12.0307 19.6462 11.664C20.4675 10.52 21.7068 9.09 23.3642 7.374C23.6868 7.11 23.8775 6.96333 23.9362 6.934C24.0242 6.87533 24.0828 6.79467 24.1122 6.692C24.1562 6.57467 24.2075 6.48667 24.2662 6.428C24.3395 6.36933 24.4422 6.30333 24.5742 6.23C24.7208 6.142 24.8382 6.06133 24.9262 5.988C25.0142 5.91467 25.0582 5.82667 25.0582 5.724C25.0728 5.56267 25.1975 5.36467 25.4322 5.13C25.6815 4.88067 25.9015 4.756 26.0922 4.756C26.2535 4.756 26.3562 4.87333 26.4002 5.108C26.4148 5.24 26.3048 5.49667 26.0702 5.878C25.8502 6.25933 25.6668 6.516 25.5202 6.648C25.2855 6.88267 25.0215 7.11 24.7282 7.33C24.6402 7.38867 24.5082 7.55733 24.3322 7.836C24.1562 8.11467 24.0168 8.298 23.9142 8.386C23.0342 9.14867 22.5135 9.71333 22.3522 10.08C22.3082 10.168 22.1908 10.3147 22.0002 10.52C21.8242 10.7107 21.6922 10.8353 21.6042 10.894C21.5455 10.938 21.5088 10.9893 21.4942 11.048C21.4942 11.1067 21.4575 11.158 21.3842 11.202C21.3548 11.2313 21.3035 11.268 21.2302 11.312C21.1715 11.3413 21.1202 11.378 21.0762 11.422C21.0322 11.4513 21.0028 11.488 20.9882 11.532C20.9882 11.664 20.9075 11.7887 20.7462 11.906C20.5848 12.0233 20.4968 12.0893 20.4822 12.104L19.1182 14.194C19.0742 14.2673 19.0302 14.3847 18.9862 14.546C18.9568 14.7073 18.9055 14.832 18.8322 14.92C18.7295 15.0227 18.6488 15.1693 18.5902 15.36C18.7662 15.3013 19.0668 15.1913 19.4922 15.03C19.9175 14.854 20.2842 14.7293 20.5922 14.656C20.7975 14.612 20.9808 14.59 21.1422 14.59C21.8608 14.59 22.1615 15.03 22.0442 15.91C22.0148 16.13 22.0295 16.35 22.0882 16.57C22.1615 16.79 22.2715 16.922 22.4182 16.966C22.6675 17.054 23.0928 16.988 23.6942 16.768C24.2368 16.592 24.6622 16.416 24.9702 16.24C25.1462 16.152 25.3515 16.108 25.5862 16.108C25.7035 16.108 25.8648 16.1227 26.0702 16.152C26.2902 16.1813 26.4442 16.196 26.5322 16.196V16.372C26.5322 16.592 26.2755 16.7533 25.7622 16.856C25.2488 16.9587 24.9335 17.076 24.8162 17.208C24.6255 17.4427 24.0462 17.6627 23.0782 17.868C22.6382 17.956 22.2715 17.956 21.9782 17.868C21.6995 17.7653 21.4942 17.582 21.3622 17.318C21.2302 17.0393 21.1348 16.768 21.0762 16.504C21.0322 16.24 21.0028 15.91 20.9882 15.514C20.8415 15.5287 20.4968 15.6313 19.9542 15.822C19.4262 16.0127 19.0962 16.152 18.9642 16.24C18.8762 16.3133 18.7222 16.3793 18.5022 16.438C18.2968 16.482 18.1502 16.548 18.0622 16.636C17.8715 16.7827 17.6662 16.812 17.4462 16.724C17.1822 16.5773 17.0502 16.394 17.0502 16.174C17.0502 15.9393 17.1528 15.668 17.3582 15.36C17.4315 15.228 17.5855 14.9273 17.8202 14.458C18.0548 13.9887 18.2528 13.6513 18.4142 13.446C18.1648 13.446 17.7982 13.5413 17.3142 13.732C16.8302 13.908 16.4488 13.996 16.1702 13.996C15.8328 13.9813 15.4368 14.0253 14.9822 14.128C14.8942 14.1573 14.7328 14.1573 14.4982 14.128C14.2782 14.0987 14.1242 14.084 14.0362 14.084C13.8308 14.084 13.6988 14.0913 13.6402 14.106C13.5815 14.1207 13.5375 14.1647 13.5082 14.238C13.4788 14.3113 13.4422 14.3773 13.3982 14.436C13.3395 14.5093 13.2368 14.568 13.0902 14.612C12.9435 14.6413 12.8482 14.7293 12.8042 14.876C12.7895 14.9787 12.7748 15.1327 12.7602 15.338C12.7455 15.5433 12.7235 15.7047 12.6942 15.822C12.4888 16.4233 12.4155 17.0173 12.4742 17.604C12.5475 17.648 12.6208 17.7287 12.6942 17.846C12.7675 17.9487 12.8555 18.0147 12.9582 18.044C13.3248 18.132 13.5302 18.198 13.5742 18.242C13.4275 18.242 13.2662 18.3153 13.0902 18.462C12.9288 18.6087 12.7528 18.6527 12.5622 18.594C12.1222 18.4767 11.8068 18.2127 11.6162 17.802C11.4695 17.5233 11.3962 17.2153 11.3962 16.878C11.3962 16.526 11.4915 16.0273 11.6822 15.382C11.8875 14.722 12.0048 14.2453 12.0342 13.952C12.0488 13.864 11.8728 13.754 11.5062 13.622C11.1395 13.49 10.9415 13.3947 10.9122 13.336C10.8535 13.2333 10.7508 13.1673 10.6042 13.138C10.4575 13.094 10.3622 13.05 10.3182 13.006C10.1422 12.8887 9.96617 12.7127 9.79017 12.478ZM25.6082 5.944C25.7988 5.66533 25.8208 5.526 25.6742 5.526C25.4982 5.526 25.3368 5.658 25.1902 5.922C25.2048 5.922 25.2415 5.93667 25.3002 5.966C25.3735 5.99533 25.4248 6.01733 25.4542 6.032C25.4982 6.032 25.5495 6.00267 25.6082 5.944ZM24.6182 6.45C24.5888 6.46467 24.5522 6.52333 24.5082 6.626C24.4642 6.714 24.4495 6.77267 24.4642 6.802C24.7135 6.67 24.8455 6.52333 24.8602 6.362C24.8602 6.318 24.8455 6.296 24.8162 6.296C24.7868 6.296 24.7208 6.34733 24.6182 6.45ZM28.1734 17.274C27.7334 16.9807 27.5721 16.5773 27.6894 16.064C27.8067 15.5507 27.9974 15.0813 28.2614 14.656C28.5401 14.2307 28.8114 13.9153 29.0754 13.71C29.1341 13.666 29.2074 13.556 29.2954 13.38C29.3981 13.204 29.4567 13.1087 29.4714 13.094C29.8234 12.698 30.1387 12.4413 30.4174 12.324C30.5201 12.28 30.5714 12.192 30.5714 12.06C30.5714 11.928 30.5861 11.862 30.6154 11.862C30.6594 11.862 30.7547 11.906 30.9014 11.994C31.0774 12.1407 31.1434 12.3093 31.0994 12.5C31.0554 12.676 30.9307 12.8227 30.7254 12.94C30.5934 13.0133 30.4687 13.1307 30.3514 13.292C30.2487 13.4533 30.1461 13.6293 30.0434 13.82C29.9407 14.0107 29.8674 14.1353 29.8234 14.194C29.7207 14.3407 29.6107 14.502 29.4934 14.678C29.3907 14.8393 29.2734 15.052 29.1414 15.316C29.0094 15.58 28.9581 15.8 28.9874 15.976C29.0167 16.1373 29.1414 16.218 29.3614 16.218L30.7914 15.91C31.4074 15.7047 31.8254 15.602 32.0454 15.602C32.2361 15.602 32.6467 15.2867 33.2774 14.656C33.3361 14.612 33.3874 14.5093 33.4314 14.348C33.4901 14.1867 33.5341 14.04 33.5634 13.908L33.6074 13.71C33.6074 13.5047 33.7101 13.2993 33.9154 13.094C33.9594 13.05 34.0181 12.9987 34.0914 12.94C34.1647 12.8667 34.2161 12.8153 34.2454 12.786C34.3334 12.698 34.4361 12.654 34.5534 12.654C34.7587 12.654 34.9054 12.7493 34.9934 12.94C34.9347 12.94 34.8321 13.0207 34.6854 13.182C34.5387 13.3287 34.4361 13.4607 34.3774 13.578C34.3627 13.666 34.3481 13.732 34.3334 13.776C34.3187 13.82 34.3407 13.8493 34.3994 13.864C34.4727 13.8787 34.5241 13.8933 34.5534 13.908C34.5974 13.908 34.6561 13.908 34.7294 13.908C34.8027 13.8933 34.8467 13.886 34.8614 13.886C34.9054 13.7393 34.9934 13.6147 35.1254 13.512C35.2721 13.4093 35.4481 13.3067 35.6534 13.204C35.8734 13.1013 36.0274 13.0133 36.1154 12.94C36.2474 12.8373 36.4527 12.786 36.7314 12.786C36.7314 12.39 36.6287 12.192 36.4234 12.192C36.3941 12.192 36.1301 12.28 35.6314 12.456C35.6167 12.5147 35.4774 12.5293 35.2134 12.5C34.9494 12.4707 34.7807 12.456 34.7074 12.456C34.7074 12.1187 34.8981 11.884 35.2794 11.752C35.6754 11.6053 36.0567 11.532 36.4234 11.532C36.7314 11.532 36.9367 11.5833 37.0394 11.686C37.5087 12.2287 37.5601 12.6467 37.1934 12.94C36.4454 13.4827 35.9761 13.8493 35.7854 14.04C35.7707 14.0547 35.7047 14.0987 35.5874 14.172C35.4701 14.2453 35.3674 14.326 35.2794 14.414C35.2061 14.4873 35.1694 14.568 35.1694 14.656C35.2427 14.656 35.3747 14.6853 35.5654 14.744C35.7707 14.8027 35.9027 14.854 35.9614 14.898C36.0641 15.0007 36.4747 15.228 37.1934 15.58C37.9121 15.9173 38.3521 16.1667 38.5134 16.328C38.6601 16.4893 38.6087 16.746 38.3594 17.098C38.1247 17.45 37.9487 17.626 37.8314 17.626C37.7727 17.626 37.7214 17.6333 37.6774 17.648C37.6481 17.648 37.6187 17.6553 37.5894 17.67C37.5601 17.67 37.5307 17.6847 37.5014 17.714C37.4721 17.7287 37.4501 17.7433 37.4354 17.758C37.4207 17.7727 37.3914 17.8093 37.3474 17.868C37.3034 17.912 37.2741 17.9413 37.2594 17.956C37.1421 18.088 36.8047 18.176 36.2474 18.22C35.6901 18.2787 35.3821 18.3447 35.3234 18.418C35.1474 18.594 34.9347 18.682 34.6854 18.682C34.5094 18.682 34.2234 18.6087 33.8274 18.462C33.4314 18.33 33.1454 18.264 32.9694 18.264C32.8667 18.264 32.7127 18.1613 32.5074 17.956C32.3314 17.7653 32.2874 17.5013 32.3754 17.164C32.4634 16.8267 32.6321 16.658 32.8814 16.658C33.0134 16.658 33.1454 16.7167 33.2774 16.834C33.3801 16.9367 33.4241 16.988 33.4094 16.988C33.4094 16.988 33.3874 16.988 33.3434 16.988C33.1821 16.944 33.0574 16.9513 32.9694 17.01C32.7934 17.142 32.8741 17.23 33.2114 17.274C33.3287 17.2887 33.5561 17.3107 33.8934 17.34C34.7441 17.384 35.1694 17.4793 35.1694 17.626C34.9494 17.626 34.8394 17.6407 34.8394 17.67C34.8394 17.6993 34.8907 17.7433 34.9934 17.802C35.0814 17.846 35.1547 17.8167 35.2134 17.714C35.2867 17.6113 35.3674 17.494 35.4554 17.362C35.5434 17.23 35.6534 17.164 35.7854 17.164C35.9761 17.164 36.1447 17.142 36.2914 17.098C36.4527 17.0393 36.6067 16.966 36.7534 16.878C36.9001 16.7753 36.9954 16.7167 37.0394 16.702C37.0394 16.658 36.9294 16.592 36.7094 16.504C36.5041 16.416 36.2767 16.328 36.0274 16.24C35.7781 16.152 35.6461 16.1007 35.6314 16.086C35.4847 16.0273 35.3381 15.9393 35.1914 15.822C35.0594 15.7047 34.9494 15.6313 34.8614 15.602C34.8027 15.5727 34.6707 15.4847 34.4654 15.338C34.2601 15.1913 34.1281 15.118 34.0694 15.118C33.9227 15.118 33.8054 15.1327 33.7174 15.162C33.6441 15.1767 33.5487 15.2207 33.4314 15.294C33.3141 15.3527 33.2114 15.404 33.1234 15.448C33.0501 15.4773 32.8154 15.6387 32.4194 15.932C32.0234 16.2253 31.7887 16.394 31.7154 16.438C31.4661 16.5847 31.0041 16.7827 30.3294 17.032C29.6547 17.2667 29.1047 17.384 28.6794 17.384C28.4301 17.384 28.2614 17.3473 28.1734 17.274ZM34.9274 6.538C34.9127 6.52333 34.8761 6.494 34.8174 6.45C34.7734 6.39133 34.7367 6.34733 34.7074 6.318C34.6927 6.274 34.6781 6.23 34.6634 6.186C34.6487 6.12733 34.6634 6.076 34.7074 6.032C34.7514 5.988 34.8247 5.944 34.9274 5.9C35.0594 5.84133 35.1987 5.812 35.3454 5.812C35.5947 5.812 35.8221 5.88533 36.0274 6.032C36.2474 6.17867 36.4014 6.34 36.4894 6.516C36.5774 6.67733 36.5847 6.78733 36.5114 6.846C36.4674 6.87533 36.3647 6.89 36.2034 6.89C36.0567 6.89 35.9174 6.88267 35.7854 6.868L35.5654 6.846C35.3747 6.91933 35.2427 6.956 35.1694 6.956C35.0081 6.956 34.9274 6.81667 34.9274 6.538ZM31.6054 11.708C31.5321 11.7813 31.4074 11.818 31.2314 11.818C30.9967 11.818 30.8427 11.7153 30.7694 11.51C31.0041 11.422 31.2021 11.378 31.3634 11.378C31.5101 11.378 31.6054 11.4073 31.6494 11.466C31.6934 11.5247 31.6787 11.6053 31.6054 11.708ZM35.3454 6.582C35.4627 6.64067 35.5654 6.67 35.6534 6.67C35.8441 6.67 35.9394 6.64067 35.9394 6.582C35.9394 6.42067 35.8661 6.34 35.7194 6.34C35.6314 6.34 35.5434 6.36933 35.4554 6.428C35.3821 6.472 35.3454 6.52333 35.3454 6.582ZM29.7574 12.918C29.6547 13.006 29.6474 13.0867 29.7354 13.16C29.7941 13.2187 29.8674 13.204 29.9554 13.116C30.0287 13.0573 30.0507 12.9987 30.0214 12.94C30.0067 12.8813 29.9701 12.852 29.9114 12.852C29.8527 12.852 29.8014 12.874 29.7574 12.918ZM46.2907 22.862C46.2907 22.7887 46.4447 22.5833 46.7527 22.246C47.0461 21.9087 47.1927 21.652 47.1927 21.476C47.1927 21.4027 47.3321 21.1827 47.6107 20.816C47.8894 20.4493 48.0361 20.244 48.0507 20.2C48.1387 20.024 48.3514 19.6353 48.6888 19.034C49.0408 18.4327 49.3488 17.8827 49.6128 17.384C49.8914 16.8853 50.0748 16.526 50.1628 16.306C50.2801 16.0273 50.3388 15.8733 50.3388 15.844C50.3388 15.712 50.3608 15.58 50.4048 15.448C50.4488 15.316 50.5148 15.1767 50.6028 15.03C50.6908 14.8687 50.7568 14.744 50.8008 14.656C50.8301 14.568 50.8668 14.3627 50.9108 14.04C50.9694 13.7027 51.0428 13.446 51.1308 13.27C51.2628 12.962 51.3288 12.8007 51.3288 12.786C51.3288 12.7127 51.3508 12.6613 51.3948 12.632C51.4388 12.6027 51.4828 12.588 51.5268 12.588H51.5928C51.5928 12.3827 51.5121 12.28 51.3508 12.28C51.2774 12.28 51.2408 12.324 51.2408 12.412C51.2408 12.5 51.2334 12.544 51.2188 12.544C51.1308 12.544 51.0281 12.5293 50.9108 12.5C50.8814 12.5293 50.8668 12.5513 50.8668 12.566C50.8668 12.5807 50.8668 12.6027 50.8668 12.632C50.8814 12.6467 50.8961 12.6687 50.9108 12.698C50.9254 12.7273 50.9328 12.7493 50.9328 12.764C50.8154 12.808 50.7201 12.8593 50.6468 12.918C50.4561 12.8887 50.3608 12.8373 50.3608 12.764C50.3608 12.5733 50.4634 12.4413 50.6688 12.368V12.324L50.6468 12.28C50.6468 12.1187 50.7568 11.8767 50.9768 11.554C51.2114 11.2313 51.3948 11.07 51.5268 11.07C51.8348 11.07 52.0841 11.1507 52.2748 11.312C52.4801 11.4587 52.5754 11.6347 52.5608 11.84C52.5608 11.8987 52.5314 11.994 52.4728 12.126C52.4288 12.258 52.4068 12.3533 52.4068 12.412C52.4654 12.5 52.4948 12.5587 52.4948 12.588C52.4948 12.676 52.3921 12.7567 52.1868 12.83C51.9814 12.9033 51.8641 12.962 51.8348 13.006C51.8348 13.1233 51.9301 13.182 52.1208 13.182C52.1501 13.182 52.1794 13.182 52.2088 13.182C52.2381 13.1673 52.2674 13.16 52.2968 13.16C52.3114 13.3067 52.3701 13.38 52.4728 13.38C52.7074 13.38 52.9054 13.3287 53.0668 13.226C53.2281 13.1233 53.4114 12.962 53.6168 12.742C53.8221 12.522 54.0128 12.346 54.1888 12.214C54.5701 11.9353 55.0028 11.664 55.4868 11.4C55.9708 11.1213 56.3008 10.982 56.4768 10.982C56.9608 10.982 57.3861 11.1213 57.7528 11.4C58.1341 11.664 58.3248 11.95 58.3248 12.258C58.3248 12.2727 58.3174 12.2947 58.3028 12.324C58.3028 12.3387 58.3028 12.3533 58.3028 12.368C58.3028 12.412 58.3248 12.544 58.3688 12.764C58.4274 12.984 58.4568 13.1453 58.4568 13.248C58.4568 13.3653 58.4128 13.5267 58.3248 13.732C58.2514 13.9373 58.2148 14.084 58.2148 14.172C58.2148 14.2453 58.3248 14.3113 58.5448 14.37C58.7794 14.4287 59.0508 14.4727 59.3588 14.502C59.6814 14.5313 59.8648 14.5533 59.9088 14.568C59.9381 14.5827 59.9454 14.6193 59.9308 14.678C59.9161 14.7367 59.9234 14.7953 59.9528 14.854C59.9821 14.9127 60.0481 14.942 60.1508 14.942C60.1801 14.942 60.2388 14.898 60.3268 14.81C60.4294 14.7073 60.5028 14.656 60.5468 14.656C60.7228 14.656 61.0308 14.7293 61.4708 14.876C61.6321 14.876 61.7714 14.81 61.8888 14.678C62.0208 14.5313 62.1381 14.4433 62.2408 14.414C62.2994 14.2673 62.3728 14.15 62.4608 14.062C62.5634 13.974 62.7321 13.864 62.9668 13.732C63.2014 13.5853 63.3408 13.4973 63.3848 13.468C63.4288 13.4387 63.5021 13.3727 63.6048 13.27C63.7074 13.1673 63.8028 13.1013 63.8908 13.072C64.4188 12.9547 64.7854 12.896 64.9908 12.896C65.1081 12.896 65.2034 12.9107 65.2768 12.94C65.3501 12.9693 65.4234 13.006 65.4968 13.05C65.5701 13.094 65.6361 13.1233 65.6948 13.138C65.7094 13.138 65.7388 13.138 65.7828 13.138C65.8268 13.1233 65.8634 13.116 65.8928 13.116C66.0688 13.116 66.2154 13.1893 66.3328 13.336C66.4501 13.468 66.5088 13.6073 66.5088 13.754C66.5088 13.9007 66.3548 14.106 66.0468 14.37C65.7388 14.634 65.5774 14.898 65.5628 15.162C65.4161 15.1913 65.2914 15.2793 65.1888 15.426C65.1008 15.558 65.0054 15.7707 64.9028 16.064L64.7488 16.526C64.6314 16.8193 64.5728 17.0247 64.5728 17.142C64.5728 17.7287 64.7781 18.022 65.1888 18.022C65.2181 18.022 65.3794 17.9633 65.6728 17.846C65.8781 17.758 66.1421 17.714 66.4648 17.714C66.6701 17.714 66.7728 17.7653 66.7728 17.868C66.7728 17.8973 66.7581 17.9267 66.7288 17.956C66.6994 17.9707 66.6554 17.9853 66.5968 18C66.5381 18 66.5014 18.0073 66.4868 18.022C66.4574 18.0367 66.3694 18.11 66.2228 18.242C66.0908 18.3887 65.9148 18.4987 65.6948 18.572C65.4894 18.66 65.2254 18.704 64.9028 18.704C64.5214 18.704 64.1694 18.5867 63.8468 18.352C63.5388 18.132 63.3848 17.8387 63.3848 17.472C63.3848 17.384 63.4068 17.2593 63.4508 17.098C63.4948 16.9367 63.5168 16.8193 63.5168 16.746C63.5168 16.614 63.4948 16.5333 63.4508 16.504C63.3921 16.4747 63.3408 16.4747 63.2968 16.504C63.2528 16.5333 63.2014 16.5847 63.1428 16.658C63.0841 16.7313 63.0474 16.7753 63.0328 16.79C62.5341 16.8487 62.2774 16.9953 62.2628 17.23C62.0721 17.3767 61.8228 17.516 61.5148 17.648C61.2068 17.78 60.9501 17.846 60.7448 17.846C60.5248 17.846 60.3268 17.7947 60.1508 17.692C59.9748 17.5893 59.8868 17.45 59.8868 17.274C59.8868 16.966 60.0114 16.7167 60.2608 16.526C60.7741 16.1007 61.0308 15.7487 61.0308 15.47C61.0308 15.382 60.9794 15.338 60.8768 15.338C60.8474 15.338 60.8034 15.3453 60.7448 15.36C60.6861 15.36 60.6494 15.36 60.6348 15.36C60.5174 15.3453 60.2974 15.3013 59.9748 15.228C59.6668 15.14 59.3954 15.096 59.1608 15.096C59.0288 15.096 58.8674 15.074 58.6768 15.03C58.4861 14.986 58.3394 14.964 58.2368 14.964C58.1048 14.964 57.9728 15.008 57.8408 15.096C57.7088 15.184 57.6061 15.228 57.5328 15.228C57.5181 15.228 57.4961 15.1913 57.4668 15.118C57.4374 15.0447 57.4008 14.9933 57.3568 14.964C57.3274 14.9347 57.2761 14.9493 57.2028 15.008C57.1441 15.1107 57.1148 15.184 57.1148 15.228C57.1294 15.2573 57.1661 15.2867 57.2248 15.316C57.2981 15.3307 57.3348 15.3453 57.3348 15.36C57.2761 15.4333 57.1734 15.5433 57.0268 15.69C56.8801 15.822 56.7994 15.9027 56.7848 15.932L56.7408 16.02C56.7261 16.064 56.7041 16.1153 56.6748 16.174C56.6601 16.218 56.6234 16.2767 56.5648 16.35C56.5208 16.4233 56.4621 16.4967 56.3888 16.57C56.3301 16.6287 56.2494 16.6873 56.1468 16.746C56.0588 16.8047 55.9488 16.856 55.8168 16.9C55.6848 16.944 55.5454 16.9733 55.3988 16.988C55.5161 16.8413 55.5748 16.7533 55.5748 16.724C55.5748 16.68 55.5454 16.658 55.4868 16.658C55.2961 16.658 55.0174 16.7607 54.6508 16.966C54.2988 17.1567 54.0128 17.252 53.7928 17.252C53.3381 17.252 53.1108 17.01 53.1108 16.526C53.1108 16.4087 53.1988 16.3133 53.3748 16.24C53.5508 16.1667 53.6388 16.1007 53.6388 16.042C53.6388 16.0127 53.6094 15.976 53.5508 15.932C53.4921 15.888 53.4628 15.8587 53.4628 15.844C53.4628 15.7413 53.5728 15.6167 53.7928 15.47C54.0128 15.3233 54.1814 15.25 54.2988 15.25L54.3648 15.316C54.4088 15.36 54.4528 15.3747 54.4968 15.36C54.5114 15.36 54.5994 15.2867 54.7608 15.14C54.9368 14.9933 55.1201 14.92 55.3108 14.92C55.3988 14.92 55.4868 14.8687 55.5748 14.766C55.6628 14.6487 55.7508 14.5827 55.8388 14.568C55.8534 14.568 55.8901 14.5753 55.9488 14.59C56.0074 14.59 56.0588 14.59 56.1028 14.59C56.4548 14.59 56.7334 14.4213 56.9388 14.084C57.1441 13.732 57.2468 13.336 57.2468 12.896C57.2468 12.808 57.2248 12.7127 57.1808 12.61C57.1514 12.5073 57.1368 12.4413 57.1368 12.412C57.1368 12.3973 57.1441 12.3753 57.1588 12.346C57.1734 12.3167 57.1808 12.2947 57.1808 12.28C57.1808 12.104 57.0341 12.0013 56.7408 11.972C56.5648 11.972 56.3888 12.0087 56.2128 12.082C56.0368 12.1553 55.8241 12.2727 55.5748 12.434C55.3401 12.5953 55.1788 12.698 55.0908 12.742C53.0374 13.9153 52.0108 14.9053 52.0108 15.712C52.0108 15.888 51.7688 16.262 51.2848 16.834C50.8008 17.406 50.5588 17.8533 50.5588 18.176C50.5588 18.2493 50.5148 18.33 50.4268 18.418C50.3534 18.506 50.3168 18.5867 50.3168 18.66C50.3168 18.7773 50.2434 18.9093 50.0968 19.056C49.9648 19.2173 49.8988 19.3567 49.8988 19.474C49.8988 19.518 49.8108 19.6647 49.6348 19.914C49.4588 20.178 49.3708 20.3467 49.3708 20.42C49.3708 20.464 49.2534 20.662 49.0188 21.014C48.7841 21.3807 48.6301 21.608 48.5568 21.696C48.1314 22.2093 47.8894 22.598 47.8307 22.862C47.8161 22.8913 47.8234 22.928 47.8527 22.972V22.994C47.8527 23.0527 47.7647 23.1773 47.5887 23.368C47.4127 23.5587 47.2807 23.6687 47.1927 23.698C46.5914 23.698 46.2907 23.4193 46.2907 22.862ZM54.1888 15.954C54.1888 15.998 54.1668 16.0567 54.1227 16.13C54.0788 16.2033 54.0568 16.262 54.0568 16.306C54.0568 16.3793 54.1668 16.416 54.3868 16.416C54.6214 16.416 54.7974 16.394 54.9148 16.35C55.0321 16.306 55.1494 16.2327 55.2668 16.13C55.3988 16.0273 55.5234 15.9467 55.6408 15.888C55.7728 15.8293 55.8828 15.712 55.9708 15.536C56.0588 15.36 56.0734 15.1987 56.0148 15.052C55.7508 15.096 55.5381 15.1767 55.3768 15.294C55.3621 15.3087 55.3401 15.3307 55.3108 15.36C55.2961 15.3893 55.2814 15.4113 55.2668 15.426C55.2521 15.4407 55.2228 15.4553 55.1788 15.47C55.1494 15.47 55.1054 15.47 55.0468 15.47C55.0174 15.47 54.9661 15.4553 54.8928 15.426C54.8194 15.382 54.7608 15.36 54.7168 15.36C54.5701 15.36 54.4454 15.426 54.3428 15.558C54.2401 15.6753 54.1888 15.8073 54.1888 15.954ZM63.1868 14.612C63.1868 14.6853 63.1354 14.7587 63.0328 14.832C62.9448 14.9053 62.9008 14.986 62.9008 15.074C62.9008 15.1767 62.9521 15.228 63.0548 15.228H63.5608C63.8394 15.1693 64.0668 15.0373 64.2428 14.832C64.4334 14.6267 64.5288 14.4287 64.5288 14.238C64.5288 14.15 64.5068 14.0913 64.4628 14.062C64.3748 14.018 64.2868 14.04 64.1988 14.128C64.1108 14.216 64.0448 14.26 64.0008 14.26C63.9714 14.26 63.9421 14.26 63.9128 14.26L63.8688 14.238C63.4141 14.3407 63.1868 14.4653 63.1868 14.612ZM62.1748 16.02C62.1748 16.0787 62.1821 16.1227 62.1968 16.152C62.3728 16.152 62.5708 16.0053 62.7908 15.712C62.7028 15.668 62.6221 15.646 62.5488 15.646C62.4461 15.646 62.3581 15.6827 62.2848 15.756C62.2114 15.8293 62.1748 15.9173 62.1748 16.02ZM49.1288 14.568C49.1288 14.4507 49.1581 14.348 49.2168 14.26C49.2754 14.172 49.3561 14.15 49.4588 14.194C49.5321 14.238 49.5688 14.3113 49.5688 14.414C49.5688 14.6193 49.4294 14.722 49.1508 14.722C49.1361 14.6927 49.1288 14.6413 49.1288 14.568ZM48.6668 15.668C48.6668 15.3307 48.7548 15.162 48.9308 15.162C48.9454 15.162 48.9821 15.1767 49.0408 15.206C48.9968 15.2647 48.9528 15.36 48.9088 15.492C48.8794 15.624 48.8428 15.7047 48.7988 15.734L48.6668 15.668ZM49.8108 13.6C49.8108 13.4827 49.8474 13.424 49.9207 13.424C50.0528 13.424 50.1188 13.49 50.1188 13.622C50.1188 13.754 50.0601 13.82 49.9428 13.82C49.8548 13.82 49.8108 13.7467 49.8108 13.6ZM67.2788 17.758C67.1614 17.7727 67.1028 17.7213 67.1028 17.604C67.1028 17.4867 67.1761 17.428 67.3228 17.428C67.3668 17.428 67.4034 17.4353 67.4328 17.45C67.4328 17.6407 67.3814 17.7433 67.2788 17.758ZM62.1528 16.24C61.9034 16.24 61.7788 16.2913 61.7788 16.394C61.8668 16.482 61.9694 16.526 62.0868 16.526C62.1014 16.526 62.1234 16.5187 62.1528 16.504C62.1528 16.4893 62.1528 16.4747 62.1528 16.46C62.1674 16.4307 62.1748 16.4013 62.1748 16.372C62.1748 16.3133 62.1674 16.2693 62.1528 16.24ZM68.8846 16.394C68.8846 16.35 68.8992 16.306 68.9286 16.262C68.9579 16.2033 68.9946 16.1447 69.0386 16.086C69.0972 16.0273 69.1339 15.9833 69.1486 15.954C69.9259 14.5167 70.4246 13.226 70.6446 12.082L71.0186 11.708C71.0479 11.664 71.0552 11.62 71.0406 11.576C71.0406 11.532 71.0259 11.5027 70.9966 11.488C70.9672 11.4733 70.9306 11.4807 70.8866 11.51C70.8719 11.5247 70.8206 11.5833 70.7326 11.686C70.6446 11.774 70.5859 11.8253 70.5566 11.84C70.4686 11.884 70.4759 11.818 70.5786 11.642C70.6666 11.4953 70.7179 11.422 70.7326 11.422C70.8352 11.3193 70.9526 11.246 71.0846 11.202C71.3046 11.1433 71.4732 11.3047 71.5906 11.686C71.6346 11.818 71.6126 12.0307 71.5246 12.324C71.4512 12.6173 71.4292 12.8007 71.4586 12.874C71.6932 12.7567 71.9719 12.5367 72.2946 12.214C72.6319 11.8767 72.8812 11.6567 73.0426 11.554C73.3946 11.334 73.9666 11.0993 74.7586 10.85C75.0372 10.762 75.3159 10.8427 75.5946 11.092C75.6386 11.136 75.6972 11.1873 75.7706 11.246C75.8586 11.29 75.9246 11.334 75.9686 11.378C76.0272 11.422 76.0712 11.4807 76.1006 11.554C76.1299 11.6273 76.2399 11.8107 76.4306 12.104C76.6212 12.3973 76.7386 12.6393 76.7826 12.83C76.7972 12.918 76.7972 13.006 76.7826 13.094C76.7679 13.1673 76.7899 13.226 76.8486 13.27C76.8632 13.2993 76.8559 13.3507 76.8266 13.424C76.8119 13.4973 76.7972 13.556 76.7826 13.6C76.7826 13.644 76.8119 13.6733 76.8706 13.688C76.9586 13.688 77.0026 13.7247 77.0026 13.798C77.0026 13.8273 77.0026 13.8567 77.0026 13.886C76.7826 13.886 76.4892 13.732 76.1226 13.424C76.0492 13.3213 75.9319 13.2113 75.7706 13.094C75.7412 13.0793 75.7412 13.028 75.7706 12.94L75.8146 12.786C75.7999 12.7567 75.7559 12.72 75.6826 12.676C75.6092 12.632 75.5652 12.588 75.5506 12.544C75.5212 12.456 75.4039 12.3533 75.1986 12.236C74.9932 12.1187 74.8392 12.06 74.7366 12.06C74.6779 12.06 74.5826 12.082 74.4506 12.126C74.3186 12.1553 74.2232 12.1773 74.1646 12.192C73.9299 12.236 73.4606 12.5733 72.7566 13.204C72.0526 13.8347 71.6052 14.2893 71.4146 14.568C71.3266 14.6853 71.1799 14.854 70.9746 15.074C70.7839 15.294 70.6299 15.492 70.5126 15.668C70.3952 15.8293 70.2999 16.0053 70.2266 16.196C70.0212 16.6507 69.9039 16.8927 69.8746 16.922C69.7426 17.0833 69.5739 17.164 69.3686 17.164C69.2072 17.164 69.0826 17.0833 68.9946 16.922C68.9212 16.746 68.8846 16.57 68.8846 16.394ZM76.978 10.256C76.89 9.91867 76.9633 9.65467 77.198 9.464C77.4473 9.27333 77.748 9.178 78.1 9.178C78.2907 9.178 78.474 9.21467 78.65 9.288C78.6207 9.34667 78.5547 9.40533 78.452 9.464C78.364 9.52267 78.3053 9.55933 78.276 9.574C78.2467 9.60333 78.166 9.61067 78.034 9.596C77.8727 9.58133 77.7187 9.62533 77.572 9.728C77.44 9.816 77.4253 9.91867 77.528 10.036C77.5573 10.0653 77.6233 10.0653 77.726 10.036C77.8287 9.992 77.8947 9.992 77.924 10.036C77.9533 10.0653 77.968 10.0947 77.968 10.124C77.9827 10.1533 78.012 10.1827 78.056 10.212C78.1147 10.256 78.3713 10.41 78.826 10.674C79.3833 11.0553 79.8087 11.246 80.102 11.246C80.3367 11.246 80.5053 11.1507 80.608 10.96C80.6227 10.9013 80.7107 10.7547 80.872 10.52C81.0333 10.2853 81.2093 10.036 81.4 9.772C81.6053 9.49333 81.7227 9.332 81.752 9.288C81.796 9.2 81.928 8.94333 82.148 8.518C82.368 8.078 82.5733 7.74067 82.764 7.506L83.468 6.626C83.5853 6.494 84.4287 5.394 85.998 3.326L86.328 2.886C86.4013 2.798 86.4967 2.754 86.614 2.754C86.7753 2.754 86.8927 2.80533 86.966 2.908C87.1127 3.14267 87.142 3.29667 87.054 3.37C87.0393 3.38467 87.0247 3.38467 87.01 3.37C87.01 3.34067 87.0027 3.304 86.988 3.26C86.9733 3.20133 86.9587 3.15733 86.944 3.128C86.9293 3.09867 86.8487 3.084 86.702 3.084C86.5847 3.304 86.5113 3.458 86.482 3.546C86.4673 3.60467 86.4673 3.64867 86.482 3.678C86.5113 3.69267 86.548 3.7 86.592 3.7C86.636 3.7 86.6653 3.70733 86.68 3.722C86.7093 3.73667 86.7167 3.766 86.702 3.81C86.6287 4.00067 86.4747 4.27933 86.24 4.646C86.0053 4.998 85.8587 5.22533 85.8 5.328C85.624 5.636 85.2647 6.13467 84.722 6.824C84.1793 7.51333 83.842 7.99733 83.71 8.276C83.5487 8.61333 83.3727 8.936 83.182 9.244C83.006 9.53733 82.786 9.86733 82.522 10.234C82.258 10.6007 82.0673 10.872 81.95 11.048C81.686 11.3853 81.5687 11.576 81.598 11.62C81.686 11.7227 81.818 11.7887 81.994 11.818C82.1407 11.862 82.3533 11.8987 82.632 11.928C82.9253 11.9427 83.1307 11.9647 83.248 11.994C83.3213 12.0233 83.49 12.0453 83.754 12.06C84.0327 12.06 84.216 12.0307 84.304 11.972C84.3333 11.9427 84.392 11.972 84.48 12.06C84.568 12.148 84.6047 12.214 84.59 12.258C84.59 12.2873 84.568 12.3167 84.524 12.346C84.4947 12.3607 84.4873 12.3753 84.502 12.39C84.546 12.4193 84.612 12.39 84.7 12.302C84.7 12.4047 84.6853 12.4707 84.656 12.5C84.6267 12.5147 84.59 12.5147 84.546 12.5C84.502 12.4707 84.458 12.4633 84.414 12.478C84.3993 12.4927 84.3847 12.5073 84.37 12.522C84.3553 12.5367 84.348 12.566 84.348 12.61C84.3333 12.6687 84.304 12.6687 84.26 12.61C84.2453 12.5807 84.238 12.5367 84.238 12.478C84.238 12.4193 84.2307 12.39 84.216 12.39C84.2013 12.39 84.1867 12.39 84.172 12.39C84.084 12.4193 84.062 12.478 84.106 12.566C84.15 12.61 84.172 12.654 84.172 12.698C84.172 12.742 84.1133 12.7713 83.996 12.786C83.8933 12.786 83.7613 12.7787 83.6 12.764C83.4533 12.7347 83.3727 12.72 83.358 12.72C83.2553 12.72 83.1013 12.7347 82.896 12.764C82.6907 12.7933 82.5293 12.808 82.412 12.808C82.2653 12.808 82.104 12.786 81.928 12.742C81.5027 12.6393 81.1433 12.6833 80.85 12.874C80.7473 12.9473 80.6593 13.0427 80.586 13.16C80.5273 13.2773 80.4613 13.4387 80.388 13.644C80.3293 13.8347 80.2927 13.952 80.278 13.996C80.234 14.1133 80.1533 14.3113 80.036 14.59C79.9187 14.8687 79.8233 15.0887 79.75 15.25C79.6913 15.3967 79.618 15.5873 79.53 15.822C79.442 16.0567 79.3687 16.2767 79.31 16.482C79.266 16.6873 79.222 16.8927 79.178 17.098C79.134 17.3033 79.0973 17.6113 79.068 18.022C79.068 18.1833 79.178 18.2273 79.398 18.154C79.442 18.1393 79.4787 18.132 79.508 18.132C79.5667 18.1173 79.7133 18.1027 79.948 18.088C80.1973 18.088 80.3807 18.0733 80.498 18.044C80.542 18.0293 80.564 17.9853 80.564 17.912C80.608 17.9267 80.608 17.9633 80.564 18.022C80.52 18.0953 80.5053 18.1393 80.52 18.154C80.5493 18.198 80.608 18.198 80.696 18.154C80.784 18.1247 80.8353 18.088 80.85 18.044C80.8647 17.9853 80.8427 17.9413 80.784 17.912C80.7253 17.8827 80.696 17.8387 80.696 17.78C80.6813 17.6773 80.7327 17.5967 80.85 17.538C80.9673 17.4647 81.0553 17.4793 81.114 17.582C81.1433 17.67 81.1433 17.736 81.114 17.78C81.0993 17.7947 81.07 17.8167 81.026 17.846C80.982 17.8753 80.982 17.912 81.026 17.956C81.0553 17.9707 81.092 17.9413 81.136 17.868C81.2093 18.0293 81.1873 18.1247 81.07 18.154C81.0553 18.154 81.0333 18.1393 81.004 18.11C80.9893 18.0807 80.9673 18.0733 80.938 18.088C80.9087 18.088 80.9013 18.11 80.916 18.154C80.9307 18.2127 80.9013 18.2347 80.828 18.22C80.7547 18.22 80.7033 18.2273 80.674 18.242C80.6593 18.2713 80.6373 18.3153 80.608 18.374C80.5787 18.4473 80.5493 18.506 80.52 18.55C80.4027 18.7113 80.278 18.814 80.146 18.858C80.1167 18.8727 80.08 18.88 80.036 18.88C79.992 18.88 79.948 18.88 79.904 18.88C79.8747 18.8947 79.86 18.9093 79.86 18.924C79.8453 18.9387 79.838 18.9607 79.838 18.99C79.838 19.0193 79.8233 19.034 79.794 19.034L79.64 18.99L79.156 19.122C78.8773 19.122 78.7233 19.1073 78.694 19.078C78.65 19.034 78.584 18.9973 78.496 18.968C78.408 18.9533 78.342 18.924 78.298 18.88C78.0487 18.6307 77.924 18.2347 77.924 17.692C77.924 16.4453 78.4593 14.8467 79.53 12.896C79.5887 12.7933 79.618 12.698 79.618 12.61C79.6327 12.522 79.618 12.4487 79.574 12.39C79.53 12.3167 79.4787 12.258 79.42 12.214C79.376 12.1553 79.3027 12.104 79.2 12.06C79.112 12.016 79.024 11.9793 78.936 11.95C78.8627 11.9207 78.7747 11.8913 78.672 11.862C78.5693 11.818 78.4887 11.7813 78.43 11.752C78.122 11.62 77.8213 11.4147 77.528 11.136C77.2493 10.8573 77.066 10.564 76.978 10.256ZM93.4 17.274C92.96 16.9807 92.7986 16.5773 92.916 16.064C93.0333 15.5507 93.224 15.0813 93.488 14.656C93.7666 14.2307 94.038 13.9153 94.302 13.71C94.3606 13.666 94.434 13.556 94.522 13.38C94.6246 13.204 94.6833 13.1087 94.698 13.094C95.05 12.698 95.3653 12.4413 95.644 12.324C95.7466 12.28 95.798 12.192 95.798 12.06C95.798 11.928 95.8126 11.862 95.842 11.862C95.886 11.862 95.9813 11.906 96.128 11.994C96.304 12.1407 96.37 12.3093 96.326 12.5C96.282 12.676 96.1573 12.8227 95.952 12.94C95.82 13.0133 95.6953 13.1307 95.578 13.292C95.4753 13.4533 95.3726 13.6293 95.27 13.82C95.1673 14.0107 95.094 14.1353 95.05 14.194C94.9473 14.3407 94.8373 14.502 94.72 14.678C94.6173 14.8393 94.5 15.052 94.368 15.316C94.236 15.58 94.1846 15.8 94.214 15.976C94.2433 16.1373 94.368 16.218 94.588 16.218L96.018 15.91C96.634 15.7047 97.052 15.602 97.272 15.602C97.4626 15.602 97.8733 15.2867 98.504 14.656C98.5626 14.612 98.614 14.5093 98.658 14.348C98.7166 14.1867 98.7606 14.04 98.79 13.908L98.834 13.71C98.834 13.5047 98.9366 13.2993 99.142 13.094C99.186 13.05 99.2446 12.9987 99.318 12.94C99.3913 12.8667 99.4426 12.8153 99.472 12.786C99.56 12.698 99.6626 12.654 99.78 12.654C99.9853 12.654 100.132 12.7493 100.22 12.94C100.161 12.94 100.059 13.0207 99.912 13.182C99.7653 13.3287 99.6626 13.4607 99.604 13.578C99.5893 13.666 99.5746 13.732 99.56 13.776C99.5453 13.82 99.5673 13.8493 99.626 13.864C99.6993 13.8787 99.7506 13.8933 99.78 13.908C99.824 13.908 99.8826 13.908 99.956 13.908C100.029 13.8933 100.073 13.886 100.088 13.886C100.132 13.7393 100.22 13.6147 100.352 13.512C100.499 13.4093 100.675 13.3067 100.88 13.204C101.1 13.1013 101.254 13.0133 101.342 12.94C101.474 12.8373 101.679 12.786 101.958 12.786C101.958 12.39 101.855 12.192 101.65 12.192C101.621 12.192 101.357 12.28 100.858 12.456C100.843 12.5147 100.704 12.5293 100.44 12.5C100.176 12.4707 100.007 12.456 99.934 12.456C99.934 12.1187 100.125 11.884 100.506 11.752C100.902 11.6053 101.283 11.532 101.65 11.532C101.958 11.532 102.163 11.5833 102.266 11.686C102.735 12.2287 102.787 12.6467 102.42 12.94C101.672 13.4827 101.203 13.8493 101.012 14.04C100.997 14.0547 100.931 14.0987 100.814 14.172C100.697 14.2453 100.594 14.326 100.506 14.414C100.433 14.4873 100.396 14.568 100.396 14.656C100.469 14.656 100.601 14.6853 100.792 14.744C100.997 14.8027 101.129 14.854 101.188 14.898C101.291 15.0007 101.701 15.228 102.42 15.58C103.139 15.9173 103.579 16.1667 103.74 16.328C103.887 16.4893 103.835 16.746 103.586 17.098C103.351 17.45 103.175 17.626 103.058 17.626C102.999 17.626 102.948 17.6333 102.904 17.648C102.875 17.648 102.845 17.6553 102.816 17.67C102.787 17.67 102.757 17.6847 102.728 17.714C102.699 17.7287 102.677 17.7433 102.662 17.758C102.647 17.7727 102.618 17.8093 102.574 17.868C102.53 17.912 102.501 17.9413 102.486 17.956C102.369 18.088 102.031 18.176 101.474 18.22C100.917 18.2787 100.609 18.3447 100.55 18.418C100.374 18.594 100.161 18.682 99.912 18.682C99.736 18.682 99.45 18.6087 99.054 18.462C98.658 18.33 98.372 18.264 98.196 18.264C98.0933 18.264 97.9393 18.1613 97.734 17.956C97.558 17.7653 97.514 17.5013 97.602 17.164C97.69 16.8267 97.8586 16.658 98.108 16.658C98.24 16.658 98.372 16.7167 98.504 16.834C98.6066 16.9367 98.6506 16.988 98.636 16.988C98.636 16.988 98.614 16.988 98.57 16.988C98.4086 16.944 98.284 16.9513 98.196 17.01C98.02 17.142 98.1006 17.23 98.438 17.274C98.5553 17.2887 98.7826 17.3107 99.12 17.34C99.9706 17.384 100.396 17.4793 100.396 17.626C100.176 17.626 100.066 17.6407 100.066 17.67C100.066 17.6993 100.117 17.7433 100.22 17.802C100.308 17.846 100.381 17.8167 100.44 17.714C100.513 17.6113 100.594 17.494 100.682 17.362C100.77 17.23 100.88 17.164 101.012 17.164C101.203 17.164 101.371 17.142 101.518 17.098C101.679 17.0393 101.833 16.966 101.98 16.878C102.127 16.7753 102.222 16.7167 102.266 16.702C102.266 16.658 102.156 16.592 101.936 16.504C101.731 16.416 101.503 16.328 101.254 16.24C101.005 16.152 100.873 16.1007 100.858 16.086C100.711 16.0273 100.565 15.9393 100.418 15.822C100.286 15.7047 100.176 15.6313 100.088 15.602C100.029 15.5727 99.8973 15.4847 99.692 15.338C99.4866 15.1913 99.3546 15.118 99.296 15.118C99.1493 15.118 99.032 15.1327 98.944 15.162C98.8706 15.1767 98.7753 15.2207 98.658 15.294C98.5406 15.3527 98.438 15.404 98.35 15.448C98.2766 15.4773 98.042 15.6387 97.646 15.932C97.25 16.2253 97.0153 16.394 96.942 16.438C96.6926 16.5847 96.2306 16.7827 95.556 17.032C94.8813 17.2667 94.3313 17.384 93.906 17.384C93.6566 17.384 93.488 17.3473 93.4 17.274ZM100.154 6.538C100.139 6.52333 100.103 6.494 100.044 6.45C100 6.39133 99.9633 6.34733 99.934 6.318C99.9193 6.274 99.9046 6.23 99.89 6.186C99.8753 6.12733 99.89 6.076 99.934 6.032C99.978 5.988 100.051 5.944 100.154 5.9C100.286 5.84133 100.425 5.812 100.572 5.812C100.821 5.812 101.049 5.88533 101.254 6.032C101.474 6.17867 101.628 6.34 101.716 6.516C101.804 6.67733 101.811 6.78733 101.738 6.846C101.694 6.87533 101.591 6.89 101.43 6.89C101.283 6.89 101.144 6.88267 101.012 6.868L100.792 6.846C100.601 6.91933 100.469 6.956 100.396 6.956C100.235 6.956 100.154 6.81667 100.154 6.538ZM96.832 11.708C96.7586 11.7813 96.634 11.818 96.458 11.818C96.2233 11.818 96.0693 11.7153 95.996 11.51C96.2306 11.422 96.4286 11.378 96.59 11.378C96.7366 11.378 96.832 11.4073 96.876 11.466C96.92 11.5247 96.9053 11.6053 96.832 11.708ZM100.572 6.582C100.689 6.64067 100.792 6.67 100.88 6.67C101.071 6.67 101.166 6.64067 101.166 6.582C101.166 6.42067 101.093 6.34 100.946 6.34C100.858 6.34 100.77 6.36933 100.682 6.428C100.609 6.472 100.572 6.52333 100.572 6.582ZM94.984 12.918C94.8813 13.006 94.874 13.0867 94.962 13.16C95.0206 13.2187 95.094 13.204 95.182 13.116C95.2553 13.0573 95.2773 12.9987 95.248 12.94C95.2333 12.8813 95.1966 12.852 95.138 12.852C95.0793 12.852 95.028 12.874 94.984 12.918ZM114.949 17.032C114.597 17.032 114.421 16.8413 114.421 16.46C114.421 16.1667 114.502 15.7927 114.663 15.338C114.839 14.8833 114.986 14.5827 115.103 14.436C115.221 14.2747 115.375 14.0107 115.565 13.644C115.771 13.2627 115.939 12.9767 116.071 12.786C116.101 12.7273 116.203 12.544 116.379 12.236C116.555 11.928 116.724 11.642 116.885 11.378C117.047 11.0993 117.149 10.9453 117.193 10.916C117.428 10.608 117.773 10.1093 118.227 9.42C118.682 8.73067 119.049 8.20267 119.327 7.836C119.386 7.76267 119.496 7.62333 119.657 7.418C119.833 7.21267 119.973 7.05133 120.075 6.934C120.178 6.802 120.288 6.64067 120.405 6.45C120.537 6.25933 120.64 6.09067 120.713 5.944C120.757 5.84133 120.889 5.73133 121.109 5.614C121.329 5.482 121.439 5.29867 121.439 5.064C121.439 5.02 121.417 4.96133 121.373 4.888C121.329 4.81467 121.307 4.71933 121.307 4.602C121.307 4.47 121.359 4.36 121.461 4.272C121.579 4.16933 121.696 4.118 121.813 4.118C121.975 4.118 122.085 4.162 122.143 4.25C122.217 4.32333 122.268 4.426 122.297 4.558C122.327 4.67533 122.356 4.74867 122.385 4.778C122.488 4.88067 122.4 5.18133 122.121 5.68C121.857 6.164 121.645 6.494 121.483 6.67C121.073 7.08067 120.75 7.53533 120.515 8.034C120.413 8.28333 120.193 8.62067 119.855 9.046C119.533 9.45667 119.313 9.772 119.195 9.992C119.107 10.1827 118.851 10.542 118.425 11.07C118.015 11.598 117.78 12.0673 117.721 12.478C117.751 12.5073 117.853 12.4633 118.029 12.346C118.205 12.214 118.33 12.104 118.403 12.016C118.535 11.8253 118.704 11.6567 118.909 11.51C119.115 11.3633 119.291 11.268 119.437 11.224C119.584 11.1653 119.657 11.1433 119.657 11.158C119.657 11.246 119.503 11.444 119.195 11.752C119.151 11.796 119.034 11.9133 118.843 12.104C118.653 12.2947 118.513 12.4413 118.425 12.544C118.337 12.632 118.249 12.7713 118.161 12.962C118.073 13.138 118.029 13.3067 118.029 13.468C118.029 13.5853 118.081 13.7467 118.183 13.952C118.286 14.1573 118.403 14.26 118.535 14.26C118.594 14.26 118.66 14.2307 118.733 14.172C118.807 14.0987 118.88 14.018 118.953 13.93C119.027 13.842 119.071 13.7907 119.085 13.776C119.291 13.5413 119.635 13.2847 120.119 13.006C120.149 12.9767 120.325 12.8593 120.647 12.654C120.97 12.4487 121.241 12.2653 121.461 12.104C121.681 11.928 121.777 11.8107 121.747 11.752C121.703 11.708 121.63 11.708 121.527 11.752C121.439 11.796 121.366 11.862 121.307 11.95C121.102 12.1407 120.398 12.522 119.195 13.094C119.166 13.1087 119.107 13.1527 119.019 13.226C118.931 13.2847 118.858 13.336 118.799 13.38C118.741 13.424 118.667 13.468 118.579 13.512C118.491 13.5413 118.418 13.556 118.359 13.556C118.359 13.424 118.447 13.27 118.623 13.094C118.77 12.9327 119.041 12.7567 119.437 12.566C119.848 12.3607 120.134 12.192 120.295 12.06C120.427 11.9867 120.75 11.8253 121.263 11.576C121.777 11.312 122.151 11.07 122.385 10.85C122.591 10.674 122.906 10.586 123.331 10.586C123.537 10.586 123.72 10.6447 123.881 10.762C124.043 10.8793 124.123 10.9747 124.123 11.048C124.123 11.1947 124.035 11.3633 123.859 11.554C123.683 11.7447 123.559 11.8547 123.485 11.884C122.151 12.3973 121.109 12.94 120.361 13.512C120.244 13.6 120.068 13.71 119.833 13.842C119.613 13.9593 119.43 14.0693 119.283 14.172C119.151 14.2747 119.085 14.37 119.085 14.458C119.085 14.546 119.21 14.6413 119.459 14.744C119.709 14.8467 119.973 14.942 120.251 15.03C120.53 15.118 120.684 15.1767 120.713 15.206C120.772 15.2793 121.117 15.36 121.747 15.448C122.393 15.536 122.943 15.58 123.397 15.58C123.735 15.58 123.969 15.4993 124.101 15.338C124.204 15.206 124.387 15.1107 124.651 15.052C124.93 14.9787 125.157 14.8907 125.333 14.788C125.524 14.6707 125.619 14.4873 125.619 14.238C125.619 13.8567 125.715 13.666 125.905 13.666C126.037 13.666 126.103 13.7613 126.103 13.952C126.103 13.9813 126.089 14.0033 126.059 14.018C126.045 14.018 126.015 14.0253 125.971 14.04C125.927 14.0547 125.891 14.0767 125.861 14.106C125.759 14.1647 125.781 14.216 125.927 14.26C125.957 14.2747 125.986 14.282 126.015 14.282C126.162 14.282 126.338 14.2233 126.543 14.106C126.763 13.974 126.939 13.842 127.071 13.71L127.291 13.512C127.291 13.3653 127.189 13.292 126.983 13.292C126.837 13.292 126.705 13.314 126.587 13.358L126.411 13.424C126.397 13.424 126.375 13.4167 126.345 13.402C126.316 13.3873 126.279 13.358 126.235 13.314C126.206 13.27 126.191 13.226 126.191 13.182C126.191 12.9473 126.382 12.7127 126.763 12.478C127.145 12.2287 127.555 12.104 127.995 12.104C128.303 12.104 128.531 12.1773 128.677 12.324C128.824 12.456 128.897 12.7493 128.897 13.204C128.897 13.3213 128.868 13.4387 128.809 13.556C128.751 13.6587 128.692 13.7393 128.633 13.798C128.575 13.8567 128.494 13.9227 128.391 13.996C128.289 14.0693 128.223 14.1207 128.193 14.15C127.797 14.6193 127.372 15.0153 126.917 15.338C126.463 15.6167 126.235 15.976 126.235 16.416C126.235 17.2667 127.042 17.692 128.655 17.692C128.89 17.692 129.227 17.648 129.667 17.56C130.107 17.472 130.445 17.428 130.679 17.428C130.87 17.428 131.031 17.3767 131.163 17.274C131.295 17.1713 131.413 17.1127 131.515 17.098C131.515 17.274 131.449 17.4133 131.317 17.516C131.2 17.6187 131.053 17.7067 130.877 17.78C130.701 17.8387 130.584 17.8973 130.525 17.956C130.481 18 130.283 18.0733 129.931 18.176C129.594 18.2933 129.411 18.3667 129.381 18.396C129.279 18.4987 129.029 18.5867 128.633 18.66C128.237 18.748 127.885 18.792 127.577 18.792C127.357 18.792 127.218 18.77 127.159 18.726C127.115 18.682 126.954 18.616 126.675 18.528C126.397 18.44 126.14 18.3373 125.905 18.22C125.685 18.1173 125.575 18 125.575 17.868C125.575 17.692 125.443 17.4133 125.179 17.032C124.915 16.636 124.754 16.438 124.695 16.438C124.563 16.438 124.336 16.482 124.013 16.57C123.691 16.6433 123.434 16.68 123.243 16.68H121.417C121.051 16.68 120.464 16.526 119.657 16.218C118.851 15.91 118.227 15.756 117.787 15.756C117.611 15.756 117.45 15.8 117.303 15.888C117.157 15.9613 116.988 16.0933 116.797 16.284C116.607 16.46 116.475 16.5773 116.401 16.636C116.284 16.724 116.049 16.812 115.697 16.9C115.36 16.988 115.111 17.032 114.949 17.032ZM127.489 12.962V13.05C127.621 13.05 127.746 13.0133 127.863 12.94C127.995 12.8667 128.025 12.786 127.951 12.698C127.893 12.6393 127.834 12.61 127.775 12.61C127.585 12.61 127.489 12.7273 127.489 12.962ZM118.315 14.942C118.139 14.942 118.037 15.0153 118.007 15.162C118.051 15.162 118.125 15.1767 118.227 15.206C118.33 15.2207 118.411 15.228 118.469 15.228C118.572 15.228 118.66 15.206 118.733 15.162C118.807 15.118 118.821 15.0593 118.777 14.986C118.763 14.9567 118.609 14.942 118.315 14.942ZM119.745 11.026C119.745 10.894 119.76 10.8133 119.789 10.784C119.819 10.74 119.877 10.718 119.965 10.718C120.156 10.718 120.266 10.74 120.295 10.784C120.325 10.8427 120.288 10.894 120.185 10.938C120.097 10.982 120.002 11.004 119.899 11.004L119.745 11.026ZM129.61 21.564C129.566 21.432 129.544 21.3 129.544 21.168C129.544 21.0507 129.559 20.9407 129.588 20.838C129.618 20.75 129.669 20.6473 129.742 20.53C129.801 20.4273 129.86 20.3393 129.918 20.266C129.962 20.1927 130.028 20.0973 130.116 19.98C130.204 19.8773 130.27 19.7967 130.314 19.738C130.476 19.5033 130.71 19.1807 131.018 18.77C131.341 18.3593 131.568 18.066 131.7 17.89C131.862 17.6553 132.118 17.3473 132.47 16.966C132.837 16.57 133.101 16.2547 133.262 16.02C133.306 15.9613 133.394 15.866 133.526 15.734C133.673 15.602 133.783 15.4627 133.856 15.316C133.886 15.2427 133.886 15.1547 133.856 15.052C133.842 14.9347 133.79 14.7953 133.702 14.634C133.629 14.458 133.592 14.3627 133.592 14.348C133.548 14.216 133.468 14.0693 133.35 13.908C133.248 13.7467 133.174 13.622 133.13 13.534C133.072 13.4313 133.028 13.314 132.998 13.182C132.984 13.05 132.94 12.9327 132.866 12.83C132.837 12.786 132.808 12.7053 132.778 12.588C132.749 12.456 132.712 12.3753 132.668 12.346C132.551 12.2287 132.456 12.0747 132.382 11.884C132.309 11.6787 132.258 11.5613 132.228 11.532C132.155 11.4293 132.089 11.334 132.03 11.246C131.986 11.158 131.942 11.0847 131.898 11.026C131.869 10.9673 131.818 10.9013 131.744 10.828C131.73 10.8133 131.686 10.7913 131.612 10.762C131.554 10.7327 131.51 10.696 131.48 10.652C131.451 10.5053 131.451 10.41 131.48 10.366L131.612 10.234C131.642 10.1607 131.664 10.1167 131.678 10.102C131.693 10.0873 131.708 10.0653 131.722 10.036C131.752 10.0067 131.774 9.99933 131.788 10.014C131.818 10.0287 131.862 10.0287 131.92 10.014C132.082 10.014 132.17 10.0433 132.184 10.102C132.199 10.146 132.192 10.1753 132.162 10.19C132.133 10.2047 132.126 10.2193 132.14 10.234C132.155 10.2927 132.162 10.3293 132.162 10.344C132.177 10.3587 132.199 10.3733 132.228 10.388C132.258 10.388 132.287 10.4027 132.316 10.432C132.331 10.4467 132.397 10.4907 132.514 10.564C132.646 10.6227 132.734 10.674 132.778 10.718C133.174 11.1873 133.585 11.9353 134.01 12.962C134.069 13.1087 134.142 13.314 134.23 13.578C134.318 13.842 134.399 14.0473 134.472 14.194C134.546 14.3407 134.626 14.4507 134.714 14.524C134.758 14.5533 135.088 14.2087 135.704 13.49C135.807 13.314 135.983 13.1453 136.232 12.984C136.423 12.8667 136.724 12.6613 137.134 12.368C137.164 12.3533 137.186 12.3167 137.2 12.258C137.23 12.1847 137.259 12.1553 137.288 12.17C137.347 12.17 137.391 12.1407 137.42 12.082C137.45 12.0087 137.479 11.972 137.508 11.972C137.567 12.1187 137.596 12.192 137.596 12.192C137.626 12.1627 137.648 12.1113 137.662 12.038C137.677 11.95 137.692 11.884 137.706 11.84C137.765 11.6933 137.809 11.6127 137.838 11.598C137.868 11.5833 137.89 11.576 137.904 11.576C137.934 11.5613 137.963 11.5393 137.992 11.51C138.036 11.466 138.066 11.444 138.08 11.444C138.11 11.4293 138.139 11.4293 138.168 11.444C138.183 11.4587 138.19 11.4807 138.19 11.51C138.19 11.5247 138.19 11.5393 138.19 11.554C138.176 11.5833 138.183 11.5907 138.212 11.576C138.227 11.5613 138.242 11.5247 138.256 11.466C138.286 11.4073 138.315 11.3707 138.344 11.356C138.33 11.4293 138.322 11.488 138.322 11.532C138.337 11.576 138.366 11.5907 138.41 11.576C138.44 11.5613 138.469 11.5247 138.498 11.466C138.528 11.3927 138.55 11.3487 138.564 11.334C138.594 11.3047 138.623 11.312 138.652 11.356C138.667 11.3853 138.667 11.466 138.652 11.598C138.652 11.7153 138.674 11.7813 138.718 11.796L138.74 11.752C138.755 11.6933 138.77 11.6787 138.784 11.708C138.814 11.752 138.806 11.7887 138.762 11.818C138.733 11.8473 138.674 11.8767 138.586 11.906C138.498 11.9353 138.44 11.9573 138.41 11.972C138.366 12.0013 138.33 12.0233 138.3 12.038C138.286 12.038 138.264 12.0527 138.234 12.082C138.22 12.0967 138.212 12.1113 138.212 12.126C138.212 12.126 138.205 12.1553 138.19 12.214C138.19 12.258 138.183 12.2947 138.168 12.324H138.212C138.198 12.3973 138.124 12.456 137.992 12.5C137.86 12.544 137.794 12.588 137.794 12.632C137.794 12.7493 137.78 12.8373 137.75 12.896C137.736 12.9547 137.692 13.0207 137.618 13.094C137.56 13.1527 137.516 13.204 137.486 13.248C137.457 13.2773 137.406 13.336 137.332 13.424C137.259 13.4973 137.193 13.5633 137.134 13.622C137.076 13.6807 137.017 13.732 136.958 13.776C136.856 13.8493 136.592 14.1207 136.166 14.59C135.756 15.0447 135.477 15.3673 135.33 15.558C135.301 15.602 135.25 15.6387 135.176 15.668C135.103 15.6827 135.044 15.7193 135 15.778C134.956 15.8953 134.898 15.998 134.824 16.086C134.78 16.1447 134.707 16.2033 134.604 16.262C134.516 16.3207 134.45 16.4013 134.406 16.504C134.406 16.5187 134.194 16.7533 133.768 17.208C133.343 17.6627 133.108 17.8973 133.064 17.912C132.932 17.956 132.793 18.0733 132.646 18.264C132.5 18.4547 132.346 18.6747 132.184 18.924C132.038 19.188 131.935 19.364 131.876 19.452C131.847 19.496 131.693 19.65 131.414 19.914C131.15 20.178 130.996 20.3687 130.952 20.486C130.923 20.5447 130.901 20.6107 130.886 20.684C130.886 20.772 130.872 20.838 130.842 20.882C130.798 20.9407 130.725 21.0433 130.622 21.19C130.505 21.3513 130.41 21.4687 130.336 21.542C130.292 21.586 130.256 21.6667 130.226 21.784C130.197 21.9013 130.168 21.982 130.138 22.026C130.05 22.1873 129.911 22.1067 129.72 21.784C129.676 21.7107 129.64 21.6373 129.61 21.564ZM138.828 11.62C138.814 11.5613 138.784 11.51 138.74 11.466C138.711 11.4073 138.689 11.356 138.674 11.312C138.748 11.312 138.799 11.2973 138.828 11.268C138.814 11.2533 138.799 11.2313 138.784 11.202L138.762 11.18C138.792 11.1507 138.806 11.1433 138.806 11.158C138.821 11.158 138.843 11.1727 138.872 11.202C138.916 11.2167 138.946 11.224 138.96 11.224C138.96 11.18 138.946 11.1507 138.916 11.136C138.887 11.1067 138.872 11.0847 138.872 11.07C138.887 11.026 138.916 10.9967 138.96 10.982C139.092 11.1433 139.18 11.224 139.224 11.224L139.202 11.026H139.29C139.29 11.07 139.312 11.1067 139.356 11.136C139.4 11.1507 139.415 11.18 139.4 11.224C139.371 11.2973 139.32 11.3707 139.246 11.444C139.173 11.5173 139.114 11.5467 139.07 11.532C139.056 11.5173 139.041 11.4733 139.026 11.4C138.997 11.3707 138.982 11.356 138.982 11.356C138.953 11.3853 138.924 11.4367 138.894 11.51C138.88 11.5833 138.872 11.62 138.872 11.62C138.872 11.6933 138.858 11.6933 138.828 11.62ZM138.366 11.62C138.308 11.708 138.366 11.7813 138.542 11.84C138.557 11.8107 138.564 11.7667 138.564 11.708C138.55 11.708 138.528 11.6933 138.498 11.664C138.469 11.6347 138.44 11.62 138.41 11.62C138.396 11.6053 138.381 11.6053 138.366 11.62ZM137.794 11.906C137.78 11.9207 137.772 11.9427 137.772 11.972C137.772 12.0013 137.78 12.0307 137.794 12.06C137.809 12.0747 137.824 12.082 137.838 12.082C137.853 12.0673 137.875 12.0673 137.904 12.082C137.934 12.0967 137.948 12.0893 137.948 12.06L137.926 11.906C137.897 11.8767 137.853 11.8767 137.794 11.906ZM139.51 11.07C139.496 11.0407 139.488 10.982 139.488 10.894C139.62 10.894 139.642 10.96 139.554 11.092C139.525 11.1507 139.51 11.1433 139.51 11.07ZM139.136 11.026C139.107 10.9673 139.085 10.9087 139.07 10.85C139.158 10.8207 139.202 10.8353 139.202 10.894C139.188 10.938 139.166 10.982 139.136 11.026ZM137.728 12.346C137.728 12.4193 137.743 12.4633 137.772 12.478C137.787 12.4927 137.809 12.4853 137.838 12.456C137.853 12.3973 137.846 12.3607 137.816 12.346C137.802 12.3313 137.772 12.3313 137.728 12.346ZM138.718 11.224L138.542 11.18C138.572 11.18 138.594 11.1653 138.608 11.136C138.638 11.092 138.674 11.0773 138.718 11.092V11.224ZM139.62 10.674C139.62 10.586 139.628 10.5127 139.642 10.454L139.664 10.498C139.723 10.6153 139.708 10.674 139.62 10.674ZM138.586 11.62C138.63 11.576 138.623 11.5393 138.564 11.51C138.55 11.51 138.535 11.5027 138.52 11.488C138.535 11.5907 138.557 11.6347 138.586 11.62ZM143.318 12.874C143.245 12.7567 143.223 12.588 143.252 12.368C143.296 12.148 143.362 11.8913 143.45 11.598C143.553 11.3047 143.604 11.1507 143.604 11.136C143.589 10.9893 144.103 9.816 145.144 7.616C146.2 5.40133 146.911 3.93467 147.278 3.216C147.381 3.04 147.454 2.952 147.498 2.952C147.542 2.952 147.579 2.996 147.608 3.084C147.652 3.15733 147.696 3.25267 147.74 3.37C147.799 3.48733 147.857 3.57533 147.916 3.634C148.019 3.73667 148.173 3.83933 148.378 3.942C148.378 4.03 148.246 4.30867 147.982 4.778C147.718 5.24733 147.425 5.76067 147.102 6.318C146.794 6.86067 146.596 7.23467 146.508 7.44C146.376 7.748 146.09 8.35667 145.65 9.266C145.225 10.1753 144.931 10.872 144.77 11.356C144.418 12.4267 144.029 12.962 143.604 12.962C143.487 12.962 143.391 12.9327 143.318 12.874ZM141.448 18.55C141.301 18.0367 141.338 17.6407 141.558 17.362C141.778 17.0833 142.064 16.944 142.416 16.944C142.724 16.944 142.951 17.0467 143.098 17.252C143.245 17.4427 143.237 17.7067 143.076 18.044C143.003 18.1907 142.973 18.3373 142.988 18.484C143.003 18.6307 142.995 18.7113 142.966 18.726L142.108 18.638C142.035 18.7113 141.961 18.792 141.888 18.88C141.829 18.9827 141.778 19.0487 141.734 19.078C141.705 19.122 141.683 19.144 141.668 19.144C141.624 19.144 141.551 18.946 141.448 18.55ZM148.488 3.59C148.415 3.60467 148.371 3.59 148.356 3.546C148.356 3.51667 148.378 3.44333 148.422 3.326C148.466 3.194 148.488 3.106 148.488 3.062C148.415 2.63667 148.422 2.39467 148.51 2.336C148.745 2.204 148.869 2.30667 148.884 2.644C148.899 3.05467 148.803 3.348 148.598 3.524C148.569 3.55333 148.532 3.57533 148.488 3.59ZM148.906 2.072C148.803 2.05733 148.752 2.006 148.752 1.918C148.767 1.83 148.803 1.77133 148.862 1.742C148.935 1.71267 148.987 1.75667 149.016 1.874C149.045 2.02067 149.009 2.08667 148.906 2.072Z" fill="#323232"/>
</svg>
