<svg width="38" height="38" viewBox="0 0 38 38" fill="none" xmlns="http://www.w3.org/2000/svg">
<path d="M31.0001 25.0001V13H7V25.0001H31.0001Z" fill="black"/>
<path d="M30.2501 24.3998C30.2501 25.8225 29.192 27.2721 27.1239 28.4096C25.0828 29.5322 22.212 30.2499 19.0001 30.2499C15.7881 30.2499 12.9173 29.5322 10.8762 28.4096C8.80808 27.2721 7.75 25.8225 7.75 24.3998C7.75 22.9772 8.80808 21.5275 10.8762 20.3901C12.9173 19.2675 15.7881 18.5498 19.0001 18.5498C22.212 18.5498 25.0828 19.2675 27.1239 20.3901C29.192 21.5275 30.2501 22.9772 30.2501 24.3998Z" fill="#F9F7F3" stroke="black" stroke-width="1.5" stroke-linecap="round" stroke-linejoin="round"/>
<path d="M30.2501 18.3998C30.2501 19.8225 29.192 21.2721 27.1239 22.4096C25.0828 23.5322 22.212 24.2499 19.0001 24.2499C15.7881 24.2499 12.9173 23.5322 10.8762 22.4096C8.80808 21.2721 7.75 19.8225 7.75 18.3998C7.75 16.9772 8.80808 15.5275 10.8762 14.3901C12.9173 13.2675 15.7881 12.5498 19.0001 12.5498C22.212 12.5498 25.0828 13.2675 27.1239 14.3901C29.192 15.5275 30.2501 16.9772 30.2501 18.3998Z" fill="#F9F7F3" stroke="black" stroke-width="1.5" stroke-linecap="round" stroke-linejoin="round"/>
<path d="M30.2501 13C30.2501 14.2198 29.2418 15.5259 27.15 16.5719C25.103 17.5954 22.2226 18.2501 19.0001 18.2501C15.7775 18.2501 12.8971 17.5954 10.8501 16.5719C8.75829 15.5259 7.75 14.2198 7.75 13C7.75 11.7803 8.75829 10.4741 10.8501 9.42819C12.8971 8.40469 15.7775 7.75 19.0001 7.75C22.2226 7.75 25.103 8.40469 27.15 9.42819C29.2418 10.4741 30.2501 11.7803 30.2501 13Z" fill="#F9F7F3" stroke="black" stroke-width="1.5" stroke-linecap="round" stroke-linejoin="round"/>
</svg>
