<svg width="36" height="36" viewBox="0 0 36 36" fill="none" xmlns="http://www.w3.org/2000/svg">
<rect x="4" y="4" width="28" height="28" rx="0.5" fill="white" stroke="black" stroke-width="1.5"/>
<rect x="4" y="25" width="7" height="7" rx="0.5" fill="white" stroke="black" stroke-width="1.5"/>
<rect x="4" y="18" width="7" height="7" rx="0.5" fill="white" stroke="black" stroke-width="1.5"/>
<rect x="4" y="11" width="7" height="7" rx="0.5" fill="white" stroke="black" stroke-width="1.5"/>
<rect x="11" y="25" width="7" height="7" rx="0.5" fill="white" stroke="black" stroke-width="1.5"/>
<rect x="11" y="18" width="7" height="7" rx="0.5" fill="white" stroke="black" stroke-width="1.5"/>
<rect x="11" y="11" width="7" height="7" rx="0.5" fill="white" stroke="black" stroke-width="1.5"/>
<rect x="18" y="25" width="7" height="7" rx="0.5" fill="white" stroke="black" stroke-width="1.5"/>
<rect x="18" y="18" width="7" height="7" rx="0.5" fill="white" stroke="black" stroke-width="1.5"/>
<rect x="18" y="11" width="7" height="7" rx="0.5" fill="white" stroke="black" stroke-width="1.5"/>
<rect x="25" y="25" width="7" height="7" rx="0.5" fill="white" stroke="black" stroke-width="1.5"/>
<rect x="25" y="18" width="7" height="7" rx="0.5" fill="white" stroke="black" stroke-width="1.5"/>
<rect x="4" y="4" width="28" height="7" rx="0.5" fill="white" stroke="black" stroke-width="1.5"/>
</svg>
