<svg id="chat" width="38" height="38" viewBox="0 0 38 38" fill="none" xmlns="http://www.w3.org/2000/svg">
    <path id="back" fill-rule="evenodd" clip-rule="evenodd"
        d="M34 8.5C34 8.22386 33.7761 8 33.5 8H4.5C4.22386 8 4 8.22386 4 8.5V27.5C4 27.7761 4.22386 28 4.5 28H23.4055C23.5494 28 23.6864 28.062 23.7813 28.1703L27.8709 32.8317C28.1752 33.1785 28.7468 32.9633 28.7468 32.5019V28.5C28.7468 28.2239 28.9706 28 29.2468 28H33.5C33.7761 28 34 27.7761 34 27.5V8.5Z"
        stroke="white" />
    <path id='edit'
        d="M27.8709 32.8317L27.3071 33.3263L27.8709 32.8317ZM23.7813 28.1703L24.3451 27.6756L23.7813 28.1703ZM4.5 8.75H33.5V7.25H4.5V8.75ZM4.75 27.5V8.5H3.25V27.5H4.75ZM23.4055 27.25H4.5V28.75H23.4055V27.25ZM28.4347 32.3371L24.3451 27.6756L23.2176 28.6649L27.3071 33.3263L28.4347 32.3371ZM27.9968 28.5V32.5019H29.4968V28.5H27.9968ZM33.5 27.25H29.2468V28.75H33.5V27.25ZM33.25 8.5V27.5H34.75V8.5H33.25ZM33.5 28.75C34.1904 28.75 34.75 28.1904 34.75 27.5H33.25C33.25 27.3619 33.3619 27.25 33.5 27.25V28.75ZM29.4968 28.5C29.4968 28.6381 29.3849 28.75 29.2468 28.75V27.25C28.5564 27.25 27.9968 27.8096 27.9968 28.5H29.4968ZM27.3071 33.3263C28.0678 34.1933 29.4968 33.6553 29.4968 32.5019H27.9968C27.9968 32.2712 28.2826 32.1637 28.4347 32.3371L27.3071 33.3263ZM23.4055 28.75C23.3335 28.75 23.265 28.719 23.2176 28.6649L24.3451 27.6756C24.1078 27.4051 23.7654 27.25 23.4055 27.25V28.75ZM3.25 27.5C3.25 28.1904 3.80965 28.75 4.5 28.75V27.25C4.63807 27.25 4.75 27.3619 4.75 27.5H3.25ZM33.5 8.75C33.3619 8.75 33.25 8.63807 33.25 8.5H34.75C34.75 7.80965 34.1904 7.25 33.5 7.25V8.75ZM4.5 7.25C3.80965 7.25 3.25 7.80964 3.25 8.5H4.75C4.75 8.63807 4.63807 8.75 4.5 8.75V7.25Z"
        fill="black" />
    <circle id='edit' cx="18.9658" cy="17.9897" r="1.48971" fill="black" />
    <circle id='edit' cx="12.6897" cy="17.9897" r="1.48971" fill="black" />
    <circle id='edit' cx="25.2419" cy="17.9897" r="1.48971" fill="black" />
</svg>