<svg width="14" height="12" viewBox="0 0 14 12" fill="none" xmlns="http://www.w3.org/2000/svg">
<path d="M9.54906 1.30408C8.12291 0.523092 6.37417 0.217488 4.81219 0.811718C4.69335 0.862652 4.64241 0.930564 4.62543 1.04941C4.60846 1.21919 4.62543 1.40595 4.71032 1.54177C4.48961 1.77947 4.28587 2.03414 4.09912 2.32276C3.69164 2.33974 3.30115 2.44161 2.91065 2.61139C2.06175 3.00188 1.43357 3.83381 1.16192 4.71666C0.89027 5.59952 0.958182 6.56727 1.38263 7.38221C1.65428 7.90853 2.07873 8.316 2.53714 8.65556C2.75785 9.26677 3.13137 9.81007 3.65769 10.2515C4.55752 10.9816 5.729 11.0834 6.73071 10.6759C7.05329 10.8797 7.37587 11.0495 7.73241 11.2023C8.58131 11.5758 9.56604 11.8135 10.4828 11.5248C11.3148 11.2532 11.909 10.625 12.2825 9.861C12.673 9.09699 12.8767 8.24809 12.9616 7.39919C13.0465 6.6182 12.9956 5.83721 12.7579 5.09018C12.2825 3.49424 11.0261 2.11903 9.54906 1.30408ZM6.74769 10.0817C6.78164 10.0817 6.83258 10.0817 6.86653 10.0817C6.84955 10.0987 6.8156 10.1157 6.79862 10.1157C6.79862 10.1157 6.76466 10.0987 6.74769 10.0817ZM5.9667 9.53842C5.84785 9.43655 5.729 9.35166 5.61016 9.24979C6.32324 9.50446 7.10422 9.52144 7.80032 9.26677C7.74939 9.33468 7.69845 9.38562 7.64752 9.45353C7.1212 9.62331 6.52697 9.62331 5.9667 9.53842ZM2.80879 6.83891C3.01252 7.24639 3.28417 7.63688 3.5728 7.99342C3.94631 8.45183 4.37076 8.87628 4.82917 9.24979C4.18401 9.04606 3.53884 8.74045 2.99554 8.34996C2.84274 7.87457 2.79181 7.36523 2.80879 6.83891ZM5.9667 8.07831C5.64411 7.84062 5.33851 7.51803 5.20269 7.14452C5.33851 7.22941 5.45736 7.29732 5.59318 7.36523C6.37417 7.75573 7.32494 7.92551 8.19082 7.70479C7.83428 8.11227 7.39285 8.43485 6.84955 8.55369C6.52697 8.43485 6.22137 8.26507 5.9667 8.07831ZM4.62543 5.88815C4.64241 5.85419 4.64241 5.83721 4.65939 5.80326C4.65939 5.83721 4.64241 5.87117 4.64241 5.90512C4.64241 5.90512 4.62543 5.90512 4.62543 5.88815ZM8.76807 6.83891C8.75109 6.87287 8.73411 6.90683 8.71714 6.94078C8.15686 7.29732 7.46076 7.36523 6.8156 7.24639C7.52867 7.24639 8.25873 6.65216 8.71714 5.87117C8.76807 6.17677 8.78505 6.51633 8.76807 6.83891ZM5.1178 6.43144C5.1178 6.21073 5.15175 5.99001 5.20269 5.78628C5.32153 5.15809 5.55922 4.49595 5.91576 3.93567C6.03461 3.83381 6.15346 3.73194 6.28928 3.64705C6.4251 3.56216 6.56093 3.47727 6.69675 3.40935C7.08725 3.59611 7.46076 3.83381 7.78334 4.13941C7.29098 4.12243 6.79862 4.17337 6.32324 4.32617C6.23835 4.34315 6.15346 4.41106 6.15346 4.49595C6.05159 5.14111 5.88181 5.78628 5.64411 6.39749C5.61016 6.48238 5.66109 6.58424 5.71203 6.65216C5.84785 6.82194 6.00065 6.95776 6.15346 7.05963C5.76296 6.90683 5.40642 6.68611 5.1178 6.43144ZM8.22477 5.70139C7.88521 6.24468 7.17214 6.99172 6.49302 6.66913C6.35719 6.60122 6.25532 6.51633 6.15346 6.41446C6.35719 5.88814 6.50999 5.32787 6.59488 4.7676C7.13818 4.63177 7.68148 4.59782 8.22477 4.68271C8.32664 4.83551 8.41153 4.98831 8.47944 5.15809C8.41153 5.34485 8.32664 5.53161 8.22477 5.70139ZM8.39455 8.24809C8.37758 8.26507 8.37758 8.29902 8.3606 8.316C8.2078 8.45183 8.05499 8.57067 7.88521 8.65556C8.07197 8.53672 8.24175 8.40089 8.39455 8.24809ZM8.42851 3.44331C8.42851 3.46029 8.44549 3.46029 8.42851 3.44331C8.3606 3.39238 8.27571 3.34144 8.19082 3.27353C8.10593 3.20562 8.00406 3.15468 7.90219 3.10375C7.95312 3.10375 8.02104 3.10375 8.07197 3.12073C8.22477 3.2226 8.34362 3.32446 8.42851 3.44331ZM5.89879 3.10375C5.76296 3.25655 5.62714 3.42633 5.50829 3.59611C5.33851 3.74892 5.16873 3.9187 5.03291 4.08848C4.79521 4.3771 4.60846 4.68271 4.43868 5.00529C4.35379 5.15809 4.28587 5.32787 4.21796 5.49765C4.15005 5.68441 4.0312 5.90512 4.13307 6.09188C4.25192 6.29562 4.4217 6.48238 4.59148 6.65216C4.60846 6.85589 4.64241 7.05963 4.69335 7.22941C4.86313 7.75573 5.25362 8.19715 5.71203 8.50276C5.23664 8.36694 4.81219 8.09529 4.52357 7.67084C4.0312 6.95776 3.92934 6.02397 3.99725 5.17507C4.06516 4.42804 4.2689 3.66403 4.67637 3.00188C4.74428 2.9849 4.79521 2.96793 4.86313 2.95095C4.99895 2.91699 5.1178 2.90001 5.25362 2.90001C5.45736 2.9849 5.67807 3.03584 5.89879 3.10375ZM9.32834 4.25826C9.32834 4.34315 9.32834 4.42804 9.32834 4.51293C9.27741 4.41106 9.22648 4.32617 9.17554 4.24128C9.17554 3.98661 9.12461 3.74891 9.03972 3.5282C9.14159 3.61309 9.22648 3.69798 9.29439 3.79985C9.29439 3.81683 9.29439 3.83381 9.31137 3.85078C9.32834 3.98661 9.32834 4.12243 9.32834 4.25826ZM7.59659 2.01716C7.98708 2.18694 8.32664 2.42463 8.61527 2.73023C8.49642 2.69628 8.37758 2.66232 8.24175 2.64534C7.64752 2.27183 7.07027 2.30578 6.56093 2.57743C6.15345 2.47556 5.729 2.42463 5.30455 2.44161C5.2706 2.44161 5.25362 2.42463 5.21966 2.42463C5.5762 2.18694 5.9667 1.9832 6.39115 1.88133C6.56093 1.84738 6.73071 1.81342 6.88351 1.81342C7.13818 1.84738 7.37587 1.91529 7.59659 2.01716ZM3.13137 5.34485C3.09741 5.70139 3.11439 6.05793 3.16532 6.39749C3.08043 6.21073 3.0295 6.00699 2.97857 5.82023C3.0295 5.65045 3.08043 5.49765 3.13137 5.34485ZM6.90049 1.30408C6.71373 1.2871 6.52697 1.2871 6.34021 1.30408C6.15346 1.32106 5.9667 1.37199 5.79692 1.42293C5.77994 1.40595 5.76296 1.38897 5.74598 1.37199C6.10252 1.15128 6.50999 1.03243 6.93444 1.08337C7.22307 1.11732 7.5117 1.21919 7.76637 1.37199C7.47774 1.30408 7.18911 1.2871 6.90049 1.30408ZM9.63395 7.29732V7.28034C9.68488 7.1615 9.71884 7.02567 9.7528 6.90683C9.71884 7.09358 9.68488 7.29732 9.61697 7.48408C9.63395 7.41617 9.63395 7.34825 9.63395 7.29732ZM1.82406 4.51293C2.11269 3.90172 2.57109 3.35842 3.19928 3.06979C3.38604 2.9849 3.5728 2.93397 3.77653 2.90001C3.60675 3.00188 3.45395 3.12073 3.30115 3.27353C2.65598 3.88474 2.35038 4.78457 2.45225 5.66743C2.45225 5.71837 2.46923 5.7693 2.46923 5.80326C2.43527 5.9221 2.41829 6.05793 2.38434 6.17677C2.28247 6.72007 2.28247 7.29732 2.35038 7.84062C1.51846 6.94078 1.29774 5.63347 1.82406 4.51293ZM3.69164 9.57238C3.58977 9.45353 3.48791 9.33468 3.40302 9.21584C4.13307 9.60633 4.94802 9.91193 5.77994 10.0308C5.93274 10.1496 6.08554 10.2515 6.23835 10.3534C5.30455 10.608 4.33681 10.2855 3.69164 9.57238ZM11.6034 10.0817C10.5338 11.6776 8.80203 11.2702 7.29098 10.4213C7.40983 10.3534 7.5117 10.2685 7.63054 10.1836C7.73241 10.0987 7.83428 9.99683 7.93615 9.89496C8.39455 9.72518 8.819 9.45353 9.12461 9.08001C9.17554 9.0121 9.22648 8.94419 9.27741 8.8593C9.68488 8.55369 9.97351 8.07831 10.1263 7.56897C10.364 6.771 10.4149 5.83721 10.2961 5.00529C10.2282 4.58084 10.0924 4.15639 9.88862 3.79985C9.85466 3.71496 9.82071 3.64705 9.78675 3.56216C9.70186 3.03584 9.53208 2.5265 9.24345 2.10205C9.09065 1.88133 8.92087 1.6776 8.71714 1.47386C9.76977 1.91529 10.7036 2.64534 11.3827 3.5282C12.0958 4.44501 12.5202 5.53161 12.5202 6.68611C12.5202 7.84062 12.2655 9.11397 11.6034 10.0817Z" fill="#D96E34" stroke="#D96E34" stroke-width="0.679121" stroke-miterlimit="10"/>
</svg>
