<svg width="37" height="37" viewBox="0 0 37 37" fill="none" xmlns="http://www.w3.org/2000/svg">
<path d="M30.75 15C30.75 14.5858 30.4142 14.25 30 14.25C29.5858 14.25 29.25 14.5858 29.25 15H30.75ZM22 4.75C22.4142 4.75 22.75 4.41421 22.75 4C22.75 3.58579 22.4142 3.25 22 3.25V4.75ZM29.5 32.25H6.5V33.75H29.5V32.25ZM6.75 32.5V4.5H5.25V32.5H6.75ZM29.25 15V32.5H30.75V15H29.25ZM6.5 4.75H22V3.25H6.5V4.75ZM6.5 32.25C6.63807 32.25 6.75 32.3619 6.75 32.5H5.25C5.25 33.1904 5.80964 33.75 6.5 33.75V32.25ZM29.5 33.75C30.1904 33.75 30.75 33.1904 30.75 32.5H29.25C29.25 32.3619 29.3619 32.25 29.5 32.25V33.75ZM6.75 4.5C6.75 4.63807 6.63807 4.75 6.5 4.75V3.25C5.80965 3.25 5.25 3.80964 5.25 4.5H6.75Z" fill="black"/>
<rect x="34" y="7" width="21" height="7" rx="0.5" transform="rotate(135 34 7)" fill="white" stroke="black" stroke-width="1.5"/>
<rect x="34" y="7" width="4" height="7" rx="0.5" transform="rotate(135 34 7)" fill="white" stroke="black" stroke-width="1.5"/>
<path d="M19.5043 20.7885C19.6996 20.9838 19.6996 21.3004 19.5043 21.4956L17.1507 23.8492C17.0721 23.9278 16.9695 23.978 16.8592 23.9918L12.0105 24.5979C11.6869 24.6383 11.4119 24.3633 11.4523 24.0397L12.0584 19.191C12.0722 19.0807 12.1224 18.9781 12.201 18.8995L14.5545 16.5459C14.7498 16.3506 15.0664 16.3506 15.2617 16.5459L19.5043 20.7885Z" fill="white" stroke="black" stroke-width="1.5"/>
</svg>
