<svg width="23" height="32" viewBox="0 0 23 32" fill="none" xmlns="http://www.w3.org/2000/svg">
<path d="M21.0602 13.938L21.0601 13.9379L21.0569 13.9499C20.9028 14.5253 20.7289 15.046 20.4824 15.5031C18.674 18.8068 13.3779 27.0852 11.3065 30.303C11.2095 30.4537 10.9985 30.4537 10.9015 30.303C8.83014 27.0852 3.53417 18.807 1.72563 15.5032C1.4808 15.0492 1.31807 14.5339 1.14781 13.938C0.889059 13.0323 0.75 12.0883 0.75 11.104C0.75 5.38488 5.38488 0.75 11.104 0.75C16.8231 0.75 21.458 5.38488 21.458 11.104C21.458 12.0883 21.3189 13.0323 21.0602 13.938ZM5.458 11.104C5.458 12.4349 5.92675 13.6534 6.6872 14.6102C7.71906 15.9121 9.31835 16.75 11.104 16.75C12.8855 16.75 14.4869 15.9154 15.5004 14.6091C16.2752 13.6471 16.7287 12.4278 16.7287 11.104C16.7287 8.00285 14.2073 5.46867 11.0933 5.46867C7.99219 5.46867 5.458 7.99005 5.458 11.104Z" stroke="black" stroke-width="1.5" stroke-linejoin="round"/>
</svg>
