<svg width="75" height="26" viewBox="0 0 75 26" fill="none" xmlns="http://www.w3.org/2000/svg">
<path d="M9.43318 8.28947C6.01719 8.28947 4.08119 10.2575 3.37719 11.5695V0.521484H0.929199V24.9694H3.0492V21.8574C3.60119 22.8414 5.51319 25.6174 9.26518 25.6174C13.7932 25.6174 16.9612 22.0574 16.9612 16.9535C16.9612 12.0095 13.7292 8.28947 9.43318 8.28947ZM9.10518 23.4894C6.28919 23.4894 3.36919 21.0414 3.36919 16.9455C3.36919 12.8495 6.28119 10.4015 9.10518 10.4015C11.7132 10.4015 14.5132 12.4495 14.5132 16.9455C14.5212 21.4494 11.7132 23.4894 9.10518 23.4894Z" fill="black"/>
<path d="M35.5051 8.28955C30.8171 8.28955 27.5371 11.8495 27.5371 16.9535C27.5371 22.0575 30.8331 25.6175 35.5611 25.6175C39.5531 25.6175 42.3131 23.4735 42.9371 19.8815L42.9531 19.7775H40.7131L40.7051 19.8575C40.4011 22.0335 38.3291 23.4975 35.5531 23.4975C31.4571 23.4975 29.8811 20.3535 29.7611 17.3695H43.2251V16.3055C43.2411 12.4255 41.2091 8.28955 35.5051 8.28955ZM29.8811 15.4015C30.1691 13.8175 31.2731 10.4095 35.5131 10.4095C39.9611 10.4095 40.7931 14.1055 40.9451 15.4015H29.8811Z" fill="black"/>
<path d="M53.0012 8.28955C48.3132 8.28955 45.0332 11.8495 45.0332 16.9535C45.0332 22.0575 48.3292 25.6175 53.0572 25.6175C57.0492 25.6175 59.8092 23.4735 60.4332 19.8815L60.4492 19.7775H58.2092L58.2012 19.8575C57.8972 22.0335 55.8252 23.4975 53.0492 23.4975C48.9532 23.4975 47.3772 20.3535 47.2572 17.3695H60.7212V16.3055C60.7292 12.4255 58.7052 8.28955 53.0012 8.28955ZM47.3692 15.4015C47.6572 13.8175 48.7612 10.4095 53.0012 10.4095C57.4492 10.4095 58.2812 14.1055 58.4332 15.4015H47.3692Z" fill="black"/>
<path d="M73.3773 21.7612C72.4653 21.7612 71.8013 22.4332 71.8013 23.3612C71.8013 24.2892 72.4573 24.9612 73.3533 24.9612C74.2813 24.9612 74.9293 24.3052 74.9293 23.3612C74.9293 22.4172 74.2893 21.7612 73.3773 21.7612Z" fill="black"/>
<path d="M23.7289 9.05721C22.6409 9.87321 22.2009 10.6332 21.6969 11.6252V10.3372L21.6889 8.70521H19.425L19.377 24.9692H21.8089L21.7929 19.7372L21.7849 15.7052C21.7849 15.0412 21.7609 14.3532 21.9529 13.6892C22.1289 13.0332 22.4809 12.4252 22.9529 11.9372C23.9209 10.9532 25.5369 10.6332 26.8489 10.7372V8.35321C25.9049 8.17721 24.7849 8.27321 23.7289 9.05721Z" fill="black"/>
<path d="M68.4651 3.8974C68.8091 3.34541 69.3771 2.90541 70.0331 2.69741C70.5291 2.53741 71.0891 2.47341 71.7291 2.48941L71.7211 0.377411C70.7531 0.297411 69.8731 0.377411 69.1051 0.63341C68.2251 0.92141 67.4091 1.47341 66.8171 2.20141C66.2652 2.88141 65.8732 3.7374 65.6652 4.7614C65.4572 5.7134 65.4412 6.7134 65.4492 7.6494V8.99339H61.8892V10.8974H65.4492V24.9694H67.8331V10.8974H71.7131V8.99339H67.8412L67.8331 7.6814V7.6574C67.8251 7.0334 67.8331 6.4974 67.9131 5.7534C67.9691 5.1614 68.0891 4.4734 68.4651 3.8974Z" fill="black"/>
</svg>
