<svg width="111" height="111" viewBox="0 0 111 111" fill="none" xmlns="http://www.w3.org/2000/svg">
<g clip-path="url(#clip0_3082_13401)">
<path d="M12.9766 18.9289L19.614 12.3315L20.6202 13.3377L17.8703 16.0704L25.1651 23.4053L24.0217 24.5487L16.7269 17.2138L13.9942 19.9351L12.9766 18.9289Z" fill="#231F20"/>
<path d="M24.4062 8.75244L25.8183 7.96929L28.2138 12.3026L33.5249 9.36419L31.1351 5.03643L32.5586 4.24756L38.2755 14.538L36.852 15.3269L34.188 10.5076L28.8769 13.446L31.5353 18.2598L30.1232 19.0429L24.4062 8.75244Z" fill="#231F20"/>
<path d="M39.0059 1.86931L47.1639 0L47.4841 1.38918L40.8982 2.89839L41.6928 6.36288L47.6442 5.00232L47.9472 6.31138L41.9958 7.6778L42.882 11.5425L49.6337 9.99891L49.9596 11.4339L41.6357 13.3375L39.0059 1.86931Z" fill="#231F20"/>
<path d="M59.621 5.32243C60.3413 1.89227 63.0226 -0.240123 66.4813 0.485928C69.9401 1.21198 71.6265 4.2134 70.8833 7.66643C70.1401 11.1195 67.4531 13.2175 63.9887 12.4972C60.5242 11.7769 58.8949 8.75831 59.621 5.32243ZM69.2654 7.32336C69.8371 4.67642 68.8367 2.38974 66.2241 1.84663C63.6114 1.30352 61.782 2.98997 61.2332 5.65406C60.6844 8.31815 61.6848 10.5592 64.2974 11.108C66.91 11.6569 68.7223 9.936 69.2654 7.32336Z" fill="#231F20"/>
<path d="M78.2525 4.39062L79.7274 5.21955L80.3334 14.0065C80.402 15.0413 80.3334 16.6878 80.3334 16.6878H80.3735C80.3735 16.6878 81.0252 15.2984 81.5169 14.4409L85.0384 8.15227L86.3591 8.8955L80.6078 19.186L79.1442 18.3685L78.5725 9.58723C78.5097 8.53531 78.5384 6.90602 78.5384 6.90602C78.5384 6.90602 77.8695 8.28959 77.395 9.11854L73.8675 15.4072L72.5469 14.6639L78.2525 4.39062Z" fill="#231F20"/>
<path d="M91.6707 13.1377L92.8141 14.2811L85.5706 21.5986L89.8984 25.8806L88.8636 26.9269L83.3926 21.5072L91.6707 13.1377Z" fill="#231F20"/>
<path d="M95.5127 27.9158L98.9428 20.6553L99.9147 22.1702L98.0853 25.8692C97.6451 26.7324 96.8561 28.0301 96.8561 28.0301C96.8561 28.0301 98.3711 27.8701 99.3373 27.8301L103.476 27.71L104.408 29.162L96.2729 29.2879L92.1911 31.9176L91.3164 30.557L95.5127 27.9158Z" fill="#231F20"/>
<path d="M109.263 41.0303L109.463 42.7112L102.786 45.2151C101.671 45.6324 99.7556 46.1299 99.7556 46.1299V46.1642C99.7556 46.1642 101.757 46.2442 102.94 46.4043L110.023 47.4675L110.229 49.1826L103.58 51.8239C102.471 52.2584 100.545 52.8072 100.545 52.8072V52.8358C100.545 52.8358 102.528 52.9044 103.706 53.053L110.795 53.9735L110.989 55.6199L98.9209 53.7619L98.7322 52.2126L105.981 49.4057C106.982 49.0112 108.84 48.5081 108.84 48.5081V48.4737C108.84 48.4737 106.919 48.3995 105.867 48.2566L98.1319 47.1132L97.9434 45.5124L109.263 41.0303Z" fill="#231F20"/>
<path d="M109.719 64.2468L109.381 66.0191L97.0156 68.0771L97.3473 66.362L100.938 65.8533L101.801 61.2797L98.6507 59.456L98.9652 57.8267L109.719 64.2468ZM102.961 61.96L102.258 65.6588L105.688 65.1673C106.883 64.99 108.272 64.9328 108.272 64.9328V64.8871C108.272 64.8871 106.957 64.3154 105.951 63.7094L102.961 61.96Z" fill="#231F20"/>
<path d="M99.6754 74.143L107.679 73.1139L106.936 74.7546L102.831 75.2177C101.865 75.3149 100.35 75.3549 100.35 75.3549V75.3835C100.35 75.3835 101.31 76.5669 101.865 77.3615L104.209 80.7917L103.494 82.3638L98.9779 75.6008L94.5586 73.5884L95.2276 72.1191L99.6754 74.143Z" fill="#231F20"/>
<path d="M96.0897 92.3853L89.195 98.7197L88.2289 97.6735L91.0874 95.0494L84.0898 87.4345L85.2903 86.3311L92.2821 93.9747L95.1406 91.362L96.0897 92.3853Z" fill="#231F20"/>
<path d="M82.4545 96.4622C84.0266 99.6236 83.2206 102.939 80.0362 104.523C76.8519 106.107 73.7075 104.763 72.1354 101.602C70.5632 98.4402 71.3922 95.1186 74.5651 93.5408C77.738 91.9629 80.888 93.3236 82.4545 96.4622ZM73.6333 100.858C74.8396 103.277 77.0234 104.472 79.413 103.277C81.8027 102.082 82.1857 99.6178 80.9795 97.1995C79.7732 94.7813 77.5894 93.6208 75.1997 94.8099C72.81 95.999 72.4327 98.4516 73.6333 100.836V100.858Z" fill="#231F20"/>
<path d="M57.7859 110.068L55.985 110.12L51.3086 98.4855L53.0809 98.4341L54.35 101.83L58.9807 101.693L60.0841 98.2283L61.742 98.1826L57.7859 110.068ZM58.5748 102.973L54.8131 103.082L56.0308 106.341C56.4596 107.484 56.8141 108.816 56.8141 108.816H56.8654C56.8654 108.816 57.1685 107.404 57.5172 106.301L58.5748 102.973Z" fill="#231F20"/>
<path d="M40.3783 97.6508H40.424C40.9499 97.1565 41.5959 96.8084 42.2979 96.6409C42.9999 96.4735 43.7334 96.4925 44.4258 96.6961C45.1538 96.8659 45.8368 97.1902 46.4286 97.6468C47.0203 98.1035 47.5071 98.6819 47.856 99.3429C48.5671 100.779 48.7099 102.431 48.2561 103.968C47.9096 105.546 46.9989 106.942 45.695 107.896C45.0447 108.322 44.3089 108.6 43.5394 108.711C42.7699 108.821 41.9855 108.762 41.2416 108.536C38.5603 107.85 37.3826 106.009 37.4912 103.802L39.1148 104.22C39.1148 105.592 39.8523 106.741 41.6017 107.192C44.2658 107.873 45.9923 106.18 46.6612 103.556C47.3301 100.932 46.2495 98.617 43.997 98.0396C41.7446 97.4622 40.264 98.7198 39.7837 100.521L39.7208 100.766L43.0309 101.613L42.6878 102.945L37.8342 101.704L39.3779 95.667L40.3783 95.9242V97.6508Z" fill="#231F20"/>
<path d="M30.2648 104.3L23.0957 100.001L23.8275 98.7771L29.6188 102.253L31.4482 99.2001L26.2115 96.0616L26.9033 94.9182L32.1399 98.0625L34.1809 94.6323L28.2409 91.0707L28.9956 89.813L36.319 94.2036L30.2648 104.3Z" fill="#231F20"/>
<path d="M18.1856 96.119L17.0422 94.8842L19.1002 86.3088C19.3403 85.2969 19.9006 83.7476 19.9006 83.7476L19.872 83.7133C19.872 83.7133 18.8315 84.8566 18.1169 85.514L12.8745 90.4535L11.834 89.3443L20.4094 81.2778L21.5528 82.4955L19.4833 91.0709C19.2318 92.0885 18.7115 93.6435 18.7115 93.6435C18.7115 93.6435 19.7634 92.5002 20.4552 91.8713L25.7033 86.9261L26.7438 88.0296L18.1856 96.119Z" fill="#231F20"/>
<path d="M13.2797 81.3979C10.1754 82.93 6.85392 82.2382 5.31035 79.1111C4.75007 78.073 4.57002 76.8719 4.80146 75.7153C5.05118 74.6561 5.70057 73.7344 6.61383 73.1426L7.32844 74.589C6.15647 75.4694 5.79056 76.8757 6.58521 78.5165C7.68858 80.7575 10.1297 81.1234 12.5537 79.9286C15.0748 78.6823 16.0925 76.4526 15.0463 74.3259C14.103 72.4165 12.3537 72.1308 10.7872 72.7425L10.0783 71.2961C10.6449 71.0226 11.2617 70.8689 11.8904 70.8447C12.5191 70.8205 13.146 70.9263 13.7319 71.1554C14.3179 71.3845 14.8504 71.732 15.2959 72.1762C15.7414 72.6205 16.0904 73.1519 16.3212 73.7372C17.8019 76.7272 16.4698 79.82 13.2797 81.3979Z" fill="#231F20"/>
<path d="M7.81514 64.693L1.8982 70.1356L1.56085 68.3632L4.64235 65.6191C5.37412 64.9788 6.58606 64.0755 6.58606 64.0755V64.0412C6.58606 64.0412 5.12257 63.6297 4.20786 63.3038L0.326041 61.8689L0.00585938 60.1538L7.59796 63.0694L12.3659 62.1605L12.6688 63.7441L7.81514 64.693Z" fill="#231F20"/>
<path d="M10.0399 56.9232L9.99414 55.2081L11.7378 55.1567L11.7836 56.8718L10.0399 56.9232Z" fill="#231F20"/>
</g>
<defs>
<clipPath id="clip0_3082_13401">
<rect width="111" height="110.12" fill="white"/>
</clipPath>
</defs>
</svg>
