<svg width="38" height="38" viewBox="0 0 38 38" fill="none" xmlns="http://www.w3.org/2000/svg">
<rect x="0.75" y="7.75" width="36.5" height="22.5" fill="white" stroke="black" strokeWidth="1.5" strokeLinecap="round" strokeLinejoin="round"/>
<path d="M19.15 23.75L19.15 25.25" stroke="black" strokeWidth="1.5" strokeLinecap="round" strokeLinejoin="round"/>
<path d="M19.15 12.75L19.15 14.25" stroke="black" strokeWidth="1.5" strokeLinecap="round" strokeLinejoin="round"/>
<path fill-rule="evenodd" clip-rule="evenodd" d="M17.0202 16.605C17.0202 16.4293 17.1305 16.17 17.5169 15.9189C17.8963 15.6723 18.4649 15.4954 19.1314 15.4954C19.7978 15.4954 20.3665 15.6723 20.7458 15.9189C21.1322 16.17 21.2426 16.4293 21.2426 16.605C21.2426 17.0192 21.5783 17.355 21.9926 17.355C22.4068 17.355 22.7426 17.0192 22.7426 16.605C22.7426 15.7537 22.2124 15.0831 21.5633 14.6612C20.907 14.2347 20.0451 13.9954 19.1314 13.9954C18.2176 13.9954 17.3557 14.2347 16.6995 14.6612C16.0504 15.0831 15.5202 15.7537 15.5202 16.605C15.5202 17.2472 15.6887 17.9756 16.3558 18.5067C16.9155 18.9523 17.7203 19.1694 18.7726 19.2082C18.8049 19.2125 18.8378 19.2147 18.8713 19.2147C19.9579 19.2147 20.6113 19.4794 20.9803 19.789C21.3364 20.0878 21.5027 20.4897 21.5027 20.9546C21.5027 21.289 21.3092 21.6545 20.8315 21.9699C20.354 22.2852 19.6574 22.4966 18.8713 22.4966C18.1597 22.4966 17.5431 22.2748 17.1203 21.9509C16.6982 21.6275 16.5 21.2336 16.5 20.8556C16.5 20.4414 16.1642 20.1056 15.75 20.1056C15.3358 20.1056 15 20.4414 15 20.8556C15 21.7981 15.5006 22.5997 16.2081 23.1417C16.915 23.6831 17.859 23.9966 18.8713 23.9966C19.9059 23.9966 20.9 23.7222 21.658 23.2216C22.4159 22.7212 23.0027 21.9406 23.0027 20.9546C23.0027 20.099 22.6787 19.2559 21.9444 18.6399C21.2935 18.0938 20.3855 17.78 19.2489 17.7238C19.2106 17.7178 19.1714 17.7146 19.1314 17.7146C18.0202 17.7146 17.5138 17.5113 17.2901 17.3332C17.1119 17.1913 17.0202 16.9899 17.0202 16.605Z" fill="black"/>
</svg>
