<svg id="phone" width="27" height="27" viewBox="0 0 27 27" fill="none" xmlns="http://www.w3.org/2000/svg">
    <g id="Vector">
        <mask id="path-1-inside-1_748_12374" fill="white">
            <path id="back" fill-rule="evenodd" clip-rule="evenodd"
                d="M0.592237 7.19542C1.01937 14.286 10.8254 23.4287 17.4184 25.5995C21.8409 27.0572 28.3645 24.3645 25.7385 21.7385L21.5935 17.5935C20.9653 16.9653 19.9589 17.0242 19.3558 17.6272L17.3005 19.6826C17.1428 19.8403 16.8982 19.8739 16.7039 19.7645C11.959 17.0943 9.82617 14.9261 7.13957 10.2083C7.02872 10.0137 7.06182 9.76767 7.22022 9.60926L9.27905 7.55044C9.88207 6.94742 9.94103 5.94103 9.30769 5.30769L5.16266 1.16266C2.84053 -1.14942 0.43241 4.51294 0.592237 7.19542Z" />
        </mask>
        <path id='edit' fill-rule="evenodd" clip-rule="evenodd"
            d="M0.592237 7.19542C1.01937 14.286 10.8254 23.4287 17.4184 25.5995C21.8409 27.0572 28.3645 24.3645 25.7385 21.7385L21.5935 17.5935C20.9653 16.9653 19.9589 17.0242 19.3558 17.6272L17.3005 19.6826C17.1428 19.8403 16.8982 19.8739 16.7039 19.7645C11.959 17.0943 9.82617 14.9261 7.13957 10.2083C7.02872 10.0137 7.06182 9.76767 7.22022 9.60926L9.27905 7.55044C9.88207 6.94742 9.94103 5.94103 9.30769 5.30769L5.16266 1.16266C2.84053 -1.14942 0.43241 4.51294 0.592237 7.19542Z"
            fill="white" stroke="black" strokeWidth="3" strokeLinecap="round" strokeLinejoin="round"
            mask="url(#path-1-inside-1_748_12374)" />
    </g>
</svg>