<svg width="25" height="26" viewBox="0 0 25 26" fill="none" xmlns="http://www.w3.org/2000/svg">
<path d="M9.43367 8.28947C6.01768 8.28947 4.08168 10.2575 3.37768 11.5695V0.521484H0.929688V24.9694H3.04968V21.8574C3.60168 22.8414 5.51368 25.6174 9.26567 25.6174C13.7937 25.6174 16.9617 22.0574 16.9617 16.9535C16.9617 12.0095 13.7297 8.28947 9.43367 8.28947ZM9.10567 23.4894C6.28968 23.4894 3.36968 21.0414 3.36968 16.9455C3.36968 12.8495 6.28168 10.4015 9.10567 10.4015C11.7137 10.4015 14.5137 12.4495 14.5137 16.9455C14.5217 21.4494 11.7137 23.4894 9.10567 23.4894Z" fill="black"/>
<path d="M23.3778 21.7617C22.4658 21.7617 21.8018 22.4337 21.8018 23.3617C21.8018 24.2897 22.4578 24.9617 23.3538 24.9617C24.2818 24.9617 24.9298 24.3057 24.9298 23.3617C24.9298 22.4177 24.2897 21.7617 23.3778 21.7617Z" fill="black"/>
</svg>
