<svg width="140" height="3" viewBox="0 0 140 3" fill="none" xmlns="http://www.w3.org/2000/svg">
<path d="M12.0111 3C12.5111 3 12.2111 2.73334 12.4111 2.60001C13.0111 2.53334 12.7111 2.8 12.9111 2.86667C13.3111 2.8 13.6111 2.53334 13.9111 2.53334C13.9111 2.6 14.0111 2.6 13.9111 2.66667C14.3111 2.46667 15.2111 2.66667 15.7111 2.4L15.8111 2.46667C15.7111 2.33334 15.7111 2.20001 15.7111 2.13334C15.9111 2.13334 16.1111 2.00001 16.2111 2.13334C16.1111 2.13334 16.0111 2.20001 16.0111 2.26667L16.3111 2.2C16.5111 2.4 16.0111 2.26667 16.0111 2.46667C16.5111 2.40001 17.1111 2.20001 17.5111 2.26667C17.6111 2.46667 16.6111 2.33334 17.1111 2.53334L16.5111 2.46667C17.0111 2.80001 16.1111 2.46667 16.6111 2.80001C17.4111 2.86667 17.5111 2.66667 18.2111 2.73334C18.4111 2.6 18.1111 2.53334 18.3111 2.4C19.4111 2.13334 19.2111 2.93333 20.0111 2.66667C20.2111 2.53333 20.3111 2.2 20.9111 2.4L20.7111 2.66667C21.5111 2.66667 21.1111 2.26667 21.9111 2.46667C21.8111 2.60001 21.3111 2.53334 21.4111 2.60001C21.9111 2.80001 21.8111 2.46667 22.1111 2.46667L22.2111 2.66667C23.0111 2.6 23.9111 2.46667 24.8111 2.4C24.8111 2.46667 24.6111 2.53334 24.8111 2.60001C25.9111 2.46667 27.2111 2.6 28.3111 2.73334L28.7111 2.53334C28.8111 2.53334 28.9111 2.6 28.8111 2.66667C29.2111 2.73333 28.8111 2.53334 29.0111 2.46667C29.2111 2.46667 29.3111 2.6 29.2111 2.66667C29.9111 2.46667 31.3111 2.26667 32.1111 2.46667L31.9111 2.53334C32.5111 2.6 32.6111 2.13334 33.1111 2.26667L33.0111 2.33333C34.3111 2.4 35.8111 2.20001 36.8111 2.46667C37.0111 2.20001 38.1111 2.6 38.2111 2.2C39.0111 2.4 38.7111 2.46667 39.8111 2.60001C40.1111 2.60001 40.2111 2.33333 40.6111 2.33333V2.53334L41.1111 2.33333L41.4111 2.60001L41.7111 2.53334C41.6111 2.53334 41.4111 2.46667 41.4111 2.4C41.9111 2.33334 42.7111 2.53333 42.7111 2.66667L43.9111 2.46667C43.9111 2.53334 43.7111 2.6 43.5111 2.66667C44.1111 2.46667 43.6111 2.86667 44.2111 2.66667C44.1111 2.6 44.2111 2.53334 44.3111 2.53334C44.6111 2.66667 45.3111 2.66667 45.8111 2.60001L45.7111 2.73334C46.6111 2.73334 47.6111 2.66667 48.6111 2.66667C48.2111 2.6 48.3111 2.33333 48.6111 2.33333L48.7111 2.53334C48.9111 2.4 48.4111 2.46667 48.8111 2.26667C49.2111 2.26667 49.1111 2.53334 48.8111 2.60001L49.3111 2.53334C49.3111 2.6 49.2111 2.6 49.2111 2.73334C49.4111 2.6 50.0111 2.93334 50.3111 2.73334V2.80001C51.3111 2.80001 51.8111 2.73334 52.6111 2.73334C52.6111 2.53334 52.9111 2.6 53.2111 2.4C53.8111 2.46667 54.5111 2.60001 55.2111 2.60001C55.7111 2.53334 55.3111 2.46667 55.6111 2.33333C55.6111 2.53333 56.4111 2.46667 56.0111 2.60001C56.9111 2.60001 57.1111 2.53334 58.2111 2.4C58.1111 2.33334 57.9111 2.33334 58.0111 2.26667C58.2111 2.26667 58.5111 2.33334 58.4111 2.4H58.3111C59.5111 2.13334 61.2111 2.86667 62.2111 2.53334H62.1111L63.1111 2.33333C63.6111 2.33333 62.8111 2.46667 63.2111 2.60001C64.3111 2.33334 65.0111 2.66667 65.9111 2.46667C66.6111 3.00001 68.4111 2.4 69.4111 2.73334L69.3111 2.60001C69.5111 2.46667 69.6111 2.66667 69.8111 2.66667C69.8111 2.6 69.5111 2.53334 69.7111 2.46667C71.8111 2.33334 74.0111 2.66667 76.1111 2.73334C76.9111 2.8 76.5111 2.13334 77.5111 2.4L77.2111 2.60001C78.8111 2.33334 80.4111 2.6 82.0111 2.4C81.9111 2.46667 81.9111 2.53334 81.8111 2.53334C82.1111 2.66667 83.0111 2.53334 83.0111 2.4C83.2111 2.4 83.1111 2.53334 83.2111 2.60001C83.5111 2.66667 84.0111 2.4 84.2111 2.53334C84.2111 2.53334 84.1111 2.60001 84.0111 2.60001C84.2111 2.53334 85.0111 2.60001 84.8111 2.46667C85.4111 2.53334 85.9111 2.4 86.4111 2.53334C86.7111 2.33334 87.4111 2.66667 87.5111 2.33333C87.5111 2.66667 88.5111 2.60001 88.9111 2.46667C88.8111 2.53334 89.2111 2.53333 89.1111 2.66667C89.5111 2.66667 89.9111 2.60001 89.8111 2.46667C90.6111 2.86667 91.4111 2.2 91.8111 2.66667C93.0111 2.53333 94.2111 2.4 95.3111 2.33333C95.3111 2.66667 94.1111 2.33333 94.1111 2.66667C95.2111 2.53333 95.8111 2.26667 96.8111 2.4C97.1111 2.46667 96.6111 2.53334 96.5111 2.60001C97.6111 2.46667 98.5111 2.66667 99.5111 2.46667C99.5111 2.46667 99.4111 2.53334 99.3111 2.53334C99.5111 2.53334 99.7111 2.60001 99.7111 2.46667L99.5111 2.53334C99.2111 2.33334 100.211 2.13333 100.311 2C100.011 2.4 101.211 2.13334 100.711 2.60001C100.811 2.60001 101.011 2.53334 101.011 2.4C101.211 2.4 101.211 2.46667 101.111 2.60001C101.811 2.53334 101.511 2.4 102.111 2.4C102.111 2.46667 102.011 2.46667 101.911 2.60001C102.211 2.46667 102.511 2.33334 103.011 2.4C103.011 2.46667 103.011 2.46667 102.911 2.46667C103.811 2.46667 104.411 2.13334 105.411 2.26667C105.111 2.53334 105.711 2.33334 105.811 2.60001L106.311 2.53334L106.111 2.4C106.611 2.4 107.011 2.26667 107.311 2.33333L107.011 2.4L107.811 2.33333L107.311 2.2C107.811 2.06667 107.311 1.86667 107.911 1.93334C107.811 1.93334 108.411 1.93334 108.611 2.06667C108.811 2 109.111 1.93333 109.411 2C109.511 2.06667 109.311 2.26667 109.411 2.33333C109.611 2.13333 110.511 2.26667 110.711 2.06667C110.611 2.13334 110.611 2.26667 110.611 2.26667L110.811 2.13334C111.011 2.20001 111.011 2.2 111.011 2.33333C111.611 2.4 110.811 2.00001 111.611 2.13334C111.511 2.13334 111.611 2.2 111.411 2.2C112.111 2.26667 112.911 2.13334 113.511 2.2C113.711 2.46667 112.911 2.26667 113.111 2.46667C114.111 2.46667 115.211 2.20001 116.111 2.26667H115.911C116.011 1.93334 116.611 2.46667 117.111 2.26667C117.011 2.26667 116.911 2.46667 117.011 2.4C117.711 2.46667 118.411 2.33334 119.411 2.26667L119.311 2.33333C119.711 2.4 120.311 2.40001 120.711 2.46667C120.811 2.40001 121.111 2.40001 120.911 2.26667C122.211 2.80001 123.411 2.00001 124.511 2.46667C124.411 2.46667 124.211 2.53334 124.311 2.53334L125.311 2.46667C125.211 2.33334 125.211 2.40001 125.011 2.26667C125.111 2.20001 125.411 2.13334 125.611 2.13334C125.211 2.20001 125.611 2.40001 125.811 2.46667C125.811 2.40001 125.811 2.4 125.811 2.33333C126.311 2.6 125.911 2 126.611 2.2V2.26667C126.911 2.20001 127.111 2.13334 127.411 2.13334C127.511 2.33334 127.111 2.2 127.111 2.33333C127.511 2.33333 127.911 2 128.211 2.2C128.011 2.26667 127.811 2.26667 127.611 2.26667C128.011 2.46667 128.011 2.40001 128.311 2.46667L129.011 2.60001L128.811 2.4C129.311 1.93334 129.811 2.33334 130.511 2.06667C129.811 2.33334 130.411 2.2 130.311 2.4C130.511 2.46667 130.711 2.53334 130.611 2.60001C130.911 2.46667 131.111 2.73334 131.611 2.53334C131.611 2.6 131.911 2.53334 131.911 2.73334C132.311 2.66667 131.811 2.6 131.811 2.53334C132.411 2.33334 133.311 2.86667 134.211 2.53334C135.011 2.4 135.111 2.20001 135.911 2.13334C136.111 2.26667 135.711 2.33333 135.711 2.33333C136.111 2.46667 136.411 2.4 136.811 2.33333C136.711 2.4 136.811 2.46667 136.911 2.53334C137.211 2.53334 137.111 2.33334 137.511 2.4C137.411 2.46667 137.311 2.6 137.211 2.66667C137.611 2.6 137.911 2.53334 138.311 2.46667C138.411 2.60001 138.111 2.66667 137.911 2.73334C138.311 2.66667 139.011 2.66667 139.111 2.46667L138.811 2.4C139.011 2.4 138.911 2.53334 138.811 2.60001C138.411 2.73334 138.311 2.53334 138.311 2.46667L138.611 2.4C138.411 2 137.611 2.46667 137.011 2.4L137.211 2.13334L136.711 2.33333C136.611 2.26667 136.511 2.13334 136.811 2.06667C136.411 1.93334 136.511 2.13333 136.111 2V1.93334L135.711 2C135.811 1.93333 135.611 1.8 135.911 1.86667C135.211 1.66667 134.811 2.06667 134.611 1.86667H134.711C133.811 1.93334 134.611 2.06667 133.911 2.26667L133.511 1.73334L133.411 1.93334C133.311 1.93334 133.111 1.93334 133.211 1.80001C132.811 1.93334 133.311 1.86667 133.011 2C132.611 1.8 131.711 2.06667 131.711 1.73334C131.511 1.86667 132.111 1.86667 131.611 1.93334C131.511 1.60001 131.011 2.00001 130.611 1.80001C130.711 1.60001 131.111 1.73334 130.711 1.53334C130.411 1.8 129.911 1.46667 129.511 1.53334C129.511 1.8 128.711 1.6 128.111 1.66667C128.111 1.6 127.011 1.53334 126.511 1.4V1.33333C126.411 1.6 125.811 1.53334 125.411 1.53334C125.411 1.4 125.511 1.33334 125.711 1.26667H125.311C125.211 1.33334 125.111 1.4 124.811 1.4L124.911 1.2C124.411 1.2 123.911 1.40001 123.211 1.26667C123.211 1.46667 123.711 1.73334 123.011 1.86667C123.011 1.8 123.011 1.60001 123.111 1.60001C123.011 1.60001 122.911 1.66667 122.811 1.60001L123.111 1.46667C122.811 1.40001 122.911 1.60001 122.711 1.60001C122.711 1.46667 122.511 1.53334 122.611 1.4C122.711 1.4 122.811 1.46667 122.911 1.4C122.611 1.4 122.311 1.26667 122.211 1.2C122.211 1.26667 122.211 1.4 122.011 1.4C121.511 1.4 121.811 1.26667 121.511 1.13334C121.411 1.20001 121.011 1.13333 121.011 1.33333C120.811 1.33333 120.811 1.26667 120.811 1.2C120.511 1.26667 119.611 1.2 119.811 1.4H119.911C119.011 1.6 118.111 1.26667 117.211 1.33333V1.26667C116.711 1.33334 116.111 1.26667 115.711 1.4C115.511 1.4 115.311 1.26667 115.411 1.2C115.011 1.26667 115.011 1.33334 114.411 1.2C114.811 1.06667 114.311 1.06667 114.811 1.13334C114.311 1.06667 114.211 0.933342 113.611 1.13334C113.811 1.00001 113.211 0.933339 113.011 0.933339L113.411 1.06667C113.111 1.06667 112.911 1.06667 112.611 1.06667L112.711 0.866669C111.711 0.600002 110.811 1.26667 110.011 0.866669C109.711 1 110.611 1.00001 110.311 1.13334C109.811 1.06667 109.311 0.800008 109.211 0.800008C108.511 0.666675 108.611 1.13333 107.911 1C108.011 1.06667 108.111 1.26667 107.511 1.33333C107.011 1.26667 106.911 1.00001 107.211 0.933339C107.311 0.933339 107.411 0.933333 107.411 1C107.611 1 107.811 0.933335 107.611 0.866669L107.511 0.933339C107.311 0.866673 106.611 0.866671 106.811 0.733337C106.411 0.800004 106.611 0.866673 106.911 0.933339C106.311 0.800006 105.911 0.933342 105.311 0.800008C105.411 0.866675 105.511 0.933339 105.411 0.933339C104.511 0.800006 105.011 1.06667 104.411 1.13334C104.011 1.00001 104.511 0.866673 103.911 0.933339C103.511 0.866673 103.811 0.733333 104.011 0.666667C103.411 0.8 102.911 0.533335 102.611 0.533335L102.911 0.466675C102.711 0.533341 102.611 0.466675 102.411 0.466675L102.611 0.600006C102.411 0.600006 102.311 0.600002 102.311 0.533335C102.111 0.666669 102.411 0.800006 102.111 0.933339C101.911 0.866673 101.411 1.00001 101.311 0.800008C102.111 0.866675 101.211 0.600002 101.911 0.533335C101.811 0.533335 101.611 0.533335 101.411 0.533335C101.411 0.533335 101.411 0.466675 101.511 0.466675C100.811 0.266675 101.211 0.733333 100.411 0.666667C100.511 0.533333 100.211 0.466675 100.111 0.466675C100.411 0.466675 100.211 0.666671 100.011 0.733337C99.5111 0.666671 99.5111 0.800008 99.2111 0.800008L99.5111 0.866669C99.4111 1 99.2111 0.933333 98.8111 1C98.8111 0.933333 99.1111 0.933335 99.0111 0.866669C98.6111 1.06667 98.2111 0.666675 97.6111 0.800008C97.4111 0.733342 97.6111 0.600002 97.4111 0.533335C96.8111 0.666669 96.8111 0.333341 96.2111 0.466675C96.4111 0.600008 96.4111 0.600004 96.0111 0.733337L97.0111 0.600006L96.4111 0.800008C96.7111 0.800008 97.0111 0.733337 97.2111 0.733337C96.9111 0.866671 96.9111 0.800006 97.1111 0.933339C96.7111 0.666673 96.3111 1.06667 95.8111 0.933339V0.533335C95.1111 0.333335 94.5111 0.733339 93.6111 0.600006L93.9111 0.666667C93.8111 0.8 93.3111 0.666671 93.0111 0.733337C93.0111 0.600004 92.8111 0.533341 92.7111 0.466675C92.7111 0.533341 92.0111 0.466671 91.9111 0.733337L91.5111 0.533335C90.7111 0.466669 90.6111 0.933335 89.9111 0.866669C90.1111 0.733335 89.8111 0.600002 90.3111 0.533335C90.1111 0.533335 89.8111 0.533339 89.8111 0.600006C89.7111 0.533339 89.1111 0.8 88.9111 0.666667C88.8111 0.733333 88.8111 0.866669 88.5111 0.866669V0.800008C88.5111 0.866675 88.1111 0.866667 88.3111 1C87.6111 0.6 86.2111 1 85.6111 0.666667C85.1111 0.733333 84.4111 0.733337 84.0111 0.733337C84.0111 0.666671 84.0111 0.666667 84.1111 0.666667C83.4111 0.533333 83.7111 1.06667 82.9111 0.933339C82.5111 0.733339 83.3111 0.800004 83.1111 0.733337C83.0111 0.266671 82.2111 0.800002 81.7111 0.533335H81.8111C81.4111 0.400002 80.9111 0.666667 80.2111 0.666667V0.600006C79.8111 0.800006 78.9111 0.866673 78.3111 0.933339C78.5111 0.733339 78.6111 0.866667 78.5111 0.666667C78.2111 0.666667 78.6111 0.933333 78.0111 1C77.8111 0.933333 77.4111 0.8 77.4111 0.666667H77.9111C77.6111 0.4 77.2111 0.666673 77.0111 0.600006V0.466675C76.2111 0.466675 76.2111 0.733337 75.4111 0.733337L75.5111 0.800008C75.0111 1.06667 75.1111 0.666669 74.7111 0.866669L74.6111 0.600006C74.3111 0.666673 73.5111 0.866673 73.0111 0.933339C73.3111 0.733339 73.9111 0.666669 74.3111 0.533335C74.0111 0.533335 73.3111 0.533333 73.1111 0.666667C73.2111 0.666667 73.4111 0.600006 73.5111 0.600006C73.1111 0.800006 72.6111 0.933339 72.0111 0.933339C72.1111 0.400006 70.4111 0.800004 70.0111 0.400004C68.9111 0.600004 67.9111 0.333333 66.6111 0.333333C67.0111 0.733333 66.2111 0.333337 66.3111 0.733337C66.0111 0.733337 65.9111 0.733337 65.9111 0.733337L65.0111 0.466675C64.8111 0.333341 65.3111 0.400006 65.2111 0.266673C64.6111 0.266673 64.9111 0.0666667 64.5111 0C64.6111 0.133333 64.3111 0.200008 63.9111 0.133341L64.4111 0.333333C63.5111 0.533333 63.6111 2.02656e-06 62.7111 0.200002L63.0111 0.0666707C62.5111 0.133337 61.3111 0.0666707 60.9111 0.400004C60.8111 0.333337 60.7111 0.266669 60.9111 0.200002C59.8111 0.133335 58.5111 0.533333 57.6111 0.333333L57.7111 0.266673C57.5111 0.266673 57.3111 0.466667 57.1111 0.333333C57.1111 0.266667 57.2111 0.266669 57.1111 0.200002C57.0111 0.266669 56.6111 0.4 56.3111 0.333333L56.5111 0.200002C55.4111 0.0666687 54.9111 0.466669 54.0111 0.533335C54.0111 0.266669 53.2111 0.133341 52.7111 0.133341V0.0666707C51.5111 0.0666707 50.6111 0.333341 49.4111 0.466675C48.7111 0.133341 47.0111 0.333335 45.8111 0.200002C46.0111 0.266669 45.8111 0.400008 45.6111 0.466675C45.3111 0.400008 44.9111 0.666671 44.9111 0.400004H45.0111C44.8111 0.133337 44.2111 0.200002 43.8111 0.200002L43.7111 0.533335C42.6111 2.02656e-06 40.7111 0.733339 40.1111 0.266673C39.8111 0.333339 39.5111 0.333341 39.2111 0.466675V0.266673C38.4111 0.200006 38.1111 0.200006 37.1111 0.266673L37.3111 0.133341C36.8111 0.133341 36.6111 0.666667 36.2111 0.666667L36.0111 0.400004C35.1111 0.400004 34.1111 0.200008 33.2111 0.466675C33.2111 0.400008 33.2111 0.333333 33.4111 0.333333C33.0111 0.333333 31.7111 0.133335 31.9111 0.533335C31.9111 0.266669 31.0111 0.533333 30.5111 0.666667L30.6111 0.466675C30.2111 0.733342 30.2111 0.800002 29.6111 0.866669C29.5111 0.866669 29.5111 0.733337 29.7111 0.733337C29.2111 0.666671 29.3111 0.933342 28.8111 0.800008L29.0111 0.666667C28.5111 0.666667 28.6111 0.733335 28.3111 0.866669C28.0111 0.933335 27.4111 0.8 27.3111 0.666667C27.2111 0.8 27.0111 0.933335 26.7111 0.866669C26.7111 0.800002 26.8111 0.733337 26.8111 0.733337C26.0111 0.600004 25.6111 0.933342 25.1111 0.800008C25.1111 0.733342 25.1111 0.733333 25.0111 0.666667C25.6111 0.666667 26.1111 0.666667 26.1111 0.666667C26.1111 0.466667 25.6111 0.466669 26.0111 0.200002C25.6111 0.333335 24.9111 0.600002 24.4111 0.533335C24.4111 0.533335 24.4111 0.533341 24.3111 0.466675H24.4111C24.3111 0.466675 24.2111 0.466675 24.1111 0.466675C23.9111 0.466675 23.8111 0.400004 23.7111 0.400004C23.6111 0.266671 23.1111 0.333333 22.9111 0.333333C22.9111 0.533333 22.6111 0.466667 22.9111 0.666667C22.9111 0.666667 22.9111 0.666673 23.1111 0.600006H23.2111C23.4111 0.600006 23.6111 0.600006 23.8111 0.600006C23.6111 0.666673 23.4111 0.8 23.1111 0.666667C23.0111 0.8 22.8111 0.933333 22.8111 1C22.4111 0.733333 21.8111 0.600008 21.7111 0.466675C20.9111 0.600008 19.9111 0.533339 19.4111 0.933339C19.2111 1.00001 19.1111 0.866675 19.1111 0.800008C19.2111 0.733342 19.4111 0.733337 19.4111 0.733337C19.0111 0.800004 18.1111 0.800004 18.0111 1.06667C17.4111 0.933337 18.3111 0.866669 17.5111 0.866669L17.6111 0.800008C16.1111 0.466675 15.2111 1.46667 13.5111 1C13.6111 1 13.7111 1.06667 13.7111 1.06667C11.8111 0.866671 9.81107 1.33333 7.91107 1C7.41107 0.933333 7.31107 1.06667 7.01107 1.2L6.91107 1L6.41107 1.26667C5.61107 1.46667 5.01107 0.800008 4.01107 1.13334L4.11107 1.26667C3.71107 1.26667 3.01107 1.4 3.01107 1.2C3.01107 1.2 2.91107 1.33334 2.71107 1.26667V1.13334L1.81107 1.33333C1.11107 1.26667 1.91107 0.933339 0.911068 0.933339C0.511068 1.00001 -0.0889328 1.26667 0.0110672 1.33333C0.111067 1.33333 0.411067 1.40001 0.411067 1.46667L0.111068 1.53334C0.111068 1.86667 -0.188932 2.2 0.711067 2.4L1.31107 2.2L1.51107 2.33333H1.01107C1.31107 2.46667 1.51107 2.33334 1.61107 2.26667C1.71107 2.33334 1.71107 2.4 1.91107 2.4L2.51107 2.06667C2.61107 2.2 2.31107 2.33334 2.61107 2.4C2.91107 2.26667 2.31107 2.13334 2.81107 2.06667C3.11107 2.2 3.01107 2.33334 3.31107 2.2C3.31107 2.26667 3.31107 2.33334 3.21107 2.4C3.51107 2.26667 4.01107 2.33334 4.11107 2.2C4.41107 2.4 5.11107 2.13334 5.11107 2.4C5.21107 2.33334 5.61107 2.13334 5.91107 2.13334C5.41107 2.46667 6.91107 2.13334 6.81107 2.53334C7.11107 2.2 8.11107 2.33334 8.71107 2.2C8.71107 2.2 8.61107 2.26667 8.51107 2.26667C8.91107 2.26667 9.01107 2.40001 9.21107 2.46667C9.21107 2.20001 9.81107 2.13333 10.1111 2C10.5111 2.26667 9.81107 2.33334 10.0111 2.53334C10.0111 2.33334 10.8111 2.33334 10.6111 2.13334C10.9111 2.26667 10.9111 2.2 11.1111 2.4C11.1111 2.06667 11.4111 2.33334 11.7111 2.13334C12.2111 2.26667 11.8111 2.46667 12.4111 2.33333C12.5111 2.86667 12.0111 3 12.0111 3ZM24.7111 2.2C24.6111 2.2 24.5111 2.2 24.4111 2.2C24.5111 2.2 24.6111 2.2 24.7111 2.2ZM25.8111 2.2C25.7111 2.2 25.5111 2.2 25.3111 2.2C25.3111 2.13334 25.3111 2.06667 25.4111 2.06667C25.3111 2.06667 25.6111 2.13334 25.8111 2.2ZM23.5111 0.933339C23.7111 0.933339 23.7111 0.933333 23.8111 1C23.7111 1 23.6111 1 23.5111 1C23.4111 1 23.4111 0.933339 23.5111 0.933339Z" fill="#202020"/>
</svg>
