<svg width="164" height="84" viewBox="0 0 164 84" fill="none" xmlns="http://www.w3.org/2000/svg">
<path d="M44.8719 25.4434C44.5618 25.2644 44.4278 24.8271 44.47 24.1314C44.5073 23.7159 44.6033 23.2143 44.758 22.6266C44.7877 22.462 44.8032 22.2177 44.8043 21.8938L45.4998 19.9999C45.4935 19.9269 45.4963 19.8751 45.5083 19.8446C45.5191 19.7995 45.5318 19.7763 45.5464 19.775C45.5598 19.7591 45.5731 19.7432 45.5864 19.7273C45.5985 19.6968 45.6019 19.6524 45.5968 19.5939C45.5917 19.5355 45.6396 19.3252 45.7404 18.963C45.8558 18.5996 45.9323 18.3794 45.9697 18.3025C45.9951 18.2561 46.0376 18.2377 46.0974 18.2472C46.1571 18.2567 46.185 18.2395 46.1812 18.1957C46.143 18.096 46.1407 17.9857 46.1743 17.865C46.2213 17.7284 46.2336 17.6169 46.2113 17.5305C46.2678 17.3342 46.3816 17.0371 46.553 16.6393C46.7243 16.2416 46.8623 15.8835 46.9669 15.5652C47.0703 15.2322 47.1105 14.9343 47.0875 14.6713C47.0836 14.6274 47.0992 14.5525 47.134 14.4464C47.1823 14.3244 47.2171 14.2182 47.2387 14.128C47.2736 14.0219 47.2751 13.9555 47.2434 13.9289C47.1493 13.8635 47.2001 13.7707 47.3957 13.6505C47.5074 13.5819 47.5653 13.5694 47.5691 13.6133C47.5558 13.6292 47.5437 13.6597 47.5329 13.7048C47.5075 13.7512 47.5234 13.7645 47.5806 13.7448C47.6924 13.6761 47.7451 13.6052 47.7387 13.5322C47.731 13.4445 47.6947 13.3667 47.6299 13.2988C47.5784 13.2149 47.5587 13.1578 47.5707 13.1273C47.7249 12.7016 47.8531 12.4842 47.9554 12.4753C48.0577 12.4663 48.1663 12.5304 48.2814 12.6676L48.5008 13.1563C48.5339 13.1976 48.5987 13.2655 48.6953 13.3601C48.7919 13.4548 48.8587 13.5446 48.8956 13.6297C48.9325 13.7148 48.9579 13.8377 48.972 13.9985C48.9994 14.1433 49.023 14.2443 49.0427 14.3015C49.0898 14.5035 49.1869 14.8557 49.3339 15.3581C49.4942 15.8446 49.6012 16.2254 49.6547 16.5005C49.6674 16.6466 49.6771 16.9255 49.6837 17.3371C49.7036 17.7329 49.7345 18.0026 49.7766 18.1461C49.8434 18.4053 49.9437 18.794 50.0773 19.3123C50.2256 19.8294 50.3482 20.3045 50.445 20.7377C50.5551 21.1551 50.6328 21.5384 50.6781 21.8878C50.6883 22.0047 50.7303 22.1482 50.8041 22.3184C50.8925 22.4874 50.9424 22.6376 50.954 22.7691C50.9603 22.8422 51.1266 23.1441 51.4528 23.6751C51.6124 23.985 51.7653 24.1336 51.9114 24.1208C51.9991 24.1131 52.147 23.953 52.3552 23.6403C52.5768 23.3117 52.6916 23.1103 52.6999 23.036C52.7214 22.9457 52.782 22.8815 52.8818 22.8434C52.9802 22.7906 53.0361 22.7562 53.0494 22.7404C53.1307 22.6596 53.3116 22.3714 53.5921 21.8758C53.8727 21.3801 54.031 21.0865 54.0672 20.995C54.1611 20.7218 54.2566 20.5515 54.3537 20.4841C54.395 20.451 54.4376 20.4326 54.4814 20.4288C54.524 20.4103 54.5525 20.4005 54.5671 20.3992C54.5951 20.382 54.6084 20.3661 54.6071 20.3515C54.6192 20.321 54.6227 20.2765 54.6176 20.2181C54.6137 20.1743 54.6359 20.0913 54.6841 19.9693C54.7457 19.8315 54.8139 19.6856 54.8888 19.5318C54.9624 19.3635 55.0119 19.2561 55.0373 19.2097C55.0639 19.1779 55.0893 19.1315 55.1134 19.0705C55.1509 18.9936 55.1823 18.932 55.2077 18.8856C55.2464 18.8233 55.2857 18.7683 55.3257 18.7207C55.3778 18.6425 55.4152 18.5656 55.4381 18.49C55.4755 18.4131 55.5044 18.3223 55.5246 18.2174C55.5582 18.0967 55.5871 18.0058 55.6112 17.9448C55.6366 17.8984 55.6766 17.8508 55.7312 17.8018C55.7991 17.737 55.8464 17.6887 55.8731 17.6569L55.952 17.2967C56.0574 17.1549 56.165 16.9541 56.2747 16.6942C56.3845 16.4344 56.499 16.1446 56.6183 15.825C56.7509 15.4895 56.8419 15.2681 56.8914 15.1607C56.9155 15.0997 56.9238 15.0253 56.9161 14.9377C56.923 14.8487 56.9459 14.7731 56.9846 14.7108C57.0207 14.6193 57.0975 14.4875 57.215 14.3152C57.3457 14.1271 57.4486 13.9562 57.5235 13.8024C57.5971 13.634 57.6208 13.4847 57.5947 13.3545C57.5614 12.9746 57.5962 12.6992 57.6991 12.5283C57.7619 12.405 57.8664 12.3369 58.0125 12.3242C58.1294 12.3139 58.2275 12.3422 58.307 12.4088C58.5638 12.6514 58.6608 13.0036 58.5982 13.4655C58.5096 14.1357 58.28 14.8772 57.9094 15.69C57.8733 15.7815 57.8165 15.8895 57.739 16.014C57.6616 16.1386 57.6054 16.2539 57.5705 16.36C57.5357 16.4661 57.5167 16.5856 57.5136 16.7184C57.5161 16.7476 57.4761 16.7953 57.3936 16.8614C57.3097 16.9129 57.2577 16.991 57.2374 17.0959C57.2 17.1728 57.1283 17.3631 57.0223 17.6668C56.9151 17.9559 56.8041 18.2012 56.6892 18.4026C56.6505 18.4649 56.6156 18.571 56.5846 18.721C56.5681 18.8696 56.5332 18.9757 56.4799 19.0393C56.2748 19.2192 56.1025 19.5214 55.9629 19.9458C55.9388 20.0068 55.8795 20.0856 55.7849 20.1822C55.7049 20.2775 55.6522 20.3484 55.6268 20.3948L55.4079 20.9219C55.3679 20.9696 55.2993 21.0271 55.2022 21.0945C55.1196 21.1606 55.051 21.2181 54.9964 21.2671C54.9418 21.316 54.9237 21.3618 54.9422 21.4043C55.0496 21.4538 55.0493 21.5348 54.9414 21.6473C54.9001 21.6804 54.8728 21.7048 54.8594 21.7207C54.6943 21.853 54.5055 22.1345 54.2929 22.5653C54.079 22.9815 53.9527 23.2208 53.914 23.2831C53.9007 23.299 53.8613 23.3539 53.7959 23.448C53.7452 23.5408 53.7004 23.6183 53.6617 23.6806C53.6376 23.7416 53.5862 23.827 53.5075 23.937C53.4434 24.0457 53.3853 24.1391 53.3332 24.2172C53.2945 24.2795 53.2358 24.3656 53.1571 24.4756C53.0771 24.5709 53.0098 24.6431 52.9552 24.692C52.8993 24.7263 52.8307 24.7839 52.7494 24.8646C52.6669 24.9307 52.5964 24.9663 52.5379 24.9714C52.4928 24.9607 52.4337 24.9585 52.3607 24.9649L52.3207 25.0125C52.4147 25.0779 52.4624 25.1179 52.4637 25.1325C52.4516 25.163 52.269 25.179 51.9158 25.1804C51.8199 25.2625 51.6433 25.2632 51.3859 25.1826C51.2252 25.1967 51.0899 25.1644 50.98 25.0857C50.8846 25.0057 50.7854 24.8818 50.6824 24.7142C50.5928 24.5306 50.5228 24.4042 50.4726 24.335C50.348 24.2576 50.2152 24.0852 50.074 23.8178C49.9315 23.5358 49.8539 23.3217 49.8411 23.1756C49.8138 23.0308 49.739 22.765 49.6168 22.3782C49.5118 22.0193 49.3695 21.487 49.19 20.7813C49.0251 20.0743 48.8828 19.542 48.7632 19.1844C48.6958 19.0872 48.6483 18.7969 48.6207 18.3135C48.6078 17.8288 48.5968 17.5353 48.5879 17.433L48.2181 15.4778C48.1463 15.4988 48.0983 15.5398 48.0742 15.6008C48.0488 15.6472 48.0333 15.7222 48.0277 15.8257C48.0207 15.9147 48.0119 15.9817 48.0011 16.0268C47.977 16.0878 47.9322 16.1653 47.8668 16.2594C47.8161 16.3522 47.7853 16.4211 47.7745 16.4662C47.7212 16.5298 47.6019 16.8494 47.4167 17.4251C47.2315 18.0007 47.1428 18.3324 47.1504 18.4201C47.1263 18.4811 47.0949 18.5427 47.0562 18.605C47.0308 18.6514 47.0054 18.6977 46.98 18.7441C46.9693 18.7892 46.9677 18.8556 46.9754 18.9433C46.9659 19.003 46.9351 19.072 46.883 19.1501C46.8456 19.227 46.8209 19.2807 46.8088 19.3112C46.8114 19.3404 46.8231 19.3909 46.8441 19.4627C46.8785 19.5186 46.8903 19.5691 46.8795 19.6142C46.8674 19.6447 46.8249 19.6632 46.7518 19.6695C46.6947 19.6893 46.5041 20.2875 46.1801 21.4642C45.7938 22.6022 45.6098 23.6121 45.628 24.4939C45.6623 24.5497 45.6954 24.591 45.7272 24.6177C45.7723 24.6285 45.8021 24.6332 45.8168 24.6319C45.8314 24.6306 45.8479 24.6513 45.8663 24.6938C45.8848 24.7364 45.8912 24.8094 45.8855 24.913C45.8978 25.2211 45.8061 25.4352 45.6105 25.5554C45.4295 25.6743 45.1833 25.637 44.8719 25.4434ZM63.1111 25.5481C62.7166 25.5826 62.2347 25.5438 61.6654 25.4317C61.112 25.3329 60.5538 25.0946 59.9908 24.7169C59.4277 24.3392 59.12 23.8508 59.0676 23.2518C59.0484 23.0326 59.1254 22.6505 59.2985 22.1053C59.4717 21.5601 59.6386 21.2805 59.7993 21.2665C59.9454 21.2537 60.0699 21.1618 60.1727 20.9909C60.2901 20.8186 60.3695 20.716 60.4108 20.6829C60.4374 20.6512 60.486 20.6175 60.5565 20.5819C60.627 20.5462 60.6829 20.5119 60.7242 20.4789C60.7642 20.4312 60.7816 20.3781 60.7765 20.3197C60.7714 20.2612 60.6986 20.1866 60.5582 20.0959C60.4164 19.9905 60.3424 19.9013 60.336 19.8282C60.327 19.7259 60.3851 19.6325 60.5102 19.548C60.6341 19.4488 60.7617 19.3935 60.8932 19.3819C61.0101 19.3717 61.1366 19.4711 61.2726 19.68C61.4074 19.8743 61.478 20.008 61.4844 20.0811C61.4895 20.1395 61.4794 20.1919 61.454 20.2383C61.4286 20.2847 61.3905 20.3543 61.3398 20.4471C61.2877 20.5253 61.2423 20.5955 61.2036 20.6578C61.1782 20.7041 61.1319 20.8481 61.0647 21.0895C60.9962 21.3163 60.9213 21.4701 60.84 21.5508C60.6096 21.7771 60.5065 22.0291 60.5307 22.3067C60.5384 22.3943 60.5788 22.435 60.6518 22.4286C60.7103 22.4235 60.796 22.3939 60.9091 22.3398C61.9017 21.7377 62.6271 20.8571 63.0851 19.6981C63.37 19.0843 63.5042 18.6824 63.4876 18.4925C63.4799 18.4048 63.3811 18.3693 63.1912 18.3859C62.972 18.4051 62.7951 18.4868 62.6605 18.6311C62.5246 18.7607 62.4259 18.8945 62.3644 19.0324C62.3161 19.1544 62.2701 19.2173 62.2263 19.2212C62.1971 19.2237 62.1453 19.2209 62.0709 19.2127C62.0099 19.1885 61.9648 19.1778 61.9356 19.1803C61.8772 19.1854 61.7908 19.2077 61.6765 19.2472C61.5755 19.2707 61.4884 19.2857 61.4154 19.2921C61.3423 19.2985 61.2381 19.2855 61.1028 19.2532C60.9675 19.2209 60.8972 19.1755 60.8921 19.117C60.8857 19.044 60.9638 18.9267 61.1264 18.7653C61.2889 18.6038 61.42 18.504 61.5198 18.4659L62.2559 17.5402C62.2984 17.5217 62.3889 17.4623 62.5274 17.3618C62.6658 17.2614 62.7789 17.2073 62.8665 17.1997C62.8958 17.1971 62.9482 17.2072 63.0238 17.2301C63.1127 17.237 63.1791 17.2386 63.2229 17.2347C63.2668 17.2309 63.3246 17.2185 63.3964 17.1975L63.504 17.166C63.5479 17.1621 63.6333 17.2135 63.7604 17.3202L64.3286 17.7563C64.3763 17.7963 64.4039 17.8602 64.4116 17.9478C64.4167 18.0063 64.4104 18.1025 64.3927 18.2366C64.375 18.3706 64.3681 18.4596 64.3719 18.5034C64.377 18.5619 64.4107 18.6104 64.473 18.6492C64.5353 18.6879 64.5696 18.7438 64.576 18.8168C64.6015 19.109 64.5255 19.4175 64.3478 19.7422C64.2621 19.9411 64.1111 20.2341 63.8946 20.6211C63.6769 20.9935 63.4779 21.3274 63.2977 21.6229C63.1308 21.9025 63.04 22.043 63.0254 22.0442C62.8646 22.0583 62.3659 22.4995 61.529 23.3677C61.4757 23.4313 61.3779 23.4913 61.2356 23.548C61.0921 23.59 60.9711 23.6374 60.8726 23.6901C60.7729 23.7283 60.7256 23.7766 60.7307 23.8351C60.7358 23.8935 60.7921 23.9475 60.8995 23.997L61.5057 24.3635C61.7548 24.5184 62.2752 24.5759 63.0667 24.5361L63.748 24.4986C63.9234 24.4833 64.2111 24.4066 64.6113 24.2685C65.0114 24.1304 65.329 24.0585 65.5641 24.0526C65.7102 24.0398 65.8468 24.0868 65.9739 24.1934L65.9977 24.2134C66.027 24.2109 66.0457 24.1724 66.0539 24.0981C66.0767 24.0225 66.1021 23.9761 66.1301 23.9589C66.1434 23.9431 66.1647 23.9338 66.1939 23.9313C66.2962 23.9223 66.3569 24.0274 66.3761 24.2466C66.3812 24.305 66.3717 24.3648 66.3476 24.4258C66.3184 24.4283 66.2872 24.409 66.2542 24.3677C66.2211 24.3264 66.19 24.307 66.1607 24.3096C66.1169 24.3134 66.0963 24.33 66.0988 24.3592C66.1001 24.3738 66.1093 24.3951 66.1265 24.423C66.1595 24.4643 66.1767 24.4922 66.178 24.5069C66.1806 24.5361 66.1672 24.552 66.138 24.5545C66.1234 24.5558 66.0922 24.5364 66.0446 24.4964C65.9982 24.4711 65.9604 24.4596 65.9312 24.4622C65.8581 24.4686 65.8188 24.5236 65.8131 24.6271C65.822 24.7294 65.8046 24.7824 65.7608 24.7863C65.689 24.8073 65.6325 24.8343 65.5912 24.8674L65.5474 24.8712L65.5016 24.8531C65.4565 24.8423 65.412 24.8389 65.3682 24.8427C65.3536 24.844 65.3323 24.8532 65.3044 24.8704C65.2923 24.9009 65.279 24.9168 65.2644 24.918C65.2351 24.9206 65.1961 24.8946 65.1471 24.84C65.0982 24.7854 65.0591 24.7593 65.0299 24.7619C64.9276 24.7708 64.8025 24.8554 64.6545 25.0156C64.5066 25.1757 64.4107 25.2577 64.3669 25.2616C64.2938 25.268 64.2347 25.2658 64.1896 25.255L64.122 25.2388C64.0927 25.2414 64.0642 25.2513 64.0362 25.2684C63.7847 25.4229 63.4763 25.5162 63.1111 25.5481ZM63.3303 20.2288C63.317 20.2447 63.283 20.2771 63.2284 20.326C63.1871 20.3591 63.1678 20.3902 63.1703 20.4194C63.1729 20.4487 63.19 20.4766 63.2218 20.5033C63.2536 20.5299 63.2774 20.5499 63.2933 20.5633L63.3152 20.5613C63.3444 20.5588 63.3644 20.535 63.3752 20.4898C63.386 20.4447 63.4034 20.3917 63.4276 20.3307C63.465 20.2538 63.5044 20.1988 63.5456 20.1658C63.712 20.0481 63.8819 19.8861 64.0552 19.6795C64.2431 19.4717 64.3307 19.2947 64.3179 19.1486C64.3077 19.0317 64.2587 18.9771 64.1711 18.9848C64.0542 18.995 63.9221 19.1685 63.7749 19.5053C63.6423 19.8408 63.5468 20.0111 63.4884 20.0162L63.4645 19.9962C63.4486 19.9828 63.4334 19.9768 63.4188 19.9781L63.3303 20.2288ZM66.6944 24.3513C66.554 24.2605 66.4818 24.1932 66.478 24.1493C66.4741 24.1055 66.4909 24.0452 66.5284 23.9683C66.7857 24.0488 66.915 24.0964 66.9163 24.111C66.9201 24.1548 66.8462 24.2349 66.6944 24.3513ZM75.4005 15.6835C75.4589 15.6784 75.4926 15.727 75.5015 15.8292C75.5238 15.9156 75.5143 15.9753 75.4731 16.0084C75.3454 16.0637 75.2752 16.0183 75.2624 15.8722C75.2668 15.7541 75.3128 15.6912 75.4005 15.6835ZM74.8117 16.0221C74.7774 15.9662 74.7894 15.9357 74.8479 15.9306C74.9063 15.9255 74.9661 15.935 75.0271 15.9591C75.1014 15.9673 75.1551 15.992 75.1881 16.0333C75.2212 16.0746 75.2177 16.1191 75.1777 16.1667C74.9967 16.2856 74.9301 16.3651 74.9777 16.4051C74.9631 16.4064 74.9479 16.4003 74.932 16.387C74.9161 16.3737 74.8929 16.361 74.8624 16.3489C74.8173 16.3381 74.7814 16.3486 74.7547 16.3804C74.7414 16.3963 74.7367 16.4262 74.7405 16.47C74.7589 16.5126 74.7767 16.5478 74.7939 16.5757C74.8111 16.6037 74.8203 16.625 74.8216 16.6396C74.8229 16.6542 74.8241 16.6688 74.8254 16.6834C74.7988 16.7152 74.7184 16.7222 74.5843 16.7045C74.4636 16.6709 74.3906 16.6773 74.3652 16.7237L74.3405 16.9467C74.319 17.0369 74.2485 17.0725 74.129 17.0535C74.0083 17.0199 73.934 17.0117 73.906 17.0289L73.9299 17.0489C74.0214 17.085 74.0611 17.1183 74.049 17.1488C74.0383 17.194 74.0421 17.2378 74.0605 17.2803C74.0339 17.3121 74.0059 17.3293 73.9767 17.3318C73.9183 17.337 73.8751 17.3481 73.8471 17.3653C73.8192 17.3824 73.7925 17.4142 73.7671 17.4606C73.7405 17.4924 73.7132 17.5169 73.6852 17.534C73.6852 17.534 73.6766 17.52 73.6595 17.4921L73.6337 17.4502C73.6427 17.5525 73.6125 17.6287 73.5433 17.6789C73.4887 17.7279 73.4049 17.7794 73.2918 17.8334C73.1921 17.8716 73.1216 17.9072 73.0803 17.9403C72.9311 18.0858 72.7391 18.3308 72.5042 18.6753C72.4521 18.7535 72.2442 18.9851 71.8804 19.3703C71.5166 19.7555 71.3134 19.9573 71.2708 19.9757C71.2836 20.1218 71.4614 20.5553 71.8042 21.2762C72.1616 21.9958 72.355 22.5236 72.3844 22.8597C72.4177 23.2395 72.2853 23.494 71.9875 23.6232C71.9836 23.5793 71.9328 23.5028 71.8349 23.3936C71.7516 23.2831 71.7007 23.2066 71.6823 23.164C71.6416 23.0351 71.5347 22.8236 71.3618 22.5295C71.2021 22.2196 71.1191 22.0281 71.1127 21.955C71.1089 21.9112 70.976 21.7388 70.7141 21.4378C70.697 21.4099 70.6553 21.3546 70.5892 21.2721C70.5377 21.1882 70.4961 21.133 70.4643 21.1063C70.4325 21.0797 70.3947 21.0683 70.3509 21.0721C70.2778 21.0785 70.142 21.2082 69.9432 21.4611C69.7579 21.6982 69.6471 21.8624 69.6109 21.9539C69.5494 22.0918 69.4659 22.2316 69.3605 22.3734C69.2539 22.5005 69.1072 22.6752 68.9206 22.8977C68.7326 23.1055 68.6253 23.2253 68.5987 23.2571C68.532 23.3366 68.3361 23.5377 68.011 23.8606C67.6993 24.1676 67.4786 24.4225 67.3491 24.6252C67.2984 24.718 67.2216 24.8499 67.1187 25.0208C67.0318 25.2051 66.943 25.3675 66.8522 25.5079C66.7614 25.6483 66.67 25.7815 66.578 25.9073C66.569 25.805 66.554 25.718 66.533 25.6462C66.512 25.5745 66.4945 25.4582 66.4804 25.2975C66.4779 25.2683 66.4429 25.2051 66.3755 25.1079C66.3081 25.0108 66.2566 24.9269 66.221 24.8564C66.1867 24.8005 66.1835 24.764 66.2114 24.7469C66.226 24.7456 66.2499 24.7656 66.2829 24.8068C66.3147 24.8335 66.3372 24.8389 66.3506 24.823C66.4172 24.7436 66.4242 24.6546 66.3714 24.5562C66.3186 24.4577 66.3316 24.3535 66.4103 24.2436C66.437 24.2118 66.5204 24.072 66.6607 23.8242C66.7997 23.5617 66.9285 23.3517 67.0473 23.1941C67.1806 23.0352 67.3057 22.9506 67.4226 22.9404L68.2445 21.9852C68.2845 21.9375 68.3346 21.8374 68.3949 21.6849C68.4685 21.5165 68.5599 21.3834 68.6691 21.2855C69.4508 20.6282 69.7549 20.2335 69.5814 20.1015C69.4225 19.9681 69.2817 19.7891 69.1589 19.5642C69.1049 19.4512 68.9917 19.3359 68.8195 19.2185C68.3454 18.8477 68.0133 18.5014 67.8232 18.1794C67.8352 18.1489 67.8778 18.1304 67.9508 18.1241C67.9324 18.0815 67.9073 18.0469 67.8755 18.0202C67.8424 17.9789 67.8186 17.9589 67.804 17.9602C67.8027 17.9456 67.8014 17.931 67.8001 17.9164C67.7976 17.8872 67.7957 17.8653 67.7944 17.8506C67.8077 17.8348 67.8271 17.8036 67.8525 17.7572C67.8632 17.7121 67.8575 17.6464 67.8352 17.56C67.8129 17.4736 67.7926 17.4091 67.7741 17.3666C67.7703 17.3227 67.789 17.2843 67.8303 17.2512C68.0564 17.1431 68.2304 17.1132 68.3524 17.1614C68.4586 17.1963 68.6022 17.3236 68.7834 17.5433C68.9697 17.8214 69.1483 18.0119 69.3192 18.1148C69.351 18.1414 69.4126 18.1728 69.5041 18.209C69.6102 18.2439 69.6878 18.2886 69.7367 18.3432C69.799 18.382 69.8327 18.4305 69.8378 18.489C69.8468 18.5913 69.9129 18.6738 70.0361 18.7366C70.1728 18.7836 70.2589 18.8423 70.2945 18.9128C70.4464 19.1351 70.5824 19.1747 70.7024 19.0317C70.7824 18.9364 70.9827 18.7863 71.3035 18.5816C71.4273 18.4824 71.5527 18.3169 71.6796 18.0849C71.8211 17.8517 72.0062 17.6956 72.2349 17.6167C72.3785 17.5747 72.5315 17.473 72.6941 17.3116C72.8566 17.1501 73.017 17.0477 73.1751 17.0045C73.2602 16.9676 73.3142 16.9113 73.337 16.8357C73.3586 16.7455 73.3894 16.6765 73.4294 16.6289C73.5798 16.4979 73.7793 16.4216 74.0277 16.3999C74.0861 16.3947 74.176 16.328 74.2972 16.1996C74.4318 16.0553 74.5303 16.0025 74.5926 16.0413C74.6243 16.0679 74.6422 16.1032 74.646 16.147C74.6644 16.1896 74.7016 16.1937 74.7575 16.1593C74.828 16.1237 74.8461 16.078 74.8117 16.0221ZM67.1054 17.8005C66.8468 17.7053 66.7453 17.4713 66.801 17.0984C66.8352 16.8156 66.9365 16.7111 67.1049 16.7847C67.1354 16.7967 67.1319 16.8412 67.0945 16.9181C67.0716 16.9937 67.0682 17.0382 67.084 17.0515C67.1171 17.0928 67.1457 17.0829 67.1698 17.0219C67.1939 16.9609 67.2247 16.892 67.2621 16.8151C67.2983 16.7236 67.3535 16.682 67.4279 16.6902C67.6362 16.7161 67.6802 16.8816 67.5596 17.1866C67.5355 17.2476 67.5114 17.3086 67.4873 17.3696C67.4619 17.416 67.4245 17.4929 67.375 17.6002C67.3242 17.693 67.2715 17.7639 67.2169 17.8128C67.1756 17.8459 67.1385 17.8418 67.1054 17.8005ZM66.0629 25.069C66.1429 24.9737 66.1893 24.9991 66.2021 25.1452C66.1698 25.2805 66.1332 25.2837 66.0925 25.1548C66.0753 25.1268 66.0655 25.0982 66.0629 25.069ZM74.93 15.8792C74.8129 15.5509 74.863 15.2815 75.0801 15.0711C75.3119 14.8594 75.6031 14.7382 75.9538 14.7075C76.1437 14.6909 76.3296 14.7115 76.5113 14.7692C76.4872 14.8302 76.4265 14.8944 76.3294 14.9618C76.2468 15.0279 76.1916 15.0695 76.1636 15.0867C76.137 15.1185 76.0572 15.1328 75.9245 15.1297C75.7625 15.1292 75.6129 15.1864 75.4757 15.3015C75.3519 15.4006 75.3462 15.5042 75.4587 15.6121C75.4905 15.6388 75.5563 15.633 75.656 15.5949C75.7544 15.5421 75.8202 15.5363 75.8532 15.5776C75.885 15.6043 75.9022 15.6322 75.9047 15.6615C75.9219 15.6894 75.9537 15.7161 76.0001 15.7414C76.0624 15.7802 76.3315 15.9112 76.8074 16.1346C77.3959 16.4659 77.8362 16.6188 78.1284 16.5932C78.3622 16.5727 78.5219 16.4631 78.6076 16.2642C78.6171 16.2045 78.6919 16.0507 78.8322 15.8028C78.9725 15.555 79.1261 15.2913 79.293 15.0117C79.4733 14.7162 79.5761 14.5452 79.6015 14.4988C79.6376 14.4073 79.7468 14.1401 79.9289 13.6973C80.1097 13.2398 80.2848 12.8858 80.4543 12.6354L81.0789 11.6974C81.1843 11.5557 81.9286 10.3864 83.3117 8.18946L83.6021 7.72237C83.6675 7.62831 83.7586 7.57617 83.8755 7.56595C84.0362 7.55189 84.1576 7.5928 84.2396 7.68868C84.4061 7.90967 84.4488 8.06053 84.3675 8.14125C84.3542 8.15714 84.3396 8.15842 84.3237 8.14509C84.3211 8.11587 84.3106 8.07998 84.2922 8.03742C84.2725 7.98026 84.254 7.9377 84.2368 7.90976C84.2197 7.88182 84.138 7.87424 83.9919 7.88702C83.8942 8.11641 83.8346 8.27622 83.813 8.36644C83.8035 8.42616 83.8074 8.46999 83.8245 8.49793C83.855 8.50999 83.8922 8.5141 83.936 8.51026C83.9799 8.50643 84.0097 8.51118 84.0256 8.52451C84.0561 8.53656 84.066 8.56515 84.0552 8.61026C83.9988 8.80659 83.8696 9.09762 83.6678 9.48334C83.4647 9.85446 83.3384 10.0937 83.2889 10.2011C83.1404 10.5233 82.8259 11.0514 82.3454 11.7854C81.8649 12.5194 81.571 13.0309 81.4638 13.32C81.3325 13.6701 81.1853 14.0069 81.0222 14.3304C80.8724 14.6379 80.682 14.9858 80.451 15.3741C80.22 15.7624 80.0537 16.0493 79.9521 16.2349C79.7185 16.5939 79.6183 16.7941 79.6513 16.8354C79.7479 16.93 79.8852 16.9842 80.0631 16.9981C80.213 17.0292 80.4281 17.0472 80.7082 17.0521C81.0017 17.0411 81.2082 17.0452 81.3276 17.0642C81.4032 17.087 81.5732 17.0942 81.8375 17.0858C82.1151 17.0615 82.2951 17.0163 82.3777 16.9502C82.4044 16.9184 82.4654 16.9425 82.5607 17.0225C82.656 17.1025 82.6983 17.1651 82.6875 17.2102C82.6901 17.2394 82.6707 17.2705 82.6294 17.3036C82.6015 17.3208 82.5955 17.336 82.6114 17.3494C82.6578 17.3747 82.721 17.3398 82.8009 17.2444C82.8099 17.3467 82.801 17.4137 82.7744 17.4455C82.7464 17.4627 82.7099 17.4659 82.6648 17.4551C82.6184 17.4297 82.5739 17.4262 82.5314 17.4447C82.518 17.4606 82.5047 17.4765 82.4914 17.4924C82.478 17.5082 82.4733 17.5381 82.4771 17.5819C82.4676 17.6417 82.4384 17.6442 82.3895 17.5896C82.3723 17.5617 82.3612 17.5185 82.356 17.46C82.3509 17.4016 82.3411 17.373 82.3265 17.3743C82.3118 17.3756 82.2972 17.3768 82.2826 17.3781C82.1975 17.415 82.1807 17.4754 82.2322 17.5592C82.2799 17.5992 82.3056 17.6411 82.3095 17.6849C82.3133 17.7288 82.2574 17.7631 82.1418 17.7879C82.0395 17.7969 81.9074 17.8011 81.7454 17.8005C81.5967 17.7841 81.5151 17.7765 81.5005 17.7778C81.3982 17.7868 81.2461 17.8148 81.0441 17.8619C80.8421 17.909 80.6826 17.9377 80.5658 17.9479C80.4196 17.9607 80.257 17.9528 80.0778 17.9244C79.6452 17.8591 79.291 17.9343 79.0154 18.1498C78.9196 18.2318 78.8402 18.3344 78.7774 18.4577C78.7292 18.5797 78.6775 18.7462 78.6223 18.9571C78.5805 19.1522 78.5542 19.2723 78.5434 19.3174C78.5098 19.4381 78.4467 19.6424 78.3541 19.9302C78.2615 20.2181 78.1857 20.4455 78.1267 20.6126C78.0811 20.7639 78.0246 20.9602 77.9574 21.2016C77.8902 21.4431 77.8363 21.6686 77.7958 21.8783C77.7698 22.0867 77.7439 22.2951 77.718 22.5035C77.692 22.7118 77.6823 23.0219 77.6889 23.4335C77.703 23.5942 77.8164 23.6285 78.0292 23.5363C78.0717 23.5178 78.1076 23.5073 78.1368 23.5048C78.194 23.485 78.3388 23.4576 78.5713 23.4226C78.8197 23.4008 79.0011 23.3703 79.1154 23.3308C79.1579 23.3124 79.176 23.2666 79.1696 23.1936C79.2147 23.2043 79.2179 23.2409 79.1792 23.3031C79.1418 23.38 79.131 23.4251 79.1469 23.4385C79.1799 23.4797 79.2384 23.4746 79.3222 23.4231C79.4073 23.3862 79.4553 23.3452 79.466 23.3001C79.4755 23.2404 79.4498 23.1985 79.3888 23.1744C79.3278 23.1503 79.2947 23.109 79.2896 23.0506C79.2661 22.9496 79.3102 22.8647 79.4219 22.7961C79.5324 22.7128 79.6214 22.7197 79.6888 22.8169C79.7257 22.902 79.7314 22.9677 79.706 23.0141C79.6927 23.03 79.6654 23.0545 79.6241 23.0875C79.5828 23.1206 79.586 23.1571 79.6337 23.1971C79.6642 23.2092 79.6982 23.1768 79.7356 23.0999C79.8227 23.2542 79.8091 23.3511 79.6948 23.3905C79.6802 23.3918 79.657 23.3791 79.6252 23.3525C79.608 23.3245 79.5855 23.3191 79.5575 23.3363C79.5283 23.3388 79.5229 23.3614 79.5414 23.404C79.5611 23.4611 79.5338 23.4856 79.4595 23.4774C79.3864 23.4838 79.3359 23.4955 79.308 23.5127C79.2959 23.5432 79.2778 23.589 79.2537 23.65C79.2309 23.7256 79.2068 23.7866 79.1814 23.833C79.0786 24.0039 78.9633 24.1171 78.8357 24.1724C78.8077 24.1896 78.7718 24.2001 78.728 24.2039C78.6842 24.2077 78.6403 24.2116 78.5965 24.2154C78.5686 24.2326 78.5552 24.2485 78.5565 24.2631C78.5432 24.279 78.5378 24.3015 78.5403 24.3307C78.5429 24.36 78.5296 24.3758 78.5003 24.3784L78.3431 24.348L77.8724 24.5217C77.5948 24.546 77.4401 24.5448 77.4084 24.5181C77.3607 24.4781 77.2918 24.4473 77.2015 24.4258C77.1126 24.4188 77.0443 24.3954 76.9966 24.3554C76.7265 24.1287 76.5678 23.7451 76.5205 23.2045C76.4118 21.9626 76.8058 20.3233 77.7024 18.2868C77.7519 18.1794 77.7728 18.0818 77.7651 17.9942C77.7721 17.9052 77.7511 17.8335 77.7021 17.7789C77.6519 17.7096 77.5956 17.6557 77.5334 17.6169C77.4844 17.5623 77.4069 17.5176 77.3008 17.4827C77.2093 17.4465 77.1184 17.4177 77.0282 17.3961C76.9526 17.3733 76.8624 17.3518 76.7575 17.3315C76.6514 17.2966 76.5679 17.2671 76.5069 17.243C76.1885 17.1383 75.8711 16.96 75.5546 16.7079C75.2527 16.4546 75.0445 16.1784 74.93 15.8792ZM91.2694 18.0052C91.1862 17.8948 91.1216 17.7458 91.0758 17.5584C91.0445 17.3698 91.055 17.2363 91.107 17.1582C91.147 17.1105 91.247 16.9913 91.407 16.8007C91.567 16.61 91.687 16.467 91.767 16.3717C91.8616 16.2751 91.9841 16.1613 92.1346 16.0303C92.2838 15.8848 92.4356 15.7684 92.5899 15.6813C92.7443 15.5942 92.9078 15.5284 93.0806 15.4838L93.6904 15.3863L94.1413 15.7443C94.2208 15.811 94.4358 15.829 94.7865 15.7983C94.9618 15.783 95.0279 15.8655 94.9848 16.046C94.9728 16.0765 94.9487 16.1375 94.9125 16.229C94.8897 16.3046 94.8802 16.3643 94.884 16.4081C94.8878 16.452 94.9215 16.5006 94.9851 16.5539C95.0328 16.5939 95.0957 16.6399 95.1738 16.692C95.3156 16.7973 95.381 16.8726 95.3703 16.9177C95.3474 16.9933 95.3326 17.0756 95.3256 17.1645C95.341 17.3399 95.3267 17.4294 95.2829 17.4333C95.2683 17.4346 95.2378 17.4225 95.1914 17.3971C95.1437 17.3571 95.0808 17.3111 95.0026 17.259C94.9245 17.207 94.8403 17.1702 94.75 17.1486C94.6598 17.1271 94.4622 17.056 94.1572 16.9355C93.8668 16.8137 93.585 16.7058 93.3118 16.6119C93.0532 16.5168 92.902 16.4711 92.8581 16.475C92.6853 16.5195 92.5802 16.5802 92.5428 16.6571C92.5187 16.7181 92.5235 16.8576 92.5573 17.0755C92.6083 17.3213 92.6614 17.508 92.7167 17.6357C92.7854 17.7475 92.8503 17.8154 92.9113 17.8395C92.9723 17.8636 93.085 17.8906 93.2496 17.9203C93.4141 17.9501 93.5647 17.9885 93.7013 18.0354C94.1232 18.1457 94.5042 18.3774 94.8443 18.7304C94.876 18.7571 94.9475 18.8171 95.0588 18.9104C95.3486 19.1942 95.4852 19.2412 95.4686 19.0512C95.4673 19.0366 95.466 19.022 95.4648 19.0074C95.2938 18.9046 95.2144 18.8379 95.2264 18.8074C95.2531 18.7756 95.3376 18.7315 95.4798 18.6748C95.5224 18.6564 95.551 18.6465 95.5656 18.6452C95.7396 18.6153 96.24 18.1078 97.0666 17.1226C97.252 16.8856 97.8069 16.3291 98.7314 15.4532C99.6705 14.576 100.33 13.8632 100.709 13.3147C100.774 13.2207 100.814 13.173 100.829 13.1717C100.858 13.1692 100.907 13.2238 100.975 13.3355C101.057 13.4314 101.135 13.4762 101.208 13.4698C101.296 13.4621 101.373 13.4259 101.441 13.361C101.507 13.267 101.498 13.1647 101.415 13.0542C101.331 12.9437 101.244 12.8704 101.152 12.8342C101.167 12.8329 101.208 12.7926 101.274 12.7131C101.341 12.6337 101.407 12.5469 101.472 12.4529C101.551 12.3429 101.597 12.28 101.61 12.2641C102.622 11.2039 103.441 10.1384 104.069 9.06766C104.135 8.97361 104.315 8.7591 104.609 8.42415C104.918 8.08793 105.12 7.7832 105.214 7.50998C105.273 7.34287 105.378 7.19384 105.528 7.06289C105.677 6.91733 105.84 6.83688 106.015 6.82154C106.161 6.80876 106.298 6.8557 106.425 6.96236C106.669 7.2354 106.784 7.45356 106.769 7.61684C106.349 8.53695 106.112 9.02148 106.057 9.07043C105.889 9.33543 105.548 9.9026 105.035 10.7719C104.537 11.64 104.098 12.3409 103.718 12.8748C103.666 12.953 103.562 13.1093 103.405 13.3438C103.264 13.577 103.122 13.8029 102.979 14.0215C102.836 14.2402 102.734 14.4184 102.672 14.5563C102.595 14.6809 102.498 15.0942 102.383 15.7962C102.677 15.7853 103.067 15.6996 103.553 15.5393C104.04 15.3789 104.385 15.2825 104.588 15.25C104.761 15.2054 104.982 15.1272 105.252 15.0152C105.537 14.902 105.801 14.8053 106.044 14.7251C106.302 14.6436 106.555 14.5921 106.803 14.5703C106.992 14.5391 107.14 14.5482 107.247 14.5977C107.369 14.6459 107.413 14.7304 107.38 14.8511C107.369 14.8962 107.346 14.8835 107.31 14.813C107.275 14.7426 107.236 14.7238 107.195 14.7569C107.126 14.8071 107.033 14.8446 106.918 14.8695C106.801 14.8797 106.706 14.8953 106.635 14.9163C106.576 14.9214 106.542 14.9539 106.533 15.0136C106.525 15.0879 106.537 15.1457 106.57 15.187C106.602 15.2137 106.64 15.2251 106.683 15.2212C106.727 15.2174 106.764 15.2215 106.795 15.2336C106.825 15.2456 106.843 15.2736 106.846 15.3174C106.83 15.4661 106.801 15.5569 106.76 15.59C106.717 15.6084 106.614 15.6101 106.451 15.5949C106.288 15.5797 106.134 15.5859 105.989 15.6133C105.945 15.6171 105.935 15.5812 105.957 15.5056C105.979 15.4154 105.971 15.3277 105.934 15.2426C105.898 15.1575 105.821 15.12 105.704 15.1303C105.587 15.1405 105.465 15.1806 105.339 15.2505C105.214 15.3351 105.176 15.4047 105.225 15.4593C105.274 15.5139 105.346 15.5812 105.441 15.6612C105.535 15.7266 105.569 15.7825 105.544 15.8288C105.396 15.989 104.97 16.1662 104.266 16.3603C103.576 16.5532 103.181 16.6687 103.081 16.7068C102.881 16.7686 102.567 16.9727 102.141 17.3191C101.728 17.6497 101.517 17.9258 101.507 18.1475C101.528 18.5579 101.46 19.2927 101.302 20.3518C101.309 20.4248 101.231 20.5494 101.07 20.7254C100.923 20.9002 100.86 21.0235 100.881 21.0953L100.996 21.3944C101.087 21.5926 101.114 21.7374 101.078 21.8289C101.043 21.935 100.919 21.9459 100.705 21.8615C100.704 21.8469 100.711 21.839 100.725 21.8377C100.755 21.8351 100.783 21.8253 100.811 21.8081C100.84 21.8055 100.869 21.7957 100.897 21.7785C100.934 21.7016 100.901 21.6603 100.798 21.6547C100.738 21.6452 100.695 21.6563 100.668 21.6881C100.594 21.5179 100.524 21.0456 100.456 20.2712C100.347 19.0293 100.351 18.2339 100.468 17.8851C100.532 17.7764 100.139 17.6635 99.29 17.5465C98.5149 17.4376 98.1251 17.4423 98.1208 17.5604C98.0313 17.7155 97.8487 17.9008 97.5731 18.1163C97.3121 18.3305 97.1423 18.4926 97.0636 18.6025C96.9403 18.5397 96.778 18.6202 96.5767 18.8439C96.3901 19.0663 96.2383 19.1827 96.1214 19.1929C96.0338 19.2006 95.9588 19.185 95.8965 19.1463C95.8209 19.1235 95.7691 19.1207 95.7412 19.1378C95.712 19.1404 95.6634 19.1741 95.5954 19.2389C95.5408 19.2879 95.4995 19.3209 95.4716 19.3381C95.5708 19.4619 95.615 19.5464 95.6042 19.5915C95.6068 19.6207 95.5541 19.6916 95.4461 19.8041C95.3515 19.9007 95.2922 19.9795 95.268 20.0405C95.1552 20.4332 94.8393 20.7773 94.3204 21.073C93.8162 21.3674 93.281 21.5615 92.7151 21.6551C92.7125 21.6259 92.6079 21.5246 92.4014 21.3513C92.2082 21.1621 92.135 20.9992 92.182 20.8626C92.1927 20.8175 92.4715 20.6385 93.0183 20.3257C93.5652 20.0128 93.8884 19.8373 93.9881 19.7991C94.0561 19.7343 94.0954 19.6793 94.1062 19.6342C94.1157 19.5745 94.0728 19.5046 93.9775 19.4246C93.8808 19.33 93.7862 19.2573 93.6934 19.2066C93.6152 19.1545 93.5145 19.0971 93.3912 19.0342C93.2666 18.9568 93.1885 18.9047 93.1567 18.8781C92.966 18.7181 92.6524 18.5836 92.216 18.4745C91.7795 18.3655 91.464 18.2091 91.2694 18.0052ZM99.6303 15.8825C99.6023 15.8996 99.5604 15.9254 99.5045 15.9597C99.4632 15.9928 99.4213 16.0185 99.3788 16.037C99.3508 16.0542 99.3242 16.0859 99.2988 16.1323C99.288 16.1774 99.2852 16.2292 99.2903 16.2876C99.3228 16.4909 99.529 16.5759 99.9089 16.5427C100.099 16.5261 100.287 16.4876 100.473 16.4271C100.658 16.352 100.763 16.2913 100.788 16.2449C100.85 15.945 101.136 15.3385 101.645 14.4253C101.918 13.842 101.95 13.5374 101.742 13.5114C101.391 13.5421 101.009 13.892 100.597 14.5612C100.198 15.2145 99.8754 15.6549 99.6303 15.8825ZM93.7594 16.1753C93.6992 16.3278 93.7326 16.4573 93.8597 16.564C94.0014 16.6694 94.1672 16.7138 94.3572 16.6972C94.5471 16.6805 94.6954 16.6087 94.8021 16.4816C94.9526 16.3506 94.8394 16.2354 94.4627 16.1358C94.2676 16.094 94.097 16.0795 93.9509 16.0923C93.834 16.1025 93.7702 16.1302 93.7594 16.1753ZM110.09 21.438C109.695 21.4725 109.213 21.4337 108.644 21.3216C108.091 21.2227 107.533 20.9845 106.97 20.6068C106.406 20.2291 106.099 19.7407 106.046 19.1417C106.027 18.9225 106.104 18.5404 106.277 17.9952C106.45 17.45 106.617 17.1704 106.778 17.1564C106.924 17.1436 107.049 17.0517 107.151 16.8808C107.269 16.7085 107.348 16.6059 107.39 16.5728C107.416 16.5411 107.465 16.5074 107.535 16.4718C107.606 16.4361 107.662 16.4018 107.703 16.3687C107.743 16.3211 107.76 16.268 107.755 16.2096C107.75 16.1511 107.677 16.0765 107.537 15.9858C107.395 15.8804 107.321 15.7912 107.315 15.7181C107.306 15.6158 107.364 15.5224 107.489 15.4379C107.613 15.3387 107.74 15.2833 107.872 15.2718C107.989 15.2616 108.115 15.361 108.251 15.5699C108.386 15.7642 108.457 15.8979 108.463 15.971C108.468 16.0294 108.458 16.0818 108.433 16.1282C108.407 16.1746 108.369 16.2442 108.319 16.337C108.266 16.4151 108.221 16.4854 108.182 16.5476C108.157 16.594 108.111 16.7379 108.043 16.9794C107.975 17.2062 107.9 17.36 107.819 17.4407C107.588 17.667 107.485 17.919 107.509 18.1966C107.517 18.2842 107.558 18.3249 107.631 18.3185C107.689 18.3134 107.775 18.2838 107.888 18.2297C108.88 17.6276 109.606 16.747 110.064 15.588C110.349 14.9742 110.483 14.5723 110.466 14.3823C110.459 14.2947 110.36 14.2592 110.17 14.2758C109.951 14.2949 109.774 14.3767 109.639 14.521C109.503 14.6506 109.405 14.7844 109.343 14.9223C109.295 15.0443 109.249 15.1072 109.205 15.111C109.176 15.1136 109.124 15.1108 109.05 15.1025C108.989 15.0784 108.944 15.0677 108.914 15.0702C108.856 15.0753 108.77 15.0976 108.655 15.1371C108.554 15.1606 108.467 15.1756 108.394 15.182C108.321 15.1884 108.217 15.1754 108.082 15.1431C107.946 15.1108 107.876 15.0654 107.871 15.0069C107.864 14.9339 107.943 14.8166 108.105 14.6552C108.268 14.4937 108.399 14.3939 108.499 14.3557L109.235 13.4301C109.277 13.4116 109.368 13.3522 109.506 13.2517C109.645 13.1513 109.758 13.0972 109.845 13.0896C109.875 13.087 109.927 13.0971 110.003 13.12C110.091 13.1269 110.158 13.1285 110.202 13.1246C110.246 13.1208 110.303 13.1084 110.375 13.0874L110.483 13.0559C110.527 13.052 110.612 13.1034 110.739 13.2101L111.307 13.6462C111.355 13.6862 111.383 13.7501 111.39 13.8377C111.395 13.8962 111.389 13.9924 111.371 14.1265C111.354 14.2605 111.347 14.3495 111.351 14.3933C111.356 14.4518 111.389 14.5003 111.452 14.5391C111.514 14.5778 111.548 14.6337 111.555 14.7067C111.58 14.9989 111.504 15.3074 111.327 15.6321C111.241 15.831 111.09 16.124 110.873 16.511C110.656 16.8834 110.457 17.2173 110.276 17.5128C110.11 17.7924 110.019 17.9329 110.004 17.9341C109.843 17.9482 109.345 18.3894 108.508 19.2576C108.454 19.3211 108.357 19.3812 108.214 19.4379C108.071 19.4799 107.95 19.5272 107.851 19.58C107.752 19.6182 107.704 19.6665 107.709 19.7249C107.715 19.7834 107.771 19.8374 107.878 19.8869L108.484 20.2534C108.734 20.4083 109.254 20.4658 110.045 20.426L110.727 20.3885C110.902 20.3732 111.19 20.2965 111.59 20.1584C111.99 20.0203 112.308 19.9484 112.543 19.9425C112.689 19.9297 112.826 19.9767 112.953 20.0833L112.976 20.1033C113.006 20.1008 113.024 20.0623 113.033 19.988C113.055 19.9124 113.081 19.866 113.109 19.8488C113.122 19.8329 113.143 19.8237 113.173 19.8212C113.275 19.8122 113.336 19.9173 113.355 20.1365C113.36 20.1949 113.35 20.2547 113.326 20.3157C113.297 20.3182 113.266 20.2989 113.233 20.2576C113.2 20.2163 113.169 20.1969 113.139 20.1995C113.096 20.2033 113.075 20.2199 113.078 20.2491C113.079 20.2637 113.088 20.285 113.105 20.3129C113.138 20.3542 113.155 20.3821 113.157 20.3967C113.159 20.426 113.146 20.4419 113.117 20.4444C113.102 20.4457 113.071 20.4263 113.023 20.3863C112.977 20.3609 112.939 20.3495 112.91 20.3521C112.837 20.3585 112.798 20.4135 112.792 20.517C112.801 20.6193 112.783 20.6723 112.74 20.6762C112.668 20.6972 112.611 20.7242 112.57 20.7573L112.526 20.7611L112.48 20.743C112.435 20.7322 112.391 20.7288 112.347 20.7326C112.332 20.7339 112.311 20.7431 112.283 20.7603C112.271 20.7908 112.258 20.8067 112.243 20.8079C112.214 20.8105 112.175 20.7845 112.126 20.7299C112.077 20.6753 112.038 20.6492 112.009 20.6518C111.906 20.6607 111.781 20.7453 111.633 20.9055C111.485 21.0656 111.389 21.1476 111.346 21.1515C111.273 21.1579 111.213 21.1557 111.168 21.1449L111.101 21.1287C111.071 21.1313 111.043 21.1411 111.015 21.1583C110.763 21.3128 110.455 21.406 110.09 21.438ZM110.309 16.1187C110.296 16.1345 110.262 16.167 110.207 16.2159C110.166 16.249 110.147 16.2801 110.149 16.3093C110.152 16.3385 110.169 16.3665 110.201 16.3932C110.232 16.4198 110.256 16.4398 110.272 16.4532L110.294 16.4512C110.323 16.4487 110.343 16.4248 110.354 16.3797C110.365 16.3346 110.382 16.2816 110.406 16.2206C110.444 16.1437 110.483 16.0887 110.524 16.0556C110.691 15.938 110.861 15.7759 111.034 15.5694C111.222 15.3616 111.309 15.1846 111.297 15.0385C111.286 14.9216 111.237 14.867 111.15 14.8746C111.033 14.8849 110.901 15.0584 110.754 15.3952C110.621 15.7307 110.526 15.901 110.467 15.9061L110.443 15.8861C110.427 15.8727 110.412 15.8667 110.398 15.868L110.309 16.1187ZM113.673 20.2411C113.533 20.1504 113.461 20.0831 113.457 20.0392C113.453 19.9954 113.47 19.935 113.507 19.8582C113.764 19.9387 113.894 19.9863 113.895 20.0009C113.899 20.0447 113.825 20.1248 113.673 20.2411ZM111.849 27.7768C111.77 27.5481 111.727 27.3016 111.718 27.0374C111.715 26.8315 111.704 26.538 111.686 26.1569C111.654 25.7916 111.632 25.5432 111.62 25.4117C111.614 25.3387 111.649 25.2326 111.725 25.0934C111.801 24.9542 111.844 24.8548 111.854 24.7951C111.862 24.7207 111.887 24.6743 111.93 24.6559C111.973 24.6521 112.009 24.6416 112.037 24.6244C112.052 24.6231 112.049 24.5939 112.03 24.5367C111.934 24.2801 111.918 24.0975 111.982 23.9888C112.118 23.8592 112.167 23.7518 112.13 23.6667C112.108 23.5803 112.125 23.5199 112.181 23.4856C112.238 23.4658 112.263 23.4195 112.257 23.3464C112.254 23.3172 112.243 23.274 112.223 23.2168C112.204 23.1597 112.199 23.1085 112.21 23.0634C112.206 23.0196 112.225 22.9811 112.266 22.9481C112.322 22.9137 112.361 22.8515 112.382 22.7612C112.389 22.6723 112.399 22.6126 112.411 22.5821C112.434 22.5065 112.466 22.4594 112.509 22.441C112.551 22.4225 112.587 22.4047 112.615 22.3876C112.754 22.3017 112.82 22.2077 112.811 22.1054C112.798 21.9593 112.911 21.6476 113.149 21.1704C113.387 20.6932 113.517 20.4168 113.54 20.3412C113.592 20.101 113.667 19.8662 113.765 19.6368C113.878 19.4062 113.972 19.2285 114.05 19.104C114.126 18.9648 114.248 18.7627 114.416 18.4977C114.585 18.2327 114.707 18.0379 114.785 17.9134C115.016 17.5251 115.105 17.1934 115.051 16.9184C114.968 16.4693 115.003 16.2012 115.157 16.1141C115.256 16.0613 115.292 15.9698 115.266 15.8396C115.246 15.7824 115.242 15.7386 115.254 15.7081C115.267 15.6776 115.28 15.669 115.296 15.6823C115.326 15.6798 115.348 15.6778 115.362 15.6766C115.375 15.6607 115.373 15.6315 115.354 15.5889C115.319 15.5184 115.241 15.4664 115.12 15.4327C114.998 15.3845 114.891 15.3423 114.8 15.3062C114.723 15.2687 114.702 15.2043 114.739 15.1128C114.761 15.0372 114.941 14.9847 115.277 14.9552C115.365 14.9476 115.422 14.9352 115.45 14.918C115.492 14.8849 115.495 14.8405 115.461 14.7846C115.444 14.7566 115.398 14.7386 115.324 14.7303C115.264 14.7208 115.212 14.718 115.168 14.7218C115.138 14.7098 115.128 14.6812 115.139 14.6361C115.149 14.591 115.196 14.5354 115.279 14.4693C115.36 14.3885 115.424 14.3682 115.472 14.4082L115.756 14.6262C115.789 14.6675 115.786 14.712 115.746 14.7597C115.719 14.7914 115.685 14.8238 115.644 14.8569C115.601 14.8754 115.588 14.8912 115.604 14.9046C115.636 14.9312 115.689 14.956 115.765 14.9788C115.84 15.0016 115.887 15.027 115.904 15.055C115.92 15.0683 115.911 15.1353 115.877 15.2561C115.796 15.4988 115.755 15.6274 115.757 15.6421C115.771 15.8028 115.794 15.8965 115.825 15.9231C115.888 15.9619 115.891 16.0057 115.837 16.0546C115.782 16.1036 115.771 16.1414 115.803 16.168C115.852 16.2227 115.92 16.2461 116.008 16.2385C116.431 16.2014 117.156 15.5711 118.183 14.3477C118.54 13.8894 119.023 13.6852 119.631 13.7351C120.016 13.7603 120.423 13.9529 120.852 14.3129C121.28 14.6583 121.509 15.0063 121.54 15.3569C121.546 15.43 121.565 15.5608 121.596 15.7495C121.642 15.9369 121.664 16.1043 121.662 16.2517C121.674 16.3832 121.661 16.4947 121.625 16.5862C121.589 16.6777 121.516 16.7724 121.407 16.8703C121.311 16.9523 121.243 17.0171 121.203 17.0648C121.163 17.1124 121.139 17.1734 121.131 17.2478C121.123 17.3221 121.113 17.3818 121.103 17.4269C121.106 17.4708 121.101 17.4933 121.086 17.4946C121.072 17.4959 121.04 17.4692 120.991 17.4146C120.974 17.3866 120.975 17.3203 120.996 17.2154C121.016 17.1106 121.004 17.0601 120.96 17.0639C120.915 17.0532 120.845 17.0961 120.751 17.1927C120.656 17.2893 120.587 17.3395 120.543 17.3434C120.485 17.3485 120.446 17.3298 120.428 17.2872C120.362 17.2046 120.307 17.1653 120.263 17.1691C120.219 17.173 120.169 17.192 120.113 17.2264C120.057 17.2607 120.008 17.2798 119.964 17.2836C119.904 17.2741 119.848 17.2275 119.797 17.1436C119.745 17.0598 119.732 16.9947 119.758 16.9483C119.781 16.8727 119.954 16.7471 120.277 16.5716C120.599 16.3815 120.766 16.1902 120.779 15.9977C120.72 15.6642 120.637 15.3917 120.531 15.1802L120.299 14.803L120.172 14.6153L119.977 14.6545C119.919 14.6742 119.659 14.7265 119.195 14.8112C118.575 14.9538 118.153 15.1821 117.93 15.4961C117.946 15.5094 117.893 15.5803 117.772 15.7086C117.665 15.8358 117.525 15.9953 117.35 16.1872C117.189 16.3633 117.04 16.5089 116.903 16.6239C116.876 16.6557 116.781 16.7523 116.619 16.9138C116.455 17.0606 116.332 17.1744 116.251 17.2551C116.283 17.2818 116.275 17.3634 116.228 17.5C116.195 17.6207 116.156 17.7713 116.113 17.9518C116.069 18.1176 116.058 18.2437 116.08 18.3301C115.856 20.3078 115.569 21.8273 115.22 22.8884C115.162 23.0701 115.046 23.4262 114.872 23.9568C114.712 24.4861 114.56 24.9337 114.415 25.2997C114.272 25.6803 114.121 25.9733 113.962 26.1786C113.87 26.3044 113.786 26.4369 113.71 26.5761C113.634 26.7152 113.559 26.869 113.485 27.0374C113.413 27.2204 113.345 27.3662 113.28 27.4749C113.089 27.8155 112.898 27.9868 112.707 27.9888C112.726 28.0314 112.721 28.0612 112.693 28.0784C112.652 28.1115 112.602 28.1305 112.543 28.1357C112.353 28.1523 112.225 28.1193 112.159 28.0368C112.127 28.0101 112.081 27.9847 112.02 27.9606C111.946 27.9524 111.889 27.8911 111.849 27.7768ZM112.759 24.5392C112.527 24.4123 112.349 24.4057 112.227 24.5195C112.09 24.6345 112.177 24.7889 112.488 24.9825C112.504 24.9958 112.535 25.0151 112.582 25.0405C112.641 25.05 112.637 25.0872 112.569 25.152C112.515 25.201 112.441 25.2811 112.347 25.3923C112.307 25.44 112.342 25.4958 112.45 25.56C112.546 25.6399 112.577 25.7403 112.543 25.861C112.487 26.0574 112.503 26.1663 112.594 26.1879C112.639 26.1986 112.675 26.1881 112.701 26.1563C112.715 26.1405 112.726 26.1027 112.736 26.0429C112.745 25.9832 112.756 25.9381 112.768 25.9076C112.793 25.8612 112.898 25.6239 113.081 25.1956C113.266 24.7819 113.391 24.4471 113.457 24.191C113.477 24.0862 113.513 23.9947 113.565 23.9165C113.603 23.8396 113.654 23.7542 113.72 23.6601C113.786 23.5807 113.839 23.5098 113.878 23.4475C113.943 23.3535 113.974 23.1962 113.969 22.9758C113.98 22.7687 113.985 22.6505 113.982 22.6213C114.033 22.3665 114.149 22.0031 114.328 21.5309C114.509 21.0734 114.627 20.7319 114.68 20.5064C114.753 20.1614 114.809 19.7884 114.848 19.3875C114.868 19.1207 114.843 18.9978 114.771 19.0188C114.758 19.0347 114.745 19.0506 114.731 19.0665C114.673 19.2482 114.574 19.4557 114.432 19.6889C114.407 19.7353 114.365 19.761 114.307 19.7661C114.261 19.7554 114.211 19.7671 114.155 19.8015C114.086 19.8517 114.158 19.919 114.371 20.0034C114.54 20.077 114.575 20.1402 114.476 20.193C114.297 20.3265 114.176 20.3739 114.113 20.3351C113.895 20.1923 113.771 20.1222 113.742 20.1247C113.727 20.126 113.715 20.1565 113.705 20.2162C113.709 20.2601 113.703 20.3563 113.687 20.505C113.686 20.667 113.671 20.8303 113.641 20.9948C113.642 21.0094 113.659 21.0301 113.691 21.0567C113.722 21.0834 113.746 21.1034 113.762 21.1167C113.779 21.1447 113.775 21.1745 113.748 21.2063C113.72 21.2235 113.632 21.2238 113.483 21.2074C113.35 21.2043 113.278 21.2253 113.268 21.2704C113.205 21.3937 113.25 21.4855 113.402 21.5457C113.541 21.6219 113.598 21.6832 113.573 21.7295C113.561 21.76 113.559 21.8191 113.566 21.9068C113.559 21.9957 113.541 22.0415 113.512 22.044C113.405 21.9946 113.307 21.9736 113.219 21.9813C113.088 21.9928 112.998 22.0596 112.95 22.1816C112.888 22.3195 112.888 22.4888 112.95 22.6895C112.97 22.7466 112.976 22.8197 112.969 22.9086C112.962 22.9976 112.948 23.0799 112.925 23.1555C112.887 23.2324 112.839 23.2661 112.779 23.2566C112.75 23.2591 112.727 23.2464 112.709 23.2185C112.692 23.1905 112.669 23.1778 112.64 23.1804C112.45 23.197 112.355 23.2863 112.354 23.4483C112.339 23.6116 112.423 23.7294 112.606 23.8017C112.789 23.874 112.779 23.9338 112.577 23.9809C112.52 24.0006 112.576 24.0546 112.746 24.1428C112.807 24.1669 112.845 24.1856 112.861 24.199C112.924 24.2377 112.95 24.2869 112.941 24.3466C112.931 24.4063 112.906 24.4527 112.864 24.4858C112.824 24.5335 112.789 24.5513 112.759 24.5392ZM117.475 18.6276C117.153 18.6411 116.85 18.5498 116.568 18.3537C116.443 18.2762 116.408 18.2057 116.461 18.1422C116.697 17.8123 116.844 17.5565 116.902 17.3748C116.99 17.3672 117.049 17.3693 117.079 17.3814C117.108 17.3788 117.147 17.3976 117.195 17.4376C117.241 17.4629 117.28 17.489 117.312 17.5156C117.435 17.5785 117.698 17.5555 118.101 17.4466C118.502 17.3232 118.769 17.263 118.902 17.2661C119.288 17.3059 119.634 17.3861 119.939 17.5066C120.031 17.5428 120.072 17.598 120.064 17.6724C120.054 17.7321 120.051 17.7766 120.054 17.8058C119.934 17.7868 119.817 17.797 119.703 17.8365C119.838 18.0308 119.796 18.1448 119.578 18.1786C119.534 18.1825 119.443 18.2346 119.305 18.3351C119.181 18.4342 119.075 18.4803 118.986 18.4734C118.837 18.457 118.574 18.48 118.197 18.5424C117.833 18.589 117.592 18.6174 117.475 18.6276Z" fill="#D96E34"/>
<g clip-path="url(#clip0_7182_18895)">
<path d="M38.6379 58.1557C38.6768 58.0859 38.7323 58.0269 38.7991 57.9845C38.9634 57.8539 39.2381 57.6589 39.4637 57.889C39.4202 57.8451 39.3643 57.8164 39.3034 57.8066C39.2425 57.7968 39.1796 57.8065 39.123 57.8343L39.2187 58.0021L39.3171 58.034L39.3023 58.1474L39.441 58.4015C39.3026 58.5219 39.1441 58.6149 38.9737 58.6759L38.5431 59.0205L38.61 58.4835C38.5889 58.4314 38.5804 58.3744 38.5852 58.3174C38.5901 58.2603 38.6081 58.2049 38.6379 58.1557Z" fill="#D96E34"/>
<path d="M33.4161 61.9942L33.5778 61.9125L33.8741 62.4876L33.0576 63.0391L32.7084 62.4955L33.4161 61.9942Z" fill="#D96E34"/>
<path d="M22.9352 70.1843L23.1766 69.9989L24.485 69.0903L24.5673 69.2164L24.7919 69.0579L24.9878 69.2975L25.1273 69.1305L24.9094 68.8485L25.0747 68.7054L25.1103 68.6765L25.0705 68.6197C25.9328 67.9571 26.0889 67.8577 26.2263 67.8903L26.5913 67.6173L26.6027 67.6229C26.7625 67.5161 26.9553 67.4255 27.1075 67.6343C27.128 67.6599 27.1445 67.6887 27.1564 67.7197C27.1971 67.8252 27.1927 67.9789 26.9839 68.1563C26.9012 68.2299 26.8101 68.293 26.7128 68.3439L25.1893 69.5436C25.1259 69.6108 24.9978 69.7184 24.8261 69.8639C24.7432 69.9344 24.6704 69.995 24.6427 70.0222C24.6709 69.9931 24.6929 69.9584 24.7072 69.9204L24.62 69.9888L24.6513 70.0338C24.467 70.1838 24.2697 70.3159 24.0622 70.4284L23.9749 70.4967L24.0173 70.4471C23.9635 70.4682 23.9051 70.4713 23.8506 70.4559L23.7119 70.5415L23.6552 70.4504L23.2955 70.7056L22.9352 70.1843ZM26.853 67.8355C26.8285 67.8051 26.7987 67.7797 26.765 67.7606L26.8521 67.8481L26.8455 67.8615L26.925 67.9899C26.9153 67.9328 26.891 67.8797 26.8544 67.8362L26.853 67.8355Z" fill="#D96E34"/>
<path d="M27.9773 66.3873L28.0428 66.0483L28.6258 65.543L29.1255 65.2029L29.1603 65.2591C29.377 65.0912 29.6198 64.9101 29.8785 64.7184C30.3074 64.399 30.75 64.0697 31.0993 63.7778L31.2539 63.6163L31.755 63.3567L32.0803 63.9126C31.7219 64.187 31.3228 64.4859 30.9244 64.7833C30.1459 65.3665 29.3398 65.9696 28.8625 66.3655L28.789 66.2865C28.4312 66.5741 28.3464 66.6084 28.1694 66.5007L27.9773 66.3873Z" fill="#D96E34"/>
<path d="M15.0149 76.3889L15.0255 76.3385L15.0111 76.3314C15.0276 76.2476 15.0546 76.1661 15.0915 76.0889C15.1845 75.8209 15.2676 75.5909 15.3485 75.369C15.2229 75.2402 15.2736 75.0145 15.319 74.8103L15.3295 74.7673L15.3428 74.7404L15.3055 74.722L16.0672 72.4148C16.1657 72.0921 16.2513 71.8353 16.3404 71.5896L16.413 71.6125L16.5575 71.0265L16.5691 70.9597C16.5941 70.6763 16.6455 70.3952 16.7227 70.1202L16.8376 69.8873L17.0328 69.083C17.0619 68.9117 17.0837 68.759 17.1034 68.5998L16.6304 69.5585L17.5739 65.7869L17.6782 65.8068L17.6863 65.7904L17.7923 65.8C17.7946 65.7157 17.7999 65.6181 17.8122 65.4774L18.0149 65.479L18.036 65.3891L18.0168 65.3593L18.0306 65.2807C17.9577 65.3112 17.8984 65.3691 17.8652 65.4423C17.888 65.396 17.9253 65.2083 17.9625 65.0317L17.6687 65.3305C17.3125 66.2948 17.1013 66.8423 16.9596 67.1512L17.0794 67.2195L16.5873 68.2171L16.763 68.3167C16.5345 68.7609 16.3552 69.2288 16.2285 69.7111L16.231 69.7458L16.1854 69.8384L15.6736 71.762L15.6622 71.5318C15.5841 71.7624 15.5015 72.0095 15.4109 72.2656L15.2915 72.2289L15.2389 72.4369C15.1787 72.6746 15.1322 72.8485 15.0812 73.035L14.5432 74.9828L14.511 75.0988L14.3183 75.0482C14.3132 75.1236 14.2968 75.2363 14.2711 75.426L14.2493 75.5786C14.2204 75.789 14.2169 75.8505 14.2167 75.869C14.2148 75.8211 14.2006 75.775 14.1756 75.7353L14.1718 75.9563L14.2249 75.9825L14.2073 76.0183L14.1431 76.1483L14.0755 76.412L13.7916 76.3796C13.7106 76.3708 13.6369 76.3306 13.5853 76.2672C13.5337 76.2039 13.5082 76.1221 13.5139 76.0383L13.565 73.8077C13.4759 73.7098 13.4257 73.5402 13.3863 73.233L13.5836 73.1948L13.5855 73.1548L13.5893 73.0602L13.704 73.0593L13.6901 72.8668C13.6158 72.8747 13.5457 72.9086 13.4916 72.9628C13.4376 73.0171 13.4029 73.0882 13.3935 73.1641C13.3996 73.0687 13.3798 72.3924 13.3657 71.9435L13.3458 71.0833L13.3338 70.149L13.3814 70.1466C13.3846 69.9736 13.3927 69.8161 13.4001 69.6564C13.4139 69.444 13.4302 69.2627 13.4486 69.0806C13.3904 69.0424 13.3405 68.9925 13.3017 68.9339C13.2629 68.8753 13.2361 68.809 13.2228 68.7389L13.2117 68.6999L13.2092 68.6579C13.1838 67.9027 13.2073 67.7936 13.2585 67.6536C13.2764 67.4485 13.2764 67.2428 13.2584 67.0389L13.2611 66.9864C13.2671 66.8865 13.3101 66.7915 13.3814 66.7209C13.3636 66.5552 13.3548 66.3884 13.3548 66.2213L13.3591 66.1547L13.4186 65.8461C13.4566 65.6532 13.5038 65.4129 13.5543 65.1333L13.3415 65.1341C13.3326 64.8846 13.3229 64.774 13.3164 64.7002L13.2118 64.7025C13.2099 63.9106 13.2196 63.1058 13.2298 62.3292L13.2479 60.9214L13.3576 61.0609L13.383 60.7634C13.4369 60.0863 13.4609 59.788 13.5324 59.6395L13.4441 59.5254L13.4716 59.3793C13.4938 59.2547 13.5385 58.6974 13.5703 58.2025L13.5076 58.1994C13.5157 57.7354 13.5503 57.2714 13.6114 56.8098C13.6896 56.2234 13.7248 55.6332 13.7169 55.0441L13.7164 55.0197C13.727 54.8392 13.7202 54.5816 13.7134 54.3313C13.6938 53.6476 13.6998 53.4835 13.8268 53.3419L14.1128 53.0225L14.1954 52.0086L14.3493 52.0585L14.3509 51.9721L14.3191 51.9713C14.2335 51.9629 14.1548 51.9225 14.098 51.8578C14.0411 51.7932 14.01 51.7087 14.0105 51.6203C13.9693 51.4867 13.9837 51.2729 14.0181 50.8813L14.1342 50.8848L14.143 50.8668L14.144 50.8432C14.0711 50.7051 14.0945 50.466 14.1411 50.0025L14.15 49.9085L14.1822 49.865C14.2316 49.5839 14.2629 49.3004 14.2761 49.0163C14.2785 48.9019 14.3068 48.7887 14.3588 48.6858L14.3791 48.395C14.3972 48.1087 14.4193 47.7855 14.4795 47.2006L14.8756 47.1935C14.8999 47.1442 14.9143 47.0679 14.9383 46.9794C14.9173 46.9704 14.895 46.9644 14.8722 46.9617C14.8124 46.9531 14.7511 46.9632 14.6959 46.9906C14.6407 47.0179 14.5943 47.0614 14.5626 47.1153C14.6176 46.9613 14.6597 46.8032 14.6886 46.6427C14.774 46.2708 14.8865 45.7099 14.9617 45.2067C14.9389 45.1012 14.927 44.9932 14.9261 44.8846L14.9289 44.821C14.9336 44.7824 14.9397 44.7483 14.9458 44.7179L15.2231 42.1012L15.3319 41.2042L14.973 40.199L15.3858 40.8093L15.5083 39.8374L15.5894 39.5247L15.8312 39.5158C15.8991 39.5132 15.9654 39.5325 16.0207 39.5712C16.076 39.6098 16.1174 39.6656 16.1391 39.7308L16.2196 39.9729L16.2592 39.6973L16.56 40.7443L16.581 40.738L16.6517 41.0069L16.6775 41.1031C16.7624 41.1879 16.8285 41.2907 16.8713 41.4047L16.8989 41.4537L16.8989 41.5261C16.9216 41.6477 16.9504 41.768 16.9853 41.8862C17.0451 42.1014 17.1136 42.3858 17.1869 42.6931L17.5036 44.0117C17.5863 44.0577 17.6485 44.134 17.6781 44.2259C17.6944 44.2716 17.7083 44.3181 17.7199 44.3654C17.7456 44.4653 17.7822 44.6226 17.8346 44.8564L17.8419 44.9176C17.8451 44.9581 17.8745 45.1193 17.8921 45.2283C17.9576 45.5911 18.0032 45.8531 17.6951 45.935C17.8542 46.6689 17.9533 47.1987 18.0168 47.6162L18.1492 47.5758L18.1568 47.6074L18.376 47.4705L18.5015 48.5256L18.3691 48.5551L18.4165 48.7883L18.7185 50.7698C18.7773 51.2148 18.8281 51.6836 18.8775 52.1369C18.9061 52.4406 18.9419 52.7479 18.9784 53.0537C19.0128 53.4179 19.0416 53.7756 19.0684 54.1119C19.0953 54.4482 19.1226 54.8052 19.1541 55.1067L19.1553 55.1333C19.172 55.8842 19.1519 56.2252 18.9582 56.3358L18.9567 56.4075L19.0767 56.526L19.1078 57.2841L19.5294 56.9722L19.1332 57.8332L19.1412 58.1788L19.1713 58.1176C19.6124 57.0355 19.962 56.1532 20.2407 55.4255L21.2075 52.8798L21.1777 53.1138C21.3622 52.7073 21.5159 52.3523 21.6578 52.025C21.9142 51.4329 22.1263 50.9416 22.4014 50.42C22.3959 50.3609 22.4024 50.3009 22.4205 50.2438L22.4552 50.1736L22.5355 50.0108L22.4852 49.9861C22.7182 49.4399 22.9918 48.9119 23.3036 48.4068C23.3963 48.2551 23.521 48.1261 23.6682 48.0296C23.8725 47.5084 24.1207 47.0052 24.41 46.5259L24.3498 46.4962L24.4971 46.1975C24.6982 45.7898 25.0037 45.1236 25.3059 44.5003C25.4886 44.1299 25.6956 43.7103 25.8533 43.3907C25.9432 43.2124 26.049 43.0427 26.1694 42.8839C26.2861 42.6184 26.5704 42.1144 26.6555 41.9744L27.1171 41.0787C27.3953 40.5364 27.5624 40.2085 28.0266 39.3365L28.0897 39.3676C28.1953 39.1969 28.297 38.9945 28.4207 38.7474C28.5444 38.5002 28.6646 38.2531 28.8387 37.9472L28.9617 37.6979C29.5557 36.5445 29.7069 36.2923 29.8536 36.0491C30.0004 35.8058 30.1281 35.594 30.7186 34.4334L31.3429 33.2041L31.3443 33.563L31.5083 33.2559C31.846 32.6148 32.2299 31.8908 32.6242 31.2869L32.6616 31.3053C32.8381 30.9691 33.0255 30.5676 33.1955 30.1688L33.2206 30.1179L34.1956 30.9703C33.7579 31.7273 33.6935 31.9592 33.6366 32.1614L33.6104 32.2543L33.5912 32.2931C33.3306 32.7382 33.2072 32.9521 33.0261 32.9538C32.7975 33.3702 32.5759 33.7399 32.3601 34.0976C32.2551 34.2742 32.1487 34.4501 32.043 34.6318C31.8007 35.0433 31.5394 35.4789 31.2437 35.9662L31.5116 35.727L30.3922 37.5439C30.3073 37.7094 30.1929 37.8578 30.0551 37.9811C30.0348 37.997 29.9846 38.0373 29.6814 38.5506L29.6527 38.6087L29.6098 38.6414C29.4095 38.9877 29.2323 39.347 29.0793 39.7166C28.7805 40.3994 28.4481 41.0671 28.0835 41.7171C28.0911 41.7577 28.0921 41.7997 28.0865 41.8411L28.0786 41.9078L26.38 44.8408L25.8397 46.1023C25.756 46.3117 25.6356 46.5921 25.4702 46.9635L25.4372 46.9472L25.4114 46.9995L25.3669 46.9776L25.2802 47.1352C25.2783 47.1665 25.2731 47.1976 25.2648 47.2279C25.2108 47.369 25.1393 47.5029 25.0522 47.6262L24.9854 47.7362L24.8967 48.2199L24.7753 48.3214C24.5584 48.79 24.3571 49.2775 24.1633 49.75L23.8763 50.4365L22.8131 52.3963L22.8949 52.4366L22.8883 52.4501C22.8026 52.6491 22.7596 52.758 22.7447 52.8063L22.7978 52.8325L22.2467 53.9495L21.7761 54.965C21.7377 55.2083 21.664 55.4455 21.5574 55.6685C21.4981 55.8249 21.4277 56.0038 21.3616 56.1884L20.541 58.4776L20.5822 57.9744C20.4389 58.324 20.2715 58.6633 20.0813 58.9898L20.0702 59.0122C19.925 59.2823 19.795 59.5604 19.6808 59.845L19.7181 59.8634C19.6319 60.0381 19.5334 60.2921 19.4311 60.5536L19.5433 60.8652L19.3785 60.6892C19.2717 60.9707 19.1693 61.2507 19.1001 61.4561L19.1417 61.4767L19.0446 61.7314L18.9657 64.2752L18.7288 63.3951C18.7191 63.4943 18.7087 63.5951 18.7019 63.692L18.6961 63.7689L18.6902 63.7809C18.7707 63.8167 18.833 63.8841 18.8636 63.9685C18.8599 63.976 18.872 63.9913 18.8747 64.0038L18.8957 64.0735L18.8855 64.1446L18.8582 64.3484C18.8424 64.478 18.8252 64.6069 18.8037 64.7374L18.7646 64.9614C18.7853 65.0447 18.7908 65.1317 18.7807 65.2181L18.77 65.3483L18.7241 65.3907C18.6994 65.4769 18.6518 65.6819 18.5994 66.0051C18.547 66.3283 18.4869 66.7721 18.4351 67.1847L18.4029 67.438L18.3975 67.4706C18.3242 67.7891 18.2253 68.2213 17.8806 68.2072L17.8423 68.4296C17.8675 68.4291 17.887 68.4331 17.8942 68.4329C17.943 68.4383 17.9891 68.4568 18.028 68.4864C18.0669 68.516 18.0973 68.5559 18.116 68.6018C18.1533 68.7682 18.1505 68.9426 18.1079 69.1103L18.0917 69.1431L18.0487 69.328C18.0283 69.4163 18.0087 69.5032 17.9847 69.5842L17.7767 70.3097L17.6271 70.0595C17.6365 70.1429 17.6361 70.2275 17.626 70.3115L17.619 70.3545C17.5514 70.7341 17.4485 71.1074 17.3118 71.4691C17.2683 71.5572 17.234 71.6666 17.1616 71.9001L17.0724 71.8747L17.0207 72.0627L16.7024 73.3446L16.5641 73.813L16.7519 73.863L16.4625 75.0681L16.4099 75.0626C16.227 75.6612 16.1726 75.7569 16.1116 75.8661L16.4568 75.6186L16.9014 75.3107L16.8082 75.1848L17.7718 74.4255L18.035 74.2138C18.0566 74.1918 18.0797 74.1715 18.1042 74.1532L18.0554 74.0604L18.41 73.8083C18.4318 73.7419 18.4679 73.681 18.5157 73.6302C18.715 73.3749 18.9334 73.1355 19.1686 72.9144L19.2159 72.8764L19.3081 72.8161C19.3706 72.7764 19.4461 72.7283 19.5617 72.6423C19.5829 72.59 19.6138 72.5422 19.6526 72.5015L19.657 72.4925L19.6824 72.4735C19.7261 72.4319 19.7712 72.3948 19.809 72.3652L19.8211 72.3804L19.8756 72.3423C20.1451 72.1577 20.3297 72.0334 20.4802 72.0575C20.5472 71.994 20.625 71.9266 20.7131 71.8494L20.7582 71.8159C20.8549 71.7446 20.9702 71.706 21.0875 71.7054C21.1354 71.6771 21.2037 71.6328 21.3003 71.5672L21.6467 72.1094L21.372 72.3044C21.2231 72.4073 21.0691 72.5133 20.95 72.592L20.926 72.608L21.0427 72.7658L20.8382 72.9415C20.6999 73.059 20.4816 73.2447 20.3876 73.3338L20.3575 73.4601L19.9345 73.5578L19.795 73.6561L18.4714 74.7002C18.4283 74.7518 18.3825 74.8011 18.3343 74.8478C18.2913 74.8916 18.2352 74.9438 18.1588 75.0119L17.7885 75.3212L17.7436 75.2675L17.5167 75.449L17.6182 75.6049L16.2304 76.5802L15.8732 76.0419L16.0439 75.92L15.9175 75.8725L15.6964 76.5377C15.6796 76.6569 15.6247 76.7683 15.5402 76.8542L14.6544 77.626L15.0149 76.3889ZM25.0347 47.4301L24.9444 47.3744L24.8814 47.4659C24.9342 47.4669 24.9869 47.4546 25.0347 47.4301ZM21.2566 53.851L21.2694 53.8034L21.189 53.7637L21.2163 53.8422C21.2293 53.8469 21.2428 53.8498 21.2566 53.851ZM18.0319 60.6153L18.0038 60.6144C18.01 60.629 18.0184 60.6425 18.0286 60.6545L18.0319 60.6153ZM18.1478 63.9868L18.1421 63.9839L18.1478 63.9868ZM17.0943 63.467C17.3421 62.7983 17.636 62.0075 18.0064 61.0539L18.026 60.6922C18.0143 60.6697 18.0044 60.6463 17.9965 60.622L17.9395 60.618L17.9486 60.5092L17.977 60.1333C17.9838 60.0327 17.987 59.9321 17.9902 59.8316L17.9993 59.6504L18.0729 59.6496C18.0661 59.4606 18.0638 59.2738 18.0628 59.0876L18.051 58.4134L18.0459 58.279C18.0431 58.0665 18.0285 57.8546 18.002 57.6446L17.8618 56.6229L18.0145 56.7837L18.0137 56.5791L18.0418 56.5762L18.027 56.3387C17.9935 56.2276 17.9842 56.1096 17.9995 55.9928L17.998 55.8583C17.9979 55.8007 17.9979 55.732 17.9944 55.6523L17.9932 55.6258L17.9855 55.4678L17.9811 55.4007L18.145 55.3832L18.1399 55.2561C17.9176 55.1929 17.9129 54.9493 17.9083 54.5645C17.9044 54.3769 17.9086 54.1116 17.9181 53.9622C17.9161 53.8472 17.9588 53.7347 18.0367 53.6493C18.0199 53.5965 18.0076 53.5347 17.9911 53.456L17.8705 53.469C17.844 53.1922 17.8152 52.9155 17.7839 52.6389L17.7338 52.1761C17.7026 51.9861 17.673 51.7747 17.6415 51.5494C17.6099 51.324 17.5853 51.1243 17.5478 50.9109C17.4733 50.4433 17.4162 50.0308 17.3841 49.7161C17.3507 49.5269 17.3248 49.3155 17.3066 49.1208C17.2928 48.9933 17.2796 48.8754 17.2648 48.7715L17.2568 48.7081L17.1352 47.9816C17.0706 47.5951 17.0075 47.2093 16.9386 46.8244L16.9272 46.8188L16.896 46.6939C16.8005 46.3051 16.7138 45.902 16.6291 45.513C16.5058 44.9453 16.3769 44.3601 16.2156 43.7755L16.1534 43.5832L16.0486 44.588C16.018 45.0332 15.9645 45.4773 15.8884 45.9183C15.9054 46.3649 15.8431 47.229 15.6953 48.6211L15.6081 49.5213C15.5221 50.3794 15.4402 51.1893 15.4105 51.7596L15.4 51.9401L15.3092 51.9974C15.2304 52.9964 15.1476 53.96 15.0303 55.2613L14.9569 56.0792L14.8978 56.0073C14.8766 56.3831 14.86 56.8075 14.85 57.2835C14.8392 57.8444 14.8238 58.4217 14.8078 58.9931C14.8436 60.071 14.785 61.2099 14.7174 62.3055C14.635 63.3835 14.6091 64.4636 14.64 65.5408L14.6403 65.5799C14.6165 65.9284 14.6136 66.2773 14.6317 66.6247L14.6389 66.6283L14.6761 67.4896C14.6921 67.6924 14.713 67.9033 14.7333 68.0971C14.8012 68.7879 14.8169 69.0129 14.6973 69.1433C14.6986 69.2626 14.655 69.3794 14.5756 69.4694C14.5712 69.5508 14.5668 69.6248 14.5603 69.6921C14.5904 69.8372 14.607 69.9852 14.6099 70.1343C14.6133 70.2239 14.6152 70.3177 14.6156 70.4157L14.6144 70.675L14.6107 70.8199L14.8203 70.3662L14.8987 70.0336L14.7673 69.9817C14.9467 69.5132 15.0691 69.1818 15.1656 68.9175L15.4013 68.3059L15.5858 67.8307L15.5821 67.8381L15.9053 66.9262C15.9841 66.7014 16.0914 66.4332 16.1965 66.1732C16.3433 65.8344 16.4688 65.487 16.5722 65.1331L16.5818 65.1136C16.6208 64.897 16.7891 64.3209 17.0943 63.467ZM15.5108 74.8809L15.531 74.8147C15.5023 74.8201 15.4744 74.8303 15.4484 74.8446L15.4713 74.867L15.5108 74.8809ZM15.0464 76.4119L15.0449 76.4112L15.0464 76.4119Z" fill="#D96E34"/>
</g>
<defs>
<clipPath id="clip0_7182_18895">
<rect width="50.8378" height="30.0405" fill="white" transform="matrix(-0.442438 0.896799 0.896799 0.442438 22.4927 24.855)"/>
</clipPath>
</defs>
</svg>
