<svg version="1.2" xmlns="http://www.w3.org/2000/svg" viewBox="0 0 1408 1588" width="1408" height="1588">
	<title>lockup-svg</title>
	<style>
		.s0 { fill: #5ba63c } 
	</style>
	<path id="Layer" fill-rule="evenodd" class="s0" d="m1407.9 415.3v757.4c-0.5 4.4-1.5 8.7-3 12.9-1.5 4.1-3.4 8.1-5.8 11.8-2.4 3.8-5.2 7.2-8.3 10.3-3.2 3.1-6.6 5.9-10.4 8.2l-151.7 87.6v-1019l151.7 87.6c3.8 2.3 7.3 5 10.5 8.1 3.2 3.1 6 6.5 8.3 10.3 2.4 3.7 4.3 7.7 5.8 11.9 1.4 4.2 2.4 8.5 2.9 12.9zm-425-272.1l179.1 102v1097.6l-179.1 102v-565.1l-312.5 180.5v527.2l-177.9-103.3v-531.1l490.4-283.9zm-245.8 952.3l179.1-103.4v491.9l-179.1 103.3zm-66.7-603l-177.8 103.3v-491.8l177.8-103.4zm245.8 142.6l-491.6 283.9v525.9l-177.9-102.1v-1096.2l177.9-103.3v565.1l312.5-180.5v-527.2l179.1 103.4zm-912.3-232.6c1.4-4.2 3.4-8.2 5.8-11.9 2.3-3.7 5.1-7.2 8.3-10.3 3.1-3.1 6.6-5.8 10.3-8.2l151.7-87.6v1019l-151.7-87.6c-3.8-2.3-7.3-5-10.4-8.1-3.2-3.1-6-6.5-8.4-10.2-2.4-3.8-4.3-7.8-5.7-12-1.5-4.1-2.5-8.5-2.9-12.9v-757.4c0.5-4.4 1.5-8.7 3-12.8z"/>
</svg>