<svg xmlns="http://www.w3.org/2000/svg" width="128" height="128" viewBox="0 0 128 128" fill="none">
    <path d="M64 126C29.7583 126 2 98.2417 2 64C2 29.7583 29.7583 2 64 2C98.2417 2 126 29.7583 126 64C126 98.2417 98.2417 126 64 126Z" fill="#0B1620" class="dark_mode"/>
    <path d="M75.4615 59.7386H53.3389C48.3281 59.7386 44.2436 55.7232 44.2436 50.6106C44.2436 45.5537 48.4492 41.5903 53.3389 41.5831H88.9163V33.006L52.329 33.0084C42.1039 33.0084 34.6699 41.5443 34.6699 50.6191C34.6699 60.5233 42.6173 68.3327 52.329 68.3327H73.943C78.5882 68.3327 83.0396 72.0817 83.0396 77.1943C83.0396 82.3069 79.0556 86.487 73.943 86.487H35.658V94.9999H75.4603C85.7206 94.9999 93.3289 87.0647 93.3289 77.1858C93.3301 67.7018 85.5196 59.7386 75.4615 59.7386Z" fill="#2EC4F1"/>
</svg>
