<svg width="41" height="41" viewBox="0 0 41 41" fill="none" xmlns="http://www.w3.org/2000/svg">
<path opacity="0.2" d="M20.5005 40.5C20.1711 40.5 19.8437 40.492 19.5183 40.4763L19.4942 40.9757C18.8175 40.943 18.1493 40.8775 17.4914 40.7807L17.5642 40.286C16.9115 40.19 16.2692 40.0625 15.6388 39.9051L15.5176 40.3902C14.8627 40.2267 14.2203 40.0316 13.5921 39.8068L13.7606 39.3361C13.1416 39.1146 12.5368 38.8634 11.9477 38.5843L11.7336 39.0362C11.1254 38.748 10.5336 38.4307 9.96004 38.0862L10.2175 37.6576C9.65522 37.3199 9.11089 36.9553 8.58628 36.5656L8.28813 36.967C7.74896 36.5664 7.23015 36.1401 6.73352 35.6897L7.06941 35.3193C6.58438 34.8795 6.12103 34.4161 5.68117 33.9311L5.31079 34.267C4.86041 33.7703 4.43404 33.2515 4.03353 32.7124L4.4349 32.4142C4.0452 31.8896 3.6806 31.3453 3.34287 30.783L2.91425 31.0405C2.56975 30.4669 2.25251 29.8751 1.96433 29.2669L2.41618 29.0528C2.13708 28.4637 1.88593 27.8589 1.66443 27.2399L1.19367 27.4084C0.968851 26.7802 0.773824 26.1378 0.610292 25.4829L1.0954 25.3617C0.937967 24.7313 0.81045 24.089 0.71445 23.4363L0.219773 23.5091C0.122991 22.8511 0.0574663 22.183 0.0247553 21.5063L0.524172 21.4822C0.508445 21.1568 0.500488 20.8293 0.500488 20.5C0.500488 20.1707 0.508445 19.8432 0.524172 19.5178L0.0247554 19.4937C0.0574665 18.817 0.122991 18.1488 0.219773 17.4909L0.71445 17.5637C0.810451 16.911 0.937967 16.2687 1.0954 15.6383L0.610292 15.5171C0.773824 14.8623 0.968851 14.2198 1.19367 13.5916L1.66443 13.7601C1.88593 13.1411 2.13708 12.5363 2.41618 11.9472L1.96433 11.7331C2.25251 11.1249 2.56975 10.5331 2.91425 9.95955L3.34287 10.217C3.6806 9.65473 4.0452 9.1104 4.4349 8.5858L4.03352 8.28764C4.43404 7.74847 4.86041 7.22966 5.31079 6.73303L5.68117 7.06892C6.12103 6.58389 6.58438 6.12055 7.06941 5.68068L6.73352 5.3103C7.23015 4.85992 7.74896 4.43355 8.28812 4.03304L8.58628 4.43441C9.11089 4.04471 9.65522 3.68011 10.2175 3.34238L9.96003 2.91376C10.5336 2.56926 11.1254 2.25202 11.7336 1.96384L11.9477 2.41569C12.5368 2.13659 13.1416 1.88544 13.7606 1.66395L13.5921 1.19318C14.2203 0.968363 14.8627 0.773336 15.5176 0.609804L15.6388 1.09491C16.2692 0.937478 16.9115 0.809962 17.5642 0.713962L17.4914 0.219285C18.1493 0.122503 18.8175 0.056978 19.4942 0.024267L19.5183 0.523684C19.8437 0.507956 20.1711 0.5 20.5005 0.5C20.8298 0.5 21.1573 0.507956 21.4827 0.523684L21.5068 0.0242671C22.1835 0.0569782 22.8516 0.122503 23.5096 0.219285L23.4368 0.713962C24.0895 0.809962 24.7318 0.937478 25.3622 1.09491L25.4834 0.609804C26.1382 0.773336 26.7806 0.968363 27.4089 1.19318L27.2404 1.66395C27.8594 1.88544 28.4642 2.13659 29.0533 2.41569L29.2674 1.96384C29.8756 2.25202 30.4674 2.56926 31.0409 2.91376L30.7835 3.34238C31.3458 3.68011 31.8901 4.04471 32.4147 4.43441L32.7129 4.03304C33.252 4.43355 33.7708 4.85992 34.2675 5.3103L33.9316 5.68068C34.4166 6.12055 34.8799 6.58389 35.3198 7.06892L35.6902 6.73303C36.1406 7.22966 36.5669 7.74847 36.9675 8.28763L36.5661 8.58579C36.9558 9.1104 37.3204 9.65473 37.6581 10.217L38.0867 9.95954C38.4312 10.5331 38.7485 11.1249 39.0367 11.7331L38.5848 11.9472C38.8639 12.5363 39.115 13.1411 39.3365 13.7601L39.8073 13.5916C40.0321 14.2198 40.2272 14.8623 40.3907 15.5171L39.9056 15.6383C40.063 16.2687 40.1905 16.911 40.2865 17.5637L40.7812 17.4909C40.878 18.1489 40.9435 18.817 40.9762 19.4937L40.4768 19.5178C40.4925 19.8432 40.5005 20.1707 40.5005 20.5C40.5005 20.8293 40.4925 21.1568 40.4768 21.4822L40.9762 21.5063C40.9435 22.183 40.878 22.8512 40.7812 23.5091L40.2865 23.4363C40.1905 24.089 40.063 24.7313 39.9056 25.3617L40.3907 25.4829C40.2272 26.1377 40.0321 26.7802 39.8073 27.4084L39.3365 27.2399C39.115 27.8589 38.8639 28.4637 38.5848 29.0528L39.0367 29.2669C38.7485 29.8751 38.4312 30.4669 38.0867 31.0405L37.6581 30.783C37.3204 31.3453 36.9558 31.8896 36.5661 32.4142L36.9675 32.7124C36.5669 33.2515 36.1406 33.7703 35.6902 34.267L35.3198 33.9311C34.8799 34.4161 34.4166 34.8795 33.9316 35.3193L34.2675 35.6897C33.7708 36.1401 33.252 36.5664 32.7129 36.967L32.4147 36.5656C31.8901 36.9553 31.3458 37.3199 30.7835 37.6576L31.0409 38.0862C30.4674 38.4307 29.8756 38.748 29.2674 39.0362L29.0533 38.5843C28.4642 38.8634 27.8594 39.1146 27.2404 39.3361L27.4089 39.8068C26.7806 40.0316 26.1382 40.2267 25.4834 40.3902L25.3622 39.9051C24.7318 40.0625 24.0895 40.19 23.4368 40.286L23.5096 40.7807C22.8516 40.8775 22.1835 40.943 21.5068 40.9757L21.4827 40.4763C21.1573 40.492 20.8298 40.5 20.5005 40.5Z" fill="#F1EAFB" stroke="black" stroke-dasharray="2 2"/>
<path d="M15.0005 20.5H26.0005" stroke="black" stroke-width="1.5" stroke-miterlimit="10" stroke-linecap="round"/>
<path d="M20.5005 26V15" stroke="black" stroke-width="1.5" stroke-miterlimit="10" stroke-linecap="round" stroke-linejoin="round"/>
</svg>
