<svg width="16" height="16" viewBox="0 0 16 16" fill="none" xmlns="http://www.w3.org/2000/svg">
<circle cx="8" cy="8" r="8" fill="#BDBDC1"/>
<path d="M6.1797 5.95393C6.21776 5.12737 6.6871 4.08401 8.10782 4.08401C9.07188 4.08401 9.75687 4.58537 9.75687 5.42547C9.75687 6.31978 9.23679 6.76694 8.57717 7.21409C7.537 7.93225 7.05497 8.47425 7.05497 9.61247V10.1274H8.2093V9.65312C8.2093 8.90786 8.48837 8.59621 9.27484 8.0813C10.1882 7.4851 11 6.67209 11 5.38482C11 3.73171 9.5666 3 8.13319 3C6.33192 3 5.01269 4.19241 5 5.95393H6.1797ZM8.37421 13V11.4417H6.91543V13H8.37421Z" fill="white"/>
</svg>
