<svg width="21" height="21" viewBox="0 0 21 21" fill="none" xmlns="http://www.w3.org/2000/svg">
<path fill-rule="evenodd" clip-rule="evenodd" d="M6.06723 9.74963C6.06723 9.50482 6.21281 9.2837 6.43761 9.18698C7.44868 8.73789 10.2189 7.32558 10.8381 5.11999C11.0774 4.26784 11.0672 3.07696 11.0672 1.78068C11.0672 0.279297 12.8801 -0.804865 14.0672 0.779099C15.5672 2.78049 15.6574 4.85468 14.2772 8.11487C14.2772 8.11487 18.2123 8.13705 19.4964 8.17157C20.291 8.19291 20.9999 8.8256 20.9277 10.0788C20.8521 11.3886 19.8424 11.6354 19.8424 11.6354C19.8424 11.6354 20.8106 11.9804 20.9277 13.2378C20.9277 13.2378 21.0313 14.6503 19.6716 14.8916C20.2118 15.3115 20.4054 15.5783 20.3015 16.4121C20.1573 17.5694 18.7024 17.8177 18.7024 17.8177C18.7024 17.8177 19.0009 18.4711 18.5799 19.2937C18.3135 19.8139 17.6113 20.291 16.7055 20.291C13.8338 20.291 8.39689 19.9057 6.63422 19.775C6.31454 19.7512 6.06723 19.4848 6.06723 19.1642C6.06723 17.2944 6.06723 11.3602 6.06723 9.74963Z" fill="#D96E34"/>
<path fill-rule="evenodd" clip-rule="evenodd" d="M4.06723 9.8185C4.06723 9.67556 4.0271 9.53833 3.95564 9.43721C3.88419 9.33609 3.78733 9.2793 3.68622 9.2793H0.448138C0.34713 9.2793 0.250166 9.33609 0.178817 9.43721C0.107364 9.53833 0.0672302 9.67541 0.0672302 9.8185V18.7401C0.0672302 18.883 0.107364 19.0203 0.178817 19.1214C0.250269 19.2225 0.34713 19.2793 0.448138 19.2793H3.68622C3.78723 19.2793 3.88419 19.2225 3.95564 19.1214C4.0271 19.0203 4.06723 18.8832 4.06723 18.7401V9.8185Z" fill="#D96E34"/>
</svg>