<svg width="38" height="19" viewBox="0 0 38 19" fill="none" xmlns="http://www.w3.org/2000/svg">
<path fill-rule="evenodd" clip-rule="evenodd" d="M0.738727 10.3975C0.330739 10.3975 -4.2616e-07 10.0668 -4.08326e-07 9.6588C-3.90493e-07 9.25082 0.330739 8.92008 0.738727 8.92008L13.1279 8.92008L34.9268 8.92008C34.5418 8.62495 34.1161 8.28469 33.665 7.90195C31.8745 6.38269 29.6586 4.17175 28.0245 1.43494C27.8153 1.08464 27.9297 0.631117 28.28 0.421959C28.6303 0.2128 29.0838 0.327214 29.293 0.67751C30.8135 3.22395 32.8988 5.31424 34.6209 6.77539C35.4791 7.50362 36.2405 8.07 36.7855 8.45318C37.0579 8.64466 37.2758 8.79009 37.4242 8.8868C37.4984 8.93515 37.5552 8.9713 37.5928 8.99492L37.6343 9.0209L37.6438 9.02676L37.6456 9.02782L37.6457 9.02789L37.6458 9.02795C37.8593 9.15815 37.9925 9.38758 37.9996 9.6376C38.0068 9.88765 37.8869 10.1243 37.681 10.2665L37.6809 10.2666L37.6807 10.2667L37.6785 10.2682L37.6684 10.2753L37.6255 10.3055C37.587 10.3326 37.5293 10.3737 37.4541 10.4281C37.3038 10.537 37.0839 10.6989 36.8094 10.9088C36.2602 11.3288 35.4941 11.9395 34.631 12.6991C32.898 14.224 30.8029 16.3237 29.2777 18.6644C29.0549 19.0063 28.5973 19.1028 28.2554 18.88C27.9136 18.6573 27.8171 18.1996 28.0398 17.8578C29.6691 15.3574 31.8753 13.1559 33.6549 11.5899C34.167 11.1393 34.6462 10.7392 35.0695 10.3975L13.1279 10.3975L0.738727 10.3975ZM37.648 10.2189C37.681 10.2665 37.681 10.2665 37.681 10.2665L37.6789 10.1908C37.6689 10.2004 37.6586 10.2098 37.648 10.2189ZM37.6478 9.09852L37.6458 9.02795C37.6457 9.02792 37.6457 9.02789 37.6176 9.07391C37.6279 9.08185 37.6379 9.09006 37.6478 9.09852Z" fill="black"/>
</svg>
