<svg width="30" height="31" viewBox="0 0 30 31" fill="none" xmlns="http://www.w3.org/2000/svg">
<path d="M8.46321 20.1L2.67137 25.8918L0.569543 30.0852L4.76293 27.9834L10.5548 22.1916L8.46321 20.1ZM20.0592 18.7275C20.0654 18.7501 20.0736 18.7707 20.0777 18.7912L20.0798 18.7933C20.0859 18.8159 20.0921 18.8344 20.0983 18.857C20.1044 18.8796 20.1106 18.8981 20.1168 18.9207L20.1168 18.9248C20.1209 18.9453 20.1291 18.9659 20.1332 18.9864L20.1332 18.9905C20.1373 19.0111 20.1455 19.0316 20.1496 19.0522L20.1496 19.0563C20.1537 19.0768 20.1599 19.0994 20.1661 19.1179L20.1661 19.122C20.1702 19.1426 20.1743 19.1631 20.1804 19.1816L20.1825 19.1878C20.1866 19.2083 20.1907 19.2289 20.1969 19.2474L20.1989 19.2535C20.203 19.2741 20.2072 19.2946 20.2113 19.3152L20.2133 19.3213C20.2174 19.3419 20.2215 19.3624 20.2256 19.383L20.2256 19.3912C20.2298 19.4117 20.2339 19.4323 20.2359 19.4508L20.2359 19.459C20.24 19.4795 20.2441 19.5001 20.2462 19.5186L20.2462 19.5268C20.2503 19.5473 20.2524 19.5658 20.2565 19.5864L20.2585 19.5966C20.2626 19.6172 20.2647 19.6357 20.2688 19.6562L20.2708 19.6665C20.275 19.687 20.277 19.7055 20.2791 19.724L20.2811 19.7343C20.2832 19.7528 20.2873 19.7733 20.2893 19.7918L20.2914 19.8021C20.2934 19.8206 20.2955 19.8391 20.2996 19.8596L20.3017 19.874C20.3037 19.8925 20.3058 19.911 20.3099 19.9315L20.3099 19.9439C20.3119 19.9623 20.314 19.9808 20.316 19.9993L20.3181 20.0137C20.3202 20.0322 20.3222 20.0507 20.3243 20.0692L20.3263 20.0836C20.3284 20.1021 20.3304 20.1205 20.3325 20.139L20.3345 20.1534C20.3366 20.1719 20.3386 20.1904 20.3407 20.2089L20.3407 20.2253C20.3428 20.2438 20.3428 20.2603 20.3448 20.2788L20.3469 20.2972C20.3489 20.3157 20.3489 20.3322 20.351 20.3507L20.351 20.3671C20.353 20.3856 20.353 20.402 20.3551 20.4205L20.3571 20.439C20.3571 20.4554 20.3592 20.4739 20.3592 20.4904L20.3612 20.5089C20.3612 20.5253 20.3633 20.5438 20.3633 20.5602L20.3654 20.5787C20.3654 20.5952 20.3674 20.6136 20.3674 20.6301L20.3674 20.6506C20.3674 20.6671 20.3674 20.6835 20.3695 20.702L20.3695 20.7225C20.3695 20.739 20.3695 20.7554 20.3695 20.7718L20.3695 20.7924C20.3695 20.8088 20.3695 20.8253 20.3715 20.8438L20.3715 20.8643C20.3715 20.8807 20.3715 20.9013 20.3715 20.9177L20.3715 20.9383C20.3715 20.9547 20.3715 20.9711 20.3695 20.9896L20.3695 21.0143C20.3695 21.0307 20.3695 21.0472 20.3695 21.0636C20.3695 21.0718 20.3695 21.08 20.3695 21.0883C20.3695 21.1047 20.3695 21.1211 20.3674 21.1355C20.3674 21.1437 20.3674 21.1519 20.3654 21.1581C20.3654 21.1745 20.3654 21.191 20.3654 21.2074L20.3633 21.23C20.3633 21.2465 20.3633 21.2629 20.3612 21.2773L20.3612 21.3019C20.3612 21.3184 20.3592 21.3327 20.3592 21.3492C20.3592 21.3574 20.3571 21.3677 20.3571 21.3759C20.3571 21.3923 20.3551 21.4067 20.3551 21.4231C20.3551 21.4314 20.3551 21.4396 20.353 21.4499C20.353 21.4663 20.351 21.4807 20.351 21.4971C20.351 21.5053 20.351 21.5135 20.3489 21.5197C20.3489 21.5361 20.3469 21.5505 20.3469 21.567C20.3469 21.5752 20.3448 21.5855 20.3448 21.5937C20.3428 21.6081 20.3428 21.6245 20.3407 21.6389C20.3386 21.6492 20.3386 21.6574 20.3386 21.6697C20.3366 21.6841 20.3366 21.7005 20.3345 21.7149C20.3325 21.7252 20.3325 21.7334 20.3325 21.7457C20.3304 21.7601 20.3304 21.7724 20.3284 21.7868C20.3263 21.7971 20.3263 21.8094 20.3263 21.8176C20.3243 21.832 20.3243 21.8443 20.3222 21.8587C20.3202 21.869 20.3202 21.8772 20.3181 21.8875C20.316 21.9019 20.314 21.9162 20.314 21.9327C20.3119 21.943 20.3119 21.9512 20.3099 21.9614C20.3078 21.9758 20.3058 21.9902 20.3058 22.0066C20.3037 22.0169 20.3017 22.0272 20.3037 22.0375C20.3017 22.0518 20.3017 22.0642 20.2996 22.0786C20.2976 22.0888 20.2976 22.1012 20.2955 22.1114C20.2934 22.1258 20.2914 22.1402 20.2914 22.1525C20.2893 22.1628 20.2893 22.171 20.2873 22.1813C20.2852 22.1957 20.2832 22.21 20.2811 22.2244C20.2791 22.2347 20.277 22.245 20.277 22.2573C20.275 22.2717 20.2729 22.2861 20.2729 22.2984C20.2708 22.3087 20.2688 22.3189 20.2688 22.3272C20.2667 22.3415 20.2647 22.3559 20.2626 22.3703C20.2606 22.3847 20.2585 22.395 20.2565 22.4093C20.2544 22.4196 20.2544 22.4319 20.2524 22.4422C20.2503 22.4566 20.2482 22.471 20.2441 22.4874C20.2421 22.4977 20.2421 22.5059 20.24 22.5162C20.2359 22.5326 20.2359 22.5491 20.2318 22.5655C20.2318 22.5737 20.2277 22.5819 20.2277 22.5901C20.2256 22.6045 20.2215 22.6169 20.2215 22.6292C20.2195 22.6395 20.2195 22.6518 20.2174 22.6621C20.2154 22.6764 20.2133 22.6867 20.2113 22.7011C20.2092 22.7114 20.2092 22.7237 20.2051 22.736C20.201 22.7525 20.1989 22.7709 20.1948 22.7874L20.1907 22.8079C20.1866 22.8326 20.1804 22.8552 20.1763 22.8798C20.1722 22.9045 20.1681 22.9291 20.162 22.9517C19.7408 25.1358 18.734 27.2479 17.8012 28.345L17.793 28.3532C17.5383 28.6491 17.0904 28.682 16.7945 28.4272C16.7822 28.4149 16.7678 28.4046 16.7555 28.3923L16.7534 28.3902L2.26251 13.8993C1.98514 13.6219 1.98514 13.174 2.26251 12.8967C2.28306 12.8761 2.30566 12.8576 2.32826 12.8391C2.3488 12.8227 2.34675 12.8248 2.33853 12.833C2.34469 12.8268 2.35497 12.8206 2.36318 12.8165C3.46444 11.9002 5.57037 10.9037 7.74206 10.4908C7.76671 10.4867 7.78931 10.4805 7.81397 10.4764C7.83862 10.4723 7.86122 10.4661 7.88382 10.4641C7.90848 10.4599 7.93313 10.4558 7.95368 10.4517C7.96806 10.4497 7.98244 10.4476 7.99477 10.4435C8.00504 10.4415 8.01532 10.4394 8.02559 10.4373C8.03586 10.4353 8.04408 10.4353 8.05435 10.4332C8.06873 10.4312 8.08312 10.4291 8.09955 10.425C8.10983 10.423 8.12215 10.423 8.13448 10.4189C8.14886 10.4168 8.15913 10.4147 8.17352 10.4127C8.18584 10.4127 8.19817 10.4086 8.2105 10.4086C8.22077 10.4065 8.23515 10.4045 8.24543 10.4024C8.25981 10.4004 8.27419 10.3983 8.28857 10.3963C8.29885 10.3942 8.30912 10.3921 8.31734 10.3921C8.33172 10.3901 8.3461 10.388 8.36048 10.386C8.37076 10.3839 8.38103 10.3819 8.3913 10.3798C8.40568 10.3778 8.42007 10.3757 8.43239 10.3757C8.44267 10.3737 8.45294 10.3716 8.46116 10.3716C8.47554 10.3695 8.48992 10.3675 8.50225 10.3675C8.51252 10.3654 8.52485 10.3654 8.53512 10.3634C8.5495 10.3613 8.56183 10.3613 8.57416 10.3572C8.58443 10.3552 8.59676 10.3552 8.60703 10.3531C8.62141 10.3511 8.6358 10.349 8.65018 10.3469C8.66045 10.3449 8.66867 10.3449 8.67894 10.3428C8.69743 10.3408 8.71182 10.3387 8.72825 10.3387C8.73647 10.3387 8.74263 10.3367 8.75085 10.3367C8.76934 10.3346 8.78373 10.3326 8.80016 10.3326C8.80838 10.3326 8.81454 10.3305 8.82276 10.3305C8.8392 10.3305 8.85564 10.3264 8.87207 10.3264C8.88029 10.3264 8.88645 10.3243 8.89467 10.3243C8.91111 10.3243 8.92549 10.3223 8.94398 10.3202C8.9522 10.3202 8.96042 10.3202 8.97069 10.3182C8.98713 10.3182 9.00151 10.3161 9.02 10.3141C9.02822 10.3141 9.03644 10.3141 9.0426 10.312C9.05904 10.312 9.07753 10.31 9.09191 10.3079L9.11451 10.3059C9.133 10.3038 9.14944 10.3038 9.16793 10.3017C9.17409 10.2997 9.18026 10.3017 9.18642 10.2997C9.20286 10.2997 9.22135 10.2976 9.23779 10.2976L9.25833 10.2976C9.27682 10.2956 9.29326 10.2956 9.31175 10.2935L9.33024 10.2915C9.34873 10.2894 9.36517 10.2894 9.38161 10.2894L9.4001 10.2874C9.41859 10.2853 9.43503 10.2853 9.45557 10.2853L9.47201 10.2853C9.48844 10.2853 9.50693 10.2833 9.52543 10.2853L9.54392 10.2833C9.56241 10.2812 9.5809 10.2833 9.59734 10.2833L9.61377 10.2833C9.63432 10.2833 9.65076 10.2833 9.6713 10.2833L9.68363 10.2833C9.70417 10.2833 9.72061 10.2833 9.74116 10.2833L9.75759 10.2833C9.77814 10.2833 9.79458 10.2833 9.81512 10.2833L9.83156 10.2833C9.8521 10.2833 9.86854 10.2833 9.88909 10.2833L9.90141 10.2833C9.9199 10.2853 9.9384 10.2833 9.95689 10.2853L9.97332 10.2853C9.99181 10.2874 10.0103 10.2853 10.0288 10.2874L10.0452 10.2874C10.0658 10.2874 10.0843 10.2894 10.1048 10.2894L10.1151 10.2915C10.1356 10.2915 10.1541 10.2935 10.1747 10.2935L10.187 10.2935C10.2055 10.2956 10.226 10.2956 10.2445 10.2976L10.2569 10.2976C10.2753 10.2997 10.2959 10.2997 10.3144 10.3017L10.3267 10.3017C10.3452 10.3038 10.3657 10.3038 10.3842 10.3059L10.3966 10.3059C10.4151 10.3079 10.4356 10.3079 10.4561 10.312L10.4644 10.312C10.4829 10.3141 10.5034 10.3141 10.5239 10.3182L10.5342 10.3202C10.5527 10.3223 10.5733 10.3223 10.5938 10.3264L10.6061 10.3264C10.6246 10.3285 10.6431 10.3305 10.6657 10.3326L10.676 10.3346C10.6945 10.3367 10.7171 10.3387 10.7356 10.3408L10.7438 10.3408C10.7623 10.3428 10.7849 10.3449 10.8034 10.3469L10.8116 10.3469C10.8321 10.3511 10.8506 10.3531 10.8732 10.3552L10.8814 10.3552C10.902 10.3593 10.9205 10.3613 10.9431 10.3634L10.9513 10.3634C10.9718 10.3675 10.9903 10.3695 11.0109 10.3737L11.0191 10.3737C11.0396 10.3778 11.0581 10.3798 11.0787 10.3839L11.0869 10.3839C11.1074 10.388 11.128 10.3921 11.1465 10.3942L11.1526 10.3963C11.1732 10.4004 11.1937 10.4045 11.2143 10.4086L11.2204 10.4106C11.241 10.4147 11.2615 10.4189 11.2821 10.423L11.2883 10.425C11.3088 10.4291 11.3293 10.4332 11.3499 10.4373L11.3561 10.4394C11.3766 10.4435 11.3971 10.4476 11.4177 10.4517L11.4239 10.4538C11.4444 10.4579 11.4649 10.462 11.4834 10.4682L11.4896 10.4702C11.5101 10.4743 11.5286 10.4805 11.5492 10.4846L11.5553 10.4867C11.5759 10.4908 11.5944 10.4969 11.6149 10.501L11.6211 10.5031C11.6416 10.5072 11.6601 10.5134 11.6807 10.5175L11.6868 10.5195C11.7074 10.5236 11.7259 10.5298 11.7464 10.5339L11.7505 10.5339C11.7711 10.538 11.7916 10.5462 11.8122 10.5503L11.8163 10.5503C11.8348 10.5565 11.8574 10.5627 11.8759 10.5688L11.88 10.5688C11.8985 10.575 11.9211 10.5812 11.9396 10.5873L11.9437 10.5873C11.9622 10.5935 11.9848 10.5997 12.0032 10.6058L12.0074 10.6058C12.0258 10.612 12.0464 10.6202 12.0669 10.6243L12.071 10.6243C12.0895 10.6305 12.1101 10.6387 12.1286 10.6449L12.1327 10.6449C12.1532 10.6531 12.1717 10.6592 12.1923 10.6675C12.2066 10.6736 12.2231 10.6777 12.2375 10.6839L18.6046 4.31677C18.9046 4.80987 19.2456 5.31529 19.6237 5.82483C20.3654 6.82541 21.2262 7.82598 22.1631 8.76287C23.0425 9.64223 23.9691 10.4497 24.8895 11.1482C25.3497 11.4975 25.81 11.818 26.264 12.1077L19.9503 18.4214C19.9935 18.5262 20.0284 18.6269 20.0592 18.7275ZM7.88382 10.4641C7.90848 10.4599 7.93313 10.4558 7.95368 10.4517L7.88382 10.4641ZM19.3977 1.40339C18.7525 1.09931 17.5588 2.29302 17.8629 2.93815C18.2841 3.84011 18.8861 4.82425 19.6298 5.82688C20.3715 6.82746 21.2324 7.82804 22.1693 8.76492C23.0486 9.64428 23.9752 10.4517 24.8957 11.1503C25.8182 11.8509 26.7386 12.4385 27.6077 12.8802C28.2714 13.2192 29.6808 11.8098 29.3418 11.1462C28.9001 10.2771 28.3083 9.35664 27.6118 8.43414C26.9133 7.5178 26.1058 6.59118 25.2265 5.71183C24.2896 4.77494 23.289 3.91408 22.2884 3.17237C21.2858 2.42862 20.2996 1.82457 19.3977 1.40339Z" stroke="black" stroke-miterlimit="2.6131" stroke-linecap="round" stroke-linejoin="round"/>
</svg>
