<svg width="38" height="19" viewBox="0 0 38 19" fill="none" xmlns="http://www.w3.org/2000/svg">
<path fill-rule="evenodd" clip-rule="evenodd" d="M37.2613 8.91985C37.6693 8.91985 38 9.25059 38 9.65858C38 10.0666 37.6693 10.3973 37.2613 10.3973L24.8721 10.3973L3.07319 10.3973C3.45815 10.6924 3.88393 11.0327 4.33501 11.4154C6.12554 12.9347 8.3414 15.1456 9.97552 17.8824C10.1847 18.2327 10.0703 18.6863 9.71997 18.8954C9.36968 19.1046 8.91615 18.9902 8.70699 18.6399C7.18654 16.0934 5.10116 14.0031 3.37912 12.542C2.52086 11.8138 1.75948 11.2474 1.21446 10.8642C0.942101 10.6727 0.724202 10.5273 0.575768 10.4306C0.501564 10.3822 0.444764 10.3461 0.407242 10.3225L0.365666 10.2965L0.356171 10.2906L0.354447 10.2896L0.354329 10.2895L0.354233 10.2894C0.140683 10.1592 0.00751535 9.92981 0.000381877 9.67978C-0.00675541 9.42973 0.113137 9.19306 0.318955 9.05089L0.319092 9.0508L0.319294 9.05065L0.321465 9.04915L0.33162 9.04208L0.374535 9.01192C0.412964 8.98477 0.4707 8.94366 0.545861 8.88925C0.696194 8.78042 0.916115 8.61844 1.19058 8.40855C1.73978 7.98856 2.50588 7.37788 3.36905 6.61832C5.10201 5.09338 7.19708 2.99365 8.72234 0.652951C8.94508 0.311131 9.40274 0.214596 9.74456 0.437335C10.0864 0.660073 10.1829 1.11774 9.96018 1.45956C8.33085 3.95997 6.1247 6.16147 4.34508 7.72748C3.83299 8.1781 3.3538 8.5782 2.93053 8.91985L24.8721 8.91985L37.2613 8.91985ZM0.351956 9.09852C0.319008 9.05085 0.318982 9.05087 0.318955 9.05089L0.32111 9.12662C0.331124 9.11697 0.341412 9.1076 0.351956 9.09852ZM0.352223 10.2189L0.354233 10.2894C0.354271 10.2895 0.354313 10.2895 0.382401 10.2435C0.372124 10.2355 0.362061 10.2273 0.352223 10.2189Z" fill="black"/>
</svg>
