<svg width="453" height="634" viewBox="0 0 453 634" fill="none" xmlns="http://www.w3.org/2000/svg">
<path d="M496.439 630.81C495.147 630.889 493.856 631.015 492.563 631.034C445.957 631.752 399.351 632.454 352.748 633.16L348.184 633.229C351.23 630.546 353.594 628.369 356.066 626.31C362.08 621.291 366.197 614.898 369.351 607.854C375.001 595.233 375.241 582.158 372.658 568.794C370.502 557.671 366.297 547.332 360.73 537.597C355.401 528.276 349.108 519.562 341.829 511.626C338.326 507.808 334.722 504.083 331.083 500.393C321.891 491.068 312.021 482.525 301.512 474.694C292.166 467.728 282.636 461.045 272.647 455.035C264.476 450.121 256.423 444.973 247.999 440.528C234.059 433.17 220 426.008 205.739 419.294C189.982 411.874 173.926 405.084 158.03 397.954C144.929 392.07 131.778 386.277 118.818 380.092C108.085 374.972 97.4399 369.638 87.0561 363.855C76.7716 358.129 66.682 351.995 56.8359 345.541C45.1861 337.905 34.5495 328.964 25.0869 318.685C16.4741 309.331 9.23919 299.085 4.87449 287.046C-0.843702 271.27 -0.189804 255.622 6.12733 240.149C12.2924 225.049 22.9648 213.96 36.7612 205.615C50.3585 197.392 65.1504 192.567 80.7056 189.726C89.8925 188.05 99.1422 186.877 108.446 186.708C120.675 186.48 132.925 186.397 145.129 187.714C154.266 188.699 163.463 189.23 172.56 190.491C184.92 192.204 197.298 194.023 209.516 196.534C224.388 199.589 239.181 203.129 253.864 206.995C265.808 210.137 277.551 214.058 289.38 217.652C298.956 220.562 308.509 223.543 318.1 226.405C325.995 228.761 333.895 231.094 341.847 233.248C349.918 235.439 358.04 237.429 366.518 237.037C366.99 237.014 367.467 237.026 367.932 236.972C372.492 236.442 373.935 234.591 373.054 230.063C371.938 224.309 369.255 219.162 366.224 214.257C359.512 203.388 351.195 193.789 342.142 184.817C327.391 170.207 311.664 156.723 295.37 143.875C288.061 138.112 280.988 132.054 273.834 126.1C267.139 120.521 260.355 115.042 253.83 109.267C241.912 98.7175 230.304 87.8441 221.082 74.7153C216.114 67.6399 211.791 60.1921 209.128 51.9544C206.986 45.3328 205.606 38.5303 206.346 31.4433C207.173 23.5903 210.376 16.9352 216.249 11.7335C222.675 6.04263 230.36 3.08017 238.814 1.67495C253.158 -0.714288 267.182 1.01669 281.199 4.10773C297.288 7.65618 312.527 13.5748 327.474 20.3138C338.326 25.2069 348.914 30.6875 358.932 37.0754C370.248 44.2911 381.377 51.8409 392.18 59.7937C403.365 68.0324 414.138 76.8411 424.957 85.5702C433.844 92.74 442.375 100.357 451.351 107.407C457.73 112.415 464.639 116.749 471.223 121.498C476.703 125.455 482.773 128.261 488.87 131.042L490.049 208.909C485.821 205.366 481.504 201.923 477.376 198.264C466.712 188.803 456.253 179.115 445.481 169.778C436.238 161.766 426.778 153.998 417.24 146.341C408.039 138.96 398.192 132.502 387.623 127.234C385.01 125.933 382.187 124.904 379.347 124.249C375.463 123.358 374.568 125.689 374.971 128.628C375.303 131.043 376.026 133.465 376.963 135.721C380.869 145.103 386.262 153.681 391.603 162.281C394.52 166.975 397.598 171.572 400.585 176.229C405.41 183.756 410.191 191.311 415.035 198.822C418.608 204.362 422.376 209.772 425.843 215.376C432.644 226.389 439.277 237.508 446.015 248.565C455.891 264.778 464.792 281.468 471.589 299.245C475.017 308.201 477.662 317.337 478.835 326.859C479.433 331.699 479.267 336.632 477.4 341.131C474.304 348.585 467.86 351.268 460.313 351.414C452.235 351.576 444.408 349.637 436.795 347.194C426.718 343.964 416.757 340.342 406.831 336.665C397.781 333.314 388.832 329.673 379.854 326.131C368.247 321.553 356.697 316.828 345.036 312.392C336.131 309.007 327.128 305.856 318.094 302.824C309.168 299.829 300.18 296.989 291.148 294.323C283.475 292.058 275.711 290.09 267.962 288.087C261.013 286.292 254.085 284.359 247.052 282.964C237.816 281.133 228.513 279.602 219.197 278.249C207.275 276.518 195.269 275.856 183.263 277.189C175.27 278.075 167.559 279.879 160.514 284.223C153.066 288.818 151.952 296.466 155.436 303.147C157.937 307.949 161.609 311.773 165.495 315.356C176.193 325.222 188.267 333.266 200.683 340.729C213.281 348.304 226.13 355.477 239.006 362.579C247.043 367.01 255.281 371.091 263.525 375.133C272.088 379.327 280.73 383.355 289.407 387.316C300.113 392.207 310.803 397.142 321.653 401.708C333.476 406.685 345.446 411.313 357.39 415.996C374.704 422.786 392.116 429.334 409.364 436.279C421.378 441.115 433.258 446.296 445.074 451.6C458.616 457.682 471.687 464.686 484.401 472.362C487.596 474.288 490.883 476.06 494.123 477.907L496.439 630.81Z" fill="#EFE9DE"/>
</svg>
