<svg width="39" height="39" viewBox="0 0 39 39" fill="none" xmlns="http://www.w3.org/2000/svg">
<path fill-rule="evenodd" clip-rule="evenodd" d="M19.8545 39C19.6587 39 19.5 38.8413 19.5 38.6455L19.5 0.354547C19.5 0.158737 19.6587 1.13249e-06 19.8545 1.13249e-06C20.0504 1.13249e-06 20.2091 0.158737 20.2091 0.354547L20.2091 38.6455C20.2091 38.8413 20.0504 39 19.8545 39Z" fill="black"/>
<path fill-rule="evenodd" clip-rule="evenodd" d="M0 19.1454C0 18.9496 0.158735 18.7909 0.354545 18.7909H38.6455C38.8413 18.7909 39 18.9496 39 19.1454C39 19.3412 38.8413 19.5 38.6455 19.5H0.354545C0.158735 19.5 0 19.3412 0 19.1454Z" fill="black"/>
<path fill-rule="evenodd" clip-rule="evenodd" d="M5.93436 5.43253C6.07282 5.29407 6.2973 5.29407 6.43576 5.43253L33.5115 32.5083C33.65 32.6467 33.65 32.8712 33.5115 33.0097C33.3731 33.1481 33.1486 33.1481 33.0101 33.0097L5.93436 5.93393C5.7959 5.79547 5.7959 5.57098 5.93436 5.43253Z" fill="black"/>
<path fill-rule="evenodd" clip-rule="evenodd" d="M5.93436 33.4693C6.07282 33.6077 6.2973 33.6077 6.43576 33.4693L33.5115 6.39351C33.65 6.25505 33.65 6.03056 33.5115 5.89211C33.3731 5.75365 33.1486 5.75365 33.0101 5.89211L5.93436 32.9679C5.7959 33.1063 5.7959 33.3308 5.93436 33.4693Z" fill="black"/>
</svg>
