<svg width="38" height="38" viewBox="0 0 38 38" fill="none" xmlns="http://www.w3.org/2000/svg">
<path d="M31 12H31.75C31.75 11.8011 31.671 11.6103 31.5303 11.4697L31 12ZM24 5L24.5303 4.46967C24.3897 4.32902 24.1989 4.25 24 4.25V5ZM30.5 33.25H7.5V34.75H30.5V33.25ZM7.75 33.5V5.5H6.25V33.5H7.75ZM30.25 12V33.5H31.75V12H30.25ZM7.5 5.75H24V4.25H7.5V5.75ZM31.5303 11.4697L24.5303 4.46967L23.4697 5.53033L30.4697 12.5303L31.5303 11.4697ZM23.25 5V11.5H24.75V5H23.25ZM24.5 12.75H31V11.25H24.5V12.75ZM7.5 33.25C7.63807 33.25 7.75 33.3619 7.75 33.5H6.25C6.25 34.1904 6.80964 34.75 7.5 34.75V33.25ZM30.5 34.75C31.1904 34.75 31.75 34.1904 31.75 33.5H30.25C30.25 33.3619 30.3619 33.25 30.5 33.25V34.75ZM23.25 11.5C23.25 12.1904 23.8096 12.75 24.5 12.75V11.25C24.6381 11.25 24.75 11.3619 24.75 11.5H23.25ZM7.75 5.5C7.75 5.63807 7.63807 5.75 7.5 5.75V4.25C6.80965 4.25 6.25 4.80964 6.25 5.5H7.75Z" fill="black"/>
</svg>
