<svg width="38" height="38" viewBox="0 0 38 38" fill="none" xmlns="http://www.w3.org/2000/svg">
<path d="M31 12H31.75C31.75 11.8011 31.671 11.6103 31.5303 11.4697L31 12ZM24 5L24.5303 4.46967C24.3897 4.32902 24.1989 4.25 24 4.25V5ZM30.5 33.25H7.5V34.75H30.5V33.25ZM7.75 33.5V5.5H6.25V33.5H7.75ZM30.25 12V33.5H31.75V12H30.25ZM7.5 5.75H24V4.25H7.5V5.75ZM31.5303 11.4697L24.5303 4.46967L23.4697 5.53033L30.4697 12.5303L31.5303 11.4697ZM23.25 5V11.5H24.75V5H23.25ZM24.5 12.75H31V11.25H24.5V12.75ZM7.5 33.25C7.63807 33.25 7.75 33.3619 7.75 33.5H6.25C6.25 34.1904 6.80964 34.75 7.5 34.75V33.25ZM30.5 34.75C31.1904 34.75 31.75 34.1904 31.75 33.5H30.25C30.25 33.3619 30.3619 33.25 30.5 33.25V34.75ZM23.25 11.5C23.25 12.1904 23.8096 12.75 24.5 12.75V11.25C24.6381 11.25 24.75 11.3619 24.75 11.5H23.25ZM7.75 5.5C7.75 5.63807 7.63807 5.75 7.5 5.75V4.25C6.80965 4.25 6.25 4.80964 6.25 5.5H7.75Z" fill="black"/>
<path d="M14.1276 28.11V27.04H14.7376C14.8276 27.04 14.9142 27.0467 14.9976 27.06C15.0809 27.0733 15.1542 27.1 15.2176 27.14C15.2809 27.1767 15.3309 27.23 15.3676 27.3C15.4076 27.37 15.4276 27.4617 15.4276 27.575C15.4276 27.6883 15.4076 27.78 15.3676 27.85C15.3309 27.92 15.2809 27.975 15.2176 28.015C15.1542 28.0517 15.0809 28.0767 14.9976 28.09C14.9142 28.1033 14.8276 28.11 14.7376 28.11H14.1276ZM13.3426 26.43V30H14.1276V28.72H14.9526C15.1759 28.72 15.3659 28.6883 15.5226 28.625C15.6792 28.5583 15.8059 28.4717 15.9026 28.365C16.0026 28.2583 16.0742 28.1367 16.1176 28C16.1642 27.86 16.1876 27.7183 16.1876 27.575C16.1876 27.4283 16.1642 27.2867 16.1176 27.15C16.0742 27.0133 16.0026 26.8917 15.9026 26.785C15.8059 26.6783 15.6792 26.5933 15.5226 26.53C15.3659 26.4633 15.1759 26.43 14.9526 26.43H13.3426ZM18.4625 29.34V27.09H19.0225C19.2159 27.09 19.3775 27.1183 19.5075 27.175C19.6409 27.2283 19.7475 27.3067 19.8275 27.41C19.9075 27.5133 19.9642 27.6383 19.9975 27.785C20.0342 27.9283 20.0525 28.09 20.0525 28.27C20.0525 28.4667 20.0275 28.6333 19.9775 28.77C19.9275 28.9067 19.8609 29.0183 19.7775 29.105C19.6942 29.1883 19.5992 29.2483 19.4925 29.285C19.3859 29.3217 19.2759 29.34 19.1625 29.34H18.4625ZM17.6775 26.43V30H19.2175C19.4909 30 19.7275 29.955 19.9275 29.865C20.1309 29.7717 20.2992 29.645 20.4325 29.485C20.5692 29.325 20.6709 29.135 20.7375 28.915C20.8042 28.695 20.8375 28.455 20.8375 28.195C20.8375 27.8983 20.7959 27.64 20.7125 27.42C20.6325 27.2 20.5192 27.0167 20.3725 26.87C20.2292 26.7233 20.0575 26.6133 19.8575 26.54C19.6609 26.4667 19.4475 26.43 19.2175 26.43H17.6775ZM22.3836 26.43V30H23.1686V28.525H24.6636V27.915H23.1686V27.09H24.8936V26.43H22.3836Z" fill="black"/>
</svg>
