<svg width="14" height="14" viewBox="0 0 14 14" fill="none" xmlns="http://www.w3.org/2000/svg">
    <g clip-path="url(#clip0_14503_12859)">
        <path
            d="M12.6871 3.34719C12.8354 3.49524 12.9187 3.69608 12.9189 3.90558V11.4812C12.9186 11.7952 12.7937 12.0964 12.5716 12.3184C12.3494 12.5404 12.0483 12.6652 11.7342 12.6654H2.25218C1.93793 12.6655 1.63648 12.5408 1.41412 12.3188C1.19176 12.0967 1.06669 11.7954 1.06641 11.4812V1.99917C1.06627 1.84339 1.09684 1.68911 1.15638 1.54515C1.21591 1.40119 1.30324 1.27038 1.41337 1.1602C1.5235 1.05002 1.65427 0.962637 1.7982 0.903038C1.94213 0.843438 2.0964 0.812797 2.25218 0.812866H9.82567C9.92945 0.812819 10.0322 0.833218 10.1281 0.872897C10.224 0.912577 10.3112 0.970759 10.3846 1.04412L12.6871 3.34719Z"
            stroke="#2F3941" stroke-width="0.790167" stroke-linecap="round" stroke-linejoin="round" />
        <path
            d="M9.7583 0.812866V3.18337C9.7583 3.39293 9.84155 3.59391 9.98974 3.7421C10.1379 3.89028 10.3389 3.97353 10.5485 3.97353H12.919"
            stroke="#2F3941" stroke-width="0.790167" stroke-linecap="round" stroke-linejoin="round" />
        <path
            d="M3.04199 9.90079C3.46112 9.90079 3.86309 9.73429 4.15946 9.43792C4.45583 9.14155 4.62233 8.73958 4.62233 8.32045V7.53028C4.62233 7.11115 4.45583 6.70919 4.15946 6.41282C3.86309 6.11645 3.46112 5.94995 3.04199 5.94995V9.90079Z"
            stroke="#2F3941" stroke-width="0.790167" stroke-linecap="round" stroke-linejoin="round" />
        <path
            d="M6.9928 5.94995C7.4292 5.94995 7.78297 6.30372 7.78297 6.74012V8.32045V9.11062C7.78297 9.32018 7.69972 9.52117 7.55154 9.66935C7.40335 9.81754 7.20237 9.90079 6.9928 9.90079C6.78324 9.90079 6.58226 9.81754 6.43407 9.66935C6.28589 9.52117 6.20264 9.32018 6.20264 9.11062V6.74012C6.20264 6.53055 6.28589 6.32957 6.43407 6.18139C6.58226 6.0332 6.78324 5.94995 6.9928 5.94995V5.94995Z"
            stroke="#2F3941" stroke-width="0.790167" stroke-linecap="round" stroke-linejoin="round" />
        <path
            d="M10.7123 9.66971C10.8605 9.52153 10.9437 9.32054 10.9437 9.11098L10.7123 9.66971ZM10.7123 9.66971C10.5641 9.8179 10.3631 9.90115 10.1536 9.90115C9.944 9.90115 9.74302 9.8179 9.59484 9.66971C9.44665 9.52153 9.3634 9.32054 9.3634 9.11098V6.74048"
            stroke="#2F3941" stroke-width="0.790167" stroke-linecap="round" stroke-linejoin="round" />
        <path
            d="M10.7122 6.18149C10.8604 6.32967 10.9436 6.53065 10.9436 6.74022L10.7122 6.18149ZM10.7122 6.18149C10.564 6.0333 10.363 5.95005 10.1534 5.95005C9.94388 5.95005 9.7429 6.0333 9.59472 6.18149C9.44653 6.32967 9.36328 6.53065 9.36328 6.74022L9.36328 9.11072"
            stroke="#2F3941" stroke-width="0.790167" stroke-linecap="round" stroke-linejoin="round" />
    </g>
    <defs>
        <clipPath id="clip0_14503_12859">
            <rect width="12.6427" height="12.6427" fill="white" transform="translate(0.671387 0.419312)" />
        </clipPath>
    </defs>
</svg>