<svg width="16" height="16" viewBox="0 0 16 16" fill="none" xmlns="http://www.w3.org/2000/svg">
<g clip-path="url(#clip0_10426_29730)">
<path d="M3 12.998V7.99805" stroke="#2F3941" stroke-linecap="round" stroke-linejoin="round"/>
<path d="M3 8H3.5C3.89782 8 4.27936 8.15804 4.56066 8.43934C4.84196 8.72064 5 9.10218 5 9.5C5 9.89782 4.84196 10.2794 4.56066 10.5607C4.27936 10.842 3.89782 11 3.5 11H3" stroke="#2F3941" stroke-linecap="round" stroke-linejoin="round"/>
<path d="M7 13C7.53043 13 8.03914 12.7893 8.41421 12.4142C8.78929 12.0391 9 11.5304 9 11V10C9 9.46957 8.78929 8.96086 8.41421 8.58579C8.03914 8.21071 7.53043 8 7 8V13Z" stroke="#2F3941" stroke-linecap="round" stroke-linejoin="round"/>
<path d="M11 13V9C11 8.73478 11.1054 8.48043 11.2929 8.29289C11.4804 8.10536 11.7348 8 12 8H13" stroke="#2F3941" stroke-linecap="round" stroke-linejoin="round"/>
<path d="M11 10.998H12.5" stroke="#2F3941" stroke-linecap="round" stroke-linejoin="round"/>
<path d="M15.2067 3.70538C15.3943 3.89274 15.4998 4.14692 15.5 4.41205V13.9994C15.4996 14.3969 15.3415 14.7779 15.0604 15.0589C14.7793 15.3399 14.3981 15.4979 14.0007 15.498H2.00067C1.60296 15.4982 1.22146 15.3404 0.940047 15.0594C0.658637 14.7784 0.500354 14.3971 0.500001 13.9994V1.99938C0.499825 1.80223 0.538517 1.60698 0.613862 1.42479C0.689207 1.24261 0.799728 1.07706 0.939104 0.937622C1.07848 0.798184 1.24398 0.68759 1.42613 0.612164C1.60828 0.536737 1.80352 0.497959 2.00067 0.498047H11.5853C11.7167 0.497988 11.8467 0.523803 11.9681 0.574019C12.0895 0.624236 12.1998 0.697869 12.2927 0.790714L15.2067 3.70538Z" stroke="#2F3941" stroke-linecap="round" stroke-linejoin="round"/>
<path d="M11.5 0.498047V3.49805C11.5 3.76326 11.6054 4.01762 11.7929 4.20515C11.9804 4.39269 12.2348 4.49805 12.5 4.49805H15.5" stroke="#2F3941" stroke-linecap="round" stroke-linejoin="round"/>
</g>
<defs>
<clipPath id="clip0_10426_29730">
<rect width="16" height="16" fill="white"/>
</clipPath>
</defs>
</svg>
