<svg width="16" height="16" viewBox="0 0 16 16" fill="none" xmlns="http://www.w3.org/2000/svg">
    <path d="M15.2067 3.70538C15.3943 3.89274 15.4998 4.14692 15.5 4.41205V13.9994C15.4996 14.3969 15.3415 14.7779 15.0604 15.0589C14.7793 15.3399 14.3981 15.4979 14.0007 15.498H2.00067C1.60296 15.4982 1.22146 15.3404 0.940047 15.0594C0.658637 14.7784 0.500354 14.3971 0.500001 13.9994V1.99938C0.499825 1.80223 0.538517 1.60698 0.613862 1.42479C0.689207 1.24261 0.799728 1.07706 0.939104 0.937622C1.07848 0.798184 1.24398 0.68759 1.42613 0.612164C1.60828 0.536737 1.80352 0.497959 2.00067 0.498047H11.5853C11.7167 0.497988 11.8467 0.523803 11.9681 0.574019C12.0895 0.624236 12.1998 0.697869 12.2927 0.790714L15.2067 3.70538Z" stroke="#2F3941" stroke-linecap="round" stroke-linejoin="round"/>
    <path d="M11.5 0.498047V3.49805C11.5 3.76326 11.6054 4.01762 11.7929 4.20515C11.9804 4.39269 12.2348 4.49805 12.5 4.49805H15.5" stroke="#2F3941" stroke-linecap="round" stroke-linejoin="round"/>
</svg>
